<?xml version="1.0" standalone="no"?>
<!DOCTYPE svg PUBLIC "-//W3C//DTD SVG 20010904//EN"
 "http://www.w3.org/TR/2001/REC-SVG-20010904/DTD/svg10.dtd">
<svg version="1.0" xmlns="http://www.w3.org/2000/svg"
 width="960.000000pt" height="960.000000pt" viewBox="0 0 960.000000 960.000000"
 preserveAspectRatio="xMidYMid meet">
<metadata>
Created by potrace 1.11, written by Peter Selinger 2001-2013
</metadata>
<g transform="translate(0.000000,960.000000) scale(0.100000,-0.100000)"
fill="#000000" stroke="none">
<path d="M1528 8635 c-2 -2 -34 -6 -72 -10 -38 -3 -72 -7 -75 -10 -4 -2 -27
-6 -51 -10 -25 -4 -76 -15 -115 -26 -38 -11 -78 -22 -87 -24 -9 -2 -38 -13
-63 -24 -25 -11 -45 -18 -45 -16 0 2 -53 -22 -117 -54 -181 -90 -293 -170
-433 -311 -114 -115 -128 -132 -193 -229 -73 -108 -187 -343 -202 -416 -1 -5
-7 -28 -13 -50 -6 -22 -13 -51 -16 -65 -2 -14 -7 -32 -10 -40 -3 -8 -8 -33
-10 -55 -3 -22 -9 -62 -13 -90 -8 -54 -9 -324 -1 -390 3 -22 8 -56 12 -75 3
-19 8 -46 10 -60 3 -14 5 -25 6 -25 2 0 6 -15 14 -55 11 -49 39 -135 49 -147
5 -7 7 -13 4 -13 -8 0 69 -155 108 -216 19 -30 35 -58 35 -62 0 -4 9 -14 20
-22 11 -8 20 -19 20 -25 0 -21 242 -255 264 -255 3 0 17 -10 32 -22 14 -13 29
-23 32 -23 4 0 19 -9 34 -19 25 -16 26 -20 13 -39 -8 -12 -14 -24 -13 -27 0
-3 -8 -25 -19 -50 -23 -51 -67 -158 -78 -190 -1 -3 -7 -18 -14 -35 -20 -47
-88 -253 -106 -320 -9 -33 -22 -83 -30 -112 -8 -28 -16 -63 -19 -77 -3 -14 -7
-34 -10 -44 -3 -9 -8 -35 -11 -57 -4 -22 -9 -49 -11 -60 -12 -58 -31 -208 -39
-295 -2 -30 -7 -77 -9 -105 -24 -243 -24 -582 -1 -792 14 -126 15 -131 40
-268 24 -131 61 -268 99 -370 15 -38 29 -78 31 -89 2 -10 9 -24 16 -32 6 -8 9
-14 5 -14 -3 0 3 -17 13 -38 59 -123 118 -234 147 -280 19 -29 34 -56 34 -61
0 -5 3 -11 8 -13 10 -5 52 -66 52 -77 0 -5 3 -11 8 -13 4 -1 36 -38 71 -82 35
-43 73 -90 85 -103 34 -40 161 -165 208 -205 24 -20 54 -47 68 -59 14 -12 50
-40 80 -63 30 -22 63 -49 74 -58 10 -9 31 -22 47 -28 16 -7 29 -16 29 -21 0
-5 10 -14 23 -19 12 -6 51 -29 87 -51 74 -47 294 -162 390 -203 36 -16 84 -37
107 -47 23 -11 44 -19 47 -19 2 0 17 -5 33 -12 15 -6 30 -12 33 -13 3 -1 12
-5 20 -8 41 -17 293 -98 310 -100 11 -1 20 -5 20 -9 0 -4 3 -7 8 -6 4 1 27 -4
52 -11 25 -7 52 -14 60 -16 41 -9 157 -38 170 -43 8 -3 20 -6 25 -7 28 -4 114
-21 118 -25 1 -1 11 -3 22 -5 11 -2 31 -6 44 -9 49 -11 388 -66 436 -70 28 -3
50 -5 50 -6 0 -3 43 -9 110 -15 38 -4 85 -9 103 -11 18 -3 56 -7 85 -9 28 -2
88 -6 132 -10 44 -3 102 -8 129 -10 246 -26 1117 -26 1481 -1 212 15 293 22
363 31 20 3 62 7 92 10 30 3 71 8 90 11 19 3 49 7 65 9 17 2 53 7 80 11 28 4
64 8 80 10 17 1 30 3 30 4 0 1 9 3 20 4 21 3 77 13 110 20 11 2 40 7 65 11 25
4 54 9 65 12 11 2 30 6 43 9 31 6 243 53 262 58 71 18 150 39 175 46 17 5 68
21 115 36 47 14 90 27 95 29 6 1 23 7 38 13 16 7 32 12 37 12 5 0 30 9 57 21
26 11 56 21 66 22 9 1 17 5 17 9 0 4 7 8 16 8 9 0 35 9 58 20 112 53 196 88
196 82 0 -4 4 -2 8 3 4 6 64 39 134 75 71 36 128 68 128 73 0 4 4 7 10 7 25 0
340 215 340 231 0 5 4 9 9 9 8 0 59 40 103 82 10 10 20 18 22 18 6 0 169 167
216 221 25 29 65 80 90 113 25 34 48 63 52 64 5 2 8 10 8 18 0 8 3 14 8 14 4
0 21 23 37 51 17 28 40 68 53 88 31 50 122 235 122 248 0 6 4 13 8 15 5 2 16
26 26 53 37 106 96 287 101 308 36 171 56 273 60 321 3 33 8 62 10 66 17 27
25 553 11 730 -4 52 -9 122 -12 155 -4 58 -6 77 -21 195 -4 30 -7 67 -7 83 -1
15 -4 27 -8 27 -4 0 -6 8 -6 18 0 16 -2 31 -17 102 -3 14 -8 41 -11 60 -3 19
-10 42 -15 51 -4 9 -6 19 -3 22 3 3 2 12 -2 19 -5 7 -10 22 -12 33 -1 11 -16
65 -33 120 -17 55 -32 107 -34 115 -4 16 -61 175 -72 200 -3 8 -7 17 -7 20 -4
14 -42 108 -53 130 -18 35 -18 36 25 61 20 13 43 29 50 36 7 7 16 13 20 13 4
0 26 17 48 38 23 20 54 49 70 63 92 84 186 217 246 348 21 47 43 93 47 101 5
9 12 31 17 50 10 43 9 42 17 60 7 16 29 106 42 169 20 102 27 372 12 476 -4
28 -8 57 -8 65 -1 8 -5 31 -10 50 -4 19 -11 50 -14 69 -3 19 -8 37 -10 41 -4
7 -16 58 -17 78 -1 6 -6 12 -11 12 -6 0 -8 3 -5 6 12 11 -80 223 -147 339 -89
153 -255 341 -394 445 -19 14 -43 33 -54 43 -11 9 -23 17 -27 17 -4 0 -17 9
-30 20 -13 11 -29 20 -36 20 -7 0 -14 4 -16 9 -3 9 -200 111 -214 111 -3 0
-20 6 -37 14 -166 74 -434 123 -651 120 -105 -2 -196 -8 -241 -18 -11 -2 -40
-7 -65 -10 -50 -7 -84 -13 -87 -16 -2 -2 -6 -3 -10 -4 -131 -34 -203 -61 -318
-117 -55 -27 -109 -55 -120 -62 -73 -46 -211 -157 -269 -215 -75 -77 -65 -75
-156 -34 -76 33 -249 100 -275 106 -5 1 -48 15 -95 30 -47 15 -92 29 -100 31
-8 2 -15 4 -15 5 0 1 -7 3 -15 5 -24 6 -58 15 -77 19 -102 26 -225 55 -253 60
-32 5 -100 18 -160 31 -14 3 -45 7 -70 10 -25 3 -61 7 -80 10 -19 2 -57 7 -85
10 -27 3 -61 8 -75 10 -122 19 -766 27 -945 11 -49 -5 -110 -10 -135 -12 -25
-1 -56 -5 -70 -8 -14 -2 -49 -7 -78 -10 -69 -8 -115 -15 -182 -27 -30 -6 -66
-12 -80 -15 -14 -2 -34 -6 -46 -9 -12 -3 -39 -7 -60 -11 -21 -3 -47 -10 -56
-15 -10 -5 -18 -8 -18 -5 0 2 -16 0 -36 -6 -20 -5 -46 -12 -58 -14 -11 -3 -25
-6 -31 -8 -5 -1 -30 -8 -55 -15 -40 -11 -117 -34 -160 -49 -8 -3 -22 -6 -31
-8 -9 -2 -37 -13 -63 -24 -26 -11 -52 -20 -58 -20 -5 0 -24 -6 -41 -14 -49
-21 -181 -71 -187 -71 -3 0 -33 32 -65 70 -166 196 -359 330 -611 423 -135 50
-166 59 -324 88 -72 14 -412 29 -422 19z"/>
</g>
</svg>
