<?xml version="1.0" encoding="UTF-8"?> <svg xmlns="http://www.w3.org/2000/svg" width="25" height="25" viewBox="0 0 25 25" fill="none"> <path d="M19.1667 2.5H6.66667C5.74583 2.5 5 3.24583 5 4.16667V20.8333C5 21.7542 5.74583 22.5 6.66667 22.5H19.1667C20.0875 22.5 20.8333 21.7542 20.8333 20.8333V4.16667C20.8333 3.24583 20.0875 2.5 19.1667 2.5ZM8.75 13.3333C9.44 13.3333 10 13.8933 10 14.5833C10 15.2733 9.44 15.8333 8.75 15.8333C8.06 15.8333 7.5 15.2733 7.5 14.5833C7.5 13.8933 8.06 13.3333 8.75 13.3333ZM7.5 10.4167C7.5 9.72667 8.06 9.16667 8.75 9.16667C9.44 9.16667 10 9.72667 10 10.4167C10 11.1067 9.44 11.6667 8.75 11.6667C8.06 11.6667 7.5 11.1067 7.5 10.4167ZM12.9167 20H8.75C8.06 20 7.5 19.44 7.5 18.75C7.5 18.06 8.06 17.5 8.75 17.5H12.9167C13.6067 17.5 14.1667 18.06 14.1667 18.75C14.1667 19.44 13.6067 20 12.9167 20ZM12.9167 15.8333C12.2267 15.8333 11.6667 15.2733 11.6667 14.5833C11.6667 13.8933 12.2267 13.3333 12.9167 13.3333C13.6067 13.3333 14.1667 13.8933 14.1667 14.5833C14.1667 15.2733 13.6067 15.8333 12.9167 15.8333ZM12.9167 11.6667C12.2267 11.6667 11.6667 11.1067 11.6667 10.4167C11.6667 9.72667 12.2267 9.16667 12.9167 9.16667C13.6067 9.16667 14.1667 9.72667 14.1667 10.4167C14.1667 11.1067 13.6067 11.6667 12.9167 11.6667ZM17.0833 20C16.3933 20 15.8333 19.44 15.8333 18.75C15.8333 18.06 16.3933 17.5 17.0833 17.5C17.7733 17.5 18.3333 18.06 18.3333 18.75C18.3333 19.44 17.7733 20 17.0833 20ZM17.0833 15.8333C16.3933 15.8333 15.8333 15.2733 15.8333 14.5833C15.8333 13.8933 16.3933 13.3333 17.0833 13.3333C17.7733 13.3333 18.3333 13.8933 18.3333 14.5833C18.3333 15.2733 17.7733 15.8333 17.0833 15.8333ZM17.0833 11.6667C16.3933 11.6667 15.8333 11.1067 15.8333 10.4167C15.8333 9.72667 16.3933 9.16667 17.0833 9.16667C17.7733 9.16667 18.3333 9.72667 18.3333 10.4167C18.3333 11.1067 17.7733 11.6667 17.0833 11.6667ZM18.3333 7.5H7.5V5H18.3333V7.5Z" fill="#5B6CFF"></path> </svg> 