<?xml version="1.0" encoding="UTF-8"?> <svg xmlns="http://www.w3.org/2000/svg" width="232" height="86" viewBox="0 0 232 86" fill="none"> <path d="M0.832031 34.5979H5.80066L8.20483 27.1564H21.7369L24.1869 34.5979H29.1555L18.4397 1.62636H11.5478L0.832031 34.5979ZM9.67023 22.6686L14.9365 6.41181L20.2715 22.6686H9.67023Z" fill="#F1F2FB"></path> <path d="M33.2633 34.5979H47.4594C50.6039 34.5979 53.031 33.7202 54.7406 31.9647C56.4655 30.2093 57.328 27.8815 57.328 24.9812C57.328 23.2258 56.8929 21.6611 56.0229 20.2873C55.1528 18.9135 53.9011 17.8755 52.2678 17.1734C53.3515 16.5475 54.2064 15.6545 54.8322 14.4944C55.4581 13.3343 55.771 11.9987 55.771 10.4875C55.771 8.99153 55.4123 7.57192 54.6948 6.22863C53.9774 4.87009 52.9089 3.7634 51.4893 2.90859C50.0849 2.05377 48.3295 1.62636 46.223 1.62636H33.2633V34.5979ZM38.1175 15.0897V6.13705H46.1543C47.5892 6.13705 48.734 6.54919 49.5888 7.37348C50.4436 8.19777 50.871 9.25102 50.871 10.5333C50.871 11.9681 50.4131 13.0901 49.4972 13.8991C48.5966 14.6929 47.4823 15.0897 46.1543 15.0897H38.1175ZM38.1175 30.0414V19.6004H47.0244C48.6729 19.6004 49.9857 20.1118 50.9626 21.1345C51.9396 22.142 52.428 23.3937 52.428 24.8896C52.428 26.4924 51.8861 27.7517 50.8024 28.6676C49.7186 29.5835 48.36 30.0414 46.7267 30.0414H38.1175Z" fill="#F1F2FB"></path> <path d="M69.21 34.5979H73.9955V6.13705H84.9631V1.62636H58.2424V6.13705H69.21V34.5979Z" fill="#F1F2FB"></path> <path d="M102.388 35.2848C105.686 35.2848 108.494 34.5597 110.814 33.1096C113.135 31.6595 114.905 29.6522 116.126 27.0877C117.348 24.508 117.958 21.5161 117.958 18.1121C117.958 14.7081 117.348 11.7239 116.126 9.15944C114.905 6.57972 113.135 4.56479 110.814 3.11466C108.494 1.66452 105.686 0.939453 102.388 0.939453C99.0912 0.939453 96.2825 1.66452 93.9623 3.11466C91.6421 4.56479 89.8637 6.57972 88.6273 9.15944C87.4061 11.7239 86.7956 14.7081 86.7956 18.1121C86.7956 21.5161 87.4061 24.508 88.6273 27.0877C89.8637 29.6522 91.6421 31.6595 93.9623 33.1096C96.2825 34.5597 99.0912 35.2848 102.388 35.2848ZM102.388 30.7283C98.8928 30.6978 96.2596 29.53 94.4889 27.2251C92.7335 24.9201 91.8634 21.8825 91.8787 18.1121C91.8939 15.5935 92.2832 13.3877 93.0464 11.4949C93.8249 9.58685 94.9926 8.10618 96.5496 7.05292C98.1066 5.9844 100.053 5.46541 102.388 5.49593C105.899 5.5112 108.525 6.67131 110.265 8.97626C112.005 11.2812 112.875 14.3265 112.875 18.1121C112.875 20.6308 112.486 22.8441 111.707 24.7522C110.944 26.645 109.784 28.1181 108.227 29.1713C106.67 30.2246 104.724 30.7436 102.388 30.7283Z" fill="#F1F2FB"></path> <path d="M122.525 34.5979H127.311V6.13705H143.957V34.5979H148.742V1.62636H122.525V34.5979Z" fill="#F1F2FB"></path> <path d="M155.171 34.5979H159.957V22.7602H168.497C168.803 22.7602 169.192 22.7449 169.665 22.7144C170.154 22.6839 170.612 22.6381 171.039 22.577C173.787 22.1343 175.847 20.959 177.221 19.0509C178.61 17.1428 179.305 14.8531 179.305 12.1818C179.305 9.51052 178.618 7.22083 177.244 5.31276C175.87 3.40468 173.802 2.23694 171.039 1.80953C170.612 1.73321 170.161 1.68742 169.688 1.67215C169.215 1.64162 168.818 1.62636 168.497 1.62636H155.171V34.5979ZM159.957 18.2266V6.13705H168.314C168.62 6.13705 168.955 6.15231 169.322 6.18284C169.703 6.21337 170.062 6.27443 170.398 6.36602C171.863 6.70184 172.901 7.4498 173.512 8.60991C174.122 9.77002 174.428 10.9607 174.428 12.1818C174.428 13.3877 174.122 14.5784 173.512 15.7537C172.901 16.9139 171.863 17.6695 170.398 18.0205C170.062 18.0969 169.703 18.1503 169.322 18.1808C168.955 18.2113 168.62 18.2266 168.314 18.2266H159.957Z" fill="#F1F2FB"></path> <path d="M197.643 35.2848C200.94 35.2848 203.749 34.5597 206.069 33.1096C208.389 31.6595 210.16 29.6522 211.381 27.0877C212.602 24.508 213.213 21.5161 213.213 18.1121C213.213 14.7081 212.602 11.7239 211.381 9.15944C210.16 6.57972 208.389 4.56479 206.069 3.11466C203.749 1.66452 200.94 0.939453 197.643 0.939453C194.346 0.939453 191.537 1.66452 189.217 3.11466C186.897 4.56479 185.118 6.57972 183.882 9.15944C182.661 11.7239 182.05 14.7081 182.05 18.1121C182.05 21.5161 182.661 24.508 183.882 27.0877C185.118 29.6522 186.897 31.6595 189.217 33.1096C191.537 34.5597 194.346 35.2848 197.643 35.2848ZM197.643 30.7283C194.147 30.6978 191.514 29.53 189.744 27.2251C187.988 24.9201 187.118 21.8825 187.133 18.1121C187.149 15.5935 187.538 13.3877 188.301 11.4949C189.08 9.58685 190.247 8.10618 191.804 7.05292C193.361 5.9844 195.308 5.46541 197.643 5.49593C201.154 5.5112 203.779 6.67131 205.52 8.97626C207.26 11.2812 208.13 14.3265 208.13 18.1121C208.13 20.6308 207.741 22.8441 206.962 24.7522C206.199 26.645 205.039 28.1181 203.482 29.1713C201.925 30.2246 199.978 30.7436 197.643 30.7283Z" fill="#F1F2FB"></path> <path d="M217.322 22.0733H231.06V18.2266H217.322V22.0733Z" fill="#F1F2FB"></path> <path d="M3.12172 85.5979H17.3178C20.4623 85.5979 22.8894 84.7202 24.599 82.9647C26.3239 81.2093 27.1864 78.8815 27.1864 75.9812C27.1864 74.2258 26.7513 72.6611 25.8812 71.2873C25.0112 69.9135 23.7595 68.8755 22.1261 68.1733C23.2099 67.5475 24.0647 66.6545 24.6906 65.4944C25.3164 64.3343 25.6294 62.9987 25.6294 61.4875C25.6294 59.9915 25.2707 58.5719 24.5532 57.2286C23.8358 55.8701 22.7673 54.7634 21.3477 53.9086C19.9433 53.0538 18.1879 52.6264 16.0814 52.6264H3.12172V85.5979ZM7.97586 66.0897V57.137H16.0127C17.4475 57.137 18.5924 57.5492 19.4472 58.3735C20.302 59.1978 20.7294 60.251 20.7294 61.5333C20.7294 62.9681 20.2715 64.0901 19.3556 64.8991C18.455 65.6929 17.3407 66.0897 16.0127 66.0897H7.97586ZM7.97586 81.0414V70.6004H16.8828C18.5313 70.6004 19.8441 71.1118 20.821 72.1345C21.798 73.142 22.2864 74.3937 22.2864 75.8896C22.2864 77.4924 21.7445 78.7517 20.6607 79.6676C19.577 80.5835 18.2184 81.0414 16.5851 81.0414H7.97586Z" fill="#F1F2FB"></path> <path d="M31.7428 85.5979H52.808V81.0872H36.5283V70.8981H50.0604V66.3874H36.5283V57.137H52.808V52.6264H31.7428V85.5979Z" fill="#F1F2FB"></path> <path d="M58.3068 85.5979H63.0923V73.7602H71.6328C71.9381 73.7602 72.3273 73.7449 72.8006 73.7144C73.289 73.6839 73.747 73.6381 74.1744 73.577C76.922 73.1343 78.9827 71.959 80.3565 70.0509C81.7456 68.1428 82.4401 65.8531 82.4401 63.1818C82.4401 60.5105 81.7532 58.2208 80.3794 56.3128C79.0056 54.4047 76.9373 53.2369 74.1744 52.8095C73.747 52.7332 73.2967 52.6874 72.8234 52.6722C72.3502 52.6416 71.9534 52.6264 71.6328 52.6264H58.3068V85.5979ZM63.0923 69.2266V57.137H71.4496C71.7549 57.137 72.0907 57.1523 72.4571 57.1828C72.8387 57.2134 73.1974 57.2744 73.5332 57.366C74.9986 57.7018 76.0366 58.4498 76.6472 59.6099C77.2578 60.77 77.5631 61.9607 77.5631 63.1818C77.5631 64.3877 77.2578 65.5784 76.6472 66.7537C76.0366 67.9139 74.9986 68.6695 73.5332 69.0205C73.1974 69.0969 72.8387 69.1503 72.4571 69.1808C72.0907 69.2113 71.7549 69.2266 71.4496 69.2266H63.0923Z" fill="#F1F2FB"></path> <path d="M87.0174 85.5979H91.8028V69.8448L106.503 85.5979H112.639L96.9775 68.7229L111.563 52.6264H105.61L91.8028 68.0131V52.6264H87.0174V85.5979Z" fill="#F1F2FB"></path> <path d="M113.572 85.5979H118.541L120.945 78.1564H134.477L136.927 85.5979H141.896L131.18 52.6264H124.288L113.572 85.5979ZM122.411 73.6686L127.677 57.4118L133.012 73.6686H122.411Z" fill="#F1F2FB"></path> </svg> 