<?xml version="1.0" encoding="UTF-8"?> <svg xmlns="http://www.w3.org/2000/svg" width="130" height="20" viewBox="0 0 130 20" fill="none"> <path d="M128.947 9.22431C128.947 7.42076 126.978 2.66504 121.399 2.66504C115.821 2.66504 113.852 7.42076 113.852 9.22431V15.6442C113.852 16.7052 115.017 17.3661 115.919 16.8068C118.014 15.5049 120.541 12.8453 121.399 8.07768C122.258 12.8453 124.785 15.5049 126.88 16.8068C127.78 17.3661 128.947 16.7052 128.947 15.6442V9.22431Z" fill="#32425C"></path> <path d="M83.9827 2.5H83.678C81.5093 2.5 79.7627 3.19076 78.4045 4.6121C77.0463 5.99562 76.3652 7.75338 76.3652 9.84757C76.3652 12.0532 77.0443 13.8289 78.4204 15.1766C79.7965 16.5044 81.5431 17.1772 83.678 17.1772H83.9827C86.1177 17.1772 87.8662 16.5044 89.2404 15.1766C90.6165 13.8309 91.2956 12.0552 91.2956 9.84757C91.2956 7.75338 90.6165 5.99562 89.2563 4.6121C87.8981 3.19076 86.1495 2.5 83.9827 2.5ZM86.4164 12.1826C85.7432 12.7898 84.8988 13.0187 83.9608 13.0187H83.6979C82.7599 13.0187 81.9155 12.7918 81.2424 12.1826C80.5693 11.5755 80.3044 10.8349 80.3044 9.82766C80.3044 8.78455 80.5712 8.09976 81.2265 7.51251C81.8677 6.92327 82.6962 6.63861 83.682 6.63861H83.9768C84.9626 6.63861 85.791 6.92327 86.4323 7.51251C87.0895 8.10175 87.3544 8.78455 87.3544 9.82766C87.3544 10.8349 87.0875 11.5755 86.4164 12.1826Z" fill="#32425C"></path> <path d="M34.9707 3.15674C34.6919 3.48918 34.5465 3.91718 34.5645 4.35114L34.5605 15.3715C34.5605 15.8015 34.6979 16.2195 34.9727 16.548C35.1221 16.7072 35.3033 16.8326 35.5065 16.9123C35.7096 16.9939 35.8749 17.0078 36.1398 17.0078C36.5839 17.0078 36.9344 16.9282 37.2351 16.6575L46.0337 7.86269V15.3695C46.0177 15.7995 46.1651 16.2195 46.4439 16.546C46.5933 16.7052 46.7745 16.8306 46.9777 16.9123C47.1788 16.9939 47.3481 17.0138 47.6149 17.0138C47.8818 17.0138 48.077 16.9919 48.2821 16.9103C48.4872 16.8287 48.6705 16.7052 48.8238 16.546C49.1106 16.2235 49.2619 15.8015 49.244 15.3695V4.35114C49.246 3.88333 49.1086 3.49515 48.8198 3.17067C48.5171 2.88601 48.1746 2.66504 47.7225 2.66504C47.2704 2.66504 46.8542 2.76259 46.5435 3.07313L37.7688 11.844V4.35114C37.7688 3.86343 37.6394 3.49714 37.3586 3.17067C37.2052 3.00744 37.018 2.88003 36.8109 2.79643C36.6038 2.71282 36.4046 2.66703 36.1338 2.66703C35.8629 2.66703 35.7036 2.71282 35.5025 2.79245C35.3013 2.87207 35.1201 2.99748 34.9707 3.15674Z" fill="#32425C"></path> <path d="M94.0444 16.548C94.1978 16.7072 94.381 16.8326 94.5861 16.9123C94.7913 16.9939 94.9864 17.0158 95.2533 17.0158C95.5202 17.0158 95.6894 16.9959 95.8906 16.9143C96.0937 16.8326 96.275 16.7092 96.4243 16.548C96.7031 16.2215 96.8505 15.8015 96.8346 15.3715V7.86468L101.533 12.5607C102.109 13.136 103.045 13.136 103.62 12.5607L108.318 7.86468V15.3715C108.302 15.8015 108.448 16.2215 108.726 16.548C108.876 16.7092 109.059 16.8326 109.26 16.9143C109.463 16.9959 109.633 17.0158 109.899 17.0158C110.164 17.0158 110.361 16.9939 110.567 16.9123C110.77 16.8326 110.955 16.7072 111.106 16.548C111.393 16.2255 111.544 15.8035 111.528 15.3715V4.35114C111.528 3.88333 111.391 3.49515 111.104 3.17067C110.802 2.888 110.459 2.66504 110.007 2.66504C109.553 2.66504 109.137 2.76458 108.828 3.07313L102.577 9.32185L96.3247 3.07313C96.0141 2.76458 95.5978 2.66504 95.1458 2.66504C94.6937 2.66504 94.3491 2.888 94.0484 3.17067C93.7596 3.49515 93.6222 3.88333 93.6242 4.35114V15.3715C93.6083 15.8035 93.7577 16.2255 94.0444 16.548Z" fill="#32425C"></path> <path d="M53.9144 13.0825C53.3229 13.0825 52.841 13.2676 52.4885 13.6598C52.1559 14.032 51.9707 14.4979 51.9707 15.0553C51.9707 15.6126 52.138 16.0785 52.4706 16.4507C52.8031 16.823 53.2851 17.0081 53.9144 17.0081C54.5437 17.0081 55.0257 16.823 55.3762 16.4507C55.7287 16.0785 55.894 15.6126 55.894 15.0553C55.894 14.5158 55.7088 14.05 55.3563 13.6598C55.0078 13.2696 54.5258 13.0825 53.9144 13.0825Z" fill="#32425C"></path> <path d="M17.7037 3.15871C17.4209 3.4812 17.2695 3.94702 17.2695 4.40288V6.70609C17.2695 9.09688 17.7594 10.7472 18.7413 11.6948C20.0816 13.0225 22.0751 13.6098 24.6422 13.6098C26.7552 13.6098 27.8127 13.136 29.0016 12.6443V15.3934C29.0016 15.8672 29.1311 16.2594 29.4139 16.5619C29.6967 16.8645 30.097 17.0098 30.6068 17.0098C31.1345 17.0098 31.5767 16.8665 31.8395 16.5619C32.1223 16.2594 32.2339 15.7597 32.2339 15.3934V4.40288C32.2339 4.00475 32.0745 3.44338 31.7898 3.14079C31.507 2.83821 31.1106 2.66701 30.6008 2.66701C30.0731 2.66701 29.6767 2.8183 29.4119 3.14079C29.147 3.46328 28.9976 3.91118 28.9976 4.40288V9.32382C28.1293 10.1779 26.9045 10.6895 24.8851 10.6895C23.9611 10.6895 22.2503 10.4426 21.2128 9.47511C20.6651 8.96351 20.5018 7.9403 20.5018 6.53688V4.40288C20.5018 3.94702 20.3624 3.4812 20.0796 3.15871C19.7968 2.83622 19.3965 2.66701 18.8886 2.66701C18.3788 2.66502 17.9865 2.83622 17.7037 3.15871Z" fill="#32425C"></path> <path d="M0.414238 3.12489C0.133432 3.44339 0 3.83158 0 4.30934V4.32725C0 6.64241 0.583517 8.30462 1.75055 9.79165C2.93551 11.2807 4.84339 12.0252 7.50806 12.0252C8.87823 12.0252 10.0632 11.8022 11.0629 11.3742C11.1745 11.3185 11.4334 11.207 11.5449 11.1692C10.8777 13.4206 9.00768 13.978 7.10179 13.9979C5.17598 14.0158 4.21407 13.6077 3.08488 12.7697C2.12297 12.063 1.3622 12.3596 0.90017 12.9747C0.362458 13.7013 0.473983 14.5195 1.40004 15.2819C2.73238 16.3987 4.87924 17.0118 7.11971 17.0118C8.48988 17.0118 10.0831 16.7908 11.0649 16.3628C12.0647 15.9348 12.8434 15.3217 13.3791 14.5394C13.9168 13.757 14.3231 12.9011 14.564 11.9714C14.805 11.0418 14.9464 9.97678 14.9464 8.82418V4.4029C14.9464 3.90125 14.805 3.4852 14.5083 3.14878C14.2315 2.81434 13.8232 2.66504 13.2855 2.66504C12.7677 2.66504 12.3594 2.83226 12.0826 3.14878C11.8058 3.48321 11.7241 3.89329 11.7241 4.39494V4.4885C11.7241 7.85671 10.1508 9.00931 7.39255 9.00931C4.63428 9.00931 3.21034 7.59594 3.21034 4.45068V4.30934C3.21034 3.83158 3.06894 3.42548 2.78814 3.12489C2.48941 2.80638 2.10106 2.66504 1.57331 2.66504C1.08339 2.66504 0.677119 2.80638 0.414238 3.12489Z" fill="#32425C"></path> <path d="M75.2128 19.6157C75.4896 19.3589 75.643 18.9946 75.633 18.6184V16.0524C75.633 15.2044 75.0176 14.008 73.5837 13.9722V5.00814C73.5837 3.72614 72.6398 2.68701 71.3572 2.68701H64.2913C62.9968 2.68701 61.9931 3.73013 61.9612 4.96434C61.8935 7.44472 61.4653 9.7539 60.9515 11.5953C60.6846 12.5548 60.4018 13.355 60.1509 13.9702C60.0712 13.9702 59.9995 13.9702 59.9398 13.9702C58.4561 13.9702 57.8288 15.1944 57.8288 16.0524V18.6184C57.8168 18.9966 57.9702 19.3589 58.249 19.6157C58.6393 19.8924 58.9241 19.9999 59.428 19.9999C59.9318 19.9999 60.3102 19.8864 60.6089 19.6157C60.8937 19.3629 61.0511 18.9986 61.0391 18.6184V17.0119H72.4247V18.6184C72.4127 18.9986 72.5701 19.3649 72.8548 19.6157C73.1536 19.8864 73.5419 19.9999 74.0478 19.9999C74.5536 19.9999 74.8205 19.8924 75.2128 19.6157ZM70.3674 5.70288V13.9682C68.3181 13.9682 65.7093 13.9682 63.5803 13.9682C63.7416 13.4964 63.899 12.9908 64.0483 12.4573C64.5621 10.6179 65.0003 8.15937 65.1397 5.70288H70.3674Z" fill="#32425C"></path> </svg> 