<?xml version="1.0" encoding="UTF-8"?> <svg xmlns="http://www.w3.org/2000/svg" width="243" height="91" viewBox="0 0 243 91" fill="none"> <path d="M0.9375 31.6264H14.2122C17.1526 31.6264 19.4221 30.8057 21.0208 29.1642C22.6337 27.5227 23.4402 25.3459 23.4402 22.6339C23.4402 20.9924 23.0334 19.5293 22.2198 18.2447C21.4062 16.96 20.2357 15.9894 18.7084 15.3328C19.7219 14.7476 20.5212 13.9126 21.1064 12.8278C21.6916 11.743 21.9843 10.494 21.9843 9.08088C21.9843 7.68204 21.6488 6.35458 20.978 5.09848C20.3071 3.82811 19.3079 2.79326 17.9805 1.99392C16.6673 1.19459 15.0258 0.794922 13.056 0.794922H0.9375V31.6264ZM5.47658 13.3844V5.01284H12.9917C14.3335 5.01284 15.404 5.39823 16.2034 6.16902C17.0027 6.93981 17.4024 7.9247 17.4024 9.1237C17.4024 10.4654 16.9741 11.5146 16.1177 12.2711C15.2756 13.0133 14.2336 13.3844 12.9917 13.3844H5.47658ZM5.47658 27.3657V17.6024H13.8054C15.3469 17.6024 16.5745 18.0805 17.488 19.0369C18.4015 19.979 18.8583 21.1494 18.8583 22.5482C18.8583 24.047 18.3516 25.2246 17.3381 26.081C16.3247 26.9374 15.0543 27.3657 13.527 27.3657H5.47658Z" fill="#F1F2FB"></path> <path d="M51.9593 31.6264H47.4202V8.69549L32.24 31.6264H27.7009V0.794922H32.24V23.7044L47.4202 0.794922H51.9593V31.6264Z" fill="#F1F2FB"></path> <path d="M57.9352 31.6264H62.4101V20.557H70.3963C70.6818 20.557 71.0458 20.5428 71.4883 20.5142C71.945 20.4857 72.3732 20.4428 72.7729 20.3858C75.3422 19.9718 77.2691 18.8727 78.5538 17.0885C79.8527 15.3043 80.5022 13.1632 80.5022 10.6653C80.5022 8.16736 79.8598 6.02628 78.5752 4.24205C77.2906 2.45782 75.3565 1.36588 72.7729 0.966208C72.3732 0.894839 71.9521 0.852017 71.5097 0.837743C71.0672 0.809196 70.6961 0.794922 70.3963 0.794922H57.9352V31.6264ZM62.4101 16.3177V5.01284H70.225C70.5105 5.01284 70.8245 5.02711 71.1671 5.05566C71.5239 5.08421 71.8594 5.1413 72.1734 5.22695C73.5437 5.54097 74.5143 6.24039 75.0853 7.3252C75.6562 8.41001 75.9417 9.52337 75.9417 10.6653C75.9417 11.7929 75.6562 12.9063 75.0853 14.0054C74.5143 15.0902 73.5437 15.7967 72.1734 16.125C71.8594 16.1964 71.5239 16.2463 71.1671 16.2749C70.8245 16.3034 70.5105 16.3177 70.225 16.3177H62.4101Z" fill="#F1F2FB"></path> <path d="M92.4688 31.6264H96.9436V5.01284H107.199V0.794922H82.213V5.01284H92.4688V31.6264Z" fill="#F1F2FB"></path> <path d="M115.058 31.6264H119.897L134.327 0.794922H129.553L121.288 18.887L113.238 0.794922H108.206L118.955 23.6402L115.058 31.6264Z" fill="#F1F2FB"></path> <path d="M132.53 31.6264H137.176L139.424 24.6679H152.078L154.369 31.6264H159.015L148.995 0.794922H142.55L132.53 31.6264ZM140.794 20.4714L145.719 5.26977L150.708 20.4714H140.794Z" fill="#F1F2FB"></path> <path d="M162.137 31.6264C163.707 31.969 164.999 32.0047 166.012 31.7334C167.026 31.4622 167.847 30.9413 168.475 30.1705C169.103 29.3997 169.602 28.4291 169.973 27.2586C170.344 26.0881 170.658 24.775 170.915 23.319C171.329 21.0495 171.658 18.8085 171.9 16.5961C172.143 14.3693 172.336 12.2639 172.478 10.2799C172.621 8.29582 172.742 6.54014 172.842 5.01284H184.404V31.6264H188.879V0.794922H168.646C168.56 2.70761 168.446 4.83441 168.303 7.17532C168.161 9.50196 167.961 11.9 167.704 14.3693C167.447 16.8244 167.111 19.201 166.697 21.4991C166.398 23.2976 166.077 24.6679 165.734 25.61C165.406 26.5378 164.963 27.1587 164.407 27.4727C163.864 27.7725 163.108 27.8795 162.137 27.7939V31.6264Z" fill="#F1F2FB"></path> <path d="M194.867 31.6264H207.328C207.628 31.6264 207.992 31.6121 208.42 31.5836C208.863 31.555 209.284 31.5122 209.684 31.4551C212.281 31.0554 214.223 29.9635 215.507 28.1793C216.792 26.395 217.434 24.254 217.434 21.756C217.434 19.2438 216.785 17.0956 215.486 15.3114C214.187 13.5272 212.253 12.4352 209.684 12.0356C209.284 11.9642 208.863 11.9214 208.42 11.9071C207.978 11.8786 207.614 11.8643 207.328 11.8643H199.342V0.794922H194.867V31.6264ZM199.342 27.4085V16.1036H207.157C207.443 16.1036 207.757 16.1179 208.099 16.1464C208.442 16.175 208.77 16.2249 209.084 16.2963C210.469 16.6246 211.446 17.3312 212.017 18.416C212.588 19.5008 212.874 20.6141 212.874 21.756C212.874 22.8837 212.588 23.9899 212.017 25.0747C211.446 26.1595 210.469 26.8661 209.084 27.1944C208.77 27.28 208.442 27.3371 208.099 27.3657C207.757 27.3942 207.443 27.4085 207.157 27.4085H199.342Z" fill="#F1F2FB"></path> <path d="M221.726 19.9147H234.572V16.3177H221.726V19.9147Z" fill="#F1F2FB"></path> <path d="M0.9375 85.6264H5.41235V72.3089H20.8281V85.6264H25.3243V54.7949H20.8281V68.091H5.41235V54.7949H0.9375V85.6264Z" fill="#F1F2FB"></path> <path d="M29.198 85.6264H33.8441L36.0923 78.6679H48.746L51.037 85.6264H55.6831L45.6629 54.7949H39.2182L29.198 85.6264ZM37.4626 74.4714L42.387 59.2698L47.3757 74.4714H37.4626Z" fill="#F1F2FB"></path> <path d="M81.3847 85.6264H76.9099V74.557H68.7309L63.3568 85.6264H58.2397L64.0634 73.6792C62.3077 72.9227 60.9945 71.7451 60.1238 70.1464C59.2531 68.5478 58.8178 66.7207 58.8178 64.6653C58.8178 62.1674 59.4601 60.0263 60.7447 58.2421C62.0294 56.4578 63.9635 55.3659 66.5471 54.9662C66.9467 54.8948 67.3678 54.852 67.8103 54.8377C68.2528 54.8092 68.6239 54.7949 68.9236 54.7949H81.3847V85.6264ZM76.9099 70.3177V59.0128H69.0949C68.8095 59.0128 68.4883 59.0271 68.1314 59.0557C67.7889 59.0842 67.4606 59.1413 67.1466 59.2269C65.7763 59.541 64.8056 60.2404 64.2347 61.3252C63.6637 62.41 63.3783 63.5234 63.3783 64.6653C63.3783 65.7929 63.6637 66.9063 64.2347 68.0054C64.8056 69.0902 65.7763 69.7967 67.1466 70.125C67.4606 70.1964 67.7889 70.2463 68.1314 70.2749C68.4883 70.3034 68.8095 70.3177 69.0949 70.3177H76.9099Z" fill="#F1F2FB"></path> <path d="M94.3847 90.765H98.8596V85.6264H118.75V90.765H123.246V81.4085H120.955V54.7949L101.215 54.7735C101.086 56.9431 100.965 58.9486 100.851 60.7899C100.751 62.6313 100.637 64.4083 100.508 66.1212C100.394 67.8341 100.251 69.5969 100.08 71.4097C99.9087 73.1796 99.6517 74.8282 99.3092 76.3555C98.9666 77.8686 98.4099 79.089 97.6391 80.0168C96.8826 80.9446 95.7978 81.4085 94.3847 81.4085V90.765ZM101.729 81.4085C102.357 80.7233 102.835 79.9811 103.163 79.1818C103.491 78.3824 103.748 77.4404 103.934 76.3555C104.119 75.2565 104.284 73.9219 104.426 72.3517C104.598 70.696 104.726 69.1544 104.812 67.727C104.912 66.2996 104.997 64.8794 105.069 63.4663C105.154 62.0532 105.247 60.5615 105.347 58.9914L116.481 59.0128V81.4085H101.729Z" fill="#F1F2FB"></path> <path d="M140.806 86.2687C143.889 86.2687 146.516 85.5907 148.685 84.2347C150.855 82.8787 152.511 81.0017 153.653 78.6037C154.795 76.1914 155.366 73.3937 155.366 70.2107C155.366 67.0276 154.795 64.2371 153.653 61.8391C152.511 59.4268 150.855 57.5426 148.685 56.1866C146.516 54.8306 143.889 54.1526 140.806 54.1526C137.723 54.1526 135.097 54.8306 132.927 56.1866C130.757 57.5426 129.095 59.4268 127.938 61.8391C126.796 64.2371 126.225 67.0276 126.225 70.2107C126.225 73.3937 126.796 76.1914 127.938 78.6037C129.095 81.0017 130.757 82.8787 132.927 84.2347C135.097 85.5907 137.723 86.2687 140.806 86.2687ZM140.806 82.008C137.538 81.9794 135.075 80.8875 133.419 78.7321C131.778 76.5768 130.964 73.7363 130.979 70.2107C130.993 67.8555 131.357 65.7929 132.071 64.023C132.799 62.2387 133.891 60.8542 135.346 59.8693C136.802 58.8701 138.622 58.3848 140.806 58.4133C144.089 58.4276 146.544 59.5124 148.172 61.6678C149.799 63.8231 150.612 66.6708 150.612 70.2107C150.612 72.5658 150.248 74.6355 149.52 76.4198C148.807 78.1897 147.722 79.5672 146.266 80.552C144.81 81.5369 142.99 82.0223 140.806 82.008Z" fill="#F1F2FB"></path> <path d="M172.504 86.2687C176.058 86.2687 178.999 85.3695 181.325 83.571C183.666 81.7725 185.294 79.353 186.207 76.3127L181.668 75.0923C181.054 77.2477 179.984 78.9391 178.456 80.1667C176.929 81.3942 174.945 82.008 172.504 82.008C170.32 82.008 168.493 81.5155 167.023 80.5306C165.567 79.5457 164.468 78.1683 163.726 76.3984C162.998 74.6284 162.641 72.5658 162.655 70.2107C162.669 67.8555 163.041 65.7929 163.769 64.023C164.497 62.253 165.588 60.8756 167.044 59.8907C168.5 58.9058 170.32 58.4133 172.504 58.4133C174.945 58.4133 176.929 59.0271 178.456 60.2547C179.984 61.4822 181.054 63.1737 181.668 65.329L186.207 64.1086C185.294 61.0683 183.666 58.6489 181.325 56.8504C178.999 55.0519 176.058 54.1526 172.504 54.1526C169.421 54.1526 166.795 54.8306 164.625 56.1866C162.455 57.5426 160.792 59.4268 159.636 61.8391C158.494 64.2371 157.923 67.0276 157.923 70.2107C157.923 73.3937 158.494 76.1914 159.636 78.6037C160.792 81.0017 162.455 82.8787 164.625 84.2347C166.795 85.5907 169.421 86.2687 172.504 86.2687Z" fill="#F1F2FB"></path> <path d="M190.916 85.6264H195.391V70.8958L209.137 85.6264H214.875L200.23 69.8467L213.868 54.7949H208.302L195.391 69.1829V54.7949H190.916V85.6264Z" fill="#F1F2FB"></path> <path d="M215.747 85.6264H220.394L222.642 78.6679H235.296L237.586 85.6264H242.233L232.212 54.7949H225.768L215.747 85.6264ZM224.012 74.4714L228.937 59.2698L233.925 74.4714H224.012Z" fill="#F1F2FB"></path> </svg> 