<?xml version="1.0" encoding="UTF-8"?> <svg xmlns="http://www.w3.org/2000/svg" width="25" height="25" viewBox="0 0 25 25" fill="none"> <path fill-rule="evenodd" clip-rule="evenodd" d="M15.0661 0.27774L19.0594 2.31219L18.5319 3.29163H17.3264L16.5652 5.02524L13.8019 3.77108L14.7647 2.61358L14.4633 1.18191L15.0661 0.27774ZM16.5077 8.24802C17.2141 8.75663 17.8183 9.30163 18.3336 9.87274L19.2208 9.27302L18.705 8.08663L19.665 7.49246L21.8897 10.6605L21.1675 11.1247L20.1875 10.5058L19.325 11.1722C21.5644 14.6927 20.8905 18.865 18.8519 21.7894L19.0561 24.9769H8.06969V22.5377L4.05219 21.0311L4.84135 19.0941L8.57191 20.7441L14.1316 20.6716C17.978 17.3147 17.058 13.4411 15.0852 11.353L13.5897 14.6175L3.63413 9.93941L5.1258 7.43469L9.1558 9.37469L12.13 4.01191L17.1025 6.95024L16.5077 8.24802ZM8.44719 13.5116L11.7264 15.3744L10.0539 18.5064L9.24969 18.2408L8.59719 19.4883L6.8908 18.7689L7.40719 17.6327L6.73997 17.4125L8.44719 13.5116ZM4.73719 11.4336L7.5508 13.0052L5.90274 15.6264L5.0808 15.395L4.44608 16.6086L3.20524 16.1802L3.73469 15.0158L3.05469 14.8241L4.73719 11.4336Z" fill="#5B6CFF"></path> </svg> 