<?xml version="1.0" encoding="UTF-8"?> <svg xmlns="http://www.w3.org/2000/svg" width="25" height="25" viewBox="0 0 25 25" fill="none"> <path fill-rule="evenodd" clip-rule="evenodd" d="M23.0536 5.04029C22.9487 6.02478 21.3513 17.4371 20.8789 22.6288C20.722 24.3518 19.1605 25.0093 16.957 24.7745C14.7539 24.54 6.77687 23.4406 4.67572 23.2167C2.57515 22.9929 1.86825 21.6992 2.03521 20.0015C2.56308 14.6239 4.09756 3.70725 4.24067 2.59575C4.48722 0.679374 5.35331 -0.153673 7.0148 0.0233388C8.35475 0.166442 19.0892 1.43426 20.8022 1.65409C22.7562 1.90495 23.2435 3.26012 23.0536 5.04029ZM6.39555 2.52564L6.09526 5.01788L6.9763 5.13196C7.20389 4.26673 7.66509 3.69259 8.67055 3.81587C9.95245 3.97334 10.099 5.05581 9.94325 6.3242C9.7875 7.59259 9.41279 8.5696 8.10647 8.40926C7.09728 8.28512 6.79641 7.61213 6.78291 6.72794L5.90044 6.63138L5.3898 10.8682L6.25848 10.9805C6.48636 10.1164 6.94756 9.54317 7.95245 9.66673C9.23434 9.8242 9.3809 10.9064 9.22515 12.1748C9.0694 13.4435 8.69498 14.4202 7.38866 14.2598C6.41883 14.1409 6.10245 13.515 6.0671 12.6822L5.18233 12.5912L4.68463 16.7205L5.54067 16.8314C5.76854 15.9676 6.22946 15.3943 7.23463 15.5176C8.51653 15.6748 8.66308 16.7572 8.50733 18.0256C8.35159 19.2943 7.97716 20.271 6.67055 20.1107C5.70072 19.9914 5.38435 19.3659 5.349 18.5328L4.47716 18.4432L4.17141 20.9814L18.6274 22.7305L18.9683 19.9337L17.4763 19.7802L17.6183 18.3958L19.1318 18.5917L19.6815 14.0825L14.2318 13.5222L14.3843 12.0334L19.845 12.7403L20.3958 8.21903L18.7128 8.03483L18.8591 6.67075L20.5576 6.89087L20.8832 4.22047L6.39555 2.52564ZM16.2036 9.38282C15.1616 9.25495 14.8743 8.54173 14.8792 7.615L10.8332 7.1719L10.9961 5.65265L15.0539 6.17822C15.2749 5.27248 15.7338 4.66299 16.7677 4.78972C18.0496 4.94719 18.1958 6.02937 18.0404 7.29776C17.8846 8.56644 17.5102 9.54345 16.2036 9.38282ZM11.9978 10.1843C13.2797 10.3417 13.4263 11.4239 13.2703 12.6926C13.1145 13.961 12.7404 14.938 11.4338 14.7776C10.1274 14.6173 10.0056 13.538 10.1614 12.2696C10.3171 11.0012 10.716 10.0268 11.9978 10.1843ZM11.2467 16.0311C12.5286 16.1883 12.6751 17.2708 12.5194 18.5391C12.3637 19.8075 11.9892 20.7845 10.6829 20.6242C9.37659 20.4639 9.25446 19.3845 9.41021 18.1162C9.56595 16.8478 9.9648 15.8733 11.2467 16.0311ZM15.2591 16.544C16.541 16.7015 16.6875 17.7837 16.5318 19.0524C16.376 20.3208 16.0019 21.2978 14.695 21.1374C13.3887 20.9771 13.2668 19.8981 13.4226 18.6294C13.5783 17.3607 13.9774 16.3866 15.2591 16.544Z" fill="#5B6CFF"></path> </svg> 