<?xml version="1.0" encoding="UTF-8"?> <svg xmlns="http://www.w3.org/2000/svg" width="755" height="93" viewBox="0 0 755 93" fill="none"> <path d="M16.9859 91H34.0829V2.43997H16.9859L0.380859 12.403V30.853L16.9859 20.644V91Z" fill="#F1F2FB"></path> <path d="M56.2354 58.651H107.895V45.736H56.2354V58.651Z" fill="#F1F2FB"></path> <path d="M159.929 91H176.903V77.224H184.775V61.603H176.903V39.463H159.929V61.603H140.618L168.539 2.43997H149.351L121.43 61.603V77.224H159.929V91Z" fill="#F1F2FB"></path> <path d="M224.188 91H240.916V50.656L276.217 91H297.373L258.013 46.105L295.036 2.43997H274.618L240.916 43.276V2.43997H224.188V91Z" fill="#F1F2FB"></path> <path d="M299.838 91C306.275 92.271 311.297 92.0865 314.905 90.4465C318.554 88.8065 321.322 85.9775 323.208 81.9595C325.094 77.9415 326.611 73.001 327.759 67.138C328.702 62.628 329.501 57.9745 330.157 53.1775C330.813 48.3805 331.367 43.7475 331.818 39.2785C332.269 34.8095 332.617 30.73 332.863 27.04C333.15 23.35 333.376 20.357 333.54 18.061H361.83V91H378.558V2.43997H318.165C318.042 5.10497 317.857 8.69247 317.611 13.2025C317.365 17.6715 317.017 22.6325 316.566 28.0855C316.115 33.5385 315.541 39.1145 314.844 44.8135C314.188 50.4715 313.368 55.863 312.384 60.988C311.564 65.334 310.662 68.7165 309.678 71.1355C308.694 73.5135 307.423 75.1535 305.865 76.0555C304.348 76.9165 302.339 77.265 299.838 77.101V91Z" fill="#F1F2FB"></path> <path d="M389.685 91H406.905L412.502 72.55H445.835L451.554 91H468.774L441.714 2.43997H416.745L389.685 91ZM417.237 56.929L429.045 18.1225L441.038 56.929H417.237Z" fill="#F1F2FB"></path> <path d="M515.402 92.845C525.57 92.845 534.098 90.3235 540.986 85.2805C547.915 80.2375 552.794 73.411 555.623 64.801L538.772 60.127C537.132 65.457 534.365 69.6185 530.47 72.6115C526.575 75.6045 521.552 77.101 515.402 77.101C506.997 77.101 500.663 74.354 496.399 68.86C492.176 63.325 490.064 55.945 490.064 46.72C490.064 37.495 492.176 30.1355 496.399 24.6415C500.663 19.1065 506.997 16.339 515.402 16.339C521.552 16.339 526.575 17.8355 530.47 20.8285C534.365 23.7805 537.132 27.942 538.772 33.313L555.623 28.639C552.794 20.029 547.915 13.2025 540.986 8.15946C534.098 3.11647 525.57 0.594971 515.402 0.594971C506.546 0.594971 498.9 2.52197 492.463 6.37597C486.067 10.23 481.126 15.6215 477.641 22.5505C474.197 29.4795 472.475 37.536 472.475 46.72C472.475 55.904 474.197 63.9605 477.641 70.8895C481.126 77.8185 486.067 83.21 492.463 87.064C498.9 90.918 506.546 92.845 515.402 92.845Z" fill="#F1F2FB"></path> <path d="M607.172 92.845C617.34 92.845 625.868 90.3235 632.756 85.2805C639.685 80.2375 644.564 73.411 647.393 64.801L630.542 60.127C628.902 65.457 626.134 69.6185 622.239 72.6115C618.344 75.6045 613.322 77.101 607.172 77.101C598.767 77.101 592.432 74.354 588.168 68.86C583.945 63.325 581.834 55.945 581.834 46.72C581.834 37.495 583.945 30.1355 588.168 24.6415C592.432 19.1065 598.767 16.339 607.172 16.339C613.322 16.339 618.344 17.8355 622.239 20.8285C626.134 23.7805 628.902 27.942 630.542 33.313L647.393 28.639C644.564 20.029 639.685 13.2025 632.756 8.15946C625.868 3.11647 617.34 0.594971 607.172 0.594971C598.316 0.594971 590.669 2.52197 584.232 6.37597C577.836 10.23 572.896 15.6215 569.411 22.5505C565.967 29.4795 564.245 37.536 564.245 46.72C564.245 55.904 565.967 63.9605 569.411 70.8895C572.896 77.8185 577.836 83.21 584.232 87.064C590.669 90.918 598.316 92.845 607.172 92.845Z" fill="#F1F2FB"></path> <path d="M660.811 91H698.203C699.064 91 700.212 90.959 701.647 90.877C703.123 90.795 704.435 90.672 705.583 90.508C713.537 89.278 719.339 86.039 722.988 80.791C726.637 75.502 728.461 69.147 728.461 61.726C728.461 54.264 726.616 47.909 722.926 42.661C719.236 37.413 713.455 34.174 705.583 32.944C704.435 32.739 703.123 32.616 701.647 32.575C700.171 32.493 699.023 32.452 698.203 32.452H677.539V2.43997H660.811V91ZM677.539 75.379V48.073H697.465C698.326 48.073 699.269 48.114 700.294 48.196C701.319 48.278 702.262 48.442 703.123 48.688C705.378 49.303 707.121 50.3485 708.351 51.8245C709.581 53.2595 710.421 54.879 710.872 56.683C711.364 58.446 711.61 60.127 711.61 61.726C711.61 63.325 711.364 65.0265 710.872 66.8305C710.421 68.5935 709.581 70.213 708.351 71.689C707.121 73.124 705.378 74.149 703.123 74.764C702.262 75.01 701.319 75.174 700.294 75.256C699.269 75.338 698.326 75.379 697.465 75.379H677.539ZM737.317 91H754.045V2.43997H737.317V91Z" fill="#F1F2FB"></path> </svg> 