<?xml version="1.0" encoding="UTF-8"?> <svg xmlns="http://www.w3.org/2000/svg" width="450" height="791" viewBox="0 0 450 791" fill="none"> <g filter="url(#filter0_b_179_987)"> <path d="M1 52.2C1 34.2783 1 25.3175 4.48779 18.4723C7.55574 12.4511 12.4511 7.55574 18.4723 4.48779C25.3175 1 34.2783 1 52.2 1H397.8C415.722 1 424.683 1 431.528 4.48779C437.549 7.55574 442.444 12.4511 445.512 18.4723C449 25.3175 449 34.2783 449 52.2V738.8C449 756.722 449 765.683 445.512 772.528C442.444 778.549 437.549 783.444 431.528 786.512C424.683 790 415.722 790 397.8 790H52.2C34.2783 790 25.3175 790 18.4723 786.512C12.4511 783.444 7.55574 778.549 4.48779 772.528C1 765.683 1 756.722 1 738.8V52.2Z" fill="#F1F2FB" fill-opacity="0.07"></path> <path d="M397.8 0.5H52.2H52.1762C43.2355 0.5 36.4981 0.499999 31.1417 0.937634C25.7748 1.37613 21.7501 2.25649 18.2453 4.04229C12.13 7.15817 7.15817 12.13 4.04229 18.2453C2.25649 21.7501 1.37613 25.7748 0.937634 31.1418C0.499999 36.4982 0.5 43.2355 0.5 52.1762V52.2V738.8V738.824C0.5 747.765 0.499999 754.502 0.937634 759.858C1.37613 765.225 2.25649 769.25 4.04229 772.755C7.15817 778.87 12.13 783.842 18.2453 786.958C21.7501 788.744 25.7748 789.624 31.1418 790.062C36.4977 790.5 43.2343 790.5 52.1739 790.5H52.2H397.8H397.826C406.766 790.5 413.502 790.5 418.858 790.062C424.225 789.624 428.25 788.744 431.755 786.958C437.87 783.842 442.842 778.87 445.958 772.755C447.744 769.25 448.624 765.225 449.062 759.858C449.5 754.502 449.5 747.765 449.5 738.824V738.8V52.2V52.1757C449.5 43.2352 449.5 36.4981 449.062 31.1417C448.624 25.7748 447.744 21.7501 445.958 18.2453C442.842 12.13 437.87 7.15817 431.755 4.04229C428.25 2.25649 424.225 1.37613 418.858 0.937634C413.502 0.499999 406.765 0.5 397.824 0.5H397.8Z" stroke="url(#paint0_linear_179_987)" stroke-opacity="0.5"></path> </g> <defs> <filter id="filter0_b_179_987" x="-20" y="-20" width="490" height="831" filterUnits="userSpaceOnUse" color-interpolation-filters="sRGB"> <feFlood flood-opacity="0" result="BackgroundImageFix"></feFlood> <feGaussianBlur in="BackgroundImage" stdDeviation="10"></feGaussianBlur> <feComposite in2="SourceAlpha" operator="in" result="effect1_backgroundBlur_179_987"></feComposite> <feBlend mode="normal" in="SourceGraphic" in2="effect1_backgroundBlur_179_987" result="shape"></feBlend> </filter> <linearGradient id="paint0_linear_179_987" x1="279.849" y1="0.999996" x2="-161.467" y2="247.795" gradientUnits="userSpaceOnUse"> <stop stop-color="#F1F2FB"></stop> <stop offset="1" stop-color="#F1F2FB" stop-opacity="0.32"></stop> </linearGradient> </defs> </svg> 