<?xml version="1.0" encoding="UTF-8"?> <svg xmlns="http://www.w3.org/2000/svg" width="171" height="137" viewBox="0 0 171 137" fill="none"> <path d="M2.113 34.0559H6.89845V5.59506H23.1781V1.08437H2.113V34.0559Z" fill="url(#paint0_linear_221_3305)"></path> <path d="M52.7856 34.0559H47.9315V9.53332L31.6976 34.0559H26.8434V1.08437H31.6976V25.584L47.9315 1.08437H52.7856V34.0559Z" fill="url(#paint1_linear_221_3305)"></path> <path d="M59.1764 34.0559H72.5023C72.8229 34.0559 73.2198 34.0483 73.693 34.033C74.1662 34.0025 74.6165 33.9567 75.0439 33.8956C76.8451 33.6819 78.3563 33.1019 79.5775 32.1555C80.8139 31.209 81.7451 30.0108 82.3709 28.5606C82.9968 27.0952 83.3097 25.5077 83.3097 23.7981C83.3097 22.0732 82.9891 20.4857 82.348 19.0355C81.7222 17.5854 80.791 16.3871 79.5546 15.4407C78.3334 14.4943 76.8299 13.9143 75.0439 13.7006C74.6165 13.6395 74.1586 13.6013 73.6701 13.5861C73.1969 13.5555 72.8076 13.5403 72.5023 13.5403H63.9618V5.59506H80.6765V1.08437H59.1764V34.0559ZM63.9618 29.5452V18.051H72.3192C72.6245 18.051 72.9603 18.0662 73.3266 18.0968C73.7083 18.112 74.067 18.1578 74.4028 18.2341C75.8682 18.5394 76.9062 19.2416 77.5168 20.3407C78.1274 21.4244 78.4326 22.5769 78.4326 23.7981C78.4326 25.004 78.1274 26.1565 77.5168 27.2555C76.9062 28.3546 75.8682 29.0567 74.4028 29.362C74.067 29.4231 73.7083 29.4689 73.3266 29.4994C72.9603 29.5299 72.6245 29.5452 72.3192 29.5452H63.9618Z" fill="url(#paint2_linear_221_3305)"></path> <path d="M87.8869 34.0559H92.6724V18.3028L107.372 34.0559H113.509L97.8471 17.1809L112.432 1.08437H106.479L92.6724 16.4711V1.08437H87.8869V34.0559Z" fill="url(#paint3_linear_221_3305)"></path> <path d="M128.838 34.7428C132.135 34.7428 134.944 34.0177 137.264 32.5676C139.584 31.1175 141.355 29.1102 142.576 26.5457C143.797 23.966 144.408 20.9741 144.408 17.5701C144.408 14.1661 143.797 11.1819 142.576 8.61744C141.355 6.03773 139.584 4.0228 137.264 2.57266C134.944 1.12253 132.135 0.397461 128.838 0.397461C125.541 0.397461 122.732 1.12253 120.412 2.57266C118.092 4.0228 116.313 6.03773 115.077 8.61744C113.856 11.1819 113.245 14.1661 113.245 17.5701C113.245 20.9741 113.856 23.966 115.077 26.5457C116.313 29.1102 118.092 31.1175 120.412 32.5676C122.732 34.0177 125.541 34.7428 128.838 34.7428ZM128.838 30.1863C125.342 30.1558 122.709 28.9881 120.939 26.6831C119.183 24.3781 118.313 21.3405 118.328 17.5701C118.344 15.0515 118.733 12.8457 119.496 10.9529C120.275 9.04485 121.442 7.56419 122.999 6.51093C124.556 5.44241 126.503 4.92341 128.838 4.95394C132.349 4.96921 134.974 6.12932 136.715 8.43427C138.455 10.7392 139.325 13.7845 139.325 17.5701C139.325 20.0888 138.936 22.3022 138.157 24.2102C137.394 26.103 136.234 27.5761 134.677 28.6293C133.12 29.6826 131.173 30.2016 128.838 30.1863Z" fill="url(#paint4_linear_221_3305)"></path> <path d="M148.975 34.0559H170.04V29.5452H153.761V19.3561H167.293V14.8454H153.761V5.59506H170.04V1.08437H148.975V34.0559Z" fill="url(#paint5_linear_221_3305)"></path> <path d="M2.113 85.0559H6.89845V73.2182H15.439C15.7443 73.2182 16.1335 73.2029 16.6067 73.1724C17.0952 73.1419 17.5531 73.0961 17.9806 73.035C20.7282 72.5924 22.7889 71.417 24.1627 69.5089C25.5518 67.6008 26.2463 65.3111 26.2463 62.6398C26.2463 59.9685 25.5594 57.6788 24.1856 55.7708C22.8118 53.8627 20.7434 52.695 17.9806 52.2675C17.5531 52.1912 17.1028 52.1454 16.6296 52.1302C16.1564 52.0996 15.7596 52.0844 15.439 52.0844H2.113V85.0559ZM6.89845 68.6846V56.5951H15.2558C15.5611 56.5951 15.8969 56.6103 16.2633 56.6409C16.6449 56.6714 17.0036 56.7324 17.3394 56.824C18.8048 57.1598 19.8428 57.9078 20.4534 59.0679C21.064 60.228 21.3693 61.4187 21.3693 62.6398C21.3693 63.8457 21.064 65.0364 20.4534 66.2118C19.8428 67.3719 18.8048 68.1275 17.3394 68.4785C17.0036 68.5549 16.6449 68.6083 16.2633 68.6388C15.8969 68.6694 15.5611 68.6846 15.2558 68.6846H6.89845Z" fill="url(#paint6_linear_221_3305)"></path> <path d="M26.7003 85.0559H31.669L34.0731 77.6144H47.6052L50.0552 85.0559H55.0238L44.308 52.0844H37.4161L26.7003 85.0559ZM35.5385 73.1266L40.8048 56.8698L46.1398 73.1266H35.5385Z" fill="url(#paint7_linear_221_3305)"></path> <path d="M71.9983 85.7428C75.7991 85.7428 78.9436 84.7811 81.4318 82.8578C83.9352 80.9345 85.6753 78.3471 86.6523 75.0957L81.7981 73.7906C81.1417 76.0956 79.9969 77.9044 78.3636 79.2172C76.7303 80.5299 74.6085 81.1863 71.9983 81.1863C69.6628 81.1863 67.7089 80.6597 66.1367 79.6064C64.5797 78.5532 63.4043 77.0801 62.6105 75.1873C61.832 73.2945 61.4504 71.0888 61.4657 68.5701C61.481 66.0515 61.8778 63.8457 62.6563 61.9529C63.4348 60.0601 64.6026 58.5871 66.1595 57.5338C67.7165 56.4806 69.6628 55.9539 71.9983 55.9539C74.6085 55.9539 76.7303 56.6103 78.3636 57.9231C79.9969 59.2358 81.1417 61.0447 81.7981 63.3496L86.6523 62.0445C85.6753 58.7932 83.9352 56.2058 81.4318 54.2825C78.9436 52.3591 75.7991 51.3975 71.9983 51.3975C68.7011 51.3975 65.8924 52.1225 63.5722 53.5727C61.252 55.0228 59.4737 57.0377 58.2372 59.6174C57.0161 62.1819 56.4055 65.1661 56.4055 68.5701C56.4055 71.9741 57.0161 74.966 58.2372 77.5457C59.4737 80.1102 61.252 82.1175 63.5722 83.5676C65.8924 85.0177 68.7011 85.7428 71.9983 85.7428Z" fill="url(#paint8_linear_221_3305)"></path> <path d="M91.6882 85.0559H96.4736V56.5951H113.12V85.0559H117.905V52.0844H91.6882V85.0559Z" fill="url(#paint9_linear_221_3305)"></path> <path d="M150.276 85.0559H145.422V60.5333L129.188 85.0559H124.334V52.0844H129.188V76.584L145.422 52.0844H150.276V85.0559Z" fill="url(#paint10_linear_221_3305)"></path> <path d="M156.209 70.4706H169.947V66.6239H156.209V70.4706Z" fill="url(#paint11_linear_221_3305)"></path> <path d="M15.874 136.743C19.6749 136.743 22.8194 135.781 25.3076 133.858C27.811 131.934 29.5511 129.347 30.528 126.096L25.6739 124.791C25.0175 127.096 23.8727 128.904 22.2394 130.217C20.6061 131.53 18.4843 132.186 15.874 132.186C13.5386 132.186 11.5847 131.66 10.0124 130.606C8.45544 129.553 7.28007 128.08 6.48631 126.187C5.70781 124.295 5.3262 122.089 5.34146 119.57C5.35673 117.051 5.75361 114.846 6.5321 112.953C7.3106 111.06 8.47834 109.587 10.0353 108.534C11.5923 107.481 13.5386 106.954 15.874 106.954C18.4843 106.954 20.6061 107.61 22.2394 108.923C23.8727 110.236 25.0175 112.045 25.6739 114.35L30.528 113.045C29.5511 109.793 27.811 107.206 25.3076 105.282C22.8194 103.359 19.6749 102.397 15.874 102.397C12.5769 102.397 9.7682 103.123 7.44798 104.573C5.12776 106.023 3.34943 108.038 2.113 110.617C0.891834 113.182 0.28125 116.166 0.28125 119.57C0.28125 122.974 0.891834 125.966 2.113 128.546C3.34943 131.11 5.12776 133.117 7.44798 134.568C9.7682 136.018 12.5769 136.743 15.874 136.743Z" fill="url(#paint12_linear_221_3305)"></path> <path d="M32.3798 136.056H37.3485L39.7526 128.614H53.2847L55.7347 136.056H60.7033L49.9875 103.084H43.0956L32.3798 136.056ZM41.218 124.127L46.4843 107.87L51.8193 124.127H41.218Z" fill="url(#paint13_linear_221_3305)"></path> <path d="M64.8111 136.056H69.5966V121.814H86.0824V136.056H90.8907V103.084H86.0824V117.303H69.5966V103.084H64.8111V136.056Z" fill="url(#paint14_linear_221_3305)"></path> <path d="M123.265 136.056H118.411V111.533L102.177 136.056H97.3229V103.084H102.177V127.584L118.411 103.084H123.265V136.056Z" fill="url(#paint15_linear_221_3305)"></path> <path d="M129.656 136.056H150.721V131.545H134.441V121.356H147.973V116.845H134.441V107.595H150.721V103.084H129.656V136.056Z" fill="url(#paint16_linear_221_3305)"></path> <defs> <linearGradient id="paint0_linear_221_3305" x1="-1.08985" y1="5.68105" x2="448.838" y2="98.4302" gradientUnits="userSpaceOnUse"> <stop offset="0.0190319" stop-color="#E5755F"></stop> <stop offset="0.112073" stop-color="#F2AE66"></stop> <stop offset="0.210278" stop-color="#E5755F"></stop> <stop offset="0.269749" stop-color="#C54D8B"></stop> <stop offset="0.360129" stop-color="#8951B9"></stop> <stop offset="0.416667" stop-color="#7061B4"></stop> <stop offset="0.473958" stop-color="#7061B4"></stop> <stop offset="0.583333" stop-color="#869272"></stop> <stop offset="0.739583" stop-color="#DD8A37"></stop> <stop offset="0.932292" stop-color="#EA4664"></stop> </linearGradient> <linearGradient id="paint1_linear_221_3305" x1="-1.08985" y1="5.68105" x2="448.838" y2="98.4302" gradientUnits="userSpaceOnUse"> <stop offset="0.0190319" stop-color="#E5755F"></stop> <stop offset="0.112073" stop-color="#F2AE66"></stop> <stop offset="0.210278" stop-color="#E5755F"></stop> <stop offset="0.269749" stop-color="#C54D8B"></stop> <stop offset="0.360129" stop-color="#8951B9"></stop> <stop offset="0.416667" stop-color="#7061B4"></stop> <stop offset="0.473958" stop-color="#7061B4"></stop> <stop offset="0.583333" stop-color="#869272"></stop> <stop offset="0.739583" stop-color="#DD8A37"></stop> <stop offset="0.932292" stop-color="#EA4664"></stop> </linearGradient> <linearGradient id="paint2_linear_221_3305" x1="-1.08985" y1="5.68105" x2="448.838" y2="98.4302" gradientUnits="userSpaceOnUse"> <stop offset="0.0190319" stop-color="#E5755F"></stop> <stop offset="0.112073" stop-color="#F2AE66"></stop> <stop offset="0.210278" stop-color="#E5755F"></stop> <stop offset="0.269749" stop-color="#C54D8B"></stop> <stop offset="0.360129" stop-color="#8951B9"></stop> <stop offset="0.416667" stop-color="#7061B4"></stop> <stop offset="0.473958" stop-color="#7061B4"></stop> <stop offset="0.583333" stop-color="#869272"></stop> <stop offset="0.739583" stop-color="#DD8A37"></stop> <stop offset="0.932292" stop-color="#EA4664"></stop> </linearGradient> <linearGradient id="paint3_linear_221_3305" x1="-1.08985" y1="5.68105" x2="448.838" y2="98.4302" gradientUnits="userSpaceOnUse"> <stop offset="0.0190319" stop-color="#E5755F"></stop> <stop offset="0.112073" stop-color="#F2AE66"></stop> <stop offset="0.210278" stop-color="#E5755F"></stop> <stop offset="0.269749" stop-color="#C54D8B"></stop> <stop offset="0.360129" stop-color="#8951B9"></stop> <stop offset="0.416667" stop-color="#7061B4"></stop> <stop offset="0.473958" stop-color="#7061B4"></stop> <stop offset="0.583333" stop-color="#869272"></stop> <stop offset="0.739583" stop-color="#DD8A37"></stop> <stop offset="0.932292" stop-color="#EA4664"></stop> </linearGradient> <linearGradient id="paint4_linear_221_3305" x1="-1.08985" y1="5.68105" x2="448.838" y2="98.4302" gradientUnits="userSpaceOnUse"> <stop offset="0.0190319" stop-color="#E5755F"></stop> <stop offset="0.112073" stop-color="#F2AE66"></stop> <stop offset="0.210278" stop-color="#E5755F"></stop> <stop offset="0.269749" stop-color="#C54D8B"></stop> <stop offset="0.360129" stop-color="#8951B9"></stop> <stop offset="0.416667" stop-color="#7061B4"></stop> <stop offset="0.473958" stop-color="#7061B4"></stop> <stop offset="0.583333" stop-color="#869272"></stop> <stop offset="0.739583" stop-color="#DD8A37"></stop> <stop offset="0.932292" stop-color="#EA4664"></stop> </linearGradient> <linearGradient id="paint5_linear_221_3305" x1="-1.08985" y1="5.68105" x2="448.838" y2="98.4302" gradientUnits="userSpaceOnUse"> <stop offset="0.0190319" stop-color="#E5755F"></stop> <stop offset="0.112073" stop-color="#F2AE66"></stop> <stop offset="0.210278" stop-color="#E5755F"></stop> <stop offset="0.269749" stop-color="#C54D8B"></stop> <stop offset="0.360129" stop-color="#8951B9"></stop> <stop offset="0.416667" stop-color="#7061B4"></stop> <stop offset="0.473958" stop-color="#7061B4"></stop> <stop offset="0.583333" stop-color="#869272"></stop> <stop offset="0.739583" stop-color="#DD8A37"></stop> <stop offset="0.932292" stop-color="#EA4664"></stop> </linearGradient> <linearGradient id="paint6_linear_221_3305" x1="-1.08985" y1="5.68105" x2="448.838" y2="98.4302" gradientUnits="userSpaceOnUse"> <stop offset="0.0190319" stop-color="#E5755F"></stop> <stop offset="0.112073" stop-color="#F2AE66"></stop> <stop offset="0.210278" stop-color="#E5755F"></stop> <stop offset="0.269749" stop-color="#C54D8B"></stop> <stop offset="0.360129" stop-color="#8951B9"></stop> <stop offset="0.416667" stop-color="#7061B4"></stop> <stop offset="0.473958" stop-color="#7061B4"></stop> <stop offset="0.583333" stop-color="#869272"></stop> <stop offset="0.739583" stop-color="#DD8A37"></stop> <stop offset="0.932292" stop-color="#EA4664"></stop> </linearGradient> <linearGradient id="paint7_linear_221_3305" x1="-1.08985" y1="5.68105" x2="448.838" y2="98.4302" gradientUnits="userSpaceOnUse"> <stop offset="0.0190319" stop-color="#E5755F"></stop> <stop offset="0.112073" stop-color="#F2AE66"></stop> <stop offset="0.210278" stop-color="#E5755F"></stop> <stop offset="0.269749" stop-color="#C54D8B"></stop> <stop offset="0.360129" stop-color="#8951B9"></stop> <stop offset="0.416667" stop-color="#7061B4"></stop> <stop offset="0.473958" stop-color="#7061B4"></stop> <stop offset="0.583333" stop-color="#869272"></stop> <stop offset="0.739583" stop-color="#DD8A37"></stop> <stop offset="0.932292" stop-color="#EA4664"></stop> </linearGradient> <linearGradient id="paint8_linear_221_3305" x1="-1.08985" y1="5.68105" x2="448.838" y2="98.4302" gradientUnits="userSpaceOnUse"> <stop offset="0.0190319" stop-color="#E5755F"></stop> <stop offset="0.112073" stop-color="#F2AE66"></stop> <stop offset="0.210278" stop-color="#E5755F"></stop> <stop offset="0.269749" stop-color="#C54D8B"></stop> <stop offset="0.360129" stop-color="#8951B9"></stop> <stop offset="0.416667" stop-color="#7061B4"></stop> <stop offset="0.473958" stop-color="#7061B4"></stop> <stop offset="0.583333" stop-color="#869272"></stop> <stop offset="0.739583" stop-color="#DD8A37"></stop> <stop offset="0.932292" stop-color="#EA4664"></stop> </linearGradient> <linearGradient id="paint9_linear_221_3305" x1="-1.08985" y1="5.68105" x2="448.838" y2="98.4302" gradientUnits="userSpaceOnUse"> <stop offset="0.0190319" stop-color="#E5755F"></stop> <stop offset="0.112073" stop-color="#F2AE66"></stop> <stop offset="0.210278" stop-color="#E5755F"></stop> <stop offset="0.269749" stop-color="#C54D8B"></stop> <stop offset="0.360129" stop-color="#8951B9"></stop> <stop offset="0.416667" stop-color="#7061B4"></stop> <stop offset="0.473958" stop-color="#7061B4"></stop> <stop offset="0.583333" stop-color="#869272"></stop> <stop offset="0.739583" stop-color="#DD8A37"></stop> <stop offset="0.932292" stop-color="#EA4664"></stop> </linearGradient> <linearGradient id="paint10_linear_221_3305" x1="-1.08985" y1="5.68105" x2="448.838" y2="98.4302" gradientUnits="userSpaceOnUse"> <stop offset="0.0190319" stop-color="#E5755F"></stop> <stop offset="0.112073" stop-color="#F2AE66"></stop> <stop offset="0.210278" stop-color="#E5755F"></stop> <stop offset="0.269749" stop-color="#C54D8B"></stop> <stop offset="0.360129" stop-color="#8951B9"></stop> <stop offset="0.416667" stop-color="#7061B4"></stop> <stop offset="0.473958" stop-color="#7061B4"></stop> <stop offset="0.583333" stop-color="#869272"></stop> <stop offset="0.739583" stop-color="#DD8A37"></stop> <stop offset="0.932292" stop-color="#EA4664"></stop> </linearGradient> <linearGradient id="paint11_linear_221_3305" x1="-1.08985" y1="5.68105" x2="448.838" y2="98.4302" gradientUnits="userSpaceOnUse"> <stop offset="0.0190319" stop-color="#E5755F"></stop> <stop offset="0.112073" stop-color="#F2AE66"></stop> <stop offset="0.210278" stop-color="#E5755F"></stop> <stop offset="0.269749" stop-color="#C54D8B"></stop> <stop offset="0.360129" stop-color="#8951B9"></stop> <stop offset="0.416667" stop-color="#7061B4"></stop> <stop offset="0.473958" stop-color="#7061B4"></stop> <stop offset="0.583333" stop-color="#869272"></stop> <stop offset="0.739583" stop-color="#DD8A37"></stop> <stop offset="0.932292" stop-color="#EA4664"></stop> </linearGradient> <linearGradient id="paint12_linear_221_3305" x1="-1.08985" y1="5.68105" x2="448.838" y2="98.4302" gradientUnits="userSpaceOnUse"> <stop offset="0.0190319" stop-color="#E5755F"></stop> <stop offset="0.112073" stop-color="#F2AE66"></stop> <stop offset="0.210278" stop-color="#E5755F"></stop> <stop offset="0.269749" stop-color="#C54D8B"></stop> <stop offset="0.360129" stop-color="#8951B9"></stop> <stop offset="0.416667" stop-color="#7061B4"></stop> <stop offset="0.473958" stop-color="#7061B4"></stop> <stop offset="0.583333" stop-color="#869272"></stop> <stop offset="0.739583" stop-color="#DD8A37"></stop> <stop offset="0.932292" stop-color="#EA4664"></stop> </linearGradient> <linearGradient id="paint13_linear_221_3305" x1="-1.08985" y1="5.68105" x2="448.838" y2="98.4302" gradientUnits="userSpaceOnUse"> <stop offset="0.0190319" stop-color="#E5755F"></stop> <stop offset="0.112073" stop-color="#F2AE66"></stop> <stop offset="0.210278" stop-color="#E5755F"></stop> <stop offset="0.269749" stop-color="#C54D8B"></stop> <stop offset="0.360129" stop-color="#8951B9"></stop> <stop offset="0.416667" stop-color="#7061B4"></stop> <stop offset="0.473958" stop-color="#7061B4"></stop> <stop offset="0.583333" stop-color="#869272"></stop> <stop offset="0.739583" stop-color="#DD8A37"></stop> <stop offset="0.932292" stop-color="#EA4664"></stop> </linearGradient> <linearGradient id="paint14_linear_221_3305" x1="-1.08985" y1="5.68105" x2="448.838" y2="98.4302" gradientUnits="userSpaceOnUse"> <stop offset="0.0190319" stop-color="#E5755F"></stop> <stop offset="0.112073" stop-color="#F2AE66"></stop> <stop offset="0.210278" stop-color="#E5755F"></stop> <stop offset="0.269749" stop-color="#C54D8B"></stop> <stop offset="0.360129" stop-color="#8951B9"></stop> <stop offset="0.416667" stop-color="#7061B4"></stop> <stop offset="0.473958" stop-color="#7061B4"></stop> <stop offset="0.583333" stop-color="#869272"></stop> <stop offset="0.739583" stop-color="#DD8A37"></stop> <stop offset="0.932292" stop-color="#EA4664"></stop> </linearGradient> <linearGradient id="paint15_linear_221_3305" x1="-1.08985" y1="5.68105" x2="448.838" y2="98.4302" gradientUnits="userSpaceOnUse"> <stop offset="0.0190319" stop-color="#E5755F"></stop> <stop offset="0.112073" stop-color="#F2AE66"></stop> <stop offset="0.210278" stop-color="#E5755F"></stop> <stop offset="0.269749" stop-color="#C54D8B"></stop> <stop offset="0.360129" stop-color="#8951B9"></stop> <stop offset="0.416667" stop-color="#7061B4"></stop> <stop offset="0.473958" stop-color="#7061B4"></stop> <stop offset="0.583333" stop-color="#869272"></stop> <stop offset="0.739583" stop-color="#DD8A37"></stop> <stop offset="0.932292" stop-color="#EA4664"></stop> </linearGradient> <linearGradient id="paint16_linear_221_3305" x1="-1.08985" y1="5.68105" x2="448.838" y2="98.4302" gradientUnits="userSpaceOnUse"> <stop offset="0.0190319" stop-color="#E5755F"></stop> <stop offset="0.112073" stop-color="#F2AE66"></stop> <stop offset="0.210278" stop-color="#E5755F"></stop> <stop offset="0.269749" stop-color="#C54D8B"></stop> <stop offset="0.360129" stop-color="#8951B9"></stop> <stop offset="0.416667" stop-color="#7061B4"></stop> <stop offset="0.473958" stop-color="#7061B4"></stop> <stop offset="0.583333" stop-color="#869272"></stop> <stop offset="0.739583" stop-color="#DD8A37"></stop> <stop offset="0.932292" stop-color="#EA4664"></stop> </linearGradient> </defs> </svg> 