<?xml version="1.0" encoding="UTF-8"?> <svg xmlns="http://www.w3.org/2000/svg" width="159" height="141" viewBox="0 0 159 141" fill="none"> <path d="M1.86911 32.3537H6.34396V5.74012H21.567V1.5222H1.86911V32.3537Z" fill="url(#paint0_linear_219_1767)"></path> <path d="M49.2528 32.3537H44.7137V9.42277L29.5335 32.3537H24.9944V1.5222H29.5335V24.4317L44.7137 1.5222H49.2528V32.3537Z" fill="url(#paint1_linear_219_1767)"></path> <path d="M55.2287 32.3537H67.6898C67.9895 32.3537 68.3606 32.3465 68.8031 32.3323C69.2456 32.3037 69.6667 32.2609 70.0664 32.2038C71.7507 32.004 73.1638 31.4616 74.3057 30.5766C75.4619 29.6916 76.3326 28.5711 76.9178 27.2151C77.503 25.8448 77.7956 24.3603 77.7956 22.7617C77.7956 21.1487 77.4959 19.6642 76.8964 18.3082C76.3112 16.9522 75.4405 15.8317 74.2843 14.9467C73.1424 14.0618 71.7364 13.5194 70.0664 13.3195C69.6667 13.2624 69.2385 13.2267 68.7817 13.2125C68.3392 13.1839 67.9752 13.1697 67.6898 13.1697H59.7035V5.74012H75.3334V1.5222H55.2287V32.3537ZM59.7035 28.1358V17.3876H67.5185C67.8039 17.3876 68.118 17.4018 68.4605 17.4304C68.8174 17.4447 69.1528 17.4875 69.4669 17.5589C70.8371 17.8443 71.8078 18.5009 72.3787 19.5286C72.9497 20.5421 73.2351 21.6198 73.2351 22.7617C73.2351 23.8893 72.9497 24.967 72.3787 25.9947C71.8078 27.0224 70.8371 27.679 69.4669 27.9645C69.1528 28.0216 68.8174 28.0644 68.4605 28.0929C68.118 28.1215 67.8039 28.1358 67.5185 28.1358H59.7035Z" fill="url(#paint2_linear_219_1767)"></path> <path d="M82.0758 32.3537H86.5506V17.6231L100.296 32.3537H106.034L91.3894 16.574L105.028 1.5222H99.4613L86.5506 15.9102V1.5222H82.0758V32.3537Z" fill="url(#paint3_linear_219_1767)"></path> <path d="M120.369 32.996C123.452 32.996 126.078 32.318 128.248 30.962C130.418 29.606 132.073 27.729 133.215 25.331C134.357 22.9187 134.928 20.121 134.928 16.9379C134.928 13.7549 134.357 10.9643 133.215 8.56634C132.073 6.15406 130.418 4.26992 128.248 2.9139C126.078 1.55789 123.452 0.879883 120.369 0.879883C117.286 0.879883 114.659 1.55789 112.49 2.9139C110.32 4.26992 108.657 6.15406 107.501 8.56634C106.359 10.9643 105.788 13.7549 105.788 16.9379C105.788 20.121 106.359 22.9187 107.501 25.331C108.657 27.729 110.32 29.606 112.49 30.962C114.659 32.318 117.286 32.996 120.369 32.996ZM120.369 28.7353C117.1 28.7067 114.638 27.6148 112.982 25.4594C111.341 23.3041 110.527 20.4636 110.541 16.9379C110.556 14.5828 110.92 12.5202 111.633 10.7502C112.361 8.96601 113.453 7.58145 114.909 6.59655C116.365 5.59738 118.185 5.11207 120.369 5.14062C123.652 5.15489 126.107 6.2397 127.734 8.39505C129.361 10.5504 130.175 13.398 130.175 16.9379C130.175 19.2931 129.811 21.3628 129.083 23.1471C128.369 24.917 127.285 26.2944 125.829 27.2793C124.373 28.2642 122.553 28.7495 120.369 28.7353Z" fill="url(#paint4_linear_219_1767)"></path> <path d="M139.199 32.3537H158.897V28.1358H143.674V18.608H156.328V14.3901H143.674V5.74012H158.897V1.5222H139.199V32.3537Z" fill="url(#paint5_linear_219_1767)"></path> <path d="M1.86911 86.3537H6.34396V75.2843H14.3302C14.6156 75.2843 14.9796 75.27 15.4221 75.2415C15.8789 75.213 16.3071 75.1701 16.7068 75.113C19.276 74.6991 21.203 73.6 22.4877 71.8158C23.7866 70.0316 24.436 67.8905 24.436 65.3926C24.436 62.8946 23.7937 60.7536 22.5091 58.9693C21.2244 57.1851 19.2903 56.0932 16.7068 55.6935C16.3071 55.6221 15.886 55.5793 15.4435 55.565C15.001 55.5365 14.6299 55.5222 14.3302 55.5222H1.86911V86.3537ZM6.34396 71.045V59.7401H14.1589C14.4444 59.7401 14.7584 59.7544 15.101 59.7829C15.4578 59.8115 15.7932 59.8686 16.1073 59.9542C17.4775 60.2683 18.4482 60.9677 19.0191 62.0525C19.5901 63.1373 19.8755 64.2506 19.8755 65.3926C19.8755 66.5202 19.5901 67.6336 19.0191 68.7326C18.4482 69.8174 17.4775 70.524 16.1073 70.8523C15.7932 70.9237 15.4578 70.9736 15.101 71.0022C14.7584 71.0307 14.4444 71.045 14.1589 71.045H6.34396Z" fill="url(#paint6_linear_219_1767)"></path> <path d="M24.8606 86.3537H29.5067L31.7548 79.3952H44.4086L46.6995 86.3537H51.3457L41.3254 55.5222H34.8808L24.8606 86.3537ZM33.1251 75.1987L38.0496 59.9971L43.0383 75.1987H33.1251Z" fill="url(#paint7_linear_219_1767)"></path> <path d="M67.2184 86.996C70.7726 86.996 73.713 86.0968 76.0396 84.2982C78.3805 82.4997 80.0077 80.0803 80.9213 77.04L76.3822 75.8196C75.7684 77.9749 74.6979 79.6664 73.1706 80.8939C71.6433 82.1215 69.6592 82.7353 67.2184 82.7353C65.0345 82.7353 63.2074 82.2428 61.7372 81.2579C60.2813 80.273 59.1822 78.8956 58.44 77.1256C57.712 75.3557 57.3552 73.2931 57.3694 70.9379C57.3837 68.5828 57.7548 66.5202 58.4828 64.7502C59.2108 62.9803 60.3027 61.6029 61.7586 60.618C63.2146 59.6331 65.0345 59.1406 67.2184 59.1406C69.6592 59.1406 71.6433 59.7544 73.1706 60.9819C74.6979 62.2095 75.7684 63.9009 76.3822 66.0563L80.9213 64.8359C80.0077 61.7956 78.3805 59.3761 76.0396 57.5776C73.713 55.7791 70.7726 54.8799 67.2184 54.8799C64.1352 54.8799 61.5089 55.5579 59.3392 56.9139C57.1696 58.2699 55.5067 60.1541 54.3505 62.5663C53.2086 64.9643 52.6377 67.7549 52.6377 70.9379C52.6377 74.121 53.2086 76.9187 54.3505 79.331C55.5067 81.729 57.1696 83.606 59.3392 84.962C61.5089 86.318 64.1352 86.996 67.2184 86.996Z" fill="url(#paint8_linear_219_1767)"></path> <path d="M85.6303 86.3537H90.1051V59.7401H105.671V86.3537H110.146V55.5222H85.6303V86.3537Z" fill="url(#paint9_linear_219_1767)"></path> <path d="M140.416 86.3537H135.877V63.4228L120.696 86.3537H116.157V55.5222H120.696V78.4317L135.877 55.5222H140.416V86.3537Z" fill="url(#paint10_linear_219_1767)"></path> <path d="M145.963 72.715H158.81V69.118H145.963V72.715Z" fill="url(#paint11_linear_219_1767)"></path> <path d="M14.737 140.996C18.2912 140.996 21.2316 140.097 23.5582 138.298C25.8991 136.5 27.5263 134.08 28.4398 131.04L23.9008 129.82C23.287 131.975 22.2165 133.666 20.6892 134.894C19.1619 136.121 17.1778 136.735 14.737 136.735C12.5531 136.735 10.726 136.243 9.25582 135.258C7.79989 134.273 6.7008 132.896 5.95856 131.126C5.2306 129.356 4.87375 127.293 4.88803 124.938C4.9023 122.583 5.27342 120.52 6.00138 118.75C6.72935 116.98 7.8213 115.603 9.27723 114.618C10.7332 113.633 12.5531 113.141 14.737 113.141C17.1778 113.141 19.1619 113.754 20.6892 114.982C22.2165 116.209 23.287 117.901 23.9008 120.056L28.4398 118.836C27.5263 115.796 25.8991 113.376 23.5582 111.578C21.2316 109.779 18.2912 108.88 14.737 108.88C11.6538 108.88 9.02744 109.558 6.85781 110.914C4.68819 112.27 3.02529 114.154 1.86911 116.566C0.727203 118.964 0.15625 121.755 0.15625 124.938C0.15625 128.121 0.727203 130.919 1.86911 133.331C3.02529 135.729 4.68819 137.606 6.85781 138.962C9.02744 140.318 11.6538 140.996 14.737 140.996Z" fill="url(#paint12_linear_219_1767)"></path> <path d="M30.1714 140.354H34.8176L37.0657 133.395H49.7195L52.0104 140.354H56.6565L46.6363 109.522H40.1917L30.1714 140.354ZM38.436 129.199L43.3605 113.997L48.3492 129.199H38.436Z" fill="url(#paint13_linear_219_1767)"></path> <path d="M60.4978 140.354H64.9726V127.036H80.3883V140.354H84.8846V109.522H80.3883V122.818H64.9726V109.522H60.4978V140.354Z" fill="url(#paint14_linear_219_1767)"></path> <path d="M115.158 140.354H110.619V117.423L95.4384 140.354H90.8993V109.522H95.4384V132.432L110.619 109.522H115.158V140.354Z" fill="url(#paint15_linear_219_1767)"></path> <path d="M121.134 140.354H140.832V136.136H125.608V126.608H138.262V122.39H125.608V113.74H140.832V109.522H121.134V140.354Z" fill="url(#paint16_linear_219_1767)"></path> <defs> <linearGradient id="paint0_linear_219_1767" x1="-1.12891" y1="3.97687" x2="444.097" y2="88.4739" gradientUnits="userSpaceOnUse"> <stop offset="0.0190319" stop-color="#E5755F"></stop> <stop offset="0.112073" stop-color="#F2AE66"></stop> <stop offset="0.210278" stop-color="#E5755F"></stop> <stop offset="0.269749" stop-color="#C54D8B"></stop> <stop offset="0.360129" stop-color="#8951B9"></stop> <stop offset="0.416667" stop-color="#7061B4"></stop> <stop offset="0.473958" stop-color="#7061B4"></stop> <stop offset="0.583333" stop-color="#869272"></stop> <stop offset="0.739583" stop-color="#DD8A37"></stop> <stop offset="0.932292" stop-color="#EA4664"></stop> </linearGradient> <linearGradient id="paint1_linear_219_1767" x1="-1.12891" y1="3.97687" x2="444.097" y2="88.4739" gradientUnits="userSpaceOnUse"> <stop offset="0.0190319" stop-color="#E5755F"></stop> <stop offset="0.112073" stop-color="#F2AE66"></stop> <stop offset="0.210278" stop-color="#E5755F"></stop> <stop offset="0.269749" stop-color="#C54D8B"></stop> <stop offset="0.360129" stop-color="#8951B9"></stop> <stop offset="0.416667" stop-color="#7061B4"></stop> <stop offset="0.473958" stop-color="#7061B4"></stop> <stop offset="0.583333" stop-color="#869272"></stop> <stop offset="0.739583" stop-color="#DD8A37"></stop> <stop offset="0.932292" stop-color="#EA4664"></stop> </linearGradient> <linearGradient id="paint2_linear_219_1767" x1="-1.12891" y1="3.97687" x2="444.097" y2="88.4739" gradientUnits="userSpaceOnUse"> <stop offset="0.0190319" stop-color="#E5755F"></stop> <stop offset="0.112073" stop-color="#F2AE66"></stop> <stop offset="0.210278" stop-color="#E5755F"></stop> <stop offset="0.269749" stop-color="#C54D8B"></stop> <stop offset="0.360129" stop-color="#8951B9"></stop> <stop offset="0.416667" stop-color="#7061B4"></stop> <stop offset="0.473958" stop-color="#7061B4"></stop> <stop offset="0.583333" stop-color="#869272"></stop> <stop offset="0.739583" stop-color="#DD8A37"></stop> <stop offset="0.932292" stop-color="#EA4664"></stop> </linearGradient> <linearGradient id="paint3_linear_219_1767" x1="-1.12891" y1="3.97687" x2="444.097" y2="88.4739" gradientUnits="userSpaceOnUse"> <stop offset="0.0190319" stop-color="#E5755F"></stop> <stop offset="0.112073" stop-color="#F2AE66"></stop> <stop offset="0.210278" stop-color="#E5755F"></stop> <stop offset="0.269749" stop-color="#C54D8B"></stop> <stop offset="0.360129" stop-color="#8951B9"></stop> <stop offset="0.416667" stop-color="#7061B4"></stop> <stop offset="0.473958" stop-color="#7061B4"></stop> <stop offset="0.583333" stop-color="#869272"></stop> <stop offset="0.739583" stop-color="#DD8A37"></stop> <stop offset="0.932292" stop-color="#EA4664"></stop> </linearGradient> <linearGradient id="paint4_linear_219_1767" x1="-1.12891" y1="3.97687" x2="444.097" y2="88.4739" gradientUnits="userSpaceOnUse"> <stop offset="0.0190319" stop-color="#E5755F"></stop> <stop offset="0.112073" stop-color="#F2AE66"></stop> <stop offset="0.210278" stop-color="#E5755F"></stop> <stop offset="0.269749" stop-color="#C54D8B"></stop> <stop offset="0.360129" stop-color="#8951B9"></stop> <stop offset="0.416667" stop-color="#7061B4"></stop> <stop offset="0.473958" stop-color="#7061B4"></stop> <stop offset="0.583333" stop-color="#869272"></stop> <stop offset="0.739583" stop-color="#DD8A37"></stop> <stop offset="0.932292" stop-color="#EA4664"></stop> </linearGradient> <linearGradient id="paint5_linear_219_1767" x1="-1.12891" y1="3.97687" x2="444.097" y2="88.4739" gradientUnits="userSpaceOnUse"> <stop offset="0.0190319" stop-color="#E5755F"></stop> <stop offset="0.112073" stop-color="#F2AE66"></stop> <stop offset="0.210278" stop-color="#E5755F"></stop> <stop offset="0.269749" stop-color="#C54D8B"></stop> <stop offset="0.360129" stop-color="#8951B9"></stop> <stop offset="0.416667" stop-color="#7061B4"></stop> <stop offset="0.473958" stop-color="#7061B4"></stop> <stop offset="0.583333" stop-color="#869272"></stop> <stop offset="0.739583" stop-color="#DD8A37"></stop> <stop offset="0.932292" stop-color="#EA4664"></stop> </linearGradient> <linearGradient id="paint6_linear_219_1767" x1="-1.12891" y1="3.97687" x2="444.097" y2="88.4739" gradientUnits="userSpaceOnUse"> <stop offset="0.0190319" stop-color="#E5755F"></stop> <stop offset="0.112073" stop-color="#F2AE66"></stop> <stop offset="0.210278" stop-color="#E5755F"></stop> <stop offset="0.269749" stop-color="#C54D8B"></stop> <stop offset="0.360129" stop-color="#8951B9"></stop> <stop offset="0.416667" stop-color="#7061B4"></stop> <stop offset="0.473958" stop-color="#7061B4"></stop> <stop offset="0.583333" stop-color="#869272"></stop> <stop offset="0.739583" stop-color="#DD8A37"></stop> <stop offset="0.932292" stop-color="#EA4664"></stop> </linearGradient> <linearGradient id="paint7_linear_219_1767" x1="-1.12891" y1="3.97687" x2="444.097" y2="88.4739" gradientUnits="userSpaceOnUse"> <stop offset="0.0190319" stop-color="#E5755F"></stop> <stop offset="0.112073" stop-color="#F2AE66"></stop> <stop offset="0.210278" stop-color="#E5755F"></stop> <stop offset="0.269749" stop-color="#C54D8B"></stop> <stop offset="0.360129" stop-color="#8951B9"></stop> <stop offset="0.416667" stop-color="#7061B4"></stop> <stop offset="0.473958" stop-color="#7061B4"></stop> <stop offset="0.583333" stop-color="#869272"></stop> <stop offset="0.739583" stop-color="#DD8A37"></stop> <stop offset="0.932292" stop-color="#EA4664"></stop> </linearGradient> <linearGradient id="paint8_linear_219_1767" x1="-1.12891" y1="3.97687" x2="444.097" y2="88.4739" gradientUnits="userSpaceOnUse"> <stop offset="0.0190319" stop-color="#E5755F"></stop> <stop offset="0.112073" stop-color="#F2AE66"></stop> <stop offset="0.210278" stop-color="#E5755F"></stop> <stop offset="0.269749" stop-color="#C54D8B"></stop> <stop offset="0.360129" stop-color="#8951B9"></stop> <stop offset="0.416667" stop-color="#7061B4"></stop> <stop offset="0.473958" stop-color="#7061B4"></stop> <stop offset="0.583333" stop-color="#869272"></stop> <stop offset="0.739583" stop-color="#DD8A37"></stop> <stop offset="0.932292" stop-color="#EA4664"></stop> </linearGradient> <linearGradient id="paint9_linear_219_1767" x1="-1.12891" y1="3.97687" x2="444.097" y2="88.4739" gradientUnits="userSpaceOnUse"> <stop offset="0.0190319" stop-color="#E5755F"></stop> <stop offset="0.112073" stop-color="#F2AE66"></stop> <stop offset="0.210278" stop-color="#E5755F"></stop> <stop offset="0.269749" stop-color="#C54D8B"></stop> <stop offset="0.360129" stop-color="#8951B9"></stop> <stop offset="0.416667" stop-color="#7061B4"></stop> <stop offset="0.473958" stop-color="#7061B4"></stop> <stop offset="0.583333" stop-color="#869272"></stop> <stop offset="0.739583" stop-color="#DD8A37"></stop> <stop offset="0.932292" stop-color="#EA4664"></stop> </linearGradient> <linearGradient id="paint10_linear_219_1767" x1="-1.12891" y1="3.97687" x2="444.097" y2="88.4739" gradientUnits="userSpaceOnUse"> <stop offset="0.0190319" stop-color="#E5755F"></stop> <stop offset="0.112073" stop-color="#F2AE66"></stop> <stop offset="0.210278" stop-color="#E5755F"></stop> <stop offset="0.269749" stop-color="#C54D8B"></stop> <stop offset="0.360129" stop-color="#8951B9"></stop> <stop offset="0.416667" stop-color="#7061B4"></stop> <stop offset="0.473958" stop-color="#7061B4"></stop> <stop offset="0.583333" stop-color="#869272"></stop> <stop offset="0.739583" stop-color="#DD8A37"></stop> <stop offset="0.932292" stop-color="#EA4664"></stop> </linearGradient> <linearGradient id="paint11_linear_219_1767" x1="-1.12891" y1="3.97687" x2="444.097" y2="88.4739" gradientUnits="userSpaceOnUse"> <stop offset="0.0190319" stop-color="#E5755F"></stop> <stop offset="0.112073" stop-color="#F2AE66"></stop> <stop offset="0.210278" stop-color="#E5755F"></stop> <stop offset="0.269749" stop-color="#C54D8B"></stop> <stop offset="0.360129" stop-color="#8951B9"></stop> <stop offset="0.416667" stop-color="#7061B4"></stop> <stop offset="0.473958" stop-color="#7061B4"></stop> <stop offset="0.583333" stop-color="#869272"></stop> <stop offset="0.739583" stop-color="#DD8A37"></stop> <stop offset="0.932292" stop-color="#EA4664"></stop> </linearGradient> <linearGradient id="paint12_linear_219_1767" x1="-1.12891" y1="3.97687" x2="444.097" y2="88.4739" gradientUnits="userSpaceOnUse"> <stop offset="0.0190319" stop-color="#E5755F"></stop> <stop offset="0.112073" stop-color="#F2AE66"></stop> <stop offset="0.210278" stop-color="#E5755F"></stop> <stop offset="0.269749" stop-color="#C54D8B"></stop> <stop offset="0.360129" stop-color="#8951B9"></stop> <stop offset="0.416667" stop-color="#7061B4"></stop> <stop offset="0.473958" stop-color="#7061B4"></stop> <stop offset="0.583333" stop-color="#869272"></stop> <stop offset="0.739583" stop-color="#DD8A37"></stop> <stop offset="0.932292" stop-color="#EA4664"></stop> </linearGradient> <linearGradient id="paint13_linear_219_1767" x1="-1.12891" y1="3.97687" x2="444.097" y2="88.4739" gradientUnits="userSpaceOnUse"> <stop offset="0.0190319" stop-color="#E5755F"></stop> <stop offset="0.112073" stop-color="#F2AE66"></stop> <stop offset="0.210278" stop-color="#E5755F"></stop> <stop offset="0.269749" stop-color="#C54D8B"></stop> <stop offset="0.360129" stop-color="#8951B9"></stop> <stop offset="0.416667" stop-color="#7061B4"></stop> <stop offset="0.473958" stop-color="#7061B4"></stop> <stop offset="0.583333" stop-color="#869272"></stop> <stop offset="0.739583" stop-color="#DD8A37"></stop> <stop offset="0.932292" stop-color="#EA4664"></stop> </linearGradient> <linearGradient id="paint14_linear_219_1767" x1="-1.12891" y1="3.97687" x2="444.097" y2="88.4739" gradientUnits="userSpaceOnUse"> <stop offset="0.0190319" stop-color="#E5755F"></stop> <stop offset="0.112073" stop-color="#F2AE66"></stop> <stop offset="0.210278" stop-color="#E5755F"></stop> <stop offset="0.269749" stop-color="#C54D8B"></stop> <stop offset="0.360129" stop-color="#8951B9"></stop> <stop offset="0.416667" stop-color="#7061B4"></stop> <stop offset="0.473958" stop-color="#7061B4"></stop> <stop offset="0.583333" stop-color="#869272"></stop> <stop offset="0.739583" stop-color="#DD8A37"></stop> <stop offset="0.932292" stop-color="#EA4664"></stop> </linearGradient> <linearGradient id="paint15_linear_219_1767" x1="-1.12891" y1="3.97687" x2="444.097" y2="88.4739" gradientUnits="userSpaceOnUse"> <stop offset="0.0190319" stop-color="#E5755F"></stop> <stop offset="0.112073" stop-color="#F2AE66"></stop> <stop offset="0.210278" stop-color="#E5755F"></stop> <stop offset="0.269749" stop-color="#C54D8B"></stop> <stop offset="0.360129" stop-color="#8951B9"></stop> <stop offset="0.416667" stop-color="#7061B4"></stop> <stop offset="0.473958" stop-color="#7061B4"></stop> <stop offset="0.583333" stop-color="#869272"></stop> <stop offset="0.739583" stop-color="#DD8A37"></stop> <stop offset="0.932292" stop-color="#EA4664"></stop> </linearGradient> <linearGradient id="paint16_linear_219_1767" x1="-1.12891" y1="3.97687" x2="444.097" y2="88.4739" gradientUnits="userSpaceOnUse"> <stop offset="0.0190319" stop-color="#E5755F"></stop> <stop offset="0.112073" stop-color="#F2AE66"></stop> <stop offset="0.210278" stop-color="#E5755F"></stop> <stop offset="0.269749" stop-color="#C54D8B"></stop> <stop offset="0.360129" stop-color="#8951B9"></stop> <stop offset="0.416667" stop-color="#7061B4"></stop> <stop offset="0.473958" stop-color="#7061B4"></stop> <stop offset="0.583333" stop-color="#869272"></stop> <stop offset="0.739583" stop-color="#DD8A37"></stop> <stop offset="0.932292" stop-color="#EA4664"></stop> </linearGradient> </defs> </svg> 