<?xml version="1.0" encoding="UTF-8"?> <svg xmlns="http://www.w3.org/2000/svg" width="24" height="24" viewBox="0 0 24 24" fill="none"> <path fill-rule="evenodd" clip-rule="evenodd" d="M21.9579 12.9239C21.5398 17.4874 18.0556 21.1639 13.5833 21.8753V14.9167H15.9401L16.3151 11.9167H13.5833V10.25C13.5833 9.42219 13.8751 8.58731 15.0833 8.58731L16.4167 8.58652V6.08333L16.3588 6.07564C16.0346 6.03232 15.1688 5.91666 14.1715 5.91666C11.9502 5.91666 10.4292 7.24902 10.4292 9.69604V11.9167H7.91662V14.9167H10.4292V21.8773C5.90925 21.1642 2.3958 17.4231 2.03125 12.7964C2.01313 12.5665 2.00279 12.3344 2.00049 12.1004C2.00016 12.067 2 12.0335 2 12C2 10.2613 2.44375 8.62615 3.22419 7.20178C4.9227 4.10185 8.21589 2 12 2C13.3807 2 14.6961 2.27982 15.8925 2.78584C19.4816 4.30392 22 7.85786 22 12C22 12.3115 21.9858 12.6197 21.9579 12.9239Z" fill="white"></path> </svg> 