<?xml version="1.0" encoding="UTF-8"?> <svg xmlns="http://www.w3.org/2000/svg" width="25" height="25" viewBox="0 0 25 25" fill="none"> <path fill-rule="evenodd" clip-rule="evenodd" d="M20.8755 24.7179L3.68625 24.7346C3.68625 24.7346 2.38446 23.6358 3.30708 21.6804C4.11661 19.9647 8.51214 8.38907 8.51214 8.38907L8.37941 2.96913L7.47881 2.97359L7.27851 0.0846014L17.7318 7.62939e-05L17.5035 2.923L16.5261 2.92805L16.2928 8.4718C16.2928 8.4718 20.7752 20.1432 21.5571 21.8039C22.3264 23.4388 20.8755 24.7179 20.8755 24.7179ZM14.1315 8.65186L14.3401 2.93936L10.5517 2.95841L10.5904 8.67508L5.46333 22.1742L5.80411 22.79L18.9863 22.8218L19.4565 22.1459L14.1315 8.65186ZM9.32583 16.0542C11.6526 16.7528 13.033 14.2462 15.2461 15.4566L17.3746 21.131L7.17732 21.4685L9.32583 16.0542Z" fill="#5B6CFF"></path> </svg> 