<?xml version="1.0" encoding="UTF-8"?> <svg xmlns="http://www.w3.org/2000/svg" width="594" height="646" viewBox="0 0 594 646" fill="none"> <g filter="url(#filter0_b_179_898)"> <path d="M1 52.2C1 34.2783 1 25.3175 4.48779 18.4723C7.55574 12.4511 12.4511 7.55574 18.4723 4.48779C25.3175 1 34.2783 1 52.2 1H541.8C559.722 1 568.683 1 575.528 4.48779C581.549 7.55574 586.444 12.4511 589.512 18.4723C593 25.3175 593 34.2783 593 52.2V593.8C593 611.722 593 620.683 589.512 627.528C586.444 633.549 581.549 638.444 575.528 641.512C568.683 645 559.722 645 541.8 645H52.2C34.2783 645 25.3175 645 18.4723 641.512C12.4511 638.444 7.55574 633.549 4.48779 627.528C1 620.683 1 611.722 1 593.8V52.2Z" fill="#F1F2FB" fill-opacity="0.07"></path> <path d="M541.8 0.5H52.2H52.1762C43.2355 0.5 36.4981 0.499999 31.1417 0.937634C25.7748 1.37613 21.7501 2.25649 18.2453 4.04229C12.13 7.15817 7.15817 12.13 4.04229 18.2453C2.25649 21.7501 1.37613 25.7748 0.937634 31.1417C0.499999 36.4981 0.5 43.2355 0.5 52.1762V52.2V593.8V593.824C0.5 602.765 0.499999 609.502 0.937634 614.858C1.37613 620.225 2.25649 624.25 4.04229 627.755C7.15817 633.87 12.13 638.842 18.2453 641.958C21.7501 643.743 25.7748 644.624 31.1418 645.062C36.4984 645.5 43.2362 645.5 52.1776 645.5H52.2H541.8H541.822C550.764 645.5 557.502 645.5 562.858 645.062C568.225 644.624 572.25 643.743 575.755 641.958C581.87 638.842 586.842 633.87 589.958 627.755C591.744 624.25 592.624 620.225 593.062 614.858C593.5 609.502 593.5 602.764 593.5 593.822V593.8V52.2V52.1776C593.5 43.2361 593.5 36.4984 593.062 31.1417C592.624 25.7748 591.744 21.7501 589.958 18.2453C586.842 12.13 581.87 7.15817 575.755 4.04229C572.25 2.25649 568.225 1.37613 562.858 0.937634C557.502 0.499999 550.765 0.5 541.824 0.5H541.8Z" stroke="url(#paint0_linear_179_898)" stroke-opacity="0.5"></path> </g> <defs> <filter id="filter0_b_179_898" x="-20" y="-20" width="634" height="686" filterUnits="userSpaceOnUse" color-interpolation-filters="sRGB"> <feFlood flood-opacity="0" result="BackgroundImageFix"></feFlood> <feGaussianBlur in="BackgroundImage" stdDeviation="10"></feGaussianBlur> <feComposite in2="SourceAlpha" operator="in" result="effect1_backgroundBlur_179_898"></feComposite> <feBlend mode="normal" in="SourceGraphic" in2="effect1_backgroundBlur_179_898" result="shape"></feBlend> </filter> <linearGradient id="paint0_linear_179_898" x1="369.479" y1="0.999997" x2="-51.2233" y2="381.888" gradientUnits="userSpaceOnUse"> <stop stop-color="#F1F2FB"></stop> <stop offset="1" stop-color="#F1F2FB" stop-opacity="0.32"></stop> </linearGradient> </defs> </svg> 