<?xml version="1.0" encoding="UTF-8"?> <svg xmlns="http://www.w3.org/2000/svg" width="234" height="86" viewBox="0 0 234 86" fill="none"> <path d="M16.4951 34.8209C19.7923 34.8209 22.601 34.0959 24.9212 32.6457C27.2414 31.1956 29.0121 29.1883 30.2333 26.6238C31.4544 24.0441 32.065 21.0523 32.065 17.6483C32.065 14.2443 31.4544 11.26 30.2333 8.69557C29.0121 6.11585 27.2414 4.10093 24.9212 2.65079C22.601 1.20065 19.7923 0.475586 16.4951 0.475586C13.198 0.475586 10.3893 1.20065 8.06907 2.65079C5.74885 4.10093 3.97053 6.11585 2.7341 8.69557C1.51293 11.26 0.902344 14.2443 0.902344 17.6483C0.902344 21.0523 1.51293 24.0441 2.7341 26.6238C3.97053 29.1883 5.74885 31.1956 8.06907 32.6457C10.3893 34.0959 13.198 34.8209 16.4951 34.8209ZM16.4951 30.2644C12.9995 30.2339 10.3664 29.0662 8.5957 26.7612C6.84027 24.4563 5.97019 21.4186 5.98545 17.6483C6.00072 15.1296 6.38997 12.9239 7.1532 11.0311C7.93169 9.12298 9.09943 7.64231 10.6564 6.58906C12.2134 5.52054 14.1596 5.00154 16.4951 5.03207C20.006 5.04733 22.6315 6.20744 24.3717 8.51239C26.1118 10.8173 26.9819 13.8626 26.9819 17.6483C26.9819 20.1669 26.5927 22.3803 25.8142 24.2884C25.0509 26.1812 23.8908 27.6542 22.3338 28.7075C20.7768 29.7607 18.8306 30.2797 16.4951 30.2644Z" fill="#F1F2FB"></path> <path d="M36.6322 34.134H49.9582C50.2788 34.134 50.6757 34.1264 51.1489 34.1111C51.6221 34.0806 52.0724 34.0348 52.4998 33.9737C54.301 33.76 55.8122 33.18 57.0334 32.2336C58.2698 31.2872 59.2009 30.0889 59.8268 28.6388C60.4526 27.1734 60.7656 25.5858 60.7656 23.8762C60.7656 22.1513 60.445 20.5638 59.8039 19.1137C59.178 17.6635 58.2469 16.4653 57.0105 15.5188C55.7893 14.5724 54.2857 13.9924 52.4998 13.7787C52.0724 13.7176 51.6144 13.6795 51.126 13.6642C50.6528 13.6337 50.2635 13.6184 49.9582 13.6184H41.4177V5.67318H58.1324V1.16249H36.6322V34.134ZM41.4177 29.6233V18.1291H49.7751C50.0803 18.1291 50.4162 18.1444 50.7825 18.1749C51.1641 18.1901 51.5228 18.2359 51.8587 18.3123C53.3241 18.6176 54.3621 19.3197 54.9726 20.4188C55.5832 21.5026 55.8885 22.655 55.8885 23.8762C55.8885 25.0821 55.5832 26.2346 54.9726 27.3336C54.3621 28.4327 53.3241 29.1349 51.8587 29.4402C51.5228 29.5012 51.1641 29.547 50.7825 29.5775C50.4162 29.6081 50.0803 29.6233 49.7751 29.6233H41.4177Z" fill="#F1F2FB"></path> <path d="M65.3428 34.134H70.1282V22.2963H78.6688C78.9741 22.2963 79.3633 22.2811 79.8365 22.2505C80.325 22.22 80.7829 22.1742 81.2103 22.1132C83.958 21.6705 86.0187 20.4951 87.3925 18.587C88.7816 16.679 89.4761 14.3893 89.4761 11.718C89.4761 9.04666 88.7892 6.75697 87.4154 4.84889C86.0416 2.94082 83.9732 1.77308 81.2103 1.34567C80.7829 1.26934 80.3326 1.22355 79.8594 1.20829C79.3862 1.17776 78.9893 1.16249 78.6688 1.16249H65.3428V34.134ZM70.1282 17.7627V5.67318H78.4856C78.7909 5.67318 79.1267 5.68845 79.4931 5.71897C79.8747 5.7495 80.2334 5.81056 80.5692 5.90215C82.0346 6.23797 83.0726 6.98593 83.6832 8.14604C84.2938 9.30615 84.5991 10.4968 84.5991 11.718C84.5991 12.9239 84.2938 14.1145 83.6832 15.2899C83.0726 16.45 82.0346 17.2056 80.5692 17.5567C80.2334 17.633 79.8747 17.6864 79.4931 17.7169C79.1267 17.7475 78.7909 17.7627 78.4856 17.7627H70.1282Z" fill="#F1F2FB"></path> <path d="M89.9301 34.134H94.8988L97.3029 26.6925H110.835L113.285 34.134H118.254L107.538 1.16249H100.646L89.9301 34.134ZM98.7683 22.2047L104.035 5.94794L109.37 22.2047H98.7683Z" fill="#F1F2FB"></path> <path d="M127.853 34.134H132.639V5.67318H143.607V1.16249H116.886V5.67318H127.853V34.134Z" fill="#F1F2FB"></path> <path d="M147.271 34.134H152.056V19.8922H168.542V34.134H173.35V1.16249H168.542V15.3815H152.056V1.16249H147.271V34.134Z" fill="#F1F2FB"></path> <path d="M177.493 34.134H182.461L184.866 26.6925H198.398L200.848 34.134H205.816L195.101 1.16249H188.209L177.493 34.134ZM186.331 22.2047L191.597 5.94794L196.932 22.2047H186.331Z" fill="#F1F2FB"></path> <path d="M233.302 34.134H228.516V22.2963H219.77L214.023 34.134H208.55L214.778 21.3576C212.901 20.5485 211.496 19.2892 210.565 17.5796C209.634 15.8699 209.169 13.9161 209.169 11.718C209.169 9.04666 209.855 6.75697 211.229 4.84889C212.603 2.94082 214.671 1.77308 217.434 1.34567C217.862 1.26934 218.312 1.22355 218.785 1.20829C219.258 1.17776 219.655 1.16249 219.976 1.16249H233.302V34.134ZM228.516 17.7627V5.67318H220.159C219.854 5.67318 219.51 5.68845 219.129 5.71897C218.762 5.7495 218.411 5.81056 218.075 5.90215C216.61 6.23797 215.572 6.98593 214.961 8.14604C214.351 9.30615 214.046 10.4968 214.046 11.718C214.046 12.9239 214.351 14.1145 214.961 15.2899C215.572 16.45 216.61 17.2056 218.075 17.5567C218.411 17.633 218.762 17.6864 219.129 17.7169C219.51 17.7475 219.854 17.7627 220.159 17.7627H228.516Z" fill="#F1F2FB"></path> <path d="M16.4951 85.8209C20.296 85.8209 23.4405 84.8593 25.9286 82.9359C28.432 81.0126 30.1722 78.4252 31.1491 75.1739L26.295 73.8688C25.6386 76.1737 24.4938 77.9826 22.8605 79.2953C21.2272 80.6081 19.1054 81.2644 16.4951 81.2644C14.1596 81.2644 12.2058 80.7378 10.6335 79.6846C9.07654 78.6313 7.90116 77.1583 7.1074 75.2655C6.32891 73.3726 5.94729 71.1669 5.96256 68.6483C5.97782 66.1296 6.3747 63.9239 7.1532 62.0311C7.93169 60.1382 9.09943 58.6652 10.6564 57.612C12.2134 56.5587 14.1596 56.0321 16.4951 56.0321C19.1054 56.0321 21.2272 56.6884 22.8605 58.0012C24.4938 59.314 25.6386 61.1228 26.295 63.4278L31.1491 62.1226C30.1722 58.8713 28.432 56.2839 25.9286 54.3606C23.4405 52.4373 20.296 51.4756 16.4951 51.4756C13.198 51.4756 10.3893 52.2007 8.06907 53.6508C5.74885 55.1009 3.97053 57.1159 2.7341 59.6956C1.51293 62.26 0.902344 65.2442 0.902344 68.6483C0.902344 72.0523 1.51293 75.0441 2.7341 77.6238C3.97053 80.1883 5.74885 82.1956 8.06907 83.6457C10.3893 85.0959 13.198 85.8209 16.4951 85.8209Z" fill="#F1F2FB"></path> <path d="M36.185 85.134H50.3811C53.5256 85.134 55.9527 84.2563 57.6623 82.5009C59.3872 80.7454 60.2497 78.4176 60.2497 75.5173C60.2497 73.7619 59.8146 72.1973 58.9445 70.8235C58.0745 69.4496 56.8228 68.4117 55.1894 67.7095C56.2732 67.0836 57.1281 66.1907 57.7539 65.0305C58.3798 63.8704 58.6927 62.5348 58.6927 61.0236C58.6927 59.5277 58.334 58.1081 57.6165 56.7648C56.8991 55.4062 55.8306 54.2995 54.411 53.4447C53.0066 52.5899 51.2512 52.1625 49.1447 52.1625H36.185V85.134ZM41.0392 65.6259V56.6732H49.076C50.5108 56.6732 51.6557 57.0853 52.5105 57.9096C53.3653 58.7339 53.7927 59.7872 53.7927 61.0694C53.7927 62.5043 53.3348 63.6262 52.4189 64.4352C51.5183 65.229 50.404 65.6259 49.076 65.6259H41.0392ZM41.0392 80.5775V70.1366H49.9461C51.5946 70.1366 52.9074 70.6479 53.8843 71.6706C54.8613 72.6781 55.3497 73.9298 55.3497 75.4257C55.3497 77.0285 54.8078 78.2879 53.724 79.2037C52.6403 80.1196 51.2817 80.5775 49.6484 80.5775H41.0392Z" fill="#F1F2FB"></path> <path d="M88.1839 85.134H83.3984V73.2963H74.6518L68.9047 85.134H63.4323L69.6603 72.3576C67.7827 71.5485 66.3784 70.2892 65.4473 68.5796C64.5161 66.8699 64.0505 64.9161 64.0505 62.718C64.0505 60.0467 64.7375 57.757 66.1113 55.8489C67.4851 53.9408 69.5534 52.7731 72.3163 52.3457C72.7437 52.2693 73.194 52.2236 73.6672 52.2083C74.1404 52.1778 74.5373 52.1625 74.8579 52.1625H88.1839V85.134ZM83.3984 68.7627V56.6732H75.0411C74.7358 56.6732 74.3923 56.6884 74.0107 56.719C73.6443 56.7495 73.2933 56.8106 72.9574 56.9021C71.492 57.238 70.4541 57.9859 69.8435 59.146C69.2329 60.3062 68.9276 61.4968 68.9276 62.718C68.9276 63.9239 69.2329 65.1145 69.8435 66.2899C70.4541 67.45 71.492 68.2056 72.9574 68.5567C73.2933 68.633 73.6443 68.6864 74.0107 68.7169C74.3923 68.7475 74.7358 68.7627 75.0411 68.7627H83.3984Z" fill="#F1F2FB"></path> <path d="M105.878 85.8209C108.336 85.8209 110.519 85.4012 112.427 84.5616C114.35 83.722 115.861 82.539 116.96 81.0126C118.075 79.4709 118.632 77.6467 118.632 75.5402C118.632 73.6627 118.204 72.1209 117.35 70.915C116.495 69.6939 115.312 68.8009 113.8 68.2361C114.884 67.4729 115.747 66.4425 116.388 65.145C117.044 63.8475 117.372 62.3974 117.372 60.7946C117.372 58.6728 116.838 56.925 115.77 55.5512C114.701 54.1774 113.32 53.1547 111.625 52.483C109.931 51.8114 108.137 51.4756 106.245 51.4756C103.741 51.4756 101.535 51.9869 99.6273 53.0097C97.7192 54.0324 96.2157 55.307 95.1166 56.8335L98.6427 60.1535C99.3297 58.9781 100.307 57.9936 101.574 57.1998C102.841 56.3908 104.352 55.9863 106.107 55.9863C107.954 55.9863 109.442 56.4289 110.572 57.3143C111.717 58.1996 112.289 59.4132 112.289 60.9549C112.289 62.4966 111.702 63.6873 110.526 64.5268C109.366 65.3664 107.84 65.8319 105.947 65.9235C105.672 65.9388 105.298 65.9541 104.825 65.9693C104.367 65.9693 103.924 65.9693 103.497 65.9693C103.085 65.9693 102.795 65.9693 102.627 65.9693V70.5029C102.764 70.5029 102.909 70.5029 103.062 70.5029C103.23 70.5029 103.55 70.5105 104.024 70.5258C104.497 70.5411 105.268 70.5716 106.336 70.6174C107.618 70.6479 108.809 70.8082 109.908 71.0982C111.007 71.373 111.885 71.8615 112.541 72.5636C113.213 73.2505 113.549 74.2351 113.549 75.5173C113.549 77.1354 112.938 78.5016 111.717 79.6159C110.496 80.7149 108.618 81.2644 106.084 81.2644C104.39 81.2644 102.947 81.0202 101.757 80.5317C100.581 80.028 99.6197 79.3793 98.8717 78.5855C98.139 77.7918 97.5895 76.9446 97.2231 76.044L93.0559 78.7458C93.6512 79.967 94.5137 81.1194 95.6433 82.2032C96.7728 83.2717 98.1848 84.1418 99.8792 84.8135C101.589 85.4851 103.588 85.8209 105.878 85.8209Z" fill="#F1F2FB"></path> <path d="M123.501 85.134H136.827C137.148 85.134 137.537 85.1188 137.995 85.0882C138.468 85.0577 138.919 85.0119 139.346 84.9508C142.124 84.5234 144.2 83.3557 145.574 81.4476C146.948 79.5395 147.635 77.2499 147.635 74.5786C147.635 71.892 146.94 69.5947 145.551 67.6866C144.162 65.7785 142.094 64.6108 139.346 64.1834C138.919 64.107 138.468 64.0612 137.995 64.046C137.522 64.0154 137.133 64.0002 136.827 64.0002H128.287V52.1625H123.501V85.134ZM128.287 80.6233V68.5338H136.644C136.949 68.5338 137.285 68.549 137.652 68.5796C138.018 68.6101 138.369 68.6635 138.705 68.7398C140.185 69.0909 141.231 69.8465 141.842 71.0066C142.452 72.1667 142.758 73.3574 142.758 74.5786C142.758 75.7845 142.452 76.9675 141.842 78.1276C141.231 79.2877 140.185 80.0433 138.705 80.3944C138.369 80.486 138.018 80.547 137.652 80.5775C137.285 80.6081 136.949 80.6233 136.644 80.6233H128.287Z" fill="#F1F2FB"></path> </svg> 