<?xml version="1.0" encoding="UTF-8"?> <svg xmlns="http://www.w3.org/2000/svg" width="298" height="1081" viewBox="0 0 298 1081" fill="none"> <g filter="url(#filter0_b_179_1076)"> <path d="M1 52.2C1 34.2783 1 25.3175 4.48779 18.4723C7.55574 12.4511 12.4511 7.55574 18.4723 4.48779C25.3175 1 34.2783 1 52.2 1H245.8C263.722 1 272.683 1 279.528 4.48779C285.549 7.55574 290.444 12.4511 293.512 18.4723C297 25.3175 297 34.2783 297 52.2V1028.8C297 1046.72 297 1055.68 293.512 1062.53C290.444 1068.55 285.549 1073.44 279.528 1076.51C272.683 1080 263.722 1080 245.8 1080H52.2C34.2783 1080 25.3175 1080 18.4723 1076.51C12.4511 1073.44 7.55574 1068.55 4.48779 1062.53C1 1055.68 1 1046.72 1 1028.8V52.2Z" fill="#F1F2FB" fill-opacity="0.07"></path> <path d="M245.8 0.5H52.2H52.1762C43.2355 0.5 36.4981 0.499999 31.1417 0.937634C25.7748 1.37613 21.7501 2.25649 18.2453 4.04229C12.13 7.15817 7.15817 12.13 4.04229 18.2453C2.25649 21.7501 1.37613 25.7748 0.937634 31.1417C0.499999 36.4981 0.5 43.2354 0.5 52.1762V52.2V1028.8V1028.82C0.5 1037.76 0.499999 1044.5 0.937634 1049.86C1.37613 1055.23 2.25649 1059.25 4.04229 1062.75C7.15817 1068.87 12.13 1073.84 18.2453 1076.96C21.7501 1078.74 25.7748 1079.62 31.1417 1080.06C36.4984 1080.5 43.2361 1080.5 52.1776 1080.5H52.2H245.8H245.822C254.764 1080.5 261.502 1080.5 266.858 1080.06C272.225 1079.62 276.25 1078.74 279.755 1076.96C285.87 1073.84 290.842 1068.87 293.958 1062.75C295.743 1059.25 296.624 1055.23 297.062 1049.86C297.5 1044.5 297.5 1037.76 297.5 1028.82V1028.8V52.2V52.1776C297.5 43.2362 297.5 36.4984 297.062 31.1417C296.624 25.7748 295.743 21.7501 293.958 18.2453C290.842 12.13 285.87 7.15817 279.755 4.04229C276.25 2.25649 272.225 1.37613 266.858 0.937634C261.502 0.499999 254.765 0.5 245.824 0.5H245.8Z" stroke="url(#paint0_linear_179_1076)" stroke-opacity="0.5"></path> </g> <defs> <filter id="filter0_b_179_1076" x="-20" y="-20" width="338" height="1121" filterUnits="userSpaceOnUse" color-interpolation-filters="sRGB"> <feFlood flood-opacity="0" result="BackgroundImageFix"></feFlood> <feGaussianBlur in="BackgroundImage" stdDeviation="10"></feGaussianBlur> <feComposite in2="SourceAlpha" operator="in" result="effect1_backgroundBlur_179_1076"></feComposite> <feBlend mode="normal" in="SourceGraphic" in2="effect1_backgroundBlur_179_1076" result="shape"></feBlend> </filter> <linearGradient id="paint0_linear_179_1076" x1="185.24" y1="0.999995" x2="-171.491" y2="97.3823" gradientUnits="userSpaceOnUse"> <stop stop-color="#F1F2FB"></stop> <stop offset="1" stop-color="#F1F2FB" stop-opacity="0.32"></stop> </linearGradient> </defs> </svg> 