<?xml version="1.0" encoding="UTF-8"?> <svg xmlns="http://www.w3.org/2000/svg" width="450" height="708" viewBox="0 0 450 708" fill="none"> <g filter="url(#filter0_b_179_987)"> <path d="M1 52.2C1 34.2783 1 25.3175 4.48779 18.4723C7.55574 12.4511 12.4511 7.55574 18.4723 4.48779C25.3175 1 34.2783 1 52.2 1H397.8C415.722 1 424.683 1 431.528 4.48779C437.549 7.55574 442.444 12.4511 445.512 18.4723C449 25.3175 449 34.2783 449 52.2V655.8C449 673.722 449 682.683 445.512 689.528C442.444 695.549 437.549 700.444 431.528 703.512C424.683 707 415.722 707 397.8 707H52.2C34.2783 707 25.3175 707 18.4723 703.512C12.4511 700.444 7.55574 695.549 4.48779 689.528C1 682.683 1 673.722 1 655.8V52.2Z" fill="#F1F2FB" fill-opacity="0.07"></path> <path d="M397.8 0.5H52.2H52.1762C43.2355 0.5 36.4981 0.499999 31.1417 0.937634C25.7748 1.37613 21.7501 2.25649 18.2453 4.04229C12.13 7.15817 7.15817 12.13 4.04229 18.2453C2.25649 21.7501 1.37613 25.7748 0.937634 31.1418C0.499999 36.4981 0.5 43.2355 0.5 52.1762V52.2V655.8V655.824C0.5 664.765 0.499999 671.502 0.937634 676.858C1.37613 682.225 2.25649 686.25 4.04229 689.755C7.15817 695.87 12.13 700.842 18.2453 703.958C21.7501 705.744 25.7748 706.624 31.1418 707.062C36.4984 707.5 43.2362 707.5 52.1776 707.5H52.2H397.8H397.822C406.764 707.5 413.502 707.5 418.858 707.062C424.225 706.624 428.25 705.744 431.755 703.958C437.87 700.842 442.842 695.87 445.958 689.755C447.744 686.25 448.624 682.225 449.062 676.858C449.5 671.502 449.5 664.765 449.5 655.824V655.8V52.2V52.1757C449.5 43.2352 449.5 36.4981 449.062 31.1417C448.624 25.7748 447.744 21.7501 445.958 18.2453C442.842 12.13 437.87 7.15817 431.755 4.04229C428.25 2.25649 424.225 1.37613 418.858 0.937634C413.502 0.499999 406.765 0.5 397.824 0.5H397.8Z" stroke="url(#paint0_linear_179_987)" stroke-opacity="0.5"></path> </g> <defs> <filter id="filter0_b_179_987" x="-20" y="-20" width="490" height="748" filterUnits="userSpaceOnUse" color-interpolation-filters="sRGB"> <feFlood flood-opacity="0" result="BackgroundImageFix"></feFlood> <feGaussianBlur in="BackgroundImage" stdDeviation="10"></feGaussianBlur> <feComposite in2="SourceAlpha" operator="in" result="effect1_backgroundBlur_179_987"></feComposite> <feBlend mode="normal" in="SourceGraphic" in2="effect1_backgroundBlur_179_987" result="shape"></feBlend> </filter> <linearGradient id="paint0_linear_179_987" x1="279.849" y1="0.999997" x2="-136.759" y2="261.368" gradientUnits="userSpaceOnUse"> <stop stop-color="#F1F2FB"></stop> <stop offset="1" stop-color="#F1F2FB" stop-opacity="0.32"></stop> </linearGradient> </defs> </svg> 