<?xml version="1.0" encoding="UTF-8"?> <svg xmlns="http://www.w3.org/2000/svg" width="773" height="93" viewBox="0 0 773 93" fill="none"> <path d="M28.9324 92.8996C34.5084 92.8996 39.6744 91.5876 44.4304 88.9636C49.1864 86.2986 53.0199 82.7316 55.9309 78.2626C58.8419 73.7526 60.2974 68.7096 60.2974 63.1336C60.2974 57.5576 59.0879 52.6171 56.6689 48.3121C54.2909 43.9661 50.9699 40.5631 46.7059 38.1031C42.4829 35.6021 37.5834 34.3516 32.0074 34.3516C30.0804 34.3516 28.0304 34.5976 25.8574 35.0896C23.6844 35.5816 21.6139 36.3606 19.6459 37.4266L20.8759 18.1156H54.3934V2.4946H6.05439L3.34839 49.6036L17.4934 53.9086C18.4774 52.9656 19.9534 51.9816 21.9214 50.9566C23.8894 49.8906 26.4314 49.3576 29.5474 49.3576C32.0894 49.3576 34.4059 49.9726 36.4969 51.2026C38.6289 52.4326 40.3099 54.0931 41.5399 56.1841C42.8109 58.2751 43.4464 60.5916 43.4464 63.1336C43.4464 65.6756 42.8109 67.9921 41.5399 70.0831C40.3099 72.1741 38.6289 73.8346 36.4969 75.0646C34.4059 76.2946 32.0894 76.9096 29.5474 76.9096C26.6774 76.9096 23.9509 75.9871 21.3679 74.1421C18.7849 72.2971 17.0834 69.8166 16.2634 66.7006L0.150391 71.0056C1.38039 75.3516 3.40989 79.1646 6.23889 82.4446C9.06789 85.7246 12.4299 88.2871 16.3249 90.1321C20.2609 91.9771 24.4634 92.8996 28.9324 92.8996Z" fill="#F1F2FB"></path> <path d="M73.8111 58.7056H125.471V45.7906H73.8111V58.7056Z" fill="#F1F2FB"></path> <path d="M169.879 0.772596C164.303 0.772596 159.178 2.10509 154.504 4.77009C149.83 7.39409 146.078 10.9611 143.249 15.4711C140.42 19.9401 139.006 24.9626 139.006 30.5386C139.006 36.1146 140.195 41.0756 142.573 45.4216C144.992 49.7676 148.313 53.1911 152.536 55.6921C156.8 58.1931 161.72 59.4436 167.296 59.4436C173.405 59.4436 178.858 57.6191 183.655 53.9701V61.5346C183.655 64.2406 182.999 66.8031 181.687 69.2221C180.416 71.6001 178.591 73.5476 176.213 75.0646C173.876 76.5406 171.109 77.2786 167.911 77.2786C163.647 77.2786 159.957 75.7206 156.841 72.6046L144.91 84.5356C148.149 87.5696 151.716 89.7221 155.611 90.9931C159.506 92.2641 163.606 92.8996 167.911 92.8996C174.553 92.8996 180.334 91.5466 185.254 88.8406C190.174 86.0936 193.987 82.1986 196.693 77.1556C199.399 72.0716 200.752 66.0446 200.752 59.0746V33.3676C200.752 26.9306 199.399 21.2726 196.693 16.3936C193.987 11.4736 190.297 7.64009 185.623 4.8931C180.99 2.1461 175.742 0.772596 169.879 0.772596ZM169.879 16.7626C172.421 16.7626 174.737 17.3981 176.828 18.6691C178.919 19.9401 180.58 21.6211 181.81 23.7121C183.04 25.8031 183.655 28.0786 183.655 30.5386C183.655 33.0806 183.019 35.4176 181.748 37.5496C180.518 39.6406 178.837 41.3216 176.705 42.5926C174.614 43.8226 172.298 44.4376 169.756 44.4376C167.214 44.4376 164.897 43.8226 162.806 42.5926C160.715 41.3216 159.055 39.6406 157.825 37.5496C156.595 35.4176 155.98 33.0806 155.98 30.5386C155.98 27.9966 156.595 25.6801 157.825 23.5891C159.096 21.4981 160.777 19.8376 162.868 18.6076C165 17.3776 167.337 16.7626 169.879 16.7626Z" fill="#F1F2FB"></path> <path d="M242.605 91.0546H259.333V50.7106L294.634 91.0546H315.79L276.43 46.1596L313.453 2.4946H293.035L259.333 43.3306V2.4946H242.605V91.0546Z" fill="#F1F2FB"></path> <path d="M318.254 91.0546C324.691 92.3256 329.714 92.1411 333.322 90.5011C336.971 88.8611 339.738 86.0321 341.624 82.0141C343.51 77.9961 345.027 73.0556 346.175 67.1926C347.118 62.6826 347.918 58.0291 348.574 53.2321C349.23 48.4351 349.783 43.8021 350.234 39.3331C350.685 34.8641 351.034 30.7846 351.28 27.0946C351.567 23.4046 351.792 20.4116 351.956 18.1156H380.246V91.0546H396.974V2.4946H336.581C336.458 5.15959 336.274 8.74709 336.028 13.2571C335.782 17.7261 335.433 22.6871 334.982 28.1401C334.531 33.5931 333.957 39.1691 333.26 44.8681C332.604 50.5261 331.784 55.9176 330.8 61.0426C329.98 65.3886 329.078 68.7711 328.094 71.1901C327.11 73.5681 325.839 75.2081 324.281 76.1101C322.764 76.9711 320.755 77.3196 318.254 77.1556V91.0546Z" fill="#F1F2FB"></path> <path d="M408.102 91.0546H425.322L430.918 72.6046H464.251L469.971 91.0546H487.191L460.131 2.4946H435.162L408.102 91.0546ZM435.654 56.9836L447.462 18.1771L459.454 56.9836H435.654Z" fill="#F1F2FB"></path> <path d="M533.819 92.8996C543.987 92.8996 552.515 90.3781 559.403 85.3351C566.332 80.2921 571.211 73.4656 574.04 64.8556L557.189 60.1816C555.549 65.5116 552.781 69.6731 548.886 72.6661C544.991 75.6591 539.969 77.1556 533.819 77.1556C525.414 77.1556 519.079 74.4086 514.815 68.9146C510.592 63.3796 508.481 55.9996 508.481 46.7746C508.481 37.5496 510.592 30.1901 514.815 24.6961C519.079 19.1611 525.414 16.3936 533.819 16.3936C539.969 16.3936 544.991 17.8901 548.886 20.8831C552.781 23.8351 555.549 27.9966 557.189 33.3676L574.04 28.6936C571.211 20.0836 566.332 13.2571 559.403 8.21409C552.515 3.17109 543.987 0.649597 533.819 0.649597C524.963 0.649597 517.316 2.5766 510.879 6.4306C504.483 10.2846 499.543 15.6761 496.058 22.6051C492.614 29.5341 490.892 37.5906 490.892 46.7746C490.892 55.9586 492.614 64.0151 496.058 70.9441C499.543 77.8731 504.483 83.2646 510.879 87.1186C517.316 90.9726 524.963 92.8996 533.819 92.8996Z" fill="#F1F2FB"></path> <path d="M625.588 92.8996C635.756 92.8996 644.284 90.3781 651.172 85.3351C658.101 80.2921 662.98 73.4656 665.809 64.8556L648.958 60.1816C647.318 65.5116 644.551 69.6731 640.656 72.6661C636.761 75.6591 631.738 77.1556 625.588 77.1556C617.183 77.1556 610.849 74.4086 606.585 68.9146C602.362 63.3796 600.25 55.9996 600.25 46.7746C600.25 37.5496 602.362 30.1901 606.585 24.6961C610.849 19.1611 617.183 16.3936 625.588 16.3936C631.738 16.3936 636.761 17.8901 640.656 20.8831C644.551 23.8351 647.318 27.9966 648.958 33.3676L665.809 28.6936C662.98 20.0836 658.101 13.2571 651.172 8.21409C644.284 3.17109 635.756 0.649597 625.588 0.649597C616.732 0.649597 609.086 2.5766 602.649 6.4306C596.253 10.2846 591.312 15.6761 587.827 22.6051C584.383 29.5341 582.661 37.5906 582.661 46.7746C582.661 55.9586 584.383 64.0151 587.827 70.9441C591.312 77.8731 596.253 83.2646 602.649 87.1186C609.086 90.9726 616.732 92.8996 625.588 92.8996Z" fill="#F1F2FB"></path> <path d="M679.228 91.0546H716.62C717.481 91.0546 718.629 91.0136 720.064 90.9316C721.54 90.8496 722.852 90.7266 724 90.5626C731.954 89.3326 737.755 86.0936 741.404 80.8456C745.053 75.5566 746.878 69.2016 746.878 61.7806C746.878 54.3186 745.033 47.9636 741.343 42.7156C737.653 37.4676 731.872 34.2286 724 32.9986C722.852 32.7936 721.54 32.6706 720.064 32.6296C718.588 32.5476 717.44 32.5066 716.62 32.5066H695.956V2.4946H679.228V91.0546ZM695.956 75.4336V48.1276H715.882C716.743 48.1276 717.686 48.1686 718.711 48.2506C719.736 48.3326 720.679 48.4966 721.54 48.7426C723.795 49.3576 725.537 50.4031 726.767 51.8791C727.997 53.3141 728.838 54.9336 729.289 56.7376C729.781 58.5006 730.027 60.1816 730.027 61.7806C730.027 63.3796 729.781 65.0811 729.289 66.8851C728.838 68.6481 727.997 70.2676 726.767 71.7436C725.537 73.1786 723.795 74.2036 721.54 74.8186C720.679 75.0646 719.736 75.2286 718.711 75.3106C717.686 75.3926 716.743 75.4336 715.882 75.4336H695.956ZM755.734 91.0546H772.462V2.4946H755.734V91.0546Z" fill="#F1F2FB"></path> </svg> 