<?xml version="1.0" encoding="UTF-8"?> <svg xmlns="http://www.w3.org/2000/svg" width="218" height="88" viewBox="0 0 218 88" fill="none"> <path d="M15.2174 33.0185C18.3006 33.0185 20.927 32.3405 23.0966 30.9844C25.2662 29.6284 26.922 27.7514 28.0639 25.3534C29.2058 22.9411 29.7767 20.1435 29.7767 16.9604C29.7767 13.7773 29.2058 10.9868 28.0639 8.5888C26.922 6.17652 25.2662 4.29238 23.0966 2.93636C20.927 1.58035 18.3006 0.902344 15.2174 0.902344C12.1343 0.902344 9.5079 1.58035 7.33828 2.93636C5.16866 4.29238 3.50576 6.17652 2.34958 8.5888C1.20767 10.9868 0.636719 13.7773 0.636719 16.9604C0.636719 20.1435 1.20767 22.9411 2.34958 25.3534C3.50576 27.7514 5.16866 29.6284 7.33828 30.9844C9.5079 32.3405 12.1343 33.0185 15.2174 33.0185ZM15.2174 28.7577C11.9487 28.7292 9.48649 27.6372 7.83073 25.4819C6.18924 23.3265 5.37563 20.486 5.3899 16.9604C5.40418 14.6052 5.76816 12.5427 6.48185 10.7727C7.20982 8.98847 8.30176 7.60391 9.7577 6.61901C11.2136 5.61985 13.0335 5.13453 15.2174 5.16308C18.5004 5.17736 20.9555 6.26217 22.5827 8.41751C24.2099 10.5729 25.0236 13.4205 25.0236 16.9604C25.0236 19.3156 24.6596 21.3853 23.9316 23.1695C23.2179 24.9395 22.1331 26.3169 20.6772 27.3018C19.2212 28.2867 17.4013 28.772 15.2174 28.7577Z" fill="#F1F2FB"></path> <path d="M34.0475 32.3761H46.5086C46.8083 32.3761 47.1794 32.369 47.6219 32.3547C48.0644 32.3262 48.4855 32.2834 48.8852 32.2263C50.5695 32.0264 51.9826 31.484 53.1245 30.599C54.2807 29.7141 55.1514 28.5936 55.7366 27.2376C56.3218 25.8673 56.6144 24.3828 56.6144 22.7841C56.6144 21.1712 56.3147 19.6867 55.7152 18.3307C55.13 16.9747 54.2593 15.8542 53.1031 14.9692C51.9612 14.0842 50.5552 13.5418 48.8852 13.342C48.4855 13.2849 48.0573 13.2492 47.6005 13.2349C47.158 13.2064 46.794 13.1921 46.5086 13.1921H38.5224V5.76258H54.1522V1.54467H34.0475V32.3761ZM38.5224 28.1582V17.41H46.3373C46.6228 17.41 46.9368 17.4243 47.2794 17.4529C47.6362 17.4671 47.9716 17.5099 48.2857 17.5813C49.6559 17.8668 50.6266 18.5234 51.1975 19.5511C51.7685 20.5645 52.054 21.6422 52.054 22.7841C52.054 23.9118 51.7685 24.9894 51.1975 26.0171C50.6266 27.0449 49.6559 27.7015 48.2857 27.9869C47.9716 28.044 47.6362 28.0869 47.2794 28.1154C46.9368 28.1439 46.6228 28.1582 46.3373 28.1582H38.5224Z" fill="#F1F2FB"></path> <path d="M60.8946 32.3761H65.3694V21.3068H73.3556C73.6411 21.3068 74.0051 21.2925 74.4476 21.264C74.9043 21.2354 75.3326 21.1926 75.7322 21.1355C78.3015 20.7216 80.2285 19.6225 81.5131 17.8382C82.812 16.054 83.4615 13.9129 83.4615 11.415C83.4615 8.9171 82.8192 6.77602 81.5345 4.9918C80.2499 3.20757 78.3158 2.11562 75.7322 1.71595C75.3326 1.64458 74.9115 1.60176 74.469 1.58749C74.0265 1.55894 73.6554 1.54467 73.3556 1.54467H60.8946V32.3761ZM65.3694 17.0675V5.76258H73.1843C73.4698 5.76258 73.7839 5.77686 74.1264 5.8054C74.4833 5.83395 74.8187 5.89105 75.1327 5.97669C76.503 6.29071 77.4736 6.99013 78.0446 8.07494C78.6155 9.15975 78.901 10.2731 78.901 11.415C78.901 12.5427 78.6155 13.656 78.0446 14.7551C77.4736 15.8399 76.503 16.5465 75.1327 16.8748C74.8187 16.9461 74.4833 16.9961 74.1264 17.0246C73.7839 17.0532 73.4698 17.0675 73.1843 17.0675H65.3694Z" fill="#F1F2FB"></path> <path d="M83.886 32.3761H88.5322L90.7803 25.4176H103.434L105.725 32.3761H110.371L100.351 1.54467H93.9063L83.886 32.3761ZM92.1506 21.2211L97.0751 6.01951L102.064 21.2211H92.1506Z" fill="#F1F2FB"></path> <path d="M119.348 32.3761H123.823V5.76258H134.079V1.54467H109.092V5.76258H119.348V32.3761Z" fill="#F1F2FB"></path> <path d="M137.505 32.3761H141.98V19.0587H157.395V32.3761H161.892V1.54467H157.395V14.8407H141.98V1.54467H137.505V32.3761Z" fill="#F1F2FB"></path> <path d="M165.765 32.3761H170.412L172.66 25.4176H185.313L187.604 32.3761H192.25L182.23 1.54467H175.786L165.765 32.3761ZM174.03 21.2211L178.954 6.01951L183.943 21.2211H174.03Z" fill="#F1F2FB"></path> <path d="M217.952 32.3761H213.477V21.3068H205.298L199.924 32.3761H194.807L200.631 20.4289C198.875 19.6724 197.562 18.4948 196.691 16.8962C195.821 15.2975 195.385 13.4705 195.385 11.415C195.385 8.9171 196.027 6.77602 197.312 4.9918C198.597 3.20757 200.531 2.11562 203.114 1.71595C203.514 1.64458 203.935 1.60176 204.378 1.58749C204.82 1.55894 205.191 1.54467 205.491 1.54467H217.952V32.3761ZM213.477 17.0675V5.76258H205.662C205.377 5.76258 205.056 5.77686 204.699 5.8054C204.356 5.83395 204.028 5.89105 203.714 5.97669C202.344 6.29071 201.373 6.99013 200.802 8.07494C200.231 9.15975 199.946 10.2731 199.946 11.415C199.946 12.5427 200.231 13.656 200.802 14.7551C201.373 15.8399 202.344 16.5465 203.714 16.8748C204.028 16.9461 204.356 16.9961 204.699 17.0246C205.056 17.0532 205.377 17.0675 205.662 17.0675H213.477Z" fill="#F1F2FB"></path> <path d="M15.2174 87.3598C18.7716 87.3598 21.712 86.4605 24.0387 84.662C26.3796 82.8635 28.0068 80.4441 28.9203 77.4038L24.3812 76.1834C23.7675 78.3387 22.6969 80.0302 21.1696 81.2577C19.6423 82.4853 17.6583 83.099 15.2174 83.099C13.0335 83.099 11.2065 82.6066 9.73628 81.6217C8.28035 80.6368 7.18127 79.2594 6.43903 77.4894C5.71107 75.7195 5.35422 73.6569 5.36849 71.3017C5.38277 68.9465 5.75389 66.884 6.48185 65.114C7.20982 63.3441 8.30176 61.9666 9.7577 60.9817C11.2136 59.9968 13.0335 59.5044 15.2174 59.5044C17.6583 59.5044 19.6423 60.1182 21.1696 61.3457C22.6969 62.5733 23.7675 64.2647 24.3812 66.4201L28.9203 65.1997C28.0068 62.1593 26.3796 59.7399 24.0387 57.9414C21.712 56.1429 18.7716 55.2437 15.2174 55.2437C12.1343 55.2437 9.5079 55.9217 7.33828 57.2777C5.16866 58.6337 3.50576 60.5178 2.34958 62.9301C1.20767 65.3281 0.636719 68.1187 0.636719 71.3017C0.636719 74.4848 1.20767 77.2825 2.34958 79.6947C3.50576 82.0927 5.16866 83.9698 7.33828 85.3258C9.5079 86.6818 12.1343 87.3598 15.2174 87.3598Z" fill="#F1F2FB"></path> <path d="M33.6293 86.7175H46.904C49.8444 86.7175 52.1139 85.8967 53.7126 84.2552C55.3256 82.6137 56.132 80.437 56.132 77.7249C56.132 76.0835 55.7252 74.6204 54.9116 73.3357C54.098 72.0511 52.9276 71.0805 51.4003 70.4239C52.4137 69.8387 53.213 69.0036 53.7983 67.9188C54.3835 66.834 54.6761 65.5851 54.6761 64.1719C54.6761 62.7731 54.3407 61.4456 53.6698 60.1895C52.9989 58.9192 51.9998 57.8843 50.6723 57.085C49.3591 56.2857 47.7176 55.886 45.7478 55.886H33.6293V86.7175ZM38.1684 68.4755V60.1039H45.6836C47.0253 60.1039 48.0959 60.4893 48.8952 61.2601C49.6945 62.0309 50.0942 63.0158 50.0942 64.2148C50.0942 65.5565 49.666 66.6056 48.8096 67.3621C47.9674 68.1044 46.9254 68.4755 45.6836 68.4755H38.1684ZM38.1684 82.4567V72.6934H46.4972C48.0388 72.6934 49.2663 73.1716 50.1798 74.1279C51.0934 75.07 51.5501 76.2405 51.5501 77.6393C51.5501 79.1381 51.0434 80.3156 50.03 81.1721C49.0165 82.0285 47.7462 82.4567 46.2189 82.4567H38.1684Z" fill="#F1F2FB"></path> <path d="M82.2531 86.7175H77.7783V75.6481H69.5994L64.2253 86.7175H59.1081L64.9318 74.7703C63.1762 74.0137 61.863 72.8362 60.9923 71.2375C60.1216 69.6388 59.6862 67.8118 59.6862 65.7563C59.6862 63.2584 60.3285 61.1173 61.6132 59.3331C62.8978 57.5489 64.8319 56.4569 67.4155 56.0573C67.8152 55.9859 68.2362 55.9431 68.6787 55.9288C69.1212 55.9003 69.4923 55.886 69.7921 55.886H82.2531V86.7175ZM77.7783 71.4088V60.1039H69.9634C69.6779 60.1039 69.3567 60.1182 68.9999 60.1467C68.6573 60.1753 68.329 60.2324 68.015 60.318C66.6447 60.632 65.6741 61.3314 65.1031 62.4163C64.5322 63.5011 64.2467 64.6144 64.2467 65.7563C64.2467 66.884 64.5322 67.9973 65.1031 69.0964C65.6741 70.1812 66.6447 70.8878 68.015 71.2161C68.329 71.2875 68.6573 71.3374 68.9999 71.366C69.3567 71.3945 69.6779 71.4088 69.9634 71.4088H77.7783Z" fill="#F1F2FB"></path> <path d="M98.799 87.3598C101.097 87.3598 103.138 86.9673 104.922 86.1822C106.721 85.3971 108.134 84.2909 109.162 82.8635C110.204 81.4219 110.725 79.7161 110.725 77.7464C110.725 75.9907 110.325 74.549 109.526 73.4214C108.726 72.2795 107.62 71.4445 106.207 70.9163C107.221 70.2026 108.027 69.2392 108.626 68.0259C109.24 66.8126 109.547 65.4566 109.547 63.9578C109.547 61.9738 109.048 60.3394 108.048 59.0548C107.049 57.7701 105.757 56.8138 104.173 56.1857C102.589 55.5577 100.911 55.2437 99.1415 55.2437C96.8006 55.2437 94.7381 55.7218 92.9538 56.6782C91.1696 57.6345 89.7636 58.8264 88.7359 60.2538L92.0332 63.3583C92.6755 62.2593 93.589 61.3386 94.7737 60.5964C95.9585 59.8398 97.3716 59.4616 99.0131 59.4616C100.74 59.4616 102.132 59.8755 103.188 60.7034C104.259 61.5313 104.794 62.6661 104.794 64.1077C104.794 65.5494 104.244 66.6627 103.145 67.4478C102.061 68.2328 100.633 68.6682 98.8632 68.7538C98.6063 68.7681 98.2566 68.7824 97.8141 68.7967C97.3859 68.7967 96.9719 68.7967 96.5722 68.7967C96.1869 68.7967 95.9156 68.7967 95.7586 68.7967V73.036C95.8871 73.036 96.0227 73.036 96.1654 73.036C96.3225 73.036 96.6222 73.0431 97.0647 73.0574C97.5072 73.0717 98.228 73.1002 99.2272 73.1431C100.426 73.1716 101.54 73.3215 102.567 73.5927C103.595 73.8496 104.416 74.3064 105.029 74.963C105.658 75.6053 105.972 76.5259 105.972 77.7249C105.972 79.238 105.401 80.5155 104.259 81.5575C103.117 82.5852 101.361 83.099 98.9917 83.099C97.4073 83.099 96.0584 82.8707 94.945 82.4139C93.8459 81.9429 92.9467 81.3362 92.2473 80.594C91.5621 79.8517 91.0483 79.0595 90.7057 78.2174L86.8089 80.7439C87.3656 81.8858 88.1721 82.9634 89.2284 83.9769C90.2846 84.9761 91.605 85.7897 93.1893 86.4177C94.788 87.0458 96.6579 87.3598 98.799 87.3598Z" fill="#F1F2FB"></path> <path d="M115.278 86.7175H127.739C128.039 86.7175 128.403 86.7032 128.831 86.6746C129.274 86.6461 129.695 86.6033 130.094 86.5462C132.692 86.1465 134.634 85.0546 135.918 83.2703C137.203 81.4861 137.845 79.345 137.845 76.8471C137.845 74.3349 137.196 72.1867 135.897 70.4025C134.598 68.6182 132.664 67.5263 130.094 67.1266C129.695 67.0553 129.274 67.0124 128.831 66.9982C128.389 66.9696 128.025 66.9553 127.739 66.9553H119.753V55.886H115.278V86.7175ZM119.753 82.4995V71.1947H127.568C127.853 71.1947 128.167 71.2089 128.51 71.2375C128.853 71.266 129.181 71.316 129.495 71.3874C130.88 71.7157 131.857 72.4222 132.428 73.507C132.999 74.5918 133.285 75.7052 133.285 76.8471C133.285 77.9747 132.999 79.081 132.428 80.1658C131.857 81.2506 130.88 81.9571 129.495 82.2854C129.181 82.3711 128.853 82.4282 128.51 82.4567C128.167 82.4853 127.853 82.4995 127.568 82.4995H119.753Z" fill="#F1F2FB"></path> </svg> 