<?xml version="1.0" encoding="UTF-8"?> <svg xmlns="http://www.w3.org/2000/svg" width="25" height="25" viewBox="0 0 25 25" fill="none"> <path fill-rule="evenodd" clip-rule="evenodd" d="M16.4005 18.9928L19.5073 9.52678C17.5655 9.33018 16.1092 7.85202 13.6675 7.15542L13.9951 10.0438L13.0874 11.0001L13.2282 18.102L14.1214 18.869L14.5413 21.3156C15.4636 21.9103 16.5971 22.3011 18.1116 22.7161L18.1481 23.6166H6.92476L7.01942 22.7428C8.52913 22.3884 9.64806 22.0268 10.5267 21.4515L10.6626 18.9224L11.585 18.1603L11.5558 11.0486L10.6675 9.91998L11.0291 6.79134C8.58495 6.79134 7.06796 7.73309 5.15534 7.59474L8.37136 16.9467C5.53398 18.8642 2.85194 18.8666 0 16.9467L3.4466 7.20396C2.70888 6.89471 2.0106 6.49872 1.36651 6.02435L2.00971 5.18212C6.23058 7.63843 6.34951 4.18697 12.4806 4.9394C18.6116 5.69183 18.5267 9.45639 22.4005 7.72338L22.8859 8.63358C22.4057 8.91542 21.8962 9.14411 21.3665 9.31561L24.7646 18.9807C21.9199 20.9127 19.2379 20.9103 16.4005 18.9928ZM4.25243 7.74765L1.49029 15.7574L6.92233 15.7865L4.25243 7.74765ZM20.5267 9.81561L17.8568 17.8375L23.2888 17.8083L20.5267 9.81561ZM12.3252 4.03163C10.5218 4.03163 10.6019 1.45639 12.2961 1.45639C13.9903 1.45639 13.9733 4.03163 12.3252 4.03163Z" fill="#5B6CFF"></path> </svg> 