<?xml version="1.0" encoding="UTF-8"?> <svg xmlns="http://www.w3.org/2000/svg" width="25" height="25" viewBox="0 0 25 25" fill="none"> <path d="M4.86141 3.81669C3.27823 3.84119 2.48663 3.85344 1.93549 4.26412C1.75744 4.3968 1.60125 4.55654 1.4726 4.73753C1.07439 5.29776 1.07992 6.08943 1.09098 7.67277L1.17087 19.1088C1.18194 20.6943 1.18748 21.4871 1.59422 22.042C1.72562 22.2213 1.8843 22.3789 2.06449 22.509C2.62225 22.9119 3.41502 22.9119 5.00056 22.9119H20.0007C21.5823 22.9119 22.3732 22.9119 22.9303 22.5103C23.1103 22.3806 23.269 22.2235 23.4004 22.0448C23.8073 21.4915 23.815 20.7007 23.8303 19.1191L23.9431 7.44796C23.9589 5.81561 23.9668 4.99944 23.5533 4.43072C23.4199 4.24724 23.258 4.08628 23.0737 3.95393C22.5026 3.54371 21.6865 3.55634 20.0543 3.5816L4.86141 3.81669ZM2.78074 10.2287C2.7649 9.26503 2.75698 8.78321 2.99743 8.44269C3.07506 8.33274 3.16959 8.23577 3.27752 8.15535C3.61179 7.90629 4.09366 7.9019 5.05739 7.89313L19.8668 7.7583C20.8444 7.7494 21.3332 7.74495 21.6741 7.99264C21.784 8.07256 21.8805 8.16952 21.9599 8.27988C22.2059 8.6219 22.1991 9.11067 22.1854 10.0882L22.0624 18.8833C22.0492 19.8285 22.0426 20.3011 21.7983 20.6315C21.7194 20.7382 21.6243 20.832 21.5165 20.9094C21.1827 21.149 20.7101 21.149 19.7648 21.149H5.22066C4.27747 21.149 3.80588 21.149 3.47248 20.9101C3.36473 20.8329 3.26966 20.7394 3.1907 20.633C2.94635 20.3035 2.9386 19.832 2.9231 18.8889L2.78074 10.2287Z" fill="#5B6CFF"></path> <path d="M9.57215 18.9681L13.6691 9.49981L15.3374 9.70119L11.3318 19.0731L9.57215 18.9681Z" fill="#5B6CFF"></path> <path d="M4.30692 13.7975L7.6596 10.3277L8.91045 11.5612L6.61651 13.9353L8.61182 16.5654L7.22314 17.6414L4.30692 13.7975Z" fill="#5B6CFF"></path> <path d="M16.3891 12.0075L17.7778 10.9315L20.694 14.7754L17.3414 18.2452L16.0905 17.0117L18.3844 14.6376L16.3891 12.0075Z" fill="#5B6CFF"></path> </svg> 