<?xml version="1.0" encoding="UTF-8"?> <svg xmlns="http://www.w3.org/2000/svg" width="351" height="52" viewBox="0 0 351 52" fill="none"> <path d="M0.751953 50H7.85795V7.73802H32.576V50H39.682V1.04002H0.751953V50Z" fill="url(#paint0_linear_154_1655)"></path> <path d="M49.2285 50H56.3345V32.422H69.0165C69.4699 32.422 70.0479 32.3994 70.7505 32.354C71.4759 32.3087 72.1559 32.2407 72.7905 32.15C76.8705 31.4927 79.9305 29.7474 81.9705 26.914C84.0332 24.0807 85.0645 20.6807 85.0645 16.714C85.0645 12.7474 84.0445 9.34735 82.0045 6.51402C79.9645 3.68069 76.8932 1.94669 72.7905 1.31202C72.1559 1.19869 71.4872 1.13069 70.7845 1.10802C70.0818 1.06268 69.4925 1.04002 69.0165 1.04002H49.2285V50ZM56.3345 25.69V7.73802H68.7445C69.1978 7.73802 69.6965 7.76069 70.2405 7.80602C70.8072 7.85135 71.3398 7.94202 71.8385 8.07802C74.0145 8.57668 75.5558 9.68735 76.4625 11.41C77.3692 13.1327 77.8225 14.9007 77.8225 16.714C77.8225 18.5047 77.3692 20.2727 76.4625 22.018C75.5558 23.7407 74.0145 24.8627 71.8385 25.384C71.3398 25.4974 70.8072 25.5767 70.2405 25.622C69.6965 25.6674 69.1978 25.69 68.7445 25.69H56.3345Z" fill="url(#paint1_linear_154_1655)"></path> <path d="M112.295 51.02C117.191 51.02 121.362 49.9434 124.807 47.79C128.253 45.6367 130.882 42.656 132.695 38.848C134.509 35.0174 135.415 30.5747 135.415 25.52C135.415 20.4654 134.509 16.034 132.695 12.226C130.882 8.39535 128.253 5.40335 124.807 3.25002C121.362 1.09669 117.191 0.0200195 112.295 0.0200195C107.399 0.0200195 103.229 1.09669 99.7833 3.25002C96.338 5.40335 93.6973 8.39535 91.8613 12.226C90.048 16.034 89.1413 20.4654 89.1413 25.52C89.1413 30.5747 90.048 35.0174 91.8613 38.848C93.6973 42.656 96.338 45.6367 99.7833 47.79C103.229 49.9434 107.399 51.02 112.295 51.02ZM112.295 44.254C107.105 44.2087 103.195 42.4747 100.565 39.052C97.9587 35.6294 96.6667 31.1187 96.6893 25.52C96.712 21.78 97.29 18.5047 98.4233 15.694C99.5793 12.8607 101.313 10.662 103.625 9.09802C105.937 7.51135 108.827 6.74069 112.295 6.78602C117.509 6.80868 121.407 8.53135 123.991 11.954C126.575 15.3767 127.867 19.8987 127.867 25.52C127.867 29.26 127.289 32.5467 126.133 35.38C125 38.1907 123.277 40.378 120.965 41.942C118.653 43.506 115.763 44.2767 112.295 44.254Z" fill="url(#paint2_linear_154_1655)"></path> <path d="M142.197 50H149.303V7.73802H173.477V1.04002H142.197V50Z" fill="url(#paint3_linear_154_1655)"></path> <path d="M178.92 50H186.026V32.422H198.708C199.161 32.422 199.739 32.3994 200.442 32.354C201.167 32.3087 201.847 32.2407 202.482 32.15C206.562 31.4927 209.622 29.7474 211.662 26.914C213.725 24.0807 214.756 20.6807 214.756 16.714C214.756 12.7474 213.736 9.34735 211.696 6.51402C209.656 3.68069 206.585 1.94669 202.482 1.31202C201.847 1.19869 201.179 1.13069 200.476 1.10802C199.773 1.06268 199.184 1.04002 198.708 1.04002H178.92V50ZM186.026 25.69V7.73802H198.436C198.889 7.73802 199.388 7.76069 199.932 7.80602C200.499 7.85135 201.031 7.94202 201.53 8.07802C203.706 8.57668 205.247 9.68735 206.154 11.41C207.061 13.1327 207.514 14.9007 207.514 16.714C207.514 18.5047 207.061 20.2727 206.154 22.018C205.247 23.7407 203.706 24.8627 201.53 25.384C201.031 25.4974 200.499 25.5767 199.932 25.622C199.388 25.6674 198.889 25.69 198.436 25.69H186.026Z" fill="url(#paint4_linear_154_1655)"></path> <path d="M221.553 50H252.833V43.302H228.659V28.172H248.753V21.474H228.659V7.73802H252.833V1.04002H221.553V50Z" fill="url(#paint5_linear_154_1655)"></path> <path d="M279.373 51.02C285.017 51.02 289.687 49.592 293.381 46.736C297.099 43.88 299.683 40.038 301.133 35.21L293.925 33.272C292.951 36.6947 291.251 39.3807 288.825 41.33C286.4 43.2794 283.249 44.254 279.373 44.254C275.905 44.254 273.004 43.472 270.669 41.908C268.357 40.344 266.612 38.1567 265.433 35.346C264.277 32.5354 263.711 29.26 263.733 25.52C263.756 21.78 264.345 18.5047 265.501 15.694C266.657 12.8834 268.391 10.696 270.703 9.13202C273.015 7.56802 275.905 6.78602 279.373 6.78602C283.249 6.78602 286.4 7.76069 288.825 9.71002C291.251 11.6594 292.951 14.3454 293.925 17.768L301.133 15.83C299.683 11.002 297.099 7.16002 293.381 4.30402C289.687 1.44802 285.017 0.0200195 279.373 0.0200195C274.477 0.0200195 270.307 1.09669 266.861 3.25002C263.416 5.40335 260.775 8.39535 258.939 12.226C257.126 16.034 256.219 20.4654 256.219 25.52C256.219 30.5747 257.126 35.0174 258.939 38.848C260.775 42.656 263.416 45.6367 266.861 47.79C270.307 49.9434 274.477 51.02 279.373 51.02Z" fill="url(#paint6_linear_154_1655)"></path> <path d="M329.045 51.02C334.689 51.02 339.359 49.592 343.053 46.736C346.771 43.88 349.355 40.038 350.805 35.21L343.597 33.272C342.623 36.6947 340.923 39.3807 338.497 41.33C336.072 43.2794 332.921 44.254 329.045 44.254C325.577 44.254 322.676 43.472 320.341 41.908C318.029 40.344 316.284 38.1567 315.105 35.346C313.949 32.5354 313.383 29.26 313.405 25.52C313.428 21.78 314.017 18.5047 315.173 15.694C316.329 12.8834 318.063 10.696 320.375 9.13202C322.687 7.56802 325.577 6.78602 329.045 6.78602C332.921 6.78602 336.072 7.76069 338.497 9.71002C340.923 11.6594 342.623 14.3454 343.597 17.768L350.805 15.83C349.355 11.002 346.771 7.16002 343.053 4.30402C339.359 1.44802 334.689 0.0200195 329.045 0.0200195C324.149 0.0200195 319.979 1.09669 316.533 3.25002C313.088 5.40335 310.447 8.39535 308.611 12.226C306.798 16.034 305.891 20.4654 305.891 25.52C305.891 30.5747 306.798 35.0174 308.611 38.848C310.447 42.656 313.088 45.6367 316.533 47.79C319.979 49.9434 324.149 51.02 329.045 51.02Z" fill="url(#paint7_linear_154_1655)"></path> <defs> <linearGradient id="paint0_linear_154_1655" x1="-4.00781" y1="-5.10105" x2="186.29" y2="216.519" gradientUnits="userSpaceOnUse"> <stop stop-color="#F2AE66"></stop> <stop offset="0.130208" stop-color="#E5755F"></stop> <stop offset="0.244792" stop-color="#C54D8B"></stop> <stop offset="0.328125" stop-color="#8951B9"></stop> <stop offset="0.416667" stop-color="#7061B4"></stop> <stop offset="0.473958" stop-color="#7061B4"></stop> <stop offset="0.583333" stop-color="#869272"></stop> <stop offset="0.739583" stop-color="#DD8A37"></stop> <stop offset="0.932292" stop-color="#EA4664"></stop> </linearGradient> <linearGradient id="paint1_linear_154_1655" x1="-4.00781" y1="-5.10105" x2="186.29" y2="216.519" gradientUnits="userSpaceOnUse"> <stop stop-color="#F2AE66"></stop> <stop offset="0.130208" stop-color="#E5755F"></stop> <stop offset="0.244792" stop-color="#C54D8B"></stop> <stop offset="0.328125" stop-color="#8951B9"></stop> <stop offset="0.416667" stop-color="#7061B4"></stop> <stop offset="0.473958" stop-color="#7061B4"></stop> <stop offset="0.583333" stop-color="#869272"></stop> <stop offset="0.739583" stop-color="#DD8A37"></stop> <stop offset="0.932292" stop-color="#EA4664"></stop> </linearGradient> <linearGradient id="paint2_linear_154_1655" x1="-4.00781" y1="-5.10105" x2="186.29" y2="216.519" gradientUnits="userSpaceOnUse"> <stop stop-color="#F2AE66"></stop> <stop offset="0.130208" stop-color="#E5755F"></stop> <stop offset="0.244792" stop-color="#C54D8B"></stop> <stop offset="0.328125" stop-color="#8951B9"></stop> <stop offset="0.416667" stop-color="#7061B4"></stop> <stop offset="0.473958" stop-color="#7061B4"></stop> <stop offset="0.583333" stop-color="#869272"></stop> <stop offset="0.739583" stop-color="#DD8A37"></stop> <stop offset="0.932292" stop-color="#EA4664"></stop> </linearGradient> <linearGradient id="paint3_linear_154_1655" x1="-4.00781" y1="-5.10105" x2="186.29" y2="216.519" gradientUnits="userSpaceOnUse"> <stop stop-color="#F2AE66"></stop> <stop offset="0.130208" stop-color="#E5755F"></stop> <stop offset="0.244792" stop-color="#C54D8B"></stop> <stop offset="0.328125" stop-color="#8951B9"></stop> <stop offset="0.416667" stop-color="#7061B4"></stop> <stop offset="0.473958" stop-color="#7061B4"></stop> <stop offset="0.583333" stop-color="#869272"></stop> <stop offset="0.739583" stop-color="#DD8A37"></stop> <stop offset="0.932292" stop-color="#EA4664"></stop> </linearGradient> <linearGradient id="paint4_linear_154_1655" x1="-4.00781" y1="-5.10105" x2="186.29" y2="216.519" gradientUnits="userSpaceOnUse"> <stop stop-color="#F2AE66"></stop> <stop offset="0.130208" stop-color="#E5755F"></stop> <stop offset="0.244792" stop-color="#C54D8B"></stop> <stop offset="0.328125" stop-color="#8951B9"></stop> <stop offset="0.416667" stop-color="#7061B4"></stop> <stop offset="0.473958" stop-color="#7061B4"></stop> <stop offset="0.583333" stop-color="#869272"></stop> <stop offset="0.739583" stop-color="#DD8A37"></stop> <stop offset="0.932292" stop-color="#EA4664"></stop> </linearGradient> <linearGradient id="paint5_linear_154_1655" x1="-4.00781" y1="-5.10105" x2="186.29" y2="216.519" gradientUnits="userSpaceOnUse"> <stop stop-color="#F2AE66"></stop> <stop offset="0.130208" stop-color="#E5755F"></stop> <stop offset="0.244792" stop-color="#C54D8B"></stop> <stop offset="0.328125" stop-color="#8951B9"></stop> <stop offset="0.416667" stop-color="#7061B4"></stop> <stop offset="0.473958" stop-color="#7061B4"></stop> <stop offset="0.583333" stop-color="#869272"></stop> <stop offset="0.739583" stop-color="#DD8A37"></stop> <stop offset="0.932292" stop-color="#EA4664"></stop> </linearGradient> <linearGradient id="paint6_linear_154_1655" x1="-4.00781" y1="-5.10105" x2="186.29" y2="216.519" gradientUnits="userSpaceOnUse"> <stop stop-color="#F2AE66"></stop> <stop offset="0.130208" stop-color="#E5755F"></stop> <stop offset="0.244792" stop-color="#C54D8B"></stop> <stop offset="0.328125" stop-color="#8951B9"></stop> <stop offset="0.416667" stop-color="#7061B4"></stop> <stop offset="0.473958" stop-color="#7061B4"></stop> <stop offset="0.583333" stop-color="#869272"></stop> <stop offset="0.739583" stop-color="#DD8A37"></stop> <stop offset="0.932292" stop-color="#EA4664"></stop> </linearGradient> <linearGradient id="paint7_linear_154_1655" x1="-4.00781" y1="-5.10105" x2="186.29" y2="216.519" gradientUnits="userSpaceOnUse"> <stop stop-color="#F2AE66"></stop> <stop offset="0.130208" stop-color="#E5755F"></stop> <stop offset="0.244792" stop-color="#C54D8B"></stop> <stop offset="0.328125" stop-color="#8951B9"></stop> <stop offset="0.416667" stop-color="#7061B4"></stop> <stop offset="0.473958" stop-color="#7061B4"></stop> <stop offset="0.583333" stop-color="#869272"></stop> <stop offset="0.739583" stop-color="#DD8A37"></stop> <stop offset="0.932292" stop-color="#EA4664"></stop> </linearGradient> </defs> </svg> 