<?xml version="1.0" encoding="UTF-8"?> <svg xmlns="http://www.w3.org/2000/svg" width="25" height="25" viewBox="0 0 25 25" fill="none"> <path fill-rule="evenodd" clip-rule="evenodd" d="M23.0536 5.04017C22.9487 6.02465 21.3513 17.437 20.8789 22.6287C20.722 24.3517 19.1605 25.0091 16.957 24.7744C14.7539 24.5399 6.77687 23.4405 4.67572 23.2166C2.57515 22.9928 1.86825 21.6991 2.03521 20.0014C2.56308 14.6238 4.09756 3.70713 4.24067 2.59563C4.48722 0.679252 5.35331 -0.153795 7.0148 0.0232167C8.35475 0.16632 19.0892 1.43414 20.8022 1.65396C22.7562 1.90483 23.2435 3.26 23.0536 5.04017ZM6.39555 2.52552L6.09526 5.01776L6.9763 5.13184C7.20389 4.26661 7.66509 3.69247 8.67055 3.81574C9.95245 3.97322 10.099 5.05569 9.94325 6.32408C9.7875 7.59247 9.41279 8.56948 8.10647 8.40914C7.09728 8.285 6.79641 7.61201 6.78291 6.72781L5.90044 6.63126L5.3898 10.868L6.25848 10.9804C6.48636 10.1163 6.94756 9.54304 7.95245 9.66661C9.23434 9.82408 9.3809 10.9063 9.22515 12.1747C9.0694 13.4433 8.69498 14.4201 7.38866 14.2597C6.41883 14.1407 6.10245 13.5149 6.0671 12.6821L5.18233 12.591L4.68463 16.7203L5.54067 16.8313C5.76854 15.9675 6.22946 15.3942 7.23463 15.5175C8.51653 15.6747 8.66308 16.7571 8.50733 18.0255C8.35159 19.2942 7.97716 20.2709 6.67055 20.1106C5.70072 19.9913 5.38435 19.3657 5.349 18.5327L4.47716 18.443L4.17141 20.9813L18.6274 22.7304L18.9683 19.9336L17.4763 19.7801L17.6183 18.3956L19.1318 18.5916L19.6815 14.0824L14.2318 13.5221L14.3843 12.0333L19.845 12.7402L20.3958 8.21891L18.7128 8.03471L18.8591 6.67063L20.5576 6.89075L20.8832 4.22034L6.39555 2.52552ZM16.2036 9.3827C15.1616 9.25483 14.8743 8.54161 14.8792 7.61488L10.8332 7.17178L10.9961 5.65253L15.0539 6.1781C15.2749 5.27235 15.7338 4.66287 16.7677 4.7896C18.0496 4.94707 18.1958 6.02925 18.0404 7.29764C17.8846 8.56632 17.5102 9.54333 16.2036 9.3827ZM11.9978 10.1841C13.2797 10.3416 13.4263 11.4238 13.2703 12.6925C13.1145 13.9609 12.7404 14.9379 11.4338 14.7775C10.1274 14.6172 10.0056 13.5379 10.1614 12.2695C10.3171 11.0011 10.716 10.0267 11.9978 10.1841ZM11.2467 16.031C12.5286 16.1882 12.6751 17.2706 12.5194 18.539C12.3637 19.8074 11.9892 20.7844 10.6829 20.6241C9.37659 20.4637 9.25446 19.3844 9.41021 18.116C9.56595 16.8476 9.9648 15.8732 11.2467 16.031ZM15.2591 16.5439C16.541 16.7014 16.6875 17.7836 16.5318 19.0522C16.376 20.3206 16.0019 21.2976 14.695 21.1373C13.3887 20.977 13.2668 19.8979 13.4226 18.6293C13.5783 17.3606 13.9774 16.3864 15.2591 16.5439Z" fill="#5B6CFF"></path> </svg> 