<?xml version="1.0" encoding="UTF-8"?> <svg xmlns="http://www.w3.org/2000/svg" width="217" height="87" viewBox="0 0 217 87" fill="none"> <path d="M0.847656 31.8244H5.49379L7.74192 24.8659H20.3957L22.6866 31.8244H27.3328L17.3125 0.992908H10.8679L0.847656 31.8244ZM9.1122 20.6694L14.0367 5.46775L19.0254 20.6694H9.1122Z" fill="#F1F2FB"></path> <path d="M31.174 31.8244H44.4486C47.389 31.8244 49.6586 31.0036 51.2573 29.3621C52.8702 27.7207 53.6767 25.5439 53.6767 22.8319C53.6767 21.1904 53.2699 19.7273 52.4563 18.4427C51.6426 17.158 50.4722 16.1874 48.9449 15.5308C49.9583 14.9456 50.7577 14.1106 51.3429 13.0257C51.9281 11.9409 52.2207 10.692 52.2207 9.27886C52.2207 7.88003 51.8853 6.55256 51.2144 5.29647C50.5436 4.0261 49.5444 2.99124 48.2169 2.19191C46.9037 1.39257 45.2622 0.992908 43.2925 0.992908H31.174V31.8244ZM35.7131 13.5824V5.21082H43.2282C44.57 5.21082 45.6405 5.59622 46.4398 6.36701C47.2392 7.13779 47.6388 8.12269 47.6388 9.32169C47.6388 10.6634 47.2106 11.7126 46.3542 12.4691C45.512 13.2113 44.47 13.5824 43.2282 13.5824H35.7131ZM35.7131 27.5636V17.8003H44.0418C45.5834 17.8003 46.811 18.2785 47.7245 19.2349C48.638 20.1769 49.0948 21.3474 49.0948 22.7462C49.0948 24.245 48.588 25.4226 47.5746 26.279C46.5612 27.1354 45.2908 27.5636 43.7635 27.5636H35.7131Z" fill="#F1F2FB"></path> <path d="M64.7875 31.8244H69.2623V5.21082H79.5181V0.992908H54.5318V5.21082H64.7875V31.8244Z" fill="#F1F2FB"></path> <path d="M95.8123 32.4667C98.8955 32.4667 101.522 31.7887 103.691 30.4327C105.861 29.0767 107.517 27.1997 108.659 24.8017C109.801 22.3894 110.372 19.5917 110.372 16.4086C110.372 13.2256 109.801 10.435 108.659 8.03704C107.517 5.62476 105.861 3.74062 103.691 2.3846C101.522 1.02859 98.8955 0.350586 95.8123 0.350586C92.7292 0.350586 90.1028 1.02859 87.9332 2.3846C85.7636 3.74062 84.1007 5.62476 82.9445 8.03704C81.8026 10.435 81.2316 13.2256 81.2316 16.4086C81.2316 19.5917 81.8026 22.3894 82.9445 24.8017C84.1007 27.1997 85.7636 29.0767 87.9332 30.4327C90.1028 31.7887 92.7292 32.4667 95.8123 32.4667ZM95.8123 28.206C92.5436 28.1774 90.0814 27.0855 88.4256 24.9301C86.7841 22.7748 85.9705 19.9343 85.9848 16.4086C85.9991 14.0535 86.3631 11.9909 87.0768 10.2209C87.8047 8.43671 88.8967 7.05215 90.3526 6.06725C91.8085 5.06809 93.6284 4.58278 95.8123 4.61132C99.0953 4.6256 101.55 5.71041 103.178 7.86576C104.805 10.0211 105.618 12.8687 105.618 16.4086C105.618 18.7638 105.254 20.8335 104.527 22.6178C103.813 24.3877 102.728 25.7651 101.272 26.75C99.8162 27.7349 97.9962 28.2202 95.8123 28.206Z" fill="#F1F2FB"></path> <path d="M114.642 31.8244H119.117V5.21082H134.683V31.8244H139.158V0.992908H114.642V31.8244Z" fill="#F1F2FB"></path> <path d="M145.169 31.8244H149.644V20.755H157.631C157.916 20.755 158.28 20.7408 158.722 20.7122C159.179 20.6837 159.607 20.6408 160.007 20.5837C162.576 20.1698 164.503 19.0707 165.788 17.2865C167.087 15.5023 167.736 13.3612 167.736 10.8633C167.736 8.36534 167.094 6.22427 165.809 4.44004C164.525 2.65581 162.591 1.56386 160.007 1.16419C159.607 1.09282 159.186 1.05 158.744 1.03573C158.301 1.00718 157.93 0.992908 157.631 0.992908H145.169V31.8244ZM149.644 16.5157V5.21082H157.459C157.745 5.21082 158.059 5.2251 158.401 5.25365C158.758 5.28219 159.094 5.33929 159.408 5.42493C160.778 5.73896 161.749 6.43837 162.319 7.52318C162.89 8.608 163.176 9.72136 163.176 10.8633C163.176 11.9909 162.89 13.1043 162.319 14.2033C161.749 15.2881 160.778 15.9947 159.408 16.323C159.094 16.3944 158.758 16.4443 158.401 16.4729C158.059 16.5014 157.745 16.5157 157.459 16.5157H149.644Z" fill="#F1F2FB"></path> <path d="M184.884 32.4667C187.968 32.4667 190.594 31.7887 192.764 30.4327C194.933 29.0767 196.589 27.1997 197.731 24.8017C198.873 22.3894 199.444 19.5917 199.444 16.4086C199.444 13.2256 198.873 10.435 197.731 8.03704C196.589 5.62476 194.933 3.74062 192.764 2.3846C190.594 1.02859 187.968 0.350586 184.884 0.350586C181.801 0.350586 179.175 1.02859 177.005 2.3846C174.836 3.74062 173.173 5.62476 172.017 8.03704C170.875 10.435 170.304 13.2256 170.304 16.4086C170.304 19.5917 170.875 22.3894 172.017 24.8017C173.173 27.1997 174.836 29.0767 177.005 30.4327C179.175 31.7887 181.801 32.4667 184.884 32.4667ZM184.884 28.206C181.616 28.1774 179.153 27.0855 177.498 24.9301C175.856 22.7748 175.043 19.9343 175.057 16.4086C175.071 14.0535 175.435 11.9909 176.149 10.2209C176.877 8.43671 177.969 7.05215 179.425 6.06725C180.881 5.06809 182.7 4.58278 184.884 4.61132C188.167 4.6256 190.622 5.71041 192.25 7.86576C193.877 10.0211 194.691 12.8687 194.691 16.4086C194.691 18.7638 194.327 20.8335 193.599 22.6178C192.885 24.3877 191.8 25.7651 190.344 26.75C188.888 27.7349 187.068 28.2202 184.884 28.206Z" fill="#F1F2FB"></path> <path d="M203.286 20.1127H216.133V16.5157H203.286V20.1127Z" fill="#F1F2FB"></path> <path d="M2.98873 86.1657H16.2634C19.2038 86.1657 21.4733 85.345 23.072 83.7035C24.685 82.062 25.4914 79.8852 25.4914 77.1732C25.4914 75.5317 25.0846 74.0686 24.271 72.784C23.4574 71.4993 22.287 70.5287 20.7597 69.8721C21.7731 69.2869 22.5724 68.4519 23.1577 67.3671C23.7429 66.2822 24.0355 65.0333 24.0355 63.6202C24.0355 62.2213 23.7001 60.8939 23.0292 59.6378C22.3583 58.3674 21.3592 57.3326 20.0317 56.5332C18.7185 55.7339 17.077 55.3342 15.1072 55.3342H2.98873V86.1657ZM7.52781 67.9237V59.5521H15.043C16.3847 59.5521 17.4553 59.9375 18.2546 60.7083C19.0539 61.4791 19.4536 62.464 19.4536 63.663C19.4536 65.0047 19.0254 66.0539 18.1689 66.8104C17.3268 67.5526 16.2848 67.9237 15.043 67.9237H7.52781ZM7.52781 81.905V72.1417H15.8566C17.3982 72.1417 18.6257 72.6198 19.5392 73.5762C20.4528 74.5183 20.9095 75.6887 20.9095 77.0875C20.9095 78.5863 20.4028 79.7639 19.3894 80.6203C18.3759 81.4767 17.1056 81.905 15.5783 81.905H7.52781Z" fill="#F1F2FB"></path> <path d="M29.7522 86.1657H49.4501V81.9478H34.227V72.42H46.8808V68.2021H34.227V59.5521H49.4501V55.3342H29.7522V86.1657Z" fill="#F1F2FB"></path> <path d="M54.592 86.1657H59.0668V75.0963H67.053C67.3385 75.0963 67.7025 75.0821 68.145 75.0535C68.6017 75.025 69.03 74.9822 69.4296 74.9251C71.9989 74.5111 73.9259 73.412 75.2105 71.6278C76.5094 69.8436 77.1589 67.7025 77.1589 65.2046C77.1589 62.7067 76.5166 60.5656 75.2319 58.7814C73.9473 56.9971 72.0132 55.9052 69.4296 55.5055C69.03 55.4341 68.6089 55.3913 68.1664 55.377C67.7239 55.3485 67.3528 55.3342 67.053 55.3342H54.592V86.1657ZM59.0668 70.857V59.5521H66.8817C67.1672 59.5521 67.4812 59.5664 67.8238 59.595C68.1807 59.6235 68.5161 59.6806 68.8301 59.7662C70.2004 60.0803 71.171 60.7797 71.742 61.8645C72.3129 62.9493 72.5984 64.0627 72.5984 65.2046C72.5984 66.3322 72.3129 67.4456 71.742 68.5447C71.171 69.6295 70.2004 70.336 68.8301 70.6643C68.5161 70.7357 68.1807 70.7856 67.8238 70.8142C67.4812 70.8427 67.1672 70.857 66.8817 70.857H59.0668Z" fill="#F1F2FB"></path> <path d="M81.439 86.1657H85.9139V71.4351L99.6596 86.1657H105.398L90.7527 70.386L104.391 55.3342H98.8246L85.9139 69.7223V55.3342H81.439V86.1657Z" fill="#F1F2FB"></path> <path d="M106.27 86.1657H110.917L113.165 79.2072H125.819L128.109 86.1657H132.756L122.735 55.3342H116.291L106.27 86.1657ZM114.535 75.0107L119.46 59.8091L124.448 75.0107H114.535Z" fill="#F1F2FB"></path> </svg> 