<?xml version="1.0" encoding="UTF-8"?> <svg xmlns="http://www.w3.org/2000/svg" width="289" height="347" viewBox="0 0 289 347" fill="none"> <path d="M236.8 0.5H52.2H52.1762C43.2355 0.5 36.4981 0.499999 31.1417 0.937634C25.7748 1.37613 21.7501 2.25649 18.2453 4.04229C12.13 7.15817 7.15817 12.13 4.04229 18.2453C2.25649 21.7501 1.37613 25.7748 0.937634 31.1418C0.499999 36.4981 0.5 43.2355 0.5 52.1762V52.2V294.8V294.824C0.5 303.765 0.499999 310.502 0.937634 315.858C1.37613 321.225 2.25649 325.25 4.04229 328.755C7.15817 334.87 12.13 339.842 18.2453 342.958C21.7501 344.743 25.7748 345.624 31.1417 346.062C36.4984 346.5 43.2361 346.5 52.1776 346.5H52.2H236.8H236.822C245.764 346.5 252.502 346.5 257.858 346.062C263.225 345.624 267.25 344.743 270.755 342.958C276.87 339.842 281.842 334.87 284.958 328.755C286.743 325.25 287.624 321.225 288.062 315.858C288.5 310.502 288.5 303.765 288.5 294.824V294.8V52.2V52.1757C288.5 43.2352 288.5 36.4981 288.062 31.1417C287.624 25.7748 286.743 21.7501 284.958 18.2453C281.842 12.13 276.87 7.15817 270.755 4.04229C267.25 2.25649 263.225 1.37613 257.858 0.937634C252.502 0.499999 245.765 0.5 236.824 0.5H236.8Z" stroke="url(#paint0_linear_208_671)" stroke-opacity="0.5"></path> <defs> <linearGradient id="paint0_linear_208_671" x1="179.638" y1="0.999998" x2="-41.754" y2="183.076" gradientUnits="userSpaceOnUse"> <stop stop-color="#F1F2FB"></stop> <stop offset="1" stop-color="#F1F2FB" stop-opacity="0.32"></stop> </linearGradient> </defs> </svg> 