<?xml version="1.0" encoding="UTF-8"?> <svg xmlns="http://www.w3.org/2000/svg" width="183" height="141" viewBox="0 0 183 141" fill="none"> <path d="M3.11781 33.0184H17.3139C20.4584 33.0184 22.8855 32.1407 24.5951 30.3853C26.32 28.6298 27.1825 26.302 27.1825 23.4017C27.1825 21.6463 26.7474 20.0817 25.8773 18.7078C25.0072 17.334 23.7555 16.296 22.1222 15.5939C23.206 14.968 24.0608 14.075 24.6867 12.9149C25.3125 11.7548 25.6255 10.4192 25.6255 8.90797C25.6255 7.41204 25.2667 5.99244 24.5493 4.64915C23.8319 3.2906 22.7634 2.18392 21.3437 1.3291C19.9394 0.474284 18.184 0.046875 16.0775 0.046875H3.11781V33.0184ZM7.97196 13.5102V4.55756H16.0088C17.4436 4.55756 18.5885 4.96971 19.4433 5.794C20.2981 6.61828 20.7255 7.67154 20.7255 8.95377C20.7255 10.3886 20.2676 11.5106 19.3517 12.3196C18.4511 13.1134 17.3368 13.5102 16.0088 13.5102H7.97196ZM7.97196 28.4619V18.0209H16.8788C18.5274 18.0209 19.8402 18.5323 20.8171 19.555C21.7941 20.5625 22.2825 21.8142 22.2825 23.3101C22.2825 24.9129 21.7406 26.1722 20.6568 27.0881C19.573 28.004 18.2145 28.4619 16.5812 28.4619H7.97196Z" fill="#F1F2FB"></path> <path d="M57.6811 33.0184H52.827V8.49583L36.5931 33.0184H31.7389V0.046875H36.5931V24.5466L52.827 0.046875H57.6811V33.0184Z" fill="#F1F2FB"></path> <path d="M64.0719 33.0184H68.8573V21.1807H77.3979C77.7031 21.1807 78.0924 21.1654 78.5656 21.1349C79.0541 21.1044 79.512 21.0586 79.9394 20.9975C82.687 20.5549 84.7478 19.3795 86.1216 17.4714C87.5106 15.5633 88.2052 13.2736 88.2052 10.6023C88.2052 7.93104 87.5183 5.64135 86.1445 3.73328C84.7706 1.8252 82.7023 0.657459 79.9394 0.230051C79.512 0.153728 79.0617 0.107934 78.5885 0.0926682C78.1153 0.0621394 77.7184 0.046875 77.3979 0.046875H64.0719V33.0184ZM68.8573 16.6471V4.55756H77.2147C77.52 4.55756 77.8558 4.57283 78.2221 4.60336C78.6038 4.63389 78.9625 4.69494 79.2983 4.78653C80.7637 5.12235 81.8017 5.87032 82.4123 7.03043C83.0229 8.19054 83.3281 9.38118 83.3281 10.6023C83.3281 11.8082 83.0229 12.9989 82.4123 14.1743C81.8017 15.3344 80.7637 16.09 79.2983 16.4411C78.9625 16.5174 78.6038 16.5708 78.2221 16.6013C77.8558 16.6319 77.52 16.6471 77.2147 16.6471H68.8573Z" fill="#F1F2FB"></path> <path d="M101.002 33.0184H105.788V4.55756H116.755V0.046875H90.0348V4.55756H101.002V33.0184Z" fill="#F1F2FB"></path> <path d="M125.159 33.0184H130.334L145.767 0.046875H140.661L131.822 19.3948L123.213 0.046875H117.832L129.327 24.4779L125.159 33.0184Z" fill="#F1F2FB"></path> <path d="M148.896 18.4331H162.634V14.5864H148.896V18.4331Z" fill="#F1F2FB"></path> <path d="M0.828125 84.0184H5.79675L8.20093 76.5769H21.733L24.183 84.0184H29.1516L18.4358 51.0469H11.5439L0.828125 84.0184ZM9.66633 72.0891L14.9326 55.8323L20.2676 72.0891H9.66633Z" fill="#F1F2FB"></path> <path d="M32.4902 84.0184C34.1693 84.3848 35.5508 84.4229 36.6346 84.1329C37.7184 83.8429 38.5961 83.2857 39.2677 82.4614C39.9394 81.6371 40.4736 80.5991 40.8705 79.3474C41.2674 78.0957 41.6032 76.6914 41.878 75.1344C42.3206 72.7073 42.6717 70.3108 42.9312 67.9448C43.1907 65.5635 43.3968 63.312 43.5494 61.1902C43.7021 59.0684 43.8318 57.1909 43.9387 55.5576H56.303V84.0184H61.0885V51.0469H39.4509C39.3593 53.0923 39.2372 55.3668 39.0845 57.8701C38.9319 60.3583 38.7182 62.9227 38.4434 65.5635C38.1687 68.189 37.8099 70.7306 37.3673 73.1882C37.0467 75.1115 36.7033 76.5769 36.3369 77.5844C35.9858 78.5766 35.5126 79.2406 34.9173 79.5764C34.3373 79.897 33.5282 80.0114 32.4902 79.9199V84.0184Z" fill="#F1F2FB"></path> <path d="M67.4924 84.0184H80.8184C81.139 84.0184 81.5282 84.0031 81.9862 83.9726C82.4594 83.9421 82.9097 83.8963 83.3371 83.8352C86.1152 83.4078 88.1912 82.2401 89.565 80.332C90.9389 78.4239 91.6258 76.1342 91.6258 73.4629C91.6258 70.7764 90.9312 68.479 89.5421 66.571C88.1531 64.6629 86.0847 63.4952 83.3371 63.0677C82.9097 62.9914 82.4594 62.9456 81.9862 62.9304C81.513 62.8998 81.1237 62.8846 80.8184 62.8846H72.2779V51.0469H67.4924V84.0184ZM72.2779 79.5077V67.4182H80.6353C80.9405 67.4182 81.2764 67.4334 81.6427 67.464C82.0091 67.4945 82.3601 67.5479 82.696 67.6242C84.1766 67.9753 85.2223 68.7309 85.8328 69.891C86.4434 71.0511 86.7487 72.2418 86.7487 73.4629C86.7487 74.6688 86.4434 75.8518 85.8328 77.012C85.2223 78.1721 84.1766 78.9277 82.696 79.2787C82.3601 79.3703 82.0091 79.4314 81.6427 79.4619C81.2764 79.4925 80.9405 79.5077 80.6353 79.5077H72.2779Z" fill="#F1F2FB"></path> <path d="M96.6731 84.0184H101.459V69.7765H117.944V84.0184H122.753V51.0469H117.944V65.2658H101.459V51.0469H96.6731V84.0184Z" fill="#F1F2FB"></path> <path d="M126.895 84.0184H131.864L134.268 76.5769H147.8L150.25 84.0184H155.219L144.503 51.0469H137.611L126.895 84.0184ZM135.733 72.0891L141 55.8323L146.335 72.0891H135.733Z" fill="#F1F2FB"></path> <path d="M182.704 84.0184H177.919V72.1807H169.172L163.425 84.0184H157.953L164.181 71.2419C162.303 70.4329 160.899 69.1736 159.968 67.464C159.036 65.7543 158.571 63.8004 158.571 61.6023C158.571 58.931 159.258 56.6414 160.632 54.7333C162.005 52.8252 164.074 51.6575 166.837 51.23C167.264 51.1537 167.714 51.1079 168.188 51.0927C168.661 51.0621 169.058 51.0469 169.378 51.0469H182.704V84.0184ZM177.919 67.6471V55.5576H169.561C169.256 55.5576 168.913 55.5728 168.531 55.6034C168.165 55.6339 167.814 55.6949 167.478 55.7865C166.012 56.1224 164.974 56.8703 164.364 58.0304C163.753 59.1905 163.448 60.3812 163.448 61.6023C163.448 62.8082 163.753 63.9989 164.364 65.1743C164.974 66.3344 166.012 67.09 167.478 67.4411C167.814 67.5174 168.165 67.5708 168.531 67.6013C168.913 67.6319 169.256 67.6471 169.561 67.6471H177.919Z" fill="#F1F2FB"></path> <path d="M1.44634 140.514H6.23179V135.018H27.503V140.514H32.3114V130.508H29.8614V102.047L8.75045 102.024C8.61307 104.344 8.48332 106.489 8.3612 108.458C8.25435 110.427 8.13223 112.328 7.99485 114.159C7.87274 115.991 7.72009 117.876 7.53692 119.815C7.35374 121.708 7.07898 123.471 6.71263 125.104C6.34628 126.722 5.75096 128.027 4.92667 129.019C4.11765 130.012 2.95754 130.508 1.44634 130.508V140.514ZM9.29998 130.508C9.97162 129.775 10.483 128.981 10.8341 128.126C11.1852 127.272 11.4599 126.264 11.6584 125.104C11.8568 123.929 12.0323 122.501 12.185 120.822C12.3682 119.052 12.5055 117.403 12.5971 115.877C12.704 114.35 12.7956 112.831 12.8719 111.32C12.9635 109.809 13.0627 108.214 13.1696 106.535L25.0759 106.558V130.508H9.29998Z" fill="#F1F2FB"></path> <path d="M51.09 135.705C54.3872 135.705 57.1959 134.98 59.5161 133.53C61.8363 132.08 63.607 130.073 64.8282 127.508C66.0493 124.929 66.6599 121.937 66.6599 118.533C66.6599 115.129 66.0493 112.144 64.8282 109.58C63.607 107 61.8363 104.985 59.5161 103.535C57.1959 102.085 54.3872 101.36 51.09 101.36C47.7929 101.36 44.9842 102.085 42.664 103.535C40.3438 104.985 38.5654 107 37.329 109.58C36.1078 112.144 35.4972 115.129 35.4972 118.533C35.4972 121.937 36.1078 124.929 37.329 127.508C38.5654 130.073 40.3438 132.08 42.664 133.53C44.9842 134.98 47.7929 135.705 51.09 135.705ZM51.09 131.149C47.5944 131.118 44.9613 129.951 43.1906 127.646C41.4352 125.341 40.5651 122.303 40.5804 118.533C40.5956 116.014 40.9849 113.808 41.7481 111.915C42.5266 110.007 43.6943 108.527 45.2513 107.473C46.8083 106.405 48.7545 105.886 51.09 105.916C54.6009 105.932 57.2264 107.092 58.9666 109.397C60.7067 111.702 61.5768 114.747 61.5768 118.533C61.5768 121.051 61.1876 123.265 60.4091 125.173C59.6458 127.066 58.4857 128.539 56.9287 129.592C55.3717 130.645 53.4255 131.164 51.09 131.149Z" fill="#F1F2FB"></path> <path d="M84.9882 135.705C88.7891 135.705 91.9336 134.744 94.4217 132.82C96.9251 130.897 98.6652 128.31 99.6422 125.058L94.788 123.753C94.1317 126.058 92.9868 127.867 91.3535 129.18C89.7202 130.492 87.5984 131.149 84.9882 131.149C82.6527 131.149 80.6988 130.622 79.1266 129.569C77.5696 128.516 76.3942 127.043 75.6004 125.15C74.8219 123.257 74.4403 121.051 74.4556 118.533C74.4709 116.014 74.8677 113.808 75.6462 111.915C76.4247 110.023 77.5925 108.55 79.1495 107.496C80.7064 106.443 82.6527 105.916 84.9882 105.916C87.5984 105.916 89.7202 106.573 91.3535 107.886C92.9868 109.198 94.1317 111.007 94.788 113.312L99.6422 112.007C98.6652 108.756 96.9251 106.168 94.4217 104.245C91.9336 102.322 88.7891 101.36 84.9882 101.36C81.691 101.36 78.8823 102.085 76.5621 103.535C74.2419 104.985 72.4636 107 71.2271 109.58C70.006 112.144 69.3954 115.129 69.3954 118.533C69.3954 121.937 70.006 124.929 71.2271 127.508C72.4636 130.073 74.2419 132.08 76.5621 133.53C78.8823 134.98 81.691 135.705 84.9882 135.705Z" fill="#F1F2FB"></path> <path d="M104.678 135.018H109.464V119.265L124.163 135.018H130.3L114.638 118.143L129.224 102.047H123.27L109.464 117.434V102.047H104.678V135.018Z" fill="#F1F2FB"></path> <path d="M131.233 135.018H136.202L138.606 127.577H152.138L154.588 135.018H159.557L148.841 102.047H141.949L131.233 135.018ZM140.071 123.089L145.338 106.832L150.673 123.089H140.071Z" fill="#F1F2FB"></path> </svg> 