<?xml version="1.0" encoding="UTF-8"?> <svg xmlns="http://www.w3.org/2000/svg" width="199" height="139" viewBox="0 0 199 139" fill="none"> <path d="M2.79311 58.6796L2.79311 47.1796L28.8291 47.1796L28.8291 58.6796L2.79311 58.6796Z" fill="white"></path> <path d="M66.023 76.5276L66.023 63.6476L48.911 63.6476C46.0283 63.6476 43.4523 63.0343 41.183 61.8076C38.975 60.5196 37.227 58.8329 35.939 56.7476C34.7123 54.6009 34.099 52.2396 34.099 49.6636C34.099 48.4369 34.2523 47.2103 34.559 45.9836C34.8656 44.7569 35.295 43.5609 35.847 42.3956L50.567 12.1276L70.899 12.1276L54.339 45.6156C54.2777 45.8609 54.2163 46.0756 54.155 46.2596C54.0937 46.4436 54.063 46.6276 54.063 46.8116C54.063 47.2409 54.1857 47.5783 54.431 47.8236C54.7377 48.0076 55.167 48.0996 55.719 48.0996L66.023 48.0996L66.023 30.9876L84.423 30.9876L84.423 48.0996L92.243 48.0996L92.243 63.6476L84.423 63.6476L84.423 76.5276L66.023 76.5276Z" fill="white"></path> <path d="M124.894 77.7236C119.496 77.7236 114.774 76.681 110.726 74.5956C106.739 72.449 103.611 69.5663 101.342 65.9476C99.1336 62.2676 98.0296 58.0969 98.0296 53.4356L98.0296 35.1276C98.0296 30.4049 99.1336 26.2343 101.342 22.6156C103.611 18.9969 106.739 16.1449 110.726 14.0596C114.774 11.9743 119.496 10.9316 124.894 10.9316C130.23 10.9316 134.891 11.9743 138.878 14.0596C142.864 16.1449 145.962 18.9969 148.17 22.6156C150.378 26.2343 151.482 30.4049 151.482 35.1276L151.482 53.4356C151.482 58.0969 150.316 62.2676 147.986 65.9476C145.655 69.5663 142.466 72.449 138.418 74.5956C134.431 76.681 129.923 77.7236 124.894 77.7236ZM124.894 61.1636C126.366 61.1636 127.715 60.857 128.942 60.2436C130.168 59.569 131.15 58.6489 131.886 57.4836C132.622 56.2569 132.99 54.8156 132.99 53.1596L132.99 35.4036C132.99 33.7476 132.622 32.3063 131.886 31.0796C131.15 29.8529 130.168 28.9329 128.942 28.3196C127.715 27.6449 126.366 27.3076 124.894 27.3076C123.36 27.3076 121.95 27.6449 120.662 28.3196C119.435 28.9329 118.423 29.8529 117.626 31.0796C116.89 32.3063 116.522 33.7476 116.522 35.4036L116.522 53.1596C116.522 54.8156 116.89 56.2569 117.626 57.4836C118.423 58.6489 119.435 59.569 120.662 60.2436C121.95 60.857 123.36 61.1636 124.894 61.1636Z" fill="white"></path> <path d="M0.40625 31.8402L2.44625 31.8402L2.44625 28.9602L11.5663 28.9602L11.5663 31.8402L13.6063 31.8402L13.6063 27.1962L12.3463 27.1962L12.3463 16.0002L3.41825 16.0002C3.33825 17.8482 3.24625 19.4082 3.14225 20.6802C3.04625 21.9442 2.90625 23.0922 2.72225 24.1242C2.53025 25.2202 2.27425 26.0082 1.95425 26.4882C1.64225 26.9602 1.12625 27.1962 0.40625 27.1962L0.40625 31.8402ZM3.69425 27.1962C3.98225 26.9162 4.19425 26.5682 4.33025 26.1522C4.47425 25.7362 4.59825 25.2242 4.70225 24.6162C4.82225 24.0482 4.92225 23.3762 5.00225 22.6002C5.08225 21.8162 5.15025 21.0042 5.20625 20.1642C5.26225 19.3162 5.31025 18.5162 5.35025 17.7642L10.2103 17.7642L10.2103 27.1962L3.69425 27.1962Z" fill="white"></path> <path d="M21.0659 29.3202C22.3539 29.3202 23.4619 29.0322 24.3899 28.4562C25.3259 27.8802 26.0459 27.0762 26.5499 26.0442C27.0619 25.0122 27.3179 23.8202 27.3179 22.4682C27.3179 21.1322 27.0659 19.9522 26.5619 18.9282C26.0659 17.8962 25.3499 17.0922 24.4139 16.5162C23.4779 15.9322 22.3619 15.6402 21.0659 15.6402C19.8019 15.6402 18.7019 15.9282 17.7659 16.5042C16.8299 17.0722 16.1059 17.8682 15.5939 18.8922C15.0819 19.9162 14.8259 21.1082 14.8259 22.4682C14.8259 23.8042 15.0739 24.9882 15.5699 26.0202C16.0739 27.0522 16.7939 27.8602 17.7299 28.4442C18.6659 29.0282 19.7779 29.3202 21.0659 29.3202ZM21.0659 27.2922C19.7619 27.2922 18.7739 26.8562 18.1019 25.9842C17.4299 25.1042 17.0939 23.9322 17.0939 22.4682C17.0939 21.0522 17.4179 19.9002 18.0659 19.0122C18.7139 18.1162 19.7139 17.6682 21.0659 17.6682C22.3939 17.6682 23.3899 18.1042 24.0539 18.9762C24.7179 19.8482 25.0499 21.0122 25.0499 22.4682C25.0499 23.8922 24.7179 25.0522 24.0539 25.9482C23.3979 26.8442 22.4019 27.2922 21.0659 27.2922Z" fill="white"></path> <path d="M166.767 19.2005C168.483 19.2005 170.043 18.7845 171.447 17.9525C172.868 17.1031 174.004 15.9765 174.853 14.5725C175.702 13.1511 176.127 11.5738 176.127 9.84047C176.127 8.10714 175.702 6.53847 174.853 5.13447C174.004 3.71314 172.868 2.58647 171.447 1.75447C170.043 0.905134 168.483 0.480468 166.767 0.480468C165.103 0.480468 163.56 0.905134 162.139 1.75447C160.718 2.6038 159.574 3.73913 158.707 5.16047C157.84 6.5818 157.407 8.1418 157.407 9.84047C157.407 11.5738 157.832 13.1511 158.681 14.5725C159.53 15.9765 160.657 17.1031 162.061 17.9525C163.482 18.7845 165.051 19.2005 166.767 19.2005ZM162.087 38.7005L196.459 4.38047L193.339 1.26047L158.967 35.5805L162.087 38.7005ZM166.767 15.1185C165.346 15.1185 164.106 14.5985 163.049 13.5585C162.009 12.5011 161.489 11.2618 161.489 9.84047C161.489 8.4018 162.009 7.16247 163.049 6.12247C164.106 5.08247 165.346 4.56247 166.767 4.56247C168.206 4.56247 169.445 5.08247 170.485 6.12247C171.525 7.16247 172.045 8.4018 172.045 9.84047C172.045 11.2618 171.525 12.5011 170.485 13.5585C169.445 14.5985 168.206 15.1185 166.767 15.1185ZM188.659 39.4805C190.375 39.4805 191.935 39.0645 193.339 38.2325C194.76 37.3831 195.896 36.2565 196.745 34.8525C197.594 33.4311 198.019 31.8538 198.019 30.1205C198.019 28.3871 197.594 26.8185 196.745 25.4145C195.896 23.9931 194.76 22.8665 193.339 22.0345C191.935 21.1851 190.375 20.7605 188.659 20.7605C186.995 20.7605 185.452 21.1851 184.031 22.0345C182.61 22.8838 181.466 24.0191 180.599 25.4405C179.732 26.8618 179.299 28.4218 179.299 30.1205C179.299 31.8538 179.715 33.4311 180.547 34.8525C181.396 36.2565 182.532 37.3831 183.953 38.2325C185.374 39.0645 186.943 39.4805 188.659 39.4805ZM188.659 35.3985C187.238 35.3985 185.998 34.8785 184.941 33.8385C183.901 32.7811 183.381 31.5418 183.381 30.1205C183.381 28.6818 183.901 27.4425 184.941 26.4025C185.998 25.3625 187.238 24.8425 188.659 24.8425C190.098 24.8425 191.337 25.3625 192.377 26.4025C193.417 27.4425 193.937 28.6818 193.937 30.1205C193.937 31.5418 193.417 32.7811 192.377 33.8385C191.337 34.8785 190.098 35.3985 188.659 35.3985Z" fill="white"></path> <path d="M65.8879 109.202L67.2109 109.202L67.2109 103.352L74.3749 103.352L74.3749 109.202L75.6889 109.202L75.6889 96.2418L74.3749 96.2418L74.3749 102.083L67.2109 102.083L67.2109 96.2418L65.8879 96.2418L65.8879 109.202Z" fill="white"></path> <path d="M80.9912 109.472C82.6892 109.472 83.9222 108.845 84.6902 107.591L84.6902 109.202L85.8692 109.202L85.8692 103.163C85.8692 102.803 85.8512 102.449 85.8152 102.101C85.7792 101.753 85.7012 101.438 85.5812 101.156C85.3232 100.526 84.8822 100.046 84.2582 99.7158C83.6402 99.3798 82.8872 99.2118 81.9992 99.2118C80.9312 99.2118 80.0612 99.4518 79.3892 99.9318C78.7172 100.412 78.2672 101.087 78.0392 101.957L79.3262 102.335C79.5122 101.687 79.8332 101.213 80.2892 100.913C80.7512 100.613 81.3152 100.463 81.9812 100.463C82.9052 100.463 83.5652 100.679 83.9612 101.111C84.3572 101.537 84.5612 102.188 84.5732 103.064C84.1412 103.124 83.6642 103.187 83.1422 103.253C82.6262 103.319 82.1072 103.394 81.5852 103.478C81.0632 103.562 80.5832 103.658 80.1452 103.766C79.4192 103.958 78.8252 104.279 78.3632 104.729C77.9012 105.173 77.6702 105.794 77.6702 106.592C77.6702 107.108 77.7932 107.585 78.0392 108.023C78.2852 108.461 78.6542 108.812 79.1462 109.076C79.6442 109.34 80.2592 109.472 80.9912 109.472ZM81.1442 108.329C80.6222 108.329 80.2022 108.245 79.8842 108.077C79.5722 107.903 79.3442 107.684 79.2002 107.42C79.0622 107.15 78.9932 106.874 78.9932 106.592C78.9932 106.064 79.1702 105.668 79.5242 105.404C79.8782 105.14 80.2622 104.948 80.6762 104.828C81.2102 104.684 81.8312 104.567 82.5392 104.477C83.2472 104.387 83.9192 104.303 84.5552 104.225C84.5552 104.447 84.5462 104.702 84.5282 104.99C84.5162 105.272 84.4832 105.533 84.4292 105.773C84.3032 106.505 83.9552 107.114 83.3852 107.6C82.8212 108.086 82.0742 108.329 81.1442 108.329Z" fill="white"></path> <path d="M90.9157 109.202C91.5277 109.322 92.0077 109.331 92.3557 109.229C92.7037 109.127 92.9677 108.917 93.1477 108.599C93.3277 108.281 93.4687 107.855 93.5707 107.321C93.6667 106.847 93.7567 106.259 93.8407 105.557C93.9247 104.855 94.0027 104.09 94.0747 103.262C94.1467 102.434 94.2127 101.597 94.2727 100.751L98.3407 100.751L98.3407 109.202L99.6547 109.202L99.6547 99.4818L93.0487 99.4818C92.9527 101.024 92.8537 102.377 92.7517 103.541C92.6557 104.705 92.5327 105.725 92.3827 106.601C92.2927 107.129 92.1607 107.525 91.9867 107.789C91.8187 108.053 91.4617 108.137 90.9157 108.041L90.9157 109.202Z" fill="white"></path> <path d="M109.819 109.472C110.785 109.472 111.61 109.256 112.294 108.824C112.984 108.386 113.512 107.78 113.878 107.006C114.244 106.232 114.427 105.338 114.427 104.324C114.427 103.328 114.244 102.446 113.878 101.678C113.518 100.91 112.993 100.307 112.303 99.8688C111.619 99.4308 110.794 99.2118 109.828 99.2118C108.55 99.2118 107.515 99.6138 106.723 100.418C105.937 101.216 105.487 102.305 105.373 103.685L103.483 103.685L103.483 99.4818L102.16 99.4818L102.16 109.202L103.483 109.202L103.483 104.999L105.382 104.999C105.502 106.355 105.949 107.441 106.723 108.257C107.497 109.067 108.529 109.472 109.819 109.472ZM109.792 108.203C108.754 108.203 107.965 107.852 107.425 107.15C106.891 106.442 106.624 105.5 106.624 104.324C106.624 103.124 106.897 102.185 107.443 101.507C107.989 100.823 108.775 100.481 109.801 100.481C110.875 100.481 111.679 100.829 112.213 101.525C112.753 102.215 113.023 103.151 113.023 104.333C113.023 105.491 112.756 106.427 112.222 107.141C111.694 107.849 110.884 108.203 109.792 108.203Z" fill="white"></path> <path d="M120.304 109.481C121.252 109.481 122.071 109.286 122.761 108.896C123.451 108.5 123.982 107.942 124.354 107.222C124.732 106.502 124.921 105.659 124.921 104.693C124.921 103.763 124.75 102.944 124.408 102.236C124.066 101.522 123.577 100.964 122.941 100.562C122.311 100.16 121.558 99.9588 120.682 99.9588C119.962 99.9588 119.293 100.106 118.675 100.4C118.063 100.694 117.571 101.132 117.199 101.714C117.265 100.946 117.427 100.265 117.685 99.6708C117.943 99.0768 118.315 98.6328 118.801 98.3388C119.119 98.1288 119.503 97.9638 119.953 97.8438C120.403 97.7178 120.871 97.6188 121.357 97.5468C121.849 97.4688 122.32 97.4028 122.77 97.3488C123.226 97.2948 123.619 97.2348 123.949 97.1688L123.805 95.9718C123.223 96.0858 122.584 96.1818 121.888 96.2598C121.198 96.3378 120.523 96.4518 119.863 96.6018C119.203 96.7458 118.624 96.9858 118.126 97.3218C117.742 97.5678 117.403 97.8858 117.109 98.2758C116.821 98.6598 116.599 99.0738 116.443 99.5178C116.323 99.8598 116.215 100.304 116.119 100.85C116.029 101.396 115.963 101.972 115.921 102.578C115.879 103.178 115.867 103.733 115.885 104.243C115.933 105.977 116.341 107.282 117.109 108.158C117.877 109.028 118.942 109.469 120.304 109.481ZM120.403 108.212C119.389 108.212 118.615 107.903 118.081 107.285C117.553 106.661 117.289 105.806 117.289 104.72C117.289 103.64 117.556 102.788 118.09 102.164C118.624 101.54 119.389 101.228 120.385 101.228C121.381 101.228 122.152 101.54 122.698 102.164C123.25 102.788 123.526 103.64 123.526 104.72C123.526 105.776 123.259 106.622 122.725 107.258C122.197 107.894 121.423 108.212 120.403 108.212Z" fill="white"></path> <path d="M130.961 109.472C131.921 109.472 132.743 109.256 133.427 108.824C134.117 108.392 134.645 107.792 135.011 107.024C135.383 106.25 135.569 105.353 135.569 104.333C135.569 103.331 135.386 102.446 135.02 101.678C134.66 100.904 134.135 100.301 133.445 99.8688C132.761 99.4308 131.933 99.2118 130.961 99.2118C130.013 99.2118 129.194 99.4278 128.504 99.8598C127.82 100.286 127.292 100.883 126.92 101.651C126.548 102.419 126.362 103.313 126.362 104.333C126.362 105.335 126.542 106.223 126.902 106.997C127.268 107.771 127.793 108.377 128.477 108.815C129.167 109.253 129.995 109.472 130.961 109.472ZM130.961 108.203C129.911 108.203 129.116 107.852 128.576 107.15C128.036 106.442 127.766 105.503 127.766 104.333C127.766 103.199 128.027 102.275 128.549 101.561C129.071 100.841 129.875 100.481 130.961 100.481C132.035 100.481 132.836 100.832 133.364 101.534C133.898 102.23 134.165 103.163 134.165 104.333C134.165 105.479 133.901 106.412 133.373 107.132C132.845 107.846 132.041 108.203 130.961 108.203Z" fill="white"></path> <path d="M141.586 98.3298C142.018 98.3298 142.408 98.2278 142.756 98.0238C143.11 97.8138 143.389 97.5318 143.593 97.1778C143.803 96.8238 143.908 96.4338 143.908 96.0078L142.81 96.0078C142.81 96.3438 142.69 96.6318 142.45 96.8718C142.216 97.1118 141.928 97.2318 141.586 97.2318C141.25 97.2318 140.962 97.1118 140.722 96.8718C140.482 96.6318 140.362 96.3438 140.362 96.0078L139.264 96.0078C139.264 96.4338 139.366 96.8238 139.57 97.1778C139.78 97.5318 140.062 97.8138 140.416 98.0238C140.77 98.2278 141.16 98.3298 141.586 98.3298ZM145.276 99.4818L144.169 99.4818L138.832 106.988L138.832 99.4818L137.545 99.4818L137.545 109.202L138.661 109.202L143.989 101.633L143.989 109.202L145.276 109.202L145.276 99.4818Z" fill="white"></path> <path d="M52.7393 134.202L54.0623 134.202L54.0623 125.751L59.1473 125.751L59.1473 134.202L60.4703 134.202L60.4703 124.482L52.7393 124.482L52.7393 134.202Z" fill="white"></path> <path d="M65.7773 134.472C67.4753 134.472 68.7083 133.845 69.4763 132.591L69.4763 134.202L70.6553 134.202L70.6553 128.163C70.6553 127.803 70.6373 127.449 70.6013 127.101C70.5653 126.753 70.4873 126.438 70.3673 126.156C70.1093 125.526 69.6683 125.046 69.0443 124.716C68.4263 124.38 67.6733 124.212 66.7853 124.212C65.7173 124.212 64.8473 124.452 64.1753 124.932C63.5033 125.412 63.0533 126.087 62.8253 126.957L64.1123 127.335C64.2983 126.687 64.6193 126.213 65.0753 125.913C65.5373 125.613 66.1013 125.463 66.7673 125.463C67.6913 125.463 68.3513 125.679 68.7473 126.111C69.1433 126.537 69.3473 127.188 69.3593 128.064C68.9273 128.124 68.4503 128.187 67.9283 128.253C67.4123 128.319 66.8933 128.394 66.3713 128.478C65.8493 128.562 65.3693 128.658 64.9313 128.766C64.2053 128.958 63.6113 129.279 63.1493 129.729C62.6873 130.173 62.4563 130.794 62.4563 131.592C62.4563 132.108 62.5793 132.585 62.8253 133.023C63.0713 133.461 63.4403 133.812 63.9323 134.076C64.4303 134.34 65.0453 134.472 65.7773 134.472ZM65.9303 133.329C65.4083 133.329 64.9883 133.245 64.6703 133.077C64.3583 132.903 64.1303 132.684 63.9863 132.42C63.8483 132.15 63.7793 131.874 63.7793 131.592C63.7793 131.064 63.9563 130.668 64.3103 130.404C64.6643 130.14 65.0483 129.948 65.4623 129.828C65.9963 129.684 66.6173 129.567 67.3253 129.477C68.0333 129.387 68.7053 129.303 69.3413 129.225C69.3413 129.447 69.3323 129.702 69.3143 129.99C69.3023 130.272 69.2693 130.533 69.2153 130.773C69.0893 131.505 68.7413 132.114 68.1713 132.6C67.6073 133.086 66.8603 133.329 65.9303 133.329Z" fill="white"></path> <path d="M72.9893 134.202L74.3303 134.202L74.3303 129.522L79.1003 134.202L81.0263 134.202L75.8783 129.342L80.4323 124.482L78.6683 124.482L74.3303 129.162L74.3303 124.482L72.9983 124.482L72.9893 134.202Z" fill="white"></path> <path d="M85.6894 134.472C86.6314 134.472 87.4744 134.241 88.2184 133.779C88.9684 133.317 89.5354 132.66 89.9194 131.808L88.6864 131.331C88.0684 132.579 87.0514 133.203 85.6354 133.203C84.6634 133.203 83.9014 132.9 83.3494 132.294C82.8034 131.688 82.5034 130.827 82.4494 129.711L90.1084 129.711C90.1564 127.995 89.7814 126.651 88.9834 125.679C88.1914 124.701 87.0754 124.212 85.6354 124.212C84.6994 124.212 83.8864 124.422 83.1964 124.842C82.5124 125.262 81.9814 125.859 81.6034 126.633C81.2254 127.407 81.0364 128.325 81.0364 129.387C81.0364 130.413 81.2254 131.307 81.6034 132.069C81.9874 132.831 82.5274 133.422 83.2234 133.842C83.9254 134.262 84.7474 134.472 85.6894 134.472ZM85.6714 125.427C87.5014 125.427 88.5184 126.486 88.7224 128.604L82.4764 128.604C82.5784 127.578 82.9024 126.792 83.4484 126.246C83.9944 125.7 84.7354 125.427 85.6714 125.427Z" fill="white"></path> <path d="M94.6197 134.202L95.9427 134.202L95.9427 125.706L99.3897 125.706L99.3897 124.482L91.1727 124.482L91.1727 125.706L94.6197 125.706L94.6197 134.202Z" fill="white"></path> <path d="M106.095 138.522L107.418 138.522L112.638 124.482L111.288 124.482L108.345 132.474L105.15 124.482L103.746 124.482L107.697 134.175L106.095 138.522Z" fill="white"></path> <path d="M114.192 138.522L115.524 138.522L115.524 133.041C115.872 133.485 116.301 133.836 116.811 134.094C117.321 134.346 117.906 134.472 118.566 134.472C119.478 134.472 120.255 134.247 120.897 133.797C121.539 133.341 122.028 132.726 122.364 131.952C122.706 131.178 122.877 130.305 122.877 129.333C122.877 128.367 122.706 127.497 122.364 126.723C122.028 125.949 121.542 125.337 120.906 124.887C120.27 124.437 119.508 124.212 118.62 124.212C117.9 124.212 117.267 124.356 116.721 124.644C116.181 124.926 115.734 125.319 115.38 125.823L115.38 124.482L114.192 124.482L114.192 138.522ZM118.431 133.239C117.741 133.239 117.171 133.071 116.721 132.735C116.271 132.393 115.935 131.928 115.713 131.34C115.491 130.752 115.38 130.083 115.38 129.333C115.38 128.187 115.629 127.254 116.127 126.534C116.631 125.808 117.39 125.445 118.404 125.445C119.1 125.445 119.673 125.616 120.123 125.958C120.579 126.3 120.918 126.765 121.14 127.353C121.362 127.941 121.473 128.601 121.473 129.333C121.473 130.071 121.359 130.734 121.131 131.322C120.909 131.91 120.573 132.378 120.123 132.726C119.673 133.068 119.109 133.239 118.431 133.239Z" fill="white"></path> <path d="M128.913 134.472C129.873 134.472 130.695 134.256 131.379 133.824C132.069 133.392 132.597 132.792 132.963 132.024C133.335 131.25 133.521 130.353 133.521 129.333C133.521 128.331 133.338 127.446 132.972 126.678C132.612 125.904 132.087 125.301 131.397 124.869C130.713 124.431 129.885 124.212 128.913 124.212C127.965 124.212 127.146 124.428 126.456 124.86C125.772 125.286 125.244 125.883 124.872 126.651C124.5 127.419 124.314 128.313 124.314 129.333C124.314 130.335 124.494 131.223 124.854 131.997C125.22 132.771 125.745 133.377 126.429 133.815C127.119 134.253 127.947 134.472 128.913 134.472ZM128.913 133.203C127.863 133.203 127.068 132.852 126.528 132.15C125.988 131.442 125.718 130.503 125.718 129.333C125.718 128.199 125.979 127.275 126.501 126.561C127.023 125.841 127.827 125.481 128.913 125.481C129.987 125.481 130.788 125.832 131.316 126.534C131.85 127.23 132.117 128.163 132.117 129.333C132.117 130.479 131.853 131.412 131.325 132.132C130.797 132.846 129.993 133.203 128.913 133.203Z" fill="white"></path> <path d="M135.497 134.202L136.838 134.202L136.838 129.522L141.608 134.202L143.534 134.202L138.386 129.342L142.94 124.482L141.176 124.482L136.838 129.162L136.838 124.482L135.506 124.482L135.497 134.202Z" fill="white"></path> <path d="M148.319 134.472C149.279 134.472 150.101 134.256 150.785 133.824C151.475 133.392 152.003 132.792 152.369 132.024C152.741 131.25 152.927 130.353 152.927 129.333C152.927 128.331 152.744 127.446 152.378 126.678C152.018 125.904 151.493 125.301 150.803 124.869C150.119 124.431 149.291 124.212 148.319 124.212C147.371 124.212 146.552 124.428 145.862 124.86C145.178 125.286 144.65 125.883 144.278 126.651C143.906 127.419 143.72 128.313 143.72 129.333C143.72 130.335 143.9 131.223 144.26 131.997C144.626 132.771 145.151 133.377 145.835 133.815C146.525 134.253 147.353 134.472 148.319 134.472ZM148.319 133.203C147.269 133.203 146.474 132.852 145.934 132.15C145.394 131.442 145.124 130.503 145.124 129.333C145.124 128.199 145.385 127.275 145.907 126.561C146.429 125.841 147.233 125.481 148.319 125.481C149.393 125.481 150.194 125.832 150.722 126.534C151.256 127.23 151.523 128.163 151.523 129.333C151.523 130.479 151.259 131.412 150.731 132.132C150.203 132.846 149.399 133.203 148.319 133.203Z" fill="white"></path> <path d="M154.903 134.202L159.43 134.202C159.676 134.202 159.937 134.193 160.213 134.175C160.495 134.157 160.756 134.115 160.996 134.049C161.53 133.893 161.956 133.605 162.274 133.185C162.592 132.765 162.751 132.222 162.751 131.556C162.751 130.596 162.397 129.903 161.689 129.477C161.473 129.345 161.266 129.261 161.068 129.225C161.29 129.129 161.494 128.979 161.68 128.775C161.872 128.577 162.019 128.343 162.121 128.073C162.229 127.797 162.283 127.485 162.283 127.137C162.283 126.513 162.115 125.982 161.779 125.544C161.449 125.1 161.011 124.803 160.465 124.653C160.213 124.587 159.94 124.542 159.646 124.518C159.358 124.494 159.112 124.482 158.908 124.482L154.903 124.482L154.903 134.202ZM156.235 128.775L156.235 125.616L158.773 125.616C158.839 125.616 158.995 125.622 159.241 125.634C159.493 125.646 159.727 125.691 159.943 125.769C160.261 125.871 160.498 126.054 160.654 126.318C160.816 126.576 160.897 126.873 160.897 127.209C160.897 127.521 160.822 127.809 160.672 128.073C160.528 128.337 160.3 128.523 159.988 128.631C159.838 128.685 159.667 128.724 159.475 128.748C159.283 128.766 159.109 128.775 158.953 128.775L156.235 128.775ZM156.235 133.077L156.235 129.909L159.178 129.909C159.298 129.909 159.433 129.912 159.583 129.918C159.739 129.924 159.883 129.942 160.015 129.972C160.423 130.032 160.753 130.2 161.005 130.476C161.257 130.746 161.383 131.094 161.383 131.52C161.383 131.844 161.299 132.144 161.131 132.42C160.969 132.69 160.711 132.87 160.357 132.96C160.207 133.002 160.036 133.032 159.844 133.05C159.652 133.068 159.493 133.077 159.367 133.077L156.235 133.077Z" fill="white"></path> </svg> 