<?xml version="1.0" encoding="UTF-8"?> <svg xmlns="http://www.w3.org/2000/svg" width="343" height="122" viewBox="0 0 343 122" fill="none"> <path d="M0.359375 50H7.73737L11.3074 38.95H31.4014L35.0394 50H42.4174L26.5054 1.04002H16.2714L0.359375 50ZM13.4834 32.286L21.3034 8.14602L29.2254 32.286H13.4834Z" fill="#F1F2FB"></path> <path d="M48.5172 50H69.5972C74.2665 50 77.8705 48.6967 80.4092 46.09C82.9705 43.4834 84.2512 40.0267 84.2512 35.72C84.2512 33.1134 83.6052 30.79 82.3132 28.75C81.0212 26.71 79.1625 25.1687 76.7372 24.126C78.3465 23.1967 79.6159 21.8707 80.5452 20.148C81.4745 18.4254 81.9392 16.442 81.9392 14.198C81.9392 11.9767 81.4065 9.86869 80.3412 7.87402C79.2759 5.85668 77.6892 4.21335 75.5812 2.94402C73.4959 1.67469 70.8892 1.04002 67.7612 1.04002H48.5172V50ZM55.7252 21.032V7.73802H67.6592C69.7899 7.73802 71.4899 8.35002 72.7592 9.57402C74.0285 10.798 74.6632 12.362 74.6632 14.266C74.6632 16.3967 73.9832 18.0627 72.6232 19.264C71.2859 20.4427 69.6312 21.032 67.6592 21.032H55.7252ZM55.7252 43.234V27.73H68.9512C71.3992 27.73 73.3485 28.4894 74.7992 30.008C76.2499 31.504 76.9752 33.3627 76.9752 35.584C76.9752 37.964 76.1705 39.834 74.5612 41.194C72.9519 42.554 70.9345 43.234 68.5092 43.234H55.7252Z" fill="#F1F2FB"></path> <path d="M101.895 50H109.001V7.73802H125.287V1.04002H85.6091V7.73802H101.895V50Z" fill="#F1F2FB"></path> <path d="M151.162 51.02C156.058 51.02 160.229 49.9434 163.674 47.79C167.119 45.6367 169.749 42.656 171.562 38.848C173.375 35.0174 174.282 30.5747 174.282 25.52C174.282 20.4654 173.375 16.034 171.562 12.226C169.749 8.39535 167.119 5.40335 163.674 3.25002C160.229 1.09669 156.058 0.0200195 151.162 0.0200195C146.266 0.0200195 142.095 1.09669 138.65 3.25002C135.205 5.40335 132.564 8.39535 130.728 12.226C128.915 16.034 128.008 20.4654 128.008 25.52C128.008 30.5747 128.915 35.0174 130.728 38.848C132.564 42.656 135.205 45.6367 138.65 47.79C142.095 49.9434 146.266 51.02 151.162 51.02ZM151.162 44.254C145.971 44.2087 142.061 42.4747 139.432 39.052C136.825 35.6294 135.533 31.1187 135.556 25.52C135.579 21.78 136.157 18.5047 137.29 15.694C138.446 12.8607 140.18 10.662 142.492 9.09802C144.804 7.51135 147.694 6.74069 151.162 6.78602C156.375 6.80868 160.274 8.53135 162.858 11.954C165.442 15.3767 166.734 19.8987 166.734 25.52C166.734 29.26 166.156 32.5467 165 35.38C163.867 38.1907 162.144 40.378 159.832 41.942C157.52 43.506 154.63 44.2767 151.162 44.254Z" fill="#F1F2FB"></path> <path d="M181.064 50H188.17V7.73802H212.888V50H219.994V1.04002H181.064V50Z" fill="#F1F2FB"></path> <path d="M229.541 50H236.647V32.422H249.329C249.782 32.422 250.36 32.3994 251.063 32.354C251.788 32.3087 252.468 32.2407 253.103 32.15C257.183 31.4927 260.243 29.7474 262.283 26.914C264.345 24.0807 265.377 20.6807 265.377 16.714C265.377 12.7474 264.357 9.34735 262.317 6.51402C260.277 3.68069 257.205 1.94669 253.103 1.31202C252.468 1.19869 251.799 1.13069 251.097 1.10802C250.394 1.06268 249.805 1.04002 249.329 1.04002H229.541V50ZM236.647 25.69V7.73802H249.057C249.51 7.73802 250.009 7.76069 250.553 7.80602C251.119 7.85135 251.652 7.94202 252.151 8.07802C254.327 8.57668 255.868 9.68735 256.775 11.41C257.681 13.1327 258.135 14.9007 258.135 16.714C258.135 18.5047 257.681 20.2727 256.775 22.018C255.868 23.7407 254.327 24.8627 252.151 25.384C251.652 25.4974 251.119 25.5767 250.553 25.622C250.009 25.6674 249.51 25.69 249.057 25.69H236.647Z" fill="#F1F2FB"></path> <path d="M292.607 51.02C297.503 51.02 301.674 49.9434 305.119 47.79C308.565 45.6367 311.194 42.656 313.007 38.848C314.821 35.0174 315.727 30.5747 315.727 25.52C315.727 20.4654 314.821 16.034 313.007 12.226C311.194 8.39535 308.565 5.40335 305.119 3.25002C301.674 1.09669 297.503 0.0200195 292.607 0.0200195C287.711 0.0200195 283.541 1.09669 280.095 3.25002C276.65 5.40335 274.009 8.39535 272.173 12.226C270.36 16.034 269.453 20.4654 269.453 25.52C269.453 30.5747 270.36 35.0174 272.173 38.848C274.009 42.656 276.65 45.6367 280.095 47.79C283.541 49.9434 287.711 51.02 292.607 51.02ZM292.607 44.254C287.417 44.2087 283.507 42.4747 280.877 39.052C278.271 35.6294 276.979 31.1187 277.001 25.52C277.024 21.78 277.602 18.5047 278.735 15.694C279.891 12.8607 281.625 10.662 283.937 9.09802C286.249 7.51135 289.139 6.74069 292.607 6.78602C297.821 6.80868 301.719 8.53135 304.303 11.954C306.887 15.3767 308.179 19.8987 308.179 25.52C308.179 29.26 307.601 32.5467 306.445 35.38C305.312 38.1907 303.589 40.378 301.277 41.942C298.965 43.506 296.075 44.2767 292.607 44.254Z" fill="#F1F2FB"></path> <path d="M321.829 31.402H342.229V25.69H321.829V31.402Z" fill="#F1F2FB"></path> <path d="M3.75937 122H24.8394C29.5087 122 33.1127 120.697 35.6514 118.09C38.2127 115.483 39.4934 112.027 39.4934 107.72C39.4934 105.113 38.8474 102.79 37.5554 100.75C36.2634 98.71 34.4047 97.1687 31.9794 96.126C33.5887 95.1967 34.858 93.8707 35.7874 92.148C36.7167 90.4254 37.1814 88.442 37.1814 86.198C37.1814 83.9767 36.6487 81.8687 35.5834 79.874C34.518 77.8567 32.9314 76.2133 30.8234 74.944C28.738 73.6747 26.1314 73.04 23.0034 73.04H3.75937V122ZM10.9674 93.032V79.738H22.9014C25.032 79.738 26.732 80.35 28.0014 81.574C29.2707 82.798 29.9054 84.362 29.9054 86.266C29.9054 88.3967 29.2254 90.0627 27.8654 91.264C26.528 92.4427 24.8734 93.032 22.9014 93.032H10.9674ZM10.9674 115.234V99.73H24.1934C26.6414 99.73 28.5907 100.489 30.0414 102.008C31.492 103.504 32.2174 105.363 32.2174 107.584C32.2174 109.964 31.4127 111.834 29.8034 113.194C28.194 114.554 26.1767 115.234 23.7514 115.234H10.9674Z" fill="#F1F2FB"></path> <path d="M46.2594 122H77.5394V115.302H53.3654V100.172H73.4594V93.474H53.3654V79.738H77.5394V73.04H46.2594V122Z" fill="#F1F2FB"></path> <path d="M85.7047 122H92.8107V104.422H105.493C105.946 104.422 106.524 104.399 107.227 104.354C107.952 104.309 108.632 104.241 109.267 104.15C113.347 103.493 116.407 101.747 118.447 98.914C120.509 96.0807 121.541 92.6807 121.541 88.714C121.541 84.7474 120.521 81.3474 118.481 78.514C116.441 75.6807 113.369 73.9467 109.267 73.312C108.632 73.1987 107.963 73.1307 107.261 73.108C106.558 73.0627 105.969 73.04 105.493 73.04H85.7047V122ZM92.8107 97.69V79.738H105.221C105.674 79.738 106.173 79.7607 106.717 79.806C107.283 79.8513 107.816 79.942 108.315 80.078C110.491 80.5767 112.032 81.6874 112.939 83.41C113.845 85.1327 114.299 86.9007 114.299 88.714C114.299 90.5047 113.845 92.2727 112.939 94.018C112.032 95.7407 110.491 96.8627 108.315 97.384C107.816 97.4974 107.283 97.5767 106.717 97.622C106.173 97.6673 105.674 97.69 105.221 97.69H92.8107Z" fill="#F1F2FB"></path> <path d="M128.338 122H135.443V98.608L157.271 122H166.383L143.128 96.942L164.786 73.04H155.945L135.443 95.888V73.04H128.338V122Z" fill="#F1F2FB"></path> <path d="M167.77 122H175.148L178.718 110.95H198.812L202.45 122H209.828L193.916 73.04H183.682L167.77 122ZM180.894 104.286L188.714 80.146L196.636 104.286H180.894Z" fill="#F1F2FB"></path> </svg> 