<?xml version="1.0" encoding="UTF-8"?> <svg xmlns="http://www.w3.org/2000/svg" width="25" height="25" viewBox="0 0 25 25" fill="none"> <path fill-rule="evenodd" clip-rule="evenodd" d="M24.1811 16.899C23.4258 16.7245 22.5135 16.5975 21.4974 16.5054C21.5069 16.0589 21.5252 15.176 21.5283 14.7776C21.5408 13.0074 19.077 12.9977 19.0635 14.8987C19.0605 15.3179 19.0604 15.9735 19.061 16.3505C18.4918 16.3265 17.9074 16.3087 17.3122 16.2952C17.3207 15.5304 17.3298 14.6987 17.3319 14.4273C17.3421 12.9584 15.6492 12.7028 15.064 13.7436L13.7752 10.9115C19.0515 10.938 22.9046 11.5566 24.987 12.6921L24.1579 13.9357L24.1811 16.899ZM11.4217 15.1054C11.4222 14.5393 11.4222 13.6102 11.4191 13.1962C11.4056 11.2954 8.94208 11.3049 8.95458 13.075C8.95739 13.4367 8.97244 14.4745 8.98239 15.1327C8.20535 15.1472 7.46249 15.1681 6.7556 15.198C6.75586 14.6385 6.75535 13.902 6.7528 13.5462C6.73928 11.6454 4.2755 11.6549 4.288 13.4255C4.29055 13.7638 4.30407 14.6957 4.31402 15.3533C3.13367 15.4605 2.09897 15.6125 1.23341 15.8296L1.25892 12.5666L0.301268 11.1301C2.70739 9.81761 5.4681 9.10333 11.5645 9.07246L14.2245 15.1003C13.2556 15.0998 12.3219 15.1008 11.4217 15.1054ZM1.23673 9.28088L1.25892 6.51914L0.255859 5.20078C1.22168 4.2069 4.08775 2.52629 6.9602 2.29593L9.34285 7.9097C6.42958 8.00843 3.31708 8.41787 1.23673 9.28088ZM16.364 16.3061L19.0587 22.7421L16.0877 22.7306C16.088 21.925 16.0885 20.5339 16.0852 20.1043C16.0714 18.2041 13.6079 18.213 13.6204 19.9837C13.6232 20.3533 13.639 21.8174 13.649 22.7207L11.4214 22.7123C11.4219 21.9334 11.4224 20.4163 11.4189 19.9645C11.4053 18.0638 8.94183 18.0732 8.95433 19.8434C8.95713 20.2306 8.97448 21.8151 8.98443 22.7023L6.75535 22.6934C6.75586 21.8768 6.75586 20.7028 6.7528 20.3148C6.73928 18.414 4.2755 18.4235 4.288 20.1941C4.29055 20.5314 4.30382 21.7811 4.31402 22.6839L1.24183 22.6719L1.2903 18.5301L0.541319 17.313C3.83086 16.2528 9.43979 16.3026 16.364 16.3061ZM24.7747 18.0505L24.1311 19.0964L24.1735 22.6809L21.5002 22.7248C21.5105 22.0143 21.5263 20.8679 21.5288 20.501C21.5393 19.0174 19.811 18.7717 19.2428 19.8498L18.1602 17.2495C20.724 17.3475 23.1747 17.5661 24.7747 18.0505Z" fill="#5B6CFF"></path> </svg> 