<?xml version="1.0" encoding="UTF-8"?> <svg xmlns="http://www.w3.org/2000/svg" width="298" height="231" viewBox="0 0 298 231" fill="none"> <path d="M245.8 0.5H52.2H52.1762C43.2355 0.5 36.4981 0.499999 31.1417 0.937634C25.7748 1.37613 21.7501 2.25649 18.2453 4.04229C12.13 7.15817 7.15817 12.13 4.04229 18.2453C2.25649 21.7501 1.37613 25.7748 0.937634 31.1417C0.499999 36.4981 0.5 43.2355 0.5 52.1762V52.2V178.8V178.824C0.5 187.765 0.499999 194.502 0.937634 199.858C1.37613 205.225 2.25649 209.25 4.04229 212.755C7.15817 218.87 12.13 223.842 18.2453 226.958C21.7501 228.744 25.7748 229.624 31.1417 230.062C36.4981 230.5 43.2352 230.5 52.1757 230.5H52.2H245.8H245.824C254.765 230.5 261.502 230.5 266.858 230.062C272.225 229.624 276.25 228.744 279.755 226.958C285.87 223.842 290.842 218.87 293.958 212.755C295.744 209.25 296.624 205.225 297.062 199.858C297.5 194.502 297.5 187.765 297.5 178.824V178.8V52.2V52.1757C297.5 43.2352 297.5 36.4981 297.062 31.1417C296.624 25.7748 295.744 21.7501 293.958 18.2453C290.842 12.13 285.87 7.15817 279.755 4.04229C276.25 2.25649 272.225 1.37613 266.858 0.937634C261.502 0.499999 254.765 0.5 245.824 0.5H245.8Z" stroke="url(#paint0_linear_208_671)" stroke-opacity="0.5"></path> <defs> <linearGradient id="paint0_linear_208_671" x1="185.24" y1="0.999999" x2="39.8612" y2="186.774" gradientUnits="userSpaceOnUse"> <stop stop-color="#F1F2FB"></stop> <stop offset="1" stop-color="#F1F2FB" stop-opacity="0.32"></stop> </linearGradient> </defs> </svg> 