<?xml version="1.0" encoding="UTF-8"?> <svg xmlns="http://www.w3.org/2000/svg" width="317" height="110" viewBox="0 0 317 110" fill="none"> <path d="M0.851562 41.1414H18.22C22.0672 41.1414 25.0367 40.0675 27.1284 37.9198C29.2387 35.7721 30.2939 32.9241 30.2939 29.3757C30.2939 27.228 29.7616 25.3137 28.6971 23.6329C27.6326 21.9521 26.1012 20.6821 24.1029 19.823C25.4289 19.0573 26.4747 17.9648 27.2404 16.5454C28.0061 15.1261 28.389 13.4919 28.389 11.643C28.389 9.81281 27.9501 8.07597 27.0723 6.4325C26.1946 4.77036 24.8873 3.41636 23.1504 2.37052C21.4322 1.32468 19.2845 0.801758 16.7073 0.801758H0.851562V41.1414ZM6.79045 17.2738V6.32045H16.6232C18.3788 6.32045 19.7794 6.82469 20.8253 7.83318C21.8711 8.84167 22.3941 10.1303 22.3941 11.6991C22.3941 13.4546 21.8338 14.8273 20.7132 15.8171C19.6114 16.7882 18.248 17.2738 16.6232 17.2738H6.79045ZM6.79045 35.5667V22.7925H17.6878C19.7047 22.7925 21.3109 23.4181 22.5061 24.6694C23.7014 25.902 24.299 27.4334 24.299 29.2636C24.299 31.2246 23.636 32.7653 22.31 33.8859C20.984 35.0064 19.3219 35.5667 17.3236 35.5667H6.79045Z" fill="#F1F2FB"></path> <path d="M67.6081 41.1414H61.6692V11.1388L41.8075 41.1414H35.8686V0.801758H41.8075V30.7764L61.6692 0.801758H67.6081V41.1414Z" fill="#F1F2FB"></path> <path d="M75.4269 41.1414H81.2818V26.6583H91.7309C92.1044 26.6583 92.5806 26.6397 93.1596 26.6023C93.7572 26.565 94.3175 26.5089 94.8404 26.4342C98.202 25.8926 100.723 24.4546 102.404 22.1201C104.104 19.7857 104.953 16.9843 104.953 13.716C104.953 10.4478 104.113 7.64642 102.432 5.31195C100.751 2.97748 98.2207 1.54879 94.8404 1.02587C94.3175 0.932489 93.7665 0.876461 93.1876 0.857784C92.6086 0.820433 92.1231 0.801758 91.7309 0.801758H75.4269V41.1414ZM81.2818 21.1116V6.32045H91.5068C91.8803 6.32045 92.2911 6.33912 92.7394 6.37647C93.2063 6.41382 93.6451 6.48853 94.056 6.60058C95.8489 7.01145 97.1188 7.92656 97.8659 9.34592C98.6129 10.7653 98.9864 12.222 98.9864 13.716C98.9864 15.1914 98.6129 16.6481 97.8659 18.0862C97.1188 19.5055 95.8489 20.43 94.056 20.8595C93.6451 20.9529 93.2063 21.0183 92.7394 21.0556C92.2911 21.093 91.8803 21.1116 91.5068 21.1116H81.2818Z" fill="#F1F2FB"></path> <path d="M120.61 41.1414H126.465V6.32045H139.884V0.801758H107.192V6.32045H120.61V41.1414Z" fill="#F1F2FB"></path> <path d="M150.166 41.1414H156.497L175.378 0.801758H169.131L158.318 24.4733L147.784 0.801758H141.201L155.264 30.6923L150.166 41.1414Z" fill="#F1F2FB"></path> <path d="M173.026 41.1414H179.105L182.046 32.037H198.602L201.6 41.1414H207.679L194.568 0.801758H186.136L173.026 41.1414ZM183.839 26.5463L190.282 6.65661L196.81 26.5463H183.839Z" fill="#F1F2FB"></path> <path d="M211.764 41.1414C213.818 41.5896 215.508 41.6363 216.834 41.2815C218.16 40.9266 219.234 40.245 220.056 39.2365C220.877 38.228 221.531 36.958 222.017 35.4266C222.502 33.8952 222.913 32.177 223.249 30.2721C223.791 27.3027 224.22 24.3706 224.538 21.4758C224.855 18.5624 225.107 15.8077 225.294 13.2118C225.481 10.6159 225.64 8.31875 225.77 6.32045H240.898V41.1414H246.753V0.801758H220.28C220.168 3.30431 220.018 6.087 219.832 9.14982C219.645 12.194 219.383 15.3315 219.047 18.5624C218.711 21.7746 218.272 24.8841 217.731 27.8909C217.338 30.2441 216.918 32.037 216.47 33.2696C216.04 34.4835 215.461 35.2959 214.733 35.7068C214.023 36.0989 213.034 36.239 211.764 36.127V41.1414Z" fill="#F1F2FB"></path> <path d="M254.588 41.1414H270.892C271.284 41.1414 271.76 41.1227 272.32 41.0854C272.899 41.048 273.45 40.992 273.973 40.9173C277.372 40.3944 279.912 38.9657 281.593 36.6312C283.274 34.2967 284.114 31.4954 284.114 28.2271C284.114 24.9402 283.264 22.1295 281.565 19.795C279.865 17.4605 277.335 16.0318 273.973 15.5089C273.45 15.4155 272.899 15.3595 272.32 15.3408C271.741 15.3035 271.265 15.2848 270.892 15.2848H260.443V0.801758H254.588V41.1414ZM260.443 35.6227V20.8315H270.668C271.041 20.8315 271.452 20.8502 271.9 20.8875C272.348 20.9249 272.778 20.9903 273.189 21.0836C275 21.5132 276.28 22.4376 277.027 23.857C277.774 25.2763 278.147 26.733 278.147 28.2271C278.147 29.7025 277.774 31.1499 277.027 32.5692C276.28 33.9886 275 34.913 273.189 35.3426C272.778 35.4546 272.348 35.5293 271.9 35.5667C271.452 35.604 271.041 35.6227 270.668 35.6227H260.443Z" fill="#F1F2FB"></path> <path d="M289.729 25.8179H306.537V21.1116H289.729V25.8179Z" fill="#F1F2FB"></path> <path d="M0.851562 103.141H6.70641V85.7169H26.8762V103.141H32.7591V62.8018H26.8762V80.1982H6.70641V62.8018H0.851562V103.141Z" fill="#F1F2FB"></path> <path d="M37.8274 103.141H43.9063L46.8478 94.037H63.4038L66.4013 103.141H72.4802L59.3699 62.8018H50.9378L37.8274 103.141ZM48.6406 88.5463L55.0838 68.6566L61.611 88.5463H48.6406Z" fill="#F1F2FB"></path> <path d="M106.108 103.141H100.253V88.6583H89.5519L82.5205 103.141H75.8252L83.445 87.5098C81.1478 86.52 79.4297 84.9792 78.2905 82.8875C77.1512 80.7959 76.5816 78.4054 76.5816 75.716C76.5816 72.4478 77.422 69.6464 79.1028 67.312C80.7837 64.9775 83.3142 63.5488 86.6945 63.0259C87.2175 62.9325 87.7684 62.8765 88.3473 62.8578C88.9263 62.8204 89.4119 62.8018 89.8041 62.8018H106.108V103.141ZM100.253 83.1116V68.3204H90.0282C89.6546 68.3204 89.2344 68.3391 88.7675 68.3765C88.3193 68.4138 87.8898 68.4885 87.4789 68.6006C85.686 69.0114 84.4161 69.9266 83.6691 71.3459C82.922 72.7653 82.5485 74.222 82.5485 75.716C82.5485 77.1914 82.922 78.6481 83.6691 80.0862C84.4161 81.5055 85.686 82.43 87.4789 82.8595C87.8898 82.9529 88.3193 83.0183 88.7675 83.0556C89.2344 83.093 89.6546 83.1116 90.0282 83.1116H100.253Z" fill="#F1F2FB"></path> <path d="M123.117 109.865H128.972V103.141H154.997V109.865H160.879V97.6227H157.882V62.8018L132.053 62.7737C131.885 65.6125 131.727 68.2364 131.577 70.6456C131.446 73.0548 131.297 75.3799 131.129 77.621C130.98 79.8621 130.793 82.1685 130.569 84.5403C130.345 86.8561 130.008 89.0132 129.56 91.0115C129.112 92.9911 128.384 94.5879 127.375 95.8018C126.385 97.0158 124.966 97.6227 123.117 97.6227V109.865ZM132.726 97.6227C133.548 96.7263 134.173 95.7551 134.603 94.7093C135.032 93.6634 135.368 92.4308 135.611 91.0115C135.854 89.5735 136.069 87.8273 136.255 85.7729C136.48 83.6066 136.648 81.5896 136.76 79.722C136.89 77.8544 137.003 75.9962 137.096 74.1473C137.208 72.2984 137.329 70.3468 137.46 68.2924L152.027 68.3204V97.6227H132.726Z" fill="#F1F2FB"></path> <path d="M183.855 103.982C187.889 103.982 191.325 103.095 194.164 101.321C197.002 99.5463 199.169 97.0905 200.663 93.9529C202.157 90.7967 202.904 87.1363 202.904 82.9716C202.904 78.8069 202.157 75.1558 200.663 72.0182C199.169 68.862 197.002 66.3968 194.164 64.6226C191.325 62.8484 187.889 61.9613 183.855 61.9613C179.821 61.9613 176.384 62.8484 173.546 64.6226C170.707 66.3968 168.531 68.862 167.018 72.0182C165.524 75.1558 164.777 78.8069 164.777 82.9716C164.777 87.1363 165.524 90.7967 167.018 93.9529C168.531 97.0905 170.707 99.5463 173.546 101.321C176.384 103.095 179.821 103.982 183.855 103.982ZM183.855 98.4071C179.578 98.3697 176.356 96.941 174.19 94.121C172.042 91.301 170.978 87.5845 170.996 82.9716C171.015 79.8901 171.491 77.1914 172.425 74.8756C173.377 72.5412 174.806 70.7296 176.711 69.441C178.616 68.1337 180.997 67.4987 183.855 67.5361C188.15 67.5547 191.362 68.9741 193.491 71.7941C195.62 74.6142 196.685 78.34 196.685 82.9716C196.685 86.0531 196.209 88.7611 195.256 91.0955C194.322 93.4113 192.903 95.2135 190.998 96.5022C189.093 97.7908 186.712 98.4258 183.855 98.4071Z" fill="#F1F2FB"></path> <path d="M225.328 103.982C229.978 103.982 233.825 102.805 236.87 100.452C239.932 98.0989 242.061 94.9334 243.257 90.9555L237.318 89.3587C236.515 92.1787 235.114 94.3918 233.116 95.9979C231.117 97.604 228.521 98.4071 225.328 98.4071C222.471 98.4071 220.08 97.7628 218.156 96.4742C216.251 95.1855 214.813 93.3833 213.842 91.0675C212.89 88.7517 212.423 86.0531 212.442 82.9716C212.46 79.8901 212.946 77.1914 213.898 74.8756C214.851 72.5598 216.28 70.7576 218.184 69.469C220.089 68.1804 222.471 67.5361 225.328 67.5361C228.521 67.5361 231.117 68.3391 233.116 69.9452C235.114 71.5514 236.515 73.7644 237.318 76.5845L243.257 74.9877C242.061 71.0098 239.932 67.8442 236.87 65.4911C233.825 63.1379 229.978 61.9613 225.328 61.9613C221.294 61.9613 217.858 62.8484 215.019 64.6226C212.18 66.3968 210.004 68.862 208.492 72.0182C206.998 75.1558 206.251 78.8069 206.251 82.9716C206.251 87.1363 206.998 90.7967 208.492 93.9529C210.004 97.0905 212.18 99.5463 215.019 101.321C217.858 103.095 221.294 103.982 225.328 103.982Z" fill="#F1F2FB"></path> <path d="M249.418 103.141H255.273V83.868L273.257 103.141H280.765L261.604 82.4953L279.448 62.8018H272.165L255.273 81.6269V62.8018H249.418V103.141Z" fill="#F1F2FB"></path> <path d="M281.907 103.141H287.986L290.928 94.037H307.484L310.481 103.141H316.56L303.45 62.8018H295.018L281.907 103.141ZM292.72 88.5463L299.164 68.6566L305.691 88.5463H292.72Z" fill="#F1F2FB"></path> </svg> 