<?xml version="1.0" encoding="UTF-8"?> <svg xmlns="http://www.w3.org/2000/svg" width="962" height="1028" viewBox="0 0 962 1028" fill="none"> <path d="M909.8 0.5H52.2H52.1762C43.2355 0.5 36.4981 0.499999 31.1417 0.937634C25.7748 1.37613 21.7501 2.25649 18.2453 4.04229C12.13 7.15817 7.15817 12.13 4.04229 18.2453C2.25649 21.7501 1.37613 25.7748 0.937634 31.1418C0.499999 36.4982 0.5 43.2355 0.5 52.1762V52.2V975.8V975.824C0.5 984.765 0.499999 991.502 0.937634 996.858C1.37613 1002.23 2.25649 1006.25 4.04229 1009.75C7.15817 1015.87 12.13 1020.84 18.2453 1023.96C21.7501 1025.74 25.7748 1026.62 31.1417 1027.06C36.4984 1027.5 43.2362 1027.5 52.1776 1027.5H52.2H909.8H909.822C918.764 1027.5 925.502 1027.5 930.858 1027.06C936.225 1026.62 940.25 1025.74 943.755 1023.96C949.87 1020.84 954.842 1015.87 957.958 1009.75C959.744 1006.25 960.624 1002.23 961.062 996.858C961.5 991.502 961.5 984.764 961.5 975.822V975.8V52.2V52.1776C961.5 43.2361 961.5 36.4984 961.062 31.1417C960.624 25.7748 959.744 21.7501 957.958 18.2453C954.842 12.13 949.87 7.15817 943.755 4.04229C940.25 2.25649 936.225 1.37613 930.858 0.937634C925.502 0.499999 918.765 0.5 909.824 0.5H909.8Z" stroke="url(#paint0_linear_165_6895)" stroke-opacity="0.5"></path> <defs> <linearGradient id="paint0_linear_165_6895" x1="598.534" y1="0.999995" x2="-70.4565" y2="619.831" gradientUnits="userSpaceOnUse"> <stop stop-color="#F1F2FB"></stop> <stop offset="1" stop-color="#F1F2FB" stop-opacity="0.32"></stop> </linearGradient> </defs> </svg> 