<?xml version="1.0" encoding="UTF-8"?> <svg xmlns="http://www.w3.org/2000/svg" width="25" height="25" viewBox="0 0 25 25" fill="none"> <path d="M21.6886 2.60724C21.4602 2.58534 21.2292 2.66549 21.062 2.83307L7.76956 16.1265C9.38049 17.4161 10.4164 19.3948 10.4164 21.6146C10.4164 21.8792 10.3988 22.1391 10.3707 22.3959H16.6664V17.4479C16.6664 17.0167 17.0159 16.6667 17.4477 16.6667H22.3956V3.38544C22.3956 3.06981 22.2056 2.78454 21.9134 2.66319C21.8403 2.63272 21.7648 2.61454 21.6886 2.60724ZM6.65465 17.2404L2.83283 21.0622C2.60887 21.2857 2.54211 21.622 2.66295 21.9137C2.78378 22.2059 3.06905 22.3959 3.3852 22.3959H8.79189C8.82887 22.1401 8.85395 21.8808 8.85395 21.6146C8.85395 19.8255 7.98642 18.2389 6.65465 17.2404ZM18.2289 18.2292V22.3959H21.6144C22.0461 22.3959 22.3956 22.0459 22.3956 21.6146V18.2292H18.2289Z" fill="#5B6CFF"></path> </svg> 