<?xml version="1.0" encoding="UTF-8"?> <svg xmlns="http://www.w3.org/2000/svg" width="24" height="24" viewBox="0 0 24 24" fill="none"> <path fill-rule="evenodd" clip-rule="evenodd" d="M12.0019 2C9.28535 2 8.94516 2.01251 7.87831 2.06003C6.81521 2.10881 6.0873 2.27766 5.45194 2.5253C4.78435 2.7762 4.17954 3.16974 3.67969 3.67844C3.17053 4.17817 2.77657 4.78299 2.5253 5.45069C2.27766 6.0873 2.10881 6.81396 2.06003 7.8783C2.01251 8.94515 2 9.2866 2 12.0031C2 14.7197 2.01251 15.0598 2.06003 16.1267C2.10881 17.191 2.27766 17.9177 2.5253 18.5543C2.78044 19.2122 3.12313 19.77 3.67844 20.3266C4.23501 20.8819 4.79157 21.2246 5.45069 21.4797C6.0873 21.7273 6.81396 21.8962 7.87831 21.945C8.94516 21.9937 9.28535 22.005 12.0019 22.005C14.7184 22.005 15.0598 21.9925 16.1267 21.945C17.191 21.8962 17.9177 21.7273 18.5543 21.4797C19.2219 21.2288 19.8267 20.8353 20.3266 20.3266C20.8353 19.8267 21.2288 19.2219 21.4797 18.5543C21.7273 17.9177 21.8962 17.191 21.945 16.1267C21.9937 15.0598 22.005 14.7197 22.005 12.0031C22.005 9.2866 21.9925 8.94515 21.945 7.8783C21.8962 6.81396 21.7273 6.0873 21.4797 5.45069C21.2288 4.7831 20.8353 4.17829 20.3266 3.67844C19.8267 3.16974 19.2219 2.7762 18.5543 2.5253C17.9177 2.27766 17.191 2.10881 16.1267 2.06003C15.0598 2.01126 14.7184 2 12.0019 2ZM10.7062 15.1013C11.1182 15.2649 11.5587 15.3448 12.0019 15.3362C12.8749 15.3193 13.7064 14.9607 14.3178 14.3373C14.9292 13.7139 15.2717 12.8756 15.2717 12.0025C15.2717 11.1293 14.9292 10.291 14.3178 9.66767C13.7064 9.04431 12.8749 8.68565 12.0019 8.66874C11.5587 8.66015 11.1182 8.74004 10.7062 8.90372C10.2942 9.0674 9.91899 9.31159 9.6025 9.62201C9.28601 9.93242 9.0346 10.3028 8.86297 10.7116C8.69134 11.1203 8.60294 11.5592 8.60294 12.0025C8.60294 12.4458 8.69134 12.8847 8.86297 13.2934C9.0346 13.7021 9.28601 14.0725 9.6025 14.383C9.91899 14.6934 10.2942 14.9376 10.7062 15.1013ZM10.0117 7.23417C10.6441 6.98083 11.3207 6.85584 12.0019 6.86647C13.3502 6.88751 14.6361 7.43788 15.5821 8.39878C16.5281 9.35968 17.0584 10.654 17.0584 12.0025C17.0584 13.3509 16.5281 14.6453 15.5821 15.6062C14.6361 16.5671 13.3502 17.1175 12.0019 17.1385C11.3207 17.1491 10.6441 17.0241 10.0117 16.7708C9.37926 16.5175 8.80353 16.1408 8.31804 15.6629C7.83254 15.1849 7.44698 14.6151 7.18381 13.9867C6.92063 13.3583 6.7851 12.6838 6.7851 12.0025C6.7851 11.3212 6.92063 10.6467 7.18381 10.0183C7.44698 9.38987 7.83254 8.82008 8.31804 8.34211C8.80353 7.86413 9.37926 7.48751 10.0117 7.23417ZM18.1901 7.51161C18.4153 7.28644 18.5418 6.98105 18.5418 6.66261C18.5418 6.34417 18.4153 6.03877 18.1901 5.8136C17.965 5.58843 17.6596 5.46193 17.3411 5.46193C17.0227 5.46193 16.7173 5.58843 16.4921 5.8136C16.267 6.03877 16.1405 6.34417 16.1405 6.66261C16.1405 6.98105 16.267 7.28644 16.4921 7.51161C16.7173 7.73678 17.0227 7.86328 17.3411 7.86328C17.6596 7.86328 17.965 7.73678 18.1901 7.51161Z" fill="white"></path> </svg> 