<?xml version="1.0" encoding="UTF-8"?> <svg xmlns="http://www.w3.org/2000/svg" width="167" height="23" viewBox="0 0 167 23" fill="none"> <g clip-path="url(#clip0_121_825)"> <path d="M167 8.70891C167 6.37313 164.449 0.213989 157.225 0.213989C150 0.213989 147.449 6.37313 147.449 8.70891V17.0234C147.449 18.3975 148.958 19.2534 150.126 18.529C152.84 16.8429 156.113 13.3985 157.225 7.22391C158.336 13.3985 161.609 16.8429 164.323 18.529C165.488 19.2534 167 18.3975 167 17.0234V8.70891Z" fill="#4C4C63"></path> <path d="M108.766 0H108.371C105.563 0 103.301 0.894609 101.542 2.73539C99.7825 4.52718 98.9004 6.80367 98.9004 9.51585C98.9004 12.3724 99.7799 14.6721 101.562 16.4175C103.344 18.1371 105.606 19.0085 108.371 19.0085H108.766C111.531 19.0085 113.795 18.1371 115.575 16.4175C117.357 14.6747 118.237 12.375 118.237 9.51585C118.237 6.80367 117.357 4.52718 115.596 2.73539C113.837 0.894609 111.572 0 108.766 0ZM111.918 12.54C111.046 13.3263 109.952 13.6228 108.738 13.6228H108.397C107.182 13.6228 106.089 13.3289 105.217 12.54C104.345 11.7537 104.002 10.7946 104.002 9.49007C104.002 8.13914 104.348 7.25226 105.196 6.49171C106.027 5.72859 107.1 5.35992 108.376 5.35992H108.758C110.035 5.35992 111.108 5.72859 111.938 6.49171C112.79 7.25484 113.133 8.13914 113.133 9.49007C113.133 10.7946 112.787 11.7537 111.918 12.54Z" fill="#4C4C63"></path> <path d="M45.2911 0.850786C44.93 1.28133 44.7417 1.83563 44.7649 2.39766L44.7598 16.6702C44.7598 17.227 44.9377 17.7684 45.2937 18.1938C45.4871 18.4001 45.7218 18.5625 45.9849 18.6656C46.248 18.7713 46.4621 18.7894 46.8051 18.7894C47.3803 18.7894 47.8342 18.6862 48.2237 18.3356L59.6187 6.94547V16.6676C59.5981 17.2244 59.789 17.7684 60.15 18.1912C60.3435 18.3975 60.5782 18.5599 60.8413 18.6656C61.1018 18.7713 61.321 18.7971 61.6666 18.7971C62.0122 18.7971 62.265 18.7687 62.5307 18.663C62.7963 18.5573 63.0336 18.3975 63.2322 18.1912C63.6036 17.7736 63.7997 17.227 63.7764 16.6676V2.39766C63.779 1.7918 63.6011 1.28907 63.2271 0.868833C62.835 0.500161 62.3914 0.213989 61.8059 0.213989C61.2204 0.213989 60.6814 0.340317 60.279 0.742505L48.9149 12.1017V2.39766C48.9149 1.76602 48.7473 1.29164 48.3836 0.868833C48.185 0.657427 47.9425 0.492427 47.6743 0.384145C47.4061 0.275864 47.1481 0.216567 46.7974 0.216567C46.4466 0.216567 46.2402 0.275864 45.9797 0.378989C45.7192 0.482114 45.4845 0.644536 45.2911 0.850786Z" fill="#4C4C63"></path> <path d="M121.796 18.1938C121.994 18.4001 122.232 18.5625 122.497 18.6656C122.763 18.7713 123.016 18.7997 123.361 18.7997C123.707 18.7997 123.926 18.7739 124.187 18.6682C124.45 18.5625 124.684 18.4027 124.878 18.1938C125.239 17.771 125.43 17.227 125.409 16.6702V6.94805L131.494 13.0298C132.239 13.7749 133.451 13.7749 134.197 13.0298L140.281 6.94805V16.6702C140.26 17.227 140.449 17.771 140.81 18.1938C141.003 18.4027 141.241 18.5625 141.501 18.6682C141.764 18.7739 141.983 18.7997 142.329 18.7997C142.672 18.7997 142.927 18.7713 143.193 18.6656C143.456 18.5625 143.696 18.4001 143.892 18.1938C144.263 17.7762 144.459 17.2296 144.439 16.6702V2.39766C144.439 1.7918 144.261 1.28907 143.889 0.868833C143.497 0.502739 143.054 0.213989 142.468 0.213989C141.88 0.213989 141.341 0.342895 140.941 0.742505L132.845 8.83523L124.749 0.742505C124.347 0.342895 123.808 0.213989 123.222 0.213989C122.637 0.213989 122.19 0.502739 121.801 0.868833C121.427 1.28907 121.249 1.7918 121.251 2.39766V16.6702C121.231 17.2296 121.424 17.7762 121.796 18.1938Z" fill="#4C4C63"></path> <path d="M69.8259 13.7054C69.0599 13.7054 68.4357 13.9452 67.9792 14.4531C67.5485 14.9352 67.3086 15.5385 67.3086 16.2604C67.3086 16.9822 67.5253 17.5855 67.956 18.0676C68.3867 18.5497 69.0109 18.7895 69.8259 18.7895C70.641 18.7895 71.2651 18.5497 71.7191 18.0676C72.1756 17.5855 72.3897 16.9822 72.3897 16.2604C72.3897 15.5617 72.1498 14.9584 71.6933 14.4531C71.2419 13.9478 70.6177 13.7054 69.8259 13.7054Z" fill="#4C4C63"></path> <path d="M22.9275 0.853494C22.5613 1.27115 22.3652 1.87443 22.3652 2.46482V5.44771C22.3652 8.54404 22.9997 10.6813 24.2713 11.9085C26.0071 13.6281 28.5889 14.3886 31.9135 14.3886C34.6501 14.3886 36.0197 13.775 37.5595 13.1383V16.6986C37.5595 17.3122 37.7271 17.8201 38.0934 18.212C38.4596 18.6039 38.9781 18.7921 39.6383 18.7921C40.3218 18.7921 40.8944 18.6065 41.2349 18.212C41.6011 17.8201 41.7456 17.173 41.7456 16.6986V2.46482C41.7456 1.9492 41.5392 1.22217 41.1704 0.83029C40.8041 0.438416 40.2909 0.216697 39.6306 0.216697C38.9471 0.216697 38.4338 0.412634 38.0908 0.83029C37.7478 1.24795 37.5543 1.82802 37.5543 2.46482V8.83794C36.4298 9.94396 34.8435 10.6065 32.2282 10.6065C31.0314 10.6065 28.8159 10.2868 27.4721 9.03388C26.7628 8.3713 26.5513 7.04615 26.5513 5.22857V2.46482C26.5513 1.87443 26.3708 1.27115 26.0045 0.853494C25.6383 0.435837 25.1199 0.216697 24.4621 0.216697C23.8019 0.214119 23.2938 0.435837 22.9275 0.853494Z" fill="#4C4C63"></path> <path d="M0.53648 0.809536C0.172808 1.22204 0 1.72477 0 2.34352V2.36672C0 5.36508 0.755715 7.51781 2.26714 9.44367C3.80179 11.3721 6.27269 12.3363 9.7237 12.3363C11.4982 12.3363 13.0329 12.0476 14.3276 11.4933C14.4721 11.4211 14.8074 11.2767 14.9518 11.2277C14.0878 14.1436 11.6659 14.8655 9.19754 14.8912C6.70342 14.9144 5.45765 14.3859 3.99523 13.3005C2.74946 12.3853 1.76419 12.7695 1.16581 13.5661C0.46942 14.5071 0.613857 15.5667 1.8132 16.5541C3.5387 18.0005 6.31912 18.7945 9.22075 18.7945C10.9953 18.7945 13.0586 18.5084 14.3302 17.9541C15.625 17.3998 16.6335 16.6057 17.3273 15.5925C18.0237 14.5793 18.5498 13.4707 18.8619 12.2667C19.174 11.0627 19.3571 9.68344 19.3571 8.1907V2.46469C19.3571 1.815 19.174 1.27618 18.7897 0.840473C18.4312 0.407349 17.9024 0.213989 17.206 0.213989C16.5354 0.213989 16.0067 0.430552 15.6482 0.840473C15.2897 1.2736 15.1839 1.80469 15.1839 2.45438V2.57555C15.1839 6.93774 13.1463 8.43047 9.5741 8.43047C6.00187 8.43047 4.15772 6.6 4.15772 2.52657V2.34352C4.15772 1.72477 3.97459 1.19883 3.61092 0.809536C3.22404 0.397036 2.72109 0.213989 2.03759 0.213989C1.4031 0.213989 0.876938 0.397036 0.53648 0.809536Z" fill="#4C4C63"></path> <path d="M97.4075 22.1668C97.766 21.8342 97.9646 21.3624 97.9517 20.8752V17.552C97.9517 16.4537 97.1548 14.9042 95.2977 14.8578V3.24852C95.2977 1.58821 94.0752 0.242432 92.4141 0.242432H83.263C81.5865 0.242432 80.2866 1.59337 80.2453 3.19181C80.1576 6.40415 79.6031 9.39477 78.9377 11.7795C78.592 13.0222 78.2258 14.0586 77.9008 14.8552C77.7976 14.8552 77.7048 14.8552 77.6274 14.8552C75.7059 14.8552 74.8934 16.4408 74.8934 17.552V20.8752C74.8779 21.365 75.0765 21.8342 75.4376 22.1668C75.9432 22.5252 76.312 22.6644 76.9645 22.6644C77.6171 22.6644 78.1071 22.5174 78.494 22.1668C78.8629 21.8394 79.0666 21.3676 79.0511 20.8752V18.7946H93.7966V20.8752C93.7811 21.3676 93.9849 21.842 94.3537 22.1668C94.7406 22.5174 95.2436 22.6644 95.8987 22.6644C96.5538 22.6644 96.8994 22.5252 97.4075 22.1668ZM91.1323 4.14829V14.8527C88.4782 14.8527 85.0994 14.8527 82.3422 14.8527C82.5512 14.2416 82.7549 13.5868 82.9484 12.8959C83.6138 10.5137 84.1812 7.32969 84.3618 4.14829H91.1323Z" fill="#4C4C63"></path> </g> <defs> <clipPath id="clip0_121_825"> <rect width="167" height="22.6643" fill="white"></rect> </clipPath> </defs> </svg> 