<?xml version="1.0" encoding="UTF-8"?> <svg xmlns="http://www.w3.org/2000/svg" width="594" height="221" viewBox="0 0 594 221" fill="none"> <path d="M541.8 0.5H52.2H52.1762C43.2355 0.5 36.4981 0.499999 31.1417 0.937634C25.7748 1.37613 21.7501 2.25649 18.2453 4.04229C12.13 7.15817 7.15817 12.13 4.04229 18.2453C2.25649 21.7501 1.37613 25.7748 0.937634 31.1417C0.499999 36.4981 0.5 43.2355 0.5 52.1762V52.2V168.8V168.824C0.5 177.765 0.499999 184.502 0.937634 189.858C1.37613 195.225 2.25649 199.25 4.04229 202.755C7.15817 208.87 12.13 213.842 18.2453 216.958C21.7501 218.743 25.7748 219.624 31.1418 220.062C36.4982 220.5 43.2357 220.5 52.1767 220.5H52.2H541.8H541.823C550.764 220.5 557.502 220.5 562.858 220.062C568.225 219.624 572.25 218.743 575.755 216.958C581.87 213.842 586.842 208.87 589.958 202.755C591.743 199.25 592.624 195.225 593.062 189.858C593.5 184.502 593.5 177.764 593.5 168.822V168.8V52.2V52.1776C593.5 43.2361 593.5 36.4984 593.062 31.1417C592.624 25.7748 591.743 21.7501 589.958 18.2453C586.842 12.13 581.87 7.15817 575.755 4.04229C572.25 2.25649 568.225 1.37613 562.858 0.937634C557.502 0.499999 550.765 0.5 541.824 0.5H541.8Z" stroke="url(#paint0_linear_169_6899)" stroke-opacity="0.5"></path> <defs> <linearGradient id="paint0_linear_169_6899" x1="369.479" y1="0.999999" x2="275.454" y2="252.277" gradientUnits="userSpaceOnUse"> <stop stop-color="#F1F2FB"></stop> <stop offset="1" stop-color="#F1F2FB" stop-opacity="0.32"></stop> </linearGradient> </defs> </svg> 