<?xml version="1.0" encoding="UTF-8"?> <svg xmlns="http://www.w3.org/2000/svg" width="594" height="854" viewBox="0 0 594 854" fill="none"> <g filter="url(#filter0_b_179_898)"> <path d="M1 52.2C1 34.2783 1 25.3175 4.48779 18.4723C7.55574 12.4511 12.4511 7.55574 18.4723 4.48779C25.3175 1 34.2783 1 52.2 1H541.8C559.722 1 568.683 1 575.528 4.48779C581.549 7.55574 586.444 12.4511 589.512 18.4723C593 25.3175 593 34.2783 593 52.2V801.8C593 819.722 593 828.682 589.512 835.528C586.444 841.549 581.549 846.444 575.528 849.512C568.683 853 559.722 853 541.8 853H52.2C34.2783 853 25.3175 853 18.4723 849.512C12.4511 846.444 7.55574 841.549 4.48779 835.528C1 828.682 1 819.722 1 801.8V52.2Z" fill="#F1F2FB" fill-opacity="0.07"></path> <path d="M541.8 0.5H52.2H52.1762C43.2355 0.5 36.4981 0.499999 31.1417 0.937634C25.7748 1.37613 21.7501 2.25649 18.2453 4.04229C12.13 7.15817 7.15817 12.13 4.04229 18.2453C2.25649 21.7501 1.37613 25.7748 0.937634 31.1418C0.499999 36.4982 0.5 43.2355 0.5 52.1762V52.2V801.8V801.824C0.5 810.765 0.499999 817.502 0.937634 822.858C1.37613 828.225 2.25649 832.25 4.04229 835.755C7.15817 841.87 12.13 846.842 18.2453 849.958C21.7501 851.743 25.7748 852.624 31.1418 853.062C36.4984 853.5 43.2362 853.5 52.1776 853.5H52.2H541.8H541.822C550.764 853.5 557.502 853.5 562.858 853.062C568.225 852.624 572.25 851.743 575.755 849.958C581.87 846.842 586.842 841.87 589.958 835.755C591.744 832.25 592.624 828.225 593.062 822.858C593.5 817.502 593.5 810.764 593.5 801.822V801.8V52.2V52.1776C593.5 43.2361 593.5 36.4984 593.062 31.1417C592.624 25.7748 591.744 21.7501 589.958 18.2453C586.842 12.13 581.87 7.15817 575.755 4.04229C572.25 2.25649 568.225 1.37613 562.858 0.937634C557.502 0.499999 550.765 0.5 541.824 0.5H541.8Z" stroke="url(#paint0_linear_179_898)" stroke-opacity="0.5"></path> </g> <defs> <filter id="filter0_b_179_898" x="-20" y="-20" width="634" height="894" filterUnits="userSpaceOnUse" color-interpolation-filters="sRGB"> <feFlood flood-opacity="0" result="BackgroundImageFix"></feFlood> <feGaussianBlur in="BackgroundImage" stdDeviation="10"></feGaussianBlur> <feComposite in2="SourceAlpha" operator="in" result="effect1_backgroundBlur_179_898"></feComposite> <feBlend mode="normal" in="SourceGraphic" in2="effect1_backgroundBlur_179_898" result="shape"></feBlend> </filter> <linearGradient id="paint0_linear_179_898" x1="369.479" y1="0.999996" x2="-151.897" y2="357.796" gradientUnits="userSpaceOnUse"> <stop stop-color="#F1F2FB"></stop> <stop offset="1" stop-color="#F1F2FB" stop-opacity="0.32"></stop> </linearGradient> </defs> </svg> 