<?xml version="1.0" encoding="UTF-8"?> <svg xmlns="http://www.w3.org/2000/svg" width="63" height="48" viewBox="0 0 63 48" fill="none"> <path d="M7.0333 39.8669C6.8667 39.2335 6.5333 38.0335 4.7333 38.0335C3.7 38.0335 2.1333 38.7669 2.1333 41.7002C2.1333 43.5669 2.9333 45.2669 4.7333 45.2669C5.9333 45.2669 6.7667 44.5335 7.0333 43.2669H9.2C8.7667 45.5335 7.3 47.1002 4.7 47.1002C1.9667 47.1002 0 45.2335 0 41.6669C0 38.0335 2.0667 36.2002 4.7333 36.2002C7.8333 36.2002 9.0667 38.3335 9.2 39.8669H7.0333Z" fill="white"></path> <path d="M11.8008 42.067L14.3341 39.167H16.8008L14.1008 42.1337L16.8675 46.8337H14.4675L12.6341 43.5337L11.8008 44.4003V46.8337H9.80078V39.167H11.8008V42.067Z" fill="white"></path> <path d="M24.2337 43.0001C24.2337 45.7668 22.3671 47.0335 20.3337 47.0335C18.3004 47.0335 16.4004 45.7668 16.4004 43.0001C16.4004 40.2335 18.2671 38.9668 20.3337 38.9668C22.3671 38.9668 24.2337 40.2335 24.2337 43.0001ZM18.4671 43.0001C18.4671 43.9668 18.7671 45.3335 20.3337 45.3335C21.9004 45.3335 22.1671 43.9668 22.1671 43.0001C22.1671 42.0001 21.8671 40.6668 20.3337 40.6668C18.7671 40.6668 18.4671 42.0001 18.4671 43.0001Z" fill="white"></path> <path d="M31.7996 39.167V46.8337H29.7996V40.767H27.6329V43.1337C27.6329 46.067 26.7663 47.0003 25.3329 47.0003C24.9663 47.0003 24.3996 46.9337 24.0996 46.8337V45.3337C24.1329 45.367 24.3996 45.4003 24.6996 45.4003C25.2996 45.4003 25.5996 45.1003 25.5996 42.767V39.167H31.7996Z" fill="white"></path> <path d="M34.834 42.067L37.3673 39.167H39.834L37.134 42.1337L39.9007 46.8337H37.5007L35.6673 43.5337L34.834 44.4003V46.8337H32.834V39.167H34.834V42.067Z" fill="white"></path> <path d="M47.2337 43.0001C47.2337 45.7668 45.3671 47.0335 43.3337 47.0335C41.3004 47.0335 39.4004 45.7668 39.4004 43.0001C39.4004 40.2335 41.2671 38.9668 43.3337 38.9668C45.4004 38.9668 47.2337 40.2335 47.2337 43.0001ZM41.5004 43.0001C41.5004 43.9668 41.8004 45.3335 43.3671 45.3335C44.9004 45.3335 45.2004 43.9668 45.2004 43.0001C45.2004 42.0001 44.9004 40.6668 43.3671 40.6668C41.8004 40.6668 41.5004 42.0001 41.5004 43.0001Z" fill="white"></path> <path d="M47.9004 39.167H51.3671C53.0671 39.167 54.3337 39.867 54.3337 41.1337C54.3337 42.0003 53.7004 42.6003 52.9004 42.8003C53.7004 43.0003 54.5671 43.5003 54.5671 44.7337C54.5671 46.167 53.5004 46.8337 51.7671 46.8337H47.9337V39.167H47.9004ZM49.9004 42.267H51.2004C51.8671 42.267 52.3337 42.0003 52.3337 41.4003C52.3337 40.767 51.8671 40.5337 51.2004 40.5337H49.8671V42.267H49.9004ZM49.9004 45.467H51.3671C52.1004 45.467 52.5671 45.2337 52.5671 44.467C52.5671 43.8003 52.0671 43.5003 51.3337 43.5003H49.8671V45.467H49.9004Z" fill="white"></path> <path d="M62.6009 43.0001C62.6009 45.7668 60.7676 47.0335 58.7009 47.0335C56.6676 47.0335 54.7676 45.7668 54.7676 43.0001C54.7676 40.2335 56.6343 38.9668 58.7009 38.9668C60.7342 38.9668 62.6009 40.2335 62.6009 43.0001ZM56.8343 43.0001C56.8343 43.9668 57.1343 45.3335 58.7009 45.3335C60.2676 45.3335 60.5342 43.9668 60.5342 43.0001C60.5342 42.0001 60.2676 40.6668 58.7009 40.6668C57.1343 40.6668 56.8343 42.0001 56.8343 43.0001Z" fill="white"></path> <path d="M14.5663 34.5C16.2663 34.5 20.4996 34.2 23.6329 31.9V33.6333H29.9996V25.9667L32.6663 23.2333L38.4329 33.6667H46.0663L37.3329 18.7333L45.8663 9.3333H38.0663L30.0329 18.5333V0.8667H23.6663V3.6667C21.7329 1.6 18.5996 0 13.6996 0C3.09961 0 1.09961 6.4667 1.09961 10.0667C1.09961 15.0333 3.76631 17.8 8.39961 18.9L14.9996 20.5333C18.4663 21.4 20.9663 22.0333 20.9663 24.6C20.9663 28.0333 17.3663 28.8333 14.0996 28.8333C8.13291 28.8333 7.16631 25.3667 7.16631 23.5H0.599609C0.599609 27.6 2.66631 34.5 14.5663 34.5ZM18.8996 14.9667L10.8996 13.0333C9.53291 12.7333 7.43291 12.1667 7.43291 9.6C7.43291 6.6667 10.5329 5.6667 13.1663 5.6667C19.1329 5.6667 19.6663 9.1333 19.8329 10.6333H23.6663V16.7333C22.2663 15.9 20.6329 15.3667 18.8996 14.9667Z" fill="white"></path> </svg> 