<?xml version="1.0" encoding="UTF-8"?> <svg xmlns="http://www.w3.org/2000/svg" width="266" height="116" viewBox="0 0 266 116" fill="none"> <path d="M8.53702 44.771H17.0857V0.490234H8.53702L0.234375 5.47182V14.697L8.53702 9.59239V44.771Z" fill="#F1F2FB"></path> <path d="M28.1621 28.5962H53.9925V22.1386H28.1621V28.5962Z" fill="#F1F2FB"></path> <path d="M80.0099 44.771H88.497V37.8829H92.4331V30.0722H88.497V19.002H80.0099V30.0722H70.3542L84.3149 0.490234H74.7208L60.76 30.0722V37.8829H80.0099V44.771Z" fill="#F1F2FB"></path> <path d="M0.849385 114.771H9.21353V94.5986L26.8643 114.771H37.4425L17.7622 92.3231L36.274 70.4902H26.0648L9.21353 90.9086V70.4902H0.849385V114.771Z" fill="#F1F2FB"></path> <path d="M38.6749 114.771C41.8935 115.406 44.4048 115.314 46.2088 114.494C48.0333 113.674 49.4171 112.26 50.3601 110.251C51.3031 108.242 52.0617 105.771 52.6357 102.84C53.1072 100.585 53.5069 98.258 53.8349 95.8594C54.1629 93.4609 54.4397 91.1443 54.6652 88.9098C54.8907 86.6753 55.065 84.6355 55.188 82.7904C55.3315 80.9454 55.4442 79.4489 55.5262 78.3009H69.6715V114.771H78.0356V70.4902H47.8386C47.7771 71.8228 47.6848 73.6165 47.5618 75.8716C47.4388 78.1061 47.2646 80.5867 47.0391 83.3132C46.8136 86.0397 46.5266 88.8278 46.1781 91.6773C45.8501 94.5064 45.44 97.2022 44.948 99.7647C44.538 101.938 44.087 103.629 43.595 104.839C43.103 106.028 42.4675 106.848 41.6885 107.299C40.93 107.729 39.9255 107.903 38.6749 107.821V114.771Z" fill="#F1F2FB"></path> <path d="M83.5995 114.771H92.2097L95.008 105.546H111.675L114.535 114.771H123.145L109.614 70.4902H97.1297L83.5995 114.771ZM97.3757 97.7352L103.28 78.3316L109.276 97.7352H97.3757Z" fill="#F1F2FB"></path> <path d="M146.459 115.694C151.543 115.694 155.807 114.433 159.251 111.911C162.716 109.39 165.155 105.976 166.57 101.671L158.144 99.3342C157.324 101.999 155.94 104.08 153.993 105.577C152.045 107.073 149.534 107.821 146.459 107.821C142.256 107.821 139.089 106.448 136.957 103.701C134.845 100.933 133.79 97.2432 133.79 92.6306C133.79 88.018 134.845 84.3382 136.957 81.5912C139.089 78.8236 142.256 77.4398 146.459 77.4398C149.534 77.4398 152.045 78.1881 153.993 79.6846C155.94 81.1607 157.324 83.2414 158.144 85.927L166.57 83.59C165.155 79.2849 162.716 75.8716 159.251 73.35C155.807 70.8285 151.543 69.5677 146.459 69.5677C142.031 69.5677 138.207 70.5312 134.989 72.4583C131.791 74.3853 129.321 77.0811 127.578 80.5457C125.856 84.0102 124.995 88.0385 124.995 92.6306C124.995 97.2227 125.856 101.251 127.578 104.716C129.321 108.18 131.791 110.876 134.989 112.803C138.207 114.73 142.031 115.694 146.459 115.694Z" fill="#F1F2FB"></path> <path d="M192.344 115.694C197.429 115.694 201.693 114.433 205.137 111.911C208.601 109.39 211.041 105.976 212.455 101.671L204.03 99.3342C203.21 101.999 201.826 104.08 199.878 105.577C197.931 107.073 195.419 107.821 192.344 107.821C188.142 107.821 184.975 106.448 182.843 103.701C180.731 100.933 179.675 97.2432 179.675 92.6306C179.675 88.018 180.731 84.3382 182.843 81.5912C184.975 78.8236 188.142 77.4398 192.344 77.4398C195.419 77.4398 197.931 78.1881 199.878 79.6846C201.826 81.1607 203.21 83.2414 204.03 85.927L212.455 83.59C211.041 79.2849 208.601 75.8716 205.137 73.35C201.693 70.8285 197.429 69.5677 192.344 69.5677C187.916 69.5677 184.093 70.5312 180.874 72.4583C177.676 74.3853 175.206 77.0811 173.464 80.5457C171.742 84.0102 170.881 88.0385 170.881 92.6306C170.881 97.2227 171.742 101.251 173.464 104.716C175.206 108.18 177.676 110.876 180.874 112.803C184.093 114.73 187.916 115.694 192.344 115.694Z" fill="#F1F2FB"></path> <path d="M219.165 114.771H237.861C238.291 114.771 238.865 114.75 239.583 114.709C240.321 114.668 240.977 114.607 241.551 114.525C245.528 113.91 248.429 112.29 250.253 109.666C252.078 107.022 252.99 103.844 252.99 100.134C252.99 96.4027 252.068 93.2251 250.223 90.6011C248.378 87.977 245.487 86.3575 241.551 85.7425C240.977 85.64 240.321 85.5785 239.583 85.558C238.845 85.517 238.271 85.4965 237.861 85.4965H227.529V70.4902H219.165V114.771ZM227.529 106.96V93.3071H237.492C237.922 93.3071 238.394 93.3276 238.906 93.3686C239.419 93.4096 239.89 93.4916 240.321 93.6146C241.449 93.9221 242.32 94.4449 242.935 95.1829C243.55 95.9004 243.97 96.7102 244.196 97.6122C244.442 98.4937 244.565 99.3342 244.565 100.134C244.565 100.933 244.442 101.784 244.196 102.686C243.97 103.568 243.55 104.377 242.935 105.115C242.32 105.833 241.449 106.345 240.321 106.653C239.89 106.776 239.419 106.858 238.906 106.899C238.394 106.94 237.922 106.96 237.492 106.96H227.529ZM257.418 114.771H265.782V70.4902H257.418V114.771Z" fill="#F1F2FB"></path> </svg> 