<?xml version="1.0" encoding="UTF-8"?> <svg xmlns="http://www.w3.org/2000/svg" width="1138" height="595" viewBox="0 0 1138 595" fill="none"> <g filter="url(#filter0_b_179_1163)"> <path d="M1 52.2C1 34.2783 1 25.3175 4.48779 18.4723C7.55574 12.4511 12.4511 7.55574 18.4723 4.48779C25.3175 1 34.2783 1 52.2 1H1085.8C1103.72 1 1112.68 1 1119.53 4.48779C1125.55 7.55574 1130.44 12.4511 1133.51 18.4723C1137 25.3175 1137 34.2783 1137 52.2V541.8C1137 559.722 1137 568.682 1133.51 575.528C1130.44 581.549 1125.55 586.444 1119.53 589.512C1112.68 593 1103.72 593 1085.8 593H52.2C34.2783 593 25.3175 593 18.4723 589.512C12.4511 586.444 7.55574 581.549 4.48779 575.528C1 568.682 1 559.722 1 541.8V52.2Z" fill="#F1F2FB" fill-opacity="0.07"></path> <path d="M1085.8 0.5H52.2H52.1762C43.2355 0.5 36.4981 0.499999 31.1417 0.937634C25.7748 1.37613 21.7501 2.25649 18.2453 4.04229C12.13 7.15817 7.15817 12.13 4.04229 18.2453C2.25649 21.7501 1.37613 25.7748 0.937634 31.1418C0.499999 36.4981 0.5 43.2355 0.5 52.1762V52.2V541.8V541.824C0.5 550.765 0.499999 557.502 0.937634 562.858C1.37613 568.225 2.25649 572.25 4.04229 575.755C7.15817 581.87 12.13 586.842 18.2453 589.958C21.7501 591.743 25.7748 592.624 31.1417 593.062C36.4984 593.5 43.2361 593.5 52.1776 593.5H52.2H1085.8H1085.82C1094.76 593.5 1101.5 593.5 1106.86 593.062C1112.23 592.624 1116.25 591.743 1119.75 589.958C1125.87 586.842 1130.84 581.87 1133.96 575.755C1135.74 572.25 1136.62 568.225 1137.06 562.858C1137.5 557.502 1137.5 550.764 1137.5 541.822V541.8V52.2V52.1776C1137.5 43.2361 1137.5 36.4984 1137.06 31.1417C1136.62 25.7748 1135.74 21.7501 1133.96 18.2453C1130.84 12.13 1125.87 7.15817 1119.75 4.04229C1116.25 2.25649 1112.23 1.37613 1106.86 0.937634C1101.5 0.499999 1094.76 0.5 1085.82 0.5H1085.8Z" stroke="url(#paint0_linear_179_1163)" stroke-opacity="0.5"></path> </g> <defs> <filter id="filter0_b_179_1163" x="-20" y="-20" width="1178" height="634" filterUnits="userSpaceOnUse" color-interpolation-filters="sRGB"> <feFlood flood-opacity="0" result="BackgroundImageFix"></feFlood> <feGaussianBlur in="BackgroundImage" stdDeviation="10"></feGaussianBlur> <feComposite in2="SourceAlpha" operator="in" result="effect1_backgroundBlur_179_1163"></feComposite> <feBlend mode="normal" in="SourceGraphic" in2="effect1_backgroundBlur_179_1163" result="shape"></feBlend> </filter> <linearGradient id="paint0_linear_179_1163" x1="708.082" y1="0.999997" x2="388.654" y2="606.979" gradientUnits="userSpaceOnUse"> <stop stop-color="#F1F2FB"></stop> <stop offset="1" stop-color="#F1F2FB" stop-opacity="0.32"></stop> </linearGradient> </defs> </svg> 