<?xml version="1.0" encoding="UTF-8"?> <svg xmlns="http://www.w3.org/2000/svg" width="298" height="749" viewBox="0 0 298 749" fill="none"> <g filter="url(#filter0_b_179_1076)"> <path d="M1 52.2C1 34.2783 1 25.3175 4.48779 18.4723C7.55574 12.4511 12.4511 7.55574 18.4723 4.48779C25.3175 1 34.2783 1 52.2 1H245.8C263.722 1 272.683 1 279.528 4.48779C285.549 7.55574 290.444 12.4511 293.512 18.4723C297 25.3175 297 34.2783 297 52.2V696.8C297 714.722 297 723.683 293.512 730.528C290.444 736.549 285.549 741.444 279.528 744.512C272.683 748 263.722 748 245.8 748H52.2C34.2783 748 25.3175 748 18.4723 744.512C12.4511 741.444 7.55574 736.549 4.48779 730.528C1 723.683 1 714.722 1 696.8V52.2Z" fill="#F1F2FB" fill-opacity="0.07"></path> <path d="M245.8 0.5H52.2H52.1762C43.2355 0.5 36.4981 0.499999 31.1417 0.937634C25.7748 1.37613 21.7501 2.25649 18.2453 4.04229C12.13 7.15817 7.15817 12.13 4.04229 18.2453C2.25649 21.7501 1.37613 25.7748 0.937634 31.1418C0.499999 36.4982 0.5 43.2355 0.5 52.1762V52.2V696.8V696.824C0.5 705.765 0.499999 712.502 0.937634 717.858C1.37613 723.225 2.25649 727.25 4.04229 730.755C7.15817 736.87 12.13 741.842 18.2453 744.958C21.7501 746.744 25.7748 747.624 31.1417 748.062C36.4977 748.5 43.2343 748.5 52.1739 748.5H52.2H245.8H245.826C254.766 748.5 261.502 748.5 266.858 748.062C272.225 747.624 276.25 746.744 279.755 744.958C285.87 741.842 290.842 736.87 293.958 730.755C295.743 727.25 296.624 723.225 297.062 717.858C297.5 712.502 297.5 705.764 297.5 696.822V696.8V52.2V52.1776C297.5 43.2362 297.5 36.4984 297.062 31.1417C296.624 25.7748 295.743 21.7501 293.958 18.2453C290.842 12.13 285.87 7.15817 279.755 4.04229C276.25 2.25649 272.225 1.37613 266.858 0.937634C261.502 0.499999 254.765 0.5 245.824 0.5H245.8Z" stroke="url(#paint0_linear_179_1076)" stroke-opacity="0.5"></path> </g> <defs> <filter id="filter0_b_179_1076" x="-20" y="-20" width="338" height="789" filterUnits="userSpaceOnUse" color-interpolation-filters="sRGB"> <feFlood flood-opacity="0" result="BackgroundImageFix"></feFlood> <feGaussianBlur in="BackgroundImage" stdDeviation="10"></feGaussianBlur> <feComposite in2="SourceAlpha" operator="in" result="effect1_backgroundBlur_179_1076"></feComposite> <feBlend mode="normal" in="SourceGraphic" in2="effect1_backgroundBlur_179_1076" result="shape"></feBlend> </filter> <linearGradient id="paint0_linear_179_1076" x1="185.24" y1="0.999996" x2="-146.94" y2="130.637" gradientUnits="userSpaceOnUse"> <stop stop-color="#F1F2FB"></stop> <stop offset="1" stop-color="#F1F2FB" stop-opacity="0.32"></stop> </linearGradient> </defs> </svg> 