<?xml version="1.0" encoding="UTF-8"?> <svg xmlns="http://www.w3.org/2000/svg" width="346" height="124" viewBox="0 0 346 124" fill="none"> <path d="M23.2575 51.02C28.1535 51.02 32.3242 49.9434 35.7695 47.79C39.2149 45.6367 41.8442 42.656 43.6575 38.848C45.4709 35.0174 46.3775 30.5747 46.3775 25.52C46.3775 20.4654 45.4709 16.034 43.6575 12.226C41.8442 8.39535 39.2149 5.40335 35.7695 3.25002C32.3242 1.09669 28.1535 0.0200195 23.2575 0.0200195C18.3615 0.0200195 14.1909 1.09669 10.7455 3.25002C7.30018 5.40335 4.65952 8.39535 2.82352 12.226C1.01018 16.034 0.103516 20.4654 0.103516 25.52C0.103516 30.5747 1.01018 35.0174 2.82352 38.848C4.65952 42.656 7.30018 45.6367 10.7455 47.79C14.1909 49.9434 18.3615 51.02 23.2575 51.02ZM23.2575 44.254C18.0668 44.2087 14.1568 42.4747 11.5275 39.052C8.92085 35.6294 7.62885 31.1187 7.65152 25.52C7.67418 21.78 8.25218 18.5047 9.38552 15.694C10.5415 12.8607 12.2755 10.662 14.5875 9.09802C16.8995 7.51135 19.7895 6.74069 23.2575 6.78602C28.4709 6.80868 32.3695 8.53135 34.9535 11.954C37.5375 15.3767 38.8295 19.8987 38.8295 25.52C38.8295 29.26 38.2515 32.5467 37.0955 35.38C35.9622 38.1907 34.2395 40.378 31.9275 41.942C29.6155 43.506 26.7255 44.2767 23.2575 44.254Z" fill="#F1F2FB"></path> <path d="M53.1595 50H72.9475C73.4235 50 74.0128 49.9887 74.7155 49.966C75.4181 49.9207 76.0868 49.8527 76.7215 49.762C79.3961 49.4447 81.6401 48.5834 83.4535 47.178C85.2895 45.7727 86.6721 43.9934 87.6015 41.84C88.5308 39.664 88.9955 37.3067 88.9955 34.768C88.9955 32.2067 88.5195 29.8494 87.5675 27.696C86.6381 25.5427 85.2555 23.7634 83.4195 22.358C81.6061 20.9527 79.3735 20.0914 76.7215 19.774C76.0868 19.6834 75.4068 19.6267 74.6815 19.604C73.9788 19.5587 73.4008 19.536 72.9475 19.536H60.2655V7.73802H85.0854V1.04002H53.1595V50ZM60.2655 43.302V26.234H72.6755C73.1288 26.234 73.6275 26.2567 74.1715 26.302C74.7381 26.3247 75.2708 26.3927 75.7695 26.506C77.9455 26.9594 79.4868 28.002 80.3935 29.634C81.3001 31.2434 81.7535 32.9547 81.7535 34.768C81.7535 36.5587 81.3001 38.27 80.3935 39.902C79.4868 41.534 77.9455 42.5767 75.7695 43.03C75.2708 43.1207 74.7381 43.1887 74.1715 43.234C73.6275 43.2794 73.1288 43.302 72.6755 43.302H60.2655Z" fill="#F1F2FB"></path> <path d="M95.7923 50H102.898V32.422H115.58C116.034 32.422 116.612 32.3994 117.314 32.354C118.04 32.3087 118.72 32.2407 119.354 32.15C123.434 31.4927 126.494 29.7474 128.534 26.914C130.597 24.0807 131.628 20.6807 131.628 16.714C131.628 12.7474 130.608 9.34735 128.568 6.51402C126.528 3.68069 123.457 1.94669 119.354 1.31202C118.72 1.19869 118.051 1.13069 117.348 1.10802C116.646 1.06268 116.056 1.04002 115.58 1.04002H95.7923V50ZM102.898 25.69V7.73802H115.308C115.762 7.73802 116.26 7.76069 116.804 7.80602C117.371 7.85135 117.904 7.94202 118.402 8.07802C120.578 8.57668 122.12 9.68735 123.026 11.41C123.933 13.1327 124.386 14.9007 124.386 16.714C124.386 18.5047 123.933 20.2727 123.026 22.018C122.12 23.7407 120.578 24.8627 118.402 25.384C117.904 25.4974 117.371 25.5767 116.804 25.622C116.26 25.6674 115.762 25.69 115.308 25.69H102.898Z" fill="#F1F2FB"></path> <path d="M132.302 50H139.68L143.25 38.95H163.344L166.982 50H174.36L158.448 1.04002H148.214L132.302 50ZM145.426 32.286L153.246 8.14602L161.168 32.286H145.426Z" fill="#F1F2FB"></path> <path d="M188.615 50H195.721V7.73802H212.007V1.04002H172.329V7.73802H188.615V50Z" fill="#F1F2FB"></path> <path d="M217.449 50H224.555V28.852H249.035V50H256.175V1.04002H249.035V22.154H224.555V1.04002H217.449V50Z" fill="#F1F2FB"></path> <path d="M262.326 50H269.704L273.274 38.95H293.368L297.006 50H304.384L288.472 1.04002H278.238L262.326 50ZM275.45 32.286L283.27 8.14602L291.192 32.286H275.45Z" fill="#F1F2FB"></path> <path d="M345.198 50H338.092V32.422H325.104L316.57 50H308.444L317.692 31.028C314.904 29.8267 312.818 27.9567 311.436 25.418C310.053 22.8794 309.362 19.978 309.362 16.714C309.362 12.7474 310.382 9.34735 312.422 6.51402C314.462 3.68069 317.533 1.94669 321.636 1.31202C322.27 1.19869 322.939 1.13069 323.642 1.10802C324.344 1.06268 324.934 1.04002 325.41 1.04002H345.198V50ZM338.092 25.69V7.73802H325.682C325.228 7.73802 324.718 7.76069 324.152 7.80602C323.608 7.85135 323.086 7.94202 322.588 8.07802C320.412 8.57668 318.87 9.68735 317.964 11.41C317.057 13.1327 316.604 14.9007 316.604 16.714C316.604 18.5047 317.057 20.2727 317.964 22.018C318.87 23.7407 320.412 24.8627 322.588 25.384C323.086 25.4974 323.608 25.5767 324.152 25.622C324.718 25.6674 325.228 25.69 325.682 25.69H338.092Z" fill="#F1F2FB"></path> <path d="M23.2575 123.02C28.9015 123.02 33.5708 121.592 37.2655 118.736C40.9828 115.88 43.5669 112.038 45.0175 107.21L37.8095 105.272C36.8349 108.695 35.1349 111.381 32.7095 113.33C30.2842 115.279 27.1335 116.254 23.2575 116.254C19.7895 116.254 16.8882 115.472 14.5535 113.908C12.2415 112.344 10.4962 110.157 9.31752 107.346C8.16152 104.535 7.59485 101.26 7.61752 97.52C7.64018 93.78 8.22952 90.5047 9.38552 87.694C10.5415 84.8833 12.2755 82.696 14.5875 81.132C16.8995 79.568 19.7895 78.786 23.2575 78.786C27.1335 78.786 30.2842 79.7607 32.7095 81.71C35.1349 83.6594 36.8349 86.3454 37.8095 89.768L45.0175 87.83C43.5669 83.002 40.9828 79.16 37.2655 76.304C33.5708 73.448 28.9015 72.02 23.2575 72.02C18.3615 72.02 14.1909 73.0967 10.7455 75.25C7.30018 77.4033 4.65952 80.3954 2.82352 84.226C1.01018 88.034 0.103516 92.4654 0.103516 97.52C0.103516 102.575 1.01018 107.017 2.82352 110.848C4.65952 114.656 7.30018 117.637 10.7455 119.79C14.1909 121.943 18.3615 123.02 23.2575 123.02Z" fill="#F1F2FB"></path> <path d="M52.4954 122H73.5754C78.2447 122 81.8487 120.697 84.3874 118.09C86.9487 115.483 88.2294 112.027 88.2294 107.72C88.2294 105.113 87.5834 102.79 86.2914 100.75C84.9994 98.71 83.1407 97.1687 80.7154 96.126C82.3247 95.1967 83.5941 93.8707 84.5234 92.148C85.4527 90.4254 85.9174 88.442 85.9174 86.198C85.9174 83.9767 85.3847 81.8687 84.3194 79.874C83.2541 77.8567 81.6674 76.2133 79.5594 74.944C77.4741 73.6747 74.8674 73.04 71.7394 73.04H52.4954V122ZM59.7034 93.032V79.738H71.6374C73.7681 79.738 75.4681 80.35 76.7374 81.574C78.0067 82.798 78.6414 84.362 78.6414 86.266C78.6414 88.3967 77.9614 90.0627 76.6014 91.264C75.2641 92.4427 73.6094 93.032 71.6374 93.032H59.7034ZM59.7034 115.234V99.73H72.9294C75.3774 99.73 77.3267 100.489 78.7774 102.008C80.2281 103.504 80.9534 105.363 80.9534 107.584C80.9534 109.964 80.1487 111.834 78.5394 113.194C76.9301 114.554 74.9127 115.234 72.4874 115.234H59.7034Z" fill="#F1F2FB"></path> <path d="M129.709 122H122.603V104.422H109.615L101.081 122H92.9554L102.203 103.028C99.4154 101.827 97.3301 99.9567 95.9474 97.418C94.5647 94.8794 93.8734 91.978 93.8734 88.714C93.8734 84.7474 94.8934 81.3474 96.9334 78.514C98.9734 75.6807 102.045 73.9467 106.147 73.312C106.782 73.1987 107.451 73.1307 108.153 73.108C108.856 73.0627 109.445 73.04 109.921 73.04H129.709V122ZM122.603 97.69V79.738H110.193C109.74 79.738 109.23 79.7607 108.663 79.806C108.119 79.8513 107.598 79.942 107.099 80.078C104.923 80.5767 103.382 81.6874 102.475 83.41C101.569 85.1327 101.115 86.9007 101.115 88.714C101.115 90.5047 101.569 92.2727 102.475 94.018C103.382 95.7407 104.923 96.8627 107.099 97.384C107.598 97.4974 108.119 97.5767 108.663 97.622C109.23 97.6673 109.74 97.69 110.193 97.69H122.603Z" fill="#F1F2FB"></path> <path d="M155.984 123.02C159.633 123.02 162.875 122.397 165.708 121.15C168.564 119.903 170.808 118.147 172.44 115.88C174.095 113.591 174.922 110.882 174.922 107.754C174.922 104.966 174.287 102.677 173.018 100.886C171.749 99.0727 169.992 97.7467 167.748 96.908C169.357 95.7747 170.638 94.2447 171.59 92.318C172.565 90.3913 173.052 88.238 173.052 85.858C173.052 82.7074 172.259 80.112 170.672 78.072C169.085 76.032 167.034 74.5133 164.518 73.516C162.002 72.5187 159.339 72.02 156.528 72.02C152.811 72.02 149.535 72.7794 146.702 74.298C143.869 75.8167 141.636 77.7094 140.004 79.976L145.24 84.906C146.26 83.1607 147.711 81.6987 149.592 80.52C151.473 79.3187 153.717 78.718 156.324 78.718C159.067 78.718 161.277 79.3754 162.954 80.69C164.654 82.0047 165.504 83.8067 165.504 86.096C165.504 88.3854 164.631 90.1533 162.886 91.4C161.163 92.6467 158.897 93.338 156.086 93.474C155.678 93.4967 155.123 93.5194 154.42 93.542C153.74 93.542 153.083 93.542 152.448 93.542C151.836 93.542 151.405 93.542 151.156 93.542V100.274C151.36 100.274 151.575 100.274 151.802 100.274C152.051 100.274 152.527 100.285 153.23 100.308C153.933 100.331 155.077 100.376 156.664 100.444C158.568 100.489 160.336 100.727 161.968 101.158C163.6 101.566 164.903 102.291 165.878 103.334C166.875 104.354 167.374 105.816 167.374 107.72C167.374 110.123 166.467 112.151 164.654 113.806C162.841 115.438 160.053 116.254 156.29 116.254C153.774 116.254 151.632 115.891 149.864 115.166C148.119 114.418 146.691 113.455 145.58 112.276C144.492 111.097 143.676 109.839 143.132 108.502L136.944 112.514C137.828 114.327 139.109 116.039 140.786 117.648C142.463 119.235 144.56 120.527 147.076 121.524C149.615 122.521 152.584 123.02 155.984 123.02Z" fill="#F1F2FB"></path> <path d="M182.153 122H201.941C202.417 122 202.995 121.977 203.675 121.932C204.377 121.887 205.046 121.819 205.681 121.728C209.806 121.093 212.889 119.359 214.929 116.526C216.969 113.693 217.989 110.293 217.989 106.326C217.989 102.337 216.957 98.9254 214.895 96.092C212.832 93.2587 209.761 91.5247 205.681 90.89C205.046 90.7767 204.377 90.7087 203.675 90.686C202.972 90.6407 202.394 90.618 201.941 90.618H189.259V73.04H182.153V122ZM189.259 115.302V97.35H201.669C202.122 97.35 202.621 97.3727 203.165 97.418C203.709 97.4634 204.23 97.5427 204.729 97.656C206.927 98.1774 208.48 99.2994 209.387 101.022C210.293 102.745 210.747 104.513 210.747 106.326C210.747 108.117 210.293 109.873 209.387 111.596C208.48 113.319 206.927 114.441 204.729 114.962C204.23 115.098 203.709 115.189 203.165 115.234C202.621 115.279 202.122 115.302 201.669 115.302H189.259Z" fill="#F1F2FB"></path> </svg> 