<?xml version="1.0" encoding="UTF-8"?> <svg xmlns="http://www.w3.org/2000/svg" width="25" height="25" viewBox="0 0 25 25" fill="none"> <path d="M21.6886 2.60706C21.4602 2.58516 21.2292 2.66531 21.062 2.83289L7.76956 16.1263C9.38049 17.4159 10.4164 19.3946 10.4164 21.6144C10.4164 21.879 10.3988 22.1389 10.3707 22.3957H16.6664V17.4478C16.6664 17.0165 17.0159 16.6665 17.4477 16.6665H22.3956V3.38526C22.3956 3.06963 22.2056 2.78436 21.9134 2.66301C21.8403 2.63254 21.7648 2.61436 21.6886 2.60706ZM6.65465 17.2402L2.83283 21.0621C2.60887 21.2855 2.54211 21.6218 2.66295 21.9135C2.78378 22.2057 3.06905 22.3957 3.3852 22.3957H8.79189C8.82887 22.1399 8.85395 21.8806 8.85395 21.6144C8.85395 19.8254 7.98642 18.2387 6.65465 17.2402ZM18.2289 18.229V22.3957H21.6144C22.0461 22.3957 22.3956 22.0457 22.3956 21.6144V18.229H18.2289Z" fill="#5B6CFF"></path> </svg> 