<?xml version="1.0" encoding="UTF-8"?> <svg xmlns="http://www.w3.org/2000/svg" width="266" height="117" viewBox="0 0 266 117" fill="none"> <path d="M8.53702 45.9064H17.0857V1.62564H8.53702L0.234375 6.60722V15.8324L8.53702 10.7278V45.9064Z" fill="#F1F2FB"></path> <path d="M45.1979 46.8289C48.4779 46.8289 51.348 46.1421 53.808 44.7686C56.2681 43.3951 58.1849 41.4783 59.5584 39.0183C60.9319 36.5582 61.6187 33.6882 61.6187 30.4081V17.1239C61.6187 13.8438 60.9319 10.9738 59.5584 8.51376C58.1849 6.05371 56.2681 4.13693 53.808 2.76341C51.348 1.38989 48.4779 0.703125 45.1979 0.703125C41.9178 0.703125 39.0478 1.38989 36.5877 2.76341C34.1277 4.13693 32.2109 6.05371 30.8374 8.51376C29.4639 10.9738 28.7771 13.8438 28.7771 17.1239V30.4081C28.7771 33.6882 29.4639 36.5582 30.8374 39.0183C32.2109 41.4783 34.1277 43.3951 36.5877 44.7686C39.0478 46.1421 41.9178 46.8289 45.1979 46.8289ZM45.1979 38.8953C43.7219 38.8953 42.3893 38.5468 41.2003 37.8498C40.0113 37.1527 39.0683 36.2097 38.3713 35.0207C37.6743 33.8317 37.3257 32.4992 37.3257 31.0231V16.4474C37.3257 14.9714 37.6743 13.6388 38.3713 12.4498C39.0683 11.2608 40.0113 10.3178 41.2003 9.62078C42.3893 8.92376 43.7219 8.57526 45.1979 8.57526C46.6739 8.57526 48.0064 8.92376 49.1954 9.62078C50.3845 10.3178 51.3275 11.2608 52.0245 12.4498C52.7215 13.6388 53.07 14.9714 53.07 16.4474V31.0231C53.07 32.4992 52.7215 33.8317 52.0245 35.0207C51.3275 36.2097 50.3845 37.1527 49.1954 37.8498C48.0064 38.5468 46.6739 38.8953 45.1979 38.8953Z" fill="#F1F2FB"></path> <path d="M69.6032 29.7316H95.4337V23.274H69.6032V29.7316Z" fill="#F1F2FB"></path> <path d="M111.119 45.9064H119.667V1.62564H111.119L102.816 6.60722V15.8324L111.119 10.7278V45.9064Z" fill="#F1F2FB"></path> <path d="M139.047 45.9064H147.595V1.62564H139.047L130.744 6.60722V15.8324L139.047 10.7278V45.9064Z" fill="#F1F2FB"></path> <path d="M0.849385 115.906H9.21353V95.734L26.8643 115.906H37.4425L17.7622 93.4585L36.274 71.6256H26.0648L9.21353 92.044V71.6256H0.849385V115.906Z" fill="#F1F2FB"></path> <path d="M38.6749 115.906C41.8935 116.542 44.4048 116.45 46.2088 115.63C48.0333 114.81 49.4171 113.395 50.3601 111.386C51.3031 109.377 52.0617 106.907 52.6357 103.975C53.1072 101.72 53.5069 99.3934 53.8349 96.9948C54.1629 94.5963 54.4397 92.2797 54.6652 90.0452C54.8907 87.8107 55.065 85.7709 55.188 83.9258C55.3315 82.0808 55.4442 80.5843 55.5262 79.4363H69.6715V115.906H78.0356V71.6256H47.8386C47.7771 72.9582 47.6848 74.7519 47.5618 77.007C47.4388 79.2415 47.2646 81.7221 47.0391 84.4486C46.8136 87.1752 46.5266 89.9632 46.1781 92.8128C45.8501 95.6418 45.44 98.3376 44.948 100.9C44.538 103.073 44.087 104.764 43.595 105.974C43.103 107.163 42.4675 107.983 41.6885 108.434C40.93 108.865 39.9255 109.039 38.6749 108.957V115.906Z" fill="#F1F2FB"></path> <path d="M83.5995 115.906H92.2097L95.008 106.681H111.675L114.535 115.906H123.145L109.614 71.6256H97.1297L83.5995 115.906ZM97.3757 98.8706L103.28 79.467L109.276 98.8706H97.3757Z" fill="#F1F2FB"></path> <path d="M146.459 116.829C151.543 116.829 155.807 115.568 159.251 113.047C162.716 110.525 165.155 107.112 166.57 102.807L158.144 100.47C157.324 103.135 155.94 105.215 153.993 106.712C152.045 108.209 149.534 108.957 146.459 108.957C142.256 108.957 139.089 107.583 136.957 104.836C134.845 102.069 133.79 98.3786 133.79 93.766C133.79 89.1534 134.845 85.4736 136.957 82.7266C139.089 79.959 142.256 78.5753 146.459 78.5753C149.534 78.5753 152.045 79.3235 153.993 80.82C155.94 82.2961 157.324 84.3769 158.144 87.0624L166.57 84.7254C165.155 80.4203 162.716 77.007 159.251 74.4854C155.807 71.9639 151.543 70.7031 146.459 70.7031C142.031 70.7031 138.207 71.6666 134.989 73.5937C131.791 75.5207 129.321 78.2165 127.578 81.6811C125.856 85.1456 124.995 89.1739 124.995 93.766C124.995 98.3581 125.856 102.386 127.578 105.851C129.321 109.316 131.791 112.011 134.989 113.938C138.207 115.865 142.031 116.829 146.459 116.829Z" fill="#F1F2FB"></path> <path d="M192.344 116.829C197.429 116.829 201.693 115.568 205.137 113.047C208.601 110.525 211.041 107.112 212.455 102.807L204.03 100.47C203.21 103.135 201.826 105.215 199.878 106.712C197.931 108.209 195.419 108.957 192.344 108.957C188.142 108.957 184.975 107.583 182.843 104.836C180.731 102.069 179.675 98.3786 179.675 93.766C179.675 89.1534 180.731 85.4736 182.843 82.7266C184.975 79.959 188.142 78.5753 192.344 78.5753C195.419 78.5753 197.931 79.3235 199.878 80.82C201.826 82.2961 203.21 84.3769 204.03 87.0624L212.455 84.7254C211.041 80.4203 208.601 77.007 205.137 74.4854C201.693 71.9639 197.429 70.7031 192.344 70.7031C187.916 70.7031 184.093 71.6666 180.874 73.5937C177.676 75.5207 175.206 78.2165 173.464 81.6811C171.742 85.1456 170.881 89.1739 170.881 93.766C170.881 98.3581 171.742 102.386 173.464 105.851C175.206 109.316 177.676 112.011 180.874 113.938C184.093 115.865 187.916 116.829 192.344 116.829Z" fill="#F1F2FB"></path> <path d="M219.165 115.906H237.861C238.291 115.906 238.865 115.886 239.583 115.845C240.321 115.804 240.977 115.742 241.551 115.66C245.528 115.045 248.429 113.426 250.253 110.802C252.078 108.157 252.99 104.98 252.99 101.269C252.99 97.5381 252.068 94.3605 250.223 91.7365C248.378 89.1124 245.487 87.4929 241.551 86.8779C240.977 86.7754 240.321 86.7139 239.583 86.6934C238.845 86.6524 238.271 86.6319 237.861 86.6319H227.529V71.6256H219.165V115.906ZM227.529 108.096V94.4425H237.492C237.922 94.4425 238.394 94.463 238.906 94.504C239.419 94.545 239.89 94.627 240.321 94.75C241.449 95.0575 242.32 95.5803 242.935 96.3183C243.55 97.0358 243.97 97.8456 244.196 98.7476C244.442 99.6291 244.565 100.47 244.565 101.269C244.565 102.069 244.442 102.919 244.196 103.821C243.97 104.703 243.55 105.513 242.935 106.251C242.32 106.968 241.449 107.481 240.321 107.788C239.89 107.911 239.419 107.993 238.906 108.034C238.394 108.075 237.922 108.096 237.492 108.096H227.529ZM257.418 115.906H265.782V71.6256H257.418V115.906Z" fill="#F1F2FB"></path> </svg> 