<?xml version="1.0" encoding="UTF-8"?> <svg xmlns="http://www.w3.org/2000/svg" width="873" height="93" viewBox="0 0 873 93" fill="none"> <path d="M16.9859 91.0547H34.0829V2.49466H16.9859L0.380859 12.4577V30.9077L16.9859 20.6987V91.0547Z" fill="#F1F2FB"></path> <path d="M90.3064 92.8997C96.8664 92.8997 102.606 91.5262 107.526 88.7792C112.446 86.0322 116.28 82.1987 119.027 77.2787C121.774 72.3587 123.147 66.6187 123.147 60.0587V33.4907C123.147 26.9307 121.774 21.1907 119.027 16.2707C116.28 11.3507 112.446 7.51715 107.526 4.77015C102.606 2.02316 96.8664 0.649658 90.3064 0.649658C83.7463 0.649658 78.0063 2.02316 73.0863 4.77015C68.1663 7.51715 64.3329 11.3507 61.5859 16.2707C58.8389 21.1907 57.4654 26.9307 57.4654 33.4907V60.0587C57.4654 66.6187 58.8389 72.3587 61.5859 77.2787C64.3329 82.1987 68.1663 86.0322 73.0863 88.7792C78.0063 91.5262 83.7463 92.8997 90.3064 92.8997ZM90.3064 77.0327C87.3544 77.0327 84.6894 76.3357 82.3114 74.9417C79.9334 73.5477 78.0474 71.6617 76.6534 69.2837C75.2594 66.9057 74.5624 64.2407 74.5624 61.2887V32.1377C74.5624 29.1857 75.2594 26.5207 76.6534 24.1427C78.0474 21.7647 79.9334 19.8787 82.3114 18.4847C84.6894 17.0907 87.3544 16.3937 90.3064 16.3937C93.2584 16.3937 95.9234 17.0907 98.3014 18.4847C100.679 19.8787 102.565 21.7647 103.959 24.1427C105.353 26.5207 106.05 29.1857 106.05 32.1377V61.2887C106.05 64.2407 105.353 66.9057 103.959 69.2837C102.565 71.6617 100.679 73.5477 98.3014 74.9417C95.9234 76.3357 93.2584 77.0327 90.3064 77.0327Z" fill="#F1F2FB"></path> <path d="M139.116 58.7057H190.776V45.7907H139.116V58.7057Z" fill="#F1F2FB"></path> <path d="M222.146 91.0547H239.243V2.49466H222.146L205.541 12.4577V30.9077L222.146 20.6987V91.0547Z" fill="#F1F2FB"></path> <path d="M278.001 91.0547H295.098V2.49466H278.001L261.396 12.4577V30.9077L278.001 20.6987V91.0547Z" fill="#F1F2FB"></path> <path d="M343.104 91.0547H359.832V50.7107L395.133 91.0547H416.289L376.929 46.1597L413.952 2.49466H393.534L359.832 43.3307V2.49466H343.104V91.0547Z" fill="#F1F2FB"></path> <path d="M418.754 91.0547C425.191 92.3257 430.213 92.1412 433.821 90.5012C437.47 88.8612 440.238 86.0322 442.124 82.0142C444.01 77.9962 445.527 73.0557 446.675 67.1927C447.618 62.6827 448.417 58.0292 449.073 53.2322C449.729 48.4352 450.283 43.8022 450.734 39.3332C451.185 34.8642 451.533 30.7847 451.779 27.0947C452.066 23.4047 452.292 20.4117 452.456 18.1157H480.746V91.0547H497.474V2.49466H437.081C436.958 5.15965 436.773 8.74715 436.527 13.2572C436.281 17.7262 435.933 22.6872 435.482 28.1402C435.031 33.5932 434.457 39.1692 433.76 44.8682C433.104 50.5262 432.284 55.9177 431.3 61.0427C430.48 65.3887 429.578 68.7712 428.594 71.1902C427.61 73.5682 426.339 75.2082 424.781 76.1102C423.264 76.9712 421.255 77.3197 418.754 77.1557V91.0547Z" fill="#F1F2FB"></path> <path d="M508.601 91.0547H525.821L531.418 72.6047H564.751L570.47 91.0547H587.69L560.63 2.49466H535.661L508.601 91.0547ZM536.154 56.9837L547.961 18.1772L559.954 56.9837H536.154Z" fill="#F1F2FB"></path> <path d="M634.318 92.8997C644.486 92.8997 653.014 90.3782 659.902 85.3352C666.831 80.2922 671.71 73.4657 674.539 64.8557L657.688 60.1817C656.048 65.5117 653.281 69.6732 649.386 72.6662C645.491 75.6592 640.468 77.1557 634.318 77.1557C625.913 77.1557 619.579 74.4087 615.315 68.9147C611.092 63.3797 608.98 55.9997 608.98 46.7747C608.98 37.5497 611.092 30.1902 615.315 24.6962C619.579 19.1612 625.913 16.3937 634.318 16.3937C640.468 16.3937 645.491 17.8902 649.386 20.8832C653.281 23.8352 656.048 27.9967 657.688 33.3677L674.539 28.6937C671.71 20.0837 666.831 13.2572 659.902 8.21415C653.014 3.17116 644.486 0.649658 634.318 0.649658C625.462 0.649658 617.816 2.57666 611.379 6.43066C604.983 10.2847 600.042 15.6762 596.557 22.6052C593.113 29.5342 591.391 37.5907 591.391 46.7747C591.391 55.9587 593.113 64.0152 596.557 70.9442C600.042 77.8732 604.983 83.2647 611.379 87.1187C617.816 90.9727 625.462 92.8997 634.318 92.8997Z" fill="#F1F2FB"></path> <path d="M726.088 92.8997C736.256 92.8997 744.784 90.3782 751.672 85.3352C758.601 80.2922 763.48 73.4657 766.309 64.8557L749.458 60.1817C747.818 65.5117 745.05 69.6732 741.155 72.6662C737.26 75.6592 732.238 77.1557 726.088 77.1557C717.683 77.1557 711.348 74.4087 707.084 68.9147C702.861 63.3797 700.75 55.9997 700.75 46.7747C700.75 37.5497 702.861 30.1902 707.084 24.6962C711.348 19.1612 717.683 16.3937 726.088 16.3937C732.238 16.3937 737.26 17.8902 741.155 20.8832C745.05 23.8352 747.818 27.9967 749.458 33.3677L766.309 28.6937C763.48 20.0837 758.601 13.2572 751.672 8.21415C744.784 3.17116 736.256 0.649658 726.088 0.649658C717.232 0.649658 709.585 2.57666 703.148 6.43066C696.752 10.2847 691.812 15.6762 688.327 22.6052C684.883 29.5342 683.161 37.5907 683.161 46.7747C683.161 55.9587 684.883 64.0152 688.327 70.9442C691.812 77.8732 696.752 83.2647 703.148 87.1187C709.585 90.9727 717.232 92.8997 726.088 92.8997Z" fill="#F1F2FB"></path> <path d="M779.727 91.0547H817.119C817.98 91.0547 819.128 91.0137 820.563 90.9317C822.039 90.8497 823.351 90.7267 824.499 90.5627C832.453 89.3327 838.255 86.0937 841.904 80.8457C845.553 75.5567 847.377 69.2017 847.377 61.7807C847.377 54.3187 845.532 47.9637 841.842 42.7157C838.152 37.4677 832.371 34.2287 824.499 32.9987C823.351 32.7937 822.039 32.6707 820.563 32.6297C819.087 32.5477 817.939 32.5067 817.119 32.5067H796.455V2.49466H779.727V91.0547ZM796.455 75.4337V48.1277H816.381C817.242 48.1277 818.185 48.1687 819.21 48.2507C820.235 48.3327 821.178 48.4967 822.039 48.7427C824.294 49.3577 826.037 50.4032 827.267 51.8792C828.497 53.3142 829.337 54.9337 829.788 56.7377C830.28 58.5007 830.526 60.1817 830.526 61.7807C830.526 63.3797 830.28 65.0812 829.788 66.8852C829.337 68.6482 828.497 70.2677 827.267 71.7437C826.037 73.1787 824.294 74.2037 822.039 74.8187C821.178 75.0647 820.235 75.2287 819.21 75.3107C818.185 75.3927 817.242 75.4337 816.381 75.4337H796.455ZM856.233 91.0547H872.961V2.49466H856.233V91.0547Z" fill="#F1F2FB"></path> </svg> 