<?xml version="1.0" encoding="UTF-8"?> <svg xmlns="http://www.w3.org/2000/svg" width="25" height="25" viewBox="0 0 25 25" fill="none"> <path d="M4.86141 3.8167C3.27823 3.8412 2.48663 3.85345 1.93549 4.26413C1.75744 4.39682 1.60125 4.55655 1.4726 4.73755C1.07439 5.29777 1.07992 6.08944 1.09098 7.67278L1.17087 19.1088C1.18194 20.6943 1.18748 21.4871 1.59422 22.042C1.72562 22.2213 1.8843 22.3789 2.06449 22.509C2.62225 22.9119 3.41502 22.9119 5.00056 22.9119H20.0007C21.5823 22.9119 22.3732 22.9119 22.9303 22.5104C23.1104 22.3806 23.269 22.2235 23.4004 22.0448C23.8073 21.4915 23.815 20.7007 23.8303 19.1191L23.9431 7.44797C23.9589 5.81562 23.9668 4.99945 23.5533 4.43073C23.4199 4.24725 23.258 4.08629 23.0737 3.95395C22.5026 3.54372 21.6865 3.55635 20.0543 3.58161L4.86141 3.8167ZM2.78074 10.2287C2.7649 9.26504 2.75698 8.78322 2.99743 8.4427C3.07506 8.33275 3.16959 8.23578 3.27752 8.15537C3.61179 7.9063 4.09366 7.90191 5.05739 7.89314L19.8668 7.75831C20.8444 7.74941 21.3332 7.74496 21.6741 7.99265C21.784 8.07257 21.8805 8.16954 21.9599 8.27989C22.2059 8.62191 22.1991 9.11068 22.1854 10.0882L22.0624 18.8833C22.0492 19.8285 22.0426 20.3011 21.7983 20.6315C21.7194 20.7382 21.6243 20.832 21.5165 20.9094C21.1827 21.1491 20.7101 21.1491 19.7648 21.1491H5.22066C4.27747 21.1491 3.80588 21.1491 3.47248 20.9102C3.36473 20.833 3.26966 20.7394 3.1907 20.633C2.94635 20.3035 2.9386 19.832 2.9231 18.889L2.78074 10.2287Z" fill="#5B6CFF"></path> <path d="M9.57215 18.9681L13.6691 9.49981L15.3374 9.7012L11.3318 19.0731L9.57215 18.9681Z" fill="#5B6CFF"></path> <path d="M4.30692 13.7975L7.6596 10.3277L8.91045 11.5612L6.61651 13.9353L8.61182 16.5654L7.22314 17.6414L4.30692 13.7975Z" fill="#5B6CFF"></path> <path d="M16.3891 12.0075L17.7778 10.9315L20.694 14.7754L17.3414 18.2452L16.0905 17.0117L18.3844 14.6376L16.3891 12.0075Z" fill="#5B6CFF"></path> </svg> 