<?xml version="1.0" encoding="UTF-8"?> <!-- Generator: Adobe Illustrator 21.1.0, SVG Export Plug-In . SVG Version: 6.00 Build 0) --> <svg xmlns="http://www.w3.org/2000/svg" xmlns:xlink="http://www.w3.org/1999/xlink" id="Layer_1" x="0px" y="0px" viewBox="0 0 128 128" style="enable-background:new 0 0 128 128;" xml:space="preserve"> <style type="text/css"> .st0{fill:#FFFFFF;} .st1{fill:#ADF9D2;} .st2{fill:#1AB792;} .st3{fill:#444B54;} </style> <g> <g> <g> <g> <path class="st0" d="M109,89H24c-8.3,0-15,6.7-15,15l0,0c0,8.3,6.7,15,15,15h85l0,0c-8.3,0-15-6.7-15-15l0,0 C94,95.7,100.7,89,109,89L109,89z"></path> </g> </g> </g> <g> <g> <g> <path class="st1" d="M101.1,35.8L101.1,35.8c-1.2-9.6-9.3-16.8-19-16.8l0,0C80,19,78,19.3,76,20l0,0c-7.8,2.6-16.2,2.6-24,0 h-0.1c-2-0.7-4-1-6.1-1l0,0c-9.7,0-17.8,7.2-19,16.8l0,0C25,50.8,28.6,65.9,37,78.5l3.2,4.7C42.6,86.8,46.7,89,51,89 c2,0,4-0.5,5.8-1.4L64,84h0.1h0.1l7.2,3.6c1.8,0.9,3.8,1.4,5.8,1.4c4.3,0,8.4-2.2,10.8-5.8l3.2-4.7 C99.4,65.9,103,50.8,101.1,35.8z"></path> </g> </g> </g> <g> <g> <g> <path class="st0" d="M32.4,43.8L32.4,43.8c-1.8-0.1-3-1.5-3-3.1c0.1-1.7,0.2-3.3,0.4-5c1-8.1,7.9-14.1,16-14.1 c1.7,0,3.5,0.3,5.1,0.8H51c1.6,0.5,2.4,2.2,1.9,3.8c-0.5,1.6-2.2,2.4-3.8,1.9H49c-1-0.4-2-0.6-3.1-0.6c-5.1,0-9.4,3.8-10.1,8.9 c-0.2,1.5-0.3,3-0.4,4.5C35.4,42.5,34,43.8,32.4,43.8z"></path> </g> </g> </g> <g> <g> <g> <path class="st2" d="M77.1,86c-1.5,0-3.1-0.4-4.5-1.1c-1.5-0.7-2.1-2.5-1.3-4c0.7-1.5,2.5-2.1,4-1.3c0.5,0.3,1.2,0.4,1.8,0.4 c1.3,0,2.6-0.7,3.3-1.8l3.2-4.7c3.2-4.8,5.6-10,7.1-15.5c0.4-1.6,2.1-2.5,3.7-2.1s2.5,2.1,2.1,3.7c-1.7,6.1-4.4,11.9-7.9,17.2 l-3.2,4.7C83.5,84.3,80.4,86,77.1,86z"></path> </g> </g> </g> <path class="st3" d="M109,116H24c-6.6,0-12-5.4-12-12s5.4-12,12-12h85c1.7,0,3-1.3,3-3s-1.3-3-3-3H89.4c0.3-0.4,0.7-0.9,1-1.3 l3.2-4.7c8.8-13.2,12.5-29.1,10.6-44.8c-1.4-11.1-10.8-19.4-22-19.4c-2.4,0-4.7,0.4-7,1.1c-1.5,0.5-3,0.9-4.5,1.1l5.7-7.2 c1-1.3,0.8-3.2-0.5-4.2s-3.2-0.8-4.2,0.5l-10,12.7c-1,1.3-0.8,3.2,0.5,4.2c0.6,0.4,1.2,0.6,1.9,0.6l0,0c0,0,0,0,0.1,0l0,0 c4.4,0,8.8-0.7,13-2.1c1.6-0.5,3.4-0.8,5.1-0.8c8.1,0,15,6.1,16,14.1c1.8,14.3-1.6,28.7-9.6,40.7l-3.2,4.7c-1.9,2.8-5,4.4-8.3,4.4 c-1.5,0-3.1-0.4-4.5-1.1l-0.6-0.3c-5-2.5-11-2.5-16-0.1l-0.7,0.3c-1.4,0.7-2.9,1.1-4.5,1.1c-3.3,0-6.4-1.7-8.3-4.4l-3.2-4.7 c-8-12-11.4-26.4-9.6-40.7c1-8.1,7.9-14.1,16-14.1c1.7,0,3.4,0.3,5,0.8s3.3-0.3,3.8-1.9s-0.3-3.3-1.9-3.8c-2.2-0.7-4.6-1.1-6.9-1.1 c-11.1,0-20.6,8.3-22,19.4c-2,15.7,1.8,31.6,10.6,44.8l3.2,4.7c0.3,0.5,0.6,0.9,1,1.3H24c-9.9,0-18,8.1-18,18s8.1,18,18,18h85 c1.7,0,3-1.3,3-3S110.7,116,109,116z"></path> </g> <circle class="st0" cx="33.3" cy="53.4" r="3"></circle> </svg> 