<?xml version="1.0" encoding="UTF-8"?> <svg xmlns="http://www.w3.org/2000/svg" width="92" height="34" viewBox="0 0 92 34" fill="none"> <g clip-path="url(#clip0)"> <g filter="url(#filter0_d)"> <rect width="92" height="33.812" rx="16.906" fill="#FF5D6A"></rect> </g> <g clip-path="url(#clip1)"> <path fill-rule="evenodd" clip-rule="evenodd" d="M20.659 13.8839C20.659 13.5283 20.7534 13.2354 20.9418 13.0049C21.1306 12.7746 21.4069 12.6594 21.771 12.6594C22.1354 12.6594 22.415 12.7746 22.61 13.0049C22.8052 13.2354 22.9027 13.5283 22.9027 13.8839V16.9843C22.9027 17.8004 22.8181 18.5379 22.6491 19.1961C22.48 19.8545 22.2068 20.4568 21.8296 21.0033C21.4525 21.5496 20.9192 21.9743 20.2298 22.277C19.5404 22.5798 18.7209 22.7311 17.7713 22.7311C15.9372 22.7311 14.6138 22.2079 13.8006 21.1612C12.9877 20.1144 12.5813 18.7353 12.5813 17.0239V13.8839C12.5813 13.5283 12.682 13.2354 12.8836 13.0049C13.0855 12.7746 13.3683 12.6594 13.7325 12.6594C14.1097 12.6594 14.4023 12.7746 14.6104 13.0049C14.8186 13.2354 14.9227 13.5283 14.9227 13.8839V17.1227C14.9227 19.4529 15.8785 20.618 17.7907 20.618C19.7028 20.618 20.659 19.4397 20.659 17.083V13.8839Z" fill="white"></path> <path fill-rule="evenodd" clip-rule="evenodd" d="M63.3793 17.0305C63.8008 16.8154 64.0117 16.4693 64.0117 15.9922C64.0117 15.1477 63.197 14.7254 61.5679 14.7254C61.2718 14.7254 59.7254 14.7488 59.1556 14.7958V17.3062C59.509 17.3374 61.0095 17.3531 61.4311 17.3531C62.3085 17.3531 62.9579 17.2455 63.3793 17.0305ZM56.9014 13.918C56.9014 13.3296 57.2419 12.9736 57.9227 12.8498C58.6402 12.7155 60.4792 12.6484 61.5857 12.6484C64.7352 12.6484 66.3099 13.722 66.3099 15.869C66.3099 16.6018 66.1033 17.2212 65.6896 17.7269C65.2764 18.2327 64.7027 18.6251 63.8745 18.8236L65.8648 20.8312C66.2222 21.2425 66.3761 21.9435 65.5943 22.3305C64.9536 22.6477 64.2476 22.4244 63.7317 21.8067L61.373 19.1358C61.2151 19.1565 59.4483 19.1462 59.1198 19.1049V21.5126C59.1198 21.7913 59.0228 22.0184 58.8282 22.1938C58.6335 22.3692 58.4286 22.457 58.0881 22.457C57.7355 22.457 57.3726 22.3692 57.1842 22.1938C56.9956 22.0184 56.9014 21.7913 56.9014 21.5126V13.918Z" fill="white"></path> <path fill-rule="evenodd" clip-rule="evenodd" d="M75.7967 13.8832C75.7967 13.5276 75.8911 13.2347 76.0795 13.0042C76.2683 12.7739 76.5446 12.6587 76.9087 12.6587C77.2731 12.6587 77.5527 12.7739 77.7477 13.0042C77.9429 13.2347 78.0404 13.5276 78.0404 13.8832V16.9836C78.0404 17.7997 77.9559 18.5371 77.7869 19.1954C77.6176 19.8538 77.3445 20.4561 76.9673 21.0025C76.5902 21.5489 76.0569 21.9736 75.3675 22.2763C74.6781 22.5791 73.8586 22.7304 72.909 22.7304C71.0749 22.7304 69.7515 22.2072 68.9383 21.1605C68.1253 20.1137 67.719 18.7346 67.719 17.0231V13.8832C67.719 13.5276 67.8197 13.2347 68.0213 13.0042C68.2232 12.7739 68.506 12.6587 68.8702 12.6587C69.2474 12.6587 69.54 12.7739 69.7481 13.0042C69.9563 13.2347 70.0603 13.5276 70.0603 13.8832V17.1219C70.0603 19.4521 71.0162 20.6173 72.9284 20.6173C74.8405 20.6173 75.7967 19.439 75.7967 17.0823V13.8832Z" fill="white"></path> <path fill-rule="evenodd" clip-rule="evenodd" d="M29.6228 22.7305C27.8898 22.7305 26.5342 22.2961 25.5553 21.4272C24.5765 20.5583 24.0869 19.3405 24.0869 17.7738C24.0869 16.1938 24.5966 14.9464 25.6153 14.0313C26.6344 13.1161 28.0263 12.6587 29.7913 12.6587C31.1554 12.6587 32.1903 12.8429 32.8962 13.2116C33.5861 13.5671 33.7868 14.0084 33.4979 14.5348C33.2252 15.0089 32.6958 15.2097 31.9095 15.0124C31.0912 14.8149 30.1773 14.6533 29.632 14.6533C28.7012 14.6533 27.9713 14.9299 27.4415 15.4827C26.912 16.0357 26.6474 16.7993 26.6474 17.7738C26.6474 18.6953 26.924 19.4195 27.4778 19.946C28.0313 20.4727 28.7575 20.736 29.656 20.736C30.2979 20.736 31.2998 20.5517 32.1982 20.1829C32.9685 19.8802 33.5141 19.946 33.8349 20.3804C34.2041 20.8807 34.0437 21.3612 33.3537 21.8222C32.4229 22.4278 31.1794 22.7305 29.6228 22.7305Z" fill="white"></path> <path fill-rule="evenodd" clip-rule="evenodd" d="M48.6192 12.9072C48.8468 12.6901 49.1559 12.5813 49.5459 12.5813C49.9362 12.5813 50.2485 12.6901 50.4827 12.9072C50.7167 13.1245 50.8338 13.4174 50.8338 13.7862C50.8338 14.168 50.7167 14.464 50.4827 14.6747C50.2485 14.8854 49.9362 14.9908 49.5459 14.9908C49.1559 14.9908 48.8468 14.8886 48.6192 14.6845C48.3916 14.4805 48.2778 14.181 48.2778 13.7862C48.2778 13.4174 48.3916 13.1245 48.6192 12.9072Z" fill="white"></path> <path fill-rule="evenodd" clip-rule="evenodd" d="M46.2413 12.9846C46.0462 12.7672 45.7731 12.6587 45.4218 12.6587C45.0706 12.6587 44.8007 12.7672 44.6122 12.9846C44.4235 13.2017 44.3291 13.4751 44.3291 13.8042V16.48H37.7299V13.8042C37.7299 13.4751 37.6324 13.2017 37.4371 12.9846C37.2421 12.7672 36.9689 12.6587 36.6176 12.6587C36.2664 12.6587 35.9965 12.7672 35.8079 12.9846C35.6193 13.2017 35.5249 13.4751 35.5249 13.8042V21.3876C35.5249 21.7168 35.6193 21.9901 35.8079 22.2072C35.9965 22.4245 36.2664 22.533 36.6176 22.533C36.9689 22.533 37.2421 22.4245 37.4371 22.2072C37.6324 21.9901 37.7299 21.7168 37.7299 21.3876V18.7117H44.3291V21.3876C44.3291 21.7168 44.4235 21.9901 44.6122 22.2072C44.8007 22.4245 45.0706 22.533 45.4218 22.533C45.7731 22.533 46.0462 22.4245 46.2413 22.2072C46.4366 21.9901 46.5341 21.7168 46.5341 21.3876V13.8042C46.5341 13.4751 46.4366 13.2017 46.2413 12.9846Z" fill="white"></path> <path fill-rule="evenodd" clip-rule="evenodd" d="M48.4534 17.2817C48.4534 16.9526 48.5478 16.6792 48.7364 16.4621C48.9249 16.2448 49.1948 16.1362 49.546 16.1362C49.8974 16.1362 50.1704 16.2448 50.3655 16.4621C50.5607 16.6792 50.6582 16.9526 50.6582 17.2817V21.3875C50.6582 21.7167 50.5607 21.99 50.3655 22.2071C50.1704 22.4244 49.8974 22.533 49.546 22.533C49.1948 22.533 48.9249 22.4244 48.7364 22.2071C48.5478 21.99 48.4534 21.7167 48.4534 21.3875V17.2817Z" fill="white"></path> <path fill-rule="evenodd" clip-rule="evenodd" d="M52.7749 20.1928C53.0157 19.923 53.344 19.7878 53.7604 19.7878C54.1766 19.7878 54.5083 19.923 54.7554 20.1928C55.0025 20.4627 55.1262 20.7886 55.1262 21.1704C55.1262 21.5654 55.0059 21.8911 54.7651 22.1478C54.5246 22.4046 54.1896 22.533 53.7604 22.533C53.331 22.533 52.9994 22.4046 52.7652 22.1478C52.5311 21.8911 52.4141 21.5654 52.4141 21.1704C52.4141 20.7886 52.5344 20.4627 52.7749 20.1928Z" fill="white"></path> </g> </g> <defs> <filter id="filter0_d" x="-30" y="-26" width="152" height="93.812" filterUnits="userSpaceOnUse" color-interpolation-filters="sRGB"> <feFlood flood-opacity="0" result="BackgroundImageFix"></feFlood> <feColorMatrix in="SourceAlpha" type="matrix" values="0 0 0 0 0 0 0 0 0 0 0 0 0 0 0 0 0 0 127 0" result="hardAlpha"></feColorMatrix> <feOffset dy="4"></feOffset> <feGaussianBlur stdDeviation="15"></feGaussianBlur> <feColorMatrix type="matrix" values="0 0 0 0 0 0 0 0 0 0 0 0 0 0 0 0 0 0 0.01 0"></feColorMatrix> <feBlend mode="normal" in2="BackgroundImageFix" result="effect1_dropShadow"></feBlend> <feBlend mode="normal" in="SourceGraphic" in2="effect1_dropShadow" result="shape"></feBlend> </filter> <clipPath id="clip0"> <rect width="92" height="33.812" fill="white"></rect> </clipPath> <clipPath id="clip1"> <rect width="65.6581" height="10.2222" fill="white" transform="translate(12.5813 12.5813)"></rect> </clipPath> </defs> </svg> 