<?xml version="1.0" encoding="UTF-8"?> <svg xmlns="http://www.w3.org/2000/svg" width="48" height="49" viewBox="0 0 48 49" fill="none"> <path fill-rule="evenodd" clip-rule="evenodd" d="M45.8963 28.0804C45.751 29.0564 45.3845 29.985 44.8247 30.7927C44.265 31.6005 43.5277 32.2654 42.6713 32.735C42.4337 32.8683 42.1854 32.9802 41.9289 33.0694C42.255 37.4494 35.3885 39.042 31.6882 37.9988L33.063 42.8726L29.5277 43L23.3409 34.0211C21.2551 34.6183 18.7921 34.905 17.2012 32.3169C17.0567 32.0791 16.9256 31.8332 16.8084 31.5803C16.4038 31.6639 15.9919 31.7065 15.5789 31.7077C14.4005 31.7077 12.4364 31.3493 11.4387 30.6486C10.6477 30.1169 10.0202 29.3705 9.62781 28.4945C7.50269 28.7891 5.69968 28.2834 4.52125 27.0331C3.02856 25.4763 2.60433 22.9041 3.3821 20.1448C4.40734 16.4617 7.52626 12.3127 13.7248 10.7558C14.2626 10.0783 14.9061 9.49451 15.63 9.02781C19.5228 6.49941 25.8431 6.28038 30.6394 8.6814C32.4988 8.33025 34.4181 8.51656 36.178 9.21889C39.6269 10.5289 42.1332 13.2684 42.6046 16.0516C43.5379 16.542 44.3023 17.3085 44.7965 18.2495C45.8296 20.2164 45.9749 22.1874 45.2796 23.7801C45.9344 25.1095 46.1505 26.617 45.8963 28.0804ZM43.3509 26.0098C42.8018 26.3038 42.1902 26.4574 41.5695 26.4574C40.9485 26.4574 40.3369 26.3038 39.788 26.0098L40.0747 24.0787C41.2847 24.1982 42.2707 23.816 42.7853 23.0315C43.3627 22.1596 43.2723 20.8655 42.5417 19.4759C41.7247 17.919 39.9608 17.6721 38.9827 17.6602H38.9199C36.4687 17.6602 33.9704 19.0737 32.9609 20.9172L31.4918 20.2045C31.7806 19.2548 32.2713 18.3809 32.9295 17.6443C32.3629 17.1567 31.9346 16.5248 31.6888 15.8138C31.4431 15.1028 31.3886 14.3382 31.5311 13.5988L32.9805 13.4635C33.0469 14.0615 33.2909 14.625 33.6802 15.0793C34.0695 15.5337 34.5858 15.8574 35.1606 16.0078C36.3698 15.4607 37.6824 15.1889 39.0063 15.2114C39.1948 15.2114 39.3755 15.2313 39.5601 15.2432C38.6209 13.5555 37.1324 12.2508 35.3492 11.5522C30.9968 9.84004 28.0625 12.4959 27.3908 13.4117C25.7724 15.6096 26.8094 17.6881 27.599 19.0379L26.3027 20.2324C25.1738 19.2425 24.4163 17.8882 24.158 16.398C22.4964 16.9036 20.2652 16.7961 19.016 14.634L20.1945 13.8138C21.5183 14.8172 23.6198 14.7296 24.6175 13.4913C24.8553 12.9438 25.1559 12.4265 25.5132 11.9504C26.0804 11.191 26.7648 10.5295 27.5401 9.99139C24.2837 9.09152 19.6838 9.23884 16.9027 11.0465C16.1512 11.4889 15.5326 12.1303 15.1132 12.9018C14.6939 13.6734 14.4896 14.5461 14.5223 15.4264C14.5223 16.8479 15.6221 19.0936 17.103 19.444L16.2428 21.1362C15.2979 20.9144 14.4401 20.411 13.7798 19.6909L12.5032 21.3393L11.2266 20.7102L12.4757 17.3974C12.2716 16.754 12.167 16.0824 12.1654 15.4065C12.1686 14.8714 12.2238 14.3379 12.3304 13.8138C8.40223 15.4583 6.46174 18.1937 5.75075 20.6942C5.20474 22.6174 5.41686 24.3534 6.31247 25.2852C7.02346 26.0258 8.11155 26.201 9.13679 26.1333L11.8865 23.9632L12.79 24.7357L11.9729 27.4513C12.4011 28.8329 13.8034 29.5456 16.3606 29.044C16.4932 27.9446 16.9212 26.9033 17.598 26.0338C18.0942 25.3101 18.7507 24.7141 19.5149 24.2938L20.8583 20.6266L22.2017 20.5669L22.0564 23.5731C24.3151 23.3381 26.8409 23.804 29.1938 23.4457L29.6259 25.0383C26.177 26.6549 22.6456 24.019 19.4442 27.4951C18.2933 28.7453 18.7332 29.8323 19.4442 30.9273C20.4694 32.4921 22.3942 31.5524 24.3622 30.9273C27.3437 30.0036 29.5081 29.3346 33.5894 29.6731C32.6152 27.7977 32.7095 25.532 34.0136 23.0395L35.9345 23.8079C34.5871 26.9575 35.8481 28.7812 36.7201 29.5855C38.0675 30.8278 40.0944 31.2021 41.434 30.4535C41.947 30.1663 42.3881 29.7634 42.7232 29.276C43.0583 28.7886 43.2782 28.2297 43.3666 27.6424C43.455 27.1013 43.4483 26.5486 43.347 26.0098H43.3509Z" fill="#409373"></path> </svg> 