<?xml version="1.0" encoding="UTF-8"?> <svg xmlns="http://www.w3.org/2000/svg" width="48" height="49" viewBox="0 0 48 49" fill="none"> <path d="M46.4985 13.5589C44.8936 12.2362 42.3569 12.1228 40.692 13.9096L36.5588 18.3465C36.0245 16.6291 34.4205 15.3785 32.5297 15.3785H25.154C24.5943 15.3785 24.4069 15.1648 23.4347 14.4158C19.728 11.1844 14.1606 11.1948 10.4651 14.4468L7.75406 16.8334C6.53541 16.1884 5.11237 16.1725 3.88706 16.7847L0.777563 18.339C0.0828757 18.6868 -0.19828 19.5314 0.148501 20.2261L8.58553 37.1C8.93334 37.7947 9.77794 38.0759 10.4726 37.7291L13.5821 36.1739C15.1148 35.408 15.9679 33.8443 15.9126 32.2526H32.5296C35.611 32.2526 38.5555 30.7808 40.4042 28.3154L47.1547 19.3141C48.4643 17.5694 48.2571 15.011 46.4985 13.5589ZM12.324 33.6587L10.4725 34.5848L3.29269 20.2261L5.14509 19.2999C5.83978 18.953 6.68344 19.2334 7.03125 19.929L12.9531 31.7726C13.2999 32.4672 13.0187 33.3108 12.324 33.6587ZM44.9048 17.6266L38.1544 26.6279C36.8335 28.3893 34.7308 29.4402 32.5297 29.4402H14.9311L9.66169 18.9005L12.3231 16.5579C14.9713 14.2283 18.9649 14.2283 21.6131 16.5579C23.173 17.9313 24.1432 18.1909 25.1539 18.1909H32.5296C33.305 18.1909 33.9358 18.8219 33.9358 19.5971C33.9358 20.3723 33.3049 21.0033 32.5296 21.0033H25.3479C24.5717 21.0033 23.9418 21.6333 23.9418 22.4094C23.9418 23.1856 24.5718 23.8156 25.3479 23.8156H33.4718C34.6389 23.8156 35.7639 23.3262 36.5588 22.4722L42.7497 15.8267C43.316 15.2192 44.184 15.2698 44.7165 15.7357C45.2733 16.2231 45.3334 17.0566 44.9048 17.6266Z" fill="#E95444"></path> </svg> 