<?xml version="1.0" encoding="UTF-8"?> <svg xmlns="http://www.w3.org/2000/svg" width="26" height="24" viewBox="0 0 26 24" fill="none"> <path fill-rule="evenodd" clip-rule="evenodd" d="M23.4222 12.9239C22.9762 17.4874 19.2597 21.1639 14.4893 21.8753V14.9167H17.0032L17.4032 11.9167H14.4893V10.25C14.4893 9.42219 14.8005 8.58731 16.0893 8.58731L17.5116 8.58652V6.08333L17.4498 6.07564C17.104 6.03232 16.1805 5.91666 15.1167 5.91666C12.7473 5.91666 11.1249 7.24902 11.1249 9.69604V11.9167H8.44485V14.9167H11.1249V21.8773C6.30366 21.1642 2.55598 17.4231 2.16712 12.7964C2.14779 12.5665 2.13677 12.3344 2.13431 12.1004C2.13396 12.067 2.13379 12.0335 2.13379 12C2.13379 10.2613 2.60712 8.62615 3.43959 7.20178C5.25134 4.10185 8.76407 2 12.8004 2C14.2732 2 15.6763 2.27982 16.9524 2.78584C20.7808 4.30392 23.4671 7.85786 23.4671 12C23.4671 12.3115 23.452 12.6197 23.4222 12.9239Z" fill="#5C5C5C"></path> </svg> 