<?xml version="1.0" encoding="UTF-8"?> <svg xmlns="http://www.w3.org/2000/svg" width="48" height="49" viewBox="0 0 48 49" fill="none"> <path d="M39.2536 32.6999C45.5818 26.3716 45.5817 16.0746 39.2536 9.74624C32.9253 3.41792 22.6284 3.41792 16.3003 9.74624C10.9315 15.115 10.1185 23.0996 13.8588 29.3348C13.8588 29.3348 14.1275 29.7855 13.7646 30.1481C11.6945 32.2181 5.48383 38.4289 5.48383 38.4289C3.83562 40.077 3.44325 42.3816 4.90488 43.8435L5.15654 44.0949C6.61817 45.5568 8.92291 45.1645 10.571 43.5163C10.571 43.5163 16.7685 37.3186 18.8344 35.2529C19.2146 34.8727 19.6652 35.1413 19.6652 35.1413C25.9003 38.8815 33.8849 38.0686 39.2536 32.6999ZM19.2967 29.7033C14.6207 25.0273 14.6209 17.4191 19.2968 12.7431C23.9728 8.06723 31.5811 8.0671 36.2569 12.7431C40.9329 17.4189 40.9329 25.0273 36.2569 29.7033C31.5809 34.379 23.9728 34.379 19.2967 29.7033Z" fill="#F6BD5F"></path> <path d="M20.3326 20.2599C20.1149 20.2599 19.8937 20.2171 19.6804 20.127C18.8286 19.7665 18.43 18.7836 18.7905 17.9315C21.0566 12.5764 27.2569 10.0633 32.6119 12.3293C33.4638 12.6899 33.8623 13.6728 33.5018 14.5248C33.1411 15.3768 32.1585 15.7751 31.3062 15.4147C27.6526 13.8687 23.4219 15.5834 21.876 19.237C21.6056 19.876 20.9852 20.2599 20.3326 20.2599Z" fill="#F6BD5F"></path> </svg> 