<?xml version="1.0" encoding="UTF-8"?> <svg xmlns="http://www.w3.org/2000/svg" width="48" height="49" viewBox="0 0 48 49" fill="none"> <g clip-path="url(#clip0)"> <path d="M46.4811 25.9314H46.1758L41.7988 14.1058C42.9629 13.8608 44.0479 13.284 44.8998 12.4322C45.493 11.8391 45.493 10.8774 44.8998 10.2842C44.3067 9.69108 43.3449 9.69108 42.7517 10.2842C42.1427 10.8931 41.3016 11.2266 40.4393 11.2003C39.5958 11.174 38.8283 10.8165 38.2779 10.1932C36.564 8.25216 34.0967 7.13889 31.5088 7.13889C29.2122 7.13889 27.1139 8.00154 25.519 9.41899V5.51892C25.519 4.68007 24.8389 4 24.0001 4C23.1613 4 22.4812 4.68007 22.4812 5.51892V9.41889C20.8862 8.00143 18.788 7.13879 16.4914 7.13879C13.9036 7.13879 11.4363 8.25206 9.72218 10.1932C9.17183 10.8164 8.40427 11.174 7.56086 11.2002C6.69802 11.2266 5.85735 10.8929 5.24836 10.2841C4.65528 9.69098 3.6935 9.69098 3.10031 10.2841C2.50712 10.8771 2.50712 11.8389 3.10031 12.4321C3.95202 13.2838 5.03734 13.8612 6.20113 14.1062L1.82432 25.9314H1.51892C0.68007 25.9314 0 26.6115 0 27.4504L0 27.7964C0 31.9595 3.38698 35.3466 7.55033 35.3466H7.7407C11.9039 35.3466 15.2909 31.9596 15.2909 27.7964V27.4504C15.2909 26.6115 14.6109 25.9314 13.772 25.9314H13.4667L9.06105 14.0289C10.1914 13.7258 11.2059 13.1027 11.9993 12.204C13.1369 10.9155 14.7742 10.1766 16.4913 10.1766C19.7941 10.1766 22.4811 12.8636 22.4811 16.1663V37.5405C20.4202 38.0853 18.7947 39.711 18.2498 41.7718H16.4912C15.6523 41.7718 14.9723 42.4519 14.9723 43.2907C14.9723 44.1296 15.6523 44.8097 16.4912 44.8097H31.5087C32.3476 44.8097 33.0276 44.1296 33.0276 43.2907C33.0276 42.4519 32.3476 41.7718 31.5087 41.7718H29.7501C29.2053 39.711 27.5797 38.0854 25.5188 37.5405V16.1663C25.5188 12.8636 28.2058 10.1766 31.5086 10.1766C33.2257 10.1766 34.8629 10.9155 36.0005 12.204C36.7939 13.1027 37.8084 13.7259 38.9387 14.0289L34.5333 25.9314H34.228C33.3891 25.9314 32.7091 26.6115 32.7091 27.4504V27.7964C32.7091 31.9595 36.096 35.3466 40.2593 35.3466H40.4497C44.6128 35.3466 47.9999 31.9596 47.9999 27.7964V27.4504C48 26.6115 47.32 25.9314 46.4811 25.9314ZM7.7406 32.3088H7.55023C5.46759 32.3088 3.7099 30.8907 3.19236 28.9693H12.0984C11.5808 30.8907 9.82334 32.3088 7.7406 32.3088ZM3.98371 25.9314L7.64542 16.0385L11.3071 25.9314H3.98371ZM26.4807 41.7718H21.5195C22.0318 40.9383 22.952 40.3811 24.0001 40.3811C25.0482 40.3811 25.9683 40.9383 26.4807 41.7718ZM40.3547 16.0385L44.0164 25.9314H36.693L40.3547 16.0385ZM40.4499 32.3088H40.2595C38.1769 32.3088 36.4193 30.8907 35.9017 28.9693H44.8076C44.2901 30.8907 42.5325 32.3088 40.4499 32.3088Z" fill="#515DC8"></path> </g> <defs> <clipPath id="clip0"> <rect width="48" height="48" fill="white" transform="translate(0 0.806641)"></rect> </clipPath> </defs> </svg> 