<?xml version="1.0" encoding="UTF-8"?> <svg xmlns="http://www.w3.org/2000/svg" width="167" height="23" viewBox="0 0 167 23" fill="none"> <g clip-path="url(#clip0_1_428)"> <path d="M166.999 8.70878C166.999 6.373 164.448 0.213867 157.224 0.213867C149.999 0.213867 147.448 6.373 147.448 8.70878V17.0232C147.448 18.3974 148.957 19.2533 150.126 18.5289C152.839 16.8428 156.112 13.3984 157.224 7.22379C158.335 13.3984 161.608 16.8428 164.322 18.5289C165.488 19.2533 166.999 18.3974 166.999 17.0232V8.70878Z" fill="black"></path> <path d="M108.766 0H108.371C105.562 0 103.3 0.894609 101.541 2.73539C99.7822 4.52718 98.9001 6.80367 98.9001 9.51585C98.9001 12.3724 99.7797 14.6721 101.562 16.4175C103.344 18.1371 105.606 19.0085 108.371 19.0085H108.766C111.531 19.0085 113.795 18.1371 115.575 16.4175C117.357 14.6747 118.237 12.375 118.237 9.51585C118.237 6.80367 117.357 4.52718 115.595 2.73539C113.836 0.894609 111.572 0 108.766 0ZM111.918 12.54C111.046 13.3263 109.952 13.6228 108.737 13.6228H108.397C107.182 13.6228 106.088 13.3289 105.217 12.54C104.345 11.7537 104.002 10.7946 104.002 9.49007C104.002 8.13914 104.347 7.25226 105.196 6.49171C106.027 5.72859 107.1 5.35992 108.376 5.35992H108.758C110.035 5.35992 111.108 5.72859 111.938 6.49171C112.789 7.25484 113.132 8.13914 113.132 9.49007C113.132 10.7946 112.787 11.7537 111.918 12.54Z" fill="black"></path> <path d="M45.2916 0.850664C44.9305 1.28121 44.7422 1.83551 44.7654 2.39754L44.7603 16.67C44.7603 17.2269 44.9382 17.7683 45.2942 18.1937C45.4876 18.4 45.7223 18.5624 45.9854 18.6655C46.2485 18.7712 46.4625 18.7892 46.8056 18.7892C47.3808 18.7892 47.8347 18.6861 48.2242 18.3355L59.6192 6.94535V16.6675C59.5986 17.2243 59.7894 17.7683 60.1505 18.1911C60.344 18.3974 60.5787 18.5598 60.8418 18.6655C61.1023 18.7712 61.3215 18.797 61.6671 18.797C62.0127 18.797 62.2655 18.7686 62.5312 18.6629C62.7968 18.5572 63.0341 18.3974 63.2327 18.1911C63.6041 17.7735 63.8001 17.2269 63.7769 16.6675V2.39754C63.7795 1.79168 63.6015 1.28894 63.2276 0.868711C62.8355 0.500039 62.3919 0.213867 61.8064 0.213867C61.2209 0.213867 60.6819 0.340195 60.2795 0.742383L48.9154 12.1016V2.39754C48.9154 1.7659 48.7477 1.29152 48.3841 0.868711C48.1855 0.657304 47.943 0.492305 47.6748 0.384023C47.4065 0.275742 47.1486 0.216445 46.7978 0.216445C46.4471 0.216445 46.2407 0.275742 45.9802 0.378867C45.7197 0.481992 45.485 0.644414 45.2916 0.850664Z" fill="black"></path> <path d="M121.796 18.1937C121.995 18.4 122.232 18.5624 122.498 18.6655C122.764 18.7712 123.016 18.7996 123.362 18.7996C123.708 18.7996 123.927 18.7738 124.187 18.6681C124.45 18.5624 124.685 18.4025 124.879 18.1937C125.24 17.7709 125.431 17.2269 125.41 16.67V6.94793L131.494 13.0297C132.24 13.7748 133.452 13.7748 134.197 13.0297L140.282 6.94793V16.67C140.261 17.2269 140.449 17.7709 140.811 18.1937C141.004 18.4025 141.241 18.5624 141.502 18.6681C141.765 18.7738 141.984 18.7996 142.33 18.7996C142.673 18.7996 142.928 18.7712 143.194 18.6655C143.457 18.5624 143.697 18.4 143.893 18.1937C144.264 17.776 144.46 17.2295 144.44 16.67V2.39754C144.44 1.79168 144.262 1.28894 143.89 0.868711C143.498 0.502617 143.054 0.213867 142.469 0.213867C141.881 0.213867 141.342 0.342773 140.942 0.742383L132.846 8.83511L124.75 0.742383C124.347 0.342773 123.808 0.213867 123.223 0.213867C122.637 0.213867 122.191 0.502617 121.802 0.868711C121.428 1.28894 121.25 1.79168 121.252 2.39754V16.67C121.232 17.2295 121.425 17.776 121.796 18.1937Z" fill="black"></path> <path d="M69.8254 13.7051C69.0594 13.7051 68.4352 13.9448 67.9787 14.4527C67.548 14.9348 67.3081 15.5381 67.3081 16.26C67.3081 16.9819 67.5248 17.5852 67.9555 18.0673C68.3862 18.5494 69.0104 18.7891 69.8254 18.7891C70.6405 18.7891 71.2646 18.5494 71.7186 18.0673C72.1751 17.5852 72.3892 16.9819 72.3892 16.26C72.3892 15.5613 72.1493 14.958 71.6928 14.4527C71.2414 13.9474 70.6173 13.7051 69.8254 13.7051Z" fill="black"></path> <path d="M22.9273 0.853127C22.561 1.27078 22.365 1.87406 22.365 2.46445V5.44734C22.365 8.54367 22.9995 10.6809 24.271 11.9081C26.0069 13.6277 28.5887 14.3883 31.9133 14.3883C34.6499 14.3883 36.0194 13.7747 37.5592 13.1379V16.6983C37.5592 17.3119 37.7269 17.8198 38.0931 18.2116C38.4594 18.6035 38.9778 18.7917 39.6381 18.7917C40.3216 18.7917 40.8942 18.6061 41.2346 18.2116C41.6009 17.8198 41.7453 17.1726 41.7453 16.6983V2.46445C41.7453 1.94883 41.539 1.2218 41.1702 0.829924C40.8039 0.438049 40.2906 0.216331 39.6304 0.216331C38.9469 0.216331 38.4336 0.412268 38.0906 0.829924C37.7475 1.24758 37.5541 1.82766 37.5541 2.46445V8.83758C36.4295 9.94359 34.8433 10.6062 32.228 10.6062C31.0312 10.6062 28.8156 10.2865 27.4719 9.03351C26.7626 8.37094 26.5511 7.04578 26.5511 5.2282V2.46445C26.5511 1.87406 26.3705 1.27078 26.0043 0.853127C25.638 0.435471 25.1196 0.216331 24.4619 0.216331C23.8016 0.213753 23.2935 0.435471 22.9273 0.853127Z" fill="black"></path> <path d="M0.53648 0.809414C0.172808 1.22191 0 1.72465 0 2.3434V2.3666C0 5.36496 0.755715 7.51769 2.26714 9.44355C3.80179 11.372 6.27269 12.3362 9.7237 12.3362C11.4982 12.3362 13.0329 12.0475 14.3276 11.4932C14.4721 11.421 14.8074 11.2766 14.9518 11.2276C14.0878 14.1435 11.6659 14.8653 9.19754 14.8911C6.70342 14.9143 5.45765 14.3858 3.99523 13.3004C2.74946 12.3852 1.76419 12.7693 1.16581 13.566C0.46942 14.507 0.613857 15.5666 1.8132 16.554C3.5387 18.0003 6.31912 18.7944 9.22075 18.7944C10.9953 18.7944 13.0586 18.5082 14.3302 17.9539C15.625 17.3996 16.6335 16.6056 17.3273 15.5924C18.0237 14.5792 18.5498 13.4706 18.8619 12.2666C19.174 11.0626 19.3571 9.68332 19.3571 8.19058V2.46457C19.3571 1.81488 19.174 1.27605 18.7897 0.840351C18.4312 0.407226 17.9024 0.213867 17.206 0.213867C16.5354 0.213867 16.0067 0.43043 15.6482 0.840351C15.2897 1.27348 15.1839 1.80457 15.1839 2.45426V2.57543C15.1839 6.93761 13.1463 8.43035 9.5741 8.43035C6.00187 8.43035 4.15772 6.59988 4.15772 2.52644V2.3434C4.15772 1.72465 3.97459 1.19871 3.61092 0.809414C3.22404 0.396914 2.72109 0.213867 2.03759 0.213867C1.4031 0.213867 0.876938 0.396914 0.53648 0.809414Z" fill="black"></path> <path d="M97.4073 22.1665C97.7658 21.834 97.9644 21.3622 97.9515 20.8749V17.5517C97.9515 16.4534 97.1545 14.904 95.2975 14.8576V3.24828C95.2975 1.58797 94.0749 0.242188 92.4139 0.242188H83.2628C81.5863 0.242188 80.2863 1.59312 80.2451 3.19156C80.1574 6.4039 79.6028 9.39453 78.9374 11.7793C78.5918 13.0219 78.2255 14.0584 77.9006 14.855C77.7974 14.855 77.7045 14.855 77.6272 14.855C75.7056 14.855 74.8932 16.4405 74.8932 17.5517V20.8749C74.8777 21.3648 75.0763 21.834 75.4374 22.1665C75.9429 22.5249 76.3118 22.6641 76.9643 22.6641C77.6168 22.6641 78.1069 22.5172 78.4938 22.1665C78.8626 21.8391 79.0664 21.3673 79.0509 20.8749V18.7944H93.7964V20.8749C93.7809 21.3673 93.9846 21.8417 94.3535 22.1665C94.7404 22.5172 95.2433 22.6641 95.8984 22.6641C96.5536 22.6641 96.8992 22.5249 97.4073 22.1665ZM91.132 4.14804V14.8524C88.478 14.8524 85.0992 14.8524 82.342 14.8524C82.5509 14.2414 82.7547 13.5866 82.9481 12.8956C83.6136 10.5134 84.181 7.32945 84.3615 4.14804H91.132Z" fill="black"></path> </g> <defs> <clipPath id="clip0_1_428"> <rect width="167" height="22.6643" fill="white"></rect> </clipPath> </defs> </svg> 