<?xml version="1.0" encoding="UTF-8"?> <svg xmlns="http://www.w3.org/2000/svg" width="80" height="80" viewBox="0 0 80 80" fill="none"> <path d="M40 80C62.0914 80 80 62.0914 80 40C80 17.9086 62.0914 0 40 0C17.9086 0 0 17.9086 0 40C0 62.0914 17.9086 80 40 80Z" fill="url(#paint0_linear)"></path> <path d="M50.5599 20.6934C52.8956 21.9704 55.0373 23.6958 56.8517 25.858C58.666 28.0202 59.9933 30.429 60.8453 32.951M19.1523 47.0483C20.0043 49.5701 21.3315 51.9787 23.1457 54.1407C24.9599 56.3027 27.1014 58.028 29.4369 59.305" stroke="#75EFE5" stroke-width="4" stroke-linecap="round" stroke-linejoin="round"></path> <path fill-rule="evenodd" clip-rule="evenodd" d="M36.6207 25.6099C36.0243 24.6802 34.7872 24.4099 33.8575 25.0063C32.9278 25.6026 32.6575 26.8398 33.2539 27.7695L39.2639 37.1394C39.2128 37.1843 39.1619 37.2301 39.1109 37.2769L30.7981 27.1125C30.0988 26.2574 28.8388 26.1311 27.9837 26.8304C27.1287 27.5297 27.0025 28.7897 27.7018 29.6447L36.5703 40.4888C36.5436 40.5324 36.5171 40.5761 36.4909 40.6197L29.0663 32.903C28.3004 32.107 27.0343 32.0826 26.2384 32.8484C25.4424 33.6143 25.4179 34.8804 26.1837 35.6763L34.7195 44.5478C34.6719 44.6948 34.6268 44.8399 34.5838 44.9831L29.817 40.4417C29.0173 39.6797 27.7513 39.7104 26.9894 40.5101C26.2275 41.3098 26.2582 42.5758 27.0579 43.3377L35.5762 51.4533C37.286 53.7028 40.3427 55.2843 43.8739 54.9785C48.7493 54.5563 50.6941 50.7563 51.1747 47.8008C51.5648 45.4022 51.3058 42.3303 51.0618 39.4351C50.9383 37.9694 50.8187 36.5489 50.7889 35.2841C50.8478 34.7739 50.9666 34.3348 51.1061 33.9966C51.2056 33.7551 51.303 33.5956 51.3702 33.5071C51.3796 33.4948 51.3877 33.4847 51.3944 33.4767C52.3015 32.9399 52.6411 31.7809 52.149 30.8341C51.6397 29.854 50.4321 29.4723 49.452 29.9817C48.4254 30.5152 47.7811 31.5672 47.4081 32.4717C46.9982 33.4659 46.7493 34.6765 46.7493 35.9786C46.7493 36.4496 46.7325 36.8862 46.7032 37.3006C46.4488 37.5273 46.1593 37.6675 45.8172 37.6675C45.0252 37.6675 44.4835 37.4524 44.0394 37.1759L36.6207 25.6099ZM51.4145 33.4541C51.4169 33.4517 51.4181 33.4506 51.4181 33.4506C51.4182 33.4507 51.417 33.4519 51.4145 33.4541Z" fill="white"></path> <defs> <linearGradient id="paint0_linear" x1="-5.96046e-07" y1="80" x2="89.763" y2="13.0994" gradientUnits="userSpaceOnUse"> <stop stop-color="#1CC1BB"></stop> <stop offset="1" stop-color="#54DED0"></stop> </linearGradient> </defs> </svg> 