<?xml version="1.0" encoding="UTF-8"?> <svg xmlns="http://www.w3.org/2000/svg" width="48" height="45" viewBox="0 0 48 45" fill="none"> <path d="M3.42857 0C1.53429 0 0 1.54904 0 3.46154V10.3846V38.0769H21.4688C21.0813 36.9727 20.8039 35.8183 20.6719 34.6154H3.42857V10.3846H41.1429V18.2136C42.3617 18.6498 43.5154 19.2195 44.5714 19.9343V5.19231V3.46154C44.5714 1.54904 43.0371 0 41.1429 0H3.42857ZM10.2857 15.5769C9.83106 15.5769 9.39502 15.7593 9.07353 16.0839C8.75204 16.4084 8.57143 16.8487 8.57143 17.3077C8.57143 17.7667 8.75204 18.2069 9.07353 18.5315C9.39502 18.8561 9.83106 19.0385 10.2857 19.0385C10.7404 19.0385 11.1764 18.8561 11.4979 18.5315C11.8194 18.2069 12 17.7667 12 17.3077C12 16.8487 11.8194 16.4084 11.4979 16.0839C11.1764 15.7593 10.7404 15.5769 10.2857 15.5769ZM17.1429 15.5769C16.1966 15.5769 15.4286 16.3523 15.4286 17.3077C15.4286 18.2631 16.1966 19.0385 17.1429 19.0385H28.952C30.5772 18.1938 32.3679 17.6288 34.2656 17.4125C34.2673 17.3761 34.2857 17.344 34.2857 17.3077C34.2857 16.3523 33.5177 15.5769 32.5714 15.5769H17.1429ZM36 20.7692C29.3726 20.7692 24 26.1935 24 32.8846C24 39.5758 29.3726 45 36 45C42.6274 45 48 39.5758 48 32.8846C48 26.1935 42.6274 20.7692 36 20.7692ZM10.2857 22.5C9.83106 22.5 9.39502 22.6823 9.07353 23.0069C8.75204 23.3315 8.57143 23.7717 8.57143 24.2308C8.57143 24.6898 8.75204 25.13 9.07353 25.4546C9.39502 25.7792 9.83106 25.9615 10.2857 25.9615C10.7404 25.9615 11.1764 25.7792 11.4979 25.4546C11.8194 25.13 12 24.6898 12 24.2308C12 23.7717 11.8194 23.3315 11.4979 23.0069C11.1764 22.6823 10.7404 22.5 10.2857 22.5ZM17.1429 22.5C16.1966 22.5 15.4286 23.2754 15.4286 24.2308C15.4286 25.1862 16.1966 25.9615 17.1429 25.9615H22.1953C22.8176 24.6998 23.6017 23.5385 24.5257 22.5H17.1429ZM32.5714 27.6923C33.0099 27.6923 33.4483 27.861 33.7835 28.1994L36 30.4372L38.2165 28.1994C38.8868 27.5226 39.9703 27.5226 40.6406 28.1994C41.3109 28.8761 41.3109 29.9701 40.6406 30.6468L38.4241 32.8846L40.6406 35.1224C41.3109 35.7992 41.3109 36.8931 40.6406 37.5699C40.3063 37.9074 39.8674 38.0769 39.4286 38.0769C38.9897 38.0769 38.5508 37.9074 38.2165 37.5699L36 35.332L33.7835 37.5699C33.4492 37.9074 33.0103 38.0769 32.5714 38.0769C32.1326 38.0769 31.6937 37.9074 31.3594 37.5699C30.6891 36.8931 30.6891 35.7992 31.3594 35.1224L33.5759 32.8846L31.3594 30.6468C30.6891 29.9701 30.6891 28.8761 31.3594 28.1994C31.6945 27.861 32.133 27.6923 32.5714 27.6923Z" fill="url(#paint0_linear_1_890)"></path> <defs> <linearGradient id="paint0_linear_1_890" x1="0" y1="45" x2="54.1041" y2="35.7662" gradientUnits="userSpaceOnUse"> <stop stop-color="#219653"></stop> <stop offset="1" stop-color="#4AB668"></stop> </linearGradient> </defs> </svg> 