<?xml version="1.0" encoding="UTF-8"?> <svg xmlns="http://www.w3.org/2000/svg" width="74" height="33" viewBox="0 0 74 33" fill="none"> <path d="M27.0463 24H9.88633V9.72H12.0463V22.12H17.3663V9.72H19.5463V22.12H24.8863V9.72H27.0463V24ZM34.8029 13.02C36.1496 13.02 37.1562 13.32 37.8229 13.92C38.5029 14.5067 38.8429 15.4333 38.8429 16.7V24H37.3429L36.9229 22.5H36.8429C36.3762 23.0867 35.8829 23.52 35.3629 23.8C34.8562 24.0667 34.1496 24.2 33.2429 24.2C32.2696 24.2 31.4629 23.94 30.8229 23.42C30.1829 22.8867 29.8629 22.06 29.8629 20.94C29.8629 19.8467 30.2762 19.0133 31.1029 18.44C31.9296 17.8667 33.2029 17.5533 34.9229 17.5L36.7629 17.44V16.84C36.7629 16.0533 36.5829 15.5 36.2229 15.18C35.8629 14.8467 35.3562 14.68 34.7029 14.68C34.1562 14.68 33.6296 14.76 33.1229 14.92C32.6162 15.08 32.1296 15.2733 31.6629 15.5L30.9829 13.96C31.4896 13.6933 32.0696 13.4733 32.7229 13.3C33.3896 13.1133 34.0829 13.02 34.8029 13.02ZM35.3029 18.86C34.0762 18.9133 33.2229 19.12 32.7429 19.48C32.2762 19.8267 32.0429 20.32 32.0429 20.96C32.0429 21.52 32.2096 21.9267 32.5429 22.18C32.8762 22.4333 33.3096 22.56 33.8429 22.56C34.6696 22.56 35.3562 22.3267 35.9029 21.86C36.4629 21.3933 36.7429 20.6933 36.7429 19.76V18.82L35.3029 18.86ZM48.9473 13.22V14.92H44.2273V24H42.1073V13.22H48.9473ZM65.0884 24H55.4884V22.36L59.1684 18.62C59.8884 17.8867 60.4884 17.2533 60.9684 16.72C61.4484 16.1733 61.8084 15.6533 62.0484 15.16C62.2884 14.6533 62.4084 14.1067 62.4084 13.52C62.4084 12.8 62.195 12.2533 61.7684 11.88C61.3417 11.5067 60.7884 11.32 60.1084 11.32C59.455 11.32 58.8684 11.44 58.3484 11.68C57.8284 11.92 57.2884 12.2667 56.7284 12.72L55.5884 11.3C56.1617 10.82 56.815 10.4067 57.5484 10.06C58.2817 9.7 59.155 9.52 60.1684 9.52C61.5284 9.52 62.595 9.86667 63.3684 10.56C64.155 11.2533 64.5484 12.18 64.5484 13.34C64.5484 14.1 64.395 14.8067 64.0884 15.46C63.7817 16.1 63.3484 16.74 62.7884 17.38C62.2284 18.02 61.5684 18.7067 60.8084 19.44L58.1484 22.02V22.12H65.0884V24Z" fill="#515DC8"></path> <path d="M0.75 16C0.75 13.1874 0.750583 11.123 0.883751 9.49309C1.0162 7.87195 1.27607 6.7468 1.75819 5.80059C2.64502 4.06009 4.06009 2.64502 5.80059 1.75819C6.7468 1.27607 7.87195 1.0162 9.49309 0.883751C11.123 0.750583 13.1874 0.75 16 0.75H58C60.8126 0.75 62.877 0.750583 64.5069 0.883751C66.128 1.0162 67.2532 1.27607 68.1994 1.75819C69.9399 2.64502 71.355 4.06009 72.2418 5.80059C72.7239 6.7468 72.9838 7.87195 73.1162 9.49309C73.2494 11.123 73.25 13.1874 73.25 16V17C73.25 19.8126 73.2494 21.877 73.1162 23.5069C72.9838 25.128 72.7239 26.2532 72.2418 27.1994C71.355 28.9399 69.9399 30.355 68.1994 31.2418C67.2532 31.7239 66.128 31.9838 64.5069 32.1162C62.877 32.2494 60.8126 32.25 58 32.25H16C13.1874 32.25 11.123 32.2494 9.49309 32.1162C7.87195 31.9838 6.7468 31.7239 5.80059 31.2418C4.06009 30.355 2.64502 28.9399 1.75819 27.1994C1.27607 26.2532 1.0162 25.128 0.883751 23.5069C0.750583 21.877 0.75 19.8126 0.75 17V16Z" stroke="#515DC8" stroke-width="1.5"></path> </svg> 