<?xml version="1.0" encoding="UTF-8"?> <svg xmlns="http://www.w3.org/2000/svg" width="74" height="33" viewBox="0 0 74 33" fill="none"> <path d="M13.7074 9H15.5874V21.28H20.5674V9H22.4474V21.28H27.4274V9H29.3074V23H13.7074V9ZM34.916 23.16C33.876 23.16 33.0827 22.9 32.536 22.38C31.9893 21.8467 31.716 21.12 31.716 20.2C31.716 19.6933 31.796 19.24 31.956 18.84C32.116 18.4267 32.3693 18.08 32.716 17.8C33.076 17.52 33.5293 17.3067 34.076 17.16C34.636 17.0133 35.316 16.94 36.116 16.94H38.116V16.2C38.116 15.64 37.9493 15.2067 37.616 14.9C37.296 14.5933 36.796 14.44 36.116 14.44C35.436 14.44 34.9427 14.5667 34.636 14.82C34.3427 15.0733 34.1693 15.4 34.116 15.8H32.116C32.1693 14.9467 32.516 14.24 33.156 13.68C33.8093 13.12 34.796 12.84 36.116 12.84C37.3693 12.84 38.316 13.14 38.956 13.74C39.596 14.34 39.916 15.16 39.916 16.2V23H38.516L38.296 21.36C37.936 21.9333 37.4627 22.38 36.876 22.7C36.3027 23.0067 35.6493 23.16 34.916 23.16ZM35.116 21.56C35.556 21.56 35.956 21.4867 36.316 21.34C36.6893 21.1933 37.0093 21 37.276 20.76C37.5427 20.5067 37.7493 20.2133 37.896 19.88C38.0427 19.5467 38.116 19.1933 38.116 18.82V18.46H36.116C35.196 18.46 34.5427 18.62 34.156 18.94C33.7827 19.2467 33.596 19.6533 33.596 20.16C33.596 20.5867 33.7293 20.9267 33.996 21.18C34.2627 21.4333 34.636 21.56 35.116 21.56ZM42.8066 13H49.5066V14.64H44.6066V23H42.8066V13ZM55.3004 11.02L58.2204 9H60.1004V23H58.2204V11.08L55.3004 13.06V11.02Z" fill="#515DC8"></path> <path d="M0.75 16C0.75 13.1874 0.750583 11.123 0.883751 9.49309C1.0162 7.87195 1.27607 6.7468 1.75819 5.80059C2.64502 4.06009 4.06009 2.64502 5.80059 1.75819C6.7468 1.27607 7.87195 1.0162 9.49309 0.883751C11.123 0.750583 13.1874 0.75 16 0.75H58C60.8126 0.75 62.877 0.750583 64.5069 0.883751C66.128 1.0162 67.2532 1.27607 68.1994 1.75819C69.9399 2.64502 71.355 4.06009 72.2418 5.80059C72.7239 6.7468 72.9838 7.87195 73.1162 9.49309C73.2494 11.123 73.25 13.1874 73.25 16V17C73.25 19.8126 73.2494 21.877 73.1162 23.5069C72.9838 25.128 72.7239 26.2532 72.2418 27.1994C71.355 28.9399 69.9399 30.355 68.1994 31.2418C67.2532 31.7239 66.128 31.9838 64.5069 32.1162C62.877 32.2494 60.8126 32.25 58 32.25H16C13.1874 32.25 11.123 32.2494 9.49309 32.1162C7.87195 31.9838 6.7468 31.7239 5.80059 31.2418C4.06009 30.355 2.64502 28.9399 1.75819 27.1994C1.27607 26.2532 1.0162 25.128 0.883751 23.5069C0.750583 21.877 0.75 19.8126 0.75 17V16Z" stroke="#515DC8" stroke-width="1.5"></path> </svg> 