<?xml version="1.0" encoding="UTF-8"?> <svg xmlns="http://www.w3.org/2000/svg" width="43" height="41" viewBox="0 0 43 41" fill="none"> <path opacity="0.35" d="M20.5 41C31.8218 41 41 31.8218 41 20.5C41 9.17816 31.8218 0 20.5 0C9.17816 0 0 9.17816 0 20.5C0 31.8218 9.17816 41 20.5 41Z" fill="url(#paint0_linear_1_895)"></path> <path d="M26.9351 15.9687L41.5459 11.5191C42.7626 11.1488 43.368 9.66138 42.7626 8.47651C41.0258 5.07214 38.4395 2.23692 35.3034 0.290359C34.307 -0.327464 33.0208 0.0745449 32.5047 1.17478L26.0796 14.8684C25.7938 15.4757 26.3238 16.1549 26.9351 15.9687Z" fill="url(#paint1_linear_1_895)"></path> <path d="M20.5 18.4501V0C8.98508 0 -0.31374 9.49564 0.00811041 21.0823C0.305361 31.7792 9.22288 40.6968 19.9198 40.992C31.5064 41.3118 41 32.015 41 20.5001H22.55C21.4184 20.5001 20.5 19.5817 20.5 18.4501Z" fill="url(#paint2_linear_1_895)"></path> <defs> <linearGradient id="paint0_linear_1_895" x1="-3.05474e-07" y1="41" x2="46.0035" y2="6.71342" gradientUnits="userSpaceOnUse"> <stop stop-color="#515DC8"></stop> <stop offset="1" stop-color="#6666CC"></stop> </linearGradient> <linearGradient id="paint1_linear_1_895" x1="26" y1="16" x2="44.2352" y2="1.55983" gradientUnits="userSpaceOnUse"> <stop stop-color="#515DC8"></stop> <stop offset="1" stop-color="#6666CC"></stop> </linearGradient> <linearGradient id="paint2_linear_1_895" x1="-3.05474e-07" y1="41" x2="46.0035" y2="6.71342" gradientUnits="userSpaceOnUse"> <stop stop-color="#515DC8"></stop> <stop offset="1" stop-color="#6666CC"></stop> </linearGradient> </defs> </svg> 