<?xml version="1.0" encoding="UTF-8"?> <svg xmlns="http://www.w3.org/2000/svg" width="44" height="45" viewBox="0 0 44 45" fill="none"> <path d="M29.4619 0.00140988C29.1121 0.011474 28.766 0.0751624 28.436 0.19018L5.0208 8.35305H32.9272V3.31363C32.9272 2.87034 32.8368 2.43156 32.6614 2.02326C32.486 1.61496 32.2291 1.24545 31.906 0.936609C31.5829 0.627764 31.2001 0.385862 30.7803 0.225225C30.3605 0.0645874 29.9122 -0.0115195 29.4619 0.00140988ZM0 10.5626V41.6863C0.00101 42.5648 0.356079 43.4071 0.98731 44.0283C1.61854 44.6496 2.47438 44.999 3.36708 45H40.6329C41.5256 44.999 42.3815 44.6496 43.0127 44.0283C43.6439 43.4071 43.999 42.5648 44 41.6863V36.7754H34.9917C33.5039 36.7738 32.0775 36.1914 31.0255 35.156C29.9734 34.1206 29.3816 32.7168 29.38 31.2525V24.9511C29.3816 23.4868 29.9734 22.083 31.0255 21.0476C32.0775 20.0122 33.5039 19.4298 34.9917 19.4282H44V13.8764C43.999 12.9978 43.6439 12.1555 43.0127 11.5343C42.3815 10.9131 41.5256 10.5636 40.6329 10.5626H0ZM34.9917 21.6373C34.0991 21.6383 33.2432 21.9878 32.612 22.609C31.9808 23.2302 31.6257 24.0725 31.6247 24.9511V31.2525C31.6257 32.1311 31.9808 32.9734 32.612 33.5946C33.2432 34.2158 34.0991 34.5653 34.9917 34.5663H44V21.6373H34.9917Z" fill="url(#paint0_linear_1_885)"></path> <defs> <linearGradient id="paint0_linear_1_885" x1="6.49255e-07" y1="44.3077" x2="49.565" y2="36.8154" gradientUnits="userSpaceOnUse"> <stop stop-color="#EB5757"></stop> <stop offset="1" stop-color="#F4795E"></stop> </linearGradient> </defs> </svg> 