<?xml version="1.0" encoding="UTF-8"?> <svg xmlns="http://www.w3.org/2000/svg" width="75" height="33" viewBox="0 0 75 33" fill="none"> <path d="M27.6281 24H10.4681V9.72H12.6281V22.12H17.9481V9.72H20.1281V22.12H25.4681V9.72H27.6281V24ZM35.3847 13.02C36.7313 13.02 37.738 13.32 38.4047 13.92C39.0847 14.5067 39.4247 15.4333 39.4247 16.7V24H37.9247L37.5047 22.5H37.4247C36.958 23.0867 36.4647 23.52 35.9447 23.8C35.438 24.0667 34.7313 24.2 33.8247 24.2C32.8513 24.2 32.0447 23.94 31.4047 23.42C30.7647 22.8867 30.4447 22.06 30.4447 20.94C30.4447 19.8467 30.858 19.0133 31.6847 18.44C32.5113 17.8667 33.7847 17.5533 35.5047 17.5L37.3447 17.44V16.84C37.3447 16.0533 37.1647 15.5 36.8047 15.18C36.4447 14.8467 35.938 14.68 35.2847 14.68C34.738 14.68 34.2113 14.76 33.7047 14.92C33.198 15.08 32.7113 15.2733 32.2447 15.5L31.5647 13.96C32.0713 13.6933 32.6513 13.4733 33.3047 13.3C33.9713 13.1133 34.6647 13.02 35.3847 13.02ZM35.8847 18.86C34.658 18.9133 33.8047 19.12 33.3247 19.48C32.858 19.8267 32.6247 20.32 32.6247 20.96C32.6247 21.52 32.7913 21.9267 33.1247 22.18C33.458 22.4333 33.8913 22.56 34.4247 22.56C35.2513 22.56 35.938 22.3267 36.4847 21.86C37.0447 21.3933 37.3247 20.6933 37.3247 19.76V18.82L35.8847 18.86ZM49.5291 13.22V14.92H44.8091V24H42.6891V13.22H49.5291ZM65.1101 13.02C65.1101 13.9933 64.8301 14.7667 64.2701 15.34C63.7235 15.9133 63.0101 16.2933 62.1301 16.48V16.56C63.2635 16.6933 64.1168 17.0533 64.6901 17.64C65.2635 18.2133 65.5501 18.9733 65.5501 19.92C65.5501 20.7467 65.3501 21.4867 64.9501 22.14C64.5635 22.78 63.9568 23.2867 63.1301 23.66C62.3168 24.02 61.2701 24.2 59.9901 24.2C59.2301 24.2 58.5235 24.14 57.8701 24.02C57.2168 23.9 56.5968 23.7 56.0101 23.42V21.5C56.6101 21.8067 57.2501 22.04 57.9301 22.2C58.6235 22.36 59.2835 22.44 59.9101 22.44C61.1235 22.44 61.9968 22.2133 62.5301 21.76C63.0635 21.2933 63.3301 20.6467 63.3301 19.82C63.3301 19.02 63.0101 18.4333 62.3701 18.06C61.7301 17.6867 60.7701 17.5 59.4901 17.5H58.1901V15.76H59.5101C60.7235 15.76 61.6035 15.5333 62.1501 15.08C62.6968 14.6267 62.9701 14.0333 62.9701 13.3C62.9701 12.66 62.7568 12.1667 62.3301 11.82C61.9168 11.46 61.3168 11.28 60.5301 11.28C59.7968 11.28 59.1568 11.3933 58.6101 11.62C58.0768 11.8467 57.5768 12.12 57.1101 12.44L56.0701 10.98C56.5901 10.58 57.2235 10.24 57.9701 9.96C58.7301 9.66667 59.6035 9.52 60.5901 9.52C62.0701 9.52 63.1901 9.84667 63.9501 10.5C64.7235 11.14 65.1101 11.98 65.1101 13.02Z" fill="#515DC8"></path> <path d="M1.55603 16C1.55603 13.1874 1.55661 11.123 1.68978 9.49309C1.82223 7.87195 2.0821 6.7468 2.56422 5.80059C3.45105 4.06009 4.86612 2.64502 6.60662 1.75819C7.55283 1.27607 8.67798 1.0162 10.2991 0.883751C11.929 0.750583 13.9934 0.75 16.806 0.75H58.3575C61.1702 0.75 63.2346 0.750583 64.8644 0.883751C66.4856 1.0162 67.6107 1.27607 68.557 1.75819C70.2975 2.64502 71.7125 4.06009 72.5993 5.80059C73.0815 6.7468 73.3413 7.87195 73.4738 9.49309C73.607 11.123 73.6075 13.1874 73.6075 16V17C73.6075 19.8126 73.607 21.877 73.4738 23.5069C73.3413 25.128 73.0815 26.2532 72.5993 27.1994C71.7125 28.9399 70.2975 30.355 68.557 31.2418C67.6107 31.7239 66.4856 31.9838 64.8644 32.1162C63.2346 32.2494 61.1702 32.25 58.3575 32.25H16.806C13.9934 32.25 11.929 32.2494 10.2991 32.1162C8.67798 31.9838 7.55283 31.7239 6.60662 31.2418C4.86612 30.355 3.45105 28.9399 2.56422 27.1994C2.0821 26.2532 1.82223 25.128 1.68978 23.5069C1.55661 21.877 1.55603 19.8126 1.55603 17V16Z" stroke="#515DC8" stroke-width="1.5"></path> </svg> 