<?xml version="1.0" encoding="UTF-8"?> <svg xmlns="http://www.w3.org/2000/svg" width="65" height="65" viewBox="0 0 65 65" fill="none"> <path d="M35.2078 5.41669C34.0852 5.41669 33.1765 6.32669 33.1765 7.44794V19.5799L31.1955 14.7953C30.7663 13.7581 29.576 13.2618 28.5401 13.6951C27.5042 14.1244 27.0146 15.3132 27.4425 16.3505L29.4235 21.1351L20.8436 12.5552C20.05 11.7616 18.7648 11.7616 17.9713 12.5552C17.1777 13.3487 17.1777 14.6339 17.9713 15.4275L26.5512 24.0074L17.7041 20.3416C16.6655 19.911 15.478 20.4059 15.0487 21.4419C14.6194 22.4792 15.1117 23.668 16.149 24.0973L24.996 27.7604H12.864C11.7414 27.7604 10.8328 28.6704 10.8328 29.7917C10.8328 30.9129 11.7414 31.8229 12.864 31.8229H24.996L16.149 35.4861C15.113 35.9153 14.6208 37.1042 15.0487 38.1415C15.3723 38.9229 16.1303 39.3952 16.9265 39.3952C17.1852 39.3952 17.4495 39.3474 17.7041 39.2418L26.5512 35.576L6.01122 56.1159C5.81628 56.3031 5.66064 56.5273 5.55343 56.7754C5.44621 57.0234 5.38957 57.2904 5.38682 57.5607C5.38408 57.8309 5.43528 58.099 5.53743 58.3492C5.63958 58.5994 5.79062 58.8267 5.98172 59.0178C6.17281 59.2089 6.40012 59.3599 6.65032 59.4621C6.90052 59.5642 7.16859 59.6154 7.43883 59.6127C7.70906 59.6099 7.97603 59.5533 8.22411 59.4461C8.47218 59.3388 8.69636 59.1832 8.88354 58.9883L29.4235 38.4483L25.7577 47.2953C25.3285 48.3326 25.8207 49.5215 26.858 49.9508C27.1126 50.0564 27.3756 50.1042 27.6356 50.1042C28.4318 50.1042 29.1898 49.6319 29.5134 48.8505L33.1765 40.0035V52.1354C33.1765 53.2567 34.0852 54.1667 35.2078 54.1667C36.3304 54.1667 37.239 53.2567 37.239 52.1354V40.0035L40.9022 48.8505C41.2258 49.6319 41.9838 50.1042 42.78 50.1042C43.0387 50.1042 43.303 50.0564 43.5576 49.9508C44.5935 49.5215 45.0858 48.3326 44.6579 47.2953L40.9921 38.4483L43.9279 41.3841C44.3233 41.7809 44.844 41.9792 45.364 41.9792C45.884 41.9792 46.4034 41.7809 46.8002 41.3841C47.5937 40.5905 47.5937 39.3053 46.8002 38.5118L43.8644 35.576L51.3573 38.681C51.6119 38.7867 51.8749 38.8344 52.1349 38.8344C52.9311 38.8344 53.6891 38.3621 54.0127 37.5808C54.442 36.5435 53.9498 35.3573 52.9125 34.928L45.4196 31.8229H57.5515C58.6741 31.8229 59.5828 30.9129 59.5828 29.7917C59.5828 28.6704 58.6741 27.7604 57.5515 27.7604H45.4222L48.85 26.3401C49.8859 25.9109 50.3781 24.722 49.9502 23.6847C49.521 22.6488 48.3307 22.1551 47.2948 22.5871L43.8644 24.0074L52.4443 15.4275C53.2379 14.6339 53.2379 13.3487 52.4443 12.5552C51.6508 11.7616 50.3656 11.7616 49.572 12.5552L40.9921 21.1351L42.9731 16.3479C43.4024 15.3106 42.9128 14.1244 41.8755 13.6951C40.8368 13.2631 39.6493 13.7581 39.22 14.7953L37.239 19.5799V7.44794C37.239 6.32669 36.3304 5.41669 35.2078 5.41669ZM43.9014 6.77085C43.3627 6.77085 42.8461 6.98486 42.4651 7.36579C42.0842 7.74673 41.8702 8.26338 41.8702 8.8021C41.8702 9.34082 42.0842 9.85748 42.4651 10.2384C42.8461 10.6193 43.3627 10.8334 43.9014 10.8334C44.4402 10.8334 44.9568 10.6193 45.3377 10.2384C45.7187 9.85748 45.9327 9.34082 45.9327 8.8021C45.9327 8.26338 45.7187 7.74673 45.3377 7.36579C44.9568 6.98486 44.4402 6.77085 43.9014 6.77085ZM10.1557 17.3847C9.61699 17.3847 9.10033 17.5987 8.7194 17.9796C8.33847 18.3605 8.12446 18.8772 8.12446 19.4159C8.12446 19.9546 8.33847 20.4713 8.7194 20.8522C9.10033 21.2332 9.61699 21.4472 10.1557 21.4472C10.6944 21.4472 11.2111 21.2332 11.592 20.8522C11.973 20.4713 12.187 19.9546 12.187 19.4159C12.187 18.8772 11.973 18.3605 11.592 17.9796C11.2111 17.5987 10.6944 17.3847 10.1557 17.3847ZM54.8432 19.6275C54.3045 19.6275 53.7878 19.8415 53.4069 20.2224C53.026 20.6034 52.812 21.12 52.812 21.6588C52.812 22.1975 53.026 22.7141 53.4069 23.0951C53.7878 23.476 54.3045 23.69 54.8432 23.69C55.3819 23.69 55.8986 23.476 56.2795 23.0951C56.6605 22.7141 56.8745 22.1975 56.8745 21.6588C56.8745 21.12 56.6605 20.6034 56.2795 20.2224C55.8986 19.8415 55.3819 19.6275 54.8432 19.6275ZM35.2078 27.0834C36.7041 27.0834 37.9161 28.2953 37.9161 29.7917C37.9161 31.288 36.7041 32.5 35.2078 32.5C33.7114 32.5 32.4995 31.288 32.4995 29.7917C32.4995 28.2953 33.7114 27.0834 35.2078 27.0834ZM50.7807 43.3334C50.242 43.3334 49.7253 43.5474 49.3444 43.9283C48.9635 44.3092 48.7495 44.8259 48.7495 45.3646C48.7495 45.9033 48.9635 46.42 49.3444 46.8009C49.7253 47.1818 50.242 47.3959 50.7807 47.3959C51.3194 47.3959 51.8361 47.1818 52.217 46.8009C52.598 46.42 52.812 45.9033 52.812 45.3646C52.812 44.8259 52.598 44.3092 52.217 43.9283C51.8361 43.5474 51.3194 43.3334 50.7807 43.3334Z" fill="#5C5C5C" fill-opacity="0.8"></path> </svg> 