<?xml version="1.0" encoding="UTF-8"?> <svg xmlns="http://www.w3.org/2000/svg" width="139" height="20" viewBox="0 0 139 20" fill="none"> <path d="M137.544 9.22449C137.544 7.42094 135.443 2.66522 129.493 2.66522C123.543 2.66522 121.442 7.42094 121.442 9.22449V15.6444C121.442 16.7054 122.685 17.3663 123.647 16.807C125.882 15.5051 128.577 12.8455 129.493 8.07786C130.409 12.8455 133.104 15.5051 135.339 16.807C136.299 17.3663 137.544 16.7054 137.544 15.6444V9.22449Z" fill="#1F1F1F"></path> <path d="M89.5814 2.5H89.2564C86.9431 2.5 85.0801 3.19076 83.6313 4.6121C82.1826 5.99562 81.4561 7.75338 81.4561 9.84757C81.4561 12.0532 82.1804 13.8289 83.6483 15.1766C85.1161 16.5044 86.9792 17.1772 89.2564 17.1772H89.5814C91.8587 17.1772 93.7238 16.5044 95.1896 15.1766C96.6575 13.8309 97.3818 12.0552 97.3818 9.84757C97.3818 7.75338 96.6575 5.99562 95.2066 4.6121C93.7578 3.19076 91.8926 2.5 89.5814 2.5ZM92.1773 12.1826C91.4593 12.7898 90.5586 13.0187 89.558 13.0187H89.2776C88.2771 13.0187 87.3764 12.7918 86.6584 12.1826C85.9404 11.5755 85.6579 10.8349 85.6579 9.82766C85.6579 8.78455 85.9425 8.09976 86.6414 7.51251C87.3254 6.92327 88.2091 6.63861 89.2606 6.63861H89.5751C90.6266 6.63861 91.5102 6.92327 92.1943 7.51251C92.8953 8.10175 93.1779 8.78455 93.1779 9.82766C93.1779 10.8349 92.8932 11.5755 92.1773 12.1826Z" fill="#1F1F1F"></path> <path d="M37.3028 3.15692C37.0054 3.48936 36.8503 3.91736 36.8695 4.35132L36.8652 15.3717C36.8652 15.8017 37.0118 16.2197 37.3049 16.5482C37.4643 16.7074 37.6576 16.8328 37.8743 16.9125C38.0909 16.9941 38.2673 17.008 38.5498 17.008C39.0235 17.008 39.3974 16.9284 39.7181 16.6577L49.1033 7.86287V15.3697C49.0863 15.7997 49.2435 16.2197 49.5409 16.5462C49.7002 16.7054 49.8935 16.8308 50.1102 16.9125C50.3248 16.9941 50.5053 17.014 50.7899 17.014C51.0746 17.014 51.2828 16.9921 51.5016 16.9105C51.7204 16.8289 51.9159 16.7054 52.0794 16.5462C52.3853 16.2237 52.5467 15.8017 52.5276 15.3697V4.35132C52.5298 3.88351 52.3832 3.49533 52.0752 3.17085C51.7523 2.88619 51.3869 2.66522 50.9047 2.66522C50.4225 2.66522 49.9785 2.76277 49.6471 3.07331L40.2874 11.8442V4.35132C40.2874 3.86361 40.1494 3.49732 39.8499 3.17085C39.6862 3.00762 39.4866 2.88021 39.2657 2.79661C39.0448 2.713 38.8323 2.66721 38.5434 2.66721C38.2545 2.66721 38.0845 2.713 37.87 2.79263C37.6554 2.87225 37.4621 2.99766 37.3028 3.15692Z" fill="#1F1F1F"></path> <path d="M100.314 16.5482C100.477 16.7074 100.673 16.8328 100.892 16.9125C101.11 16.9941 101.319 17.016 101.603 17.016C101.888 17.016 102.068 16.9961 102.283 16.9145C102.5 16.8328 102.693 16.7094 102.852 16.5482C103.15 16.2217 103.307 15.8017 103.29 15.3717V7.86486L108.301 12.5609C108.916 13.1362 109.914 13.1362 110.527 12.5609L115.538 7.86486V15.3717C115.521 15.8017 115.677 16.2217 115.974 16.5482C116.134 16.7094 116.329 16.8328 116.543 16.9145C116.76 16.9961 116.941 17.016 117.225 17.016C117.508 17.016 117.718 16.9941 117.937 16.9125C118.154 16.8328 118.351 16.7074 118.512 16.5482C118.818 16.2257 118.98 15.8037 118.962 15.3717V4.35132C118.962 3.88351 118.816 3.49533 118.51 3.17085C118.188 2.88818 117.822 2.66522 117.34 2.66522C116.856 2.66522 116.412 2.76476 116.082 3.07331L109.415 9.32203L102.746 3.07331C102.415 2.76476 101.971 2.66522 101.489 2.66522C101.006 2.66522 100.639 2.88818 100.318 3.17085C100.01 3.49533 99.8634 3.88351 99.8655 4.35132V15.3717C99.8485 15.8037 100.008 16.2257 100.314 16.5482Z" fill="#1F1F1F"></path> <path d="M57.5088 13.0824C56.8779 13.0824 56.3639 13.2675 55.9879 13.6597C55.6331 14.0319 55.4355 14.4978 55.4355 15.0552C55.4355 15.6125 55.614 16.0784 55.9688 16.4506C56.3234 16.8229 56.8376 17.008 57.5088 17.008C58.1801 17.008 58.6942 16.8229 59.0681 16.4506C59.4441 16.0784 59.6204 15.6125 59.6204 15.0552C59.6204 14.5157 59.4228 14.0499 59.0468 13.6597C58.6751 13.2695 58.161 13.0824 57.5088 13.0824Z" fill="#1F1F1F"></path> <path d="M18.8831 3.15895C18.5814 3.48144 18.4199 3.94726 18.4199 4.40312V6.70633C18.4199 9.09712 18.9425 10.7474 19.9898 11.695C21.4195 13.0227 23.5459 13.61 26.2841 13.61C28.538 13.61 29.666 13.1362 30.9342 12.6445V15.3936C30.9342 15.8674 31.0723 16.2596 31.374 16.5621C31.6756 16.8647 32.1026 17.01 32.6464 17.01C33.2093 17.01 33.6809 16.8667 33.9613 16.5621C34.2629 16.2596 34.382 15.7599 34.382 15.3936V4.40312C34.382 4.00499 34.2119 3.44362 33.9082 3.14103C33.6066 2.83845 33.1838 2.66725 32.64 2.66725C32.0771 2.66725 31.6543 2.81854 31.3718 3.14103C31.0893 3.46352 30.9299 3.91142 30.9299 4.40312V9.32406C30.0037 10.1781 28.6973 10.6897 26.5432 10.6897C25.5576 10.6897 23.7328 10.4428 22.6261 9.47535C22.0419 8.96375 21.8677 7.94054 21.8677 6.53712V4.40312C21.8677 3.94726 21.719 3.48144 21.4174 3.15895C21.1157 2.83646 20.6887 2.66725 20.147 2.66725C19.6032 2.66526 19.1847 2.83646 18.8831 3.15895Z" fill="#1F1F1F"></path> <path d="M0.441854 3.12507C0.142327 3.44357 0 3.83176 0 4.30952V4.32743C0 6.64259 0.622418 8.3048 1.86725 9.79183C3.13121 11.2809 5.16628 12.0254 8.0086 12.0254C9.47011 12.0254 10.7341 11.8024 11.8004 11.3744C11.9195 11.3187 12.1956 11.2072 12.3146 11.1694C11.6029 13.4208 9.60819 13.9782 7.57524 13.9981C5.52105 14.016 4.49501 13.6079 3.29054 12.7699C2.2645 12.0632 1.45301 12.3598 0.960181 12.9749C0.386622 13.7015 0.505582 14.5197 1.49338 15.2821C2.91454 16.3989 5.20452 17.012 7.59436 17.012C9.05587 17.012 10.7553 16.791 11.8026 16.363C12.869 15.935 13.6996 15.3219 14.271 14.5396C14.8446 13.7572 15.278 12.9013 15.5349 11.9716C15.792 11.042 15.9428 9.97696 15.9428 8.82436V4.40308C15.9428 3.90143 15.792 3.48538 15.4755 3.14896C15.1803 2.81452 14.7447 2.66522 14.1712 2.66522C13.6189 2.66522 13.1834 2.83244 12.8881 3.14896C12.5929 3.48339 12.5057 3.89347 12.5057 4.39512V4.48868C12.5057 7.85689 10.8275 9.00949 7.88539 9.00949C4.94323 9.00949 3.42436 7.59612 3.42436 4.45086V4.30952C3.42436 3.83176 3.27354 3.42566 2.97402 3.12507C2.65537 2.80656 2.24113 2.66522 1.6782 2.66522C1.15562 2.66522 0.72226 2.80656 0.441854 3.12507Z" fill="#1F1F1F"></path> <path d="M80.2262 19.6158C80.5215 19.359 80.6851 18.9947 80.6745 18.6185V16.0525C80.6745 15.2045 80.018 14.0081 78.4885 13.9723V5.00826C78.4885 3.72626 77.4817 2.68713 76.1136 2.68713H68.5766C67.1958 2.68713 66.1252 3.73025 66.0912 4.96446C66.019 7.44484 65.5622 9.75402 65.0142 11.5954C64.7295 12.5549 64.4278 13.3551 64.1602 13.9703C64.0752 13.9703 63.9987 13.9703 63.935 13.9703C62.3524 13.9703 61.6833 15.1945 61.6833 16.0525V18.6185C61.6705 18.9967 61.8341 19.359 62.1315 19.6158C62.5478 19.8925 62.8516 20 63.3891 20C63.9265 20 64.3301 19.8865 64.6488 19.6158C64.9525 19.363 65.1204 18.9987 65.1076 18.6185V17.012H77.2523V18.6185C77.2395 18.9987 77.4074 19.365 77.711 19.6158C78.0298 19.8865 78.4439 20 78.9836 20C79.5231 20 79.8078 19.8925 80.2262 19.6158ZM75.0578 5.703V13.9683C72.8719 13.9683 70.0892 13.9683 67.8182 13.9683C67.9903 13.4965 68.1582 12.9909 68.3174 12.4574C68.8655 10.618 69.3329 8.15949 69.4816 5.703H75.0578Z" fill="#1F1F1F"></path> </svg> 