<?xml version="1.0" encoding="UTF-8"?> <svg xmlns="http://www.w3.org/2000/svg" width="167" height="24" viewBox="0 0 167 24" fill="none"> <path fill-rule="evenodd" clip-rule="evenodd" d="M87.8551 6.00142C87.6959 8.75422 87.1937 11.9619 86.6055 14.0234C85.9629 16.2756 85.1778 18.1033 84.5385 19.0609L81.4531 17.0943C81.7932 16.5846 82.4563 15.1621 83.0572 13.0563C83.6454 10.9949 84.1365 8.40898 84.2135 5.62956C84.2515 4.24612 85.4009 3.07764 86.8843 3.07764H95.2752C96.7446 3.07764 97.8256 4.2417 97.8256 5.67764V18.0776H94.1418V6.00142H87.8551Z" fill="#423783"></path> <path fill-rule="evenodd" clip-rule="evenodd" d="M81.8625 20.4774V22.0774C81.8625 23.0715 81.0377 23.8774 80.0206 23.8774C79.0034 23.8774 78.1787 23.0715 78.1787 22.0774V19.1472C78.1787 17.9322 79.1864 16.8774 80.4299 16.8774H98.366C99.6095 16.8774 100.618 17.9322 100.618 19.1472V22.0774C100.618 23.0715 99.7929 23.8774 98.7753 23.8774C97.7582 23.8774 96.9334 23.0715 96.9334 22.0774V20.4774H81.8625Z" fill="#423783"></path> <path d="M64.0833 3.6647C63.7043 3.31976 63.2107 3.11784 62.6921 3.09529C62.1731 3.07274 61.6631 3.23105 61.2537 3.54171L48.6305 13.8812V5.09814C48.6526 4.57406 48.4688 4.06143 48.116 3.6647C47.9236 3.46599 47.6891 3.31064 47.4284 3.20953C47.1676 3.10843 46.8877 3.06403 46.6073 3.07944C46.3347 3.06347 46.0617 3.1061 45.8075 3.20432C45.5537 3.30253 45.3249 3.45392 45.1378 3.64773C44.7879 4.05241 44.6057 4.56971 44.6278 5.09814V18.4762C44.6127 18.9979 44.7957 19.5068 45.1423 19.9054C45.3294 20.0992 45.5578 20.2506 45.812 20.3488C46.0657 20.447 46.3388 20.4896 46.6118 20.4737C47.0948 20.4967 47.57 20.3458 47.9461 20.0496L60.6168 8.89382V18.4762C60.5976 18.9985 60.7814 19.5089 61.1314 19.9054C61.318 20.0997 61.5468 20.2514 61.801 20.3496C62.0548 20.4479 62.3282 20.4902 62.6008 20.4737C62.8763 20.489 63.1517 20.4461 63.4084 20.348C63.665 20.2499 63.8967 20.0989 64.0878 19.9054C64.4472 19.5132 64.6363 19.001 64.6154 18.4762V5.09814C64.6351 4.57143 64.4443 4.05773 64.0833 3.6647Z" fill="#423783"></path> <path d="M36.8757 5.09818C36.8556 4.57441 37.0393 4.06254 37.3902 3.66474C37.7921 3.30712 38.3171 3.10878 38.8618 3.10878C39.4065 3.10878 39.9315 3.30712 40.3334 3.66474C40.7267 3.99997 40.848 4.26609 40.848 4.30669V17.4763C40.848 19.109 40.6735 19.5968 40.3334 19.9445C39.9288 20.2968 39.4048 20.4916 38.8618 20.4916C38.3188 20.4916 37.7948 20.2968 37.3902 19.9445C37.0366 19.555 36.8521 19.0472 36.8757 18.528V14.4C35.3565 15.8 33.0498 16.2218 31.0369 16.2C27.7624 16.1646 25.2664 15.1819 23.6181 13.6C22.4278 12.4634 21.7047 10.7938 21.7047 7.91843V5.08122C21.6917 4.56065 21.8818 4.05459 22.2367 3.66474C22.6288 3.29501 23.072 3.10522 23.6181 3.10522C24.1643 3.10522 24.5051 3.29501 24.8972 3.66474C25.2432 4.05859 25.4266 4.56336 25.4117 5.08122V7.72759C25.4117 9.40275 25.6428 10.6412 26.2838 11.2519C27.5526 12.4308 30.1652 12.7362 31.3119 12.7362C33.0835 13 36.8757 12 36.8757 10.4V5.09818Z" fill="#423783"></path> <path fill-rule="evenodd" clip-rule="evenodd" d="M110.924 2.3999C105.724 2.3999 101.51 6.5189 101.51 11.5999C101.51 16.6809 105.724 20.7999 110.924 20.7999H112.152C117.351 20.7999 121.566 16.6809 121.566 11.5999C121.566 6.5189 117.351 2.3999 112.152 2.3999H110.924ZM111.333 7.5999C109.073 7.5999 107.24 9.39078 107.24 11.5999C107.24 13.809 109.073 15.5999 111.333 15.5999H112.152C114.413 15.5999 116.245 13.809 116.245 11.5999C116.245 9.39078 114.413 7.5999 112.152 7.5999H111.333Z" fill="#1CC1BB"></path> <path d="M126.887 20.4C125.414 20.4 124.909 19.3333 124.841 18.8V4.79995C124.841 4.26661 125.25 3.19995 126.887 3.19995C127.91 3.19995 128.32 3.39995 129.343 4.79995L135.073 11.6L140.19 4.79995C141.008 3.79995 141.213 3.19995 142.85 3.19995C144.324 3.19995 144.692 4.26661 144.692 4.79995V18.8C144.692 19.4 144.488 20.4 142.85 20.4C141.368 20.4 140.872 19.4 140.804 18.8V9.99995L136.301 15.8C135.483 16.6 134.255 16.2 133.845 15.8L128.729 9.79995V18.8C128.729 19.3333 128.361 20.4 126.887 20.4Z" fill="#423783"></path> <path d="M71.6298 15.6001H71.2205C69.8642 15.6001 68.7646 16.6746 68.7646 18.0001C68.7646 19.3256 69.8642 20.4001 71.2205 20.4001H71.6298C72.9862 20.4001 74.0857 19.3256 74.0857 18.0001C74.0857 16.6746 72.9862 15.6001 71.6298 15.6001Z" fill="#1CC1BB"></path> <path d="M148.172 10V20.4C154.393 18.32 156.904 11.7333 157.381 8.6C158.855 16.6 164.271 19.7333 166.795 20.4V10C166.795 7.8 164.34 1.99999 157.381 2C150.832 2.00001 148.172 7.4 148.172 10Z" fill="#1CC1BB"></path> <path d="M17.4933 3.79344C17.3093 3.59256 17.0819 3.43529 16.8282 3.33327C16.5745 3.23125 16.3009 3.18709 16.0277 3.20406C15.7574 3.18565 15.4864 3.22925 15.2358 3.33147C14.9853 3.43368 14.7619 3.59177 14.5829 3.79344C14.2417 4.21929 14.0663 4.75257 14.0888 5.29595V5.40802C14.0888 9.43411 12.4137 10.8288 9.08877 10.8288C5.76383 10.8288 4.08458 9.45483 4.08458 5.47443V5.29595C4.10615 4.74416 3.91101 4.20557 3.54019 3.79344C3.34269 3.59149 3.10346 3.43427 2.83891 3.33254C2.57437 3.23081 2.29076 3.18698 2.00752 3.20406C1.73255 3.18846 1.4575 3.23319 1.20198 3.33507C0.946456 3.43695 0.716766 3.59346 0.529292 3.79344C0.168642 4.21047 -0.0198092 4.7471 0.00165048 5.29595C0.00165048 8.20135 0.709357 9.95291 2.12896 11.7419C3.54857 13.5308 5.85593 14.4232 9.05111 14.4232C10.5191 14.4593 11.9789 14.1951 13.3392 13.647C13.4816 13.5889 13.758 13.4561 13.9129 13.3938C13.1173 16.0875 10.8643 16.7641 8.56952 16.7848C6.2747 16.8056 5.09379 16.3241 3.72026 15.3155C2.56447 14.4646 1.65157 14.8299 1.09043 15.5687C0.445538 16.4362 0.592105 17.4074 1.6767 18.3247C3.28474 19.6653 5.86432 20.4 8.57369 20.4C10.2152 20.4 12.1332 20.1344 13.3225 19.6238C14.4409 19.1729 15.4088 18.4192 16.1156 17.4489C16.7763 16.5207 17.2655 15.4836 17.5603 14.3858C17.8715 13.1438 18.022 11.8676 18.0084 10.588V5.2835C18.0278 4.74088 17.8444 4.21029 17.4933 3.79344Z" fill="#423783"></path> </svg> 