<?xml version="1.0" encoding="UTF-8"?> <svg xmlns="http://www.w3.org/2000/svg" width="167" height="24" viewBox="0 0 167 24" fill="none"> <g clip-path="url(#clip0)"> <path fill-rule="evenodd" clip-rule="evenodd" d="M87.8554 6.00133C87.6962 8.75413 87.194 11.9618 86.6058 14.0233C85.9632 16.2755 85.1781 18.1032 84.5388 19.0608L81.4534 17.0942C81.7935 16.5845 82.4566 15.162 83.0575 13.0562C83.6457 10.9948 84.1368 8.40889 84.2138 5.62947C84.2518 4.24603 85.4012 3.07755 86.8846 3.07755H95.2755C96.7449 3.07755 97.8259 4.24161 97.8259 5.67755V18.0775H94.1421V6.00133H87.8554Z" fill="#423783"></path> <path fill-rule="evenodd" clip-rule="evenodd" d="M81.8628 20.4775V22.0775C81.8628 23.0716 81.038 23.8775 80.0209 23.8775C79.0037 23.8775 78.179 23.0716 78.179 22.0775V19.1473C78.179 17.9323 79.1867 16.8775 80.4302 16.8775H98.3663C99.6098 16.8775 100.618 17.9323 100.618 19.1473V22.0775C100.618 23.0716 99.7932 23.8775 98.7756 23.8775C97.7585 23.8775 96.9337 23.0716 96.9337 22.0775V20.4775H81.8628Z" fill="#423783"></path> <path d="M64.083 3.6648C63.704 3.31986 63.2104 3.11794 62.6918 3.09539C62.1728 3.07284 61.6628 3.23115 61.2534 3.54181L48.6302 13.8813V5.09824C48.6523 4.57416 48.4685 4.06153 48.1157 3.6648C47.9233 3.46609 47.6888 3.31074 47.4281 3.20963C47.1673 3.10853 46.8874 3.06413 46.607 3.07954C46.3344 3.06357 46.0614 3.1062 45.8072 3.20442C45.5534 3.30263 45.3246 3.45402 45.1375 3.64783C44.7876 4.05251 44.6054 4.56981 44.6275 5.09824V18.4763C44.6124 18.998 44.7954 19.5069 45.142 19.9055C45.3291 20.0993 45.5575 20.2507 45.8117 20.3489C46.0654 20.4471 46.3385 20.4897 46.6115 20.4738C47.0945 20.4968 47.5697 20.3459 47.9458 20.0497L60.6165 8.89392V18.4763C60.5973 18.9986 60.7811 19.509 61.1311 19.9055C61.3177 20.0998 61.5465 20.2515 61.8007 20.3497C62.0545 20.448 62.3279 20.4903 62.6005 20.4738C62.876 20.4891 63.1514 20.4462 63.4081 20.3481C63.6647 20.25 63.8964 20.099 64.0875 19.9055C64.4469 19.5133 64.636 19.0011 64.6151 18.4763V5.09824C64.6348 4.57153 64.444 4.05783 64.083 3.6648Z" fill="#423783"></path> <path d="M36.8757 5.09823C36.8556 4.57446 37.0393 4.06259 37.3902 3.66479C37.7921 3.30717 38.3171 3.10883 38.8618 3.10883C39.4065 3.10883 39.9315 3.30717 40.3334 3.66479C40.7267 4.00002 40.848 4.26614 40.848 4.30674V17.4763C40.848 19.109 40.6735 19.5968 40.3334 19.9445C39.9288 20.2968 39.4048 20.4916 38.8618 20.4916C38.3188 20.4916 37.7948 20.2968 37.3902 19.9445C37.0366 19.555 36.8521 19.0472 36.8757 18.528V14.4C35.3565 15.8 33.0498 16.2218 31.0369 16.2C27.7624 16.1646 25.2664 15.1819 23.6181 13.6C22.4278 12.4634 21.7047 10.7938 21.7047 7.91848V5.08127C21.6917 4.5607 21.8818 4.05464 22.2367 3.66479C22.6288 3.29506 23.072 3.10527 23.6181 3.10527C24.1643 3.10527 24.5051 3.29506 24.8972 3.66479C25.2432 4.05864 25.4266 4.56341 25.4117 5.08127V7.72764C25.4117 9.4028 25.6428 10.6412 26.2838 11.2519C27.5526 12.4308 30.1652 12.7362 31.3119 12.7362C33.0835 13 36.8757 12 36.8757 10.4V5.09823Z" fill="#423783"></path> <path fill-rule="evenodd" clip-rule="evenodd" d="M110.924 2.4C105.724 2.4 101.51 6.519 101.51 11.6C101.51 16.681 105.724 20.8 110.924 20.8H112.152C117.351 20.8 121.566 16.681 121.566 11.6C121.566 6.519 117.351 2.4 112.152 2.4H110.924ZM111.333 7.6C109.073 7.6 107.24 9.39088 107.24 11.6C107.24 13.8091 109.073 15.6 111.333 15.6H112.152C114.413 15.6 116.245 13.8091 116.245 11.6C116.245 9.39088 114.413 7.6 112.152 7.6H111.333Z" fill="#1CC1BB"></path> <path d="M126.887 20.4C125.414 20.4 124.909 19.3333 124.841 18.8V4.8C124.841 4.26666 125.25 3.2 126.887 3.2C127.91 3.2 128.32 3.4 129.343 4.8L135.073 11.6L140.19 4.8C141.008 3.8 141.213 3.2 142.85 3.2C144.324 3.2 144.692 4.26666 144.692 4.8V18.8C144.692 19.4 144.488 20.4 142.85 20.4C141.368 20.4 140.872 19.4 140.804 18.8V10L136.301 15.8C135.483 16.6 134.255 16.2 133.845 15.8L128.729 9.8V18.8C128.729 19.3333 128.361 20.4 126.887 20.4Z" fill="#423783"></path> <path d="M71.6298 15.6H71.2205C69.8642 15.6 68.7646 16.6745 68.7646 18C68.7646 19.3255 69.8642 20.4 71.2205 20.4H71.6298C72.9862 20.4 74.0857 19.3255 74.0857 18C74.0857 16.6745 72.9862 15.6 71.6298 15.6Z" fill="#1CC1BB"></path> <path d="M148.172 10V20.4C154.393 18.32 156.904 11.7333 157.381 8.6C158.855 16.6 164.271 19.7333 166.795 20.4V10C166.795 7.8 164.34 1.99999 157.381 2C150.832 2.00001 148.172 7.4 148.172 10Z" fill="#1CC1BB"></path> <path d="M17.4933 3.79349C17.3093 3.59261 17.0819 3.43534 16.8282 3.33332C16.5745 3.2313 16.3009 3.18714 16.0277 3.20411C15.7574 3.1857 15.4864 3.2293 15.2358 3.33152C14.9853 3.43373 14.7619 3.59182 14.5829 3.79349C14.2417 4.21934 14.0663 4.75262 14.0888 5.296V5.40807C14.0888 9.43416 12.4137 10.8288 9.08877 10.8288C5.76383 10.8288 4.08458 9.45488 4.08458 5.47448V5.296C4.10615 4.74421 3.91101 4.20562 3.54019 3.79349C3.34269 3.59154 3.10346 3.43432 2.83891 3.33259C2.57437 3.23086 2.29076 3.18703 2.00752 3.20411C1.73255 3.18851 1.4575 3.23324 1.20198 3.33512C0.946456 3.437 0.716766 3.59351 0.529292 3.79349C0.168642 4.21052 -0.0198092 4.74715 0.00165048 5.296C0.00165048 8.2014 0.709357 9.95296 2.12896 11.7419C3.54857 13.5308 5.85593 14.4232 9.05111 14.4232C10.5191 14.4593 11.9789 14.1951 13.3392 13.647C13.4816 13.5889 13.758 13.4561 13.9129 13.3938C13.1173 16.0875 10.8643 16.7641 8.56952 16.7848C6.2747 16.8056 5.09379 16.3241 3.72026 15.3155C2.56447 14.4646 1.65157 14.8299 1.09043 15.5687C0.445538 16.4362 0.592105 17.4074 1.6767 18.3247C3.28474 19.6654 5.86432 20.4 8.57369 20.4C10.2152 20.4 12.1332 20.1344 13.3225 19.6238C14.4409 19.1729 15.4088 18.4192 16.1156 17.4489C16.7763 16.5207 17.2655 15.4836 17.5603 14.3858C17.8715 13.1438 18.022 11.8676 18.0084 10.588V5.28355C18.0278 4.74093 17.8444 4.21034 17.4933 3.79349Z" fill="#423783"></path> </g> <defs> <clipPath id="clip0"> <rect y="2" width="167" height="22" fill="white"></rect> </clipPath> </defs> </svg> 