<?xml version="1.0" encoding="UTF-8"?> <svg xmlns="http://www.w3.org/2000/svg" width="80" height="80" viewBox="0 0 80 80" fill="none"> <path d="M65.4627 41.5134C70.9196 39.5223 74.5019 35.2687 74.7422 30.6048C74.7862 29.8075 74.685 29.0408 74.4334 28.3513C73.7362 26.4403 71.9294 25.6486 69.8806 26.3962C68.3636 26.9496 67.7071 27.9035 67.5264 29.7329C67.2825 32.8578 65.8316 34.8159 63.2115 35.7719C59.2321 37.2238 55.5207 34.7608 53.4865 29.1856C51.4739 23.6696 52.7467 19.388 56.6867 17.9504C59.1887 17.0375 61.5668 17.6208 63.8105 19.7934C65.1735 21.0819 66.3957 21.3726 67.9915 20.7904C69.8827 20.1003 70.705 18.4386 70.0294 16.5868C69.7131 15.72 69.1263 14.9072 68.3373 14.2129C64.7361 10.9507 59.8728 10.225 54.4947 12.1873C46.1024 15.2493 42.7404 22.6148 46.1259 31.8936C49.5186 41.1921 56.7158 44.7048 65.4627 41.5134Z" fill="black"></path> <path d="M13.0381 54.6412C15.0318 54.1424 15.8962 52.8453 15.9873 50.1853L16.2004 46.803L26.2501 44.2888L28.0613 47.2944C29.3128 49.5321 30.676 50.2287 32.8324 49.6892C35.0092 49.1447 36.2041 47.2677 35.6799 45.1723C35.4865 44.3993 35.1711 43.7432 34.586 42.8736L22.3053 24.8046C20.423 22.033 18.3071 21.1789 15.2352 21.9473C12.3261 22.6751 10.8565 24.4911 10.5264 27.7513L8.26142 49.4592C8.15985 50.4357 8.18544 51.4021 8.34321 52.0327C8.89794 54.2502 10.6782 55.2315 13.0381 54.6412ZM16.2757 40.7963L16.7824 28.6506L16.9452 28.6099L23.2129 39.0608L16.2757 40.7963Z" fill="black"></path> <path d="M36.5527 66.2506L46.9962 64.4945C53.3863 63.4199 56.8522 59.3709 55.9723 54.1389C55.3047 50.1683 51.6157 47.7052 47.5517 48.1972L47.5239 48.0317C50.7563 47.0204 52.8306 43.9284 52.2673 40.5782C51.4918 35.9665 47.4791 33.7279 41.6059 34.7156L31.5346 36.4091C29.1357 36.8125 27.9729 38.4966 28.3972 41.0195L32.0798 62.9199C32.5041 65.4429 34.1538 66.654 36.5527 66.2506ZM37.3639 47.9327L36.2233 41.1496L40.5041 40.4297C43.0477 40.002 44.7454 40.9924 45.0966 43.0811C45.4582 45.2319 44.0229 46.8129 41.2724 47.2754L37.3639 47.9327ZM39.433 60.2374L38.1394 52.5443L42.6063 51.7932C45.729 51.2681 47.737 52.3339 48.1474 54.7742C48.5716 57.2972 47.064 58.9542 43.9413 59.4793L39.433 60.2374Z" fill="black"></path> <path fill-rule="evenodd" clip-rule="evenodd" d="M42.3309 47.0229C42.5809 46.9432 42.8158 46.8519 43.0348 46.7498C44.449 46.0903 45.2044 44.9773 45.1506 43.5821C45.1443 43.4188 45.1269 43.2516 45.0982 43.0808C44.7759 41.1639 43.3195 40.1721 41.116 40.3525C40.9185 40.3686 40.7149 40.3942 40.5057 40.4294L36.2249 41.1493L37.3655 47.9324L41.2741 47.2751C41.4656 47.2429 41.6507 47.2053 41.8293 47.1624C41.9711 47.1284 42.1088 47.0911 42.2423 47.0505C42.272 47.0415 42.3016 47.0323 42.3309 47.0229ZM47.533 48.0291C47.5305 48.0298 47.528 48.0306 47.5255 48.0314L47.5534 48.1969C47.5611 48.1959 47.5687 48.195 47.5764 48.1941C47.9899 48.1452 48.3995 48.1268 48.8023 48.1375C48.9888 48.1425 49.1738 48.1537 49.3571 48.1709C51.0116 48.3267 52.5262 48.9774 53.6973 50.0117C54.8648 51.0428 55.6909 52.4552 55.974 54.1386C56.8538 59.3706 53.388 63.4196 46.9978 64.4942L36.5543 66.2503C34.1554 66.6537 32.5057 65.4426 32.0815 62.9196L28.3988 41.0192C27.9745 38.4963 29.1374 36.8122 31.5363 36.4088L41.6075 34.7153C47.4807 33.7276 51.4934 35.9662 52.2689 40.5779C52.4491 41.6494 52.3594 42.6946 52.0483 43.6537C51.5852 45.0816 50.6312 46.3188 49.3461 47.1685C49.0676 47.3527 48.7734 47.5187 48.4653 47.6644C48.1671 47.8055 47.8559 47.9277 47.533 48.0291ZM56.5081 45.8993C57.2566 44.0362 57.5231 41.9405 57.1558 39.7561C56.5374 36.0787 54.5051 33.0084 51.2449 31.2085C48.1382 29.4934 44.4431 29.2134 40.7858 29.8284L30.7145 31.5219C28.5227 31.8905 26.288 32.9706 24.8171 35.1238C23.3665 37.247 23.1508 39.6939 23.5119 41.841L27.1946 63.7413C27.5556 65.8885 28.5597 68.1303 30.6249 69.6623C32.7192 71.2159 35.1842 71.5058 37.376 71.1372L47.8195 69.3811C51.8308 68.7066 55.4636 67.0076 57.9623 64.1147C60.5436 61.1263 61.5295 57.2932 60.8609 53.3168C60.3317 50.1698 58.715 47.643 56.5081 45.8993ZM44.0827 51.6619C43.7767 51.6617 43.4558 51.6808 43.1207 51.7198C43.0903 51.7233 43.0599 51.727 43.0293 51.7308C42.8912 51.7482 42.7507 51.7689 42.6079 51.7929L38.141 52.544L39.4346 60.2371L43.9429 59.479C44.0715 59.4574 44.1973 59.4338 44.3203 59.4084C47.1865 58.816 48.5558 57.193 48.149 54.7739C48.0452 54.157 47.8394 53.628 47.5393 53.1902C46.8513 52.1868 45.6677 51.6633 44.0827 51.6619Z" fill="white"></path> </svg> 