<?xml version="1.0" encoding="UTF-8"?> <svg xmlns="http://www.w3.org/2000/svg" width="66" height="65" viewBox="0 0 66 65" fill="none"> <path d="M35.8992 5.41667C34.7766 5.41667 33.868 6.32667 33.868 7.44792V19.5799L31.887 14.7953C31.4577 13.758 30.2675 13.2617 29.2315 13.6951C28.1956 14.1243 27.706 15.3132 28.1339 16.3505L30.1149 21.1351L21.535 12.5551C20.7414 11.7616 19.4562 11.7616 18.6627 12.5551C17.8691 13.3487 17.8691 14.6339 18.6627 15.4275L27.2426 24.0074L18.3955 20.3416C17.3569 19.911 16.1694 20.4059 15.7401 21.4419C15.3108 22.4791 15.8031 23.668 16.8404 24.0973L25.6874 27.7604H13.5555C12.4328 27.7604 11.5242 28.6704 11.5242 29.7917C11.5242 30.9129 12.4328 31.8229 13.5555 31.8229H25.6874L16.8404 35.486C15.8044 35.9153 15.3122 37.1042 15.7401 38.1415C16.0637 38.9228 16.8217 39.3951 17.618 39.3951C17.8766 39.3951 18.141 39.3474 18.3955 39.2417L27.2426 35.576L6.70263 56.1159C6.50769 56.3031 6.35205 56.5273 6.24483 56.7754C6.13762 57.0234 6.08098 57.2904 6.07823 57.5606C6.07548 57.8309 6.12668 58.0989 6.22883 58.3491C6.33098 58.5993 6.48203 58.8266 6.67312 59.0177C6.86422 59.2088 7.09152 59.3599 7.34173 59.462C7.59193 59.5642 7.86 59.6154 8.13023 59.6126C8.40047 59.6099 8.66744 59.5533 8.91551 59.446C9.16358 59.3388 9.38777 59.1832 9.57494 58.9882L30.1149 38.4483L26.4491 47.2953C26.0199 48.3326 26.5121 49.5215 27.5494 49.9508C27.804 50.0564 28.067 50.1042 28.327 50.1042C29.1232 50.1042 29.8812 49.6319 30.2048 48.8505L33.868 40.0035V52.1354C33.868 53.2567 34.7766 54.1667 35.8992 54.1667C37.0218 54.1667 37.9305 53.2567 37.9305 52.1354V40.0035L41.5936 48.8505C41.9172 49.6319 42.6752 50.1042 43.4714 50.1042C43.7301 50.1042 43.9944 50.0564 44.249 49.9508C45.285 49.5215 45.7772 48.3326 45.3493 47.2953L41.6835 38.4483L44.6193 41.3841C45.0147 41.7808 45.5354 41.9792 46.0555 41.9792C46.5755 41.9792 47.0948 41.7808 47.4916 41.3841C48.2851 40.5905 48.2851 39.3053 47.4916 38.5118L44.5558 35.576L52.0487 38.681C52.3033 38.7867 52.5663 38.8344 52.8263 38.8344C53.6225 38.8344 54.3805 38.3621 54.7041 37.5808C55.1334 36.5435 54.6412 35.3573 53.6039 34.928L46.111 31.8229H58.243C59.3656 31.8229 60.2742 30.9129 60.2742 29.7917C60.2742 28.6704 59.3656 27.7604 58.243 27.7604H46.1136L49.5414 26.3401C50.5773 25.9109 51.0695 24.722 50.6416 23.6847C50.2124 22.6488 49.0221 22.1551 47.9862 22.5871L44.5558 24.0074L53.1357 15.4275C53.9293 14.6339 53.9293 13.3487 53.1357 12.5551C52.3422 11.7616 51.057 11.7616 50.2634 12.5551L41.6835 21.1351L43.6645 16.3479C44.0938 15.3106 43.6042 14.1243 42.5669 13.6951C41.5282 13.2631 40.3407 13.758 39.9114 14.7953L37.9305 19.5799V7.44792C37.9305 6.32667 37.0218 5.41667 35.8992 5.41667ZM44.5928 6.77084C44.0541 6.77084 43.5375 6.98484 43.1565 7.36578C42.7756 7.74671 42.5616 8.26337 42.5616 8.80209C42.5616 9.34081 42.7756 9.85747 43.1565 10.2384C43.5375 10.6193 44.0541 10.8333 44.5928 10.8333C45.1316 10.8333 45.6482 10.6193 46.0292 10.2384C46.4101 9.85747 46.6241 9.34081 46.6241 8.80209C46.6241 8.26337 46.4101 7.74671 46.0292 7.36578C45.6482 6.98484 45.1316 6.77084 44.5928 6.77084ZM10.8471 17.3846C10.3084 17.3846 9.79174 17.5987 9.41081 17.9796C9.02987 18.3605 8.81587 18.8772 8.81587 19.4159C8.81587 19.9546 9.02987 20.4713 9.41081 20.8522C9.79174 21.2331 10.3084 21.4471 10.8471 21.4471C11.3858 21.4471 11.9025 21.2331 12.2834 20.8522C12.6644 20.4713 12.8784 19.9546 12.8784 19.4159C12.8784 18.8772 12.6644 18.3605 12.2834 17.9796C11.9025 17.5987 11.3858 17.3846 10.8471 17.3846ZM55.5346 19.6275C54.9959 19.6275 54.4792 19.8415 54.0983 20.2224C53.7174 20.6034 53.5034 21.12 53.5034 21.6587C53.5034 22.1975 53.7174 22.7141 54.0983 23.095C54.4792 23.476 54.9959 23.69 55.5346 23.69C56.0733 23.69 56.59 23.476 56.9709 23.095C57.3519 22.7141 57.5659 22.1975 57.5659 21.6587C57.5659 21.12 57.3519 20.6034 56.9709 20.2224C56.59 19.8415 56.0733 19.6275 55.5346 19.6275ZM35.8992 27.0833C37.3956 27.0833 38.6075 28.2953 38.6075 29.7917C38.6075 31.288 37.3956 32.5 35.8992 32.5C34.4028 32.5 33.1909 31.288 33.1909 29.7917C33.1909 28.2953 34.4028 27.0833 35.8992 27.0833ZM51.4721 43.3333C50.9334 43.3333 50.4167 43.5473 50.0358 43.9283C49.6549 44.3092 49.4409 44.8259 49.4409 45.3646C49.4409 45.9033 49.6549 46.42 50.0358 46.8009C50.4167 47.1818 50.9334 47.3958 51.4721 47.3958C52.0108 47.3958 52.5275 47.1818 52.9084 46.8009C53.2894 46.42 53.5034 45.9033 53.5034 45.3646C53.5034 44.8259 53.2894 44.3092 52.9084 43.9283C52.5275 43.5473 52.0108 43.3333 51.4721 43.3333Z" fill="#4D4D4D" fill-opacity="0.8"></path> </svg> 