<?xml version="1.0" encoding="UTF-8"?> <!-- Generator: Adobe Illustrator 21.1.0, SVG Export Plug-In . SVG Version: 6.00 Build 0) --> <svg xmlns="http://www.w3.org/2000/svg" xmlns:xlink="http://www.w3.org/1999/xlink" id="Layer_1" x="0px" y="0px" viewBox="0 0 128 128" style="enable-background:new 0 0 128 128;" xml:space="preserve"> <style type="text/css"> .st0{fill:#FFFFFF;} .st1{fill:#444B54;} .st2{fill:#FF5576;} .st3{fill:#FFFFFF;stroke:#FFFFFF;stroke-width:0.3;stroke-miterlimit:10;} .st4{fill:none;stroke:#444B54;stroke-width:6;stroke-linecap:round;stroke-linejoin:round;stroke-miterlimit:10;} .st5{opacity:0.5;} .st6{fill:#A7A7C4;} .st7{fill:#2CA4D5;} .st8{fill:#D4D3DD;} .st9{fill:#E6E6EF;} .st10{fill:#DB3E64;} .st11{fill:#F2B630;} .st12{fill:#C3DBEA;} .st13{fill:#FFF0B3;} .st14{fill:#6DC289;} .st15{fill:#47A66A;} </style> <g> <g> <path class="st9" d="M114,104H14c-2.8,0-5-2.2-5-5V23c0-2.8,2.2-5,5-5h100c2.8,0,5,2.2,5,5v76C119,101.8,116.8,104,114,104z"></path> </g> <g> <g> <path class="st0" d="M68,42c0-1.6,0.7-2.9,1.8-3.8C68.6,36.3,66.4,35,64,35c-3.9,0-7,3.1-7,7c0,3.9,3.1,7,7,7 c2.4,0,4.6-1.3,5.8-3.2C68.7,44.9,68,43.6,68,42z"></path> </g> </g> <g> <path class="st6" d="M77.3,63.2L49,95H22c-1.7,0-3,1.3-3,3v0c0,1.7,1.3,3,3,3h2c0,0-1.4,3,0,3l90,0c2.8,0,5-2.2,5-5v-6.5h0 c-17.8,0-33.8-10.6-40.7-27L77.3,63.2z"></path> </g> <g> <path class="st9" d="M74,61H59.1c-3,0-5.5,2.1-5.9,5.1L45,118.2c-0.5,3,1.8,5.8,4.9,5.8h28.2c3.1,0,5.4-2.8,4.9-5.8L74,61z M64,104c-3.9,0-7-3.1-7-7c0-3.9,3.1-7,7-7s7,3.1,7,7C71,100.9,67.9,104,64,104z"></path> </g> <g> <path class="st1" d="M114,15H14c-4.4,0-8,3.6-8,8v76c0,4.4,3.6,8,8,8h23.3c1.7,0,3-1.3,3-3s-1.3-3-3-3H14c-1.1,0-2-0.9-2-2V23 c0-1.1,0.9-2,2-2h100c1.1,0,2,0.9,2,2v76c0,1.1-0.9,2-2,2H83.4l-5.9-37.5c-0.3-1.6-1.8-2.8-3.4-2.5c-1.6,0.3-2.8,1.8-2.5,3.4 l8.6,54.2c0.1,0.8-0.2,1.4-0.4,1.6s-0.7,0.7-1.5,0.7H29.9c-1.7,0-3,1.3-3,3s1.3,3,3,3h68.2c1.7,0,3-1.3,3-3s-1.3-3-3-3H85.8 c0.3-1.1,0.3-2.2,0.1-3.3L84.3,107H114c4.4,0,8-3.6,8-8V23C122,18.6,118.4,15,114,15z"></path> <path class="st1" d="M45.7,117c1.4,0,2.7-1,3-2.5l3.3-20c0.3-1.6-0.8-3.2-2.5-3.5c-1.6-0.3-3.2,0.8-3.5,2.5l-3.3,20 c-0.3,1.6,0.8,3.2,2.5,3.5C45.3,117,45.5,117,45.7,117z"></path> </g> <g> <path class="st0" d="M53.6,85.5c-0.2,0-0.3,0-0.5,0c-1.6-0.3-2.8-1.8-2.5-3.4l2.5-16c0.5-2.9,3-5.1,5.9-5.1h2c1.7,0,3,1.3,3,3 s-1.3,3-3,3h-2l-2.5,16C56.4,84.4,55.1,85.5,53.6,85.5z"></path> </g> </g> <g> <circle class="st1" cx="113.1" cy="124" r="3"></circle> </g> </svg> 