<?xml version="1.0" encoding="UTF-8"?> <svg xmlns="http://www.w3.org/2000/svg" width="347" height="104" viewBox="0 0 347 104" fill="none"> <path d="M0 50C0 22.3858 22.3858 0 50 0H297C324.614 0 347 22.3858 347 50V53.6512C347 81.2654 324.614 103.651 297 103.651H45.5H0V50Z" fill="white"></path> <path d="M92.664 40.376H99.456V49.256C98.56 49.56 97.624 49.8 96.648 49.976C95.688 50.152 94.592 50.24 93.36 50.24C90.8 50.24 88.832 49.488 87.456 47.984C86.08 46.48 85.392 44.288 85.392 41.408C85.392 39.616 85.736 38.064 86.424 36.752C87.128 35.44 88.144 34.424 89.472 33.704C90.8 32.984 92.424 32.624 94.344 32.624C95.256 32.624 96.152 32.72 97.032 32.912C97.912 33.104 98.712 33.36 99.432 33.68L98.232 36.584C97.704 36.312 97.104 36.088 96.432 35.912C95.76 35.736 95.056 35.648 94.32 35.648C93.264 35.648 92.344 35.888 91.56 36.368C90.792 36.848 90.192 37.528 89.76 38.408C89.344 39.272 89.136 40.296 89.136 41.48C89.136 42.6 89.288 43.592 89.592 44.456C89.896 45.32 90.376 46 91.032 46.496C91.688 46.976 92.544 47.216 93.6 47.216C94.112 47.216 94.544 47.192 94.896 47.144C95.264 47.096 95.6 47.04 95.904 46.976V43.4H92.664V40.376ZM105.039 31.76C105.567 31.76 106.023 31.888 106.407 32.144C106.791 32.384 106.983 32.84 106.983 33.512C106.983 34.168 106.791 34.624 106.407 34.88C106.023 35.136 105.567 35.264 105.039 35.264C104.495 35.264 104.031 35.136 103.647 34.88C103.279 34.624 103.095 34.168 103.095 33.512C103.095 32.84 103.279 32.384 103.647 32.144C104.031 31.888 104.495 31.76 105.039 31.76ZM106.815 36.896V50H103.239V36.896H106.815ZM117.992 36.656C119.4 36.656 120.528 37.04 121.376 37.808C122.224 38.56 122.648 39.776 122.648 41.456V50H119.072V42.344C119.072 41.4 118.904 40.696 118.568 40.232C118.232 39.752 117.696 39.512 116.96 39.512C115.872 39.512 115.128 39.888 114.728 40.64C114.328 41.376 114.128 42.44 114.128 43.832V50H110.552V36.896H113.288L113.768 38.576H113.96C114.376 37.904 114.944 37.416 115.664 37.112C116.4 36.808 117.176 36.656 117.992 36.656ZM130.573 36.656C132.189 36.656 133.453 37.296 134.365 38.576H134.461L134.749 36.896H137.773V50.024C137.773 51.896 137.221 53.32 136.117 54.296C135.013 55.272 133.381 55.76 131.221 55.76C130.293 55.76 129.429 55.704 128.629 55.592C127.845 55.48 127.077 55.28 126.325 54.992V52.136C127.941 52.808 129.645 53.144 131.437 53.144C133.277 53.144 134.197 52.152 134.197 50.168V49.904C134.197 49.632 134.205 49.352 134.221 49.064C134.253 48.776 134.277 48.52 134.293 48.296H134.197C133.749 48.984 133.213 49.48 132.589 49.784C131.965 50.088 131.261 50.24 130.477 50.24C128.925 50.24 127.709 49.648 126.829 48.464C125.965 47.264 125.533 45.6 125.533 43.472C125.533 41.328 125.981 39.656 126.877 38.456C127.773 37.256 129.005 36.656 130.573 36.656ZM131.701 39.56C130.021 39.56 129.181 40.88 129.181 43.52C129.181 46.128 130.037 47.432 131.749 47.432C132.661 47.432 133.333 47.176 133.765 46.664C134.213 46.136 134.437 45.224 134.437 43.928V43.496C134.437 42.088 134.221 41.08 133.789 40.472C133.357 39.864 132.661 39.56 131.701 39.56ZM146.913 36.656C148.721 36.656 150.153 37.176 151.209 38.216C152.265 39.24 152.793 40.704 152.793 42.608V44.336H144.345C144.377 45.344 144.673 46.136 145.233 46.712C145.809 47.288 146.601 47.576 147.609 47.576C148.457 47.576 149.225 47.496 149.913 47.336C150.601 47.16 151.313 46.896 152.049 46.544V49.304C151.409 49.624 150.729 49.856 150.009 50C149.305 50.16 148.449 50.24 147.441 50.24C146.129 50.24 144.969 50 143.961 49.52C142.953 49.024 142.161 48.28 141.585 47.288C141.009 46.296 140.721 45.048 140.721 43.544C140.721 42.008 140.977 40.736 141.489 39.728C142.017 38.704 142.745 37.936 143.673 37.424C144.601 36.912 145.681 36.656 146.913 36.656ZM146.937 39.2C146.249 39.2 145.673 39.424 145.209 39.872C144.761 40.32 144.497 41.016 144.417 41.96H149.433C149.417 41.16 149.209 40.504 148.809 39.992C148.409 39.464 147.785 39.2 146.937 39.2ZM163.012 36.656C163.188 36.656 163.396 36.664 163.636 36.68C163.876 36.696 164.068 36.72 164.212 36.752L163.948 40.112C163.836 40.08 163.668 40.056 163.444 40.04C163.236 40.008 163.052 39.992 162.892 39.992C162.284 39.992 161.7 40.104 161.14 40.328C160.58 40.536 160.124 40.88 159.772 41.36C159.436 41.84 159.268 42.496 159.268 43.328V50H155.692V36.896H158.404L158.932 39.104H159.1C159.484 38.432 160.012 37.856 160.684 37.376C161.356 36.896 162.132 36.656 163.012 36.656ZM178.153 50.24C176.201 50.24 174.689 49.704 173.617 48.632C172.561 47.544 172.033 45.84 172.033 43.52C172.033 41.92 172.305 40.616 172.849 39.608C173.393 38.6 174.145 37.856 175.105 37.376C176.081 36.896 177.201 36.656 178.465 36.656C179.361 36.656 180.137 36.744 180.793 36.92C181.465 37.096 182.049 37.304 182.545 37.544L181.489 40.304C180.929 40.08 180.401 39.896 179.905 39.752C179.425 39.608 178.945 39.536 178.465 39.536C176.609 39.536 175.681 40.856 175.681 43.496C175.681 44.808 175.921 45.776 176.401 46.4C176.897 47.024 177.585 47.336 178.465 47.336C179.217 47.336 179.881 47.24 180.457 47.048C181.033 46.84 181.593 46.56 182.137 46.208V49.256C181.593 49.608 181.017 49.856 180.409 50C179.817 50.16 179.065 50.24 178.153 50.24ZM197.057 43.424C197.057 45.6 196.481 47.28 195.329 48.464C194.193 49.648 192.641 50.24 190.673 50.24C189.457 50.24 188.369 49.976 187.409 49.448C186.465 48.92 185.721 48.152 185.177 47.144C184.633 46.12 184.361 44.88 184.361 43.424C184.361 41.248 184.929 39.576 186.065 38.408C187.201 37.24 188.761 36.656 190.745 36.656C191.977 36.656 193.065 36.92 194.009 37.448C194.953 37.976 195.697 38.744 196.241 39.752C196.785 40.744 197.057 41.968 197.057 43.424ZM188.009 43.424C188.009 44.72 188.217 45.704 188.633 46.376C189.065 47.032 189.761 47.36 190.721 47.36C191.665 47.36 192.345 47.032 192.761 46.376C193.193 45.704 193.409 44.72 193.409 43.424C193.409 42.128 193.193 41.16 192.761 40.52C192.345 39.864 191.657 39.536 190.697 39.536C189.753 39.536 189.065 39.864 188.633 40.52C188.217 41.16 188.009 42.128 188.009 43.424ZM211.917 43.424C211.917 45.6 211.341 47.28 210.189 48.464C209.053 49.648 207.501 50.24 205.533 50.24C204.317 50.24 203.229 49.976 202.269 49.448C201.325 48.92 200.581 48.152 200.037 47.144C199.493 46.12 199.221 44.88 199.221 43.424C199.221 41.248 199.789 39.576 200.925 38.408C202.061 37.24 203.621 36.656 205.605 36.656C206.837 36.656 207.925 36.92 208.869 37.448C209.813 37.976 210.557 38.744 211.101 39.752C211.645 40.744 211.917 41.968 211.917 43.424ZM202.869 43.424C202.869 44.72 203.077 45.704 203.493 46.376C203.925 47.032 204.621 47.36 205.581 47.36C206.525 47.36 207.205 47.032 207.621 46.376C208.053 45.704 208.269 44.72 208.269 43.424C208.269 42.128 208.053 41.16 207.621 40.52C207.205 39.864 206.517 39.536 205.557 39.536C204.613 39.536 203.925 39.864 203.493 40.52C203.077 41.16 202.869 42.128 202.869 43.424ZM218.448 39.92C218.448 40.416 218.424 40.912 218.376 41.408C218.344 41.888 218.304 42.376 218.256 42.872H218.304C218.544 42.536 218.792 42.2 219.048 41.864C219.304 41.512 219.576 41.184 219.864 40.88L223.536 36.896H227.568L222.36 42.584L227.88 50H223.752L219.984 44.696L218.448 45.92V50H214.872V31.76H218.448V39.92ZM231.555 31.76C232.083 31.76 232.539 31.888 232.923 32.144C233.307 32.384 233.499 32.84 233.499 33.512C233.499 34.168 233.307 34.624 232.923 34.88C232.539 35.136 232.083 35.264 231.555 35.264C231.011 35.264 230.547 35.136 230.163 34.88C229.795 34.624 229.611 34.168 229.611 33.512C229.611 32.84 229.795 32.384 230.163 32.144C230.547 31.888 231.011 31.76 231.555 31.76ZM233.331 36.896V50H229.755V36.896H233.331ZM242.467 36.656C244.275 36.656 245.707 37.176 246.763 38.216C247.819 39.24 248.347 40.704 248.347 42.608V44.336H239.899C239.931 45.344 240.227 46.136 240.787 46.712C241.363 47.288 242.155 47.576 243.163 47.576C244.011 47.576 244.779 47.496 245.467 47.336C246.155 47.16 246.867 46.896 247.603 46.544V49.304C246.963 49.624 246.283 49.856 245.563 50C244.859 50.16 244.003 50.24 242.995 50.24C241.683 50.24 240.523 50 239.515 49.52C238.507 49.024 237.715 48.28 237.139 47.288C236.563 46.296 236.275 45.048 236.275 43.544C236.275 42.008 236.531 40.736 237.043 39.728C237.571 38.704 238.299 37.936 239.227 37.424C240.155 36.912 241.235 36.656 242.467 36.656ZM242.491 39.2C241.803 39.2 241.227 39.424 240.763 39.872C240.315 40.32 240.051 41.016 239.971 41.96H244.987C244.971 41.16 244.763 40.504 244.363 39.992C243.963 39.464 243.339 39.2 242.491 39.2ZM260.391 46.112C260.391 47.44 259.919 48.464 258.975 49.184C258.047 49.888 256.655 50.24 254.799 50.24C253.887 50.24 253.103 50.176 252.447 50.048C251.791 49.936 251.135 49.744 250.479 49.472V46.52C251.183 46.84 251.943 47.104 252.759 47.312C253.575 47.52 254.295 47.624 254.919 47.624C255.623 47.624 256.119 47.52 256.407 47.312C256.711 47.104 256.863 46.832 256.863 46.496C256.863 46.272 256.799 46.072 256.671 45.896C256.559 45.72 256.303 45.52 255.903 45.296C255.503 45.072 254.879 44.784 254.031 44.432C253.215 44.08 252.543 43.736 252.015 43.4C251.487 43.048 251.095 42.632 250.839 42.152C250.583 41.656 250.455 41.04 250.455 40.304C250.455 39.088 250.927 38.176 251.871 37.568C252.815 36.96 254.071 36.656 255.639 36.656C256.455 36.656 257.231 36.736 257.967 36.896C258.703 37.056 259.463 37.32 260.247 37.688L259.167 40.256C258.527 39.984 257.919 39.76 257.343 39.584C256.767 39.392 256.183 39.296 255.591 39.296C254.535 39.296 254.007 39.584 254.007 40.16C254.007 40.368 254.071 40.56 254.199 40.736C254.343 40.896 254.607 41.072 254.991 41.264C255.391 41.456 255.975 41.712 256.743 42.032C257.495 42.336 258.143 42.656 258.687 42.992C259.231 43.312 259.647 43.72 259.935 44.216C260.239 44.696 260.391 45.328 260.391 46.112Z" fill="#1F1F1F"></path> <path d="M85.764 63.148H87.276V70.204C87.276 70.6 87.27 71.044 87.258 71.536C87.246 72.028 87.228 72.478 87.204 72.886C87.192 73.294 87.174 73.594 87.15 73.786H87.222L94.296 63.148H96.096V76H94.584V69.016C94.584 68.572 94.59 68.098 94.602 67.594C94.626 67.09 94.65 66.628 94.674 66.208C94.698 65.788 94.716 65.488 94.728 65.308H94.656L87.564 76H85.764V63.148ZM109.696 66.352V76H108.274V69.844C108.274 69.592 108.28 69.328 108.292 69.052C108.316 68.776 108.34 68.506 108.364 68.242H108.31L105.16 76H103.828L100.768 68.242H100.714C100.75 68.782 100.768 69.334 100.768 69.898V76H99.3464V66.352H101.452L104.494 74.11L107.59 66.352H109.696ZM112.272 70.204C112.272 68.092 112.59 66.448 113.226 65.272C113.862 64.084 114.888 63.34 116.304 63.04C117.084 62.872 117.846 62.722 118.59 62.59C119.334 62.458 120.03 62.338 120.678 62.23L120.948 63.616C120.528 63.676 120.054 63.754 119.526 63.85C118.998 63.934 118.476 64.024 117.96 64.12C117.444 64.204 117 64.288 116.628 64.372C115.848 64.54 115.23 64.948 114.774 65.596C114.318 66.232 114.06 67.228 114 68.584H114.108C114.276 68.356 114.504 68.122 114.792 67.882C115.092 67.642 115.446 67.438 115.854 67.27C116.274 67.102 116.748 67.018 117.276 67.018C118.524 67.018 119.466 67.42 120.102 68.224C120.738 69.028 121.056 70.072 121.056 71.356C121.056 72.424 120.87 73.318 120.498 74.038C120.126 74.758 119.61 75.298 118.95 75.658C118.29 76.006 117.522 76.18 116.646 76.18C115.314 76.18 114.252 75.67 113.46 74.65C112.668 73.63 112.272 72.148 112.272 70.204ZM116.772 74.866C117.552 74.866 118.182 74.614 118.662 74.11C119.142 73.606 119.382 72.742 119.382 71.518C119.382 70.534 119.196 69.76 118.824 69.196C118.464 68.62 117.864 68.332 117.024 68.332C116.496 68.332 116.016 68.452 115.584 68.692C115.152 68.92 114.792 69.184 114.504 69.484C114.216 69.784 114.012 70.036 113.892 70.24C113.892 70.828 113.934 71.398 114.018 71.95C114.102 72.502 114.246 73 114.45 73.444C114.666 73.876 114.96 74.224 115.332 74.488C115.716 74.74 116.196 74.866 116.772 74.866ZM125.045 72.238C125.045 72.382 125.039 72.598 125.027 72.886C125.015 73.174 124.997 73.462 124.973 73.75C124.961 74.038 124.949 74.266 124.937 74.434L130.103 66.352H132.047V76H130.571V70.312C130.571 70.12 130.571 69.868 130.571 69.556C130.583 69.244 130.595 68.938 130.607 68.638C130.619 68.326 130.631 68.092 130.643 67.936L125.513 76H123.551V66.352H125.045V72.238ZM139.708 66.172C140.896 66.172 141.85 66.586 142.57 67.414C143.302 68.242 143.668 69.49 143.668 71.158C143.668 72.802 143.302 74.05 142.57 74.902C141.85 75.754 140.89 76.18 139.69 76.18C138.946 76.18 138.328 76.042 137.836 75.766C137.356 75.478 136.978 75.148 136.702 74.776H136.594C136.618 74.98 136.642 75.238 136.666 75.55C136.69 75.862 136.702 76.132 136.702 76.36V80.32H135.118V66.352H136.414L136.63 67.666H136.702C136.99 67.246 137.368 66.892 137.836 66.604C138.304 66.316 138.928 66.172 139.708 66.172ZM139.42 67.504C138.436 67.504 137.74 67.78 137.332 68.332C136.936 68.884 136.726 69.724 136.702 70.852V71.158C136.702 72.346 136.894 73.264 137.278 73.912C137.674 74.548 138.4 74.866 139.456 74.866C140.044 74.866 140.524 74.704 140.896 74.38C141.28 74.056 141.562 73.618 141.742 73.066C141.934 72.502 142.03 71.86 142.03 71.14C142.03 70.036 141.814 69.154 141.382 68.494C140.962 67.834 140.308 67.504 139.42 67.504ZM147.776 66.352V70.366H153.014V66.352H154.598V76H153.014V71.698H147.776V76H146.192V66.352H147.776ZM166.041 71.158C166.041 72.754 165.633 73.99 164.817 74.866C164.013 75.742 162.921 76.18 161.541 76.18C160.689 76.18 159.927 75.988 159.255 75.604C158.595 75.208 158.073 74.638 157.689 73.894C157.305 73.138 157.113 72.226 157.113 71.158C157.113 69.562 157.515 68.332 158.319 67.468C159.123 66.604 160.215 66.172 161.595 66.172C162.471 66.172 163.239 66.37 163.899 66.766C164.571 67.15 165.093 67.714 165.465 68.458C165.849 69.19 166.041 70.09 166.041 71.158ZM158.751 71.158C158.751 72.298 158.973 73.204 159.417 73.876C159.873 74.536 160.593 74.866 161.577 74.866C162.549 74.866 163.263 74.536 163.719 73.876C164.175 73.204 164.403 72.298 164.403 71.158C164.403 70.018 164.175 69.124 163.719 68.476C163.263 67.828 162.543 67.504 161.559 67.504C160.575 67.504 159.861 67.828 159.417 68.476C158.973 69.124 158.751 70.018 158.751 71.158ZM172.277 66.172C173.105 66.172 173.813 66.352 174.401 66.712C175.001 67.072 175.457 67.582 175.769 68.242C176.093 68.89 176.255 69.652 176.255 70.528V71.482H169.649C169.673 72.574 169.949 73.408 170.477 73.984C171.017 74.548 171.767 74.83 172.727 74.83C173.339 74.83 173.879 74.776 174.347 74.668C174.827 74.548 175.319 74.38 175.823 74.164V75.55C175.331 75.766 174.845 75.922 174.365 76.018C173.885 76.126 173.315 76.18 172.655 76.18C171.743 76.18 170.933 75.994 170.225 75.622C169.529 75.25 168.983 74.698 168.587 73.966C168.203 73.222 168.011 72.316 168.011 71.248C168.011 70.192 168.185 69.286 168.533 68.53C168.893 67.774 169.391 67.192 170.027 66.784C170.675 66.376 171.425 66.172 172.277 66.172ZM172.259 67.468C171.503 67.468 170.903 67.714 170.459 68.206C170.027 68.686 169.769 69.358 169.685 70.222H174.599C174.587 69.406 174.395 68.746 174.023 68.242C173.651 67.726 173.063 67.468 172.259 67.468ZM191.541 66.352V76H189.957V67.702H184.971V76H183.387V66.352H191.541ZM198.346 66.172C199.174 66.172 199.882 66.352 200.47 66.712C201.07 67.072 201.526 67.582 201.838 68.242C202.162 68.89 202.324 69.652 202.324 70.528V71.482H195.718C195.742 72.574 196.018 73.408 196.546 73.984C197.086 74.548 197.836 74.83 198.796 74.83C199.408 74.83 199.948 74.776 200.416 74.668C200.896 74.548 201.388 74.38 201.892 74.164V75.55C201.4 75.766 200.914 75.922 200.434 76.018C199.954 76.126 199.384 76.18 198.724 76.18C197.812 76.18 197.002 75.994 196.294 75.622C195.598 75.25 195.052 74.698 194.656 73.966C194.272 73.222 194.08 72.316 194.08 71.248C194.08 70.192 194.254 69.286 194.602 68.53C194.962 67.774 195.46 67.192 196.096 66.784C196.744 66.376 197.494 66.172 198.346 66.172ZM198.328 67.468C197.572 67.468 196.972 67.714 196.528 68.206C196.096 68.686 195.838 69.358 195.754 70.222H200.668C200.656 69.406 200.464 68.746 200.092 68.242C199.72 67.726 199.132 67.468 198.328 67.468ZM206.166 69.862C206.166 70.966 206.784 71.518 208.02 71.518C208.62 71.518 209.166 71.428 209.658 71.248C210.15 71.056 210.654 70.804 211.17 70.492V66.352H212.754V76H211.17V71.698C210.63 72.046 210.096 72.322 209.568 72.526C209.052 72.718 208.428 72.814 207.696 72.814C206.712 72.814 205.944 72.556 205.392 72.04C204.852 71.524 204.582 70.834 204.582 69.97V66.352H206.166V69.862ZM219.545 66.172C220.373 66.172 221.081 66.352 221.669 66.712C222.269 67.072 222.725 67.582 223.037 68.242C223.361 68.89 223.523 69.652 223.523 70.528V71.482H216.917C216.941 72.574 217.217 73.408 217.745 73.984C218.285 74.548 219.035 74.83 219.995 74.83C220.607 74.83 221.147 74.776 221.615 74.668C222.095 74.548 222.587 74.38 223.091 74.164V75.55C222.599 75.766 222.113 75.922 221.633 76.018C221.153 76.126 220.583 76.18 219.923 76.18C219.011 76.18 218.201 75.994 217.493 75.622C216.797 75.25 216.251 74.698 215.855 73.966C215.471 73.222 215.279 72.316 215.279 71.248C215.279 70.192 215.453 69.286 215.801 68.53C216.161 67.774 216.659 67.192 217.295 66.784C217.943 66.376 218.693 66.172 219.545 66.172ZM219.527 67.468C218.771 67.468 218.171 67.714 217.727 68.206C217.295 68.686 217.037 69.358 216.953 70.222H221.867C221.855 69.406 221.663 68.746 221.291 68.242C220.919 67.726 220.331 67.468 219.527 67.468ZM227.563 66.352V70.366H232.801V66.352H234.385V76H232.801V71.698H227.563V76H225.979V66.352H227.563ZM241.886 70.312C244.394 70.312 245.648 71.224 245.648 73.048C245.648 73.948 245.342 74.668 244.73 75.208C244.118 75.736 243.146 76 241.814 76H237.44V66.352H239.024V70.312H241.886ZM244.064 73.138C244.064 72.55 243.854 72.154 243.434 71.95C243.026 71.734 242.45 71.626 241.706 71.626H239.024V74.722H241.742C242.414 74.722 242.966 74.602 243.398 74.362C243.842 74.122 244.064 73.714 244.064 73.138ZM251.854 66.172C252.682 66.172 253.39 66.352 253.978 66.712C254.578 67.072 255.034 67.582 255.346 68.242C255.67 68.89 255.832 69.652 255.832 70.528V71.482H249.226C249.25 72.574 249.526 73.408 250.054 73.984C250.594 74.548 251.344 74.83 252.304 74.83C252.916 74.83 253.456 74.776 253.924 74.668C254.404 74.548 254.896 74.38 255.4 74.164V75.55C254.908 75.766 254.422 75.922 253.942 76.018C253.462 76.126 252.892 76.18 252.232 76.18C251.32 76.18 250.51 75.994 249.802 75.622C249.106 75.25 248.56 74.698 248.164 73.966C247.78 73.222 247.588 72.316 247.588 71.248C247.588 70.192 247.762 69.286 248.11 68.53C248.47 67.774 248.968 67.192 249.604 66.784C250.252 66.376 251.002 66.172 251.854 66.172ZM251.836 67.468C251.08 67.468 250.48 67.714 250.036 68.206C249.604 68.686 249.346 69.358 249.262 70.222H254.176C254.164 69.406 253.972 68.746 253.6 68.242C253.228 67.726 252.64 67.468 251.836 67.468Z" fill="#1F1F1F"></path> </svg> 