<?xml version="1.0" encoding="UTF-8"?> <svg xmlns="http://www.w3.org/2000/svg" width="197" height="197" viewBox="0 0 197 197" fill="none"> <g clip-path="url(#clip0)"> <path d="M98.5031 8.00053L107.592 19.6539L110.421 23.2759L114.227 20.7054L126.471 12.4343L131.514 26.3261L133.082 30.6431L137.497 29.3763L151.696 25.293L152.201 40.0641L152.361 44.6578L156.954 44.8177L171.725 45.322L167.642 59.5212L166.375 63.9366L170.692 65.5047L184.584 70.5473L176.313 82.791L173.742 86.5976L177.365 89.4264L189.018 98.5154L177.365 107.604L173.742 110.433L176.313 114.24L184.584 126.483L170.692 131.526L166.375 133.094L167.642 137.51L171.725 151.709L156.954 152.213L152.361 152.373L152.201 156.967L151.696 171.738L137.497 167.654L133.082 166.388L131.514 170.705L126.471 184.596L114.227 176.325L110.421 173.755L107.592 177.377L98.5031 189.03L89.4141 177.352L86.5853 173.73L82.7787 176.301L70.535 184.572L65.4924 170.68L63.9243 166.363L59.5089 167.63L45.3097 171.713L44.8054 156.942L44.6455 152.348L40.0518 152.188L25.2807 151.684L29.364 137.485L30.6308 133.07L26.3138 131.501L12.422 126.459L20.6931 114.215L23.2636 110.409L19.6416 107.58L7.98823 98.4908L19.6416 89.4018L23.2636 86.573L20.6931 82.7664L12.4282 70.535L26.32 65.4924L30.6369 63.9243L29.3701 59.5089L25.2868 45.3097L40.058 44.8054L44.6517 44.6455L44.8116 40.0518L45.3158 25.2807L59.5151 29.364L63.9305 30.6308L65.4986 26.3138L70.5412 12.422L82.7849 20.6931L86.5914 23.2636L89.4202 19.6416L98.5031 8.00053ZM98.5031 0L85.5337 16.6222L68.0629 4.82123L60.868 24.6411L40.6053 18.8175L39.8858 39.8858L18.8175 40.6053L24.6411 60.868L4.82123 68.0629L16.6222 85.5337L0 98.5031L16.6222 111.472L4.82123 128.937L24.6411 136.132L18.8175 156.395L39.8858 157.114L40.6053 178.182L60.868 172.359L68.0629 192.179L85.5337 180.378L98.5031 197L111.472 180.378L128.943 192.179L136.138 172.359L156.401 178.182L157.12 157.114L178.189 156.395L172.365 136.132L192.185 128.937L180.384 111.466L197.006 98.4969L180.384 85.5276L192.185 68.0568L172.365 60.8618L178.189 40.5992L157.12 39.8797L156.401 18.8114L136.138 24.635L128.943 4.81508L111.472 16.616L98.5031 0Z" fill="#F4D06F"></path> <path d="M75.6513 51.6V67H72.0873V60.686H65.0913V67H61.5273V51.6H65.0913V57.672H72.0873V51.6H75.6513ZM89.9377 63.7H82.7877L81.4237 67H77.7717L84.6357 51.6H88.1557L95.0417 67H91.3017L89.9377 63.7ZM88.8157 60.994L86.3737 55.098L83.9317 60.994H88.8157ZM117.412 51.6V67H97.0839V51.6H100.626V64.096H105.488V51.6H109.03V64.096H113.87V51.6H117.412ZM121.232 51.6H124.774V61.632L132.122 51.6H135.466V67H131.946V56.99L124.598 67H121.232V51.6ZM60.6459 77.6V93H57.1259V80.504H51.8459L51.7359 83.716C51.6626 85.9013 51.4866 87.676 51.2079 89.04C50.9292 90.3893 50.4599 91.4307 49.7999 92.164C49.1546 92.8827 48.2452 93.242 47.0719 93.242C46.5879 93.242 46.0012 93.1613 45.3119 93L45.5319 89.986C45.7226 90.0447 45.9352 90.074 46.1699 90.074C47.0206 90.074 47.6146 89.5753 47.9519 88.578C48.2892 87.566 48.5019 85.9893 48.5899 83.848L48.8099 77.6H60.6459ZM78.3961 77.6L71.8401 89.788C71.2095 90.9613 70.4468 91.8487 69.5521 92.45C68.6721 93.0513 67.7115 93.352 66.6701 93.352C65.8635 93.352 65.0275 93.176 64.1621 92.824L65.0201 90.118C65.6361 90.3087 66.1495 90.404 66.5601 90.404C67.0001 90.404 67.3961 90.3013 67.7481 90.096C68.1001 89.876 68.4228 89.5387 68.7161 89.084L68.8481 88.908L62.7761 77.6H66.5821L70.6741 85.872L74.8981 77.6H78.3961ZM93.062 77.6V93H89.542V87.456C88.2074 87.94 86.968 88.182 85.824 88.182C83.756 88.182 82.172 87.6907 81.072 86.708C79.972 85.7107 79.422 84.2807 79.422 82.418V77.6H82.942V82.022C82.942 83.078 83.2207 83.8773 83.778 84.42C84.35 84.948 85.1714 85.212 86.242 85.212C87.4154 85.212 88.5154 84.9847 89.542 84.53V77.6H93.062ZM117.219 77.6V93H96.8906V77.6H100.433V90.096H105.295V77.6H108.837V90.096H113.677V77.6H117.219ZM121.039 77.6H124.581V87.632L131.929 77.6H135.273V93H131.753V82.99L124.405 93H121.039V77.6ZM151.031 90.14V93H139.107V77.6H150.745V80.46H142.649V83.804H149.799V86.576H142.649V90.14H151.031ZM53.7595 119.264C52.1901 119.264 50.7675 118.927 49.4915 118.252C48.2301 117.563 47.2328 116.617 46.4995 115.414C45.7808 114.197 45.4215 112.825 45.4215 111.3C45.4215 109.775 45.7808 108.411 46.4995 107.208C47.2328 105.991 48.2301 105.045 49.4915 104.37C50.7675 103.681 52.1975 103.336 53.7815 103.336C55.1161 103.336 56.3188 103.571 57.3895 104.04C58.4748 104.509 59.3841 105.184 60.1175 106.064L57.8295 108.176C56.7881 106.973 55.4975 106.372 53.9575 106.372C53.0041 106.372 52.1535 106.585 51.4055 107.01C50.6575 107.421 50.0708 108 49.6455 108.748C49.2348 109.496 49.0295 110.347 49.0295 111.3C49.0295 112.253 49.2348 113.104 49.6455 113.852C50.0708 114.6 50.6575 115.187 51.4055 115.612C52.1535 116.023 53.0041 116.228 53.9575 116.228C55.4975 116.228 56.7881 115.619 57.8295 114.402L60.1175 116.514C59.3841 117.409 58.4748 118.091 57.3895 118.56C56.3041 119.029 55.0941 119.264 53.7595 119.264ZM68.4024 112.796H65.9384V119H62.3964V103.6H65.9384V109.826H68.4904L72.5384 103.6H76.3004L71.2624 111.036L76.4544 119H72.4064L68.4024 112.796ZM78.124 103.6H81.666V113.632L89.014 103.6H92.358V119H88.838V108.99L81.49 119H78.124V103.6ZM111.969 116.096V122.19H108.669V119H97.8009V122.19H94.5009L94.5229 116.096H95.1389C96.0629 116.067 96.7156 115.392 97.0969 114.072C97.4782 112.752 97.7129 110.867 97.8009 108.418L97.9769 103.6H109.813V116.096H111.969ZM100.947 108.748C100.874 110.581 100.72 112.121 100.485 113.368C100.25 114.6 99.8909 115.509 99.4069 116.096H106.293V106.504H101.013L100.947 108.748ZM120.33 112.796H117.866V119H114.324V103.6H117.866V109.826H120.418L124.466 103.6H128.228L123.19 111.036L128.382 119H124.334L120.33 112.796ZM130.052 103.6H133.594V113.632L140.942 103.6H144.286V119H140.766V108.99L133.418 119H130.052V103.6ZM78.4856 132.504H71.1596L71.1816 145H67.6396V129.6H78.5076L78.4856 132.504ZM86.4602 145.264C84.8616 145.264 83.4169 144.919 82.1262 144.23C80.8502 143.541 79.8456 142.595 79.1122 141.392C78.3936 140.175 78.0342 138.811 78.0342 137.3C78.0342 135.789 78.3936 134.433 79.1122 133.23C79.8456 132.013 80.8502 131.059 82.1262 130.37C83.4169 129.681 84.8616 129.336 86.4602 129.336C88.0589 129.336 89.4962 129.681 90.7722 130.37C92.0482 131.059 93.0529 132.013 93.7862 133.23C94.5196 134.433 94.8862 135.789 94.8862 137.3C94.8862 138.811 94.5196 140.175 93.7862 141.392C93.0529 142.595 92.0482 143.541 90.7722 144.23C89.4962 144.919 88.0589 145.264 86.4602 145.264ZM86.4602 142.228C87.3696 142.228 88.1909 142.023 88.9242 141.612C89.6576 141.187 90.2296 140.6 90.6402 139.852C91.0656 139.104 91.2782 138.253 91.2782 137.3C91.2782 136.347 91.0656 135.496 90.6402 134.748C90.2296 134 89.6576 133.421 88.9242 133.01C88.1909 132.585 87.3696 132.372 86.4602 132.372C85.5509 132.372 84.7296 132.585 83.9962 133.01C83.2629 133.421 82.6836 134 82.2582 134.748C81.8476 135.496 81.6422 136.347 81.6422 137.3C81.6422 138.253 81.8476 139.104 82.2582 139.852C82.6836 140.6 83.2629 141.187 83.9962 141.612C84.7296 142.023 85.5509 142.228 86.4602 142.228ZM113.086 142.096V148.19H109.786V145H98.9181V148.19H95.6181L95.6401 142.096H96.2561C97.1801 142.067 97.8328 141.392 98.2141 140.072C98.5954 138.752 98.8301 136.867 98.9181 134.418L99.0941 129.6H110.93V142.096H113.086ZM102.064 134.748C101.991 136.581 101.837 138.121 101.602 139.368C101.367 140.6 101.008 141.509 100.524 142.096H107.41V132.504H102.13L102.064 134.748ZM126.042 141.7H118.892L117.528 145H113.876L120.74 129.6H124.26L131.146 145H127.406L126.042 141.7ZM124.92 138.994L122.478 133.098L120.036 138.994H124.92Z" fill="#F4D06F"></path> </g> <defs> <clipPath id="clip0"> <rect width="197" height="197" fill="white"></rect> </clipPath> </defs> </svg> 