<?xml version="1.0" encoding="UTF-8"?> <svg xmlns="http://www.w3.org/2000/svg" width="127" height="127" viewBox="0 0 127 127" fill="none"> <g clip-path="url(#clip0)"> <path d="M63.502 5.1577L69.3614 12.6703L71.185 15.0053L73.639 13.3482L81.5321 8.01604L84.783 16.9717L85.7939 19.7547L88.6403 18.938L97.7942 16.3056L98.1192 25.8282L98.2223 28.7896L101.184 28.8926L110.706 29.2177L108.074 38.3716L107.257 41.218L110.04 42.2289L118.996 45.4798L113.664 53.3729L112.007 55.8269L114.342 57.6505L121.854 63.5099L114.342 69.3693L112.007 71.1929L113.664 73.6469L118.996 81.5401L110.04 84.7909L107.257 85.8018L108.074 88.6483L110.706 97.8021L101.184 98.1272L98.2223 98.2302L98.1192 101.192L97.7942 110.714L88.6403 108.082L85.7939 107.265L84.783 110.048L81.5321 119.004L73.639 113.672L71.185 112.015L69.3614 114.35L63.502 121.862L57.6426 114.334L55.8189 111.999L53.365 113.656L45.4718 118.988L42.221 110.032L41.2101 107.249L38.3636 108.066L29.2098 110.698L28.8847 101.176L28.7816 98.2144L25.8202 98.1113L16.2977 97.7862L18.9301 88.6324L19.7467 85.7859L16.9637 84.775L8.00812 81.5242L13.3403 73.6311L14.9974 71.1771L12.6623 69.3535L5.14977 63.4941L12.6623 57.6346L14.9974 55.811L13.3403 53.357L8.01208 45.4718L16.9677 42.221L19.7507 41.2101L18.934 38.3636L16.3017 29.2098L25.8242 28.8847L28.7856 28.7816L28.8887 25.8202L29.2138 16.2977L38.3676 18.9301L41.214 19.7467L42.225 16.9637L45.4758 8.00812L53.3689 13.3403L55.8229 14.9974L57.6465 12.6623L63.502 5.1577ZM63.502 0L55.141 10.7158L43.8781 3.1081L39.2398 15.8854L26.177 12.1311L25.7132 25.7132L12.1311 26.177L15.8854 39.2398L3.1081 43.8781L10.7158 55.141L0 63.502L10.7158 71.8629L3.1081 83.1219L15.8854 87.7602L12.1311 100.823L25.7132 101.287L26.177 114.869L39.2398 111.115L43.8781 123.892L55.141 116.284L63.502 127L71.8629 116.284L83.1258 123.892L87.7642 111.115L100.827 114.869L101.291 101.287L114.873 100.823L111.119 87.7602L123.896 83.1219L116.288 71.859L127.004 63.498L116.288 55.1371L123.896 43.8742L111.119 39.2358L114.873 26.1731L101.291 25.7092L100.827 12.1271L87.7642 15.8814L83.1258 3.10414L71.8629 10.7118L63.502 0Z" fill="#FD4F28"></path> <path d="M29.2758 49.144C28.4198 49.144 27.6438 48.96 26.9478 48.592C26.2598 48.216 25.7158 47.7 25.3158 47.044C24.9238 46.38 24.7278 45.632 24.7278 44.8C24.7278 43.968 24.9238 43.224 25.3158 42.568C25.7158 41.904 26.2598 41.388 26.9478 41.02C27.6438 40.644 28.4238 40.456 29.2878 40.456C30.0158 40.456 30.6718 40.584 31.2558 40.84C31.8478 41.096 32.3438 41.464 32.7438 41.944L31.4958 43.096C30.9278 42.44 30.2238 42.112 29.3838 42.112C28.8638 42.112 28.3998 42.228 27.9918 42.46C27.5838 42.684 27.2638 43 27.0318 43.408C26.8078 43.816 26.6958 44.28 26.6958 44.8C26.6958 45.32 26.8078 45.784 27.0318 46.192C27.2638 46.6 27.5838 46.92 27.9918 47.152C28.3998 47.376 28.8638 47.488 29.3838 47.488C30.2238 47.488 30.9278 47.156 31.4958 46.492L32.7438 47.644C32.3438 48.132 31.8478 48.504 31.2558 48.76C30.6638 49.016 30.0038 49.144 29.2758 49.144ZM37.2628 45.616H35.9188V49H33.9868V40.6H35.9188V43.996H37.3108L39.5188 40.6H41.5708L38.8228 44.656L41.6548 49H39.4468L37.2628 45.616ZM42.5655 40.6H44.4975V46.072L48.5055 40.6H50.3295V49H48.4095V43.54L44.4015 49H42.5655V40.6ZM61.0264 47.416V50.74H59.2264V49H53.2984V50.74H51.4984L51.5104 47.416H51.8464C52.3504 47.4 52.7064 47.032 52.9144 46.312C53.1224 45.592 53.2504 44.564 53.2984 43.228L53.3944 40.6H59.8504V47.416H61.0264ZM55.0144 43.408C54.9744 44.408 54.8904 45.248 54.7624 45.928C54.6344 46.6 54.4384 47.096 54.1744 47.416H57.9304V42.184H55.0504L55.0144 43.408ZM65.587 45.616H64.243V49H62.311V40.6H64.243V43.996H65.635L67.843 40.6H69.895L67.147 44.656L69.979 49H67.771L65.587 45.616ZM76.4136 47.2H72.5136L71.7696 49H69.7776L73.5216 40.6H75.4416L79.1976 49H77.1576L76.4136 47.2ZM75.8016 45.724L74.4696 42.508L73.1376 45.724H75.8016ZM92.374 47.416V50.74H90.574V49H84.646V50.74H82.846L82.858 47.416H83.194C83.698 47.4 84.054 47.032 84.262 46.312C84.47 45.592 84.598 44.564 84.646 43.228L84.742 40.6H91.198V47.416H92.374ZM86.362 43.408C86.322 44.408 86.238 45.248 86.11 45.928C85.982 46.6 85.786 47.096 85.522 47.416H89.278V42.184H86.398L86.362 43.408ZM97.6907 49.144C96.8187 49.144 96.0307 48.956 95.3267 48.58C94.6307 48.204 94.0827 47.688 93.6827 47.032C93.2907 46.368 93.0947 45.624 93.0947 44.8C93.0947 43.976 93.2907 43.236 93.6827 42.58C94.0827 41.916 94.6307 41.396 95.3267 41.02C96.0307 40.644 96.8187 40.456 97.6907 40.456C98.5627 40.456 99.3467 40.644 100.043 41.02C100.739 41.396 101.287 41.916 101.687 42.58C102.087 43.236 102.287 43.976 102.287 44.8C102.287 45.624 102.087 46.368 101.687 47.032C101.287 47.688 100.739 48.204 100.043 48.58C99.3467 48.956 98.5627 49.144 97.6907 49.144ZM97.6907 47.488C98.1867 47.488 98.6347 47.376 99.0347 47.152C99.4347 46.92 99.7467 46.6 99.9707 46.192C100.203 45.784 100.319 45.32 100.319 44.8C100.319 44.28 100.203 43.816 99.9707 43.408C99.7467 43 99.4347 42.684 99.0347 42.46C98.6347 42.228 98.1867 42.112 97.6907 42.112C97.1947 42.112 96.7467 42.228 96.3467 42.46C95.9467 42.684 95.6307 43 95.3987 43.408C95.1747 43.816 95.0627 44.28 95.0627 44.8C95.0627 45.32 95.1747 45.784 95.3987 46.192C95.6307 46.6 95.9467 46.92 96.3467 47.152C96.7467 47.376 97.1947 47.488 97.6907 47.488Z" fill="#FD4F28"></path> <path d="M46.8004 78.7059V83.4579H27.7564V79.6779L37.4764 70.4979C38.5084 69.5139 39.2044 68.6739 39.5644 67.9779C39.9244 67.2579 40.1044 66.5499 40.1044 65.8539C40.1044 64.8459 39.7564 64.0779 39.0604 63.5499C38.3884 62.9979 37.3924 62.7219 36.0724 62.7219C34.9684 62.7219 33.9724 62.9379 33.0844 63.3699C32.1964 63.7779 31.4524 64.4019 30.8524 65.2419L26.6044 62.5059C27.5884 61.0419 28.9444 59.9019 30.6724 59.0859C32.4004 58.2459 34.3804 57.8259 36.6124 57.8259C38.4844 57.8259 40.1164 58.1379 41.5084 58.7619C42.9244 59.3619 44.0164 60.2259 44.7844 61.3539C45.5764 62.4579 45.9724 63.7659 45.9724 65.2779C45.9724 66.6459 45.6844 67.9299 45.1084 69.1299C44.5324 70.3299 43.4164 71.6979 41.7604 73.2339L35.9644 78.7059H46.8004ZM57.8467 67.7259C61.3987 67.7259 64.0147 68.4339 65.6947 69.8499C67.3987 71.2659 68.2507 73.1619 68.2507 75.5379C68.2507 77.0739 67.8667 78.4779 67.0987 79.7499C66.3307 80.9979 65.1547 82.0059 63.5707 82.7739C62.0107 83.5179 60.0787 83.8899 57.7747 83.8899C55.9987 83.8899 54.2467 83.6619 52.5187 83.2059C50.8147 82.7259 49.3627 82.0539 48.1627 81.1899L50.4667 76.7259C51.4267 77.4459 52.5307 78.0099 53.7787 78.4179C55.0267 78.8019 56.3107 78.9939 57.6307 78.9939C59.0947 78.9939 60.2467 78.7059 61.0867 78.1299C61.9267 77.5539 62.3467 76.7499 62.3467 75.7179C62.3467 74.6379 61.9027 73.8219 61.0147 73.2699C60.1507 72.7179 58.6387 72.4419 56.4787 72.4419H50.0347L51.3307 58.2579H66.7027V62.9379H56.1907L55.7947 67.7259H57.8467ZM76.0973 71.8659C74.2493 71.8659 72.7373 71.2419 71.5613 69.9939C70.4093 68.7219 69.8333 67.0299 69.8333 64.9179C69.8333 62.8059 70.4093 61.1259 71.5613 59.8779C72.7373 58.6059 74.2493 57.9699 76.0973 57.9699C77.9453 57.9699 79.4453 58.6059 80.5973 59.8779C81.7493 61.1259 82.3253 62.8059 82.3253 64.9179C82.3253 67.0299 81.7493 68.7219 80.5973 69.9939C79.4453 71.2419 77.9453 71.8659 76.0973 71.8659ZM91.1093 58.2579H95.3933L78.1853 83.4579H73.9013L91.1093 58.2579ZM76.0973 68.9139C76.9133 68.9139 77.5493 68.5779 78.0053 67.9059C78.4853 67.2339 78.7253 66.2379 78.7253 64.9179C78.7253 63.5979 78.4853 62.6019 78.0053 61.9299C77.5493 61.2579 76.9133 60.9219 76.0973 60.9219C75.3053 60.9219 74.6693 61.2699 74.1893 61.9659C73.7093 62.6379 73.4693 63.6219 73.4693 64.9179C73.4693 66.2139 73.7093 67.2099 74.1893 67.9059C74.6693 68.5779 75.3053 68.9139 76.0973 68.9139ZM93.1973 83.7459C91.9973 83.7459 90.9173 83.4699 89.9573 82.9179C89.0213 82.3419 88.2893 81.5259 87.7613 80.4699C87.2333 79.4139 86.9693 78.1899 86.9693 76.7979C86.9693 75.4059 87.2333 74.1819 87.7613 73.1259C88.2893 72.0699 89.0213 71.2659 89.9573 70.7139C90.9173 70.1379 91.9973 69.8499 93.1973 69.8499C95.0453 69.8499 96.5453 70.4859 97.6973 71.7579C98.8733 73.0059 99.4613 74.6859 99.4613 76.7979C99.4613 78.9099 98.8733 80.6019 97.6973 81.8739C96.5453 83.1219 95.0453 83.7459 93.1973 83.7459ZM93.1973 80.7939C94.0133 80.7939 94.6493 80.4579 95.1053 79.7859C95.5853 79.0899 95.8253 78.0939 95.8253 76.7979C95.8253 75.5019 95.5853 74.5179 95.1053 73.8459C94.6493 73.1499 94.0133 72.8019 93.1973 72.8019C92.4053 72.8019 91.7693 73.1379 91.2893 73.8099C90.8093 74.4819 90.5693 75.4779 90.5693 76.7979C90.5693 78.1179 90.8093 79.1139 91.2893 79.7859C91.7693 80.4579 92.4053 80.7939 93.1973 80.7939Z" fill="#FD4F28"></path> </g> <defs> <clipPath id="clip0"> <rect width="127" height="127" fill="white"></rect> </clipPath> </defs> </svg> 