<?xml version="1.0" encoding="UTF-8"?> <svg xmlns="http://www.w3.org/2000/svg" width="127" height="127" viewBox="0 0 127 127" fill="none"> <g clip-path="url(#clip0)"> <path d="M63.502 5.1577L69.3614 12.6703L71.185 15.0053L73.639 13.3482L81.5321 8.01604L84.783 16.9717L85.7939 19.7547L88.6403 18.938L97.7942 16.3056L98.1192 25.8282L98.2223 28.7896L101.184 28.8926L110.706 29.2177L108.074 38.3716L107.257 41.218L110.04 42.2289L118.996 45.4798L113.664 53.3729L112.007 55.8269L114.342 57.6505L121.854 63.5099L114.342 69.3693L112.007 71.1929L113.664 73.6469L118.996 81.5401L110.04 84.7909L107.257 85.8018L108.074 88.6483L110.706 97.8021L101.184 98.1272L98.2223 98.2302L98.1192 101.192L97.7942 110.714L88.6403 108.082L85.7939 107.265L84.783 110.048L81.5321 119.004L73.639 113.672L71.185 112.015L69.3614 114.35L63.502 121.862L57.6426 114.334L55.8189 111.999L53.365 113.656L45.4718 118.988L42.221 110.032L41.2101 107.249L38.3636 108.066L29.2098 110.698L28.8847 101.176L28.7816 98.2144L25.8202 98.1113L16.2977 97.7862L18.9301 88.6324L19.7467 85.7859L16.9637 84.775L8.00812 81.5242L13.3403 73.6311L14.9974 71.1771L12.6623 69.3535L5.14977 63.4941L12.6623 57.6346L14.9974 55.811L13.3403 53.357L8.01208 45.4718L16.9677 42.221L19.7507 41.2101L18.934 38.3636L16.3017 29.2098L25.8242 28.8847L28.7856 28.7816L28.8887 25.8202L29.2138 16.2977L38.3676 18.9301L41.214 19.7467L42.225 16.9637L45.4758 8.00812L53.3689 13.3403L55.8229 14.9974L57.6465 12.6623L63.502 5.1577ZM63.502 0L55.141 10.7158L43.8781 3.1081L39.2398 15.8854L26.177 12.1311L25.7132 25.7132L12.1311 26.177L15.8854 39.2398L3.1081 43.8781L10.7158 55.141L0 63.502L10.7158 71.8629L3.1081 83.1219L15.8854 87.7602L12.1311 100.823L25.7132 101.287L26.177 114.869L39.2398 111.115L43.8781 123.892L55.141 116.284L63.502 127L71.8629 116.284L83.1258 123.892L87.7642 111.115L100.827 114.869L101.291 101.287L114.873 100.823L111.119 87.7602L123.896 83.1219L116.288 71.859L127.004 63.498L116.288 55.1371L123.896 43.8742L111.119 39.2358L114.873 26.1731L101.291 25.7092L100.827 12.1271L87.7642 15.8814L83.1258 3.10414L71.8629 10.7118L63.502 0Z" fill="#FD4F28"></path> <path d="M29.2758 49.144C28.4198 49.144 27.6438 48.96 26.9478 48.592C26.2598 48.216 25.7158 47.7 25.3158 47.044C24.9238 46.38 24.7278 45.632 24.7278 44.8C24.7278 43.968 24.9238 43.224 25.3158 42.568C25.7158 41.904 26.2598 41.388 26.9478 41.02C27.6438 40.644 28.4238 40.456 29.2878 40.456C30.0158 40.456 30.6718 40.584 31.2558 40.84C31.8478 41.096 32.3438 41.464 32.7438 41.944L31.4958 43.096C30.9278 42.44 30.2238 42.112 29.3838 42.112C28.8638 42.112 28.3998 42.228 27.9918 42.46C27.5838 42.684 27.2638 43 27.0318 43.408C26.8078 43.816 26.6958 44.28 26.6958 44.8C26.6958 45.32 26.8078 45.784 27.0318 46.192C27.2638 46.6 27.5838 46.92 27.9918 47.152C28.3998 47.376 28.8638 47.488 29.3838 47.488C30.2238 47.488 30.9278 47.156 31.4958 46.492L32.7438 47.644C32.3438 48.132 31.8478 48.504 31.2558 48.76C30.6638 49.016 30.0038 49.144 29.2758 49.144ZM37.2628 45.616H35.9188V49H33.9868V40.6H35.9188V43.996H37.3108L39.5188 40.6H41.5708L38.8228 44.656L41.6548 49H39.4468L37.2628 45.616ZM42.5655 40.6H44.4975V46.072L48.5055 40.6H50.3295V49H48.4095V43.54L44.4015 49H42.5655V40.6ZM61.0264 47.416V50.74H59.2264V49H53.2984V50.74H51.4984L51.5104 47.416H51.8464C52.3504 47.4 52.7064 47.032 52.9144 46.312C53.1224 45.592 53.2504 44.564 53.2984 43.228L53.3944 40.6H59.8504V47.416H61.0264ZM55.0144 43.408C54.9744 44.408 54.8904 45.248 54.7624 45.928C54.6344 46.6 54.4384 47.096 54.1744 47.416H57.9304V42.184H55.0504L55.0144 43.408ZM65.587 45.616H64.243V49H62.311V40.6H64.243V43.996H65.635L67.843 40.6H69.895L67.147 44.656L69.979 49H67.771L65.587 45.616ZM76.4136 47.2H72.5136L71.7696 49H69.7776L73.5216 40.6H75.4416L79.1976 49H77.1576L76.4136 47.2ZM75.8016 45.724L74.4696 42.508L73.1376 45.724H75.8016ZM92.374 47.416V50.74H90.574V49H84.646V50.74H82.846L82.858 47.416H83.194C83.698 47.4 84.054 47.032 84.262 46.312C84.47 45.592 84.598 44.564 84.646 43.228L84.742 40.6H91.198V47.416H92.374ZM86.362 43.408C86.322 44.408 86.238 45.248 86.11 45.928C85.982 46.6 85.786 47.096 85.522 47.416H89.278V42.184H86.398L86.362 43.408ZM97.6907 49.144C96.8187 49.144 96.0307 48.956 95.3267 48.58C94.6307 48.204 94.0827 47.688 93.6827 47.032C93.2907 46.368 93.0947 45.624 93.0947 44.8C93.0947 43.976 93.2907 43.236 93.6827 42.58C94.0827 41.916 94.6307 41.396 95.3267 41.02C96.0307 40.644 96.8187 40.456 97.6907 40.456C98.5627 40.456 99.3467 40.644 100.043 41.02C100.739 41.396 101.287 41.916 101.687 42.58C102.087 43.236 102.287 43.976 102.287 44.8C102.287 45.624 102.087 46.368 101.687 47.032C101.287 47.688 100.739 48.204 100.043 48.58C99.3467 48.956 98.5627 49.144 97.6907 49.144ZM97.6907 47.488C98.1867 47.488 98.6347 47.376 99.0347 47.152C99.4347 46.92 99.7467 46.6 99.9707 46.192C100.203 45.784 100.319 45.32 100.319 44.8C100.319 44.28 100.203 43.816 99.9707 43.408C99.7467 43 99.4347 42.684 99.0347 42.46C98.6347 42.228 98.1867 42.112 97.6907 42.112C97.1947 42.112 96.7467 42.228 96.3467 42.46C95.9467 42.684 95.6307 43 95.3987 43.408C95.1747 43.816 95.0627 44.28 95.0627 44.8C95.0627 45.32 95.1747 45.784 95.3987 46.192C95.6307 46.6 95.9467 46.92 96.3467 47.152C96.7467 47.376 97.1947 47.488 97.6907 47.488Z" fill="#FD4F28"></path> <path d="M38.0217 68.5179C40.2297 68.8779 41.9217 69.7059 43.0977 71.0019C44.2737 72.2739 44.8617 73.8579 44.8617 75.7539C44.8617 77.2179 44.4777 78.5739 43.7097 79.8219C42.9417 81.0459 41.7657 82.0299 40.1817 82.7739C38.6217 83.5179 36.7017 83.8899 34.4217 83.8899C32.6457 83.8899 30.8937 83.6619 29.1657 83.2059C27.4617 82.7259 26.0097 82.0539 24.8097 81.1899L27.0777 76.7259C28.0377 77.4459 29.1417 78.0099 30.3897 78.4179C31.6617 78.8019 32.9577 78.9939 34.2777 78.9939C35.7417 78.9939 36.8937 78.7179 37.7337 78.1659C38.5737 77.5899 38.9937 76.7859 38.9937 75.7539C38.9937 73.6899 37.4217 72.6579 34.2777 72.6579H31.6137V68.8059L36.7977 62.9379H26.0697V58.2579H43.7097V62.0379L38.0217 68.5179ZM58.3544 83.8899C56.2664 83.8899 54.4064 83.3739 52.7744 82.3419C51.1424 81.3099 49.8584 79.8219 48.9224 77.8779C48.0104 75.9099 47.5544 73.5699 47.5544 70.8579C47.5544 68.1459 48.0104 65.8179 48.9224 63.8739C49.8584 61.9059 51.1424 60.4059 52.7744 59.3739C54.4064 58.3419 56.2664 57.8259 58.3544 57.8259C60.4424 57.8259 62.3024 58.3419 63.9344 59.3739C65.5664 60.4059 66.8384 61.9059 67.7504 63.8739C68.6864 65.8179 69.1544 68.1459 69.1544 70.8579C69.1544 73.5699 68.6864 75.9099 67.7504 77.8779C66.8384 79.8219 65.5664 81.3099 63.9344 82.3419C62.3024 83.3739 60.4424 83.8899 58.3544 83.8899ZM58.3544 78.9579C59.8904 78.9579 61.0904 78.2979 61.9544 76.9779C62.8424 75.6579 63.2864 73.6179 63.2864 70.8579C63.2864 68.0979 62.8424 66.0579 61.9544 64.7379C61.0904 63.4179 59.8904 62.7579 58.3544 62.7579C56.8424 62.7579 55.6424 63.4179 54.7544 64.7379C53.8904 66.0579 53.4584 68.0979 53.4584 70.8579C53.4584 73.6179 53.8904 75.6579 54.7544 76.9779C55.6424 78.2979 56.8424 78.9579 58.3544 78.9579ZM77.82 71.8659C75.972 71.8659 74.46 71.2419 73.284 69.9939C72.132 68.7219 71.556 67.0299 71.556 64.9179C71.556 62.8059 72.132 61.1259 73.284 59.8779C74.46 58.6059 75.972 57.9699 77.82 57.9699C79.668 57.9699 81.168 58.6059 82.32 59.8779C83.472 61.1259 84.048 62.8059 84.048 64.9179C84.048 67.0299 83.472 68.7219 82.32 69.9939C81.168 71.2419 79.668 71.8659 77.82 71.8659ZM92.832 58.2579H97.116L79.908 83.4579H75.624L92.832 58.2579ZM77.82 68.9139C78.636 68.9139 79.272 68.5779 79.728 67.9059C80.208 67.2339 80.448 66.2379 80.448 64.9179C80.448 63.5979 80.208 62.6019 79.728 61.9299C79.272 61.2579 78.636 60.9219 77.82 60.9219C77.028 60.9219 76.392 61.2699 75.912 61.9659C75.432 62.6379 75.192 63.6219 75.192 64.9179C75.192 66.2139 75.432 67.2099 75.912 67.9059C76.392 68.5779 77.028 68.9139 77.82 68.9139ZM94.92 83.7459C93.72 83.7459 92.64 83.4699 91.68 82.9179C90.744 82.3419 90.012 81.5259 89.484 80.4699C88.956 79.4139 88.692 78.1899 88.692 76.7979C88.692 75.4059 88.956 74.1819 89.484 73.1259C90.012 72.0699 90.744 71.2659 91.68 70.7139C92.64 70.1379 93.72 69.8499 94.92 69.8499C96.768 69.8499 98.268 70.4859 99.42 71.7579C100.596 73.0059 101.184 74.6859 101.184 76.7979C101.184 78.9099 100.596 80.6019 99.42 81.8739C98.268 83.1219 96.768 83.7459 94.92 83.7459ZM94.92 80.7939C95.736 80.7939 96.372 80.4579 96.828 79.7859C97.308 79.0899 97.548 78.0939 97.548 76.7979C97.548 75.5019 97.308 74.5179 96.828 73.8459C96.372 73.1499 95.736 72.8019 94.92 72.8019C94.128 72.8019 93.492 73.1379 93.012 73.8099C92.532 74.4819 92.292 75.4779 92.292 76.7979C92.292 78.1179 92.532 79.1139 93.012 79.7859C93.492 80.4579 94.128 80.7939 94.92 80.7939Z" fill="#FD4F28"></path> </g> <defs> <clipPath id="clip0"> <rect width="127" height="127" fill="white"></rect> </clipPath> </defs> </svg> 