<?xml version="1.0" encoding="UTF-8"?> <svg xmlns="http://www.w3.org/2000/svg" width="347" height="104" viewBox="0 0 347 104" fill="none"> <path d="M0 50C0 22.3858 22.3858 0 50 0H297C324.614 0 347 22.3858 347 50V53.6512C347 81.2654 324.614 103.651 297 103.651H45.5H0V50Z" fill="white"></path> <path d="M70.432 36.648C69.04 36.648 67.976 37.168 67.24 38.208C66.504 39.248 66.136 40.672 66.136 42.48C66.136 44.304 66.472 45.72 67.144 46.728C67.832 47.72 68.928 48.216 70.432 48.216C71.136 48.216 71.832 48.136 72.52 47.976C73.224 47.816 73.984 47.592 74.8 47.304V50.352C74.048 50.656 73.304 50.88 72.568 51.024C71.832 51.168 71.008 51.24 70.096 51.24C68.336 51.24 66.88 50.88 65.728 50.16C64.592 49.424 63.752 48.4 63.208 47.088C62.664 45.76 62.392 44.216 62.392 42.456C62.392 40.728 62.704 39.2 63.328 37.872C63.952 36.544 64.856 35.504 66.04 34.752C67.24 34 68.704 33.624 70.432 33.624C71.28 33.624 72.128 33.736 72.976 33.96C73.84 34.168 74.664 34.456 75.448 34.824L74.272 37.776C73.632 37.472 72.984 37.208 72.328 36.984C71.688 36.76 71.056 36.648 70.432 36.648ZM81.7293 36.48C81.7293 37.12 81.7053 37.736 81.6573 38.328C81.6253 38.92 81.5933 39.336 81.5613 39.576H81.7533C82.1693 38.904 82.7053 38.416 83.3613 38.112C84.0173 37.808 84.7453 37.656 85.5453 37.656C86.9693 37.656 88.1053 38.04 88.9532 38.808C89.8173 39.56 90.2493 40.776 90.2493 42.456V51H86.6733V43.344C86.6733 41.456 85.9693 40.512 84.5613 40.512C83.4893 40.512 82.7453 40.888 82.3293 41.64C81.9293 42.376 81.7293 43.44 81.7293 44.832V51H78.1533V32.76H81.7293V36.48ZM101.247 37.656C101.423 37.656 101.631 37.664 101.871 37.68C102.111 37.696 102.303 37.72 102.447 37.752L102.183 41.112C102.071 41.08 101.903 41.056 101.679 41.04C101.471 41.008 101.287 40.992 101.127 40.992C100.519 40.992 99.9347 41.104 99.3747 41.328C98.8147 41.536 98.3587 41.88 98.0067 42.36C97.6707 42.84 97.5027 43.496 97.5027 44.328V51H93.9267V37.896H96.6387L97.1667 40.104H97.3347C97.7187 39.432 98.2467 38.856 98.9187 38.376C99.5907 37.896 100.367 37.656 101.247 37.656ZM106.625 32.76C107.153 32.76 107.609 32.888 107.993 33.144C108.377 33.384 108.569 33.84 108.569 34.512C108.569 35.168 108.377 35.624 107.993 35.88C107.609 36.136 107.153 36.264 106.625 36.264C106.081 36.264 105.617 36.136 105.233 35.88C104.865 35.624 104.681 35.168 104.681 34.512C104.681 33.84 104.865 33.384 105.233 33.144C105.617 32.888 106.081 32.76 106.625 32.76ZM108.401 37.896V51H104.825V37.896H108.401ZM121.282 47.112C121.282 48.44 120.81 49.464 119.866 50.184C118.938 50.888 117.546 51.24 115.69 51.24C114.778 51.24 113.994 51.176 113.338 51.048C112.682 50.936 112.026 50.744 111.37 50.472V47.52C112.074 47.84 112.834 48.104 113.65 48.312C114.466 48.52 115.186 48.624 115.81 48.624C116.514 48.624 117.01 48.52 117.298 48.312C117.602 48.104 117.754 47.832 117.754 47.496C117.754 47.272 117.69 47.072 117.562 46.896C117.45 46.72 117.194 46.52 116.794 46.296C116.394 46.072 115.77 45.784 114.922 45.432C114.106 45.08 113.434 44.736 112.906 44.4C112.378 44.048 111.986 43.632 111.73 43.152C111.474 42.656 111.346 42.04 111.346 41.304C111.346 40.088 111.818 39.176 112.762 38.568C113.706 37.96 114.962 37.656 116.53 37.656C117.346 37.656 118.122 37.736 118.858 37.896C119.594 38.056 120.354 38.32 121.138 38.688L120.058 41.256C119.418 40.984 118.81 40.76 118.234 40.584C117.658 40.392 117.074 40.296 116.482 40.296C115.426 40.296 114.898 40.584 114.898 41.16C114.898 41.368 114.962 41.56 115.09 41.736C115.234 41.896 115.498 42.072 115.882 42.264C116.282 42.456 116.866 42.712 117.634 43.032C118.386 43.336 119.034 43.656 119.578 43.992C120.122 44.312 120.538 44.72 120.826 45.216C121.13 45.696 121.282 46.328 121.282 47.112ZM129.587 48.384C129.987 48.384 130.371 48.344 130.739 48.264C131.107 48.184 131.475 48.088 131.843 47.976V50.64C131.459 50.8 130.979 50.936 130.403 51.048C129.843 51.176 129.227 51.24 128.555 51.24C127.771 51.24 127.067 51.112 126.443 50.856C125.835 50.6 125.347 50.16 124.979 49.536C124.627 48.896 124.451 48.016 124.451 46.896V40.584H122.747V39.072L124.715 37.872L125.747 35.112H128.027V37.896H131.699V40.584H128.027V46.896C128.027 47.392 128.171 47.768 128.459 48.024C128.747 48.264 129.123 48.384 129.587 48.384ZM149.858 37.656C151.346 37.656 152.466 38.04 153.218 38.808C153.986 39.56 154.37 40.776 154.37 42.456V51H150.794V43.344C150.794 41.456 150.138 40.512 148.826 40.512C147.882 40.512 147.21 40.848 146.81 41.52C146.41 42.192 146.21 43.16 146.21 44.424V51H142.634V43.344C142.634 41.456 141.978 40.512 140.666 40.512C139.674 40.512 138.986 40.888 138.602 41.64C138.234 42.376 138.05 43.44 138.05 44.832V51H134.474V37.896H137.21L137.69 39.576H137.882C138.282 38.904 138.826 38.416 139.514 38.112C140.218 37.808 140.946 37.656 141.698 37.656C142.658 37.656 143.474 37.816 144.146 38.136C144.818 38.44 145.33 38.92 145.682 39.576H145.994C146.394 38.904 146.946 38.416 147.65 38.112C148.37 37.808 149.106 37.656 149.858 37.656ZM163.428 37.632C165.188 37.632 166.532 38.016 167.46 38.784C168.404 39.536 168.876 40.696 168.876 42.264V51H166.38L165.684 49.224H165.588C165.028 49.928 164.436 50.44 163.812 50.76C163.188 51.08 162.332 51.24 161.244 51.24C160.076 51.24 159.108 50.904 158.34 50.232C157.572 49.544 157.188 48.496 157.188 47.088C157.188 45.696 157.676 44.672 158.652 44.016C159.628 43.344 161.092 42.976 163.044 42.912L165.324 42.84V42.264C165.324 41.576 165.14 41.072 164.772 40.752C164.42 40.432 163.924 40.272 163.284 40.272C162.644 40.272 162.02 40.368 161.412 40.56C160.804 40.736 160.196 40.96 159.588 41.232L158.412 38.808C159.116 38.44 159.892 38.152 160.74 37.944C161.604 37.736 162.5 37.632 163.428 37.632ZM163.932 44.976C162.78 45.008 161.98 45.216 161.532 45.6C161.084 45.984 160.86 46.488 160.86 47.112C160.86 47.656 161.02 48.048 161.34 48.288C161.66 48.512 162.076 48.624 162.588 48.624C163.356 48.624 164.004 48.4 164.532 47.952C165.06 47.488 165.324 46.84 165.324 46.008V44.928L163.932 44.976ZM181.68 47.112C181.68 48.44 181.208 49.464 180.264 50.184C179.336 50.888 177.944 51.24 176.088 51.24C175.176 51.24 174.392 51.176 173.736 51.048C173.08 50.936 172.424 50.744 171.768 50.472V47.52C172.472 47.84 173.232 48.104 174.048 48.312C174.864 48.52 175.584 48.624 176.208 48.624C176.912 48.624 177.408 48.52 177.696 48.312C178 48.104 178.152 47.832 178.152 47.496C178.152 47.272 178.088 47.072 177.96 46.896C177.848 46.72 177.592 46.52 177.192 46.296C176.792 46.072 176.168 45.784 175.32 45.432C174.504 45.08 173.832 44.736 173.304 44.4C172.776 44.048 172.384 43.632 172.128 43.152C171.872 42.656 171.744 42.04 171.744 41.304C171.744 40.088 172.216 39.176 173.16 38.568C174.104 37.96 175.36 37.656 176.928 37.656C177.744 37.656 178.52 37.736 179.256 37.896C179.992 38.056 180.752 38.32 181.536 38.688L180.456 41.256C179.816 40.984 179.208 40.76 178.632 40.584C178.056 40.392 177.472 40.296 176.88 40.296C175.824 40.296 175.296 40.584 175.296 41.16C175.296 41.368 175.36 41.56 175.488 41.736C175.632 41.896 175.896 42.072 176.28 42.264C176.68 42.456 177.264 42.712 178.032 43.032C178.784 43.336 179.432 43.656 179.976 43.992C180.52 44.312 180.936 44.72 181.224 45.216C181.528 45.696 181.68 46.328 181.68 47.112ZM196.22 48.384C196.62 48.384 197.004 48.344 197.372 48.264C197.74 48.184 198.108 48.088 198.476 47.976V50.64C198.092 50.8 197.612 50.936 197.036 51.048C196.476 51.176 195.86 51.24 195.188 51.24C194.404 51.24 193.7 51.112 193.076 50.856C192.468 50.6 191.98 50.16 191.612 49.536C191.26 48.896 191.084 48.016 191.084 46.896V40.584H189.38V39.072L191.348 37.872L192.38 35.112H194.66V37.896H198.332V40.584H194.66V46.896C194.66 47.392 194.804 47.768 195.092 48.024C195.38 48.264 195.756 48.384 196.22 48.384ZM213.13 37.896V51H210.394L209.914 49.32H209.722C209.306 49.992 208.73 50.48 207.994 50.784C207.274 51.088 206.506 51.24 205.69 51.24C204.282 51.24 203.154 50.864 202.306 50.112C201.458 49.344 201.034 48.12 201.034 46.44V37.896H204.61V45.552C204.61 46.48 204.778 47.184 205.114 47.664C205.45 48.144 205.986 48.384 206.722 48.384C207.81 48.384 208.554 48.016 208.954 47.28C209.354 46.528 209.554 45.456 209.554 44.064V37.896H213.13ZM224.2 37.656C224.376 37.656 224.584 37.664 224.824 37.68C225.064 37.696 225.256 37.72 225.4 37.752L225.136 41.112C225.024 41.08 224.856 41.056 224.632 41.04C224.424 41.008 224.24 40.992 224.08 40.992C223.472 40.992 222.888 41.104 222.328 41.328C221.768 41.536 221.312 41.88 220.96 42.36C220.624 42.84 220.456 43.496 220.456 44.328V51H216.88V37.896H219.592L220.12 40.104H220.288C220.672 39.432 221.2 38.856 221.872 38.376C222.544 37.896 223.32 37.656 224.2 37.656ZM231.354 40.92C231.354 41.416 231.33 41.912 231.282 42.408C231.25 42.888 231.21 43.376 231.162 43.872H231.21C231.45 43.536 231.698 43.2 231.954 42.864C232.21 42.512 232.482 42.184 232.77 41.88L236.442 37.896H240.474L235.266 43.584L240.786 51H236.658L232.89 45.696L231.354 46.92V51H227.778V32.76H231.354V40.92ZM248.061 37.656C249.869 37.656 251.301 38.176 252.357 39.216C253.413 40.24 253.941 41.704 253.941 43.608V45.336H245.493C245.525 46.344 245.821 47.136 246.381 47.712C246.957 48.288 247.749 48.576 248.757 48.576C249.605 48.576 250.373 48.496 251.061 48.336C251.749 48.16 252.461 47.896 253.197 47.544V50.304C252.557 50.624 251.877 50.856 251.157 51C250.453 51.16 249.597 51.24 248.589 51.24C247.277 51.24 246.117 51 245.109 50.52C244.101 50.024 243.309 49.28 242.733 48.288C242.157 47.296 241.869 46.048 241.869 44.544C241.869 43.008 242.125 41.736 242.637 40.728C243.165 39.704 243.893 38.936 244.821 38.424C245.749 37.912 246.829 37.656 248.061 37.656ZM248.085 40.2C247.397 40.2 246.821 40.424 246.357 40.872C245.909 41.32 245.645 42.016 245.565 42.96H250.581C250.565 42.16 250.357 41.504 249.957 40.992C249.557 40.464 248.933 40.2 248.085 40.2ZM254.5 37.896H258.412L260.884 45.264C261.012 45.616 261.108 45.984 261.172 46.368C261.236 46.736 261.284 47.128 261.316 47.544H261.388C261.436 47.128 261.5 46.736 261.58 46.368C261.676 45.984 261.78 45.616 261.892 45.264L264.316 37.896H268.156L262.612 52.68C262.116 54.04 261.388 55.056 260.428 55.728C259.484 56.416 258.388 56.76 257.14 56.76C256.74 56.76 256.388 56.736 256.084 56.688C255.796 56.656 255.54 56.616 255.316 56.568V53.736C255.492 53.768 255.7 53.8 255.94 53.832C256.196 53.864 256.46 53.88 256.732 53.88C257.484 53.88 258.076 53.648 258.508 53.184C258.956 52.736 259.284 52.192 259.492 51.552L259.708 50.904L254.5 37.896Z" fill="#1F1F1F"></path> <path d="M66.148 63.148C67.828 63.148 69.052 63.478 69.82 64.138C70.588 64.798 70.972 65.728 70.972 66.928C70.972 67.636 70.81 68.302 70.486 68.926C70.174 69.538 69.64 70.036 68.884 70.42C68.14 70.804 67.126 70.996 65.842 70.996H64.366V76H62.746V63.148H66.148ZM66.004 64.534H64.366V69.61H65.662C66.886 69.61 67.798 69.412 68.398 69.016C68.998 68.62 69.298 67.948 69.298 67C69.298 66.172 69.034 65.554 68.506 65.146C67.978 64.738 67.144 64.534 66.004 64.534ZM81.8164 71.158C81.8164 72.754 81.4084 73.99 80.5924 74.866C79.7884 75.742 78.6964 76.18 77.3164 76.18C76.4644 76.18 75.7024 75.988 75.0304 75.604C74.3704 75.208 73.8484 74.638 73.4644 73.894C73.0804 73.138 72.8884 72.226 72.8884 71.158C72.8884 69.562 73.2904 68.332 74.0944 67.468C74.8984 66.604 75.9904 66.172 77.3704 66.172C78.2464 66.172 79.0144 66.37 79.6744 66.766C80.3464 67.15 80.8684 67.714 81.2404 68.458C81.6244 69.19 81.8164 70.09 81.8164 71.158ZM74.5264 71.158C74.5264 72.298 74.7484 73.204 75.1924 73.876C75.6484 74.536 76.3684 74.866 77.3524 74.866C78.3244 74.866 79.0384 74.536 79.4944 73.876C79.9504 73.204 80.1784 72.298 80.1784 71.158C80.1784 70.018 79.9504 69.124 79.4944 68.476C79.0384 67.828 78.3184 67.504 77.3344 67.504C76.3504 67.504 75.6364 67.828 75.1924 68.476C74.7484 69.124 74.5264 70.018 74.5264 71.158ZM95.5493 66.352L91.5713 71.032L95.8913 76H94.0913L89.9153 71.104V76H88.4393V71.104L84.2633 76H82.4633L86.7833 71.032L82.8053 66.352H84.5333L88.4393 71.032V66.352H89.9153V71.032L93.8393 66.352H95.5493ZM104.639 66.352V74.668H106.043V79.348H104.513V76H97.7993V79.348H96.2873V74.668H97.0613C97.8893 73.528 98.5073 72.232 98.9153 70.78C99.3353 69.316 99.5513 67.84 99.5633 66.352H104.639ZM100.967 67.594C100.919 68.41 100.793 69.256 100.589 70.132C100.385 70.996 100.121 71.824 99.7973 72.616C99.4853 73.408 99.1193 74.092 98.6993 74.668H103.109V67.594H100.967ZM111.66 66.172C112.488 66.172 113.196 66.352 113.784 66.712C114.384 67.072 114.84 67.582 115.152 68.242C115.476 68.89 115.638 69.652 115.638 70.528V71.482H109.032C109.056 72.574 109.332 73.408 109.86 73.984C110.4 74.548 111.15 74.83 112.11 74.83C112.722 74.83 113.262 74.776 113.73 74.668C114.21 74.548 114.702 74.38 115.206 74.164V75.55C114.714 75.766 114.228 75.922 113.748 76.018C113.268 76.126 112.698 76.18 112.038 76.18C111.126 76.18 110.316 75.994 109.608 75.622C108.912 75.25 108.366 74.698 107.97 73.966C107.586 73.222 107.394 72.316 107.394 71.248C107.394 70.192 107.568 69.286 107.916 68.53C108.276 67.774 108.774 67.192 109.41 66.784C110.058 66.376 110.808 66.172 111.66 66.172ZM111.642 67.468C110.886 67.468 110.286 67.714 109.842 68.206C109.41 68.686 109.152 69.358 109.068 70.222H113.982C113.97 69.406 113.778 68.746 113.406 68.242C113.034 67.726 112.446 67.468 111.642 67.468ZM121.964 76.18C121.112 76.18 120.35 76.006 119.678 75.658C119.018 75.31 118.496 74.77 118.112 74.038C117.74 73.306 117.554 72.37 117.554 71.23C117.554 70.042 117.752 69.076 118.148 68.332C118.544 67.588 119.078 67.042 119.75 66.694C120.434 66.346 121.208 66.172 122.072 66.172C122.564 66.172 123.038 66.226 123.494 66.334C123.95 66.43 124.322 66.55 124.61 66.694L124.124 68.008C123.836 67.9 123.5 67.798 123.116 67.702C122.732 67.606 122.372 67.558 122.036 67.558C120.14 67.558 119.192 68.776 119.192 71.212C119.192 72.376 119.42 73.27 119.876 73.894C120.344 74.506 121.034 74.812 121.946 74.812C122.474 74.812 122.936 74.758 123.332 74.65C123.74 74.542 124.112 74.41 124.448 74.254V75.658C124.124 75.826 123.764 75.952 123.368 76.036C122.984 76.132 122.516 76.18 121.964 76.18ZM133.403 67.684H130.253V76H128.687V67.684H125.573V66.352H133.403V67.684ZM143.061 68.782C143.061 69.382 142.881 69.85 142.521 70.186C142.161 70.522 141.699 70.75 141.135 70.87V70.942C141.735 71.026 142.257 71.242 142.701 71.59C143.145 71.926 143.367 72.454 143.367 73.174C143.367 73.99 143.061 74.668 142.449 75.208C141.849 75.736 140.853 76 139.461 76H135.303V66.352H139.443C140.127 66.352 140.739 66.43 141.279 66.586C141.831 66.73 142.263 66.982 142.575 67.342C142.899 67.69 143.061 68.17 143.061 68.782ZM141.459 68.98C141.459 68.524 141.291 68.194 140.955 67.99C140.631 67.774 140.097 67.666 139.353 67.666H136.887V70.312H139.065C140.661 70.312 141.459 69.868 141.459 68.98ZM141.729 73.174C141.729 72.622 141.519 72.226 141.099 71.986C140.679 71.746 140.061 71.626 139.245 71.626H136.887V74.722H139.281C140.073 74.722 140.679 74.608 141.099 74.38C141.519 74.14 141.729 73.738 141.729 73.174ZM149.401 66.172C150.229 66.172 150.937 66.352 151.525 66.712C152.125 67.072 152.581 67.582 152.893 68.242C153.217 68.89 153.379 69.652 153.379 70.528V71.482H146.773C146.797 72.574 147.073 73.408 147.601 73.984C148.141 74.548 148.891 74.83 149.851 74.83C150.463 74.83 151.003 74.776 151.471 74.668C151.951 74.548 152.443 74.38 152.947 74.164V75.55C152.455 75.766 151.969 75.922 151.489 76.018C151.009 76.126 150.439 76.18 149.779 76.18C148.867 76.18 148.057 75.994 147.349 75.622C146.653 75.25 146.107 74.698 145.711 73.966C145.327 73.222 145.135 72.316 145.135 71.248C145.135 70.192 145.309 69.286 145.657 68.53C146.017 67.774 146.515 67.192 147.151 66.784C147.799 66.376 148.549 66.172 149.401 66.172ZM149.383 67.468C148.627 67.468 148.027 67.714 147.583 68.206C147.151 68.686 146.893 69.358 146.809 70.222H151.723C151.711 69.406 151.519 68.746 151.147 68.242C150.775 67.726 150.187 67.468 149.383 67.468ZM157.419 66.352V70.366H162.657V66.352H164.241V76H162.657V71.698H157.419V76H155.835V66.352H157.419ZM171.166 76.18C170.314 76.18 169.552 76.006 168.88 75.658C168.22 75.31 167.698 74.77 167.314 74.038C166.942 73.306 166.756 72.37 166.756 71.23C166.756 70.042 166.954 69.076 167.35 68.332C167.746 67.588 168.28 67.042 168.952 66.694C169.636 66.346 170.41 66.172 171.274 66.172C171.766 66.172 172.24 66.226 172.696 66.334C173.152 66.43 173.524 66.55 173.812 66.694L173.326 68.008C173.038 67.9 172.702 67.798 172.318 67.702C171.934 67.606 171.574 67.558 171.238 67.558C169.342 67.558 168.394 68.776 168.394 71.212C168.394 72.376 168.622 73.27 169.078 73.894C169.546 74.506 170.236 74.812 171.148 74.812C171.676 74.812 172.138 74.758 172.534 74.65C172.942 74.542 173.314 74.41 173.65 74.254V75.658C173.326 75.826 172.966 75.952 172.57 76.036C172.186 76.132 171.718 76.18 171.166 76.18ZM181.65 66.352H183.378L179.256 70.996L183.72 76H181.884L177.528 71.104V76H175.944V66.352H177.528V71.032L181.65 66.352ZM189.125 66.19C190.301 66.19 191.171 66.448 191.735 66.964C192.299 67.48 192.581 68.302 192.581 69.43V76H191.429L191.123 74.632H191.051C190.631 75.16 190.187 75.55 189.719 75.802C189.263 76.054 188.627 76.18 187.811 76.18C186.935 76.18 186.209 75.952 185.633 75.496C185.057 75.028 184.769 74.302 184.769 73.318C184.769 72.358 185.147 71.62 185.903 71.104C186.659 70.576 187.823 70.288 189.395 70.24L191.033 70.186V69.61C191.033 68.806 190.859 68.248 190.511 67.936C190.163 67.624 189.671 67.468 189.035 67.468C188.531 67.468 188.051 67.546 187.595 67.702C187.139 67.846 186.713 68.014 186.317 68.206L185.831 67.018C186.251 66.79 186.749 66.598 187.325 66.442C187.901 66.274 188.501 66.19 189.125 66.19ZM189.593 71.338C188.393 71.386 187.559 71.578 187.091 71.914C186.635 72.25 186.407 72.724 186.407 73.336C186.407 73.876 186.569 74.272 186.893 74.524C187.229 74.776 187.655 74.902 188.171 74.902C188.987 74.902 189.665 74.68 190.205 74.236C190.745 73.78 191.015 73.084 191.015 72.148V71.284L189.593 71.338ZM196.155 76H194.319L197.073 71.95C196.701 71.854 196.341 71.704 195.993 71.5C195.645 71.284 195.363 70.99 195.147 70.618C194.931 70.234 194.823 69.76 194.823 69.196C194.823 68.272 195.135 67.57 195.759 67.09C196.383 66.598 197.211 66.352 198.243 66.352H202.563V76H200.979V72.166H198.639L196.155 76ZM196.353 69.214C196.353 69.766 196.557 70.18 196.965 70.456C197.385 70.72 197.967 70.852 198.711 70.852H200.979V67.666H198.405C197.673 67.666 197.145 67.81 196.821 68.098C196.509 68.386 196.353 68.758 196.353 69.214ZM211.786 72.238C211.786 72.382 211.78 72.598 211.768 72.886C211.756 73.174 211.738 73.462 211.714 73.75C211.702 74.038 211.69 74.266 211.678 74.434L216.844 66.352H218.788V76H217.312V70.312C217.312 70.12 217.312 69.868 217.312 69.556C217.324 69.244 217.336 68.938 217.348 68.638C217.36 68.326 217.372 68.092 217.384 67.936L212.254 76H210.292V66.352H211.786V72.238ZM223.442 66.352V70.366H228.68V66.352H230.264V76H228.68V71.698H223.442V76H221.858V66.352H223.442ZM240.483 66.352V74.668H241.887V79.348H240.357V76H233.643V79.348H232.131V74.668H232.905C233.733 73.528 234.351 72.232 234.759 70.78C235.179 69.316 235.395 67.84 235.407 66.352H240.483ZM236.811 67.594C236.763 68.41 236.637 69.256 236.433 70.132C236.229 70.996 235.965 71.824 235.641 72.616C235.329 73.408 234.963 74.092 234.543 74.668H238.953V67.594H236.811ZM247.504 66.172C248.332 66.172 249.04 66.352 249.628 66.712C250.228 67.072 250.684 67.582 250.996 68.242C251.32 68.89 251.482 69.652 251.482 70.528V71.482H244.876C244.9 72.574 245.176 73.408 245.704 73.984C246.244 74.548 246.994 74.83 247.954 74.83C248.566 74.83 249.106 74.776 249.574 74.668C250.054 74.548 250.546 74.38 251.05 74.164V75.55C250.558 75.766 250.072 75.922 249.592 76.018C249.112 76.126 248.542 76.18 247.882 76.18C246.97 76.18 246.16 75.994 245.452 75.622C244.756 75.25 244.21 74.698 243.814 73.966C243.43 73.222 243.238 72.316 243.238 71.248C243.238 70.192 243.412 69.286 243.76 68.53C244.12 67.774 244.618 67.192 245.254 66.784C245.902 66.376 246.652 66.172 247.504 66.172ZM247.486 67.468C246.73 67.468 246.13 67.714 245.686 68.206C245.254 68.686 244.996 69.358 244.912 70.222H249.826C249.814 69.406 249.622 68.746 249.25 68.242C248.878 67.726 248.29 67.468 247.486 67.468ZM261.75 62.356C261.666 63.256 261.36 63.94 260.832 64.408C260.316 64.864 259.488 65.092 258.348 65.092C257.172 65.092 256.338 64.864 255.846 64.408C255.366 63.952 255.096 63.268 255.036 62.356H256.512C256.572 63.004 256.74 63.442 257.016 63.67C257.304 63.886 257.76 63.994 258.384 63.994C258.936 63.994 259.368 63.88 259.68 63.652C260.004 63.412 260.196 62.98 260.256 62.356H261.75ZM255.432 72.238C255.432 72.382 255.426 72.598 255.414 72.886C255.402 73.174 255.384 73.462 255.36 73.75C255.348 74.038 255.336 74.266 255.324 74.434L260.49 66.352H262.434V76H260.958V70.312C260.958 70.12 260.958 69.868 260.958 69.556C260.97 69.244 260.982 68.938 260.994 68.638C261.006 68.326 261.018 68.092 261.03 67.936L255.9 76H253.938V66.352H255.432V72.238ZM271.211 66.352H272.939L268.817 70.996L273.281 76H271.445L267.089 71.104V76H265.505V66.352H267.089V71.032L271.211 66.352ZM278.686 66.19C279.862 66.19 280.732 66.448 281.296 66.964C281.86 67.48 282.142 68.302 282.142 69.43V76H280.99L280.684 74.632H280.612C280.192 75.16 279.748 75.55 279.28 75.802C278.824 76.054 278.188 76.18 277.372 76.18C276.496 76.18 275.77 75.952 275.194 75.496C274.618 75.028 274.33 74.302 274.33 73.318C274.33 72.358 274.708 71.62 275.464 71.104C276.22 70.576 277.384 70.288 278.956 70.24L280.594 70.186V69.61C280.594 68.806 280.42 68.248 280.072 67.936C279.724 67.624 279.232 67.468 278.596 67.468C278.092 67.468 277.612 67.546 277.156 67.702C276.7 67.846 276.274 68.014 275.878 68.206L275.392 67.018C275.812 66.79 276.31 66.598 276.886 66.442C277.462 66.274 278.062 66.19 278.686 66.19ZM279.154 71.338C277.954 71.386 277.12 71.578 276.652 71.914C276.196 72.25 275.968 72.724 275.968 73.336C275.968 73.876 276.13 74.272 276.454 74.524C276.79 74.776 277.216 74.902 277.732 74.902C278.548 74.902 279.226 74.68 279.766 74.236C280.306 73.78 280.576 73.084 280.576 72.148V71.284L279.154 71.338Z" fill="#1F1F1F"></path> </svg> 