<?xml version="1.0" encoding="UTF-8"?> <svg xmlns="http://www.w3.org/2000/svg" width="347" height="104" viewBox="0 0 347 104" fill="none"> <path d="M347 50C347 22.3858 324.614 0 297 0H50C22.3858 0 0 22.3858 0 50V53.6512C0 81.2654 22.3858 103.651 50 103.651H301.5H347V50Z" fill="white"></path> <path d="M89.432 36.648C88.04 36.648 86.976 37.168 86.24 38.208C85.504 39.248 85.136 40.672 85.136 42.48C85.136 44.304 85.472 45.72 86.144 46.728C86.832 47.72 87.928 48.216 89.432 48.216C90.136 48.216 90.832 48.136 91.52 47.976C92.224 47.816 92.984 47.592 93.8 47.304V50.352C93.048 50.656 92.304 50.88 91.568 51.024C90.832 51.168 90.008 51.24 89.096 51.24C87.336 51.24 85.88 50.88 84.728 50.16C83.592 49.424 82.752 48.4 82.208 47.088C81.664 45.76 81.392 44.216 81.392 42.456C81.392 40.728 81.704 39.2 82.328 37.872C82.952 36.544 83.856 35.504 85.04 34.752C86.24 34 87.704 33.624 89.432 33.624C90.28 33.624 91.128 33.736 91.976 33.96C92.84 34.168 93.664 34.456 94.448 34.824L93.272 37.776C92.632 37.472 91.984 37.208 91.328 36.984C90.688 36.76 90.056 36.648 89.432 36.648ZM100.729 36.48C100.729 37.12 100.705 37.736 100.657 38.328C100.625 38.92 100.593 39.336 100.561 39.576H100.753C101.169 38.904 101.705 38.416 102.361 38.112C103.017 37.808 103.745 37.656 104.545 37.656C105.969 37.656 107.105 38.04 107.953 38.808C108.817 39.56 109.249 40.776 109.249 42.456V51H105.673V43.344C105.673 41.456 104.969 40.512 103.561 40.512C102.489 40.512 101.745 40.888 101.329 41.64C100.929 42.376 100.729 43.44 100.729 44.832V51H97.1533V32.76H100.729V36.48ZM124.831 44.424C124.831 46.6 124.255 48.28 123.103 49.464C121.967 50.648 120.415 51.24 118.447 51.24C117.231 51.24 116.143 50.976 115.183 50.448C114.239 49.92 113.495 49.152 112.951 48.144C112.407 47.12 112.135 45.88 112.135 44.424C112.135 42.248 112.703 40.576 113.839 39.408C114.975 38.24 116.535 37.656 118.519 37.656C119.751 37.656 120.839 37.92 121.783 38.448C122.727 38.976 123.471 39.744 124.015 40.752C124.559 41.744 124.831 42.968 124.831 44.424ZM115.783 44.424C115.783 45.72 115.991 46.704 116.407 47.376C116.839 48.032 117.535 48.36 118.495 48.36C119.439 48.36 120.119 48.032 120.535 47.376C120.967 46.704 121.183 45.72 121.183 44.424C121.183 43.128 120.967 42.16 120.535 41.52C120.119 40.864 119.431 40.536 118.471 40.536C117.527 40.536 116.839 40.864 116.407 41.52C115.991 42.16 115.783 43.128 115.783 44.424ZM133.114 51.24C131.162 51.24 129.65 50.704 128.578 49.632C127.522 48.544 126.994 46.84 126.994 44.52C126.994 42.92 127.266 41.616 127.81 40.608C128.354 39.6 129.106 38.856 130.066 38.376C131.042 37.896 132.162 37.656 133.426 37.656C134.322 37.656 135.098 37.744 135.754 37.92C136.426 38.096 137.01 38.304 137.506 38.544L136.45 41.304C135.89 41.08 135.362 40.896 134.866 40.752C134.386 40.608 133.906 40.536 133.426 40.536C131.57 40.536 130.642 41.856 130.642 44.496C130.642 45.808 130.882 46.776 131.362 47.4C131.858 48.024 132.546 48.336 133.426 48.336C134.178 48.336 134.842 48.24 135.418 48.048C135.994 47.84 136.554 47.56 137.098 47.208V50.256C136.554 50.608 135.978 50.856 135.37 51C134.778 51.16 134.026 51.24 133.114 51.24ZM152.018 44.424C152.018 46.6 151.442 48.28 150.29 49.464C149.154 50.648 147.602 51.24 145.634 51.24C144.418 51.24 143.33 50.976 142.37 50.448C141.426 49.92 140.682 49.152 140.138 48.144C139.594 47.12 139.322 45.88 139.322 44.424C139.322 42.248 139.89 40.576 141.026 39.408C142.162 38.24 143.722 37.656 145.706 37.656C146.938 37.656 148.026 37.92 148.97 38.448C149.914 38.976 150.658 39.744 151.202 40.752C151.746 41.744 152.018 42.968 152.018 44.424ZM142.97 44.424C142.97 45.72 143.178 46.704 143.594 47.376C144.026 48.032 144.722 48.36 145.682 48.36C146.626 48.36 147.306 48.032 147.722 47.376C148.154 46.704 148.37 45.72 148.37 44.424C148.37 43.128 148.154 42.16 147.722 41.52C147.306 40.864 146.618 40.536 145.658 40.536C144.714 40.536 144.026 40.864 143.594 41.52C143.178 42.16 142.97 43.128 142.97 44.424ZM158.55 51H154.974V32.76H158.55V51ZM167.662 37.632C169.422 37.632 170.766 38.016 171.694 38.784C172.638 39.536 173.11 40.696 173.11 42.264V51H170.614L169.918 49.224H169.822C169.262 49.928 168.67 50.44 168.046 50.76C167.422 51.08 166.566 51.24 165.478 51.24C164.31 51.24 163.342 50.904 162.574 50.232C161.806 49.544 161.422 48.496 161.422 47.088C161.422 45.696 161.91 44.672 162.886 44.016C163.862 43.344 165.326 42.976 167.278 42.912L169.558 42.84V42.264C169.558 41.576 169.374 41.072 169.006 40.752C168.654 40.432 168.158 40.272 167.518 40.272C166.878 40.272 166.254 40.368 165.646 40.56C165.038 40.736 164.43 40.96 163.822 41.232L162.646 38.808C163.35 38.44 164.126 38.152 164.974 37.944C165.838 37.736 166.734 37.632 167.662 37.632ZM168.166 44.976C167.014 45.008 166.214 45.216 165.766 45.6C165.318 45.984 165.094 46.488 165.094 47.112C165.094 47.656 165.254 48.048 165.574 48.288C165.894 48.512 166.31 48.624 166.822 48.624C167.59 48.624 168.238 48.4 168.766 47.952C169.294 47.488 169.558 46.84 169.558 46.008V44.928L168.166 44.976ZM182.29 48.384C182.69 48.384 183.074 48.344 183.442 48.264C183.81 48.184 184.178 48.088 184.546 47.976V50.64C184.162 50.8 183.682 50.936 183.106 51.048C182.546 51.176 181.93 51.24 181.258 51.24C180.474 51.24 179.77 51.112 179.146 50.856C178.538 50.6 178.05 50.16 177.682 49.536C177.33 48.896 177.154 48.016 177.154 46.896V40.584H175.45V39.072L177.418 37.872L178.45 35.112H180.73V37.896H184.402V40.584H180.73V46.896C180.73 47.392 180.874 47.768 181.162 48.024C181.45 48.264 181.826 48.384 182.29 48.384ZM192.577 37.656C194.385 37.656 195.817 38.176 196.873 39.216C197.929 40.24 198.457 41.704 198.457 43.608V45.336H190.009C190.041 46.344 190.337 47.136 190.897 47.712C191.473 48.288 192.265 48.576 193.273 48.576C194.121 48.576 194.889 48.496 195.577 48.336C196.265 48.16 196.977 47.896 197.713 47.544V50.304C197.073 50.624 196.393 50.856 195.673 51C194.969 51.16 194.113 51.24 193.105 51.24C191.793 51.24 190.633 51 189.625 50.52C188.617 50.024 187.825 49.28 187.249 48.288C186.673 47.296 186.385 46.048 186.385 44.544C186.385 43.008 186.641 41.736 187.153 40.728C187.681 39.704 188.409 38.936 189.337 38.424C190.265 37.912 191.345 37.656 192.577 37.656ZM192.601 40.2C191.913 40.2 191.337 40.424 190.873 40.872C190.425 41.32 190.161 42.016 190.081 42.96H195.097C195.081 42.16 194.873 41.504 194.473 40.992C194.073 40.464 193.449 40.2 192.601 40.2ZM214.887 37.656C216.359 37.656 217.551 38.232 218.463 39.384C219.375 40.52 219.831 42.2 219.831 44.424C219.831 46.648 219.359 48.344 218.415 49.512C217.471 50.664 216.263 51.24 214.791 51.24C213.847 51.24 213.095 51.072 212.535 50.736C211.975 50.384 211.519 49.992 211.167 49.56H210.975C211.103 50.232 211.167 50.872 211.167 51.48V56.76H207.591V37.896H210.495L210.999 39.6H211.167C211.519 39.072 211.991 38.616 212.583 38.232C213.175 37.848 213.943 37.656 214.887 37.656ZM213.735 40.512C212.807 40.512 212.151 40.8 211.767 41.376C211.399 41.952 211.199 42.832 211.167 44.016V44.4C211.167 45.664 211.351 46.64 211.719 47.328C212.103 48 212.791 48.336 213.783 48.336C214.599 48.336 215.199 48 215.583 47.328C215.983 46.64 216.183 45.656 216.183 44.376C216.183 41.8 215.367 40.512 213.735 40.512ZM224.578 32.76C225.106 32.76 225.562 32.888 225.946 33.144C226.33 33.384 226.522 33.84 226.522 34.512C226.522 35.168 226.33 35.624 225.946 35.88C225.562 36.136 225.106 36.264 224.578 36.264C224.034 36.264 223.57 36.136 223.186 35.88C222.818 35.624 222.634 35.168 222.634 34.512C222.634 33.84 222.818 33.384 223.186 33.144C223.57 32.888 224.034 32.76 224.578 32.76ZM226.354 37.896V51H222.778V37.896H226.354ZM235.491 37.656C237.299 37.656 238.731 38.176 239.787 39.216C240.843 40.24 241.371 41.704 241.371 43.608V45.336H232.923C232.955 46.344 233.251 47.136 233.811 47.712C234.387 48.288 235.179 48.576 236.187 48.576C237.035 48.576 237.803 48.496 238.491 48.336C239.179 48.16 239.891 47.896 240.627 47.544V50.304C239.987 50.624 239.307 50.856 238.587 51C237.883 51.16 237.027 51.24 236.019 51.24C234.707 51.24 233.547 51 232.539 50.52C231.531 50.024 230.739 49.28 230.163 48.288C229.587 47.296 229.299 46.048 229.299 44.544C229.299 43.008 229.555 41.736 230.067 40.728C230.595 39.704 231.323 38.936 232.251 38.424C233.179 37.912 234.259 37.656 235.491 37.656ZM235.515 40.2C234.827 40.2 234.251 40.424 233.787 40.872C233.339 41.32 233.075 42.016 232.995 42.96H238.011C237.995 42.16 237.787 41.504 237.387 40.992C236.987 40.464 236.363 40.2 235.515 40.2Z" fill="#1F1F1F"></path> <path d="M96.902 76H81.746V63.148H83.366V74.56H88.496V63.148H90.116V74.56H95.264V63.148H96.902V76ZM108.586 71.158C108.586 72.754 108.178 73.99 107.362 74.866C106.558 75.742 105.466 76.18 104.086 76.18C103.234 76.18 102.472 75.988 101.8 75.604C101.14 75.208 100.618 74.638 100.234 73.894C99.85 73.138 99.658 72.226 99.658 71.158C99.658 69.562 100.06 68.332 100.864 67.468C101.668 66.604 102.76 66.172 104.14 66.172C105.016 66.172 105.784 66.37 106.444 66.766C107.116 67.15 107.638 67.714 108.01 68.458C108.394 69.19 108.586 70.09 108.586 71.158ZM101.296 71.158C101.296 72.298 101.518 73.204 101.962 73.876C102.418 74.536 103.138 74.866 104.122 74.866C105.094 74.866 105.808 74.536 106.264 73.876C106.72 73.204 106.948 72.298 106.948 71.158C106.948 70.018 106.72 69.124 106.264 68.476C105.808 67.828 105.088 67.504 104.104 67.504C103.12 67.504 102.406 67.828 101.962 68.476C101.518 69.124 101.296 70.018 101.296 71.158ZM116.802 66.352H118.53L114.408 70.996L118.872 76H117.036L112.68 71.104V76H111.096V66.352H112.68V71.032L116.802 66.352ZM128.66 71.158C128.66 72.754 128.252 73.99 127.436 74.866C126.632 75.742 125.54 76.18 124.16 76.18C123.308 76.18 122.546 75.988 121.874 75.604C121.214 75.208 120.692 74.638 120.308 73.894C119.924 73.138 119.732 72.226 119.732 71.158C119.732 69.562 120.134 68.332 120.938 67.468C121.742 66.604 122.834 66.172 124.214 66.172C125.09 66.172 125.858 66.37 126.518 66.766C127.19 67.15 127.712 67.714 128.084 68.458C128.468 69.19 128.66 70.09 128.66 71.158ZM121.37 71.158C121.37 72.298 121.592 73.204 122.036 73.876C122.492 74.536 123.212 74.866 124.196 74.866C125.168 74.866 125.882 74.536 126.338 73.876C126.794 73.204 127.022 72.298 127.022 71.158C127.022 70.018 126.794 69.124 126.338 68.476C125.882 67.828 125.162 67.504 124.178 67.504C123.194 67.504 122.48 67.828 122.036 68.476C121.592 69.124 121.37 70.018 121.37 71.158ZM138.515 76H136.913V67.666H134.069C133.913 69.694 133.697 71.332 133.421 72.58C133.145 73.816 132.779 74.716 132.323 75.28C131.867 75.844 131.291 76.126 130.595 76.126C130.439 76.126 130.283 76.114 130.127 76.09C129.983 76.078 129.863 76.048 129.767 76V74.812C129.839 74.836 129.917 74.854 130.001 74.866C130.085 74.878 130.169 74.884 130.253 74.884C130.901 74.884 131.417 74.194 131.801 72.814C132.197 71.434 132.497 69.28 132.701 66.352H138.515V76ZM145.231 66.19C146.407 66.19 147.277 66.448 147.841 66.964C148.405 67.48 148.687 68.302 148.687 69.43V76H147.535L147.229 74.632H147.157C146.737 75.16 146.293 75.55 145.825 75.802C145.369 76.054 144.733 76.18 143.917 76.18C143.041 76.18 142.315 75.952 141.739 75.496C141.163 75.028 140.875 74.302 140.875 73.318C140.875 72.358 141.253 71.62 142.009 71.104C142.765 70.576 143.929 70.288 145.501 70.24L147.139 70.186V69.61C147.139 68.806 146.965 68.248 146.617 67.936C146.269 67.624 145.777 67.468 145.141 67.468C144.637 67.468 144.157 67.546 143.701 67.702C143.245 67.846 142.819 68.014 142.423 68.206L141.937 67.018C142.357 66.79 142.855 66.598 143.431 66.442C144.007 66.274 144.607 66.19 145.231 66.19ZM145.699 71.338C144.499 71.386 143.665 71.578 143.197 71.914C142.741 72.25 142.513 72.724 142.513 73.336C142.513 73.876 142.675 74.272 142.999 74.524C143.335 74.776 143.761 74.902 144.277 74.902C145.093 74.902 145.771 74.68 146.311 74.236C146.851 73.78 147.121 73.084 147.121 72.148V71.284L145.699 71.338ZM158.831 66.352V74.668H160.235V79.348H158.705V76H151.991V79.348H150.479V74.668H151.253C152.081 73.528 152.699 72.232 153.107 70.78C153.527 69.316 153.743 67.84 153.755 66.352H158.831ZM155.159 67.594C155.111 68.41 154.985 69.256 154.781 70.132C154.577 70.996 154.313 71.824 153.989 72.616C153.677 73.408 153.311 74.092 152.891 74.668H157.301V67.594H155.159ZM163.71 66.352V70.366H168.948V66.352H170.532V76H168.948V71.698H163.71V76H162.126V66.352H163.71ZM173.587 76V66.352H175.171V70.312H177.673C178.921 70.312 179.845 70.54 180.445 70.996C181.045 71.452 181.345 72.136 181.345 73.048C181.345 73.948 181.051 74.668 180.463 75.208C179.875 75.736 178.921 76 177.601 76H173.587ZM182.947 76V66.352H184.531V76H182.947ZM177.457 74.722C178.141 74.722 178.699 74.608 179.131 74.38C179.563 74.14 179.779 73.726 179.779 73.138C179.779 72.55 179.581 72.154 179.185 71.95C178.789 71.734 178.219 71.626 177.475 71.626H175.171V74.722H177.457ZM195.408 62.356C195.324 63.256 195.018 63.94 194.49 64.408C193.974 64.864 193.146 65.092 192.006 65.092C190.83 65.092 189.996 64.864 189.504 64.408C189.024 63.952 188.754 63.268 188.694 62.356H190.17C190.23 63.004 190.398 63.442 190.674 63.67C190.962 63.886 191.418 63.994 192.042 63.994C192.594 63.994 193.026 63.88 193.338 63.652C193.662 63.412 193.854 62.98 193.914 62.356H195.408ZM189.09 72.238C189.09 72.382 189.084 72.598 189.072 72.886C189.06 73.174 189.042 73.462 189.018 73.75C189.006 74.038 188.994 74.266 188.982 74.434L194.148 66.352H196.092V76H194.616V70.312C194.616 70.12 194.616 69.868 194.616 69.556C194.628 69.244 194.64 68.938 194.652 68.638C194.664 68.326 194.676 68.092 194.688 67.936L189.558 76H187.596V66.352H189.09V72.238ZM211.993 66.352V76H210.409V67.702H205.423V76H203.839V66.352H211.993ZM216.565 72.238C216.565 72.382 216.559 72.598 216.547 72.886C216.535 73.174 216.517 73.462 216.493 73.75C216.481 74.038 216.469 74.266 216.457 74.434L221.623 66.352H223.567V76H222.091V70.312C222.091 70.12 222.091 69.868 222.091 69.556C222.103 69.244 222.115 68.938 222.127 68.638C222.139 68.326 222.151 68.092 222.163 67.936L217.033 76H215.071V66.352H216.565V72.238ZM231.227 66.172C232.415 66.172 233.369 66.586 234.089 67.414C234.821 68.242 235.187 69.49 235.187 71.158C235.187 72.802 234.821 74.05 234.089 74.902C233.369 75.754 232.409 76.18 231.209 76.18C230.465 76.18 229.847 76.042 229.355 75.766C228.875 75.478 228.497 75.148 228.221 74.776H228.113C228.137 74.98 228.161 75.238 228.185 75.55C228.209 75.862 228.221 76.132 228.221 76.36V80.32H226.637V66.352H227.933L228.149 67.666H228.221C228.509 67.246 228.887 66.892 229.355 66.604C229.823 66.316 230.447 66.172 231.227 66.172ZM230.939 67.504C229.955 67.504 229.259 67.78 228.851 68.332C228.455 68.884 228.245 69.724 228.221 70.852V71.158C228.221 72.346 228.413 73.264 228.797 73.912C229.193 74.548 229.919 74.866 230.975 74.866C231.563 74.866 232.043 74.704 232.415 74.38C232.799 74.056 233.081 73.618 233.261 73.066C233.453 72.502 233.549 71.86 233.549 71.14C233.549 70.036 233.333 69.154 232.901 68.494C232.481 67.834 231.827 67.504 230.939 67.504ZM246.1 71.158C246.1 72.754 245.692 73.99 244.876 74.866C244.072 75.742 242.98 76.18 241.6 76.18C240.748 76.18 239.986 75.988 239.314 75.604C238.654 75.208 238.132 74.638 237.748 73.894C237.364 73.138 237.172 72.226 237.172 71.158C237.172 69.562 237.574 68.332 238.378 67.468C239.182 66.604 240.274 66.172 241.654 66.172C242.53 66.172 243.298 66.37 243.958 66.766C244.63 67.15 245.152 67.714 245.524 68.458C245.908 69.19 246.1 70.09 246.1 71.158ZM238.81 71.158C238.81 72.298 239.032 73.204 239.476 73.876C239.932 74.536 240.652 74.866 241.636 74.866C242.608 74.866 243.322 74.536 243.778 73.876C244.234 73.204 244.462 72.298 244.462 71.158C244.462 70.018 244.234 69.124 243.778 68.476C243.322 67.828 242.602 67.504 241.618 67.504C240.634 67.504 239.92 67.828 239.476 68.476C239.032 69.124 238.81 70.018 238.81 71.158ZM254.496 66.352V67.684H250.194V76H248.61V66.352H254.496Z" fill="#1F1F1F"></path> </svg> 