<?xml version="1.0" encoding="UTF-8"?> <svg xmlns="http://www.w3.org/2000/svg" width="233" height="33" viewBox="0 0 233 33" fill="none"> <g clip-path="url(#clip0)"> <path d="M232.604 13.0597C232.604 9.80636 229.051 1.22766 218.989 1.22766C208.926 1.22766 205.374 9.80636 205.374 13.0597V24.6404C205.374 26.5544 207.475 27.7466 209.103 26.7375C212.882 24.3891 217.441 19.5916 218.989 10.9914C220.537 19.5916 225.096 24.3891 228.875 26.7375C230.499 27.7466 232.604 26.5544 232.604 24.6404V13.0597Z" fill="#1CC1BB"></path> <path d="M151.494 0.929596H150.944C147.032 0.929596 143.881 2.17564 141.431 4.73956C138.981 7.23524 137.753 10.406 137.753 14.1837C137.753 18.1624 138.978 21.3655 141.46 23.7965C143.943 26.1917 147.093 27.4054 150.944 27.4054H151.494C155.345 27.4054 158.499 26.1917 160.978 23.7965C163.46 21.3691 164.685 18.166 164.685 14.1837C164.685 10.406 163.46 7.23524 161.007 4.73956C158.557 2.17564 155.402 0.929596 151.494 0.929596ZM155.884 18.3958C154.67 19.491 153.146 19.904 151.454 19.904H150.98C149.288 19.904 147.765 19.4946 146.551 18.3958C145.336 17.3006 144.859 15.9648 144.859 14.1478C144.859 12.2661 145.34 11.0308 146.522 9.97152C147.679 8.90861 149.173 8.39511 150.951 8.39511H151.483C153.261 8.39511 154.756 8.90861 155.913 9.97152C157.098 11.0344 157.576 12.2661 157.576 14.1478C157.576 15.9648 157.095 17.3006 155.884 18.3958Z" fill="#1CC1BB"></path> <path d="M63.0837 2.11462C62.5808 2.7143 62.3185 3.48635 62.3509 4.26917L62.3437 24.1485C62.3437 24.9241 62.5916 25.6782 63.0873 26.2707C63.3568 26.558 63.6837 26.7842 64.0501 26.9278C64.4165 27.0751 64.7147 27.1002 65.1925 27.1002C65.9936 27.1002 66.6259 26.9566 67.1684 26.4682L83.0398 10.6035V24.1449C83.0111 24.9205 83.2769 25.6782 83.7799 26.2671C84.0493 26.5544 84.3762 26.7806 84.7427 26.9278C85.1055 27.0751 85.4109 27.111 85.8923 27.111C86.3736 27.111 86.7257 27.0715 87.0957 26.9243C87.4658 26.777 87.7963 26.5544 88.0729 26.2671C88.5902 25.6854 88.8632 24.9241 88.8309 24.1449V4.26917C88.8345 3.4253 88.5866 2.72507 88.0657 2.13975C87.5196 1.62625 86.9017 1.22766 86.0862 1.22766C85.2708 1.22766 84.5199 1.40362 83.9595 1.9638L68.1311 17.7854V4.26917C68.1311 3.38939 67.8976 2.72866 67.3911 2.13975C67.1145 1.8453 66.7768 1.61548 66.4032 1.46466C66.0296 1.31384 65.6703 1.23125 65.1817 1.23125C64.6932 1.23125 64.4058 1.31384 64.0429 1.45748C63.6801 1.60112 63.3532 1.82734 63.0837 2.11462Z" fill="#423783"></path> <path d="M169.643 26.2707C169.92 26.558 170.25 26.7842 170.62 26.9278C170.99 27.0751 171.342 27.1146 171.824 27.1146C172.305 27.1146 172.61 27.0787 172.973 26.9314C173.34 26.7842 173.666 26.5616 173.936 26.2707C174.439 25.6818 174.705 24.9241 174.676 24.1485V10.6071L183.151 19.0781C184.189 20.1159 185.877 20.1159 186.915 19.0781L195.39 10.6071V24.1485C195.361 24.9241 195.624 25.6818 196.127 26.2707C196.396 26.5616 196.726 26.7842 197.089 26.9314C197.456 27.0787 197.761 27.1146 198.242 27.1146C198.72 27.1146 199.076 27.0751 199.446 26.9278C199.812 26.7842 200.146 26.558 200.42 26.2707C200.937 25.689 201.21 24.9277 201.181 24.1485V4.26917C201.181 3.4253 200.933 2.72507 200.416 2.13975C199.87 1.62984 199.252 1.22766 198.436 1.22766C197.617 1.22766 196.867 1.40721 196.31 1.9638L185.033 13.2357L173.756 1.9638C173.196 1.40721 172.445 1.22766 171.63 1.22766C170.814 1.22766 170.193 1.62984 169.65 2.13975C169.129 2.72507 168.881 3.4253 168.885 4.26917V24.1485C168.856 24.9277 169.126 25.689 169.643 26.2707Z" fill="#423783"></path> <path d="M97.255 20.0189C96.188 20.0189 95.3187 20.3529 94.6828 21.0603C94.0828 21.7318 93.7487 22.5721 93.7487 23.5775C93.7487 24.583 94.0505 25.4232 94.6505 26.0947C95.2504 26.7663 96.1198 27.1002 97.255 27.1002C98.3902 27.1002 99.2596 26.7663 99.8919 26.0947C100.528 25.4232 100.826 24.583 100.826 23.5775C100.826 22.6044 100.492 21.7641 99.8559 21.0603C99.2272 20.3565 98.3579 20.0189 97.255 20.0189Z" fill="#423783"></path> <path d="M31.9335 2.11822C31.4234 2.69995 31.1504 3.54022 31.1504 4.36254V8.51723C31.1504 12.8299 32.0341 15.8068 33.8052 17.5161C36.2229 19.9112 39.819 20.9705 44.4497 20.9705C48.2613 20.9705 50.1689 20.1159 52.3136 19.2289V24.188C52.3136 25.0426 52.5471 25.75 53.0572 26.2959C53.5673 26.8417 54.2894 27.1038 55.2091 27.1038C56.1611 27.1038 56.9586 26.8453 57.4328 26.2959C57.9429 25.75 58.1441 24.8487 58.1441 24.188V4.36254C58.1441 3.64436 57.8567 2.63172 57.343 2.0859C56.8329 1.54008 56.118 1.23126 55.1983 1.23126C54.2463 1.23126 53.5314 1.50417 53.0536 2.0859C52.5758 2.66763 52.3064 3.47559 52.3064 4.36254V13.2393C50.7401 14.7798 48.5307 15.7027 44.8879 15.7027C43.221 15.7027 40.1351 15.2574 38.2635 13.5122C37.2755 12.5893 36.9809 10.7436 36.9809 8.212V4.36254C36.9809 3.54022 36.7295 2.69995 36.2193 2.11822C35.7092 1.53649 34.9871 1.23126 34.0711 1.23126C33.1514 1.22767 32.4437 1.53649 31.9335 2.11822Z" fill="#423783"></path> <path d="M0.747231 2.05716C0.240695 2.63171 0 3.33194 0 4.19376V4.22608C0 8.40231 1.05259 11.4007 3.15777 14.0831C5.29528 16.7691 8.73686 18.1121 13.5436 18.1121C16.0152 18.1121 18.1527 17.71 19.9561 16.9379C20.1573 16.8374 20.6243 16.6363 20.8255 16.5681C19.622 20.6294 16.2487 21.6348 12.8107 21.6707C9.3368 21.7031 7.60164 20.9669 5.56472 19.4551C3.82956 18.1804 2.45724 18.7154 1.62379 19.825C0.653827 21.1357 0.855005 22.6116 2.5255 23.9869C4.92885 26.0014 8.80152 27.1074 12.843 27.1074C15.3146 27.1074 18.1886 26.7088 19.9597 25.9368C21.7631 25.1647 23.1678 24.0587 24.1341 22.6475C25.1041 21.2362 25.837 19.6922 26.2716 18.0152C26.7063 16.3382 26.9614 14.4171 26.9614 12.338V4.36253C26.9614 3.45762 26.7063 2.70712 26.171 2.10025C25.6717 1.49698 24.9352 1.22766 23.9653 1.22766C23.0312 1.22766 22.2948 1.5293 21.7954 2.10025C21.2961 2.70353 21.1488 3.44326 21.1488 4.34817V4.51694C21.1488 10.5928 18.3108 12.6719 13.3352 12.6719C8.35965 12.6719 5.79104 10.1224 5.79104 4.44871V4.19376C5.79104 3.33194 5.53598 2.59939 5.02944 2.05716C4.49057 1.48262 3.79004 1.22766 2.83804 1.22766C1.9543 1.22766 1.22144 1.48262 0.747231 2.05716Z" fill="#423783"></path> <path d="M135.673 31.8043C136.172 31.3411 136.449 30.6839 136.431 30.0053V25.3766C136.431 23.8468 135.321 21.6887 132.734 21.6241V5.45416C132.734 3.14161 131.031 1.26715 128.718 1.26715H115.972C113.637 1.26715 111.826 3.14879 111.769 5.37516C111.646 9.84944 110.874 14.0149 109.947 17.3365C109.466 19.0673 108.956 20.5109 108.503 21.6205C108.359 21.6205 108.23 21.6205 108.122 21.6205C105.446 21.6205 104.314 23.8289 104.314 25.3766V30.0053C104.293 30.6875 104.569 31.3411 105.072 31.8043C105.776 32.3034 106.29 32.4973 107.199 32.4973C108.108 32.4973 108.79 32.2927 109.329 31.8043C109.843 31.3483 110.127 30.6911 110.105 30.0053V27.1074H130.643V30.0053C130.622 30.6911 130.906 31.3518 131.419 31.8043C131.958 32.2927 132.659 32.4973 133.571 32.4973C134.484 32.4973 134.965 32.3034 135.673 31.8043ZM126.932 6.70739V21.6169C123.236 21.6169 118.53 21.6169 114.689 21.6169C114.98 20.7658 115.264 19.8537 115.533 18.8914C116.46 15.5734 117.251 11.1386 117.502 6.70739H126.932V6.70739Z" fill="#423783"></path> </g> <defs> <clipPath id="clip0"> <rect width="232.604" height="31.5677" fill="white" transform="translate(0 0.929596)"></rect> </clipPath> </defs> </svg> 