<?xml version="1.0" encoding="UTF-8"?> <svg xmlns="http://www.w3.org/2000/svg" xmlns:xlink="http://www.w3.org/1999/xlink" width="65px" height="56px" viewBox="0 0 65 56"> <!-- Generator: Sketch 53.2 (72643) - https://sketchapp.com --> <title>Fill 26</title> <desc>Created with Sketch.</desc> <g id="Page-1" stroke="none" stroke-width="1" fill="none" fill-rule="evenodd"> <g id="shutterstock_62064928" transform="translate(-4.000000, -146.000000)" fill="#515DC8"> <path d="M46.169,146.292 L26.177,146.292 C17.531,146.192 10.483,150.539 5.036,159.336 C4.486,160.236 4.336,161.186 4.636,162.234 C4.886,163.285 5.436,164.035 6.385,164.584 C7.235,165.135 8.185,165.334 9.234,165.084 C10.284,164.834 11.083,164.234 11.633,163.334 C15.032,157.787 19.33,154.738 24.478,154.088 L22.279,176.728 C21.279,185.727 19.48,191.723 16.931,194.672 C16.181,195.422 15.831,196.371 15.831,197.422 C15.881,198.471 16.281,199.42 17.031,200.17 C17.78,200.869 18.68,201.219 19.73,201.219 C20.779,201.17 21.729,200.77 22.479,200.02 C26.227,196.371 28.676,188.875 29.876,177.478 L32.275,153.988 L42.321,153.988 L39.622,186.525 C39.622,186.576 39.622,186.676 39.622,186.775 C39.622,190.725 41.021,194.123 43.82,196.871 L43.87,196.922 C46.669,199.67 50.018,201.07 53.866,201.07 C57.814,201.07 61.213,199.67 63.962,196.922 C63.962,196.871 63.962,196.871 64.012,196.871 C66.561,194.223 67.96,191.174 68.16,187.676 C68.21,186.625 67.86,185.727 67.161,184.977 C66.461,184.127 65.562,183.676 64.512,183.627 C63.462,183.576 62.563,183.926 61.813,184.627 C60.963,185.326 60.514,186.227 60.463,187.275 C60.363,188.875 59.714,190.273 58.564,191.424 C58.514,191.424 58.514,191.424 58.514,191.473 C57.265,192.723 55.715,193.373 53.866,193.373 C52.117,193.373 50.567,192.723 49.268,191.424 C48.068,190.174 47.419,188.775 47.319,187.125 L50.118,153.988 L58.015,153.988 C59.064,153.988 60.014,153.588 60.763,152.84 C61.513,152.09 61.863,151.19 61.863,150.141 C61.863,149.041 61.513,148.141 60.763,147.391 C60.014,146.642 59.064,146.292 58.015,146.292 L46.869,146.292 C46.619,146.292 46.419,146.292 46.169,146.292" id="Fill-26"></path> </g> </g> </svg> 