<?xml version="1.0" encoding="UTF-8"?> <svg xmlns="http://www.w3.org/2000/svg" width="120" height="120" viewBox="0 0 120 120" fill="none"> <circle cx="60" cy="60" r="60" fill="#515DC8"></circle> <path d="M55.872 74.856C57.28 74.856 58.56 74.6853 59.712 74.344C60.9067 73.96 61.9093 73.448 62.72 72.808C63.5733 72.1253 64.2347 71.3573 64.704 70.504C65.1733 69.608 65.408 68.648 65.408 67.624C65.408 66.344 65.1307 65.2773 64.576 64.424C64.064 63.528 63.3387 62.824 62.4 62.312C61.4613 61.8 60.3307 61.4373 59.008 61.224C57.6853 61.0107 56.256 60.904 54.72 60.904H51.136V56.36L61.888 43.24H45.696V36.2H71.808V42.024L60.544 54.888H62.016C63.5093 54.888 64.96 55.144 66.368 55.656C67.776 56.168 69.0133 56.936 70.08 57.96C71.1893 58.984 72.064 60.264 72.704 61.8C73.3867 63.336 73.728 65.1067 73.728 67.112C73.728 69.544 73.216 71.6773 72.192 73.512C71.2107 75.3467 69.888 76.904 68.224 78.184C66.6027 79.4213 64.7253 80.36 62.592 81C60.4587 81.5973 58.2613 81.896 56 81.896C54.08 81.896 52.16 81.7253 50.24 81.384C48.32 81.0427 46.464 80.5093 44.672 79.784L46.912 72.872C47.296 73.0853 47.808 73.2987 48.448 73.512C49.1307 73.7253 49.8773 73.9387 50.688 74.152C51.5413 74.3653 52.3947 74.536 53.248 74.664C54.144 74.792 55.0187 74.856 55.872 74.856Z" fill="white"></path> </svg> 