<?xml version="1.0" encoding="UTF-8"?> <svg xmlns="http://www.w3.org/2000/svg" width="47" height="60" viewBox="0 0 47 60" fill="none"> <path fill-rule="evenodd" clip-rule="evenodd" d="M0.0146401 10.057C-0.182418 3.75398 1.59038 0.405433 6.51468 0.208375C11.439 0.0113176 36.2575 0.208374 39.409 0.0113165C42.5605 -0.185741 46.5002 2.17824 46.5002 8.0871C46.5002 13.996 46.5002 49.0264 46.5002 49.0264L0.80287 48.6667C0.802153 48.6674 0.211698 16.3599 0.0146401 10.057ZM25.984 43.3239L39.8189 43.9323L39.7171 39.5956L25.984 39.4745V43.3239ZM6.6064 28.7581C6.6064 31.2181 8.60492 33.524 10.7568 33.524C12.9087 33.524 31.2042 33.3707 34.5872 33.3707C37.9694 33.3707 40.122 32.2944 40.122 29.3729C40.122 26.4522 39.9679 14.7082 39.8146 11.4794C39.6612 8.2512 37.5086 6.8675 34.5879 6.8675C31.6664 6.8675 14.2938 7.1749 10.7575 7.1749C7.22122 7.1749 6.60712 8.40454 6.60712 10.5571C6.6064 12.8631 6.6064 26.2988 6.6064 28.7581ZM17.8229 11.1218V16.4581H13.5951L14.1261 10.9613L17.8229 11.1218ZM18.2013 26.4565H27.5948L27.918 23.6969H31.8456V27.7864H28.8453V30.2178L17.3915 30.3797L16.7939 28.1103H14.0452L13.8832 24.339L18.2006 24.0151V26.4565H18.2013ZM28.578 11.5904L32.5077 11.761L32.3844 16.6201L28.578 16.944V11.5904ZM19.0841 22.0961L19.2382 18.6028L21.8171 18.3506L21.7942 11.2952L25.4881 11.4557L25.352 22.0968H19.0841V22.0961ZM44.6443 52.1356V60L2.53554 59.4927L2.78921 52.6436L44.6443 52.1356Z" fill="#4A358F"></path> </svg> 