<?xml version="1.0" encoding="UTF-8"?> <svg xmlns="http://www.w3.org/2000/svg" width="421" height="150" viewBox="0 0 421 150" fill="none"> <g filter="url(#filter0_d)"> <path d="M400.454 65C400.454 34.6243 375.829 10 345.454 10H80.0001C46.863 10 20 36.8629 20 70V120H345.454C375.829 120 400.454 95.3757 400.454 65V65Z" fill="white"></path> <path d="M116.072 57.864L111.416 75H110.048L106.448 62.4C106.272 61.824 106.12 61.296 105.992 60.816C105.864 60.32 105.768 59.912 105.704 59.592C105.656 59.896 105.576 60.28 105.464 60.744C105.368 61.192 105.248 61.664 105.104 62.16L101.528 75H100.16L95.552 57.864H96.992L100.112 69.624C100.272 70.296 100.416 70.912 100.544 71.472C100.688 72.016 100.808 72.552 100.904 73.08C101 72.536 101.112 71.976 101.24 71.4C101.368 70.824 101.528 70.208 101.72 69.552L105.032 57.864H106.448L109.856 69.624C110.048 70.312 110.208 70.944 110.336 71.52C110.48 72.08 110.6 72.616 110.696 73.128C110.776 72.6 110.872 72.064 110.984 71.52C111.112 70.96 111.272 70.328 111.464 69.624L114.632 57.864H116.072ZM120.089 62.592C120.089 62.928 120.081 63.248 120.065 63.552C120.049 63.856 120.025 64.152 119.993 64.44H120.089C120.425 63.736 120.953 63.152 121.673 62.688C122.409 62.224 123.321 61.992 124.409 61.992C125.881 61.992 127.001 62.368 127.769 63.12C128.537 63.872 128.921 65.048 128.921 66.648V75H127.577V66.744C127.577 65.528 127.297 64.632 126.737 64.056C126.177 63.464 125.361 63.168 124.289 63.168C121.489 63.168 120.089 64.792 120.089 68.04V75H118.721V56.76H120.089V62.592ZM137.53 62.016C138.97 62.016 140.042 62.368 140.746 63.072C141.45 63.776 141.802 64.888 141.802 66.408V75H140.77L140.53 72.84H140.458C139.994 73.56 139.426 74.144 138.754 74.592C138.098 75.024 137.178 75.24 135.994 75.24C134.762 75.24 133.794 74.936 133.09 74.328C132.386 73.704 132.034 72.816 132.034 71.664C132.034 70.384 132.554 69.416 133.594 68.76C134.634 68.088 136.146 67.712 138.13 67.632L140.458 67.512V66.624C140.458 65.376 140.202 64.488 139.69 63.96C139.194 63.432 138.458 63.168 137.482 63.168C136.826 63.168 136.194 63.256 135.586 63.432C134.978 63.608 134.37 63.84 133.762 64.128L133.33 63.024C133.938 62.736 134.594 62.496 135.298 62.304C136.018 62.112 136.762 62.016 137.53 62.016ZM138.298 68.64C136.666 68.72 135.45 69.008 134.65 69.504C133.866 69.984 133.474 70.704 133.474 71.664C133.474 72.464 133.714 73.072 134.194 73.488C134.69 73.888 135.37 74.088 136.234 74.088C137.562 74.088 138.594 73.712 139.33 72.96C140.066 72.192 140.442 71.136 140.458 69.792V68.544L138.298 68.64ZM149.485 74.064C149.837 74.064 150.173 74.04 150.493 73.992C150.813 73.944 151.093 73.872 151.333 73.776V74.88C151.093 74.976 150.797 75.056 150.445 75.12C150.093 75.2 149.717 75.24 149.317 75.24C148.245 75.24 147.421 74.944 146.845 74.352C146.269 73.76 145.981 72.792 145.981 71.448V63.336H144.085V62.568L145.981 62.112L146.461 59.184H147.349V62.232H151.261V63.336H147.349V71.376C147.349 73.168 148.061 74.064 149.485 74.064ZM160.972 57.504C161.596 57.504 161.908 57.848 161.908 58.536C161.908 59.24 161.596 59.592 160.972 59.592C160.348 59.592 160.036 59.24 160.036 58.536C160.036 57.848 160.348 57.504 160.972 57.504ZM161.644 62.232V75H160.276V62.232H161.644ZM173.918 71.616C173.918 72.768 173.486 73.664 172.622 74.304C171.758 74.928 170.542 75.24 168.974 75.24C168.078 75.24 167.286 75.16 166.598 75C165.91 74.856 165.334 74.664 164.87 74.424V73.104C165.43 73.392 166.07 73.632 166.79 73.824C167.51 74 168.246 74.088 168.998 74.088C170.246 74.088 171.15 73.88 171.71 73.464C172.286 73.032 172.574 72.448 172.574 71.712C172.574 71.008 172.278 70.472 171.686 70.104C171.094 69.72 170.222 69.328 169.07 68.928C168.27 68.656 167.566 68.384 166.958 68.112C166.366 67.824 165.902 67.464 165.566 67.032C165.23 66.6 165.062 66.008 165.062 65.256C165.062 64.232 165.478 63.432 166.31 62.856C167.142 62.28 168.254 61.992 169.646 61.992C170.414 61.992 171.126 62.064 171.782 62.208C172.454 62.352 173.07 62.544 173.63 62.784L173.126 63.912C172.63 63.704 172.07 63.528 171.446 63.384C170.822 63.224 170.198 63.144 169.574 63.144C168.566 63.144 167.782 63.32 167.222 63.672C166.662 64.024 166.382 64.536 166.382 65.208C166.382 65.72 166.518 66.128 166.79 66.432C167.062 66.72 167.454 66.968 167.966 67.176C168.478 67.384 169.102 67.616 169.838 67.872C170.606 68.144 171.294 68.424 171.902 68.712C172.51 69 172.998 69.368 173.366 69.816C173.734 70.264 173.918 70.864 173.918 71.616ZM181.274 62.232H182.714L185.762 70.152C186.018 70.872 186.242 71.512 186.434 72.072C186.626 72.616 186.778 73.104 186.89 73.536H186.962C187.202 72.736 187.578 71.624 188.09 70.2L191.066 62.232H192.53L186.77 77.256C186.338 78.392 185.826 79.264 185.234 79.872C184.642 80.48 183.842 80.784 182.834 80.784C182.53 80.784 182.25 80.768 181.994 80.736C181.754 80.704 181.53 80.648 181.322 80.568V79.416C181.514 79.48 181.722 79.528 181.946 79.56C182.17 79.608 182.41 79.632 182.666 79.632C183.338 79.632 183.882 79.424 184.298 79.008C184.73 78.592 185.114 77.952 185.45 77.088L186.266 74.952L181.274 62.232ZM205.292 68.592C205.292 69.936 205.068 71.104 204.62 72.096C204.188 73.088 203.54 73.864 202.676 74.424C201.828 74.968 200.788 75.24 199.556 75.24C198.372 75.24 197.356 74.968 196.508 74.424C195.66 73.88 195.004 73.112 194.54 72.12C194.092 71.112 193.868 69.936 193.868 68.592C193.868 66.528 194.38 64.912 195.404 63.744C196.428 62.576 197.844 61.992 199.652 61.992C200.868 61.992 201.892 62.272 202.724 62.832C203.572 63.376 204.212 64.144 204.644 65.136C205.076 66.128 205.292 67.28 205.292 68.592ZM195.284 68.592C195.284 70.24 195.628 71.568 196.316 72.576C197.02 73.568 198.108 74.064 199.58 74.064C201.068 74.064 202.156 73.56 202.844 72.552C203.532 71.544 203.876 70.224 203.876 68.592C203.876 67.536 203.732 66.6 203.444 65.784C203.156 64.968 202.7 64.328 202.076 63.864C201.452 63.4 200.636 63.168 199.628 63.168C198.188 63.168 197.1 63.648 196.364 64.608C195.644 65.568 195.284 66.896 195.284 68.592ZM218.824 62.232V75H217.72L217.504 72.816H217.432C217.08 73.52 216.536 74.104 215.8 74.568C215.08 75.016 214.176 75.24 213.088 75.24C210.096 75.24 208.6 73.688 208.6 70.584V62.232H209.968V70.464C209.968 71.696 210.24 72.608 210.784 73.2C211.344 73.776 212.168 74.064 213.256 74.064C216.056 74.064 217.456 72.44 217.456 69.192V62.232H218.824ZM228.321 62.016C228.945 62.016 229.521 62.08 230.049 62.208L229.833 63.48C229.321 63.336 228.793 63.264 228.249 63.264C227.081 63.264 226.153 63.696 225.465 64.56C224.777 65.424 224.433 66.568 224.433 67.992V75H223.065V62.232H224.217L224.361 64.608H224.433C224.753 63.888 225.241 63.28 225.897 62.784C226.553 62.272 227.361 62.016 228.321 62.016ZM240.113 62.592C240.113 62.928 240.105 63.248 240.089 63.552C240.073 63.856 240.049 64.152 240.017 64.44H240.113C240.449 63.736 240.977 63.152 241.697 62.688C242.433 62.224 243.345 61.992 244.433 61.992C245.905 61.992 247.025 62.368 247.793 63.12C248.561 63.872 248.945 65.048 248.945 66.648V75H247.601V66.744C247.601 65.528 247.321 64.632 246.761 64.056C246.201 63.464 245.385 63.168 244.313 63.168C241.513 63.168 240.113 64.792 240.113 68.04V75H238.745V56.76H240.113V62.592ZM263.722 68.592C263.722 69.936 263.498 71.104 263.05 72.096C262.618 73.088 261.97 73.864 261.106 74.424C260.258 74.968 259.218 75.24 257.986 75.24C256.802 75.24 255.786 74.968 254.938 74.424C254.09 73.88 253.434 73.112 252.97 72.12C252.522 71.112 252.298 69.936 252.298 68.592C252.298 66.528 252.81 64.912 253.834 63.744C254.858 62.576 256.274 61.992 258.082 61.992C259.298 61.992 260.322 62.272 261.154 62.832C262.002 63.376 262.642 64.144 263.074 65.136C263.506 66.128 263.722 67.28 263.722 68.592ZM253.714 68.592C253.714 70.24 254.058 71.568 254.746 72.576C255.45 73.568 256.538 74.064 258.01 74.064C259.498 74.064 260.586 73.56 261.274 72.552C261.962 71.544 262.306 70.224 262.306 68.592C262.306 67.536 262.162 66.6 261.874 65.784C261.586 64.968 261.13 64.328 260.506 63.864C259.882 63.4 259.066 63.168 258.058 63.168C256.618 63.168 255.53 63.648 254.794 64.608C254.074 65.568 253.714 66.896 253.714 68.592ZM268.542 61.8C268.542 62.264 268.534 62.76 268.518 63.288C268.502 63.8 268.486 64.216 268.47 64.536H268.542C268.862 63.816 269.39 63.216 270.126 62.736C270.862 62.24 271.782 61.992 272.886 61.992C274.518 61.992 275.79 62.552 276.702 63.672C277.63 64.776 278.094 66.416 278.094 68.592C278.094 70.608 277.63 72.224 276.702 73.44C275.79 74.64 274.454 75.24 272.694 75.24C271.622 75.24 270.742 75.024 270.054 74.592C269.382 74.144 268.886 73.592 268.566 72.936H268.47L268.206 75H267.174V56.76H268.542V61.8ZM272.718 63.168C271.23 63.168 270.158 63.632 269.502 64.56C268.862 65.488 268.542 66.832 268.542 68.592V68.76C268.542 70.488 268.846 71.808 269.454 72.72C270.078 73.616 271.11 74.064 272.55 74.064C273.91 74.064 274.934 73.592 275.622 72.648C276.326 71.688 276.678 70.328 276.678 68.568C276.678 64.968 275.358 63.168 272.718 63.168ZM282.909 61.8C282.909 62.264 282.901 62.76 282.885 63.288C282.869 63.8 282.853 64.216 282.837 64.536H282.909C283.229 63.816 283.757 63.216 284.493 62.736C285.229 62.24 286.149 61.992 287.253 61.992C288.885 61.992 290.157 62.552 291.069 63.672C291.997 64.776 292.461 66.416 292.461 68.592C292.461 70.608 291.997 72.224 291.069 73.44C290.157 74.64 288.821 75.24 287.061 75.24C285.989 75.24 285.109 75.024 284.421 74.592C283.749 74.144 283.253 73.592 282.933 72.936H282.837L282.573 75H281.541V56.76H282.909V61.8ZM287.085 63.168C285.597 63.168 284.525 63.632 283.869 64.56C283.229 65.488 282.909 66.832 282.909 68.592V68.76C282.909 70.488 283.213 71.808 283.821 72.72C284.445 73.616 285.477 74.064 286.917 74.064C288.277 74.064 289.301 73.592 289.989 72.648C290.693 71.688 291.045 70.328 291.045 68.568C291.045 64.968 289.725 63.168 287.085 63.168ZM293.376 62.232H294.816L297.864 70.152C298.12 70.872 298.344 71.512 298.536 72.072C298.728 72.616 298.88 73.104 298.992 73.536H299.064C299.304 72.736 299.68 71.624 300.192 70.2L303.168 62.232H304.632L298.872 77.256C298.44 78.392 297.928 79.264 297.336 79.872C296.744 80.48 295.944 80.784 294.936 80.784C294.632 80.784 294.352 80.768 294.096 80.736C293.856 80.704 293.632 80.648 293.424 80.568V79.416C293.616 79.48 293.824 79.528 294.048 79.56C294.272 79.608 294.512 79.632 294.768 79.632C295.44 79.632 295.984 79.424 296.4 79.008C296.832 78.592 297.216 77.952 297.552 77.088L298.368 74.952L293.376 62.232ZM308.478 70.032C308.478 69.328 308.534 68.744 308.646 68.28C308.758 67.8 308.958 67.368 309.246 66.984C309.55 66.584 309.974 66.176 310.518 65.76C311.11 65.296 311.598 64.88 311.982 64.512C312.366 64.144 312.654 63.752 312.846 63.336C313.038 62.904 313.134 62.384 313.134 61.776C313.134 60.8 312.83 60.072 312.222 59.592C311.614 59.096 310.798 58.848 309.774 58.848C309.07 58.848 308.43 58.936 307.854 59.112C307.294 59.272 306.734 59.488 306.174 59.76L305.67 58.608C306.342 58.288 306.998 58.048 307.638 57.888C308.294 57.712 309.03 57.624 309.846 57.624C311.27 57.624 312.39 57.984 313.206 58.704C314.038 59.408 314.454 60.424 314.454 61.752C314.454 62.52 314.326 63.176 314.07 63.72C313.83 64.248 313.486 64.728 313.038 65.16C312.59 65.592 312.062 66.04 311.454 66.504C310.974 66.872 310.598 67.224 310.326 67.56C310.07 67.896 309.886 68.264 309.774 68.664C309.678 69.064 309.63 69.56 309.63 70.152V70.488H308.478V70.032ZM308.07 74.064C308.07 73.28 308.422 72.888 309.126 72.888C309.83 72.888 310.182 73.28 310.182 74.064C310.182 74.864 309.83 75.264 309.126 75.264C308.422 75.264 308.07 74.864 308.07 74.064Z" fill="#303844"></path> </g> <defs> <filter id="filter0_d" x="3.05176e-05" y="0" width="420.454" height="150" filterUnits="userSpaceOnUse" color-interpolation-filters="sRGB"> <feFlood flood-opacity="0" result="BackgroundImageFix"></feFlood> <feColorMatrix in="SourceAlpha" type="matrix" values="0 0 0 0 0 0 0 0 0 0 0 0 0 0 0 0 0 0 127 0"></feColorMatrix> <feOffset dy="10"></feOffset> <feGaussianBlur stdDeviation="10"></feGaussianBlur> <feColorMatrix type="matrix" values="0 0 0 0 0 0 0 0 0 0 0 0 0 0 0 0 0 0 0.25 0"></feColorMatrix> <feBlend mode="normal" in2="BackgroundImageFix" result="effect1_dropShadow"></feBlend> <feBlend mode="normal" in="SourceGraphic" in2="effect1_dropShadow" result="shape"></feBlend> </filter> </defs> </svg> 