<?xml version="1.0" encoding="UTF-8"?> <svg xmlns="http://www.w3.org/2000/svg" width="181" height="23" viewBox="0 0 181 23" fill="none"> <g clip-path="url(#clip0_1:142)"> <path d="M180.637 8.70885C180.637 6.37307 177.878 0.213928 170.063 0.213928C162.249 0.213928 159.49 6.37307 159.49 8.70885V17.0233C159.49 18.3974 161.122 19.2534 162.386 18.5289C165.321 16.8428 168.861 13.3985 170.063 7.22385C171.266 13.3985 174.806 16.8428 177.741 18.5289C179.002 19.2534 180.637 18.3974 180.637 17.0233V8.70885Z" fill="#D6D6D6"></path> <path d="M117.648 -6.10352e-05H117.221C114.183 -6.10352e-05 111.736 0.894548 109.834 2.73533C107.931 4.52712 106.977 6.80361 106.977 9.51579C106.977 12.3724 107.928 14.672 109.856 16.4174C111.784 18.137 114.231 19.0084 117.221 19.0084H117.648C120.639 19.0084 123.088 18.137 125.013 16.4174C126.941 14.6746 127.893 12.3749 127.893 9.51579C127.893 6.80361 126.941 4.52712 125.036 2.73533C123.133 0.894548 120.683 -6.10352e-05 117.648 -6.10352e-05ZM121.057 12.5399C120.114 13.3263 118.931 13.6227 117.617 13.6227H117.249C115.935 13.6227 114.752 13.3288 113.809 12.5399C112.866 11.7536 112.495 10.7945 112.495 9.49001C112.495 8.13908 112.869 7.2522 113.787 6.49165C114.685 5.72853 115.846 5.35986 117.227 5.35986H117.64C119.021 5.35986 120.181 5.72853 121.08 6.49165C122 7.25478 122.371 8.13908 122.371 9.49001C122.371 10.7945 121.998 11.7536 121.057 12.5399Z" fill="#D6D6D6"></path> <path d="M48.9905 0.850847C48.5999 1.28139 48.3962 1.83569 48.4214 2.39772L48.4158 16.6702C48.4158 17.2271 48.6083 17.7685 48.9933 18.1939C49.2025 18.4001 49.4564 18.5626 49.741 18.6657C50.0255 18.7714 50.2571 18.7894 50.6281 18.7894C51.2503 18.7894 51.7413 18.6863 52.1626 18.3357L64.4882 6.94553V16.6676C64.4659 17.2245 64.6723 17.7685 65.0629 18.1913C65.2722 18.3976 65.526 18.56 65.8106 18.6657C66.0924 18.7714 66.3295 18.7972 66.7034 18.7972C67.0772 18.7972 67.3506 18.7688 67.638 18.6631C67.9253 18.5574 68.182 18.3976 68.3968 18.1913C68.7986 17.7736 69.0106 17.2271 68.9855 16.6676V2.39772C68.9883 1.79186 68.7958 1.28913 68.3912 0.868894C67.9672 0.500222 67.4873 0.21405 66.854 0.21405C66.2207 0.21405 65.6376 0.340378 65.2024 0.742566L52.9103 12.1018V2.39772C52.9103 1.76608 52.7289 1.29171 52.3355 0.868894C52.1207 0.657488 51.8585 0.492488 51.5683 0.384206C51.2782 0.275925 50.9992 0.216628 50.6198 0.216628C50.2403 0.216628 50.0172 0.275925 49.7354 0.37905C49.4536 0.482175 49.1997 0.644597 48.9905 0.850847Z" fill="#D6D6D6"></path> <path d="M131.743 18.1939C131.958 18.4001 132.214 18.5626 132.502 18.6657C132.789 18.7714 133.063 18.7997 133.436 18.7997C133.81 18.7997 134.047 18.774 134.329 18.6683C134.614 18.5626 134.868 18.4027 135.077 18.1939C135.467 17.7711 135.674 17.2271 135.652 16.6702V6.94811L142.233 13.0299C143.039 13.775 144.35 13.775 145.157 13.0299L151.738 6.94811V16.6702C151.716 17.2271 151.919 17.7711 152.31 18.1939C152.519 18.4027 152.776 18.5626 153.058 18.6683C153.342 18.774 153.579 18.7997 153.953 18.7997C154.324 18.7997 154.6 18.7714 154.888 18.6657C155.172 18.5626 155.432 18.4001 155.644 18.1939C156.046 17.7762 156.258 17.2297 156.235 16.6702V2.39772C156.235 1.79186 156.043 1.28913 155.641 0.868894C155.217 0.5028 154.737 0.21405 154.104 0.21405C153.468 0.21405 152.885 0.342957 152.452 0.742566L143.695 8.83529L134.937 0.742566C134.502 0.342957 133.919 0.21405 133.286 0.21405C132.652 0.21405 132.17 0.5028 131.749 0.868894C131.344 1.28913 131.152 1.79186 131.154 2.39772V16.6702C131.132 17.2297 131.341 17.7762 131.743 18.1939Z" fill="#D6D6D6"></path> <path d="M75.5278 13.7054C74.6992 13.7054 74.024 13.9451 73.5302 14.453C73.0643 14.9351 72.8049 15.5384 72.8049 16.2603C72.8049 16.9822 73.0392 17.5855 73.5051 18.0676C73.971 18.5497 74.6462 18.7894 75.5278 18.7894C76.4094 18.7894 77.0845 18.5497 77.5755 18.0676C78.0694 17.5855 78.3009 16.9822 78.3009 16.2603C78.3009 15.5616 78.0414 14.9584 77.5476 14.453C77.0594 13.9477 76.3843 13.7054 75.5278 13.7054Z" fill="#D6D6D6"></path> <path d="M24.7998 0.853432C24.4036 1.27109 24.1916 1.87437 24.1916 2.46476V5.44765C24.1916 8.54397 24.8779 10.6812 26.2533 11.9084C28.1309 13.628 30.9235 14.3886 34.5197 14.3886C37.4797 14.3886 38.9611 13.775 40.6267 13.1382V16.6986C40.6267 17.3122 40.808 17.8201 41.2042 18.2119C41.6004 18.6038 42.1611 18.792 42.8753 18.792C43.6146 18.792 44.234 18.6064 44.6023 18.2119C44.9984 17.8201 45.1547 17.173 45.1547 16.6986V2.46476C45.1547 1.94914 44.9315 1.2221 44.5325 0.830229C44.1363 0.438355 43.5812 0.216636 42.867 0.216636C42.1276 0.216636 41.5725 0.412573 41.2014 0.830229C40.8304 1.24789 40.6211 1.82796 40.6211 2.46476V8.83788C39.4047 9.9439 37.689 10.6065 34.86 10.6065C33.5655 10.6065 31.169 10.2868 29.7155 9.03382C28.9483 8.37124 28.7195 7.04609 28.7195 5.22851V2.46476C28.7195 1.87437 28.5243 1.27109 28.1281 0.853432C27.7319 0.435776 27.1712 0.216636 26.4598 0.216636C25.7455 0.214058 25.1959 0.435776 24.7998 0.853432Z" fill="#D6D6D6"></path> <path d="M0.580292 0.809536C0.186921 1.22204 0 1.72477 0 2.34352V2.36672C0 5.36508 0.817431 7.51781 2.45229 9.44367C4.11227 11.3721 6.78496 12.3363 10.5178 12.3363C12.4372 12.3363 14.0972 12.0476 15.4977 11.4933C15.6539 11.4211 16.0166 11.2767 16.1729 11.2277C15.2383 14.1436 12.6186 14.8655 9.94867 14.8912C7.25087 14.9144 5.90336 14.3859 4.32151 13.3005C2.974 12.3853 1.90827 12.7695 1.26102 13.5661C0.507756 14.5071 0.663989 15.5667 1.96128 16.5541C3.8277 18.0005 6.83518 18.7945 9.97378 18.7945C11.8932 18.7945 14.1251 18.5084 15.5005 17.9541C16.901 17.3998 17.9919 16.6057 18.7423 15.5925C19.4956 14.5793 20.0647 13.4707 20.4023 12.2667C20.7399 11.0627 20.938 9.68344 20.938 8.1907V2.46469C20.938 1.815 20.7399 1.27618 20.3242 0.840473C19.9364 0.407349 19.3645 0.213989 18.6112 0.213989C17.8858 0.213989 17.3139 0.430552 16.9261 0.840473C16.5383 1.2736 16.424 1.80469 16.424 2.45438V2.57555C16.424 6.93774 14.22 8.43047 10.356 8.43047C6.49202 8.43047 4.49727 6.6 4.49727 2.52657V2.34352C4.49727 1.72477 4.29919 1.19883 3.90581 0.809536C3.48733 0.397036 2.94331 0.213989 2.204 0.213989C1.51769 0.213989 0.948555 0.397036 0.580292 0.809536Z" fill="#D6D6D6"></path> <path d="M105.362 22.1668C105.75 21.8342 105.965 21.3624 105.951 20.8752V17.552C105.951 16.4537 105.089 14.9042 103.08 14.8578V3.24852C103.08 1.58821 101.758 0.242432 99.961 0.242432H90.0626C88.2492 0.242432 86.8431 1.59337 86.7984 3.19181C86.7036 6.40415 86.1038 9.39477 85.384 11.7795C85.0101 13.0222 84.614 14.0586 84.2624 14.8552C84.1508 14.8552 84.0504 14.8552 83.9667 14.8552C81.8883 14.8552 81.0095 16.4408 81.0095 17.552V20.8752C80.9927 21.365 81.2075 21.8342 81.5981 22.1668C82.1449 22.5252 82.5439 22.6644 83.2497 22.6644C83.9556 22.6644 84.4856 22.5174 84.9041 22.1668C85.3031 21.8394 85.5235 21.3676 85.5067 20.8752V18.7946H101.456V20.8752C101.44 21.3676 101.66 21.842 102.059 22.1668C102.477 22.5174 103.022 22.6644 103.73 22.6644C104.439 22.6644 104.813 22.5252 105.362 22.1668ZM98.5745 4.14829V14.8527C95.7037 14.8527 92.049 14.8527 89.0666 14.8527C89.2926 14.2416 89.513 13.5868 89.7222 12.8959C90.442 10.5137 91.0558 7.32969 91.2511 4.14829H98.5745V4.14829Z" fill="#D6D6D6"></path> </g> <defs> <clipPath id="clip0_1:142"> <rect width="180.638" height="22.6643" fill="white"></rect> </clipPath> </defs> </svg> 