<?xml version="1.0" encoding="UTF-8"?> <svg xmlns="http://www.w3.org/2000/svg" width="1041" height="648" viewBox="0 0 1041 648" fill="none"> <path opacity="0.132721" d="M689.561 346.404C687.661 346.185 685.919 345.255 684.708 343.813C680.542 338.853 684.665 331.532 691.2 332.285L703.123 333.659C705.023 333.878 706.764 334.808 707.976 336.25C712.142 341.21 708.019 348.531 701.484 347.778L689.561 346.404Z" fill="url(#paint0_linear)"></path> <path opacity="0.224459" d="M221.436 244.574C226.56 245.391 229.325 251.036 226.831 255.587C225.306 258.37 222.195 259.895 219.061 259.395L206.619 257.41C201.496 256.593 198.731 250.948 201.225 246.397C202.75 243.614 205.861 242.089 208.995 242.589L221.436 244.574Z" fill="url(#paint1_linear)"></path> <path opacity="0.0729477" d="M227.446 149.725C229.05 144.57 234.921 141.947 239.799 144.206L261.868 154.425C265.763 156.228 267.686 160.583 266.405 164.699C264.801 169.853 258.93 172.476 254.052 170.217L231.983 159.999C228.088 158.195 226.165 153.84 227.446 149.725Z" fill="url(#paint2_linear)"></path> <path opacity="0.12" d="M884.969 53.9241C890.438 50.9868 897.336 53.5015 899.652 59.2764C901.58 64.0871 899.614 69.5189 895.059 71.9657L877.786 81.2427C872.317 84.18 865.419 81.6653 863.104 75.8904C861.175 71.0797 863.141 65.6479 867.697 63.201L884.969 53.9241Z" fill="url(#paint3_linear)"></path> <path opacity="0.08" d="M938.601 571.28C933.648 567.828 932.699 560.664 936.575 555.998C939.829 552.08 945.396 551.314 949.555 554.213L966.716 566.176C971.668 569.627 972.618 576.792 968.742 581.458C965.487 585.376 959.92 586.141 955.762 583.242L938.601 571.28Z" fill="url(#paint4_linear)"></path> <path opacity="0.130573" d="M1005.98 474.714C1008.89 475.599 1009.75 479.239 1007.55 481.39C1006.46 482.455 1004.88 482.847 1003.43 482.41L990.525 478.49C987.611 477.605 986.753 473.965 988.951 471.814C990.039 470.749 991.625 470.356 993.067 470.794L1005.98 474.714Z" fill="url(#paint5_linear)"></path> <path opacity="0.130573" d="M731.381 470.464C733.888 472.194 733.598 475.922 730.849 477.302C729.489 477.986 727.859 477.877 726.618 477.021L715.512 469.36C713.005 467.63 713.295 463.902 716.044 462.522C717.404 461.839 719.034 461.947 720.275 462.803L731.381 470.464Z" fill="url(#paint6_linear)"></path> <path opacity="0.07" d="M514.357 44.4654C515.178 39.5239 520.364 36.7001 524.985 38.6784C528.343 40.1158 530.301 43.6819 529.705 47.2724L529.215 50.2227C528.394 55.1643 523.208 57.988 518.587 56.0097C515.229 54.5723 513.271 51.0062 513.867 47.4157L514.357 44.4654Z" fill="url(#paint7_linear)"></path> <path opacity="0.350643" d="M280.117 462.422C275.355 464.898 269.746 462.184 268.814 456.953C268.177 453.374 269.996 449.716 273.254 448.022L279.645 444.699C284.407 442.223 290.016 444.937 290.947 450.168C291.585 453.747 289.766 457.405 286.508 459.099L280.117 462.422Z" fill="url(#paint8_linear)"></path> <path opacity="0.877949" d="M247.129 548.029C251.106 544.594 257.417 546.037 259.411 550.838C260.62 553.748 259.82 557.072 257.409 559.155L247.394 567.808C243.418 571.244 237.106 569.801 235.112 565C233.903 562.09 234.703 558.766 237.114 556.683L247.129 548.029Z" fill="url(#paint9_linear)"></path> <path opacity="0.0248234" d="M851.262 226.468C855.067 229.913 853.331 236.308 848.283 237.442L818.225 244.191C816.236 244.637 814.171 244.098 812.672 242.741C808.867 239.296 810.603 232.901 815.651 231.767L845.709 225.018C847.697 224.572 849.763 225.111 851.262 226.468Z" fill="url(#paint10_linear)"></path> <path opacity="0.0297833" d="M888.066 345.756C882.354 344.76 877.028 349.318 877.09 355.151C877.136 359.474 880.196 363.092 884.43 363.83L888.037 364.459C893.749 365.455 899.075 360.897 899.013 355.065C898.967 350.741 895.907 347.123 891.673 346.385L888.066 345.756Z" fill="url(#paint11_linear)"></path> <path opacity="0.0912776" d="M245.37 325.957C239.32 325.771 234.595 320.272 235.293 314.229C235.878 309.159 240.128 305.471 245.205 305.627L265.964 306.265C272.013 306.452 276.739 311.951 276.041 317.994C275.455 323.064 271.205 326.752 266.129 326.596L245.37 325.957Z" fill="url(#paint12_linear)"></path> <path opacity="0.0782" d="M701.676 137.698C706.613 141.637 706.677 148.958 701.81 153.036L682.265 169.41C678.437 172.617 672.799 172.696 668.916 169.598C663.979 165.658 663.915 158.337 668.782 154.26L688.327 137.886C692.155 134.679 697.793 134.599 701.676 137.698Z" fill="url(#paint13_linear)"></path> <path opacity="0.026126" d="M867.495 640.953C862.834 638.968 862.428 632.32 866.8 629.592L893.331 613.04C895.029 611.981 897.101 611.81 898.91 612.581C903.571 614.566 903.977 621.214 899.605 623.942L873.074 640.494C871.376 641.553 869.304 641.723 867.495 640.953Z" fill="url(#paint14_linear)"></path> <path opacity="0.0306003" d="M721.082 21.9693C724.793 25.3395 724.371 31.4778 720.229 34.3836L720.018 34.5318C717.146 36.5464 713.35 36.322 710.778 33.9854C707.066 30.6152 707.488 24.4769 711.63 21.5711L711.841 21.4228C714.713 19.4082 718.509 19.6327 721.082 21.9693Z" fill="url(#paint15_linear)"></path> <path opacity="0.39161" d="M773.849 223.826C771.307 220.358 772.353 215.326 776.06 213.194L805.906 196.032C808.912 194.304 812.661 195.106 814.722 197.917C817.264 201.385 816.217 206.417 812.511 208.549L782.664 225.711C779.659 227.439 775.91 226.637 773.849 223.826Z" fill="url(#paint16_linear)"></path> <path opacity="0.183402" d="M1004.39 327.04C997.196 327.583 991.758 320.818 993.796 313.864C995.035 309.637 998.772 306.601 1003.14 306.271L1021.06 304.916C1028.25 304.372 1033.69 311.138 1031.65 318.092C1030.41 322.318 1026.68 325.355 1022.31 325.685L1004.39 327.04Z" fill="url(#paint17_linear)"></path> <path opacity="0.11" d="M185.091 369.897C183.107 370.166 181.151 369.254 180.076 367.561C178.057 364.379 180.012 360.159 183.738 359.654L202.509 357.109C204.493 356.84 206.449 357.751 207.524 359.445C209.543 362.627 207.588 366.846 203.862 367.352L185.091 369.897Z" fill="url(#paint18_linear)"></path> <path opacity="0.19" d="M923.097 193.264C921.538 193.981 919.698 193.629 918.51 192.387C916.581 190.371 917.212 187.044 919.742 185.882L938.419 177.299C939.978 176.583 941.818 176.935 943.006 178.177C944.934 180.192 944.304 183.519 941.774 184.682L923.097 193.264Z" fill="#1CC1BB"></path> <path opacity="0.891998" d="M809.927 413.647C814.249 415.419 816.114 420.551 813.94 424.689C812.055 428.277 807.768 429.838 804.02 428.302L782.205 419.358C777.883 417.586 776.017 412.454 778.192 408.316C780.077 404.728 784.364 403.167 788.112 404.704L809.927 413.647Z" fill="url(#paint19_linear)"></path> <path opacity="0.753125" d="M230.003 48.773C235.282 51.2341 235.681 58.8228 230.691 61.8815C228.681 63.1141 226.217 63.2575 224.089 62.2657L202.586 52.2409C197.307 49.7798 196.909 42.1911 201.898 39.1324C203.909 37.8998 206.373 37.7564 208.5 38.7482L230.003 48.773Z" fill="url(#paint20_linear)"></path> <path opacity="0.135484" d="M350.709 6.44736C354.729 3.53404 360.362 4.71219 362.882 8.99344L372.414 25.1905C374.635 28.9643 373.621 33.8247 370.077 36.3927C366.057 39.306 360.424 38.1279 357.905 33.8466L348.372 17.6496C346.151 13.8757 347.165 9.01538 350.709 6.44736Z" fill="url(#paint21_linear)"></path> <path opacity="0.625259" d="M693.079 101.963C689.463 105.814 682.98 105.226 680.028 100.78C678.014 97.7462 678.328 93.8222 680.795 91.1947L685.528 86.1543C689.144 82.3031 695.627 82.8906 698.579 87.3371C700.593 90.3707 700.279 94.2947 697.812 96.9222L693.079 101.963Z" fill="url(#paint22_linear)"></path> <path opacity="0.12" d="M399.3 551.653C396.435 556.091 389.952 556.679 386.249 552.836C383.722 550.214 383.325 546.297 385.28 543.269L389.029 537.46C391.894 533.021 398.377 532.434 402.08 536.277C404.607 538.899 405.004 542.815 403.049 545.844L399.3 551.653Z" fill="url(#paint23_linear)"></path> <path opacity="0.625259" d="M861.717 299.93C857.235 300.386 853.233 296.733 853.251 292.201C853.265 288.508 855.986 285.493 859.64 285.122L883.558 282.692C888.041 282.237 892.042 285.89 892.024 290.421C892.01 294.115 889.289 297.13 885.636 297.501L861.717 299.93Z" fill="url(#paint24_linear)"></path> <path opacity="0.56403" d="M81.5037 266.375C82.6566 272.591 77.907 278.178 71.5538 278.08L46.1187 277.685C41.1242 277.608 36.81 273.978 35.9037 269.091C34.7508 262.875 39.5004 257.288 45.8535 257.386L71.2886 257.781C76.2832 257.858 80.5974 261.488 81.5037 266.375Z" fill="url(#paint25_linear)"></path> <path opacity="0.147374" d="M797.944 579.803C802.833 584.901 800.957 593.189 794.325 595.788C790.427 597.316 785.963 596.348 783.089 593.352L769.285 578.961C764.395 573.864 766.271 565.575 772.903 562.976C776.801 561.448 781.266 562.416 784.14 565.413L797.944 579.803Z" fill="url(#paint26_linear)"></path> <path opacity="0.519775" d="M152.104 459.706C150.448 460.545 148.529 460.704 146.747 460.15C140.542 458.221 139.775 449.693 145.545 446.77L155.912 441.518C157.568 440.679 159.488 440.52 161.269 441.073C167.475 443.003 168.241 451.531 162.472 454.454L152.104 459.706Z" fill="url(#paint27_linear)"></path> <path opacity="0.755968" d="M30.8702 114.348C32.625 114.942 34.0774 116.206 34.9217 117.873C37.8554 123.667 32.3074 130.209 26.2103 128.146L15.2194 124.426C13.4646 123.832 12.0122 122.568 11.1679 120.901C8.23418 115.107 13.7822 108.565 19.8794 110.628L30.8702 114.348Z" fill="url(#paint28_linear)"></path> <defs> <linearGradient id="paint0_linear" x1="719.117" y1="350.057" x2="679.023" y2="322.026" gradientUnits="userSpaceOnUse"> <stop stop-color="#F2C94C"></stop> <stop offset="1" stop-color="#FFE186"></stop> </linearGradient> <linearGradient id="paint1_linear" x1="198.485" y1="240.912" x2="202.462" y2="265.464" gradientUnits="userSpaceOnUse"> <stop stop-color="#515DC8"></stop> <stop offset="1" stop-color="#6666CC"></stop> </linearGradient> <linearGradient id="paint2_linear" x1="223.354" y1="162.872" x2="270.031" y2="164.846" gradientUnits="userSpaceOnUse"> <stop stop-color="#F2994A"></stop> <stop offset="1" stop-color="#FFC960"></stop> </linearGradient> <linearGradient id="paint3_linear" x1="857.796" y1="62.6533" x2="871.329" y2="89.4784" gradientUnits="userSpaceOnUse"> <stop stop-color="#219653"></stop> <stop offset="1" stop-color="#4AB668"></stop> </linearGradient> <linearGradient id="paint4_linear" x1="959.325" y1="591.807" x2="976.714" y2="568.293" gradientUnits="userSpaceOnUse"> <stop stop-color="#EB5757"></stop> <stop offset="1" stop-color="#F4795E"></stop> </linearGradient> <linearGradient id="paint5_linear" x1="986.659" y1="468.849" x2="985.63" y2="482.535" gradientUnits="userSpaceOnUse"> <stop stop-color="#515DC8"></stop> <stop offset="1" stop-color="#6666CC"></stop> </linearGradient> <linearGradient id="paint6_linear" x1="715.103" y1="459.235" x2="710.176" y2="467.139" gradientUnits="userSpaceOnUse"> <stop stop-color="#F2C94C"></stop> <stop offset="1" stop-color="#FFE186"></stop> </linearGradient> <linearGradient id="paint7_linear" x1="512.264" y1="57.0662" x2="535.175" y2="49.7787" gradientUnits="userSpaceOnUse"> <stop stop-color="#515DC8"></stop> <stop offset="1" stop-color="#6666CC"></stop> </linearGradient> <linearGradient id="paint8_linear" x1="293.125" y1="462.398" x2="283.584" y2="438.076" gradientUnits="userSpaceOnUse"> <stop stop-color="#219653"></stop> <stop offset="1" stop-color="#4AB668"></stop> </linearGradient> <linearGradient id="paint9_linear" x1="228.934" y1="563.75" x2="250.683" y2="576.845" gradientUnits="userSpaceOnUse"> <stop stop-color="#515DC8"></stop> <stop offset="1" stop-color="#6666CC"></stop> </linearGradient> <linearGradient id="paint10_linear" x1="857.81" y1="222.301" x2="821.55" y2="261.263" gradientUnits="userSpaceOnUse"> <stop stop-color="#219653"></stop> <stop offset="1" stop-color="#4AB668"></stop> </linearGradient> <linearGradient id="paint11_linear" x1="898.546" y1="342.979" x2="895.202" y2="369.516" gradientUnits="userSpaceOnUse"> <stop stop-color="#EB5757"></stop> <stop offset="1" stop-color="#F4795E"></stop> </linearGradient> <linearGradient id="paint12_linear" x1="273.808" y1="331.836" x2="275.534" y2="302.568" gradientUnits="userSpaceOnUse"> <stop stop-color="#EB5757"></stop> <stop offset="1" stop-color="#F4795E"></stop> </linearGradient> <linearGradient id="paint13_linear" x1="689.233" y1="127.769" x2="668.069" y2="173.49" gradientUnits="userSpaceOnUse"> <stop stop-color="#F2994A"></stop> <stop offset="1" stop-color="#FFC960"></stop> </linearGradient> <linearGradient id="paint14_linear" x1="862.533" y1="647.07" x2="884.333" y2="597.816" gradientUnits="userSpaceOnUse"> <stop stop-color="#219653"></stop> <stop offset="1" stop-color="#4AB668"></stop> </linearGradient> <linearGradient id="paint15_linear" x1="720.164" y1="15.8743" x2="703.716" y2="32.0174" gradientUnits="userSpaceOnUse"> <stop stop-color="#EB5757"></stop> <stop offset="1" stop-color="#F4795E"></stop> </linearGradient> <linearGradient id="paint16_linear" x1="781.499" y1="234.262" x2="811.472" y2="190.352" gradientUnits="userSpaceOnUse"> <stop stop-color="#F2994A"></stop> <stop offset="1" stop-color="#FFC960"></stop> </linearGradient> <linearGradient id="paint17_linear" x1="1037.08" y1="324.568" x2="1024.06" y2="292.767" gradientUnits="userSpaceOnUse"> <stop stop-color="#515DC8"></stop> <stop offset="1" stop-color="#6666CC"></stop> </linearGradient> <linearGradient id="paint18_linear" x1="211.497" y1="366.497" x2="193.623" y2="345.512" gradientUnits="userSpaceOnUse"> <stop stop-color="#F2994A"></stop> <stop offset="1" stop-color="#FFC960"></stop> </linearGradient> <linearGradient id="paint19_linear" x1="783.89" y1="398.77" x2="774.764" y2="419.662" gradientUnits="userSpaceOnUse"> <stop stop-color="#EB5757"></stop> <stop offset="1" stop-color="#F4795E"></stop> </linearGradient> <linearGradient id="paint20_linear" x1="214.44" y1="23.6628" x2="189.414" y2="52.6354" gradientUnits="userSpaceOnUse"> <stop stop-color="#EB5757"></stop> <stop offset="1" stop-color="#F4795E"></stop> </linearGradient> <linearGradient id="paint21_linear" x1="341.872" y1="12.8507" x2="379.338" y2="13.8324" gradientUnits="userSpaceOnUse"> <stop stop-color="#515DC8"></stop> <stop offset="1" stop-color="#6666CC"></stop> </linearGradient> <linearGradient id="paint22_linear" x1="705.468" y1="97.7127" x2="688.222" y2="77.5217" gradientUnits="userSpaceOnUse"> <stop stop-color="#219653"></stop> <stop offset="1" stop-color="#4AB668"></stop> </linearGradient> <linearGradient id="paint23_linear" x1="410.722" y1="545.245" x2="390.127" y2="528.484" gradientUnits="userSpaceOnUse"> <stop stop-color="#219653"></stop> <stop offset="1" stop-color="#4AB668"></stop> </linearGradient> <linearGradient id="paint24_linear" x1="891.977" y1="302.489" x2="890.984" y2="278.568" gradientUnits="userSpaceOnUse"> <stop stop-color="#219653"></stop> <stop offset="1" stop-color="#4AB668"></stop> </linearGradient> <linearGradient id="paint25_linear" x1="78.5991" y1="250.713" x2="32.6773" y2="271.39" gradientUnits="userSpaceOnUse"> <stop stop-color="#F2994A"></stop> <stop offset="1" stop-color="#FFC960"></stop> </linearGradient> <linearGradient id="paint26_linear" x1="773.985" y1="554.826" x2="757.62" y2="583.861" gradientUnits="userSpaceOnUse"> <stop stop-color="#515DC8"></stop> <stop offset="1" stop-color="#6666CC"></stop> </linearGradient> <linearGradient id="paint27_linear" x1="178.28" y1="446.726" x2="129.619" y2="446.828" gradientUnits="userSpaceOnUse"> <stop stop-color="#F2C94C"></stop> <stop offset="1" stop-color="#FFE186"></stop> </linearGradient> <linearGradient id="paint28_linear" x1="3.39587" y1="104.784" x2="37.4595" y2="139.297" gradientUnits="userSpaceOnUse"> <stop stop-color="#F2C94C"></stop> <stop offset="1" stop-color="#FFE186"></stop> </linearGradient> </defs> </svg> 