<?xml version="1.0" encoding="UTF-8"?> <svg xmlns="http://www.w3.org/2000/svg" width="64" height="64" viewBox="0 0 64 64" fill="none"> <path d="M25.8346 31.4569C22.3026 33.8254 20.5366 35.0096 20.311 35.6099C19.9149 36.6638 20.4664 37.8369 21.5307 38.2042C22.1369 38.4134 24.1755 37.8088 28.2527 36.5998V36.5998C28.842 36.425 29.1367 36.3376 29.4157 36.3345C29.8967 36.3292 30.3636 36.4975 30.7306 36.8084C30.9435 36.9888 31.1147 37.2441 31.4571 37.7546V37.7546C33.8256 41.2867 35.0098 43.0527 35.6101 43.2783C36.664 43.6744 37.8371 43.1229 38.2044 42.0586C38.4136 41.4524 37.809 39.4138 36.6 35.3366V35.3366C36.4252 34.7472 36.3378 34.4526 36.3347 34.1736C36.3294 33.6925 36.4977 33.2257 36.8086 32.8587C36.989 32.6458 37.2443 32.4746 37.7548 32.1322V32.1322C41.2869 29.7637 43.0529 28.5794 43.2785 27.9791C43.6746 26.9252 43.1231 25.7522 42.0588 25.3849C41.4526 25.1757 39.414 25.7802 35.3368 26.9893V26.9893C34.7474 27.164 34.4528 27.2514 34.1738 27.2545C33.6927 27.2598 33.2259 27.0916 32.8589 26.7806C32.646 26.6003 32.4748 26.345 32.1324 25.8344V25.8344C29.7639 22.3024 28.5796 20.5364 27.9793 20.3108C26.9254 19.9147 25.7524 20.4662 25.3851 21.5305C25.1759 22.1367 25.7804 24.1753 26.9895 28.2524V28.2524C27.1643 28.8418 27.2516 29.1365 27.2547 29.4155C27.26 29.8965 27.0918 30.3634 26.7808 30.7304C26.6005 30.9433 26.3452 31.1145 25.8346 31.4569V31.4569Z" fill="white"></path> </svg> 