<?xml version="1.0" encoding="UTF-8"?> <svg xmlns="http://www.w3.org/2000/svg" width="47" height="47" viewBox="0 0 47 47" fill="none"> <path d="M27.4987 21.9464C29.9526 17.7096 31.1796 15.5913 30.5266 15.0519C30.5193 15.0459 30.5119 15.04 30.5045 15.0342C29.8365 14.5136 28.0343 16.1704 24.4299 19.484V19.484C23.9132 19.959 23.6548 20.1966 23.3323 20.234C23.3281 20.2345 23.3239 20.2349 23.3197 20.2354C22.9968 20.2687 22.6931 20.0928 22.0857 19.741V19.741C17.8489 17.2871 15.7306 16.0602 15.1912 16.7132C15.1852 16.7205 15.1793 16.7278 15.1735 16.7353C14.6529 17.4033 16.3097 19.2055 19.6233 22.8099V22.8099C20.0983 23.3266 20.3358 23.585 20.3733 23.9075C20.3738 23.9117 20.3742 23.9159 20.3746 23.9201C20.408 24.243 20.2321 24.5467 19.8803 25.1541V25.1541C17.4264 29.3908 16.1995 31.5092 16.8525 32.0486C16.8598 32.0546 16.8671 32.0605 16.8746 32.0663C17.5426 32.5869 19.3448 30.9301 22.9492 27.6165V27.6165C23.4659 27.1415 23.7243 26.9039 24.0468 26.8665C24.0509 26.866 24.0551 26.8656 24.0593 26.8651C24.3823 26.8318 24.686 27.0077 25.2934 27.3595V27.3595C29.5301 29.8134 31.6485 31.0403 32.1878 30.3873C32.1938 30.38 32.1997 30.3727 32.2055 30.3652C32.7262 29.6972 31.0694 27.895 27.7558 24.2906V24.2906C27.2807 23.7739 27.0432 23.5155 27.0058 23.193C27.0053 23.1888 27.0048 23.1846 27.0044 23.1804C26.9711 22.8575 27.147 22.5538 27.4987 21.9464V21.9464Z" fill="white"></path> </svg> 