<?xml version="1.0" encoding="UTF-8"?> <svg xmlns="http://www.w3.org/2000/svg" width="48" height="47" viewBox="0 0 48 47" fill="none"> <path d="M27.8073 21.6827C30.2612 17.446 31.4882 15.3276 30.8352 14.7883C30.8279 14.7823 30.8205 14.7764 30.8131 14.7705C30.1451 14.2499 28.3429 15.9067 24.7385 19.2203V19.2203C24.2217 19.6954 23.9634 19.9329 23.6409 19.9703C23.6367 19.9708 23.6325 19.9713 23.6283 19.9717C23.3054 20.005 23.0017 19.8291 22.3943 19.4773V19.4773C18.1575 17.0235 16.0391 15.7965 15.4998 16.4495C15.4938 16.4568 15.4879 16.4642 15.4821 16.4716C14.9615 17.1396 16.6183 18.9418 19.9319 22.5462V22.5462C20.4069 23.0629 20.6444 23.3213 20.6819 23.6438C20.6823 23.648 20.6828 23.6522 20.6832 23.6564C20.7166 23.9793 20.5407 24.283 20.1889 24.8904V24.8904C17.735 29.1272 16.5081 31.2455 17.1611 31.7849C17.1683 31.7909 17.1757 31.7968 17.1832 31.8026C17.8512 32.3232 19.6534 30.6664 23.2578 27.3528V27.3528C23.7745 26.8778 24.0329 26.6403 24.3554 26.6028C24.3595 26.6023 24.3637 26.6019 24.3679 26.6015C24.6909 26.5681 24.9946 26.744 25.602 27.0958V27.0958C29.8387 29.5497 31.9571 30.7766 32.4964 30.1236C32.5024 30.1163 32.5083 30.109 32.5141 30.1015C33.0348 29.4335 31.378 27.6313 28.0644 24.0269V24.0269C27.5893 23.5102 27.3518 23.2518 27.3144 22.9293C27.3139 22.9251 27.3134 22.921 27.313 22.9168C27.2797 22.5938 27.4555 22.2901 27.8073 21.6827V21.6827Z" fill="white"></path> </svg> 