<?xml version="1.0" encoding="UTF-8"?> <svg xmlns="http://www.w3.org/2000/svg" width="72" height="72" viewBox="0 0 72 72" fill="none"> <path fill-rule="evenodd" clip-rule="evenodd" d="M37.9736 29.3115C47.0706 30.2677 45.5603 44.0864 36.6761 43.1526C26.9479 42.1295 28.8408 28.3516 37.9736 29.3115ZM52.7732 57.6758C52.2449 58.0573 51.6928 58.3553 51.1241 58.5935L50.9416 55.3067C50.9644 55.2911 50.9892 55.2781 51.012 55.2619C53.5856 53.4044 54.0312 49.8413 53.1029 45.6273C48.7446 47.4453 43.5213 48.6449 38.3834 49.1755C37.3311 49.2843 36.2697 49.3592 35.2068 49.4135C37.0104 51.1545 38.8547 52.6629 40.6595 53.819C41.4909 52.6811 42.8737 51.9284 44.7229 52.1228C50.537 52.7339 49.5714 61.5648 43.8933 60.968C41.0324 60.6673 39.7477 58.6404 39.7597 56.5994C36.8392 54.8531 33.9044 52.3602 31.1925 49.4838C28.499 49.4375 25.8643 49.2043 23.4292 48.7524C23.5387 53.5487 25.3044 56.5907 27.8513 57.7222C30.0532 58.7005 32.6163 58.0042 35.2364 56.0766L37.5154 57.9394C33.9518 60.7923 30.1741 62.0174 26.6316 60.4438C22.0888 58.4263 20.4351 53.6997 20.553 48.088C15.0765 46.5521 11.1019 43.6993 10.6275 39.2093C10.559 38.5601 10.5611 37.9315 10.6204 37.3221C6.71378 35.2324 8.26956 28.51 13.3945 29.0487C18.8307 29.62 18.3393 37.3751 13.6119 37.8937C13.5871 38.2322 13.5727 38.5699 13.6078 38.9015C13.9123 41.7845 16.61 43.9018 20.7552 45.1779C21.0496 42.669 21.6414 40.0546 22.4314 37.4755C17.4985 28.5437 15.4717 19.0229 21.2167 14.8785C24.463 12.5377 28.3054 12.6982 32.2034 14.3757L30.7241 16.9298C27.5027 15.7244 24.8175 15.9661 22.9784 17.2924C19.3922 19.8792 20.1157 26.3454 23.7372 33.7109C24.0998 32.7725 24.4788 31.8448 24.8827 30.9437C27.801 24.4304 32.2625 17.7647 37.1783 14.0774C36.6644 11.4319 38.4983 8.30791 42.0555 8.68178C47.869 9.2928 46.904 18.1238 41.2258 17.527C40.1695 17.416 39.3323 17.0661 38.6913 16.5707C34.5035 19.7944 30.4017 25.8236 27.573 32.1388C26.7879 33.8912 26.139 35.5519 25.5909 37.1373C26.5509 38.7615 27.6341 40.4057 28.8279 42.0418C29.9816 43.6233 31.2139 45.152 32.4905 46.5852C34.2919 46.5635 36.1604 46.4596 38.0749 46.2615C43.2007 45.7321 48.2858 44.5623 52.3322 42.8559C52.0902 42.1303 51.8181 41.3938 51.5136 40.6496L53.5696 38.0507C54.0975 39.2265 54.559 40.4038 54.9602 41.5706C58.6755 39.5045 60.9817 36.8707 60.6555 33.775C60.3253 30.6489 57.4861 28.485 53.4004 27.1702C52.8053 31.7606 51.277 36.7649 49.2226 41.3835L45.6956 41.9905C45.9584 41.4457 46.2176 40.8951 46.4695 40.3329C48.5524 35.6836 50.0619 30.7553 50.6043 26.4375C46.1898 25.5156 40.86 25.366 35.7446 25.8948C35.3796 25.9325 35.0445 25.9842 34.6892 26.0266L36.0222 22.9267C40.9208 22.471 46.1996 22.6068 50.8201 23.5301C50.8759 20.2575 50.2163 17.5362 48.6151 15.8651L49.4869 12.6969C52.67 14.9263 53.8433 19.1835 53.6525 24.227C59.1022 25.8339 63.141 28.776 63.6363 33.4679C64.1182 38.0348 60.8305 41.6984 55.7875 44.3652C57.1494 49.9011 56.6321 54.8923 52.7732 57.6758ZM26.4467 43.7607C25.7607 42.8212 25.0986 41.8555 24.4647 40.8729C24.0076 42.6699 23.7042 44.3411 23.5514 45.8698C25.0977 46.1708 26.7796 46.3794 28.5626 46.493C27.8307 45.6003 27.1226 44.6878 26.4467 43.7607Z" fill="#9EEEFF"></path> </svg> 