<?xml version="1.0" encoding="UTF-8"?> <svg xmlns="http://www.w3.org/2000/svg" width="87" height="86" viewBox="0 0 87 86" fill="none"> <path d="M27.7386 14.692C23.3677 14.1485 21.1822 13.8768 19.5049 14.7952C18.9631 15.0919 18.4709 15.4716 18.0464 15.9205C16.7325 17.3098 16.4408 19.4927 15.8574 23.8584L12.0042 52.6938C11.4196 57.0689 11.1273 59.2564 12.0334 60.9439C12.3261 61.489 12.7024 61.9849 13.1487 62.4135C14.53 63.7403 16.7156 64.0474 21.0866 64.6617L57.5176 69.7818C61.8783 70.3946 64.0586 70.7011 65.7501 69.8098C66.2966 69.5219 66.7947 69.1502 67.2262 68.7083C68.5621 67.3405 68.889 65.1631 69.5428 60.8084L73.9503 31.4516C74.625 26.9575 74.9624 24.7105 74.0421 22.9829C73.7453 22.4255 73.3611 21.9192 72.9043 21.4832C71.4884 20.1316 69.2336 19.8513 64.7239 19.2905L27.7386 14.692ZM19.2401 30.932C19.5707 28.2717 19.736 26.9416 20.5305 26.0967C20.7869 25.8239 21.0849 25.5933 21.4134 25.4136C22.4308 24.8569 23.7598 25.031 26.4179 25.3792L63.0601 30.1792C65.7579 30.5326 67.1067 30.7093 67.9504 31.5237C68.2226 31.7865 68.4511 32.091 68.6272 32.4258C69.1731 33.4636 68.9655 34.8081 68.5503 37.497L65.1094 59.7796C64.7078 62.3808 64.5069 63.6815 63.7056 64.4978C63.4467 64.7616 63.1482 64.9833 62.8209 65.1551C61.808 65.6866 60.5048 65.5035 57.8983 65.1371L21.9586 60.0861C19.3578 59.7206 18.0574 59.5379 17.2308 58.7498C16.9637 58.4952 16.7379 58.2004 16.5616 57.8762C16.0158 56.8731 16.1778 55.5699 16.5017 52.9636L19.2401 30.932Z" fill="#9EEEFF"></path> <path d="M33.3746 55.2657L47.1652 32.6715L51.332 33.7789L37.8082 56.1609L33.3746 55.2657Z" fill="#9EEEFF"></path> <path d="M21.8429 40.248L31.6005 32.629L34.3382 36.2099L27.662 41.4229L31.7925 48.8179L27.8799 51.056L21.8429 40.248Z" fill="#9EEEFF"></path> <path d="M53.1808 40.0145L57.0935 37.7763L63.1305 48.5844L53.3729 56.2033L50.6352 52.6224L57.3114 47.4094L53.1808 40.0145Z" fill="#9EEEFF"></path> </svg> 