<?xml version="1.0" encoding="UTF-8"?> <svg xmlns="http://www.w3.org/2000/svg" width="41" height="40" viewBox="0 0 41 40" fill="none"> <path d="M16.7595 13.1681C17.8469 4.69197 18.3906 0.453914 19.7768 0.158275C20.0207 0.106259 20.2722 0.100317 20.5183 0.140756C21.9169 0.370593 22.6601 4.57824 24.1466 12.9935V12.9935C24.3604 14.2035 24.4672 14.8085 24.8424 15.2313C24.9161 15.3144 24.9967 15.3913 25.0832 15.4611C25.5233 15.8158 26.1327 15.894 27.3514 16.0503V16.0503C35.8275 17.1377 40.0655 17.6814 40.3612 19.0676C40.4132 19.3115 40.4191 19.563 40.3787 19.8091C40.1488 21.2077 35.9412 21.951 27.5259 23.4375V23.4375C26.3159 23.6512 25.711 23.7581 25.2881 24.1332C25.205 24.2069 25.1282 24.2875 25.0584 24.3741C24.7037 24.8141 24.6255 25.4235 24.4691 26.6422V26.6422C23.3818 35.1183 22.8381 39.3563 21.4518 39.652C21.2079 39.704 20.9565 39.7099 20.7104 39.6695C19.3117 39.4397 18.5685 35.232 17.082 26.8167V26.8167C16.8683 25.6068 16.7614 25.0018 16.3863 24.579C16.3125 24.4958 16.2319 24.419 16.1454 24.3492C15.7053 23.9945 15.096 23.9163 13.8773 23.7599V23.7599C5.40115 22.6726 1.1631 22.1289 0.867462 20.7427C0.815446 20.4988 0.809504 20.2473 0.849943 20.0012C1.07978 18.6025 5.28743 17.8593 13.7027 16.3728V16.3728C14.9127 16.1591 15.5177 16.0522 15.9405 15.6771C16.0236 15.6033 16.1005 15.5227 16.1702 15.4362C16.525 14.9961 16.6031 14.3868 16.7595 13.1681V13.1681Z" fill="white"></path> </svg> 