<?xml version="1.0" encoding="UTF-8"?> <svg xmlns="http://www.w3.org/2000/svg" width="68" height="68" viewBox="0 0 68 68" fill="none"> <path fill-rule="evenodd" clip-rule="evenodd" d="M58.565 16.8368C58.3281 19.1294 54.721 45.7058 53.6543 57.7959C53.3 61.8083 49.774 63.3393 44.7985 62.7926C39.8236 62.2466 21.8109 59.6863 17.0663 59.165C12.3231 58.6437 10.7268 55.6311 11.1038 51.6776C12.2958 39.1546 15.7608 13.7325 16.0839 11.1442C16.6406 6.68141 18.5964 4.74146 22.3481 5.15368C25.3738 5.48693 49.6131 8.43934 53.481 8.95126C57.8934 9.53545 58.9939 12.6913 58.565 16.8368ZM20.9498 10.9809L20.2717 16.7847L22.2612 17.0503C22.7751 15.0354 23.8165 13.6984 26.0869 13.9855C28.9816 14.3522 29.3125 16.873 28.9608 19.8267C28.6091 22.7805 27.763 25.0557 24.8132 24.6823C22.5344 24.3932 21.855 22.826 21.8245 20.7669L19.8318 20.5421L18.6788 30.4084L20.6403 30.6701C21.1549 28.6579 22.1963 27.3229 24.4654 27.6106C27.36 27.9773 27.691 30.4974 27.3393 33.4512C26.9876 36.4056 26.1421 38.6801 23.1923 38.3067C21.0024 38.0297 20.288 36.5722 20.2082 34.633L18.2103 34.4208L17.0864 44.0369L19.0194 44.2952C19.534 42.2837 20.5748 40.9487 22.8445 41.2357C25.7391 41.6018 26.0701 44.1226 25.7184 47.0763C25.3667 50.0307 24.5212 52.3053 21.5708 51.9319C19.3808 51.6542 18.6664 50.1974 18.5866 48.2574L16.6179 48.0486L15.9275 53.9595L48.5704 58.0328L49.3399 51.5197L45.971 51.1623L46.2915 47.9382L49.7092 48.3946L50.9504 37.8939L38.6446 36.589L38.9891 33.122L51.3197 34.7681L52.5635 24.2393L48.7631 23.8103L49.0934 20.6338L52.9289 21.1464L53.664 14.9277L20.9498 10.9809ZM43.0971 26.9495C40.7443 26.6517 40.0955 24.9908 40.1065 22.8327L30.9704 21.8008L31.3383 18.2629L40.501 19.4868C41 17.3775 42.0362 15.9582 44.3709 16.2533C47.2655 16.62 47.5958 19.1402 47.2447 22.0939C46.893 25.0483 46.0476 27.3235 43.0971 26.9495ZM33.6002 28.8158C36.4949 29.1825 36.8258 31.7026 36.4734 34.657C36.1218 37.6108 35.2769 39.886 32.3265 39.5126C29.3767 39.1392 29.1016 36.6258 29.4533 33.672C29.805 30.7183 30.7056 28.4491 33.6002 28.8158ZM31.9041 42.4316C34.7987 42.7976 35.1296 45.3184 34.7779 48.2721C34.4263 51.2259 33.5808 53.5011 30.631 53.1277C27.6812 52.7543 27.4055 50.2409 27.7571 47.2871C28.1088 44.3334 29.0095 42.0642 31.9041 42.4316ZM40.9643 43.626C43.8589 43.9927 44.1898 46.5129 43.8381 49.4673C43.4865 52.421 42.6416 54.6962 39.6906 54.3228C36.7408 53.9494 36.4657 51.4367 36.8173 48.4823C37.169 45.5278 38.0703 43.2593 40.9643 43.626Z" fill="#9EEEFF"></path> </svg> 