<?xml version="1.0" encoding="UTF-8"?> <svg xmlns="http://www.w3.org/2000/svg" width="103" height="103" viewBox="0 0 103 103" fill="none"> <g clip-path="url(#clip0_467_2387)"> <path fill-rule="evenodd" clip-rule="evenodd" d="M59.5633 71.5157L75.4399 45.9177C69.9974 43.9468 66.8908 38.5569 60.3762 34.7576L59.202 43.4833L55.8893 45.6434L51.0891 66.6215L53.0968 69.517L52.5117 77.0103C54.7295 79.42 57.7042 81.3819 61.7576 83.6884L61.2023 86.3616L28.9117 78.3107L29.8245 75.81C34.4278 75.8512 37.9122 75.5908 40.8617 74.53L43.1065 67.1928L46.3187 65.614L51.4473 44.6874L49.7186 40.7324L53.0522 31.7947C46.0201 30.0414 40.9653 31.7216 35.5639 29.9429L37.9624 59.7413C28.3935 63.3426 20.6753 61.4258 13.8771 53.7361L30.9341 27.5684C29.0383 26.1301 27.3195 24.4651 25.814 22.6086L28.2819 20.5942C38.6255 30.8426 41.4973 20.7819 58.5856 27.3919C75.6738 34.0018 72.6702 45.0073 85.0857 42.6917L85.8153 45.7156C84.2271 46.1997 82.5936 46.5065 80.9438 46.6306L83.6366 77.48C74.0361 81.1189 66.3214 79.1878 59.5633 71.5157ZM32.8541 29.7447L19.0365 51.309L34.6437 55.2913L32.8541 29.7447ZM78.1612 47.498L64.6001 69.1641L80.25 72.9752L78.1612 47.498ZM58.804 24.6119C53.6154 23.3183 55.7334 15.8054 60.6077 17.0207C65.482 18.236 63.5456 25.7941 58.804 24.6119Z" fill="#9EEEFF"></path> </g> <defs> <clipPath id="clip0_467_2387"> <rect width="83.9217" height="83.9217" fill="white" transform="translate(20.6445 0.571289) rotate(14)"></rect> </clipPath> </defs> </svg> 