<?xml version="1.0" encoding="UTF-8"?> <svg xmlns="http://www.w3.org/2000/svg" width="99" height="99" viewBox="0 0 99 99" fill="none"> <path d="M46.4213 39.8321C38.9451 33.3488 35.207 30.1072 33.8985 31.221C32.5901 32.3348 35.193 36.5427 40.3989 44.9584L41.1664 46.1991C41.9125 47.4052 42.2855 48.0083 42.2329 48.6625C42.1804 49.3167 41.7158 49.8525 40.7866 50.924L39.8308 52.0262C33.3475 59.5023 30.1059 63.2404 31.2197 64.5489C32.3334 65.8574 36.5413 63.2544 44.957 58.0486L46.1977 57.2811C47.4039 56.535 48.007 56.1619 48.6612 56.2145C49.3154 56.2671 49.8512 56.7317 50.9226 57.6609L52.0248 58.6167C59.501 65.0999 63.2391 68.3416 64.5475 67.2278C65.856 66.114 63.2531 61.9061 58.0472 53.4904L57.2797 52.2497C56.5336 51.0435 56.1606 50.4405 56.2131 49.7862C56.2657 49.132 56.7303 48.5963 57.6595 47.5248L58.6153 46.4226C65.0986 38.9465 68.3402 35.2084 67.2264 33.8999C66.1126 32.5914 61.9048 35.1943 53.4891 40.4002L52.2484 41.1677C51.0422 41.9138 50.4391 42.2869 49.7849 42.2343C49.1307 42.1817 48.5949 41.7171 47.5234 40.7879L46.4213 39.8321Z" fill="white"></path> </svg> 