<?xml version="1.0" encoding="UTF-8"?> <svg xmlns="http://www.w3.org/2000/svg" width="139" height="24" viewBox="0 0 139 24" fill="none"> <path fill-rule="evenodd" clip-rule="evenodd" d="M12.8369 6.5852C12.8369 6.04212 12.9815 5.59489 13.2702 5.24296C13.5594 4.89121 13.9829 4.71533 14.5407 4.71533C15.0989 4.71533 15.5273 4.89121 15.8262 5.24296C16.1253 5.59489 16.2746 6.04212 16.2746 6.5852V11.3197C16.2746 12.5659 16.145 13.692 15.886 14.6972C15.6269 15.7026 15.2084 16.6222 14.6305 17.4567C14.0527 18.291 13.2356 18.9395 12.1793 19.4018C11.1231 19.8642 9.86753 20.0952 8.41264 20.0952C5.60263 20.0952 3.57495 19.2962 2.32905 17.6979C1.08352 16.0994 0.460937 13.9935 0.460937 11.38L0.460938 6.5852C0.460938 6.04212 0.615216 5.59489 0.924137 5.24296C1.23342 4.89121 1.66671 4.71533 2.22474 4.71533C2.80265 4.71533 3.25089 4.89121 3.56984 5.24296C3.88879 5.59489 4.04818 6.04212 4.04818 6.5852V11.5309C4.04818 15.0892 5.51273 16.8684 8.44237 16.8684C11.372 16.8684 12.8369 15.0692 12.8369 11.4703V6.5852Z" fill="white"></path> <path fill-rule="evenodd" clip-rule="evenodd" d="M26.5715 20.0949C23.9163 20.0949 21.8394 19.4315 20.3396 18.1047C18.8399 16.7779 18.0898 14.9182 18.0898 12.5258C18.0898 10.1131 18.8707 8.20825 20.4316 6.81081C21.9929 5.41338 24.1255 4.71484 26.8297 4.71484C28.9196 4.71484 30.5052 4.99613 31.5868 5.55908C32.6438 6.10198 32.9512 6.77586 32.5086 7.57981C32.0909 8.30373 31.2797 8.61041 30.075 8.30906C28.8213 8.00754 27.4211 7.76065 26.5855 7.76065C25.1595 7.76065 24.0412 8.18305 23.2295 9.02728C22.4182 9.87171 22.0128 11.0377 22.0128 12.5258C22.0128 13.933 22.4366 15.0389 23.2851 15.8428C24.1331 16.6471 25.2457 17.0493 26.6224 17.0493C27.6058 17.0493 29.1408 16.7678 30.5173 16.2047C31.6975 15.7424 32.5334 15.8428 33.0249 16.5062C33.5906 17.2702 33.3448 18.0039 32.2876 18.708C30.8615 19.6326 28.9564 20.0949 26.5715 20.0949Z" fill="white"></path> <path fill-rule="evenodd" clip-rule="evenodd" d="M55.6754 5.09432C56.024 4.7628 56.4976 4.59668 57.0952 4.59668C57.6932 4.59668 58.1717 4.7628 58.5304 5.09432C58.8889 5.4262 59.0684 5.87343 59.0684 6.43656C59.0684 7.01956 58.8889 7.47158 58.5304 7.79334C58.1717 8.1151 57.6932 8.27608 57.0952 8.27608C56.4976 8.27608 56.024 8.12007 55.6754 7.80843C55.3267 7.49678 55.1523 7.03943 55.1523 6.43656C55.1523 5.87343 55.3267 5.4262 55.6754 5.09432Z" fill="white"></path> <path fill-rule="evenodd" clip-rule="evenodd" d="M52.032 5.21297C51.7332 4.88109 51.3148 4.71533 50.7765 4.71533C50.2385 4.71533 49.8249 4.88109 49.5361 5.21297C49.247 5.54449 49.1024 5.9621 49.1024 6.46452V10.5507H38.9915V6.46452C38.9915 5.9621 38.8422 5.54449 38.5429 5.21297C38.2442 4.88109 37.8257 4.71533 37.2874 4.71533C36.7494 4.71533 36.3358 4.88109 36.0469 5.21297C35.7579 5.54449 35.6133 5.9621 35.6133 6.46452V18.0447C35.6133 18.5475 35.7579 18.9647 36.0469 19.2962C36.3358 19.6281 36.7494 19.7939 37.2874 19.7939C37.8257 19.7939 38.2442 19.6281 38.5429 19.2962C38.8422 18.9647 38.9915 18.5475 38.9915 18.0447V13.9585H49.1024V18.0447C49.1024 18.5475 49.247 18.9647 49.5361 19.2962C49.8249 19.6281 50.2385 19.7939 50.7765 19.7939C51.3148 19.7939 51.7332 19.6281 52.032 19.2962C52.3313 18.9647 52.4807 18.5475 52.4807 18.0447V6.46452C52.4807 5.9621 52.3313 5.54449 52.032 5.21297Z" fill="white"></path> <path fill-rule="evenodd" clip-rule="evenodd" d="M55.4219 11.7741C55.4219 11.2715 55.5665 10.8541 55.8555 10.5225C56.1444 10.1907 56.5578 10.0249 57.0959 10.0249C57.6343 10.0249 58.0526 10.1907 58.3515 10.5225C58.6506 10.8541 58.7999 11.2715 58.7999 11.7741V18.0438C58.7999 18.5466 58.6506 18.9638 58.3515 19.2953C58.0526 19.6272 57.6343 19.793 57.0959 19.793C56.5578 19.793 56.1444 19.6272 55.8555 19.2953C55.5665 18.9638 55.4219 18.5466 55.4219 18.0438V11.7741Z" fill="white"></path> <path fill-rule="evenodd" clip-rule="evenodd" d="M65.3516 12.4004C65.3516 7.78573 65.3516 5.4784 66.459 3.82093C66.9385 3.10339 67.5546 2.48732 68.2721 2.00788C69.9296 0.900391 72.2369 0.900391 76.8516 0.900391H126.959C131.573 0.900391 133.881 0.900391 135.538 2.00788C136.256 2.48732 136.872 3.10339 137.351 3.82093C138.459 5.4784 138.459 7.78573 138.459 12.4004C138.459 17.0151 138.459 19.3224 137.351 20.9799C136.872 21.6974 136.256 22.3135 135.538 22.7929C133.881 23.9004 131.573 23.9004 126.959 23.9004H76.8516C72.2369 23.9004 69.9296 23.9004 68.2721 22.7929C67.5546 22.3135 66.9385 21.6974 66.459 20.9799C65.3516 19.3224 65.3516 17.0151 65.3516 12.4004ZM132.369 16.508L130.686 13.4844L127.289 7.13784C126.959 6.53911 126.418 6.23975 125.756 6.23975C125.065 6.23975 124.524 6.53911 124.164 7.13784L120.767 13.4844L119.084 16.508C118.813 17.1067 118.874 17.9749 119.986 18.1245C120.887 18.2742 121.669 17.7653 122.06 16.8672L122.901 15.2207H128.522L129.363 16.8672C129.754 17.7653 130.535 18.2742 131.437 18.1245C132.579 17.9449 132.639 17.1067 132.369 16.508ZM124.013 12.8258L125.606 9.74232C125.636 9.68244 125.726 9.68244 125.756 9.74232L127.319 12.8258C127.349 12.8856 127.319 12.9455 127.229 12.9455H124.073C124.013 12.9455 123.983 12.8856 124.013 12.8258ZM106.51 16.9098V10.6566L109.268 14.0809C109.546 14.4282 109.898 14.6105 110.324 14.6105C110.731 14.6105 111.083 14.4282 111.361 14.0809L114.138 10.6068V16.9098C114.138 17.588 114.786 18.1505 115.619 18.1505C116.452 18.1505 117.1 17.588 117.1 16.9098V7.67873C117.1 6.81871 116.471 6.23975 115.453 6.23975C115.138 6.23975 114.841 6.30598 114.564 6.45458C114.027 6.736 113.86 6.95118 113.323 7.66226L110.324 11.3737L107.565 7.64579C107.102 7.09977 106.732 6.71953 106.454 6.52081C106.176 6.33893 105.787 6.23975 105.287 6.23975C104.232 6.23975 103.547 6.86847 103.547 7.7285V16.9098C103.547 17.588 104.195 18.1505 105.028 18.1505C105.862 18.1505 106.51 17.588 106.51 16.9098ZM89.5019 16.5218C88.1881 15.4362 87.5312 13.9884 87.5312 12.1953C87.5312 10.5008 88.1881 9.06939 89.4832 7.93426C90.7783 6.79912 92.4487 6.23975 94.5136 6.23975C96.5594 6.23975 98.2298 6.78274 99.5436 7.86839C100.839 8.95438 101.496 10.4021 101.496 12.1953C101.496 13.9225 100.839 15.3539 99.5249 16.4727C98.1921 17.5914 96.5216 18.1505 94.5136 18.1505C92.4678 18.1505 90.797 17.6078 89.5019 16.5218ZM91.7918 9.66188C91.0789 10.3035 90.7222 11.1588 90.7222 12.1953C90.7222 13.1823 91.0976 14.0048 91.8296 14.6795C92.5616 15.3539 93.4623 15.6829 94.5136 15.6829C95.7148 15.6829 96.6532 15.3539 97.3101 14.6959C97.967 14.0543 98.305 13.2154 98.305 12.1953C98.305 11.1588 97.9483 10.3199 97.2163 9.67826C96.4842 9.03663 95.5832 8.70763 94.5136 8.70763C93.4062 8.70763 92.5052 9.02025 91.7918 9.66188ZM83.3932 7.56643C84.0475 8.03815 84.5828 8.68675 84.9397 9.54173C85.3263 10.3672 85.5048 11.0748 85.475 12.2246C85.475 14.4652 84.8505 15.615 83.5717 16.6174C82.2928 17.6198 80.5976 18.121 78.5158 18.121L74.1142 18.1505C73.6681 18.1505 73.3409 18.0325 73.103 17.7672C72.8651 17.5019 72.7461 17.1776 72.7461 16.7648V7.68436C72.7461 7.3011 72.8651 6.94731 73.103 6.68198C73.3409 6.41664 73.6681 6.29871 74.1142 6.29871L78.486 6.23975C79.4972 6.23975 80.3894 6.35767 81.1924 6.56405C81.9954 6.77042 82.7389 7.09472 83.3932 7.56643ZM75.7499 15.2612H78.6347C81.4898 15.2612 82.9174 14.5537 82.8876 12.2246C82.8876 9.86603 81.4601 9.01105 78.5752 9.01105H75.5714C75.512 9.01105 75.4525 9.07001 75.4525 9.12898V14.9664C75.4525 15.1433 75.6012 15.2612 75.7499 15.2612Z" fill="white"></path> </svg> 