<?xml version="1.0" encoding="UTF-8"?> <svg xmlns="http://www.w3.org/2000/svg" width="73" height="73" viewBox="0 0 73 73" fill="none"> <path d="M32.3367 21.9631C29.7417 17.7503 28.4442 15.644 27.6531 15.9792C26.8621 16.3145 27.4733 18.7117 28.6959 23.5062L31.0851 32.8765C31.2603 33.5637 31.348 33.9073 31.2249 34.2115C31.1018 34.5157 30.7999 34.7016 30.1961 35.0735L21.9626 40.1452C17.7499 42.7403 15.6435 44.0378 15.9788 44.8288C16.314 45.6199 18.7113 45.0086 23.5057 43.7861L32.8761 41.3968C33.5632 41.2216 33.9068 41.134 34.211 41.2571C34.5152 41.3802 34.7012 41.6821 35.0731 42.2859L40.1448 50.5193C42.7398 54.7321 44.0373 56.8385 44.8283 56.5032C45.6194 56.1679 45.0081 53.7707 43.7856 48.9762L41.3964 39.6059C41.2211 38.9187 41.1335 38.5752 41.2566 38.271C41.3797 37.9668 41.6816 37.7808 42.2854 37.4089L50.5189 32.3372C54.7316 29.7422 56.838 28.4447 56.5027 27.6536C56.1675 26.8626 53.7702 27.4738 48.9758 28.6963L39.6054 31.0856C38.9183 31.2608 38.5747 31.3484 38.2705 31.2253C37.9663 31.1022 37.7803 30.8003 37.4084 30.1965L32.3367 21.9631Z" fill="white"></path> </svg> 