<?xml version="1.0" encoding="UTF-8"?> <svg xmlns="http://www.w3.org/2000/svg" width="14" height="14" viewBox="0 0 14 14" fill="none"> <path d="M7.86814 3.31142C7.67739 1.53106 7.58201 0.640882 7.27141 0.627057C6.9608 0.613232 6.78671 1.49142 6.43854 3.24779L6.0306 5.30572C5.9807 5.55744 5.95575 5.68331 5.86813 5.76346C5.7805 5.84362 5.65292 5.85729 5.39775 5.88463L3.31173 6.10813C1.53137 6.29888 0.641186 6.39426 0.627362 6.70487C0.613537 7.01548 1.49172 7.18956 3.2481 7.53773L5.30602 7.94567C5.55775 7.99557 5.68361 8.02052 5.76377 8.10815C5.84392 8.19577 5.85759 8.32335 5.88493 8.57852L6.10843 10.6645C6.29919 12.4449 6.39456 13.3351 6.70517 13.3489C7.01578 13.3627 7.18987 12.4845 7.53803 10.7282L7.94598 8.67025C7.99588 8.41853 8.02083 8.29266 8.10845 8.21251C8.19608 8.13235 8.32366 8.11868 8.57882 8.09134L10.6649 7.86784C12.4452 7.67709 13.3354 7.58171 13.3492 7.2711C13.363 6.96049 12.4849 6.78641 10.7285 6.43824L8.67056 6.0303C8.41883 5.9804 8.29297 5.95545 8.21281 5.86782C8.13265 5.7802 8.11898 5.65261 8.09165 5.39745L7.86814 3.31142Z" fill="white"></path> </svg> 