<?xml version="1.0" encoding="UTF-8"?> <svg xmlns="http://www.w3.org/2000/svg" width="80" height="80" viewBox="0 0 80 80" fill="none"> <path d="M33.7186 34.1606C24.2675 33.215 19.542 32.7422 19.0532 34.2927C19.0313 34.362 19.0133 34.4325 18.9991 34.5037C18.6817 36.0982 23.052 37.957 31.7924 41.6746V41.6746C33.0465 42.208 33.6735 42.4746 34.0072 43.0084C34.0244 43.0359 34.0409 43.0638 34.0568 43.0921C34.3641 43.6415 34.2963 44.3195 34.1606 45.6754V45.6754C33.2151 55.1264 32.7423 59.8519 34.2928 60.3408C34.3621 60.3627 34.4325 60.3807 34.5038 60.3949C36.0983 60.7122 37.9571 56.342 41.6747 47.6015V47.6015C42.208 46.3475 42.4747 45.7205 43.0084 45.3868C43.0359 45.3696 43.0639 45.353 43.0922 45.3372C43.6415 45.0298 44.3195 45.0977 45.6755 45.2333V45.2333C55.1265 46.1789 59.852 46.6517 60.3409 45.1012C60.3627 45.0319 60.3808 44.9614 60.395 44.8902C60.7123 43.2957 56.3421 41.4369 47.6016 37.7193V37.7193C46.3476 37.1859 45.7206 36.9193 45.3868 36.3855C45.3696 36.358 45.3531 36.3301 45.3373 36.3018C45.0299 35.7524 45.0977 35.0745 45.2334 33.7185V33.7185C46.179 24.2675 46.6518 19.542 45.1012 19.0531C45.0319 19.0313 44.9615 19.0132 44.8902 18.999C43.2957 18.6817 41.4369 23.0519 37.7194 31.7924V31.7924C37.186 33.0464 36.9193 33.6734 36.3856 34.0071C36.3581 34.0243 36.3302 34.0409 36.3018 34.0567C35.7525 34.3641 35.0745 34.2962 33.7186 34.1606V34.1606Z" fill="white"></path> </svg> 