<?xml version="1.0" encoding="UTF-8"?> <svg xmlns="http://www.w3.org/2000/svg" width="99" height="99" viewBox="0 0 99 99" fill="none"> <path d="M41.4377 25.8536C38.8427 21.6408 37.5452 19.5345 36.7542 19.8697C35.9631 20.205 36.5744 22.6022 37.7969 27.3967L42.3164 45.1215C42.4916 45.8087 42.5792 46.1523 42.4561 46.4565C42.333 46.7607 42.0312 46.9466 41.4274 47.3186L25.8531 56.9121C21.6403 59.5072 19.5339 60.8047 19.8692 61.5957C20.2045 62.3868 22.6017 61.7755 27.3962 60.553L45.121 56.0335C45.8081 55.8582 46.1517 55.7706 46.4559 55.8937C46.7601 56.0168 46.9461 56.3187 47.318 56.9225L56.9116 72.4968C59.5066 76.7096 60.8041 78.816 61.5952 78.4807C62.3862 78.1454 61.7749 75.7482 60.5524 70.9537L56.0329 53.2289C55.8577 52.5417 55.7701 52.1982 55.8932 51.894C56.0163 51.5898 56.3182 51.4038 56.922 51.0319L72.4963 41.4383C76.709 38.8433 78.8154 37.5458 78.4801 36.7547C78.1449 35.9637 75.7476 36.5749 70.9532 37.7974L53.2283 42.317C52.5412 42.4922 52.1976 42.5798 51.8934 42.4567C51.5892 42.3336 51.4032 42.0317 51.0313 41.4279L41.4377 25.8536Z" fill="white"></path> </svg> 