<?xml version="1.0" encoding="UTF-8"?> <svg xmlns="http://www.w3.org/2000/svg" width="59" height="59" viewBox="0 0 59 59" fill="none"> <path fill-rule="evenodd" clip-rule="evenodd" d="M43.2479 51.0505L13.3278 49.3143C13.3278 49.3143 11.1764 47.2419 12.9859 43.8866C14.5735 40.9424 23.4293 20.9698 23.4293 20.9698L23.7626 11.3932L22.1946 11.3085L22.1468 6.19061L40.3498 7.11515L39.6481 12.2489L37.9465 12.1575L36.9631 21.9149C36.9631 21.9149 43.5497 42.9685 44.7376 45.979C45.9064 48.9425 43.2479 51.0505 43.2479 51.0505ZM33.1826 22.0107L34.1405 11.9529L27.5447 11.5974L27.0168 21.6879L16.6875 44.9793L17.2165 46.1007L40.157 47.5109L41.0458 46.3666L33.1826 22.0107ZM24.0474 34.5779C28.0245 36.0493 30.6881 31.7685 34.414 34.1315L37.528 44.3621L19.7442 43.9102L24.0474 34.5779Z" fill="#9EEEFF"></path> </svg> 