<?xml version="1.0" encoding="UTF-8"?> <svg xmlns="http://www.w3.org/2000/svg" width="167" height="23" viewBox="0 0 167 23" fill="none"> <g clip-path="url(#clip0_380_219)"> <path d="M167 8.70878C167 6.373 164.449 0.213867 157.225 0.213867C150 0.213867 147.449 6.373 147.449 8.70878V17.0232C147.449 18.3974 148.958 19.2533 150.126 18.5289C152.84 16.8428 156.113 13.3984 157.225 7.22379C158.336 13.3984 161.609 16.8428 164.323 18.5289C165.488 19.2533 167 18.3974 167 17.0232V8.70878Z" fill="#999999"></path> <path d="M108.766 0H108.371C105.563 0 103.301 0.894609 101.542 2.73539C99.7825 4.52718 98.9004 6.80367 98.9004 9.51585C98.9004 12.3724 99.7799 14.6721 101.562 16.4175C103.344 18.1371 105.606 19.0085 108.371 19.0085H108.766C111.531 19.0085 113.795 18.1371 115.575 16.4175C117.357 14.6747 118.237 12.375 118.237 9.51585C118.237 6.80367 117.357 4.52718 115.596 2.73539C113.837 0.894609 111.572 0 108.766 0ZM111.918 12.54C111.046 13.3263 109.952 13.6228 108.738 13.6228H108.397C107.182 13.6228 106.089 13.3289 105.217 12.54C104.345 11.7537 104.002 10.7946 104.002 9.49007C104.002 8.13914 104.348 7.25226 105.196 6.49172C106.027 5.72859 107.1 5.35992 108.376 5.35992H108.758C110.035 5.35992 111.108 5.72859 111.938 6.49172C112.79 7.25484 113.133 8.13914 113.133 9.49007C113.133 10.7946 112.787 11.7537 111.918 12.54Z" fill="#999999"></path> <path d="M45.2911 0.850664C44.93 1.28121 44.7417 1.83551 44.7649 2.39754L44.7598 16.67C44.7598 17.2269 44.9377 17.7683 45.2937 18.1937C45.4871 18.3999 45.7218 18.5624 45.9849 18.6655C46.248 18.7712 46.4621 18.7892 46.8051 18.7892C47.3803 18.7892 47.8342 18.6861 48.2237 18.3355L59.6187 6.94535V16.6675C59.5981 17.2243 59.789 17.7683 60.15 18.1911C60.3435 18.3974 60.5782 18.5598 60.8413 18.6655C61.1018 18.7712 61.321 18.797 61.6666 18.797C62.0122 18.797 62.265 18.7686 62.5307 18.6629C62.7963 18.5572 63.0336 18.3974 63.2322 18.1911C63.6036 17.7735 63.7997 17.2269 63.7764 16.6675V2.39754C63.779 1.79168 63.6011 1.28894 63.2271 0.868711C62.835 0.500039 62.3914 0.213867 61.8059 0.213867C61.2204 0.213867 60.6814 0.340195 60.279 0.742383L48.9149 12.1016V2.39754C48.9149 1.7659 48.7473 1.29152 48.3836 0.868711C48.185 0.657304 47.9425 0.492305 47.6743 0.384023C47.4061 0.275742 47.1481 0.216445 46.7974 0.216445C46.4466 0.216445 46.2402 0.275742 45.9797 0.378867C45.7192 0.481992 45.4845 0.644414 45.2911 0.850664Z" fill="#999999"></path> <path d="M121.796 18.1937C121.994 18.3999 122.232 18.5624 122.497 18.6655C122.763 18.7712 123.016 18.7996 123.361 18.7996C123.707 18.7996 123.926 18.7738 124.187 18.6681C124.45 18.5624 124.684 18.4025 124.878 18.1937C125.239 17.7709 125.43 17.2269 125.409 16.67V6.94793L131.494 13.0297C132.239 13.7748 133.451 13.7748 134.197 13.0297L140.281 6.94793V16.67C140.26 17.2269 140.449 17.7709 140.81 18.1937C141.003 18.4025 141.241 18.5624 141.501 18.6681C141.764 18.7738 141.983 18.7996 142.329 18.7996C142.672 18.7996 142.927 18.7712 143.193 18.6655C143.456 18.5624 143.696 18.3999 143.892 18.1937C144.263 17.776 144.459 17.2295 144.439 16.67V2.39754C144.439 1.79168 144.261 1.28894 143.889 0.868711C143.497 0.502617 143.054 0.213867 142.468 0.213867C141.88 0.213867 141.341 0.342773 140.941 0.742383L132.845 8.83511L124.749 0.742383C124.347 0.342773 123.808 0.213867 123.222 0.213867C122.637 0.213867 122.19 0.502617 121.801 0.868711C121.427 1.28894 121.249 1.79168 121.251 2.39754V16.67C121.231 17.2295 121.424 17.776 121.796 18.1937Z" fill="#999999"></path> <path d="M69.8259 13.7051C69.0599 13.7051 68.4357 13.9448 67.9792 14.4527C67.5485 14.9348 67.3086 15.5381 67.3086 16.26C67.3086 16.9819 67.5253 17.5852 67.956 18.0673C68.3867 18.5494 69.0109 18.7891 69.8259 18.7891C70.641 18.7891 71.2651 18.5494 71.7191 18.0673C72.1756 17.5852 72.3897 16.9819 72.3897 16.26C72.3897 15.5613 72.1498 14.958 71.6933 14.4527C71.2419 13.9474 70.6177 13.7051 69.8259 13.7051Z" fill="#999999"></path> <path d="M22.9275 0.853127C22.5613 1.27078 22.3652 1.87406 22.3652 2.46445V5.44734C22.3652 8.54367 22.9997 10.6809 24.2713 11.9081C26.0071 13.6277 28.5889 14.3883 31.9135 14.3883C34.6501 14.3883 36.0197 13.7747 37.5595 13.1379V16.6983C37.5595 17.3119 37.7271 17.8198 38.0934 18.2116C38.4596 18.6035 38.9781 18.7917 39.6383 18.7917C40.3218 18.7917 40.8944 18.6061 41.2349 18.2116C41.6011 17.8198 41.7456 17.1726 41.7456 16.6983V2.46445C41.7456 1.94883 41.5392 1.2218 41.1704 0.829924C40.8041 0.438049 40.2909 0.216331 39.6306 0.216331C38.9471 0.216331 38.4338 0.412268 38.0908 0.829924C37.7478 1.24758 37.5543 1.82766 37.5543 2.46445V8.83758C36.4298 9.94359 34.8435 10.6062 32.2282 10.6062C31.0314 10.6062 28.8159 10.2865 27.4721 9.03351C26.7628 8.37094 26.5513 7.04578 26.5513 5.2282V2.46445C26.5513 1.87406 26.3708 1.27078 26.0045 0.853127C25.6383 0.435471 25.1199 0.216331 24.4621 0.216331C23.8019 0.213753 23.2938 0.435471 22.9275 0.853127Z" fill="#999999"></path> <path d="M0.53648 0.809414C0.172808 1.22191 0 1.72465 0 2.3434V2.3666C0 5.36496 0.755715 7.51769 2.26714 9.44355C3.80179 11.372 6.27269 12.3362 9.7237 12.3362C11.4982 12.3362 13.0329 12.0475 14.3276 11.4932C14.4721 11.421 14.8074 11.2766 14.9518 11.2276C14.0878 14.1435 11.6659 14.8653 9.19754 14.8911C6.70342 14.9143 5.45765 14.3858 3.99523 13.3004C2.74946 12.3852 1.76419 12.7693 1.16581 13.566C0.46942 14.507 0.613857 15.5666 1.8132 16.554C3.5387 18.0003 6.31912 18.7944 9.22075 18.7944C10.9953 18.7944 13.0586 18.5082 14.3302 17.9539C15.625 17.3996 16.6335 16.6056 17.3273 15.5924C18.0237 14.5792 18.5498 13.4706 18.8619 12.2666C19.174 11.0626 19.3571 9.68331 19.3571 8.19058V2.46457C19.3571 1.81488 19.174 1.27605 18.7897 0.840351C18.4312 0.407226 17.9024 0.213867 17.206 0.213867C16.5354 0.213867 16.0067 0.43043 15.6482 0.840351C15.2897 1.27348 15.1839 1.80457 15.1839 2.45426V2.57543C15.1839 6.93761 13.1463 8.43035 9.5741 8.43035C6.00187 8.43035 4.15772 6.59988 4.15772 2.52644V2.3434C4.15772 1.72465 3.97459 1.19871 3.61092 0.809414C3.22404 0.396914 2.72109 0.213867 2.03759 0.213867C1.4031 0.213867 0.876938 0.396914 0.53648 0.809414Z" fill="#999999"></path> <path d="M97.4075 22.1666C97.766 21.834 97.9646 21.3622 97.9517 20.8749V17.5517C97.9517 16.4534 97.1548 14.904 95.2977 14.8576V3.24828C95.2977 1.58797 94.0752 0.242188 92.4141 0.242188H83.263C81.5865 0.242188 80.2866 1.59312 80.2453 3.19156C80.1576 6.4039 79.6031 9.39453 78.9377 11.7793C78.592 13.0219 78.2258 14.0584 77.9008 14.855C77.7976 14.855 77.7048 14.855 77.6274 14.855C75.7059 14.855 74.8934 16.4405 74.8934 17.5517V20.8749C74.8779 21.3648 75.0765 21.834 75.4376 22.1666C75.9432 22.5249 76.312 22.6641 76.9645 22.6641C77.6171 22.6641 78.1071 22.5172 78.494 22.1666C78.8629 21.8391 79.0666 21.3673 79.0511 20.8749V18.7944H93.7966V20.8749C93.7811 21.3673 93.9849 21.8417 94.3537 22.1666C94.7406 22.5172 95.2436 22.6641 95.8987 22.6641C96.5538 22.6641 96.8994 22.5249 97.4075 22.1666ZM91.1323 4.14804V14.8524C88.4782 14.8524 85.0994 14.8524 82.3422 14.8524C82.5512 14.2414 82.7549 13.5866 82.9484 12.8956C83.6138 10.5134 84.1812 7.32945 84.3618 4.14804H91.1323V4.14804Z" fill="#999999"></path> </g> <defs> <clipPath id="clip0_380_219"> <rect width="167" height="22.6643" fill="white"></rect> </clipPath> </defs> </svg> 