<?xml version="1.0" encoding="UTF-8"?> <svg xmlns="http://www.w3.org/2000/svg" width="75" height="76" viewBox="0 0 75 76" fill="none"> <g clip-path="url(#clip0_468_3075)"> <g clip-path="url(#clip1_468_3075)"> <path fill-rule="evenodd" clip-rule="evenodd" d="M20.4991 28.9849C20.8245 28.8016 21.2533 28.8528 22.1108 28.9552L54.9719 32.8778C55.8403 32.9815 56.2745 33.0333 56.5488 33.292C56.6373 33.3754 56.7119 33.4725 56.7698 33.5794C56.9493 33.911 56.8877 34.3439 56.7647 35.2098L56.7647 35.2098L53.2651 59.8402C53.1466 60.6742 53.0874 61.0913 52.8343 61.3565C52.7526 61.4422 52.658 61.5147 52.5539 61.5713C52.232 61.7466 51.8139 61.6953 50.9777 61.5926L18.8867 57.6523C18.045 57.549 17.6242 57.4973 17.3536 57.2473C17.2661 57.1666 17.1919 57.0726 17.1334 56.9689C16.9526 56.648 16.9993 56.2266 17.0928 55.3838L19.8224 30.7711C19.9176 29.9127 19.9651 29.4836 20.2175 29.2083C20.299 29.1195 20.3941 29.044 20.4991 28.9849ZM36.2073 55.2762C22.0031 53.5322 25.1132 33.5045 38.4461 35.1415C51.7331 36.773 49.1862 56.8698 36.2073 55.2762Z" fill="#9EEEFF"></path> <path d="M29.7453 13.9399L41.5907 4.68526L50.8453 16.5307L49.8995 24.2339L54.5011 30.3659L22.8775 26.6105L28.7737 21.8524L29.7453 13.9399Z" fill="#9EEEFF"></path> <path d="M18.0771 66.0527L18.641 60.7674L50.2911 64.6535L49.5597 69.9183L18.0771 66.0527Z" fill="#9EEEFF"></path> <path d="M41.5644 50.5881L39.6842 52.0571L34.6074 46.3342L38.365 39.0931L40.4169 40.098L37.3258 45.9986L41.5644 50.5881Z" fill="#9EEEFF"></path> </g> </g> <defs> <clipPath id="clip0_468_3075"> <rect width="67.1322" height="67.1322" fill="white" transform="translate(8.27344 0.59375) rotate(7)"></rect> </clipPath> <clipPath id="clip1_468_3075"> <rect width="63.7756" height="63.7756" fill="white" transform="translate(9.94141 0.798828) rotate(7)"></rect> </clipPath> </defs> </svg> 