<?xml version="1.0" encoding="UTF-8"?> <svg xmlns="http://www.w3.org/2000/svg" width="139" height="24" viewBox="0 0 139 24" fill="none"> <path fill-rule="evenodd" clip-rule="evenodd" d="M12.833 5.9353C12.833 5.39222 12.9776 4.94499 13.2663 4.59306C13.5555 4.2413 13.979 4.06543 14.5368 4.06543C15.095 4.06543 15.5234 4.2413 15.8223 4.59306C16.1214 4.94499 16.2707 5.39222 16.2707 5.9353V10.6698C16.2707 11.916 16.1411 13.0421 15.8821 14.0473C15.623 15.0527 15.2045 15.9723 14.6265 16.8068C14.0488 17.6411 13.2317 18.2896 12.1754 18.7519C11.1192 19.2143 9.86362 19.4453 8.40874 19.4453C5.59872 19.4453 3.57104 18.6463 2.32515 17.048C1.07961 15.4495 0.457031 13.3436 0.457031 10.7301L0.457031 5.9353C0.457031 5.39222 0.611309 4.94499 0.92023 4.59306C1.22952 4.2413 1.66281 4.06543 2.22084 4.06543C2.79874 4.06543 3.24699 4.2413 3.56594 4.59306C3.88489 4.94499 4.04427 5.39222 4.04427 5.9353V10.881C4.04427 14.4393 5.50882 16.2185 8.43846 16.2185C11.3681 16.2185 12.833 14.4193 12.833 10.8204V5.9353Z" fill="#999999"></path> <path fill-rule="evenodd" clip-rule="evenodd" d="M26.5676 19.4445C23.9124 19.4445 21.8355 18.7811 20.3357 17.4543C18.836 16.1275 18.0859 14.2678 18.0859 11.8755C18.0859 9.46268 18.8668 7.55786 20.4276 6.16042C21.989 4.76299 24.1216 4.06445 26.8258 4.06445C28.9157 4.06445 30.5013 4.34574 31.5829 4.90869C32.6399 5.45159 32.9473 6.12547 32.5047 6.92942C32.0869 7.65334 31.2758 7.96002 30.0711 7.65867C28.8174 7.35715 27.4172 7.11026 26.5816 7.11026C25.1556 7.11026 24.0373 7.53265 23.2256 8.37689C22.4143 9.22131 22.0089 10.3873 22.0089 11.8755C22.0089 13.2826 22.4327 14.3885 23.2812 15.1924C24.1292 15.9967 25.2418 16.3989 26.6185 16.3989C27.6019 16.3989 29.1369 16.1174 30.5133 15.5543C31.6936 15.092 32.5295 15.1924 33.021 15.8558C33.5867 16.6199 33.3409 17.3535 32.2837 18.0576C30.8576 18.9822 28.9525 19.4445 26.5676 19.4445Z" fill="#999999"></path> <path fill-rule="evenodd" clip-rule="evenodd" d="M55.6715 4.44393C56.0201 4.11241 56.4937 3.94629 57.0913 3.94629C57.6893 3.94629 58.1678 4.11241 58.5265 4.44393C58.885 4.77581 59.0645 5.22304 59.0645 5.78617C59.0645 6.36917 58.885 6.82119 58.5265 7.14295C58.1678 7.46471 57.6893 7.62569 57.0913 7.62569C56.4937 7.62569 56.0201 7.46968 55.6715 7.15804C55.3228 6.84639 55.1484 6.38904 55.1484 5.78617C55.1484 5.22304 55.3228 4.77581 55.6715 4.44393Z" fill="#999999"></path> <path fill-rule="evenodd" clip-rule="evenodd" d="M52.0281 4.56307C51.7292 4.23119 51.3109 4.06543 50.7726 4.06543C50.2346 4.06543 49.821 4.23119 49.5321 4.56307C49.2431 4.89458 49.0985 5.31219 49.0985 5.81462V9.90078H38.9876V5.81462C38.9876 5.31219 38.8383 4.89458 38.539 4.56307C38.2403 4.23119 37.8218 4.06543 37.2835 4.06543C36.7455 4.06543 36.3319 4.23119 36.043 4.56307C35.754 4.89458 35.6094 5.31219 35.6094 5.81462V17.3948C35.6094 17.8976 35.754 18.3148 36.043 18.6463C36.3319 18.9782 36.7455 19.144 37.2835 19.144C37.8218 19.144 38.2403 18.9782 38.539 18.6463C38.8383 18.3148 38.9876 17.8976 38.9876 17.3948V13.3086H49.0985V17.3948C49.0985 17.8976 49.2431 18.3148 49.5321 18.6463C49.821 18.9782 50.2346 19.144 50.7726 19.144C51.3109 19.144 51.7292 18.9782 52.0281 18.6463C52.3274 18.3148 52.4767 17.8976 52.4767 17.3948V5.81462C52.4767 5.31219 52.3274 4.89458 52.0281 4.56307Z" fill="#999999"></path> <path fill-rule="evenodd" clip-rule="evenodd" d="M55.418 11.1242C55.418 10.6216 55.5626 10.2042 55.8516 9.87264C56.1405 9.54076 56.5539 9.375 57.092 9.375C57.6304 9.375 58.0487 9.54076 58.3476 9.87264C58.6467 10.2042 58.796 10.6216 58.796 11.1242V17.3939C58.796 17.8967 58.6467 18.3139 58.3476 18.6454C58.0487 18.9773 57.6304 19.1431 57.092 19.1431C56.5539 19.1431 56.1405 18.9773 55.8516 18.6454C55.5626 18.3139 55.418 17.8967 55.418 17.3939V11.1242Z" fill="#999999"></path> <path fill-rule="evenodd" clip-rule="evenodd" d="M65.3516 11.75C65.3516 7.13534 65.3516 4.82801 66.459 3.17054C66.9385 2.453 67.5546 1.83693 68.2721 1.35749C69.9296 0.25 72.2369 0.25 76.8516 0.25H126.959C131.573 0.25 133.881 0.25 135.538 1.35749C136.256 1.83693 136.872 2.453 137.351 3.17054C138.459 4.82801 138.459 7.13534 138.459 11.75C138.459 16.3647 138.459 18.672 137.351 20.3295C136.872 21.047 136.256 21.6631 135.538 22.1425C133.881 23.25 131.573 23.25 126.959 23.25H76.8516C72.2369 23.25 69.9296 23.25 68.2721 22.1425C67.5546 21.6631 66.9385 21.047 66.459 20.3295C65.3516 18.672 65.3516 16.3647 65.3516 11.75ZM132.369 15.8575L130.686 12.8339L127.29 6.4874C126.959 5.88867 126.418 5.5893 125.757 5.5893C125.066 5.5893 124.525 5.88867 124.164 6.4874L120.768 12.8339L119.084 15.8575C118.814 16.4562 118.874 17.3244 119.986 17.4741C120.888 17.6238 121.669 17.1149 122.06 16.2168L122.902 14.5703H128.522L129.364 16.2168C129.754 17.1149 130.536 17.6238 131.438 17.4741C132.58 17.2945 132.64 16.4562 132.369 15.8575ZM124.014 12.1753L125.607 9.09187C125.637 9.032 125.727 9.032 125.757 9.09187L127.32 12.1753C127.35 12.2352 127.32 12.2951 127.23 12.2951H124.074C124.014 12.2951 123.984 12.2352 124.014 12.1753ZM106.511 16.2594V10.0061L109.27 13.4305C109.547 13.7778 109.899 13.96 110.325 13.96C110.732 13.96 111.084 13.7778 111.362 13.4305L114.139 9.95638V16.2594C114.139 16.9375 114.788 17.5 115.621 17.5C116.454 17.5 117.102 16.9375 117.102 16.2594V7.02829C117.102 6.16826 116.472 5.5893 115.454 5.5893C115.139 5.5893 114.843 5.65554 114.565 5.80413C114.028 6.08555 113.861 6.30073 113.325 7.01182L110.325 10.7232L107.566 6.99534C107.103 6.44933 106.733 6.06908 106.455 5.87037C106.178 5.68848 105.789 5.5893 105.289 5.5893C104.233 5.5893 103.548 6.21802 103.548 7.07805V16.2594C103.548 16.9375 104.196 17.5 105.03 17.5C105.863 17.5 106.511 16.9375 106.511 16.2594ZM89.501 15.8714C88.1872 14.7857 87.5303 13.338 87.5303 11.5448C87.5303 9.85032 88.1872 8.41895 89.4823 7.28381C90.7774 6.14868 92.4478 5.5893 94.5127 5.5893C96.5585 5.5893 98.2289 6.1323 99.5427 7.21794C100.838 8.30393 101.495 9.75169 101.495 11.5448C101.495 13.2721 100.838 14.7035 99.524 15.8222C98.1911 16.941 96.5207 17.5 94.5127 17.5C92.4669 17.5 90.796 16.9574 89.501 15.8714ZM91.7909 9.01143C91.078 9.65306 90.7213 10.5083 90.7213 11.5448C90.7213 12.5318 91.0967 13.3544 91.8287 14.0291C92.5607 14.7035 93.4614 15.0325 94.5127 15.0325C95.7139 15.0325 96.6523 14.7035 97.3092 14.0455C97.9661 13.4038 98.3041 12.565 98.3041 11.5448C98.3041 10.5083 97.9474 9.66944 97.2154 9.02781C96.4833 8.38618 95.5823 8.05718 94.5127 8.05718C93.4053 8.05718 92.5043 8.3698 91.7909 9.01143ZM83.3918 6.91599C84.0461 7.3877 84.5814 8.0363 84.9383 8.89128C85.3249 9.71678 85.5034 10.4243 85.4736 11.5741C85.4736 13.8148 84.8491 14.9646 83.5702 15.967C82.2914 16.9693 80.5962 17.4705 78.5143 17.4705L74.1127 17.5C73.6666 17.5 73.3395 17.3821 73.1015 17.1167C72.8636 16.8514 72.7447 16.5271 72.7447 16.1144V7.03392C72.7447 6.65065 72.8636 6.29687 73.1015 6.03153C73.3395 5.76619 73.6666 5.64826 74.1127 5.64826L78.4846 5.5893C79.4958 5.5893 80.388 5.70723 81.191 5.9136C81.994 6.11998 82.7375 6.44428 83.3918 6.91599ZM75.7485 14.6108H78.6333C81.4884 14.6108 82.9159 13.9032 82.8862 11.5741C82.8862 9.21558 81.4586 8.36061 78.5738 8.36061H75.57C75.5105 8.36061 75.451 8.41957 75.451 8.47853V14.316C75.451 14.4929 75.5997 14.6108 75.7485 14.6108Z" fill="#999999"></path> </svg> 