<?xml version="1.0" encoding="UTF-8"?> <svg xmlns="http://www.w3.org/2000/svg" width="49" height="48" viewBox="0 0 49 48" fill="none"> <path d="M15.3215 8.82116C7.34994 2.95773 3.36415 0.0260189 2.14911 1.24106C0.934063 2.45611 3.86578 6.44189 9.7292 14.4135L15.0675 21.6711C15.9079 22.8136 16.328 23.3848 16.328 24.0412C16.328 24.6975 15.9079 25.2688 15.0675 26.4113L9.72921 33.6689C3.86578 41.6405 0.934065 45.6262 2.14911 46.8413C3.36415 48.0563 7.34994 45.1246 15.3215 39.2612L22.5791 33.9229C23.7216 33.0825 24.2929 32.6624 24.9492 32.6624C25.6056 32.6624 26.1768 33.0825 27.3193 33.9229L34.5769 39.2612C42.5485 45.1246 46.5343 48.0563 47.7493 46.8413C48.9644 45.6262 46.0327 41.6405 40.1692 33.6689L34.8309 26.4113C33.9906 25.2688 33.5704 24.6975 33.5704 24.0412C33.5704 23.3848 33.9906 22.8136 34.8309 21.6711L40.1692 14.4135C46.0327 6.44189 48.9644 2.4561 47.7493 1.24106C46.5343 0.026017 42.5485 2.95773 34.5769 8.82116L27.3193 14.1594C26.1768 14.9998 25.6056 15.42 24.9492 15.42C24.2929 15.42 23.7216 14.9998 22.5791 14.1595L15.3215 8.82116Z" fill="white"></path> </svg> 