<?xml version="1.0" encoding="UTF-8"?> <svg xmlns="http://www.w3.org/2000/svg" width="116" height="18" viewBox="0 0 116 18" fill="none"> <path fill-rule="evenodd" clip-rule="evenodd" d="M14.2711 2.29243C14.2711 1.66619 14.4378 1.15047 14.7707 0.744649C15.1042 0.339037 15.5925 0.13623 16.2358 0.13623C16.8794 0.13623 17.3734 0.339037 17.7181 0.744649C18.0629 1.15047 18.2352 1.66619 18.2352 2.29243V7.75186C18.2352 9.1889 18.0856 10.4874 17.787 11.6465C17.4882 12.8059 17.0056 13.8664 16.3392 14.8286C15.673 15.7907 14.7307 16.5385 13.5128 17.0716C12.2948 17.6047 10.847 17.8712 9.16931 17.8712C5.92901 17.8712 3.59084 16.9498 2.15417 15.1068C0.717916 13.2635 0 10.8351 0 7.82144V2.29243C0 1.66619 0.177902 1.15047 0.534126 0.744649C0.890771 0.339037 1.39041 0.13623 2.03389 0.13623C2.70028 0.13623 3.21717 0.339037 3.58496 0.744649C3.95275 1.15047 4.13654 1.66619 4.13654 2.29243V7.99539C4.13654 12.0986 5.82534 14.1502 9.20359 14.1502C12.5818 14.1502 14.2711 12.0755 14.2711 7.9256V2.29243Z" fill="#999999"></path> <path fill-rule="evenodd" clip-rule="evenodd" d="M89.7456 7.83435C90.4902 7.45568 90.8628 6.8462 90.8628 6.00612C90.8628 4.51902 89.4234 3.77546 86.5452 3.77546C86.0221 3.77546 83.29 3.81662 82.2834 3.89935V8.31993C82.9077 8.37488 85.5588 8.40246 86.3036 8.40246C87.8537 8.40246 89.001 8.21302 89.7456 7.83435ZM78.3008 2.3537C78.3008 1.31761 78.9024 0.690731 80.1052 0.472651C81.3729 0.236326 84.6218 0.118164 86.5768 0.118164C92.141 0.118164 94.923 2.00855 94.923 5.7891C94.923 7.07955 94.558 8.17016 93.8272 9.06073C93.0971 9.95129 92.0836 10.6422 90.6204 10.9918L94.1368 14.5269C94.7681 15.2512 95.04 16.4856 93.6588 17.167C92.5268 17.7256 91.2796 17.3323 90.368 16.2446L86.201 11.5415C85.922 11.578 82.8005 11.56 82.2201 11.4872V15.7268C82.2201 16.2175 82.0487 16.6174 81.7049 16.9263C81.3611 17.2351 80.999 17.3898 80.3973 17.3898C79.7745 17.3898 79.1333 17.2351 78.8004 16.9263C78.4673 16.6174 78.3008 16.2175 78.3008 15.7268V2.3537Z" fill="#999999"></path> <path fill-rule="evenodd" clip-rule="evenodd" d="M111.685 2.29243C111.685 1.66619 111.852 1.15047 112.185 0.744649C112.518 0.339037 113.007 0.13623 113.65 0.13623C114.294 0.13623 114.787 0.339037 115.132 0.744649C115.477 1.15047 115.649 1.66619 115.649 2.29243V7.75186C115.649 9.1889 115.5 10.4874 115.201 11.6465C114.902 12.8059 114.42 13.8664 113.753 14.8286C113.087 15.7907 112.145 16.5385 110.927 17.0716C109.709 17.6047 108.261 17.8712 106.583 17.8712C103.343 17.8712 101.005 16.9498 99.5682 15.1068C98.132 13.2635 97.4141 10.8351 97.4141 7.82144V2.29243C97.4141 1.66619 97.592 1.15047 97.9482 0.744649C98.3048 0.339037 98.8045 0.13623 99.4479 0.13623C100.114 0.13623 100.631 0.339037 100.999 0.744649C101.367 1.15047 101.551 1.66619 101.551 2.29243V7.99539C101.551 12.0986 103.239 14.1502 106.618 14.1502C109.996 14.1502 111.685 12.0755 111.685 7.9256V2.29243Z" fill="#999999"></path> <path fill-rule="evenodd" clip-rule="evenodd" d="M30.1085 17.8714C27.0468 17.8714 24.6518 17.1064 22.9224 15.5764C21.193 14.0465 20.3281 11.902 20.3281 9.14329C20.3281 6.36107 21.2286 4.16456 23.0284 2.55315C24.8289 0.941727 27.288 0.13623 30.4063 0.13623C32.8162 0.13623 34.6446 0.460593 35.8918 1.10974C37.1106 1.73577 37.4652 2.51284 36.9548 3.43989C36.473 4.27466 35.5377 4.6283 34.1485 4.28082C32.7028 3.93312 31.0882 3.64843 30.1247 3.64843C28.4803 3.64843 27.1908 4.1355 26.2548 5.10901C25.3193 6.08274 24.8518 7.42728 24.8518 9.14329C24.8518 10.7659 25.3405 12.0411 26.319 12.9682C27.2968 13.8957 28.5797 14.3594 30.1672 14.3594C31.3013 14.3594 33.0712 14.0348 34.6585 13.3855C36.0195 12.8523 36.9834 12.9682 37.5501 13.7332C38.2024 14.6142 37.919 15.4602 36.6999 16.2721C35.0555 17.3383 32.8586 17.8714 30.1085 17.8714Z" fill="#999999"></path> <path fill-rule="evenodd" clip-rule="evenodd" d="M63.6695 0.57384C64.0716 0.191563 64.6177 0 65.3068 0C65.9963 0 66.5481 0.191563 66.9617 0.57384C67.3752 0.956541 67.5821 1.47225 67.5821 2.12162C67.5821 2.79389 67.3752 3.31512 66.9617 3.68615C66.5481 4.05718 65.9963 4.24281 65.3068 4.24281C64.6177 4.24281 64.0716 4.06291 63.6695 3.70355C63.2674 3.34418 63.0664 2.8168 63.0664 2.12162C63.0664 1.47225 63.2674 0.956541 63.6695 0.57384Z" fill="#999999"></path> <path fill-rule="evenodd" clip-rule="evenodd" d="M59.468 0.71007C59.1234 0.327369 58.641 0.13623 58.0202 0.13623C57.3999 0.13623 56.923 0.327369 56.5899 0.71007C56.2566 1.09235 56.0898 1.57391 56.0898 2.15326V6.86511H44.4307V2.15326C44.4307 1.57391 44.2585 1.09235 43.9134 0.71007C43.569 0.327369 43.0863 0.13623 42.4656 0.13623C41.8452 0.13623 41.3683 0.327369 41.0352 0.71007C40.7019 1.09235 40.5352 1.57391 40.5352 2.15326V15.5066C40.5352 16.0864 40.7019 16.5676 41.0352 16.9498C41.3683 17.3325 41.8452 17.5237 42.4656 17.5237C43.0863 17.5237 43.569 17.3325 43.9134 16.9498C44.2585 16.5676 44.4307 16.0864 44.4307 15.5066V10.7948H56.0898V15.5066C56.0898 16.0864 56.2566 16.5676 56.5899 16.9498C56.923 17.3325 57.3999 17.5237 58.0202 17.5237C58.641 17.5237 59.1234 17.3325 59.468 16.9498C59.8131 16.5676 59.9853 16.0864 59.9853 15.5066V2.15326C59.9853 1.57391 59.8131 1.09235 59.468 0.71007Z" fill="#999999"></path> <path fill-rule="evenodd" clip-rule="evenodd" d="M63.377 8.2768C63.377 7.69723 63.5437 7.21588 63.877 6.83361C64.2101 6.4509 64.6868 6.25977 65.3074 6.25977C65.9281 6.25977 66.4105 6.4509 66.7552 6.83361C67.1001 7.21588 67.2723 7.69723 67.2723 8.2768V15.5065C67.2723 16.0863 67.1001 16.5675 66.7552 16.9497C66.4105 17.3324 65.9281 17.5236 65.3074 17.5236C64.6868 17.5236 64.2101 17.3324 63.877 16.9497C63.5437 16.5675 63.377 16.0863 63.377 15.5065V8.2768Z" fill="#999999"></path> <path fill-rule="evenodd" clip-rule="evenodd" d="M71.0106 13.4029C71.436 12.928 72.016 12.6899 72.7516 12.6899C73.487 12.6899 74.073 12.928 74.5096 13.4029C74.9461 13.8784 75.1646 14.4522 75.1646 15.1245C75.1646 15.8201 74.952 16.3935 74.5266 16.8456C74.1018 17.2976 73.5099 17.5238 72.7516 17.5238C71.9931 17.5238 71.4072 17.2976 70.9934 16.8456C70.5798 16.3935 70.373 15.8201 70.373 15.1245C70.373 14.4522 70.5856 13.8784 71.0106 13.4029Z" fill="#999999"></path> </svg> 