<?xml version="1.0" encoding="UTF-8"?> <svg xmlns="http://www.w3.org/2000/svg" width="77" height="77" viewBox="0 0 77 77" fill="none"> <g clip-path="url(#clip0_467_3072)"> <path fill-rule="evenodd" clip-rule="evenodd" d="M47.3634 5.71403L56.7658 11.9473L55.1469 14.1937L52.1229 13.8224L49.6903 17.8515L43.1375 13.916L45.9021 11.3658L45.5784 7.75204L47.3634 5.71403ZM48.5729 25.7597C50.1912 27.2281 51.5421 28.7546 52.6621 30.3178L55.0687 29.1162L54.1331 26.0395L56.7205 24.8739L61.3443 33.3505L59.3925 34.2696L57.1212 32.4457L54.7565 33.8189C59.3108 43.1669 56.3605 53.2203 50.3638 59.7847L49.9134 67.6867L22.3555 64.303L23.092 58.3043L13.4696 53.3615L16.034 48.841L24.8934 54.0479L38.8611 55.5819C49.523 48.5106 48.385 38.7007 44.0671 32.9579L39.3299 40.5257L15.7703 25.9545L20.2683 20.2539L29.7912 26.2663L38.8709 13.9934L50.4565 22.7512L48.5729 25.7597ZM26.7645 36.2222L34.4274 41.8134L29.2864 49.0008L27.3494 48.1L25.336 50.9671L21.273 48.6722L22.9114 46.0371L21.3043 45.2899L26.7645 36.2222ZM18.086 29.9689L24.669 34.7007L19.7435 40.6394L17.7517 39.8172L15.7931 42.6064L12.8099 41.1708L14.4896 38.4701L12.8418 37.7893L18.086 29.9689Z" fill="#9EEEFF"></path> </g> <defs> <clipPath id="clip0_467_3072"> <rect width="68" height="68" fill="white" transform="translate(8.79688 0.978516) rotate(7)"></rect> </clipPath> </defs> </svg> 