<?xml version="1.0" encoding="UTF-8"?> <svg xmlns="http://www.w3.org/2000/svg" width="56" height="56" viewBox="0 0 56 56" fill="none"> <path d="M18.8142 23.3455C13.8909 22.8529 11.4293 22.6066 11.2159 23.4389C11.0026 24.2711 13.2792 25.2394 17.8323 27.176L22.6599 29.2293C23.3125 29.5069 23.6388 29.6457 23.806 29.9281C23.9731 30.2105 23.9378 30.5633 23.8672 31.2689L23.3449 36.489C22.8524 41.4123 22.6061 43.8739 23.4383 44.0873C24.2706 44.3006 25.2389 42.024 27.1754 37.4709L29.2288 32.6432C29.5063 31.9907 29.6451 31.6644 29.9275 31.4972C30.2099 31.3301 30.5627 31.3654 31.2683 31.436L36.4884 31.9582C41.4117 32.4508 43.8734 32.6971 44.0867 31.8649C44.3001 31.0326 42.0235 30.0643 37.4704 28.1277L32.6427 26.0744C31.9901 25.7968 31.6639 25.6581 31.4967 25.3757C31.3295 25.0933 31.3648 24.7405 31.4354 24.0349L31.9577 18.8147C32.4503 13.8914 32.6966 11.4298 31.8643 11.2165C31.0321 11.0031 30.0638 13.2797 28.1272 17.8328L26.0739 22.6605C25.7963 23.313 25.6575 23.6393 25.3751 23.8065C25.0927 23.9737 24.7399 23.9384 24.0343 23.8678L18.8142 23.3455Z" fill="white"></path> </svg> 