<?xml version="1.0" encoding="UTF-8"?> <svg xmlns="http://www.w3.org/2000/svg" width="1200" height="720" viewBox="0 0 1200 720" fill="none"> <g clip-path="url(#clip0)"> <path fill-rule="evenodd" clip-rule="evenodd" d="M-24 394.898C6.40581 394.898 31.058 419.55 31.058 449.956C31.058 480.362 6.40581 505.014 -24 505.014C-54.4059 505.014 -79.0581 480.362 -79.0581 449.956C-79.0581 419.55 -54.4059 394.898 -24 394.898ZM-24 344C34.5544 344 82 391.446 82 450C82 508.555 34.5544 556 -24 556C-82.5545 556 -130 508.555 -130 450C-129.956 391.446 -82.5103 344 -24 344Z" fill="#E0FF30" fill-opacity="0.65"></path> <g clip-path="url(#clip1)"> <path d="M933.092 648.753L918.418 648.576L918.477 653.468L933.151 653.644L933.092 648.753Z" fill="#73D6FF"></path> <path d="M933.146 653.643L932.969 638.969L928.077 638.91L928.254 653.584L933.146 653.643Z" fill="#73D6FF"></path> <path d="M942.754 639.089L928.08 638.912L928.139 643.804L942.813 643.98L942.754 639.089Z" fill="#73D6FF"></path> <path d="M942.81 643.979L942.633 629.305L937.741 629.246L937.918 643.92L942.81 643.979Z" fill="#73D6FF"></path> <path d="M952.418 629.426L937.744 629.249L937.803 634.14L952.477 634.317L952.418 629.426Z" fill="#73D6FF"></path> </g> <g clip-path="url(#clip2)"> <path d="M725.755 107.798L725.578 122.473L730.47 122.414L730.646 107.739L725.755 107.798Z" fill="#F4D269"></path> <path d="M730.645 107.744L715.971 107.921L715.912 112.812L730.586 112.636L730.645 107.744Z" fill="#F4D269"></path> <path d="M716.091 98.1352L715.914 112.81L720.806 112.751L720.982 98.0763L716.091 98.1352Z" fill="#F4D269"></path> <path d="M720.981 98.081L706.307 98.2578L706.248 103.149L720.922 102.972L720.981 98.081Z" fill="#F4D269"></path> <path d="M706.427 88.4722L706.25 103.146L711.141 103.088L711.318 88.4132L706.427 88.4722Z" fill="#F4D269"></path> </g> <g clip-path="url(#clip3)"> <path d="M336.136 525.798L336.312 540.473L331.421 540.414L331.244 525.739L336.136 525.798Z" fill="#EDF7F1"></path> <path d="M331.246 525.744L345.92 525.921L345.979 530.812L331.305 530.636L331.246 525.744Z" fill="#EDF7F1"></path> <path d="M345.8 516.135L345.977 530.81L341.085 530.751L340.908 516.076L345.8 516.135Z" fill="#EDF7F1"></path> <path d="M340.91 516.081L355.584 516.258L355.643 521.149L340.969 520.972L340.91 516.081Z" fill="#EDF7F1"></path> <path d="M355.464 506.472L355.641 521.146L350.749 521.088L350.572 506.413L355.464 506.472Z" fill="#EDF7F1"></path> </g> <path fill-rule="evenodd" clip-rule="evenodd" d="M1148.13 136.3C1147.62 134.51 1148.65 132.64 1150.44 132.13C1152.23 131.62 1154.1 132.65 1154.61 134.44C1155.12 136.23 1154.09 138.1 1152.3 138.61C1150.51 139.13 1148.64 138.09 1148.13 136.3Z" fill="#F0F0F0"></path> <path fill-rule="evenodd" clip-rule="evenodd" d="M653.052 158.098C652.542 156.308 653.572 154.438 655.362 153.928C657.152 153.418 659.022 154.448 659.532 156.238C660.042 158.028 659.012 159.898 657.222 160.408C655.442 160.928 653.572 159.888 653.052 158.098Z" fill="#FAFAFA"></path> <path fill-rule="evenodd" clip-rule="evenodd" d="M517.833 436.848C517.053 434.138 518.623 431.298 521.343 430.518C524.053 429.738 526.893 431.308 527.673 434.028C528.453 436.738 526.883 439.578 524.163 440.358C521.443 441.128 518.603 439.558 517.833 436.848Z" fill="#E0FF30"></path> <path fill-rule="evenodd" clip-rule="evenodd" d="M782.302 64.8723C781.122 60.7623 783.502 56.4823 787.602 55.3023C791.712 54.1223 795.992 56.5023 797.172 60.6023C798.352 64.7123 795.972 68.9923 791.872 70.1723C787.772 71.3523 783.482 68.9723 782.302 64.8723Z" fill="#FAFAFA"></path> <path fill-rule="evenodd" clip-rule="evenodd" d="M642.2 628.53C641.42 625.82 642.99 622.98 645.71 622.2C648.42 621.42 651.26 622.99 652.04 625.71C652.82 628.42 651.25 631.26 648.54 632.04C645.81 632.82 642.97 631.25 642.2 628.53Z" fill="#E0FF30"></path> <path fill-rule="evenodd" clip-rule="evenodd" d="M617.772 189.608C616.992 186.898 618.562 184.058 621.282 183.278C623.992 182.498 626.832 184.068 627.612 186.788C628.392 189.498 626.822 192.338 624.102 193.118C621.382 193.898 618.552 192.328 617.772 189.608Z" fill="#E0FF30"></path> <path fill-rule="evenodd" clip-rule="evenodd" d="M101.058 254.498C100.308 251.688 101.968 248.808 104.778 248.048C107.588 247.298 110.468 248.958 111.228 251.768C111.978 254.578 110.318 257.468 107.508 258.218C104.698 258.968 101.808 257.298 101.058 254.498ZM96.3483 255.758C94.8983 250.348 98.1083 244.798 103.518 243.348C108.928 241.898 114.478 245.108 115.928 250.518C117.378 255.928 114.168 261.478 108.758 262.928C103.358 264.368 97.7983 261.158 96.3483 255.758Z" fill="#ECF9FF"></path> <path fill-rule="evenodd" clip-rule="evenodd" d="M1064.05 416.778C1063.3 419.588 1064.96 422.468 1067.77 423.228C1070.58 423.978 1073.46 422.318 1074.22 419.508C1074.97 416.698 1073.31 413.818 1070.5 413.058C1067.69 412.298 1064.81 413.968 1064.05 416.778ZM1059.35 415.518C1057.9 420.928 1061.11 426.478 1066.52 427.928C1071.93 429.378 1077.48 426.168 1078.93 420.758C1080.38 415.348 1077.17 409.798 1071.76 408.348C1066.35 406.898 1060.8 410.108 1059.35 415.518Z" fill="#ECF9FF"></path> <path d="M1125.99 255.766C1124.76 254.246 1125 252.016 1126.52 250.786C1128.04 249.556 1130.27 249.796 1131.5 251.316C1134.04 254.446 1135.06 258.316 1134.67 262.036C1134.66 262.126 1134.65 262.206 1134.63 262.286C1134.18 265.916 1132.39 269.386 1129.33 271.856C1126.2 274.396 1122.33 275.416 1118.61 275.026C1118.52 275.016 1118.44 275.006 1118.36 274.986C1114.73 274.536 1111.26 272.746 1108.79 269.686C1107.56 268.166 1107.8 265.936 1109.32 264.706C1110.84 263.476 1113.07 263.716 1114.3 265.236C1115.57 266.806 1117.34 267.736 1119.18 267.976L1119.37 267.986C1121.28 268.186 1123.28 267.656 1124.9 266.346C1126.47 265.076 1127.4 263.306 1127.64 261.466L1127.66 261.276C1127.84 259.376 1127.31 257.386 1125.99 255.766Z" fill="#0098DA"></path> <path fill-rule="evenodd" clip-rule="evenodd" d="M918.249 4.59277C918.859 5.20277 918.859 6.18277 918.249 6.79277C917.639 7.40277 916.659 7.40277 916.049 6.79277C915.439 6.18277 915.439 5.20277 916.049 4.59277C916.659 3.98277 917.639 3.98277 918.249 4.59277ZM912.389 10.4528C912.999 11.0628 912.999 12.0428 912.389 12.6528C911.779 13.2628 910.799 13.2628 910.189 12.6528C909.579 12.0428 909.579 11.0628 910.189 10.4528C910.799 9.84277 911.779 9.84277 912.389 10.4528ZM906.529 16.3128C907.139 16.9228 907.139 17.9028 906.529 18.5128C905.919 19.1228 904.939 19.1228 904.329 18.5128C903.719 17.9028 903.719 16.9228 904.329 16.3128C904.939 15.7028 905.919 15.7028 906.529 16.3128ZM900.669 22.1728C901.279 22.7828 901.279 23.7628 900.669 24.3728C900.059 24.9828 899.079 24.9828 898.469 24.3728C897.859 23.7628 897.859 22.7828 898.469 22.1728C899.079 21.5628 900.069 21.5628 900.669 22.1728ZM894.809 28.0328C895.419 28.6428 895.419 29.6228 894.809 30.2328C894.199 30.8428 893.219 30.8428 892.609 30.2328C891.999 29.6228 891.999 28.6428 892.609 28.0328C893.219 27.4228 894.209 27.4228 894.809 28.0328ZM888.949 33.8828C889.559 34.4928 889.559 35.4728 888.949 36.0828C888.339 36.6928 887.359 36.6928 886.749 36.0828C886.139 35.4728 886.139 34.4928 886.749 33.8828C887.359 33.2828 888.349 33.2828 888.949 33.8828ZM883.099 39.7428C883.709 40.3528 883.709 41.3328 883.099 41.9428C882.489 42.5528 881.509 42.5528 880.899 41.9428C880.289 41.3328 880.289 40.3528 880.899 39.7428C881.509 39.1428 882.489 39.1428 883.099 39.7428ZM877.239 45.6028C877.849 46.2128 877.849 47.1928 877.239 47.8028C876.629 48.4128 875.649 48.4128 875.039 47.8028C874.429 47.1928 874.429 46.2128 875.039 45.6028C875.649 44.9928 876.629 44.9928 877.239 45.6028ZM871.379 51.4628C871.989 52.0728 871.989 53.0528 871.379 53.6628C870.769 54.2728 869.789 54.2728 869.179 53.6628C868.569 53.0528 868.569 52.0728 869.179 51.4628C869.789 50.8528 870.769 50.8528 871.379 51.4628ZM865.519 57.3228C866.129 57.9328 866.129 58.9128 865.519 59.5228C864.909 60.1328 863.929 60.1328 863.319 59.5228C862.709 58.9128 862.709 57.9328 863.319 57.3228C863.929 56.7128 864.909 56.7128 865.519 57.3228ZM859.659 63.1828C860.269 63.7928 860.269 64.7728 859.659 65.3828C859.049 65.9928 858.069 65.9928 857.459 65.3828C856.849 64.7728 856.849 63.7928 857.459 63.1828C858.069 62.5728 859.059 62.5728 859.659 63.1828ZM929.959 4.59277C930.569 5.20277 930.569 6.18277 929.959 6.79277C929.349 7.40277 928.369 7.40277 927.759 6.79277C927.149 6.18277 927.149 5.20277 927.759 4.59277C928.369 3.98277 929.359 3.98277 929.959 4.59277ZM924.109 10.4528C924.719 11.0628 924.719 12.0428 924.109 12.6528C923.499 13.2628 922.519 13.2628 921.909 12.6528C921.299 12.0428 921.299 11.0628 921.909 10.4528C922.519 9.84277 923.499 9.84277 924.109 10.4528ZM918.249 16.3128C918.859 16.9228 918.859 17.9028 918.249 18.5128C917.639 19.1228 916.659 19.1228 916.049 18.5128C915.439 17.9028 915.439 16.9228 916.049 16.3128C916.659 15.7028 917.639 15.7028 918.249 16.3128ZM912.389 22.1728C912.999 22.7828 912.999 23.7628 912.389 24.3728C911.779 24.9828 910.799 24.9828 910.189 24.3728C909.579 23.7628 909.579 22.7828 910.189 22.1728C910.799 21.5628 911.779 21.5628 912.389 22.1728ZM906.529 28.0328C907.139 28.6428 907.139 29.6228 906.529 30.2328C905.919 30.8428 904.939 30.8428 904.329 30.2328C903.719 29.6228 903.719 28.6428 904.329 28.0328C904.939 27.4228 905.919 27.4228 906.529 28.0328ZM900.669 33.8828C901.279 34.4928 901.279 35.4728 900.669 36.0828C900.059 36.6928 899.079 36.6928 898.469 36.0828C897.859 35.4728 897.859 34.4928 898.469 33.8828C899.079 33.2828 900.059 33.2828 900.669 33.8828ZM894.809 39.7428C895.419 40.3528 895.419 41.3328 894.809 41.9428C894.199 42.5528 893.219 42.5528 892.609 41.9428C891.999 41.3328 891.999 40.3528 892.609 39.7428C893.219 39.1428 894.209 39.1428 894.809 39.7428ZM888.949 45.6028C889.559 46.2128 889.559 47.1928 888.949 47.8028C888.339 48.4128 887.359 48.4128 886.749 47.8028C886.139 47.1928 886.139 46.2128 886.749 45.6028C887.359 44.9928 888.349 44.9928 888.949 45.6028ZM883.099 51.4628C883.709 52.0728 883.709 53.0528 883.099 53.6628C882.489 54.2728 881.509 54.2728 880.899 53.6628C880.289 53.0528 880.289 52.0728 880.899 51.4628C881.509 50.8528 882.489 50.8528 883.099 51.4628ZM877.239 57.3228C877.849 57.9328 877.849 58.9128 877.239 59.5228C876.629 60.1328 875.649 60.1328 875.039 59.5228C874.429 58.9128 874.429 57.9328 875.039 57.3228C875.649 56.7128 876.629 56.7128 877.239 57.3228ZM871.379 63.1828C871.989 63.7928 871.989 64.7728 871.379 65.3828C870.769 65.9928 869.789 65.9928 869.179 65.3828C868.569 64.7728 868.569 63.7928 869.179 63.1828C869.789 62.5728 870.769 62.5728 871.379 63.1828ZM865.519 69.0428C866.129 69.6528 866.129 70.6328 865.519 71.2428C864.909 71.8528 863.929 71.8528 863.319 71.2428C862.709 70.6328 862.709 69.6528 863.319 69.0428C863.929 68.4328 864.909 68.4328 865.519 69.0428ZM941.679 4.59277C942.289 5.20277 942.289 6.18277 941.679 6.79277C941.069 7.40277 940.089 7.40277 939.479 6.79277C938.869 6.18277 938.869 5.20277 939.479 4.59277C940.089 3.98277 941.079 3.98277 941.679 4.59277ZM935.819 10.4528C936.429 11.0628 936.429 12.0428 935.819 12.6528C935.209 13.2628 934.229 13.2628 933.619 12.6528C933.009 12.0428 933.009 11.0628 933.619 10.4528C934.229 9.84277 935.219 9.84277 935.819 10.4528ZM929.959 16.3128C930.569 16.9228 930.569 17.9028 929.959 18.5128C929.349 19.1228 928.369 19.1228 927.759 18.5128C927.149 17.9028 927.149 16.9228 927.759 16.3128C928.369 15.7028 929.359 15.7028 929.959 16.3128ZM924.109 22.1728C924.719 22.7828 924.719 23.7628 924.109 24.3728C923.499 24.9828 922.519 24.9828 921.909 24.3728C921.299 23.7628 921.299 22.7828 921.909 22.1728C922.519 21.5628 923.499 21.5628 924.109 22.1728ZM918.249 28.0328C918.859 28.6428 918.859 29.6228 918.249 30.2328C917.639 30.8428 916.659 30.8428 916.049 30.2328C915.439 29.6228 915.439 28.6428 916.049 28.0328C916.659 27.4228 917.639 27.4228 918.249 28.0328ZM912.389 33.8828C912.999 34.4928 912.999 35.4728 912.389 36.0828C911.779 36.6928 910.799 36.6928 910.189 36.0828C909.579 35.4728 909.579 34.4928 910.189 33.8828C910.799 33.2828 911.779 33.2828 912.389 33.8828ZM906.529 39.7428C907.139 40.3528 907.139 41.3328 906.529 41.9428C905.919 42.5528 904.939 42.5528 904.329 41.9428C903.719 41.3328 903.719 40.3528 904.329 39.7428C904.939 39.1428 905.919 39.1428 906.529 39.7428ZM900.669 45.6028C901.279 46.2128 901.279 47.1928 900.669 47.8028C900.059 48.4128 899.079 48.4128 898.469 47.8028C897.859 47.1928 897.859 46.2128 898.469 45.6028C899.079 44.9928 900.069 44.9928 900.669 45.6028ZM894.809 51.4628C895.419 52.0728 895.419 53.0528 894.809 53.6628C894.199 54.2728 893.219 54.2728 892.609 53.6628C891.999 53.0528 891.999 52.0728 892.609 51.4628C893.219 50.8528 894.209 50.8528 894.809 51.4628ZM888.949 57.3228C889.559 57.9328 889.559 58.9128 888.949 59.5228C888.339 60.1328 887.359 60.1328 886.749 59.5228C886.139 58.9128 886.139 57.9328 886.749 57.3228C887.359 56.7128 888.349 56.7128 888.949 57.3228ZM883.099 63.1828C883.709 63.7928 883.709 64.7728 883.099 65.3828C882.489 65.9928 881.509 65.9928 880.899 65.3828C880.289 64.7728 880.289 63.7928 880.899 63.1828C881.509 62.5728 882.489 62.5728 883.099 63.1828ZM877.239 69.0428C877.849 69.6528 877.849 70.6328 877.239 71.2428C876.629 71.8528 875.649 71.8528 875.039 71.2428C874.429 70.6328 874.429 69.6528 875.039 69.0428C875.649 68.4328 876.629 68.4328 877.239 69.0428ZM871.379 74.8928C871.989 75.5028 871.989 76.4828 871.379 77.0928C870.769 77.7028 869.789 77.7028 869.179 77.0928C868.569 76.4828 868.569 75.5028 869.179 74.8928C869.789 74.2928 870.769 74.2928 871.379 74.8928ZM953.399 4.59277C954.009 5.20277 954.009 6.18277 953.399 6.79277C952.789 7.40277 951.809 7.40277 951.199 6.79277C950.589 6.18277 950.589 5.20277 951.199 4.59277C951.809 3.98277 952.789 3.98277 953.399 4.59277ZM947.539 10.4528C948.149 11.0628 948.149 12.0428 947.539 12.6528C946.929 13.2628 945.949 13.2628 945.339 12.6528C944.729 12.0428 944.729 11.0628 945.339 10.4528C945.949 9.84277 946.929 9.84277 947.539 10.4528ZM941.679 16.3128C942.289 16.9228 942.289 17.9028 941.679 18.5128C941.069 19.1228 940.089 19.1228 939.479 18.5128C938.869 17.9028 938.869 16.9228 939.479 16.3128C940.089 15.7028 941.079 15.7028 941.679 16.3128ZM935.819 22.1728C936.429 22.7828 936.429 23.7628 935.819 24.3728C935.209 24.9828 934.229 24.9828 933.619 24.3728C933.009 23.7628 933.009 22.7828 933.619 22.1728C934.229 21.5628 935.219 21.5628 935.819 22.1728ZM929.959 28.0328C930.569 28.6428 930.569 29.6228 929.959 30.2328C929.349 30.8428 928.369 30.8428 927.759 30.2328C927.149 29.6228 927.149 28.6428 927.759 28.0328C928.369 27.4228 929.359 27.4228 929.959 28.0328ZM924.109 33.8828C924.719 34.4928 924.719 35.4728 924.109 36.0828C923.499 36.6928 922.519 36.6928 921.909 36.0828C921.299 35.4728 921.299 34.4928 921.909 33.8828C922.519 33.2828 923.499 33.2828 924.109 33.8828ZM918.249 39.7428C918.859 40.3528 918.859 41.3328 918.249 41.9428C917.639 42.5528 916.659 42.5528 916.049 41.9428C915.439 41.3328 915.439 40.3528 916.049 39.7428C916.659 39.1428 917.639 39.1428 918.249 39.7428ZM912.389 45.6028C912.999 46.2128 912.999 47.1928 912.389 47.8028C911.779 48.4128 910.799 48.4128 910.189 47.8028C909.579 47.1928 909.579 46.2128 910.189 45.6028C910.799 44.9928 911.779 44.9928 912.389 45.6028ZM906.529 51.4628C907.139 52.0728 907.139 53.0528 906.529 53.6628C905.919 54.2728 904.939 54.2728 904.329 53.6628C903.719 53.0528 903.719 52.0728 904.329 51.4628C904.939 50.8528 905.919 50.8528 906.529 51.4628ZM900.669 57.3228C901.279 57.9328 901.279 58.9128 900.669 59.5228C900.059 60.1328 899.079 60.1328 898.469 59.5228C897.859 58.9128 897.859 57.9328 898.469 57.3228C899.079 56.7128 900.069 56.7128 900.669 57.3228ZM894.809 63.1828C895.419 63.7928 895.419 64.7728 894.809 65.3828C894.199 65.9928 893.219 65.9928 892.609 65.3828C891.999 64.7728 891.999 63.7928 892.609 63.1828C893.219 62.5728 894.209 62.5728 894.809 63.1828ZM888.949 69.0428C889.559 69.6528 889.559 70.6328 888.949 71.2428C888.339 71.8528 887.359 71.8528 886.749 71.2428C886.139 70.6328 886.139 69.6528 886.749 69.0428C887.359 68.4328 888.349 68.4328 888.949 69.0428ZM883.099 74.8928C883.709 75.5028 883.709 76.4828 883.099 77.0928C882.489 77.7028 881.509 77.7028 880.899 77.0928C880.289 76.4828 880.289 75.5028 880.899 74.8928C881.509 74.2928 882.489 74.2928 883.099 74.8928ZM877.239 80.7528C877.849 81.3628 877.849 82.3428 877.239 82.9528C876.629 83.5628 875.649 83.5628 875.039 82.9528C874.429 82.3428 874.429 81.3628 875.039 80.7528C875.649 80.1528 876.629 80.1528 877.239 80.7528ZM959.259 10.4528C959.869 11.0628 959.869 12.0428 959.259 12.6528C958.649 13.2628 957.669 13.2628 957.059 12.6528C956.449 12.0428 956.449 11.0628 957.059 10.4528C957.669 9.84277 958.649 9.84277 959.259 10.4528ZM953.399 16.3128C954.009 16.9228 954.009 17.9028 953.399 18.5128C952.789 19.1228 951.809 19.1228 951.199 18.5128C950.589 17.9028 950.589 16.9228 951.199 16.3128C951.809 15.7028 952.789 15.7028 953.399 16.3128ZM947.539 22.1728C948.149 22.7828 948.149 23.7628 947.539 24.3728C946.929 24.9828 945.949 24.9828 945.339 24.3728C944.729 23.7628 944.729 22.7828 945.339 22.1728C945.949 21.5628 946.929 21.5628 947.539 22.1728ZM941.679 28.0328C942.289 28.6428 942.289 29.6228 941.679 30.2328C941.069 30.8428 940.089 30.8428 939.479 30.2328C938.869 29.6228 938.869 28.6428 939.479 28.0328C940.089 27.4228 941.079 27.4228 941.679 28.0328ZM935.819 33.8828C936.429 34.4928 936.429 35.4728 935.819 36.0828C935.209 36.6928 934.229 36.6928 933.619 36.0828C933.009 35.4728 933.009 34.4928 933.619 33.8828C934.229 33.2828 935.219 33.2828 935.819 33.8828ZM929.959 39.7428C930.569 40.3528 930.569 41.3328 929.959 41.9428C929.349 42.5528 928.369 42.5528 927.759 41.9428C927.149 41.3328 927.149 40.3528 927.759 39.7428C928.369 39.1428 929.359 39.1428 929.959 39.7428ZM924.109 45.6028C924.719 46.2128 924.719 47.1928 924.109 47.8028C923.499 48.4128 922.519 48.4128 921.909 47.8028C921.299 47.1928 921.299 46.2128 921.909 45.6028C922.519 44.9928 923.499 44.9928 924.109 45.6028ZM918.249 51.4628C918.859 52.0728 918.859 53.0528 918.249 53.6628C917.639 54.2728 916.659 54.2728 916.049 53.6628C915.439 53.0528 915.439 52.0728 916.049 51.4628C916.659 50.8528 917.639 50.8528 918.249 51.4628ZM912.389 57.3228C912.999 57.9328 912.999 58.9128 912.389 59.5228C911.779 60.1328 910.799 60.1328 910.189 59.5228C909.579 58.9128 909.579 57.9328 910.189 57.3228C910.799 56.7128 911.779 56.7128 912.389 57.3228ZM906.529 63.1828C907.139 63.7928 907.139 64.7728 906.529 65.3828C905.919 65.9928 904.939 65.9928 904.329 65.3828C903.719 64.7728 903.719 63.7928 904.329 63.1828C904.939 62.5728 905.919 62.5728 906.529 63.1828ZM900.669 69.0428C901.279 69.6528 901.279 70.6328 900.669 71.2428C900.059 71.8528 899.079 71.8528 898.469 71.2428C897.859 70.6328 897.859 69.6528 898.469 69.0428C899.079 68.4328 900.069 68.4328 900.669 69.0428ZM894.809 74.8928C895.419 75.5028 895.419 76.4828 894.809 77.0928C894.199 77.7028 893.219 77.7028 892.609 77.0928C891.999 76.4828 891.999 75.5028 892.609 74.8928C893.219 74.2928 894.209 74.2928 894.809 74.8928ZM888.949 80.7528C889.559 81.3628 889.559 82.3428 888.949 82.9528C888.339 83.5628 887.359 83.5628 886.749 82.9528C886.139 82.3428 886.139 81.3628 886.749 80.7528C887.359 80.1528 888.349 80.1528 888.949 80.7528ZM883.099 86.6128C883.709 87.2228 883.709 88.2028 883.099 88.8128C882.489 89.4228 881.509 89.4228 880.899 88.8128C880.289 88.2028 880.289 87.2228 880.899 86.6128C881.509 86.0028 882.489 86.0028 883.099 86.6128ZM965.119 16.3128C965.729 16.9228 965.729 17.9028 965.119 18.5128C964.509 19.1228 963.529 19.1228 962.919 18.5128C962.309 17.9028 962.309 16.9228 962.919 16.3128C963.529 15.7028 964.509 15.7028 965.119 16.3128ZM959.259 22.1728C959.869 22.7828 959.869 23.7628 959.259 24.3728C958.649 24.9828 957.669 24.9828 957.059 24.3728C956.449 23.7628 956.449 22.7828 957.059 22.1728C957.669 21.5628 958.649 21.5628 959.259 22.1728ZM953.399 28.0328C954.009 28.6428 954.009 29.6228 953.399 30.2328C952.789 30.8428 951.809 30.8428 951.199 30.2328C950.589 29.6228 950.589 28.6428 951.199 28.0328C951.809 27.4228 952.789 27.4228 953.399 28.0328ZM947.539 33.8828C948.149 34.4928 948.149 35.4728 947.539 36.0828C946.929 36.6928 945.949 36.6928 945.339 36.0828C944.729 35.4728 944.729 34.4928 945.339 33.8828C945.949 33.2828 946.929 33.2828 947.539 33.8828ZM941.679 39.7428C942.289 40.3528 942.289 41.3328 941.679 41.9428C941.069 42.5528 940.089 42.5528 939.479 41.9428C938.869 41.3328 938.869 40.3528 939.479 39.7428C940.089 39.1428 941.079 39.1428 941.679 39.7428ZM935.819 45.6028C936.429 46.2128 936.429 47.1928 935.819 47.8028C935.209 48.4128 934.229 48.4128 933.619 47.8028C933.009 47.1928 933.009 46.2128 933.619 45.6028C934.229 44.9928 935.219 44.9928 935.819 45.6028ZM929.959 51.4628C930.569 52.0728 930.569 53.0528 929.959 53.6628C929.349 54.2728 928.369 54.2728 927.759 53.6628C927.149 53.0528 927.149 52.0728 927.759 51.4628C928.369 50.8528 929.359 50.8528 929.959 51.4628ZM924.109 57.3228C924.719 57.9328 924.719 58.9128 924.109 59.5228C923.499 60.1328 922.519 60.1328 921.909 59.5228C921.299 58.9128 921.299 57.9328 921.909 57.3228C922.519 56.7128 923.499 56.7128 924.109 57.3228ZM918.249 63.1828C918.859 63.7928 918.859 64.7728 918.249 65.3828C917.639 65.9928 916.659 65.9928 916.049 65.3828C915.439 64.7728 915.439 63.7928 916.049 63.1828C916.659 62.5728 917.639 62.5728 918.249 63.1828ZM912.389 69.0428C912.999 69.6528 912.999 70.6328 912.389 71.2428C911.779 71.8528 910.799 71.8528 910.189 71.2428C909.579 70.6328 909.579 69.6528 910.189 69.0428C910.799 68.4328 911.779 68.4328 912.389 69.0428ZM906.529 74.8928C907.139 75.5028 907.139 76.4828 906.529 77.0928C905.919 77.7028 904.939 77.7028 904.329 77.0928C903.719 76.4828 903.719 75.5028 904.329 74.8928C904.939 74.2928 905.919 74.2928 906.529 74.8928ZM900.669 80.7528C901.279 81.3628 901.279 82.3428 900.669 82.9528C900.059 83.5628 899.079 83.5628 898.469 82.9528C897.859 82.3428 897.859 81.3628 898.469 80.7528C899.079 80.1528 900.069 80.1528 900.669 80.7528ZM894.809 86.6128C895.419 87.2228 895.419 88.2028 894.809 88.8128C894.199 89.4228 893.219 89.4228 892.609 88.8128C891.999 88.2028 891.999 87.2228 892.609 86.6128C893.219 86.0128 894.209 86.0028 894.809 86.6128ZM888.949 92.4728C889.559 93.0828 889.559 94.0628 888.949 94.6728C888.339 95.2828 887.359 95.2828 886.749 94.6728C886.139 94.0628 886.139 93.0828 886.749 92.4728C887.359 91.8628 888.349 91.8628 888.949 92.4728ZM970.969 22.1728C971.579 22.7828 971.579 23.7628 970.969 24.3728C970.359 24.9828 969.379 24.9828 968.769 24.3728C968.159 23.7628 968.159 22.7828 968.769 22.1728C969.379 21.5628 970.369 21.5628 970.969 22.1728ZM965.119 28.0328C965.729 28.6428 965.729 29.6228 965.119 30.2328C964.509 30.8428 963.529 30.8428 962.919 30.2328C962.309 29.6228 962.309 28.6428 962.919 28.0328C963.529 27.4228 964.509 27.4228 965.119 28.0328ZM959.259 33.8828C959.869 34.4928 959.869 35.4728 959.259 36.0828C958.649 36.6928 957.669 36.6928 957.059 36.0828C956.449 35.4728 956.449 34.4928 957.059 33.8828C957.669 33.2828 958.649 33.2828 959.259 33.8828ZM953.399 39.7428C954.009 40.3528 954.009 41.3328 953.399 41.9428C952.789 42.5528 951.809 42.5528 951.199 41.9428C950.589 41.3328 950.589 40.3528 951.199 39.7428C951.809 39.1428 952.789 39.1428 953.399 39.7428ZM947.539 45.6028C948.149 46.2128 948.149 47.1928 947.539 47.8028C946.929 48.4128 945.949 48.4128 945.339 47.8028C944.729 47.1928 944.729 46.2128 945.339 45.6028C945.949 44.9928 946.929 44.9928 947.539 45.6028ZM941.679 51.4628C942.289 52.0728 942.289 53.0528 941.679 53.6628C941.069 54.2728 940.089 54.2728 939.479 53.6628C938.869 53.0528 938.869 52.0728 939.479 51.4628C940.089 50.8528 941.069 50.8528 941.679 51.4628ZM935.819 57.3228C936.429 57.9328 936.429 58.9128 935.819 59.5228C935.209 60.1328 934.229 60.1328 933.619 59.5228C933.009 58.9128 933.009 57.9328 933.619 57.3228C934.229 56.7128 935.219 56.7128 935.819 57.3228ZM929.959 63.1828C930.569 63.7928 930.569 64.7728 929.959 65.3828C929.349 65.9928 928.369 65.9928 927.759 65.3828C927.149 64.7728 927.149 63.7928 927.759 63.1828C928.369 62.5728 929.359 62.5728 929.959 63.1828ZM924.109 69.0428C924.719 69.6528 924.719 70.6328 924.109 71.2428C923.499 71.8528 922.519 71.8528 921.909 71.2428C921.299 70.6328 921.299 69.6528 921.909 69.0428C922.519 68.4328 923.499 68.4328 924.109 69.0428ZM918.249 74.8928C918.859 75.5028 918.859 76.4828 918.249 77.0928C917.639 77.7028 916.659 77.7028 916.049 77.0928C915.439 76.4828 915.439 75.5028 916.049 74.8928C916.659 74.2928 917.639 74.2928 918.249 74.8928ZM912.389 80.7528C912.999 81.3628 912.999 82.3428 912.389 82.9528C911.779 83.5628 910.799 83.5628 910.189 82.9528C909.579 82.3428 909.579 81.3628 910.189 80.7528C910.799 80.1528 911.779 80.1528 912.389 80.7528ZM906.529 86.6128C907.139 87.2228 907.139 88.2028 906.529 88.8128C905.919 89.4228 904.939 89.4228 904.329 88.8128C903.719 88.2028 903.719 87.2228 904.329 86.6128C904.939 86.0028 905.919 86.0028 906.529 86.6128ZM900.669 92.4728C901.279 93.0828 901.279 94.0628 900.669 94.6728C900.059 95.2828 899.079 95.2828 898.469 94.6728C897.859 94.0628 897.859 93.0828 898.469 92.4728C899.079 91.8628 900.069 91.8628 900.669 92.4728ZM894.809 98.3328C895.419 98.9428 895.419 99.9228 894.809 100.533C894.199 101.143 893.219 101.143 892.609 100.533C891.999 99.9228 891.999 98.9428 892.609 98.3328C893.219 97.7228 894.209 97.7228 894.809 98.3328ZM976.829 28.0328C977.439 28.6428 977.439 29.6228 976.829 30.2328C976.219 30.8428 975.239 30.8428 974.629 30.2328C974.019 29.6228 974.019 28.6428 974.629 28.0328C975.239 27.4228 976.229 27.4228 976.829 28.0328ZM970.969 33.8828C971.579 34.4928 971.579 35.4728 970.969 36.0828C970.359 36.6928 969.379 36.6928 968.769 36.0828C968.159 35.4728 968.159 34.4928 968.769 33.8828C969.379 33.2828 970.369 33.2828 970.969 33.8828ZM965.119 39.7428C965.729 40.3528 965.729 41.3328 965.119 41.9428C964.509 42.5528 963.529 42.5528 962.919 41.9428C962.309 41.3328 962.309 40.3528 962.919 39.7428C963.529 39.1428 964.509 39.1428 965.119 39.7428ZM959.259 45.6028C959.869 46.2128 959.869 47.1928 959.259 47.8028C958.649 48.4128 957.669 48.4128 957.059 47.8028C956.449 47.1928 956.449 46.2128 957.059 45.6028C957.669 44.9928 958.649 44.9928 959.259 45.6028ZM953.399 51.4628C954.009 52.0728 954.009 53.0528 953.399 53.6628C952.789 54.2728 951.809 54.2728 951.199 53.6628C950.589 53.0528 950.589 52.0728 951.199 51.4628C951.809 50.8528 952.789 50.8528 953.399 51.4628ZM947.539 57.3228C948.149 57.9328 948.149 58.9128 947.539 59.5228C946.929 60.1328 945.949 60.1328 945.339 59.5228C944.729 58.9128 944.729 57.9328 945.339 57.3228C945.949 56.7128 946.929 56.7128 947.539 57.3228ZM941.679 63.1828C942.289 63.7928 942.289 64.7728 941.679 65.3828C941.069 65.9928 940.089 65.9928 939.479 65.3828C938.869 64.7728 938.869 63.7928 939.479 63.1828C940.089 62.5728 941.079 62.5728 941.679 63.1828ZM935.819 69.0428C936.429 69.6528 936.429 70.6328 935.819 71.2428C935.209 71.8528 934.229 71.8528 933.619 71.2428C933.009 70.6328 933.009 69.6528 933.619 69.0428C934.229 68.4328 935.219 68.4328 935.819 69.0428ZM929.959 74.8928C930.569 75.5028 930.569 76.4828 929.959 77.0928C929.349 77.7028 928.369 77.7028 927.759 77.0928C927.149 76.4828 927.149 75.5028 927.759 74.8928C928.369 74.2928 929.359 74.2928 929.959 74.8928ZM924.109 80.7528C924.719 81.3628 924.719 82.3428 924.109 82.9528C923.499 83.5628 922.519 83.5628 921.909 82.9528C921.299 82.3428 921.299 81.3628 921.909 80.7528C922.519 80.1528 923.499 80.1528 924.109 80.7528ZM918.249 86.6128C918.859 87.2228 918.859 88.2028 918.249 88.8128C917.639 89.4228 916.659 89.4228 916.049 88.8128C915.439 88.2028 915.439 87.2228 916.049 86.6128C916.659 86.0028 917.639 86.0028 918.249 86.6128ZM912.389 92.4728C912.999 93.0828 912.999 94.0628 912.389 94.6728C911.779 95.2828 910.799 95.2828 910.189 94.6728C909.579 94.0628 909.579 93.0828 910.189 92.4728C910.799 91.8628 911.779 91.8628 912.389 92.4728ZM906.529 98.3328C907.139 98.9428 907.139 99.9228 906.529 100.533C905.919 101.143 904.939 101.143 904.329 100.533C903.719 99.9228 903.719 98.9428 904.329 98.3328C904.939 97.7228 905.919 97.7228 906.529 98.3328ZM900.669 104.193C901.279 104.803 901.279 105.783 900.669 106.393C900.059 107.003 899.079 107.003 898.469 106.393C897.859 105.783 897.859 104.803 898.469 104.193C899.079 103.583 900.069 103.583 900.669 104.193ZM982.689 33.8828C983.299 34.4928 983.299 35.4728 982.689 36.0828C982.079 36.6928 981.099 36.6928 980.489 36.0828C979.879 35.4728 979.879 34.4928 980.489 33.8828C981.099 33.2828 982.089 33.2828 982.689 33.8828ZM976.829 39.7428C977.439 40.3528 977.439 41.3328 976.829 41.9428C976.219 42.5528 975.239 42.5528 974.629 41.9428C974.019 41.3328 974.019 40.3528 974.629 39.7428C975.239 39.1428 976.229 39.1428 976.829 39.7428ZM970.969 45.6028C971.579 46.2128 971.579 47.1928 970.969 47.8028C970.359 48.4128 969.379 48.4128 968.769 47.8028C968.159 47.1928 968.159 46.2128 968.769 45.6028C969.379 44.9928 970.369 44.9928 970.969 45.6028ZM965.119 51.4628C965.729 52.0728 965.729 53.0528 965.119 53.6628C964.509 54.2728 963.529 54.2728 962.919 53.6628C962.309 53.0528 962.309 52.0728 962.919 51.4628C963.529 50.8528 964.509 50.8528 965.119 51.4628ZM959.259 57.3228C959.869 57.9328 959.869 58.9128 959.259 59.5228C958.649 60.1328 957.669 60.1328 957.059 59.5228C956.449 58.9128 956.449 57.9328 957.059 57.3228C957.669 56.7128 958.649 56.7128 959.259 57.3228ZM953.399 63.1828C954.009 63.7928 954.009 64.7728 953.399 65.3828C952.789 65.9928 951.809 65.9928 951.199 65.3828C950.589 64.7728 950.589 63.7928 951.199 63.1828C951.809 62.5728 952.789 62.5728 953.399 63.1828ZM947.539 69.0428C948.149 69.6528 948.149 70.6328 947.539 71.2428C946.929 71.8528 945.949 71.8528 945.339 71.2428C944.729 70.6328 944.729 69.6528 945.339 69.0428C945.949 68.4328 946.929 68.4328 947.539 69.0428ZM941.679 74.8928C942.289 75.5028 942.289 76.4828 941.679 77.0928C941.069 77.7028 940.089 77.7028 939.479 77.0928C938.869 76.4828 938.869 75.5028 939.479 74.8928C940.089 74.2928 941.079 74.2928 941.679 74.8928ZM935.819 80.7528C936.429 81.3628 936.429 82.3428 935.819 82.9528C935.209 83.5628 934.229 83.5628 933.619 82.9528C933.009 82.3428 933.009 81.3628 933.619 80.7528C934.229 80.1528 935.219 80.1528 935.819 80.7528ZM929.959 86.6128C930.569 87.2228 930.569 88.2028 929.959 88.8128C929.349 89.4228 928.369 89.4228 927.759 88.8128C927.149 88.2028 927.149 87.2228 927.759 86.6128C928.369 86.0028 929.359 86.0028 929.959 86.6128ZM924.109 92.4728C924.719 93.0828 924.719 94.0628 924.109 94.6728C923.499 95.2828 922.519 95.2828 921.909 94.6728C921.299 94.0628 921.299 93.0828 921.909 92.4728C922.519 91.8628 923.499 91.8628 924.109 92.4728ZM918.249 98.3328C918.859 98.9428 918.859 99.9228 918.249 100.533C917.639 101.143 916.659 101.143 916.049 100.533C915.439 99.9228 915.439 98.9428 916.049 98.3328C916.659 97.7228 917.639 97.7228 918.249 98.3328ZM912.389 104.193C912.999 104.803 912.999 105.783 912.389 106.393C911.779 107.003 910.799 107.003 910.189 106.393C909.579 105.783 909.579 104.803 910.189 104.193C910.799 103.583 911.779 103.583 912.389 104.193ZM906.529 110.053C907.139 110.663 907.139 111.643 906.529 112.253C905.919 112.863 904.939 112.863 904.329 112.253C903.719 111.643 903.719 110.663 904.329 110.053C904.939 109.443 905.919 109.443 906.529 110.053ZM988.549 39.7428C989.159 40.3528 989.159 41.3328 988.549 41.9428C987.939 42.5528 986.959 42.5528 986.349 41.9428C985.739 41.3328 985.739 40.3528 986.349 39.7428C986.959 39.1428 987.939 39.1428 988.549 39.7428ZM982.689 45.6028C983.299 46.2128 983.299 47.1928 982.689 47.8028C982.079 48.4128 981.099 48.4128 980.489 47.8028C979.879 47.1928 979.879 46.2128 980.489 45.6028C981.099 44.9928 982.089 44.9928 982.689 45.6028ZM976.829 51.4628C977.439 52.0728 977.439 53.0528 976.829 53.6628C976.219 54.2728 975.239 54.2728 974.629 53.6628C974.019 53.0528 974.019 52.0728 974.629 51.4628C975.239 50.8528 976.229 50.8528 976.829 51.4628ZM970.969 57.3228C971.579 57.9328 971.579 58.9128 970.969 59.5228C970.359 60.1328 969.379 60.1328 968.769 59.5228C968.159 58.9128 968.159 57.9328 968.769 57.3228C969.379 56.7128 970.369 56.7128 970.969 57.3228ZM965.119 63.1828C965.729 63.7928 965.729 64.7728 965.119 65.3828C964.509 65.9928 963.529 65.9928 962.919 65.3828C962.309 64.7728 962.309 63.7928 962.919 63.1828C963.529 62.5728 964.509 62.5728 965.119 63.1828ZM959.259 69.0428C959.869 69.6528 959.869 70.6328 959.259 71.2428C958.649 71.8528 957.669 71.8528 957.059 71.2428C956.449 70.6328 956.449 69.6528 957.059 69.0428C957.669 68.4328 958.649 68.4328 959.259 69.0428ZM953.399 74.8928C954.009 75.5028 954.009 76.4828 953.399 77.0928C952.789 77.7028 951.809 77.7028 951.199 77.0928C950.589 76.4828 950.589 75.5028 951.199 74.8928C951.809 74.2928 952.789 74.2928 953.399 74.8928ZM947.539 80.7528C948.149 81.3628 948.149 82.3428 947.539 82.9528C946.929 83.5628 945.949 83.5628 945.339 82.9528C944.729 82.3428 944.729 81.3628 945.339 80.7528C945.949 80.1528 946.929 80.1528 947.539 80.7528ZM941.679 86.6128C942.289 87.2228 942.289 88.2028 941.679 88.8128C941.069 89.4228 940.089 89.4228 939.479 88.8128C938.869 88.2028 938.869 87.2228 939.479 86.6128C940.089 86.0028 941.079 86.0028 941.679 86.6128ZM935.819 92.4728C936.429 93.0828 936.429 94.0628 935.819 94.6728C935.209 95.2828 934.229 95.2828 933.619 94.6728C933.009 94.0628 933.009 93.0828 933.619 92.4728C934.229 91.8628 935.219 91.8628 935.819 92.4728ZM929.959 98.3328C930.569 98.9428 930.569 99.9228 929.959 100.533C929.349 101.143 928.369 101.143 927.759 100.533C927.149 99.9228 927.149 98.9428 927.759 98.3328C928.369 97.7228 929.359 97.7228 929.959 98.3328ZM924.109 104.193C924.719 104.803 924.719 105.783 924.109 106.393C923.499 107.003 922.519 107.003 921.909 106.393C921.299 105.783 921.299 104.803 921.909 104.193C922.519 103.583 923.499 103.583 924.109 104.193ZM918.249 110.053C918.859 110.663 918.859 111.643 918.249 112.253C917.639 112.863 916.659 112.863 916.049 112.253C915.439 111.643 915.439 110.663 916.049 110.053C916.659 109.443 917.639 109.443 918.249 110.053ZM912.389 115.903C912.999 116.513 912.999 117.493 912.389 118.103C911.779 118.713 910.799 118.713 910.189 118.103C909.579 117.493 909.579 116.513 910.189 115.903C910.799 115.303 911.779 115.303 912.389 115.903ZM994.409 45.6028C995.019 46.2128 995.019 47.1928 994.409 47.8028C993.799 48.4128 992.819 48.4128 992.209 47.8028C991.599 47.1928 991.599 46.2128 992.209 45.6028C992.819 44.9928 993.799 44.9928 994.409 45.6028ZM988.549 51.4628C989.159 52.0728 989.159 53.0528 988.549 53.6628C987.939 54.2728 986.959 54.2728 986.349 53.6628C985.739 53.0528 985.739 52.0728 986.349 51.4628C986.959 50.8528 987.939 50.8528 988.549 51.4628ZM982.689 57.3228C983.299 57.9328 983.299 58.9128 982.689 59.5228C982.079 60.1328 981.099 60.1328 980.489 59.5228C979.879 58.9128 979.879 57.9328 980.489 57.3228C981.099 56.7128 982.089 56.7128 982.689 57.3228ZM976.829 63.1828C977.439 63.7928 977.439 64.7728 976.829 65.3828C976.219 65.9928 975.239 65.9928 974.629 65.3828C974.019 64.7728 974.019 63.7928 974.629 63.1828C975.239 62.5728 976.229 62.5728 976.829 63.1828ZM970.969 69.0428C971.579 69.6528 971.579 70.6328 970.969 71.2428C970.359 71.8528 969.379 71.8528 968.769 71.2428C968.159 70.6328 968.159 69.6528 968.769 69.0428C969.379 68.4328 970.369 68.4328 970.969 69.0428ZM965.119 74.8928C965.729 75.5028 965.729 76.4828 965.119 77.0928C964.509 77.7028 963.529 77.7028 962.919 77.0928C962.309 76.4828 962.309 75.5028 962.919 74.8928C963.529 74.2928 964.509 74.2928 965.119 74.8928ZM959.259 80.7528C959.869 81.3628 959.869 82.3428 959.259 82.9528C958.649 83.5628 957.669 83.5628 957.059 82.9528C956.449 82.3428 956.449 81.3628 957.059 80.7528C957.669 80.1528 958.649 80.1528 959.259 80.7528ZM953.399 86.6128C954.009 87.2228 954.009 88.2028 953.399 88.8128C952.789 89.4228 951.809 89.4228 951.199 88.8128C950.589 88.2028 950.589 87.2228 951.199 86.6128C951.809 86.0028 952.789 86.0028 953.399 86.6128ZM947.539 92.4728C948.149 93.0828 948.149 94.0628 947.539 94.6728C946.929 95.2828 945.949 95.2828 945.339 94.6728C944.729 94.0628 944.729 93.0828 945.339 92.4728C945.949 91.8628 946.929 91.8628 947.539 92.4728ZM941.679 98.3328C942.289 98.9428 942.289 99.9228 941.679 100.533C941.069 101.143 940.089 101.143 939.479 100.533C938.869 99.9228 938.869 98.9428 939.479 98.3328C940.089 97.7228 941.079 97.7228 941.679 98.3328ZM935.819 104.193C936.429 104.803 936.429 105.783 935.819 106.393C935.209 107.003 934.229 107.003 933.619 106.393C933.009 105.783 933.009 104.803 933.619 104.193C934.229 103.583 935.219 103.583 935.819 104.193ZM929.959 110.053C930.569 110.663 930.569 111.643 929.959 112.253C929.349 112.863 928.369 112.863 927.759 112.253C927.149 111.643 927.149 110.663 927.759 110.053C928.369 109.443 929.359 109.443 929.959 110.053ZM924.109 115.903C924.719 116.513 924.719 117.493 924.109 118.103C923.499 118.713 922.519 118.713 921.909 118.103C921.299 117.493 921.299 116.513 921.909 115.903C922.519 115.303 923.499 115.303 924.109 115.903ZM918.249 121.763C918.859 122.373 918.859 123.353 918.249 123.963C917.639 124.573 916.659 124.573 916.049 123.963C915.439 123.353 915.439 122.373 916.049 121.763C916.659 121.163 917.639 121.163 918.249 121.763ZM1000.27 51.4628C1000.88 52.0728 1000.88 53.0528 1000.27 53.6628C999.659 54.2728 998.679 54.2728 998.069 53.6628C997.459 53.0528 997.459 52.0728 998.069 51.4628C998.679 50.8528 999.659 50.8528 1000.27 51.4628ZM994.409 57.3228C995.019 57.9328 995.019 58.9128 994.409 59.5228C993.799 60.1328 992.819 60.1328 992.209 59.5228C991.599 58.9128 991.599 57.9328 992.209 57.3228C992.819 56.7128 993.799 56.7128 994.409 57.3228ZM988.549 63.1828C989.159 63.7928 989.159 64.7728 988.549 65.3828C987.939 65.9928 986.959 65.9928 986.349 65.3828C985.739 64.7728 985.739 63.7928 986.349 63.1828C986.959 62.5728 987.939 62.5728 988.549 63.1828ZM982.689 69.0428C983.299 69.6528 983.299 70.6328 982.689 71.2428C982.079 71.8528 981.099 71.8528 980.489 71.2428C979.879 70.6328 979.879 69.6528 980.489 69.0428C981.099 68.4328 982.089 68.4328 982.689 69.0428ZM976.829 74.8928C977.439 75.5028 977.439 76.4828 976.829 77.0928C976.219 77.7028 975.239 77.7028 974.629 77.0928C974.019 76.4828 974.019 75.5028 974.629 74.8928C975.239 74.2928 976.229 74.2928 976.829 74.8928ZM970.969 80.7528C971.579 81.3628 971.579 82.3428 970.969 82.9528C970.359 83.5628 969.379 83.5628 968.769 82.9528C968.159 82.3428 968.159 81.3628 968.769 80.7528C969.379 80.1528 970.369 80.1528 970.969 80.7528ZM965.119 86.6128C965.729 87.2228 965.729 88.2028 965.119 88.8128C964.509 89.4228 963.529 89.4228 962.919 88.8128C962.309 88.2028 962.309 87.2228 962.919 86.6128C963.529 86.0028 964.509 86.0028 965.119 86.6128ZM959.259 92.4728C959.869 93.0828 959.869 94.0628 959.259 94.6728C958.649 95.2828 957.669 95.2828 957.059 94.6728C956.449 94.0628 956.449 93.0828 957.059 92.4728C957.669 91.8628 958.649 91.8628 959.259 92.4728ZM953.399 98.3328C954.009 98.9428 954.009 99.9228 953.399 100.533C952.789 101.143 951.809 101.143 951.199 100.533C950.589 99.9228 950.589 98.9428 951.199 98.3328C951.809 97.7228 952.789 97.7228 953.399 98.3328ZM947.539 104.193C948.149 104.803 948.149 105.783 947.539 106.393C946.929 107.003 945.949 107.003 945.339 106.393C944.729 105.783 944.729 104.803 945.339 104.193C945.949 103.583 946.929 103.583 947.539 104.193ZM941.679 110.053C942.289 110.663 942.289 111.643 941.679 112.253C941.069 112.863 940.089 112.863 939.479 112.253C938.869 111.643 938.869 110.663 939.479 110.053C940.089 109.443 941.069 109.443 941.679 110.053ZM935.819 115.903C936.429 116.513 936.429 117.493 935.819 118.103C935.209 118.713 934.229 118.713 933.619 118.103C933.009 117.493 933.009 116.513 933.619 115.903C934.229 115.303 935.219 115.303 935.819 115.903ZM929.959 121.763C930.569 122.373 930.569 123.353 929.959 123.963C929.349 124.573 928.369 124.573 927.759 123.963C927.149 123.353 927.149 122.373 927.759 121.763C928.369 121.163 929.359 121.163 929.959 121.763ZM924.109 127.623C924.719 128.233 924.719 129.213 924.109 129.823C923.499 130.433 922.519 130.433 921.909 129.823C921.299 129.213 921.299 128.233 921.909 127.623C922.519 127.013 923.499 127.013 924.109 127.623ZM1006.13 57.3228C1006.74 57.9328 1006.74 58.9128 1006.13 59.5228C1005.52 60.1328 1004.54 60.1328 1003.93 59.5228C1003.32 58.9128 1003.32 57.9328 1003.93 57.3228C1004.54 56.7128 1005.52 56.7128 1006.13 57.3228ZM1000.27 63.1828C1000.88 63.7928 1000.88 64.7728 1000.27 65.3828C999.659 65.9928 998.679 65.9928 998.069 65.3828C997.459 64.7728 997.459 63.7928 998.069 63.1828C998.679 62.5728 999.659 62.5728 1000.27 63.1828ZM994.409 69.0428C995.019 69.6528 995.019 70.6328 994.409 71.2428C993.799 71.8528 992.819 71.8528 992.209 71.2428C991.599 70.6328 991.599 69.6528 992.209 69.0428C992.819 68.4328 993.799 68.4328 994.409 69.0428ZM988.549 74.8928C989.159 75.5028 989.159 76.4828 988.549 77.0928C987.939 77.7028 986.959 77.7028 986.349 77.0928C985.739 76.4828 985.739 75.5028 986.349 74.8928C986.959 74.2928 987.939 74.2928 988.549 74.8928ZM982.689 80.7528C983.299 81.3628 983.299 82.3428 982.689 82.9528C982.079 83.5628 981.099 83.5628 980.489 82.9528C979.879 82.3428 979.879 81.3628 980.489 80.7528C981.099 80.1528 982.089 80.1528 982.689 80.7528ZM976.829 86.6128C977.439 87.2228 977.439 88.2028 976.829 88.8128C976.219 89.4228 975.239 89.4228 974.629 88.8128C974.019 88.2028 974.019 87.2228 974.629 86.6128C975.239 86.0028 976.229 86.0028 976.829 86.6128ZM970.969 92.4728C971.579 93.0828 971.579 94.0628 970.969 94.6728C970.359 95.2828 969.379 95.2828 968.769 94.6728C968.159 94.0628 968.159 93.0828 968.769 92.4728C969.379 91.8628 970.369 91.8628 970.969 92.4728ZM965.119 98.3328C965.729 98.9428 965.729 99.9228 965.119 100.533C964.509 101.143 963.529 101.143 962.919 100.533C962.309 99.9228 962.309 98.9428 962.919 98.3328C963.529 97.7228 964.509 97.7228 965.119 98.3328ZM959.259 104.193C959.869 104.803 959.869 105.783 959.259 106.393C958.649 107.003 957.669 107.003 957.059 106.393C956.449 105.783 956.449 104.803 957.059 104.193C957.669 103.583 958.649 103.583 959.259 104.193ZM953.399 110.053C954.009 110.663 954.009 111.643 953.399 112.253C952.789 112.863 951.809 112.863 951.199 112.253C950.589 111.643 950.589 110.663 951.199 110.053C951.809 109.443 952.789 109.443 953.399 110.053ZM947.539 115.903C948.149 116.513 948.149 117.493 947.539 118.103C946.929 118.713 945.949 118.713 945.339 118.103C944.729 117.493 944.729 116.513 945.339 115.903C945.949 115.303 946.929 115.303 947.539 115.903ZM941.679 121.763C942.289 122.373 942.289 123.353 941.679 123.963C941.069 124.573 940.089 124.573 939.479 123.963C938.869 123.353 938.869 122.373 939.479 121.763C940.089 121.163 941.079 121.163 941.679 121.763ZM935.819 127.623C936.429 128.233 936.429 129.213 935.819 129.823C935.209 130.433 934.229 130.433 933.619 129.823C933.009 129.213 933.009 128.233 933.619 127.623C934.229 127.013 935.219 127.013 935.819 127.623ZM929.959 133.483C930.569 134.093 930.569 135.073 929.959 135.683C929.349 136.293 928.369 136.293 927.759 135.683C927.149 135.073 927.149 134.093 927.759 133.483C928.369 132.873 929.359 132.873 929.959 133.483ZM1011.98 63.1828C1012.59 63.7928 1012.59 64.7728 1011.98 65.3828C1011.37 65.9928 1010.39 65.9928 1009.78 65.3828C1009.17 64.7728 1009.17 63.7928 1009.78 63.1828C1010.39 62.5728 1011.38 62.5728 1011.98 63.1828ZM1006.13 69.0428C1006.74 69.6528 1006.74 70.6328 1006.13 71.2428C1005.52 71.8528 1004.54 71.8528 1003.93 71.2428C1003.32 70.6328 1003.32 69.6528 1003.93 69.0428C1004.54 68.4328 1005.52 68.4328 1006.13 69.0428ZM1000.27 74.8928C1000.88 75.5028 1000.88 76.4828 1000.27 77.0928C999.659 77.7028 998.679 77.7028 998.069 77.0928C997.459 76.4828 997.459 75.5028 998.069 74.8928C998.679 74.2928 999.659 74.2928 1000.27 74.8928ZM994.409 80.7528C995.019 81.3628 995.019 82.3428 994.409 82.9528C993.799 83.5628 992.819 83.5628 992.209 82.9528C991.599 82.3428 991.599 81.3628 992.209 80.7528C992.819 80.1528 993.799 80.1528 994.409 80.7528ZM988.549 86.6128C989.159 87.2228 989.159 88.2028 988.549 88.8128C987.939 89.4228 986.959 89.4228 986.349 88.8128C985.739 88.2028 985.739 87.2228 986.349 86.6128C986.959 86.0028 987.939 86.0028 988.549 86.6128ZM982.689 92.4728C983.299 93.0828 983.299 94.0628 982.689 94.6728C982.079 95.2828 981.099 95.2828 980.489 94.6728C979.879 94.0628 979.879 93.0828 980.489 92.4728C981.099 91.8628 982.089 91.8628 982.689 92.4728ZM976.829 98.3328C977.439 98.9428 977.439 99.9228 976.829 100.533C976.219 101.143 975.239 101.143 974.629 100.533C974.019 99.9228 974.019 98.9428 974.629 98.3328C975.239 97.7228 976.229 97.7228 976.829 98.3328ZM970.969 104.193C971.579 104.803 971.579 105.783 970.969 106.393C970.359 107.003 969.379 107.003 968.769 106.393C968.159 105.783 968.159 104.803 968.769 104.193C969.379 103.583 970.369 103.583 970.969 104.193ZM965.119 110.053C965.729 110.663 965.729 111.643 965.119 112.253C964.509 112.863 963.529 112.863 962.919 112.253C962.309 111.643 962.309 110.663 962.919 110.053C963.529 109.443 964.509 109.443 965.119 110.053ZM959.259 115.903C959.869 116.513 959.869 117.493 959.259 118.103C958.649 118.713 957.669 118.713 957.059 118.103C956.449 117.493 956.449 116.513 957.059 115.903C957.669 115.303 958.649 115.303 959.259 115.903ZM953.399 121.763C954.009 122.373 954.009 123.353 953.399 123.963C952.789 124.573 951.809 124.573 951.199 123.963C950.589 123.353 950.589 122.373 951.199 121.763C951.809 121.163 952.789 121.163 953.399 121.763ZM947.539 127.623C948.149 128.233 948.149 129.213 947.539 129.823C946.929 130.433 945.949 130.433 945.339 129.823C944.729 129.213 944.729 128.233 945.339 127.623C945.949 127.013 946.929 127.013 947.539 127.623ZM941.679 133.483C942.289 134.093 942.289 135.073 941.679 135.683C941.069 136.293 940.089 136.293 939.479 135.683C938.869 135.073 938.869 134.093 939.479 133.483C940.089 132.873 941.079 132.873 941.679 133.483ZM935.819 139.343C936.429 139.953 936.429 140.933 935.819 141.543C935.209 142.153 934.229 142.153 933.619 141.543C933.009 140.933 933.009 139.953 933.619 139.343C934.229 138.733 935.219 138.733 935.819 139.343ZM944.969 0.342773H947.909C947.839 0.562773 947.709 0.762773 947.539 0.932773C946.929 1.54277 945.949 1.54277 945.339 0.932773C945.169 0.762773 945.049 0.562773 944.969 0.342773ZM933.259 0.342773H936.199C936.129 0.562773 935.999 0.762773 935.829 0.932773C935.219 1.54277 934.239 1.54277 933.629 0.932773C933.449 0.762773 933.329 0.562773 933.259 0.342773ZM921.539 0.342773H924.479C924.409 0.562773 924.279 0.762773 924.109 0.932773C923.499 1.54277 922.519 1.54277 921.909 0.932773C921.739 0.762773 921.609 0.562773 921.539 0.342773Z" fill="#E3E5F6"></path> <path fill-rule="evenodd" clip-rule="evenodd" d="M1193.96 461.305C1194.57 461.915 1194.57 462.895 1193.96 463.505C1193.35 464.115 1192.37 464.115 1191.76 463.505C1191.15 462.895 1191.15 461.915 1191.76 461.305C1192.37 460.705 1193.36 460.705 1193.96 461.305ZM1188.11 467.165C1188.72 467.775 1188.72 468.755 1188.11 469.365C1187.5 469.975 1186.52 469.975 1185.91 469.365C1185.3 468.755 1185.3 467.775 1185.91 467.165C1186.52 466.565 1187.5 466.565 1188.11 467.165ZM1182.25 473.025C1182.86 473.635 1182.86 474.615 1182.25 475.225C1181.64 475.835 1180.66 475.835 1180.05 475.225C1179.44 474.615 1179.44 473.635 1180.05 473.025C1180.66 472.415 1181.64 472.415 1182.25 473.025ZM1176.39 478.885C1177 479.495 1177 480.475 1176.39 481.085C1175.78 481.695 1174.8 481.695 1174.19 481.085C1173.58 480.475 1173.58 479.495 1174.19 478.885C1174.8 478.275 1175.78 478.275 1176.39 478.885ZM1170.53 484.745C1171.14 485.355 1171.14 486.335 1170.53 486.945C1169.92 487.555 1168.94 487.555 1168.33 486.945C1167.72 486.335 1167.72 485.355 1168.33 484.745C1168.94 484.135 1169.92 484.135 1170.53 484.745ZM1164.67 490.605C1165.28 491.215 1165.28 492.195 1164.67 492.805C1164.06 493.415 1163.08 493.415 1162.47 492.805C1161.86 492.195 1161.86 491.215 1162.47 490.605C1163.08 489.995 1164.07 489.995 1164.67 490.605ZM1158.81 496.455C1159.42 497.065 1159.42 498.045 1158.81 498.655C1158.2 499.265 1157.22 499.265 1156.61 498.655C1156 498.045 1156 497.065 1156.61 496.455C1157.22 495.855 1158.21 495.855 1158.81 496.455ZM1152.95 502.315C1153.56 502.925 1153.56 503.905 1152.95 504.515C1152.34 505.125 1151.36 505.125 1150.75 504.515C1150.14 503.905 1150.14 502.925 1150.75 502.315C1151.36 501.715 1152.35 501.715 1152.95 502.315ZM1147.1 508.175C1147.71 508.785 1147.71 509.765 1147.1 510.375C1146.49 510.985 1145.51 510.985 1144.9 510.375C1144.29 509.765 1144.29 508.785 1144.9 508.175C1145.51 507.575 1146.49 507.575 1147.1 508.175ZM1141.24 514.035C1141.85 514.645 1141.85 515.625 1141.24 516.235C1140.63 516.845 1139.65 516.845 1139.04 516.235C1138.43 515.625 1138.43 514.645 1139.04 514.035C1139.65 513.425 1140.63 513.425 1141.24 514.035ZM1135.38 519.895C1135.99 520.505 1135.99 521.485 1135.38 522.095C1134.77 522.705 1133.79 522.705 1133.18 522.095C1132.57 521.485 1132.57 520.505 1133.18 519.895C1133.79 519.285 1134.77 519.285 1135.38 519.895ZM1129.52 525.755C1130.13 526.365 1130.13 527.345 1129.52 527.955C1128.91 528.565 1127.93 528.565 1127.32 527.955C1126.71 527.345 1126.71 526.365 1127.32 525.755C1127.93 525.145 1128.91 525.145 1129.52 525.755ZM1123.66 531.615C1124.27 532.225 1124.27 533.205 1123.66 533.815C1123.05 534.425 1122.07 534.425 1121.46 533.815C1120.85 533.205 1120.85 532.225 1121.46 531.615C1122.07 531.005 1123.06 531.005 1123.66 531.615ZM1193.96 473.025C1194.57 473.635 1194.57 474.615 1193.96 475.225C1193.35 475.835 1192.37 475.835 1191.76 475.225C1191.15 474.615 1191.15 473.635 1191.76 473.025C1192.37 472.415 1193.36 472.415 1193.96 473.025ZM1188.11 478.885C1188.72 479.495 1188.72 480.475 1188.11 481.085C1187.5 481.695 1186.52 481.695 1185.91 481.085C1185.3 480.475 1185.3 479.495 1185.91 478.885C1186.52 478.275 1187.5 478.275 1188.11 478.885ZM1182.25 484.745C1182.86 485.355 1182.86 486.335 1182.25 486.945C1181.64 487.555 1180.66 487.555 1180.05 486.945C1179.44 486.335 1179.44 485.355 1180.05 484.745C1180.66 484.135 1181.64 484.135 1182.25 484.745ZM1176.39 490.605C1177 491.215 1177 492.195 1176.39 492.805C1175.78 493.415 1174.8 493.415 1174.19 492.805C1173.58 492.195 1173.58 491.215 1174.19 490.605C1174.8 489.995 1175.78 489.995 1176.39 490.605ZM1170.53 496.455C1171.14 497.065 1171.14 498.045 1170.53 498.655C1169.92 499.265 1168.94 499.265 1168.33 498.655C1167.72 498.045 1167.72 497.065 1168.33 496.455C1168.94 495.855 1169.92 495.855 1170.53 496.455ZM1164.67 502.315C1165.28 502.925 1165.28 503.905 1164.67 504.515C1164.06 505.125 1163.08 505.125 1162.47 504.515C1161.86 503.905 1161.86 502.925 1162.47 502.315C1163.08 501.715 1164.06 501.715 1164.67 502.315ZM1158.81 508.175C1159.42 508.785 1159.42 509.765 1158.81 510.375C1158.2 510.985 1157.22 510.985 1156.61 510.375C1156 509.765 1156 508.785 1156.61 508.175C1157.22 507.575 1158.21 507.575 1158.81 508.175ZM1152.95 514.035C1153.56 514.645 1153.56 515.625 1152.95 516.235C1152.34 516.845 1151.36 516.845 1150.75 516.235C1150.14 515.625 1150.14 514.645 1150.75 514.035C1151.36 513.425 1152.35 513.425 1152.95 514.035ZM1147.1 519.895C1147.71 520.505 1147.71 521.485 1147.1 522.095C1146.49 522.705 1145.51 522.705 1144.9 522.095C1144.29 521.485 1144.29 520.505 1144.9 519.895C1145.51 519.285 1146.49 519.285 1147.1 519.895ZM1141.24 525.755C1141.85 526.365 1141.85 527.345 1141.24 527.955C1140.63 528.565 1139.65 528.565 1139.04 527.955C1138.43 527.345 1138.43 526.365 1139.04 525.755C1139.65 525.145 1140.63 525.145 1141.24 525.755ZM1135.38 531.615C1135.99 532.225 1135.99 533.205 1135.38 533.815C1134.77 534.425 1133.79 534.425 1133.18 533.815C1132.57 533.205 1132.57 532.225 1133.18 531.615C1133.79 531.005 1134.77 531.005 1135.38 531.615ZM1129.52 537.465C1130.13 538.075 1130.13 539.055 1129.52 539.665C1128.91 540.275 1127.93 540.275 1127.32 539.665C1126.71 539.055 1126.71 538.075 1127.32 537.465C1127.93 536.865 1128.91 536.865 1129.52 537.465ZM1193.96 484.745C1194.57 485.355 1194.57 486.335 1193.96 486.945C1193.35 487.555 1192.37 487.555 1191.76 486.945C1191.15 486.335 1191.15 485.355 1191.76 484.745C1192.37 484.135 1193.36 484.135 1193.96 484.745ZM1188.11 490.605C1188.72 491.215 1188.72 492.195 1188.11 492.805C1187.5 493.415 1186.52 493.415 1185.91 492.805C1185.3 492.195 1185.3 491.215 1185.91 490.605C1186.52 489.995 1187.5 489.995 1188.11 490.605ZM1182.25 496.455C1182.86 497.065 1182.86 498.045 1182.25 498.655C1181.64 499.265 1180.66 499.265 1180.05 498.655C1179.44 498.045 1179.44 497.065 1180.05 496.455C1180.66 495.855 1181.64 495.855 1182.25 496.455ZM1176.39 502.315C1177 502.925 1177 503.905 1176.39 504.515C1175.78 505.125 1174.8 505.125 1174.19 504.515C1173.58 503.905 1173.58 502.925 1174.19 502.315C1174.8 501.715 1175.78 501.715 1176.39 502.315ZM1170.53 508.175C1171.14 508.785 1171.14 509.765 1170.53 510.375C1169.92 510.985 1168.94 510.985 1168.33 510.375C1167.72 509.765 1167.72 508.785 1168.33 508.175C1168.94 507.575 1169.92 507.575 1170.53 508.175ZM1164.67 514.035C1165.28 514.645 1165.28 515.625 1164.67 516.235C1164.06 516.845 1163.08 516.845 1162.47 516.235C1161.86 515.625 1161.86 514.645 1162.47 514.035C1163.08 513.425 1164.07 513.425 1164.67 514.035ZM1158.81 519.895C1159.42 520.505 1159.42 521.485 1158.81 522.095C1158.2 522.705 1157.22 522.705 1156.61 522.095C1156 521.485 1156 520.505 1156.61 519.895C1157.22 519.285 1158.21 519.285 1158.81 519.895ZM1152.95 525.755C1153.56 526.365 1153.56 527.345 1152.95 527.955C1152.34 528.565 1151.36 528.565 1150.75 527.955C1150.14 527.345 1150.14 526.365 1150.75 525.755C1151.36 525.145 1152.35 525.145 1152.95 525.755ZM1147.1 531.615C1147.71 532.225 1147.71 533.205 1147.1 533.815C1146.49 534.425 1145.51 534.425 1144.9 533.815C1144.29 533.205 1144.29 532.225 1144.9 531.615C1145.51 531.005 1146.49 531.005 1147.1 531.615ZM1141.24 537.465C1141.85 538.075 1141.85 539.055 1141.24 539.665C1140.63 540.275 1139.65 540.275 1139.04 539.665C1138.43 539.055 1138.43 538.075 1139.04 537.465C1139.65 536.865 1140.63 536.865 1141.24 537.465ZM1135.38 543.325C1135.99 543.935 1135.99 544.915 1135.38 545.525C1134.77 546.135 1133.79 546.135 1133.18 545.525C1132.57 544.915 1132.57 543.935 1133.18 543.325C1133.79 542.725 1134.77 542.725 1135.38 543.325ZM1193.96 496.455C1194.57 497.065 1194.57 498.045 1193.96 498.655C1193.35 499.265 1192.37 499.265 1191.76 498.655C1191.15 498.045 1191.15 497.065 1191.76 496.455C1192.37 495.855 1193.36 495.855 1193.96 496.455ZM1188.11 502.315C1188.72 502.925 1188.72 503.905 1188.11 504.515C1187.5 505.125 1186.52 505.125 1185.91 504.515C1185.3 503.905 1185.3 502.925 1185.91 502.315C1186.52 501.715 1187.5 501.715 1188.11 502.315ZM1182.25 508.175C1182.86 508.785 1182.86 509.765 1182.25 510.375C1181.64 510.985 1180.66 510.985 1180.05 510.375C1179.44 509.765 1179.44 508.785 1180.05 508.175C1180.66 507.575 1181.64 507.575 1182.25 508.175ZM1176.39 514.035C1177 514.645 1177 515.625 1176.39 516.235C1175.78 516.845 1174.8 516.845 1174.19 516.235C1173.58 515.625 1173.58 514.645 1174.19 514.035C1174.8 513.425 1175.78 513.425 1176.39 514.035ZM1170.53 519.895C1171.14 520.505 1171.14 521.485 1170.53 522.095C1169.92 522.705 1168.94 522.705 1168.33 522.095C1167.72 521.485 1167.72 520.505 1168.33 519.895C1168.94 519.285 1169.92 519.285 1170.53 519.895ZM1164.67 525.755C1165.28 526.365 1165.28 527.345 1164.67 527.955C1164.06 528.565 1163.08 528.565 1162.47 527.955C1161.86 527.345 1161.86 526.365 1162.47 525.755C1163.08 525.145 1164.07 525.145 1164.67 525.755ZM1158.81 531.615C1159.42 532.225 1159.42 533.205 1158.81 533.815C1158.2 534.425 1157.22 534.425 1156.61 533.815C1156 533.205 1156 532.225 1156.61 531.615C1157.22 531.005 1158.21 531.005 1158.81 531.615ZM1152.95 537.465C1153.56 538.075 1153.56 539.055 1152.95 539.665C1152.34 540.275 1151.36 540.275 1150.75 539.665C1150.14 539.055 1150.14 538.075 1150.75 537.465C1151.36 536.865 1152.35 536.865 1152.95 537.465ZM1147.1 543.325C1147.71 543.935 1147.71 544.915 1147.1 545.525C1146.49 546.135 1145.51 546.135 1144.9 545.525C1144.29 544.915 1144.29 543.935 1144.9 543.325C1145.51 542.725 1146.49 542.725 1147.1 543.325ZM1141.24 549.185C1141.85 549.795 1141.85 550.775 1141.24 551.385C1140.63 551.995 1139.65 551.995 1139.04 551.385C1138.43 550.775 1138.43 549.795 1139.04 549.185C1139.65 548.585 1140.63 548.585 1141.24 549.185ZM1193.96 508.175C1194.57 508.785 1194.57 509.765 1193.96 510.375C1193.35 510.985 1192.37 510.985 1191.76 510.375C1191.15 509.765 1191.15 508.785 1191.76 508.175C1192.37 507.575 1193.36 507.575 1193.96 508.175ZM1188.11 514.035C1188.72 514.645 1188.72 515.625 1188.11 516.235C1187.5 516.845 1186.52 516.845 1185.91 516.235C1185.3 515.625 1185.3 514.645 1185.91 514.035C1186.52 513.425 1187.5 513.425 1188.11 514.035ZM1182.25 519.895C1182.86 520.505 1182.86 521.485 1182.25 522.095C1181.64 522.705 1180.66 522.705 1180.05 522.095C1179.44 521.485 1179.44 520.505 1180.05 519.895C1180.66 519.285 1181.64 519.285 1182.25 519.895ZM1176.39 525.755C1177 526.365 1177 527.345 1176.39 527.955C1175.78 528.565 1174.8 528.565 1174.19 527.955C1173.58 527.345 1173.58 526.365 1174.19 525.755C1174.8 525.145 1175.78 525.145 1176.39 525.755ZM1170.53 531.615C1171.14 532.225 1171.14 533.205 1170.53 533.815C1169.92 534.425 1168.94 534.425 1168.33 533.815C1167.72 533.205 1167.72 532.225 1168.33 531.615C1168.94 531.005 1169.92 531.005 1170.53 531.615ZM1164.67 537.465C1165.28 538.075 1165.28 539.055 1164.67 539.665C1164.06 540.275 1163.08 540.275 1162.47 539.665C1161.86 539.055 1161.86 538.075 1162.47 537.465C1163.08 536.865 1164.07 536.865 1164.67 537.465ZM1158.81 543.325C1159.42 543.935 1159.42 544.915 1158.81 545.525C1158.2 546.135 1157.22 546.135 1156.61 545.525C1156 544.915 1156 543.935 1156.61 543.325C1157.22 542.725 1158.21 542.725 1158.81 543.325ZM1152.95 549.185C1153.56 549.795 1153.56 550.775 1152.95 551.385C1152.34 551.995 1151.36 551.995 1150.75 551.385C1150.14 550.775 1150.14 549.795 1150.75 549.185C1151.36 548.585 1152.35 548.585 1152.95 549.185ZM1147.1 555.045C1147.71 555.655 1147.71 556.635 1147.1 557.245C1146.49 557.855 1145.51 557.855 1144.9 557.245C1144.29 556.635 1144.29 555.655 1144.9 555.045C1145.51 554.435 1146.49 554.435 1147.1 555.045ZM1193.96 519.895C1194.57 520.505 1194.57 521.485 1193.96 522.095C1193.35 522.705 1192.37 522.705 1191.76 522.095C1191.15 521.485 1191.15 520.505 1191.76 519.895C1192.37 519.285 1193.36 519.285 1193.96 519.895ZM1188.11 525.755C1188.72 526.365 1188.72 527.345 1188.11 527.955C1187.5 528.565 1186.52 528.565 1185.91 527.955C1185.3 527.345 1185.3 526.365 1185.91 525.755C1186.52 525.145 1187.5 525.145 1188.11 525.755ZM1182.25 531.615C1182.86 532.225 1182.86 533.205 1182.25 533.815C1181.64 534.425 1180.66 534.425 1180.05 533.815C1179.44 533.205 1179.44 532.225 1180.05 531.615C1180.66 531.005 1181.64 531.005 1182.25 531.615ZM1176.39 537.465C1177 538.075 1177 539.055 1176.39 539.665C1175.78 540.275 1174.8 540.275 1174.19 539.665C1173.58 539.055 1173.58 538.075 1174.19 537.465C1174.8 536.865 1175.78 536.865 1176.39 537.465ZM1170.53 543.325C1171.14 543.935 1171.14 544.915 1170.53 545.525C1169.92 546.135 1168.94 546.135 1168.33 545.525C1167.72 544.915 1167.72 543.935 1168.33 543.325C1168.94 542.725 1169.92 542.725 1170.53 543.325ZM1164.67 549.185C1165.28 549.795 1165.28 550.775 1164.67 551.385C1164.06 551.995 1163.08 551.995 1162.47 551.385C1161.86 550.775 1161.86 549.795 1162.47 549.185C1163.08 548.585 1164.07 548.585 1164.67 549.185ZM1158.81 555.045C1159.42 555.655 1159.42 556.635 1158.81 557.245C1158.2 557.855 1157.22 557.855 1156.61 557.245C1156 556.635 1156 555.655 1156.61 555.045C1157.22 554.435 1158.21 554.435 1158.81 555.045ZM1152.95 560.905C1153.56 561.515 1153.56 562.495 1152.95 563.105C1152.34 563.715 1151.36 563.715 1150.75 563.105C1150.14 562.495 1150.14 561.515 1150.75 560.905C1151.36 560.295 1152.35 560.295 1152.95 560.905ZM1193.96 531.615C1194.57 532.225 1194.57 533.205 1193.96 533.815C1193.35 534.425 1192.37 534.425 1191.76 533.815C1191.15 533.205 1191.15 532.225 1191.76 531.615C1192.37 531.005 1193.36 531.005 1193.96 531.615ZM1188.11 537.465C1188.72 538.075 1188.72 539.055 1188.11 539.665C1187.5 540.275 1186.52 540.275 1185.91 539.665C1185.3 539.055 1185.3 538.075 1185.91 537.465C1186.52 536.865 1187.5 536.865 1188.11 537.465ZM1182.25 543.325C1182.86 543.935 1182.86 544.915 1182.25 545.525C1181.64 546.135 1180.66 546.135 1180.05 545.525C1179.44 544.915 1179.44 543.935 1180.05 543.325C1180.66 542.725 1181.64 542.725 1182.25 543.325ZM1176.39 549.185C1177 549.795 1177 550.775 1176.39 551.385C1175.78 551.995 1174.8 551.995 1174.19 551.385C1173.58 550.775 1173.58 549.795 1174.19 549.185C1174.8 548.585 1175.78 548.585 1176.39 549.185ZM1170.53 555.045C1171.14 555.655 1171.14 556.635 1170.53 557.245C1169.92 557.855 1168.94 557.855 1168.33 557.245C1167.72 556.635 1167.72 555.655 1168.33 555.045C1168.94 554.435 1169.92 554.435 1170.53 555.045ZM1164.67 560.905C1165.28 561.515 1165.28 562.495 1164.67 563.105C1164.06 563.715 1163.08 563.715 1162.47 563.105C1161.86 562.495 1161.86 561.515 1162.47 560.905C1163.08 560.295 1164.07 560.295 1164.67 560.905ZM1158.81 566.765C1159.42 567.375 1159.42 568.355 1158.81 568.965C1158.2 569.575 1157.22 569.575 1156.61 568.965C1156 568.355 1156 567.375 1156.61 566.765C1157.22 566.155 1158.21 566.155 1158.81 566.765ZM1193.96 543.325C1194.57 543.935 1194.57 544.915 1193.96 545.525C1193.35 546.135 1192.37 546.135 1191.76 545.525C1191.15 544.915 1191.15 543.935 1191.76 543.325C1192.37 542.725 1193.36 542.725 1193.96 543.325ZM1188.11 549.185C1188.72 549.795 1188.72 550.775 1188.11 551.385C1187.5 551.995 1186.52 551.995 1185.91 551.385C1185.3 550.775 1185.3 549.795 1185.91 549.185C1186.52 548.585 1187.5 548.585 1188.11 549.185ZM1182.25 555.045C1182.86 555.655 1182.86 556.635 1182.25 557.245C1181.64 557.855 1180.66 557.855 1180.05 557.245C1179.44 556.635 1179.44 555.655 1180.05 555.045C1180.66 554.435 1181.64 554.435 1182.25 555.045ZM1176.39 560.905C1177 561.515 1177 562.495 1176.39 563.105C1175.78 563.715 1174.8 563.715 1174.19 563.105C1173.58 562.495 1173.58 561.515 1174.19 560.905C1174.8 560.295 1175.78 560.295 1176.39 560.905ZM1170.53 566.765C1171.14 567.375 1171.14 568.355 1170.53 568.965C1169.92 569.575 1168.94 569.575 1168.33 568.965C1167.72 568.355 1167.72 567.375 1168.33 566.765C1168.94 566.155 1169.92 566.155 1170.53 566.765ZM1164.67 572.625C1165.28 573.235 1165.28 574.215 1164.67 574.825C1164.06 575.435 1163.08 575.435 1162.47 574.825C1161.86 574.215 1161.86 573.235 1162.47 572.625C1163.08 572.015 1164.07 572.015 1164.67 572.625ZM1193.96 555.045C1194.57 555.655 1194.57 556.635 1193.96 557.245C1193.35 557.855 1192.37 557.855 1191.76 557.245C1191.15 556.635 1191.15 555.655 1191.76 555.045C1192.37 554.435 1193.36 554.435 1193.96 555.045ZM1188.11 560.905C1188.72 561.515 1188.72 562.495 1188.11 563.105C1187.5 563.715 1186.52 563.715 1185.91 563.105C1185.3 562.495 1185.3 561.515 1185.91 560.905C1186.52 560.295 1187.5 560.295 1188.11 560.905ZM1182.25 566.765C1182.86 567.375 1182.86 568.355 1182.25 568.965C1181.64 569.575 1180.66 569.575 1180.05 568.965C1179.44 568.355 1179.44 567.375 1180.05 566.765C1180.66 566.155 1181.64 566.155 1182.25 566.765ZM1176.39 572.625C1177 573.235 1177 574.215 1176.39 574.825C1175.78 575.435 1174.8 575.435 1174.19 574.825C1173.58 574.215 1173.58 573.235 1174.19 572.625C1174.8 572.015 1175.78 572.015 1176.39 572.625ZM1170.53 578.475C1171.14 579.085 1171.14 580.065 1170.53 580.675C1169.92 581.285 1168.94 581.285 1168.33 580.675C1167.72 580.065 1167.72 579.085 1168.33 578.475C1168.94 577.875 1169.92 577.875 1170.53 578.475ZM1193.97 566.765C1194.58 567.375 1194.58 568.355 1193.97 568.965C1193.36 569.575 1192.38 569.575 1191.77 568.965C1191.16 568.355 1191.16 567.375 1191.77 566.765C1192.37 566.155 1193.36 566.155 1193.97 566.765ZM1188.11 572.625C1188.72 573.235 1188.72 574.215 1188.11 574.825C1187.5 575.435 1186.52 575.435 1185.91 574.825C1185.3 574.215 1185.3 573.235 1185.91 572.625C1186.52 572.015 1187.5 572.015 1188.11 572.625ZM1182.25 578.475C1182.86 579.085 1182.86 580.065 1182.25 580.675C1181.64 581.285 1180.66 581.285 1180.05 580.675C1179.44 580.065 1179.44 579.085 1180.05 578.475C1180.66 577.875 1181.64 577.875 1182.25 578.475ZM1176.39 584.335C1177 584.945 1177 585.925 1176.39 586.535C1175.78 587.145 1174.8 587.145 1174.19 586.535C1173.58 585.925 1173.58 584.945 1174.19 584.335C1174.8 583.735 1175.78 583.735 1176.39 584.335ZM1193.96 578.475C1194.57 579.085 1194.57 580.065 1193.96 580.675C1193.35 581.285 1192.37 581.285 1191.76 580.675C1191.15 580.065 1191.15 579.085 1191.76 578.475C1192.37 577.875 1193.36 577.875 1193.96 578.475ZM1188.11 584.335C1188.72 584.945 1188.72 585.925 1188.11 586.535C1187.5 587.145 1186.52 587.145 1185.91 586.535C1185.3 585.925 1185.3 584.945 1185.91 584.335C1186.52 583.735 1187.5 583.735 1188.11 584.335ZM1182.25 590.195C1182.86 590.805 1182.86 591.785 1182.25 592.395C1181.64 593.005 1180.66 593.005 1180.05 592.395C1179.44 591.785 1179.44 590.805 1180.05 590.195C1180.66 589.595 1181.64 589.595 1182.25 590.195ZM1193.97 590.195C1194.58 590.805 1194.58 591.785 1193.97 592.395C1193.36 593.005 1192.38 593.005 1191.77 592.395C1191.16 591.785 1191.16 590.805 1191.77 590.195C1192.37 589.595 1193.36 589.595 1193.97 590.195ZM1188.11 596.055C1188.72 596.665 1188.72 597.645 1188.11 598.255C1187.5 598.865 1186.52 598.865 1185.91 598.255C1185.3 597.645 1185.3 596.665 1185.91 596.055C1186.52 595.445 1187.5 595.445 1188.11 596.055ZM1193.96 601.915C1194.57 602.525 1194.57 603.505 1193.96 604.115C1193.35 604.725 1192.37 604.725 1191.76 604.115C1191.15 603.505 1191.15 602.525 1191.76 601.915C1192.37 601.305 1193.36 601.305 1193.96 601.915ZM1199.78 607.725V610.015C1199.17 610.575 1198.22 610.565 1197.63 609.975C1197.02 609.365 1197.02 608.385 1197.63 607.775C1198.22 607.185 1199.17 607.165 1199.78 607.725ZM1199.78 596.015V598.305C1199.17 598.865 1198.22 598.855 1197.63 598.265C1197.02 597.655 1197.02 596.675 1197.63 596.065C1198.22 595.465 1199.17 595.445 1199.78 596.015ZM1199.78 584.295V586.585C1199.17 587.145 1198.22 587.135 1197.63 586.545C1197.02 585.935 1197.02 584.955 1197.63 584.345C1198.22 583.745 1199.17 583.735 1199.78 584.295ZM1199.78 572.575V574.865C1199.17 575.425 1198.22 575.415 1197.63 574.825C1197.02 574.215 1197.02 573.235 1197.63 572.625C1198.22 572.025 1199.17 572.015 1199.78 572.575ZM1199.78 560.855V563.145C1199.17 563.705 1198.22 563.695 1197.63 563.105C1197.02 562.495 1197.02 561.515 1197.63 560.905C1198.22 560.315 1199.17 560.295 1199.78 560.855ZM1199.78 549.145V551.435C1199.17 551.995 1198.22 551.985 1197.63 551.395C1197.02 550.785 1197.02 549.805 1197.63 549.195C1198.22 548.595 1199.17 548.585 1199.78 549.145ZM1199.78 537.425V539.715C1199.17 540.275 1198.22 540.265 1197.63 539.675C1197.02 539.065 1197.02 538.085 1197.63 537.475C1198.22 536.875 1199.17 536.865 1199.78 537.425ZM1199.78 525.705V527.995C1199.17 528.555 1198.22 528.545 1197.63 527.955C1197.02 527.345 1197.02 526.365 1197.63 525.755C1198.22 525.165 1199.17 525.145 1199.78 525.705ZM1199.78 513.995V516.285C1199.17 516.845 1198.22 516.835 1197.63 516.245C1197.02 515.635 1197.02 514.655 1197.63 514.045C1198.22 513.445 1199.17 513.425 1199.78 513.995ZM1199.78 502.275V504.565C1199.17 505.125 1198.22 505.115 1197.63 504.525C1197.02 503.915 1197.02 502.935 1197.63 502.325C1198.22 501.725 1199.17 501.715 1199.78 502.275ZM1199.78 490.555V492.845C1199.17 493.405 1198.22 493.395 1197.63 492.805C1197.02 492.195 1197.02 491.215 1197.63 490.605C1198.22 490.005 1199.17 489.995 1199.78 490.555ZM1199.78 478.835V481.125C1199.17 481.685 1198.22 481.675 1197.63 481.085C1197.02 480.475 1197.02 479.495 1197.63 478.885C1198.22 478.295 1199.17 478.275 1199.78 478.835ZM1199.78 467.125V469.415C1199.17 469.975 1198.22 469.965 1197.63 469.375C1197.02 468.765 1197.02 467.785 1197.63 467.175C1198.22 466.575 1199.17 466.565 1199.78 467.125ZM1199.78 457.695C1199.17 458.255 1198.22 458.245 1197.63 457.655C1197.02 457.045 1197.02 456.065 1197.63 455.455C1198.22 454.865 1199.17 454.845 1199.78 455.415V457.695Z" fill="#DAF5F4"></path> <g clip-path="url(#clip4)"> <path d="M398.853 -110.358L281.645 6.85059L282.649 7.85467L399.858 -109.354L398.853 -110.358Z" fill="#E7F8FF"></path> <path d="M410.242 -107.427L284.576 18.2393L285.58 19.2433L411.246 -106.422L410.242 -107.427Z" fill="#E7F8FF"></path> <path d="M420.582 -103.457L288.553 28.5723L289.557 29.5763L421.587 -102.453L420.582 -103.457Z" fill="#E7F8FF"></path> <path d="M430.043 -98.5866L293.424 38.0322L294.428 39.0363L431.047 -97.5825L430.043 -98.5866Z" fill="#E7F8FF"></path> <path d="M438.684 -92.9099L299.096 46.6787L300.1 47.6828L439.688 -91.9058L438.684 -92.9099Z" fill="#E7F8FF"></path> <path d="M446.557 -86.4566L305.533 54.5674L306.537 55.5715L447.561 -85.4526L446.557 -86.4566Z" fill="#E7F8FF"></path> <path d="M453.734 -79.3202L312.703 61.7109L313.707 62.715L454.738 -78.3161L453.734 -79.3202Z" fill="#E7F8FF"></path> <path d="M460.172 -71.4316L320.576 68.1641L321.58 69.1681L461.176 -70.4275L460.172 -71.4316Z" fill="#E7F8FF"></path> <path d="M465.85 -62.7782L329.225 73.8477L330.229 74.8517L466.855 -61.7741L465.85 -62.7782Z" fill="#E7F8FF"></path> <path d="M470.72 -53.3358L338.676 78.708L339.68 79.7121L471.724 -52.3318L470.72 -53.3358Z" fill="#E7F8FF"></path> <path d="M474.689 -42.9871L349.023 82.6787L350.028 83.6828L475.693 -41.983L474.689 -42.9871Z" fill="#E7F8FF"></path> <path d="M477.619 -31.5785L360.424 85.6162L361.428 86.6203L478.623 -30.5745L477.619 -31.5785Z" fill="#E7F8FF"></path> <path d="M479.267 -18.8993L373.104 87.2646L374.108 88.2687L480.272 -17.8952L479.267 -18.8993Z" fill="#E7F8FF"></path> <path d="M479.16 -4.48269L387.527 87.1504L388.531 88.1545L480.165 -3.47861L479.16 -4.48269Z" fill="#E7F8FF"></path> <path d="M405.731 85.2773L404.721 84.2873L476.281 12.7373L477.281 13.7473L405.731 85.2773Z" fill="#E7F8FF"></path> <path d="M429.75 75.5981L428.73 74.608L466.6 36.748L467.61 37.7381L429.75 75.5981Z" fill="#E7F8FF"></path> </g> </g> <defs> <clipPath id="clip0"> <rect width="1200" height="720" fill="white"></rect> </clipPath> <clipPath id="clip1"> <rect width="41" height="14" fill="white" transform="translate(916 650.991) rotate(-45)"></rect> </clipPath> <clipPath id="clip2"> <rect width="41" height="14" fill="white" transform="translate(727.992 124.891) rotate(-135)"></rect> </clipPath> <clipPath id="clip3"> <rect width="41" height="14" fill="white" transform="matrix(0.707107 -0.707107 -0.707107 -0.707107 333.898 542.891)"></rect> </clipPath> <clipPath id="clip4"> <rect width="200.271" height="200.269" fill="white" transform="translate(280 -112)"></rect> </clipPath> </defs> </svg> 