<?xml version="1.0" encoding="UTF-8"?> <!-- Generator: Adobe Illustrator 21.1.0, SVG Export Plug-In . SVG Version: 6.00 Build 0) --> <svg xmlns="http://www.w3.org/2000/svg" xmlns:xlink="http://www.w3.org/1999/xlink" id="Layer_1" x="0px" y="0px" viewBox="0 0 128 128" style="enable-background:new 0 0 128 128;" xml:space="preserve"> <style type="text/css"> .st0{fill:#FFFFFF;} .st1{fill:#444B54;} .st2{fill:#FFF0B3;} .st3{opacity:0.2;} .st4{fill:#FCCA3D;} .st5{fill:#FF5576;} .st6{fill:#ADF9D2;} .st7{fill:#3F4A54;} .st8{fill:#FF6144;} .st9{fill:#D3D8DD;} .st10{fill:#C0E7FF;} .st11{fill:none;stroke:#444B54;stroke-width:6;stroke-linecap:round;stroke-linejoin:round;stroke-miterlimit:10;} .st12{opacity:0.5;} .st13{fill:#F8DB59;} .st14{fill:#1AB792;} .st15{fill:#E9EEF4;} .st16{fill:#009F96;} .st17{fill:#FCE0E2;} .st18{fill:#3C71A6;} .st19{fill:#D32F56;} </style> <g> <g> <g> <g> <g> <path class="st9" d="M22,4c-5.5,0-10,4.5-10,10v60c0,5.5,4.5,10,10,10h62v0c0-3.9,3.1-7,7-7h1c3.9,0,7,3.1,7,7v0h20V14 c0-5.5-4.5-10-10-10H22z"></path> </g> </g> </g> <g> <g> <g> <path class="st0" d="M34,34H14C8.5,34,4,38.5,4,44v30v3h6v50h12h12V74h3V43v-9H34z"></path> </g> </g> </g> <g> <g> <g> <path class="st1" d="M81,87H49c-1.7,0-3-1.3-3-3s1.3-3,3-3h32c1.7,0,3,1.3,3,3S82.7,87,81,87z"></path> </g> </g> </g> <g> <g> <g> <path class="st1" d="M119,77c-1.7,0-3-1.3-3-3V14c0-3.9-3.1-7-7-7H45c-1.7,0-3-1.3-3-3s1.3-3,3-3h64c7.2,0,13,5.8,13,13v60 C122,75.7,120.7,77,119,77z"></path> </g> </g> </g> <g> <g> <g> <circle class="st0" cx="22" cy="14" r="10"></circle> </g> </g> </g> <g> <g> <g> <path class="st1" d="M22,27c-7.2,0-13-5.8-13-13S14.8,1,22,1s13,5.8,13,13S29.2,27,22,27z M22,7c-3.9,0-7,3.1-7,7s3.1,7,7,7 s7-3.1,7-7S25.9,7,22,7z"></path> </g> </g> </g> <g> <g> <g> <path class="st0" d="M101,37H91c-1.7,0-3-1.3-3-3s1.3-3,3-3h10c1.7,0,3,1.3,3,3S102.7,37,101,37z"></path> </g> </g> </g> <g> <g> <g> <path class="st0" d="M101,52H71c-1.7,0-3-1.3-3-3s1.3-3,3-3h30c1.7,0,3,1.3,3,3S102.7,52,101,52z"></path> </g> </g> </g> <g> <g> <g> <path class="st0" d="M86,67H61c-1.7,0-3-1.3-3-3s1.3-3,3-3h25c1.7,0,3,1.3,3,3S87.7,67,86,67z"></path> </g> </g> </g> <path class="st1" d="M124,81h-22.1c-0.7-4-4.2-7-8.4-7c-0.1,0-0.2,0-0.2,0c-0.1,0-0.2,0-0.2,0h-6c-1.7,0-3,1.3-3,3s1.3,3,3,3h6 c0.1,0,0.2,0,0.2,0c0.1,0,0.2,0,0.2,0c1.4,0,2.5,1.1,2.5,2.5V84c0,1.7,1.3,3,3,3h25c1.7,0,3-1.3,3-3S125.7,81,124,81z"></path> <g> <path class="st1" d="M4,77c1.7,0,3-1.3,3-3V44c0-3.9,3.1-7,7-7h57c1.7,0,3-1.3,3-3s-1.3-3-3-3H14C6.8,31,1,36.8,1,44v30 C1,75.7,2.3,77,4,77z"></path> <path class="st1" d="M124,121H37V49c0-1.7-1.3-3-3-3s-3,1.3-3,3v72h-6V82c0-1.7-1.3-3-3-3s-3,1.3-3,3v39h-6V79.3c0-1.7-1.3-3-3-3 s-3,1.3-3,3V121H4c-1.7,0-3,1.3-3,3s1.3,3,3,3h120c1.7,0,3-1.3,3-3S125.7,121,124,121z"></path> </g> </g> <g> <g> <g> <circle class="st0" cx="101" cy="64" r="3"></circle> </g> </g> </g> </g> </svg> 