<?xml version="1.0" encoding="UTF-8"?> <svg xmlns="http://www.w3.org/2000/svg" width="195" height="60" viewBox="0 0 195 60" fill="none"> <path d="M0 30C0 13.4315 13.4315 0 30 0H165C181.569 0 195 13.4315 195 30V30C195 46.5685 181.569 60 165 60H30C13.4315 60 0 46.5685 0 30V30Z" fill="#2AABEE"></path> <path fill-rule="evenodd" clip-rule="evenodd" d="M84.9936 28.3318C92.7782 24.9449 97.9692 22.712 100.566 21.6332C107.982 18.5529 109.523 18.0179 110.528 18.0002C110.749 17.9963 111.242 18.051 111.562 18.3102C111.833 18.5291 111.907 18.8248 111.942 19.0324C111.978 19.2399 112.022 19.7127 111.987 20.0822C111.585 24.2988 109.846 34.5315 108.962 39.2541C108.587 41.2525 107.85 41.9225 107.137 41.9881C105.586 42.1306 104.409 40.9647 102.907 39.9815C100.556 38.443 99.2286 37.4853 96.9472 35.984C94.3108 34.249 96.0199 33.2954 97.5224 31.737C97.9156 31.3291 104.748 25.123 104.88 24.56C104.897 24.4896 104.912 24.2271 104.756 24.0886C104.6 23.95 104.37 23.9974 104.203 24.0351C103.968 24.0885 100.213 26.5667 92.9396 31.4697C91.8738 32.2005 90.9085 32.5565 90.0437 32.5379C89.0902 32.5173 87.2562 31.9995 85.8927 31.5569C84.2204 31.0141 82.8913 30.7271 83.007 29.8051C83.0673 29.3249 83.7295 28.8338 84.9936 28.3318Z" fill="white"></path> </svg> 