<?xml version="1.0" encoding="UTF-8"?> <svg xmlns="http://www.w3.org/2000/svg" width="174" height="41" viewBox="0 0 174 41" fill="none"> <path fill-rule="evenodd" clip-rule="evenodd" d="M27.8546 8.51914V29.9903H38.6561C40.2117 29.9194 41.7438 29.5824 43.1858 28.9939C44.2896 28.4412 45.1305 27.4743 45.5253 26.3038C46.1284 24.4223 46.3979 22.4497 46.3217 20.4752V19.6283C46.3217 12.6041 44.2808 8.91767 40.2489 8.51914H27.8546ZM23.1756 40.9999V34.2247H11.0799C9.84491 34.1746 8.62249 33.9568 7.44618 33.5771C6.48438 33.252 5.57792 32.7816 4.75824 32.1822C3.69805 31.3591 2.68437 30.4776 1.72187 29.5419C0.34515 26.7305 -0.223564 23.5914 0.0792433 20.4752C0.0792433 19.9771 0.0792433 19.2298 0.0792433 18.2833C0.0792433 17.3367 0.0792433 16.7389 0.0792433 16.4899C0.0209532 14.286 0.628115 12.1158 1.82142 10.2627C3.02492 8.37699 4.75595 6.88711 6.79908 5.97848C8.84466 4.92474 11.1191 4.39418 13.4194 4.43414H23.3747V0.299316H27.6555V4.43414H37.6108C39.9236 4.42501 42.207 4.95369 44.2808 5.97848C46.3058 6.91554 48.0296 8.39918 49.2585 10.2627C50.4665 12.1115 51.0909 14.2812 51.0505 16.4899V20.4752C51.3763 23.5819 50.8425 26.7184 49.5074 29.5419C48.119 30.8829 46.563 32.0383 44.8782 32.9793C43.3206 33.7215 41.625 34.1288 39.9005 34.1749H27.8546V40.95L23.1756 40.9999ZM6.40087 11.1096C5.70235 11.7576 5.23106 12.6135 5.0569 13.5507C4.78091 15.0284 4.6641 16.5315 4.70847 18.0342C4.70847 18.0342 4.70847 18.5822 4.70847 19.0305C4.73045 19.4454 4.73045 19.8611 4.70847 20.276C4.62117 22.2473 4.87375 24.219 5.45511 26.1045C5.65137 26.6911 5.96423 27.2318 6.37485 27.6942C6.78547 28.1565 7.28536 28.5308 7.84439 28.7947C9.28267 29.395 10.8168 29.7324 12.3741 29.791H23.1756V8.51914H10.8808C9.15005 8.94192 7.58806 9.87988 6.40087 11.2093V11.1096Z" fill="white"></path> <path fill-rule="evenodd" clip-rule="evenodd" d="M56.2266 0H60.9056V37.2632L84.6988 0H92.5137V40.8002H87.8347V3.93553L63.9917 40.8002H56.2266V0Z" fill="white"></path> <path fill-rule="evenodd" clip-rule="evenodd" d="M131.89 0V40.8002H127.061V21.8697L127.111 4.085H102.123V40.8002H97.3945V0H131.89Z" fill="white"></path> <path fill-rule="evenodd" clip-rule="evenodd" d="M137.41 0H142.039V37.2632L165.882 0H173.647V40.8002H169.018V3.93553L145.126 40.8002H137.41V0Z" fill="white"></path> </svg> 