<?xml version="1.0" encoding="UTF-8"?> <svg xmlns="http://www.w3.org/2000/svg" width="150" height="72" viewBox="0 0 150 72" fill="none"> <path fill-rule="evenodd" clip-rule="evenodd" d="M38.9952 35.8472C41.8377 30.4623 44.0507 24.8175 45.4014 20.0613C44.8911 19.9976 44.3637 19.9461 43.8185 19.9009C42.5336 24.3539 40.4301 29.7697 37.6096 35.1141C37.0863 36.1009 36.5493 37.0677 36 38.0161C36.7644 37.7665 37.511 37.5045 38.2479 37.2357C38.4986 36.7756 38.75 36.3141 38.9952 35.8472Z" fill="#FFFFFE"></path> <path fill-rule="evenodd" clip-rule="evenodd" d="M19.0421 25.2869C19.377 24.6498 19.7209 24.0231 20.0675 23.4053C19.3223 23.6364 18.5976 23.8722 17.8894 24.115C17.8106 24.2617 17.7325 24.4044 17.6565 24.5525C14.4997 30.5257 12.236 36.3584 10.9277 41.5047C11.4414 41.5486 11.9729 41.5836 12.5188 41.6069C13.764 36.8028 15.9017 31.2341 19.0421 25.2869Z" fill="#FFFFFE"></path> <path fill-rule="evenodd" clip-rule="evenodd" d="M15.9912 32.7627C15.759 33.3181 15.5282 33.8715 15.3145 34.4146C17.5638 36.434 20.3713 38.3225 23.6001 39.8976C26.9055 41.5131 30.3097 42.6034 33.5062 43.1149C33.8329 42.6233 34.1597 42.1206 34.4781 41.6118C31.2432 41.1894 27.7288 40.0971 24.3151 38.4308C21.0549 36.8379 18.2103 34.8576 15.9912 32.7627Z" fill="#FFFFFE"></path> <path fill-rule="evenodd" clip-rule="evenodd" d="M44.5436 29.4601C41.9607 26.0391 37.8792 22.8567 33.0525 20.4964C28.3594 18.2096 23.458 16.9458 19.2484 16.9458C14.5922 16.9458 11.2888 18.464 9.94498 21.2233C8.28402 24.6354 10.0258 29.1337 14.0957 33.2555C14.321 32.6912 14.5498 32.1289 14.7916 31.5591C11.5977 28.1133 10.1594 24.5127 11.4114 21.9399C12.4525 19.8039 15.3094 18.5792 19.2484 18.5792C23.2148 18.5792 27.8635 19.7819 32.3354 21.9659C36.9368 24.2144 40.81 27.2253 43.2422 30.4455C45.5539 33.5079 46.2642 36.3549 45.2368 38.4573C44.1963 40.5927 41.3409 41.818 37.3998 41.818C37.0217 41.818 36.6292 41.7968 36.2381 41.7762C35.9121 42.3042 35.5874 42.8253 35.2559 43.3383C35.9861 43.4041 36.7046 43.4528 37.3998 43.4528C42.0553 43.4528 45.3594 41.9332 46.7018 39.176C48.0121 36.4893 47.247 33.0409 44.5436 29.4601Z" fill="#FFFFFE"></path> <path fill-rule="evenodd" clip-rule="evenodd" d="M34.7452 40.1202C28.2315 50.683 20.4247 58.1524 15.5068 58.1524C14.8644 58.1524 14.2795 58.0146 13.7753 57.7479C11.0945 56.3278 10.3945 50.8907 12.124 43.2244C11.5815 43.1977 11.0548 43.16 10.5425 43.112C8.76575 51.1534 9.49589 57.259 13.0411 59.1378C13.7767 59.5252 14.6055 59.722 15.5068 59.722C21.3568 59.722 29.9212 51.5278 37.0205 39.394C36.274 39.6478 35.5158 39.8891 34.7452 40.1202Z" fill="#FFFFFE"></path> <path fill-rule="evenodd" clip-rule="evenodd" d="M30.3892 39.1218C29.1172 39.4174 27.8474 39.6752 26.5898 39.9008C27.6022 40.3068 28.6152 40.6633 29.6186 40.9623C30.0008 40.88 30.3775 40.8012 30.7583 40.712C36.1282 39.4709 41.1364 37.725 45.3124 35.6761C45.2234 35.1632 45.0713 34.6304 44.857 34.0825C40.7474 36.1314 35.757 37.8786 30.3892 39.1218Z" fill="#FFFFFE"></path> <path fill-rule="evenodd" clip-rule="evenodd" d="M10.7188 25.0348C10.7824 25.5573 10.9085 26.1004 11.103 26.6538C15.0742 24.5898 20.203 22.6787 26.2585 21.2757C27.0044 21.1036 27.7448 20.9459 28.4852 20.7957C27.4359 20.411 26.3893 20.0805 25.3557 19.811C19.7612 21.1495 14.7571 22.9735 10.7188 25.0348Z" fill="#FFFFFE"></path> <path fill-rule="evenodd" clip-rule="evenodd" d="M23.5841 40.3721C20.7711 40.7541 18.0396 40.9571 15.4965 40.9571C7.83138 40.9571 2.65604 39.1763 1.99303 36.3031C1.42796 33.864 4.23686 30.5404 9.63275 27.4519C9.43618 26.9136 9.28481 26.3801 9.18481 25.8569C3.07248 29.2848 -0.389848 33.2428 0.400563 36.672C1.27522 40.4366 6.77522 42.5945 15.4965 42.5945C18.8923 42.5945 22.6033 42.2469 26.4102 41.5879C25.4649 41.2252 24.5211 40.8192 23.5841 40.3721Z" fill="#FFFFFE"></path> <path fill-rule="evenodd" clip-rule="evenodd" d="M56.248 23.7264C55.3775 19.9625 49.8761 17.8032 41.1535 17.8032C37.2727 17.8032 32.9802 18.2572 28.6035 19.1095C29.5645 19.4489 30.5261 19.8302 31.4864 20.2567C34.8583 19.7205 38.1391 19.438 41.1535 19.438C48.8186 19.438 53.9946 21.2222 54.6576 24.0947C55.1679 26.2965 52.9809 29.1552 48.6563 31.9372C47.92 32.411 47.1302 32.8739 46.3028 33.3244C46.5234 33.8606 46.6953 34.3879 46.8152 34.9049C47.7775 34.3907 48.6891 33.8579 49.5398 33.312C54.5494 30.0864 56.933 26.6825 56.248 23.7264Z" fill="#FFFFFE"></path> <path fill-rule="evenodd" clip-rule="evenodd" d="M32.472 30.3476C32.472 32.847 30.4488 34.8719 27.9508 34.8719C25.4549 34.8719 23.4316 32.847 23.4316 30.3476C23.4316 27.8475 25.4549 25.8198 27.9508 25.8198C30.4488 25.8198 32.472 27.8475 32.472 30.3476Z" fill="#FFFFFE"></path> <path fill-rule="evenodd" clip-rule="evenodd" d="M21.2513 21.3568C21.8307 20.3844 22.4218 19.4381 23.0225 18.5165C22.4342 18.4205 21.8533 18.3424 21.2828 18.2896C20.5218 19.4896 19.7725 20.7321 19.041 22.0205C19.7629 21.7908 20.5013 21.57 21.2513 21.3568Z" fill="#FFFFFE"></path> <path fill-rule="evenodd" clip-rule="evenodd" d="M24.0161 17.0303C30.0435 8.21609 36.7503 2.24489 41.1442 2.24489C41.7873 2.24489 42.3709 2.38066 42.8757 2.64809C45.727 4.15872 46.3373 10.2204 44.1633 18.6732C44.7058 18.7199 45.2311 18.7761 45.7366 18.844C47.9668 10.0387 47.3825 3.25632 43.6113 1.25952C42.875 0.872779 42.0455 0.675293 41.1442 0.675293C36.0058 0.675293 28.7764 6.99689 22.2832 16.7519C22.8531 16.8252 23.4311 16.9171 24.0161 17.0303Z" fill="#FFFFFE"></path> <path fill-rule="evenodd" clip-rule="evenodd" d="M59.1928 71.9499V54.0795L50.7702 64.7019L42.3126 54.0795V71.9499H38.4414V46.8301H40.7003L50.7702 59.5679L60.8414 46.8301H63.064V71.9499H59.1928Z" fill="#FFFFFE"></path> <path fill-rule="evenodd" clip-rule="evenodd" d="M81.7399 71.9499V54.2234L68.4782 71.9499H66.2207V46.8301H70.0912V64.5572L83.3529 46.8301H85.6104V71.9499H81.7399Z" fill="#FFFFFE"></path> <path fill-rule="evenodd" clip-rule="evenodd" d="M141.914 71.9499V54.2234L128.654 71.9499H126.396V46.8301H130.267V64.5572L143.529 46.8301H145.786V71.9499H141.914Z" fill="#FFFFFE"></path> <path fill-rule="evenodd" clip-rule="evenodd" d="M111.192 38.5085V34.0294H106.69V38.5085H104.395V27.583H106.69V32.0018H111.192V27.583H113.488V38.5085H111.192Z" fill="#FFFFFE"></path> <path fill-rule="evenodd" clip-rule="evenodd" d="M122.944 38.5085V31.626L117.428 38.5085H116.082V27.583H118.379V34.4662L123.878 27.583H125.24V38.5085H122.944Z" fill="#FFFFFE"></path> <path fill-rule="evenodd" clip-rule="evenodd" d="M132.201 29.612C130.707 29.612 129.543 30.3149 129.543 31.7069C129.543 33.1702 130.707 33.8107 132.201 33.8107H134.082V29.612H132.201ZM134.082 38.5085V35.8411H132.798C131.67 35.8719 131.373 36.1215 130.471 37.4189L129.726 38.5085H127.15L128.145 37.0562C128.878 36.0002 129.379 35.4344 129.891 35.1396C128.31 34.5629 127.381 33.3259 127.381 31.7069C127.381 29.396 129.161 27.583 132.417 27.583H136.372V38.5085H134.082Z" fill="#FFFFFE"></path> <path fill-rule="evenodd" clip-rule="evenodd" d="M140.176 38.5085L142.572 34.5629L138.348 27.583H140.961L143.882 32.346L146.791 27.583H149.403L142.768 38.5085H140.176Z" fill="#FFFFFE"></path> <path fill-rule="evenodd" clip-rule="evenodd" d="M114.856 47.7272C111.881 47.7272 109.302 49.27 107.938 51.4602V46.8296H104.068V58.0986C104.068 61.975 101.202 64.772 97.5447 64.772C93.8878 64.772 91.0207 61.975 91.0207 58.0986C91.0207 54.2236 93.8878 51.3862 97.5447 51.3862C99.4755 51.3862 101.173 52.1912 102.357 53.5091V49.5793C100.965 48.4396 99.1536 47.7272 97.1509 47.7272C91.1652 47.7272 87.1152 52.3208 87.1152 58.0986C87.1152 63.8751 91.1652 68.4316 97.1509 68.4316C100.125 68.4316 102.706 66.9238 104.068 64.737V71.9494L107.99 71.959V57.6049L107.999 57.5939C108.236 53.9802 111.004 51.3862 114.497 51.3862C118.152 51.3862 121.021 54.2236 121.021 58.0986C121.021 61.975 118.152 64.772 114.497 64.772C112.591 64.772 110.913 63.9992 109.732 62.7203V66.6995C111.101 67.7672 112.878 68.4316 114.856 68.4316C120.807 68.4316 124.857 63.8751 124.857 58.0986C124.857 52.3208 120.807 47.7272 114.856 47.7272Z" fill="#FFFFFE"></path> </svg> 