<?xml version="1.0" encoding="UTF-8"?> <svg xmlns="http://www.w3.org/2000/svg" width="324" height="42" viewBox="0 0 324 42" fill="none"> <g clip-path="url(#clip0_35_323)"> <path d="M20.5693 -0.000488281C9.21436 -0.000488281 0 9.384 0 20.9555C0 32.528 9.21436 41.9125 20.5693 41.9125C31.9331 41.9125 41.1475 32.528 41.1475 20.9555C41.1475 9.384 31.9331 -0.000488281 20.5693 -0.000488281" fill="white"></path> <path d="M24.0915 19.0675C25.427 18.5081 26.2405 17.6505 26.7729 16.9994C27.7923 15.8073 28.2082 14.3455 28.2082 12.9604C28.2082 11.8436 27.9049 9.61253 25.9806 8.07486C24.6577 7.03581 23.4885 6.53486 20.6946 6.53486H19.2802C19.2334 6.53291 19.1866 6.53204 19.1398 6.53226H13.3047V34.5962H29.9589V29.21C29.9589 24.0568 28.3267 20.5917 24.0915 19.0675V19.0675ZM26.1865 33.051H23.1826V23.6833H19.7162V33.061H17.0603V7.9328L19.7877 7.93378C20.8081 7.93378 22.3561 8.16416 23.4518 9.54917C24.021 10.2517 24.3719 11.1835 24.4938 12.1188H19.7162V13.5029H24.5363C24.4992 14.3959 24.3195 15.3955 23.4612 16.4564C22.7065 17.4192 21.4649 18.3122 19.7129 18.3122C19.7021 18.3122 19.6928 18.3116 19.6821 18.3116V19.7142C24.3646 19.7142 26.1865 22.8831 26.1865 28.6865V33.051V33.051Z" fill="black"></path> <path d="M54.7988 19.0852V6.66662H58.0725C59.9184 6.66662 61.3118 7.99734 61.3118 9.7179C61.3118 11.0307 60.5806 12.1305 59.4657 12.5568C61.4161 12.9292 62.0782 14.3661 62.0782 15.7497C62.0782 17.6657 60.4934 19.0852 58.4733 19.0852H54.7988ZM56.1569 11.9535H58.003C59.2049 11.9535 59.9361 11.1727 59.9361 9.98417C59.9361 8.68881 59.013 8.01475 57.6721 8.01475H56.1569V11.9535V11.9535ZM58.0382 17.7365C59.5181 17.7365 60.7196 16.9916 60.7196 15.5368C60.7196 14.242 59.5529 13.3016 58.0381 13.3016H56.1569V17.7365H58.0382V17.7365ZM71.7858 15.5194C71.7858 17.5769 70.2711 19.0852 68.1115 19.0852H64.5066V6.66662H65.865V11.9535L68.1114 11.9356C70.271 11.9181 71.7857 13.4791 71.7857 15.5193L71.7858 15.5194ZM67.92 13.3017H65.865V17.7365H67.92C69.4 17.7365 70.4276 16.9916 70.4276 15.5368C70.4276 14.242 69.4347 13.3016 67.92 13.3016V13.3017ZM73.388 6.66662H74.7466V19.0852H73.388V6.66662ZM77.3145 12.8754C77.3145 9.29162 80.153 6.3999 83.6708 6.3999C85.8129 6.3999 87.7107 7.48221 88.8603 9.15L87.7803 9.93032C86.8924 8.61756 85.4121 7.74848 83.6708 7.74848C80.8318 7.74848 78.6902 10.0369 78.6902 12.8754C78.6902 15.7138 80.8318 18.0028 83.6708 18.0028C85.4121 18.0028 86.8925 17.1331 87.7803 15.8205L88.8603 16.6012C87.7107 18.2689 85.8129 19.3509 83.6708 19.3509C80.153 19.3509 77.3145 16.4592 77.3145 12.8754V12.8754ZM91.232 6.66617H92.5901V17.7365H97.7796V6.66608H99.1382V17.7365H104.327V6.66608H105.685V19.0846H91.232V6.66617V6.66617ZM107.857 19.0852L112.96 6.66662H113.395L118.497 19.0852H116.983L115.537 15.5013H110.8L109.372 19.0852H107.857H107.857ZM111.357 14.1179H114.979L113.169 9.59379L111.357 14.1178V14.1179ZM125.827 14.3662C124.695 14.8627 123.929 19.1913 121.072 19.1913C120.846 19.1913 120.62 19.1739 120.358 19.0852V17.7016C120.515 17.7544 120.672 17.7724 120.811 17.7724C122.501 17.7724 123.354 14.5436 124.312 14.1712C122.553 13.8869 121.194 12.3967 121.194 10.534C121.194 8.38772 122.918 6.66662 125.095 6.66662H128.595V19.0852H127.237V14.3661H125.827V14.3662ZM127.237 13.0175V8.01475H125.217C123.737 8.01475 122.535 9.0792 122.535 10.534C122.535 11.9889 123.737 13.0175 125.217 13.0175H127.237V13.0175ZM136.434 6.66617H137.793V17.7365H142.982V6.66608H144.34V17.7365H149.529V6.66608H150.888V19.0846H136.434V6.66617ZM153.998 19.0852V6.66662H155.339V11.9535H156.628L161.19 6.66662H162.827L157.725 12.6096C159.31 12.8404 160.511 17.7724 162.827 17.7724C162.984 17.7724 163.141 17.7365 163.297 17.7016V19.0852C163.053 19.156 162.792 19.1913 162.531 19.1913C159.414 19.1913 158.056 13.3016 156.541 13.3016H155.339V19.0852H153.998V19.0852ZM170.559 6.40035C174.059 6.40035 176.793 9.29207 176.793 12.8759C176.793 16.4596 174.059 19.3513 170.559 19.3513C167.041 19.3513 164.324 16.4596 164.324 12.8759C164.324 9.29207 167.041 6.40035 170.559 6.40035V6.40035ZM170.559 18.0028C173.397 18.0028 175.418 15.7143 175.418 12.8759C175.418 10.0369 173.397 7.74848 170.559 7.74848C167.72 7.74848 165.701 10.0369 165.701 12.8759C165.701 15.7143 167.72 18.0028 170.559 18.0028ZM177.788 17.701C178.049 17.7544 178.101 17.8252 178.345 17.8252C180.121 17.8252 181.131 15.6609 181.131 6.66608H188.654V19.0846H187.313V7.96144H182.42C182.42 17.0803 181.009 19.1913 178.606 19.1913C178.293 19.1913 178.136 19.138 177.788 19.0846V17.701V17.701ZM190.808 19.0852L195.91 6.66662H196.346L201.448 19.0852H199.933L198.487 15.5013H193.751L192.323 19.0852H190.808V19.0852ZM194.308 14.1179H197.93L196.119 9.59379L194.308 14.1178V14.1179ZM208.886 15.8205C209.774 17.1332 211.254 18.0028 212.996 18.0028C215.695 18.0028 217.75 15.9446 217.959 13.3011H211.69V11.953H217.906C217.489 9.55789 215.521 7.74848 212.996 7.74848C211.254 7.74848 209.774 8.61756 208.886 9.93032L207.806 9.15C208.955 7.4823 210.854 6.3999 212.996 6.3999C216.513 6.3999 219.352 9.29162 219.352 12.8754C219.352 16.4592 216.513 19.3509 212.996 19.3509C210.854 19.3509 208.955 18.2685 207.806 16.6007L208.886 15.8205ZM221.889 19.0852V6.66662H223.23V11.9535H224.518L229.081 6.66662H230.718L225.615 12.6096C227.2 12.8404 228.402 17.7724 230.718 17.7724C230.874 17.7724 231.031 17.7365 231.188 17.7016V19.0852C230.944 19.156 230.683 19.1913 230.422 19.1913C227.304 19.1913 225.946 13.3016 224.431 13.3016H223.23V19.0852H221.889V19.0852ZM238.449 6.40035C241.949 6.40035 244.683 9.29207 244.683 12.8759C244.683 16.4596 241.949 19.3513 238.449 19.3513C234.931 19.3513 232.214 16.4596 232.214 12.8759C232.214 9.29207 234.931 6.40035 238.449 6.40035V6.40035ZM238.449 18.0028C241.287 18.0028 243.308 15.7143 243.308 12.8759C243.308 10.0369 241.287 7.74848 238.449 7.74848C235.61 7.74848 233.591 10.0369 233.591 12.8759C233.591 15.7143 235.61 18.0028 238.449 18.0028ZM248.619 11.953H256.073V6.66617H257.431V19.0846H256.073V13.3012H248.619V19.0846H247.261V6.66617H248.619V11.9531V11.953ZM266.233 6.40035C269.734 6.40035 272.467 9.29207 272.467 12.8759C272.467 16.4596 269.734 19.3513 266.233 19.3513C262.716 19.3513 259.999 16.4596 259.999 12.8759C259.999 9.29207 262.716 6.40035 266.233 6.40035V6.40035ZM266.233 18.0028C269.072 18.0028 271.092 15.7143 271.092 12.8759C271.092 10.0369 269.072 7.74848 266.233 7.74848C263.394 7.74848 261.375 10.0369 261.375 12.8759C261.375 15.7143 263.394 18.0028 266.233 18.0028ZM275.641 6.66617H276.198L280.987 16.5653L285.828 6.66608H286.385L287.482 19.0846H286.106L285.375 10.7285L281.3 19.0846H280.725L276.65 10.7285L275.919 19.0846H274.543L275.641 6.66608V6.66617ZM291.542 16.69L298.472 6.66653H299.83V19.0852H298.472V9.0792L291.542 19.0852H290.184V6.66662H291.542V16.69ZM302.923 19.0852V6.66662H304.264V11.9535H305.552L310.115 6.66662H311.752L306.65 12.6096C308.234 12.8404 309.436 17.7724 311.752 17.7724C311.909 17.7724 312.065 17.7365 312.222 17.7016V19.0852C311.978 19.156 311.717 19.1913 311.456 19.1913C308.339 19.1913 306.981 13.3016 305.465 13.3016H304.264V19.0852H302.923V19.0852ZM315.692 16.69L322.623 6.66653H323.981V19.0852H322.623V9.0792L315.692 19.0852H314.334V6.66662H315.692V16.69Z" fill="white"></path> <path d="M55.6005 31.8775H58.7884V29.6165H59.3693V34.9284H58.7884V32.4544H55.6004V34.9284H55.0195V29.6164H55.6005V31.8775ZM60.8287 34.9278L63.0109 29.616H63.1974L65.3796 34.9279H64.7317L64.1136 33.3947H62.0875L61.4767 34.9278H60.8287ZM62.3257 32.8029H63.8753L63.1005 30.868L62.3257 32.8029V32.8029ZM71.3673 34.9278H66.8386V29.616H67.4194V34.3515H70.6078V29.616H71.1888V34.3515H71.8886V36.1797H71.3673V34.9278ZM73.9509 33.9033L76.9157 29.616H77.4966V34.9279H76.9157V30.648L73.9509 34.9279H73.37V29.616H73.9509V33.9032V33.9033ZM81.8033 29.5023C83.3004 29.5023 84.47 30.7393 84.47 32.2724C84.47 33.8045 83.3004 35.042 81.8033 35.042C80.2988 35.042 79.137 33.8045 79.137 32.2725C79.137 30.7393 80.2989 29.5024 81.8033 29.5024V29.5023ZM81.8033 34.4652C83.0174 34.4652 83.8813 33.4859 83.8813 32.2724C83.8813 31.0579 83.0174 30.0792 81.8033 30.0792C80.5891 30.0792 79.7253 31.0579 79.7253 32.2725C79.7253 33.4859 80.5891 34.4652 81.8033 34.4652H81.8033ZM86.6953 31.8775H89.8832V29.6165H90.4641V34.9284H89.8832V32.4544H86.6953V34.9284H86.1144V29.6164H86.6953V31.8775ZM91.923 34.9278L94.1052 29.616H94.2917L96.4739 34.9279H95.826L95.2079 33.3947H93.1818L92.571 34.9278H91.923V34.9278ZM93.42 32.8029H94.9696L94.1948 30.868L93.42 32.8029V32.8029ZM97.6926 34.3361C97.8041 34.3585 97.8266 34.3889 97.9308 34.3889C98.6909 34.3889 99.1225 33.4635 99.1225 29.616H102.34V34.9279H101.767V30.1704H99.6741C99.6741 34.0703 99.0707 34.9732 98.0425 34.9732C97.9088 34.9732 97.8413 34.9508 97.6926 34.9278V34.3361ZM107.315 33.4027C107.315 34.2831 106.667 34.9278 105.743 34.9278H104.201V29.616H104.782V31.8775L105.743 31.8695C106.667 31.8621 107.315 32.5301 107.315 33.4027H107.315ZM105.661 32.4539H104.782V34.3515H105.661C106.294 34.3515 106.734 34.0324 106.734 33.4102C106.734 32.8563 106.309 32.4539 105.661 32.4539ZM109.388 31.8775H112.576V29.6165H113.156V34.9284H112.576V32.4544H109.388V34.9284H108.807V29.6164H109.388V31.8775ZM118.131 33.4027C118.131 34.2831 117.483 34.9278 116.559 34.9278H115.017V29.616H115.598V31.8775L116.559 31.8695C117.483 31.8621 118.131 32.5301 118.131 33.4027ZM116.477 32.4539H115.598V34.3515H116.477C117.11 34.3515 117.55 34.0324 117.55 33.4102C117.55 32.8563 117.125 32.4539 116.477 32.4539ZM118.816 29.616H119.397V34.9279H118.816V29.616ZM121.839 29.616V33.9032L124.804 29.616H125.385V34.9279H124.804V30.648L121.839 34.9279H121.258V29.616H121.839ZM122.01 28.6224L122.442 28.3032C122.673 28.7131 122.874 28.8342 123.329 28.8342C123.783 28.8342 123.984 28.7131 124.215 28.3032L124.647 28.6224C124.349 29.1608 123.91 29.3428 123.329 29.3428C122.748 29.3428 122.308 29.1608 122.01 28.6224V28.6224ZM131.373 33.9033L134.338 29.616H134.918V34.9279H134.338V30.648L131.373 34.9279H130.792V29.616H131.373V33.9032L131.373 33.9033ZM136.558 32.272C136.558 30.7388 137.773 29.5018 139.277 29.5018C140.193 29.5018 141.005 29.965 141.497 30.6785L141.035 31.0125C140.655 30.4507 140.022 30.0792 139.277 30.0792C138.063 30.0792 137.147 31.0574 137.147 32.272C137.147 33.4859 138.063 34.4647 139.277 34.4647C140.022 34.4647 140.655 34.0932 141.035 33.5313L141.497 33.8654C141.005 34.5788 140.193 35.0415 139.277 35.0415C137.773 35.0415 136.558 33.8045 136.558 32.272ZM142.794 32.272C142.794 30.7388 144.009 29.5018 145.513 29.5018C146.429 29.5018 147.241 29.965 147.733 30.6785L147.271 31.0125C146.891 30.4507 146.258 30.0792 145.513 30.0792C144.299 30.0792 143.383 31.0574 143.383 32.272C143.383 33.4859 144.299 34.4647 145.513 34.4647C146.258 34.4647 146.891 34.0932 147.271 33.5313L147.733 33.8654C147.241 34.5788 146.429 35.0415 145.513 35.0415C144.009 35.0415 142.794 33.8045 142.794 32.272V32.272ZM148.886 34.3361C148.998 34.3585 149.02 34.3889 149.125 34.3889C149.885 34.3889 150.316 33.4635 150.316 29.616H153.534V34.9279H152.961V30.1704H150.868C150.868 34.0703 150.264 34.9732 149.236 34.9732C149.103 34.9732 149.036 34.9508 148.886 34.9278V34.3361ZM157.98 34.9278H155.396V29.616H157.98V30.1929H155.977V31.8771H157.794V32.4539H155.977V34.3515H157.98V34.9278ZM159.794 36.1797H159.265V34.3515H159.846C160.263 33.5846 160.777 32.5451 160.777 29.616H164.002V34.3515H164.702V36.1797H164.181V34.9278H159.794V36.1797ZM163.421 30.1699H161.328C161.328 32.6284 160.814 33.638 160.449 34.3515H163.421V30.1699V30.1699ZM168.507 29.5023C170.004 29.5023 171.173 30.7393 171.173 32.2724C171.173 33.8045 170.004 35.042 168.507 35.042C167.003 35.042 165.841 33.8045 165.841 32.2725C165.841 30.7393 167.003 29.5024 168.507 29.5024V29.5023ZM168.507 34.4652C169.721 34.4652 170.585 33.4859 170.585 32.2724C170.585 31.0579 169.721 30.0792 168.507 30.0792C167.293 30.0792 166.429 31.0579 166.429 32.2725C166.429 33.4859 167.293 34.4652 168.507 34.4652V34.4652ZM172.818 34.9278V29.616H174.218C175.007 29.616 175.604 30.185 175.604 30.9213C175.604 31.4827 175.291 31.9534 174.814 32.1353C175.648 32.2944 175.931 32.9091 175.931 33.5014C175.931 34.3211 175.254 34.9278 174.389 34.9278H172.818ZM173.399 31.8771H174.189C174.702 31.8771 175.015 31.543 175.015 31.0349C175.015 30.481 174.62 30.1929 174.047 30.1929H173.399V31.8771ZM174.203 34.3515C174.837 34.3515 175.35 34.0319 175.35 33.4102C175.35 32.8563 174.851 32.4539 174.203 32.4539H173.399V34.3515H174.203ZM177.05 34.9278L179.232 29.616H179.418L181.601 34.9279H180.953L180.334 33.3947H178.308L177.698 34.9278H177.05ZM178.547 32.8029H180.096L179.321 30.868L178.547 32.8029V32.8029ZM183.755 34.9278V30.1929H181.974V29.616H186.116V30.1929H184.336V34.9278H183.755ZM190.178 34.9278H187.594V29.616H190.178V30.1929H188.175V31.8771H189.992V32.4539H188.175V34.3515H190.178V34.9278ZM191.426 34.3361C191.537 34.3585 191.56 34.3889 191.664 34.3889C192.424 34.3889 192.856 33.4635 192.856 29.616H196.073V34.9279H195.5V30.1704H193.407C193.407 34.0703 192.804 34.9732 191.776 34.9732C191.642 34.9732 191.574 34.9508 191.426 34.9278V34.3361H191.426ZM201.047 33.4027C201.047 34.2831 200.399 34.9278 199.476 34.9278H197.934V29.616H198.515V31.8775L199.476 31.8695C200.399 31.8621 201.047 32.5301 201.047 33.4027H201.047ZM199.394 32.4539H198.515V34.3515H199.394C200.027 34.3515 200.466 34.0324 200.466 33.4102C200.466 32.8563 200.041 32.4539 199.394 32.4539ZM202.432 32.272C202.432 30.7388 203.645 29.5018 205.15 29.5018C206.066 29.5018 206.878 29.965 207.37 30.6785L206.908 31.0125C206.528 30.4507 205.895 30.0792 205.15 30.0792C203.936 30.0792 203.02 31.0574 203.02 32.272C203.02 33.4859 203.936 34.4647 205.15 34.4647C205.895 34.4647 206.528 34.0932 206.908 33.5313L207.37 33.8654C206.878 34.5788 206.066 35.0415 205.15 35.0415C203.645 35.0415 202.432 33.8045 202.432 32.272V32.272ZM208.926 34.9278V29.616H209.499V31.8771H210.05L212.001 29.616H212.702L210.519 32.1577C211.197 32.2564 211.711 34.3659 212.702 34.3659C212.769 34.3659 212.836 34.3515 212.903 34.3361V34.9278C212.799 34.9583 212.687 34.9732 212.575 34.9732C211.242 34.9732 210.661 32.4539 210.013 32.4539H209.499V34.9278H208.926V34.9278ZM214.924 33.9033L217.889 29.616H218.47V34.9279H217.889V30.648L214.924 34.9279H214.343V29.616H214.924V33.9032V33.9033ZM220.911 29.616V33.9032L223.876 29.616H224.457V34.9279H223.876V30.648L220.911 34.9279H220.33V29.616H220.911ZM221.082 28.6224L221.514 28.3032C221.745 28.7131 221.946 28.8342 222.401 28.8342C222.855 28.8342 223.056 28.7131 223.287 28.3032L223.719 28.6224C223.421 29.1608 222.982 29.3428 222.401 29.3428C221.82 29.3428 221.38 29.1608 221.082 28.6224V28.6224ZM231.361 33.6754L229.38 29.616H230.05L231.689 32.9929L233.305 29.616H233.968L231.413 34.9279H230.758L231.361 33.6755L231.361 33.6754ZM235.972 31.8775H239.159V29.6165H239.74V34.9284H239.159V32.4544H235.972V34.9284H235.391V29.6164H235.972V31.8775ZM242.181 33.9033L245.146 29.616H245.727V34.9279H245.146V30.648L242.181 34.9279H241.601V29.616H242.181V33.9032V33.9033ZM247.588 34.9278V29.616H248.988C249.778 29.616 250.373 30.185 250.373 30.9213C250.373 31.4827 250.061 31.9534 249.584 32.1353C250.419 32.2944 250.701 32.9091 250.701 33.5014C250.701 34.3211 250.024 34.9278 249.159 34.9278H247.588H247.588ZM248.169 31.8771H248.959C249.472 31.8771 249.785 31.543 249.785 31.0349C249.785 30.481 249.39 30.1929 248.817 30.1929H248.169V31.8771V31.8771ZM248.973 34.3515C249.607 34.3515 250.12 34.0319 250.12 33.4102C250.12 32.8563 249.621 32.4539 248.973 32.4539H248.169V34.3515H248.973ZM254.863 34.9278H252.279V29.616H254.863V30.1929H252.86V31.8771H254.677V32.4539H252.86V34.3515H254.863V34.9278ZM256.95 32.9395V34.9278H256.369V29.616H257.791C258.723 29.616 259.46 30.3519 259.46 31.2703C259.46 32.1881 258.723 32.9396 257.791 32.9396H256.95V32.9395ZM257.732 32.3631C258.365 32.3631 258.879 31.8925 258.879 31.2703C258.879 30.648 258.365 30.1929 257.732 30.1929H256.95V32.3631H257.732V32.3631ZM260.854 32.272C260.854 30.7388 262.068 29.5018 263.572 29.5018C264.489 29.5018 265.301 29.965 265.792 30.6785L265.33 31.0125C264.951 30.4507 264.317 30.0792 263.572 30.0792C262.358 30.0792 261.442 31.0574 261.442 32.272C261.442 33.4859 262.358 34.4647 263.572 34.4647C264.317 34.4647 264.951 34.0932 265.33 33.5313L265.792 33.8654C265.301 34.5788 264.489 35.0415 263.572 35.0415C262.068 35.0415 260.854 33.8045 260.854 32.272H260.854ZM267.928 33.9033L270.893 29.616H271.474V34.9279H270.893V30.648L267.928 34.9279H267.347V29.616H267.928V33.9032V33.9033ZM274.732 34.9278V30.1929H272.952V29.616H277.093V30.1929H275.313V34.9278H274.732H274.732ZM281.155 34.9278H278.571V29.616H281.155V30.1929H279.152V31.8771H280.969V32.4539H279.152V34.3515H281.155V34.9278V34.9278ZM284.238 34.9278V30.1929H282.458V29.616H286.6V30.1929H284.819V34.9278H284.238V34.9278Z" fill="white"></path> </g> <defs> <clipPath id="clip0_35_323"> <rect width="324" height="42" fill="white"></rect> </clipPath> </defs> </svg> 