<?xml version="1.0" encoding="UTF-8"?> <svg xmlns="http://www.w3.org/2000/svg" width="145" height="87" viewBox="0 0 145 87" fill="none"> <g clip-path="url(#clip0_35_432)"> <path fill-rule="evenodd" clip-rule="evenodd" d="M43.4822 24.9484L32.2736 18.5342L0 37.1036V49.6841L10.8528 55.992V43.6951L43.4822 24.9484Z" fill="white"></path> <path fill-rule="evenodd" clip-rule="evenodd" d="M21.7399 84.803V49.7549L10.8516 55.992V78.495L21.7399 84.803Z" fill="white"></path> <path fill-rule="evenodd" clip-rule="evenodd" d="M128.167 13.5373C127.278 13.0412 126.424 12.5451 125.57 12.049C126.424 11.5528 127.242 11.0921 128.096 10.596C128.986 11.0921 129.84 11.5883 130.694 12.0844C130.978 11.9072 131.263 11.7655 131.583 11.5883C129.769 10.5606 127.989 9.49743 126.175 8.46973C125.854 8.64692 125.57 8.82411 125.285 8.96586C126.032 9.39111 126.78 9.81637 127.527 10.2416C126.673 10.7378 125.854 11.2339 125 11.6946C124.253 11.2693 123.506 10.8441 122.759 10.4188C122.474 10.596 122.189 10.7732 121.869 10.9149C123.684 11.9426 125.463 13.0058 127.278 14.0335C127.562 13.8563 127.847 13.7145 128.167 13.5373Z" fill="white"></path> <path fill-rule="evenodd" clip-rule="evenodd" d="M138.096 7.83195C138.381 7.65476 138.665 7.51301 138.95 7.33582C137.135 6.30812 135.356 5.24498 133.541 4.21729C133.257 4.39447 132.972 4.53623 132.687 4.71342C134.502 5.74111 136.281 6.76881 138.096 7.83195ZM133.221 10.6315C133.897 10.2417 134.609 9.85191 135.285 9.46209C135.89 9.10771 136.174 8.78877 136.246 8.46983C136.317 8.04458 135.961 7.65476 135.356 7.30038C134.787 6.98144 134.217 6.80425 133.541 6.83969C133.008 6.87513 132.438 7.05232 131.798 7.44213C131.406 7.65476 131.015 7.90283 130.624 8.11545C129.983 7.76107 129.343 7.37126 128.702 7.01688C128.382 7.19407 128.133 7.33582 127.812 7.51301C129.627 8.54071 131.406 9.56841 133.221 10.6315ZM131.193 8.43439C131.584 8.18633 132.011 7.9737 132.403 7.72564C132.687 7.54845 133.008 7.51301 133.292 7.51301C133.719 7.51301 134.111 7.6902 134.395 7.86739C134.716 8.04458 135.107 8.32808 135.143 8.61158C135.178 8.78877 135.071 8.93052 134.751 9.10771C134.324 9.35578 133.933 9.56841 133.506 9.81647C132.759 9.35578 131.976 8.89509 131.193 8.43439Z" fill="white"></path> <path fill-rule="evenodd" clip-rule="evenodd" d="M136.71 1.48839C137.956 0.779633 137.386 0.0708758 137.244 0C136.959 0.0708758 136.71 0.106314 136.461 0.141752C136.532 0.354379 136.782 0.637882 136.034 1.06314C135.287 1.48839 134.789 1.34664 134.398 1.3112C134.326 1.45295 134.22 1.5947 134.148 1.73646C134.291 1.84277 135.501 2.16171 136.71 1.48839ZM141.443 5.88269C140.98 4.71324 140.553 3.54379 140.126 2.40978C139.984 2.16171 139.842 1.94908 139.735 1.73646H139.771C140.02 1.91365 140.233 2.0554 140.482 2.23259C141.728 2.94134 142.937 3.6501 144.183 4.35886C144.467 4.18167 144.752 4.03992 145.037 3.86273C143.222 2.79959 141.407 1.77189 139.593 0.708758C139.308 0.885947 139.023 1.0277 138.774 1.20489C139.201 2.3389 139.628 3.47291 140.055 4.60692C140.162 4.81955 140.269 5.06762 140.411 5.28024L140.375 5.31568C140.162 5.13849 139.913 4.99674 139.699 4.81955C138.525 4.14623 137.315 3.43747 136.105 2.76415C135.821 2.94134 135.536 3.0831 135.252 3.26029C137.066 4.28798 138.845 5.35112 140.66 6.37882C140.909 6.20163 141.194 6.05988 141.443 5.88269Z" fill="white"></path> <path fill-rule="evenodd" clip-rule="evenodd" d="M42.2367 51.5623C41.0625 50.8889 39.8526 50.1802 38.6784 49.5069C38.6784 51.3496 38.6784 53.2278 38.6784 55.106C38.6784 56.9488 38.6784 58.827 38.6784 60.6698C37.8244 60.1737 37.006 59.713 36.152 59.2168C36.152 57.3386 36.152 55.4959 36.152 53.6531C36.152 51.7749 36.152 49.9321 36.152 48.0539C34.9778 47.3806 33.768 46.7073 32.5938 45.9985C32.5938 45.1834 32.5938 44.3329 32.5938 43.4824C33.768 44.1557 34.9422 44.8645 36.152 45.5378C37.006 46.034 37.8244 46.4946 38.6784 46.9908C39.8526 47.6641 41.0625 48.3374 42.2367 49.0462C42.2367 49.8967 42.2367 50.7118 42.2367 51.5623ZM69.3152 71.3012C69.4576 73.7109 69.6355 76.1207 69.7778 78.5305C70.5606 78.9557 71.3079 79.4164 72.0907 79.8417C71.9484 77.8217 71.806 75.7663 71.6993 73.7109C71.5569 71.691 71.4146 69.6356 71.3079 67.5802C71.2723 67.5447 71.2367 67.5447 71.2011 67.5093C70.4539 67.0841 69.7422 66.6588 68.995 66.2335C68.3901 67.403 67.8207 68.537 67.2514 69.7065C66.6821 70.8759 66.0772 72.0099 65.5079 73.1794C64.9385 71.372 64.3692 69.5293 63.7999 67.7219C63.2306 65.9146 62.6612 64.1073 62.0919 62.2645C61.3447 61.8392 60.633 61.414 59.8858 60.9887C59.8502 60.9533 59.8146 60.9533 59.779 60.9179C59.6367 62.7961 59.5299 64.7097 59.3876 66.5879C59.2453 68.5016 59.1385 70.3798 58.9962 72.258C59.779 72.6832 60.5263 73.1439 61.3091 73.6046C61.4514 71.4075 61.5938 69.2103 61.7717 67.0132C62.6612 69.8128 63.5152 72.6124 64.4048 75.3765C65.152 75.8018 65.8637 76.227 66.6109 76.6523C67.5005 74.9158 68.4257 73.1085 69.3152 71.3012ZM52.2355 56.559C49.5668 55.0352 47.3606 55.8502 46.8625 58.3663C46.4711 58.1537 46.0796 57.9056 45.6882 57.693C45.6882 56.0983 45.6882 54.5036 45.6882 52.9089C44.8342 52.4128 44.0158 51.9521 43.1618 51.4559C43.1618 53.4405 43.1618 55.3895 43.1618 57.3741C43.1618 59.3232 43.1618 61.3077 43.1618 63.2568C44.0158 63.7529 44.8342 64.2136 45.6882 64.7097C45.6882 63.2213 45.6882 61.6975 45.6882 60.2091C46.0796 60.4217 46.4711 60.6698 46.898 60.8824C47.4674 63.8946 49.6379 67.1904 52.2355 68.6788C55.26 70.4152 57.7152 69.104 57.7152 65.7374C57.7152 62.4063 55.26 58.2955 52.2355 56.559ZM52.2355 59.1105C53.979 60.1028 55.4023 62.5126 55.4023 64.4616C55.4023 66.4107 53.979 67.1549 52.2355 66.1627C50.4919 65.1704 49.0686 62.7606 49.0686 60.847C49.1042 58.8625 50.4919 58.1183 52.2355 59.1105ZM81.0576 71.372C81.6269 73.2148 82.1962 75.093 82.8011 76.9358C83.3704 78.7786 83.9753 80.6568 84.5447 82.4995C84.4379 82.7476 84.3312 82.9957 84.2244 83.2437C83.9753 83.8462 83.7974 84.6258 82.2674 83.7399C82.2674 84.5904 82.2674 85.4054 82.2674 86.2559C84.9005 87.7798 85.6477 86.6812 86.5729 84.5904C87.1778 83.2437 87.7471 81.8971 88.352 80.5859C88.9569 79.2392 89.5263 77.928 90.1312 76.5814C89.2772 76.0853 88.3876 75.5891 87.5336 75.093C86.9287 76.8295 86.3238 78.5659 85.7189 80.3024C85.0428 77.8217 84.3668 75.3765 83.6907 72.8959C82.8011 72.3997 81.9471 71.9036 81.0576 71.372ZM76.3962 71.1948C76.3962 73.073 76.3962 74.9158 76.3962 76.794C76.3962 78.6368 76.3962 80.515 76.3962 82.3578C75.5422 81.8616 74.7238 81.401 73.8698 80.9048C73.8698 79.0621 73.8698 77.1838 73.8698 75.3411C73.8698 73.4629 73.8698 71.6201 73.8698 69.7419C73.8698 68.9268 73.8698 68.0763 73.8698 67.2258C74.7238 67.7219 75.5422 68.1826 76.3962 68.6788C77.8195 69.4938 79.2428 70.3089 80.6661 71.124C80.6661 71.9745 80.6661 72.7895 80.6661 73.6401C79.2072 72.825 77.8195 72.0099 76.3962 71.1948Z" fill="white"></path> <path fill-rule="evenodd" clip-rule="evenodd" d="M45.4037 36.1465C43.8025 37.0679 42.2013 37.9893 40.5645 38.9106C40.8135 39.0524 41.027 39.1941 41.2761 39.3359C41.9166 38.9815 42.5927 38.5917 43.2332 38.2019C45.4037 39.4422 47.5743 40.6825 49.7448 41.9229C50.0651 41.7457 50.3497 41.5685 50.67 41.3913C48.4994 40.151 46.3289 38.9106 44.1583 37.6703C44.7988 37.3159 45.4393 36.9261 46.0798 36.5717C45.8663 36.43 45.6528 36.2882 45.4037 36.1465Z" fill="white"></path> <path fill-rule="evenodd" clip-rule="evenodd" d="M53.3387 39.8674C53.6234 39.6902 53.908 39.5485 54.1927 39.3713C53.3387 38.8751 52.4847 38.379 51.6307 37.9183C52.0221 37.7057 52.4136 37.4931 52.7694 37.245C54.3706 38.1309 56.043 38.4499 57.8221 37.4222C59.6724 36.359 59.1031 35.3668 57.4663 34.4454C55.8295 33.4886 54.0148 33.1342 52.1645 34.1973C50.5277 35.1187 50.8835 36.0755 52.1645 36.9261C51.7731 37.1741 51.3816 37.3867 50.9902 37.5994C50.243 37.1741 49.4958 36.7489 48.7485 36.3236C48.4639 36.5008 48.1792 36.6425 47.8945 36.8197C49.7093 37.812 51.524 38.8397 53.3387 39.8674ZM53.6234 36.6425C52.4135 35.9338 51.524 35.1896 52.7694 34.4808C54.0148 33.7721 55.1534 34.1619 56.5767 34.9415C58.0001 35.7566 58.5694 36.359 57.324 37.0678C56.043 37.812 54.8332 37.3513 53.6234 36.6425Z" fill="white"></path> <path fill-rule="evenodd" clip-rule="evenodd" d="M62.1255 29.9807C63.5488 30.7603 65.0077 31.54 66.431 32.355C66.7513 32.1778 67.0359 32.0007 67.3562 31.8235C65.4703 30.8312 63.62 29.8389 61.7341 28.8467C61.3071 29.0947 60.8801 29.3428 60.4531 29.5554C61.4138 30.654 62.4102 31.7171 63.4065 32.8157C63.5844 32.9575 63.7623 33.0638 63.9046 33.2055L63.8691 33.241C63.6556 33.1347 63.4421 33.0284 63.2286 32.9575C61.3427 32.3905 59.4212 31.8235 57.5353 31.2565C57.1083 31.5045 56.6813 31.7526 56.2188 32.0007C57.9623 33.0638 59.7059 34.1624 61.4138 35.2255C61.6629 35.0837 61.912 34.942 62.1967 34.8002C60.8445 33.9852 59.4568 33.1701 58.0691 32.3196C57.8556 32.2133 57.6421 32.107 57.4286 32.0007L57.4641 31.9652C59.5991 32.6031 61.6985 33.2055 63.8335 33.8434C64.1537 33.6662 64.474 33.489 64.7942 33.2764C63.7267 32.0715 62.6237 30.8666 61.5206 29.6617C61.5206 29.6617 61.5562 29.6618 61.5562 29.6263C61.7697 29.7326 61.9476 29.8744 62.1255 29.9807Z" fill="white"></path> <path fill-rule="evenodd" clip-rule="evenodd" d="M65.5445 26.5074C63.8365 27.4997 64.3703 28.5982 66.0071 29.555C67.7506 30.5827 69.4942 30.7599 71.2022 29.7677C72.1629 29.2361 72.6611 28.74 72.839 28.3856C72.5543 28.3147 72.2341 28.2438 71.9494 28.1375C71.7715 28.4919 71.3445 28.988 70.5973 29.4133C69.9212 29.8031 68.6758 29.9803 67.2525 29.1652C67.1813 29.1298 67.0746 29.0589 67.0034 29.0235C68.1776 28.3502 69.3875 27.6414 70.5617 26.9681C68.5335 25.7986 67.2169 25.5151 65.5445 26.5074ZM69.174 27.1453C68.2844 27.6768 67.3592 28.173 66.4697 28.7045C65.5445 28.173 65.0819 27.4288 66.1138 26.8263C67.1457 26.2239 68.0353 26.5074 69.174 27.1453Z" fill="white"></path> <path fill-rule="evenodd" clip-rule="evenodd" d="M75.472 27.1453C74.618 26.6491 73.7284 26.153 72.8744 25.6569C73.7284 25.1607 74.5468 24.7 75.4364 24.2039C76.326 24.7 77.18 25.1962 78.034 25.6923C78.3186 25.5151 78.6033 25.3734 78.9235 25.1962C77.1088 24.1685 75.3297 23.1053 73.5149 22.0776C73.1947 22.2548 72.91 22.3966 72.6254 22.5738C73.3726 22.999 74.1198 23.4243 74.8671 23.8495C74.0131 24.3457 73.1591 24.8064 72.3051 25.3025C71.5579 24.8772 70.8106 24.452 70.0634 24.0267C69.7787 24.2039 69.4941 24.3457 69.1738 24.5228C70.9886 25.5505 72.7677 26.6137 74.5824 27.6414C74.9027 27.4642 75.1873 27.3224 75.472 27.1453Z" fill="white"></path> <path fill-rule="evenodd" clip-rule="evenodd" d="M79.2421 19.2075C78.7439 19.243 77.7832 19.4556 77.0004 19.9163C75.328 20.8731 75.9329 21.9362 77.5697 22.8576C79.2065 23.8144 80.9857 24.098 82.6581 23.1411C83.6188 22.6096 83.8679 22.078 83.9034 21.8654C83.5832 21.7945 83.2985 21.6882 83.0139 21.6173C82.9427 21.8654 82.7648 22.3615 82.0176 22.7867C81.128 23.2829 80.0249 23.1766 78.5304 22.3261C77.036 21.4755 76.7157 20.8377 77.6765 20.3061C78.4237 19.8808 79.2421 19.7745 79.7047 19.7391C79.5268 19.5619 79.3844 19.3847 79.2421 19.2075Z" fill="white"></path> <path fill-rule="evenodd" clip-rule="evenodd" d="M86.4305 20.8373C85.5766 20.3411 84.7226 19.845 83.8686 19.3843C83.9753 19.3135 84.0821 19.2426 84.2244 19.1717C84.6514 18.9236 85.2207 18.8528 85.7545 18.9945C86.1815 19.1008 86.5729 19.2071 86.9999 19.3135C87.8183 19.5261 88.4588 19.597 88.9925 19.4198C89.2416 19.3489 89.5263 19.2071 89.7753 19.0654C89.5974 18.9236 89.4195 18.8173 89.2416 18.6756C88.9569 18.8528 88.6367 18.9591 88.1385 18.8528C87.6759 18.7464 87.1778 18.6401 86.7152 18.5338C85.7545 18.3212 85.4342 18.2149 85.0072 18.3921C85.0072 18.3921 84.9717 18.3921 84.9717 18.3566C85.2919 18.1086 85.1851 17.8251 84.8649 17.3644C84.7582 17.1872 84.6514 17.0454 84.5091 16.8682C84.2244 16.4784 84.5091 16.3012 84.7226 16.1595C84.5091 16.0532 84.2956 15.9469 84.0821 15.876C83.7618 16.0532 83.5839 16.1949 83.4772 16.3721C83.2281 16.691 83.3348 17.01 83.6195 17.3998C83.7263 17.5416 83.833 17.7187 83.9753 17.8605C84.26 18.2149 84.0465 18.5693 83.6195 18.8173C83.5128 18.8882 83.406 18.9591 83.2637 19.0299C82.5164 18.6047 81.7692 18.1794 81.022 17.7542C80.7373 17.9314 80.4526 18.0731 80.168 18.2503C81.9827 19.278 83.7618 20.3411 85.5766 21.3688C85.8612 21.1917 86.1459 21.0145 86.4305 20.8373Z" fill="white"></path> <path fill-rule="evenodd" clip-rule="evenodd" d="M91.5883 17.8609C91.1257 16.6915 90.6987 15.5575 90.2718 14.3526C90.1294 14.14 90.0227 13.9273 89.8803 13.6793H89.9159C90.1294 13.8565 90.3785 13.9982 90.6276 14.1754C91.8374 14.8842 93.0828 15.5929 94.2926 16.3017C94.5773 16.1245 94.8264 15.9827 95.1466 15.8055C93.3319 14.7778 91.5527 13.7147 89.738 12.687C89.4534 12.8642 89.1687 13.006 88.884 13.1477C89.311 14.2817 89.738 15.4157 90.165 16.5497C90.2718 16.7624 90.3785 17.0104 90.5208 17.2231C90.4853 17.2231 90.4853 17.2231 90.4853 17.2231C90.2362 17.0813 90.0227 16.9041 89.8092 16.7624C88.6349 16.089 87.4251 15.3803 86.2153 14.707C85.9307 14.8842 85.646 15.0259 85.3613 15.2031C87.1761 16.2308 88.9552 17.2939 90.7699 18.3216C91.0546 18.1799 91.3392 18.0381 91.5883 17.8609Z" fill="white"></path> <path fill-rule="evenodd" clip-rule="evenodd" d="M92.8706 9.99348C94.0804 9.28472 93.5466 8.6114 93.4399 8.54053C93.1552 8.6114 92.9061 8.64684 92.6571 8.68228C92.7282 8.89491 92.9773 9.17841 92.2301 9.60366C91.4828 10.0289 90.9491 9.88717 90.5933 9.85173C90.5221 10.0289 90.4153 10.1707 90.3086 10.3124C90.4509 10.3833 91.6607 10.7022 92.8706 9.99348ZM97.6031 14.4232C97.1761 13.2538 96.7135 12.1198 96.2865 10.9149C96.1798 10.7022 96.0018 10.4896 95.8951 10.2415C95.8951 10.2415 95.9307 10.2415 95.9307 10.2061C96.1442 10.3833 96.3933 10.525 96.6423 10.7022C97.8522 11.411 99.0975 12.1198 100.307 12.8285C100.592 12.6513 100.877 12.5096 101.161 12.3324C99.3466 11.3047 97.5675 10.2415 95.7528 9.21385C95.4681 9.39104 95.1834 9.53279 94.9344 9.67454C95.3613 10.8086 95.7883 11.9426 96.2153 13.0766C96.3221 13.2892 96.4288 13.5373 96.5712 13.7499C96.5356 13.7499 96.5356 13.7499 96.5356 13.7853C96.3221 13.6436 96.073 13.4664 95.8595 13.3246C94.6853 12.6513 93.4755 11.9426 92.2656 11.2692C91.981 11.4464 91.6963 11.5882 91.4117 11.7299C93.2264 12.7576 95.0055 13.8208 96.8202 14.8485C97.0693 14.7422 97.354 14.565 97.6031 14.4232Z" fill="white"></path> <path fill-rule="evenodd" clip-rule="evenodd" d="M63.8001 50.5342C62.1989 49.6128 60.6332 48.7268 59.0676 47.8054C59.7793 47.3802 60.5265 46.9904 61.2381 46.5651C61.0247 46.4234 60.7756 46.317 60.5621 46.1753C59.5302 46.7777 58.5339 47.3447 57.502 47.9117C59.3167 48.9394 61.0958 50.0026 62.9105 51.0303C63.2308 50.8885 63.5154 50.7113 63.8001 50.5342Z" fill="white"></path> <path fill-rule="evenodd" clip-rule="evenodd" d="M63.9784 47.3805C65.6152 48.3373 67.3232 48.6562 69.1735 47.5931C71.0238 46.5299 70.4189 45.5377 68.7821 44.6163C67.1453 43.6595 65.3305 43.3051 63.4802 44.3682C61.6655 45.3959 62.3416 46.4236 63.9784 47.3805ZM64.9391 46.8135C63.7293 46.1047 62.8398 45.3605 64.0852 44.6517C65.3306 43.943 66.4692 44.3328 67.8925 45.1479C69.3158 45.9629 69.8851 46.5654 68.6397 47.2741C67.3588 47.9829 66.149 47.5222 64.9391 46.8135Z" fill="white"></path> <path fill-rule="evenodd" clip-rule="evenodd" d="M71.4867 40.3286C70.9885 40.3641 70.0634 40.5767 69.245 41.0374C67.6082 41.9942 68.1775 43.0219 69.8143 43.9787C71.4511 44.9355 73.2303 45.219 74.9026 44.2977C75.8634 43.7306 76.0769 43.1991 76.148 42.9865C75.8634 42.9156 75.5787 42.8447 75.2585 42.7384C75.1873 42.9865 75.0094 43.4471 74.2266 43.9078C73.337 44.404 72.2339 44.2977 70.7395 43.4471C69.245 42.5966 68.8892 41.9588 69.8499 41.4272C70.5971 41.0019 71.4155 40.8956 71.8781 40.8602C71.7714 40.683 71.629 40.5058 71.4867 40.3286Z" fill="white"></path> <path fill-rule="evenodd" clip-rule="evenodd" d="M79.7071 41.7458C79.885 41.9585 80.063 42.1711 80.2409 42.4191C80.4188 42.7026 80.4188 42.9153 80.1341 43.057C79.9206 43.1633 79.2801 43.376 78.9599 43.4468C79.0666 43.5886 79.1734 43.6949 79.2801 43.8367C79.7071 43.7658 80.3832 43.624 80.7746 43.4114C81.4863 42.9861 81.4863 42.5255 81.0593 41.9939C80.6323 41.4269 80.0985 40.8953 79.636 40.3637C78.6396 39.2297 77.6433 38.0957 76.647 36.9263C76.3268 37.1035 76.0065 37.2806 75.6863 37.4578C76.6826 38.4855 77.6789 39.4778 78.7108 40.5055C78.8887 40.6827 79.1022 40.8244 79.2801 40.9662C79.2446 40.9662 79.2446 40.9662 79.2446 41.0016C78.9599 40.8953 78.6752 40.789 78.3906 40.6827C76.5403 40.1511 74.6899 39.6196 72.8396 39.088C72.5194 39.2652 72.1992 39.4424 71.8789 39.6196C74.4765 40.3637 77.1096 41.0371 79.7071 41.7458Z" fill="white"></path> <path fill-rule="evenodd" clip-rule="evenodd" d="M89.3842 37.6706C88.6725 37.2454 87.9609 36.7847 87.2848 36.324C87.0357 36.4657 86.7866 36.6075 86.502 36.7847C84.9008 35.8633 83.2995 34.9419 81.6983 34.0205C80.5952 34.6584 79.4566 35.2963 78.3535 35.9342C79.8836 36.891 82.232 38.3085 82.4811 39.0881C82.3032 39.1944 82.1253 39.3007 81.9474 39.4071C82.6946 39.8323 83.4419 40.2576 84.1535 40.6828C84.4026 40.5411 84.6517 40.3993 84.8652 40.2576C84.367 39.9386 83.8689 39.6197 83.3351 39.3007C84.5449 38.592 85.7903 37.8832 87.0001 37.1745C87.5339 37.4934 88.0676 37.7769 88.6014 38.0959C88.8504 37.9541 89.0995 37.8124 89.3842 37.6706ZM79.7412 35.8633C80.3106 35.5443 80.8799 35.19 81.4492 34.871C82.8369 35.6861 84.2247 36.4657 85.6124 37.2808C84.8296 37.7415 84.0824 38.1667 83.2995 38.592C83.086 38.0604 81.0578 36.6075 79.7412 35.8633Z" fill="white"></path> <path fill-rule="evenodd" clip-rule="evenodd" d="M92.9419 33.7723C91.7321 33.0635 90.4867 32.3548 89.2769 31.646C88.3161 31.1144 87.0707 30.7955 85.5051 31.6814C84.5088 32.2484 84.1174 32.78 83.9395 33.1344C84.2241 33.2053 84.5088 33.3116 84.7934 33.3825C84.9714 33.0281 85.3628 32.4611 86.11 32.0358C86.7505 31.6814 87.5689 31.6814 88.1738 32.0358C88.4585 32.213 88.7431 32.3548 89.0634 32.5319C88.672 32.78 88.245 32.9926 87.6401 33.4179C86.5726 34.1621 86.3947 34.7645 87.4266 35.367C88.5652 36.0403 89.6327 35.7922 90.7002 35.1898C91.4118 34.7645 91.5542 34.1621 91.5542 33.7723C91.8388 33.8786 92.0879 33.9849 92.4082 34.0912C92.5861 33.9849 92.764 33.8786 92.9419 33.7723ZM90.0953 34.8708C89.4904 35.2252 89.0278 35.2607 88.3517 34.8708C87.7112 34.481 87.7112 34.233 88.2094 33.8077C88.7076 33.4179 89.099 33.1344 89.526 32.8509C89.9885 33.099 90.4511 33.3825 90.8781 33.6305C90.9137 33.9495 90.7714 34.481 90.0953 34.8708Z" fill="white"></path> <path fill-rule="evenodd" clip-rule="evenodd" d="M96.8558 34.1265C97.1405 33.9493 97.4251 33.8076 97.7454 33.6304C96.8202 33.0988 95.8951 32.5673 95.0055 32.0357C95.7527 32.0003 96.5356 31.8585 97.2472 31.4333C98.9196 30.4764 98.1012 29.6259 96.4644 28.6691C94.8276 27.7123 93.2619 27.1807 91.5895 28.173C90.8779 28.5982 90.5577 29.1652 90.5932 29.6614C90.3086 29.555 90.0595 29.4487 89.7748 29.3779C89.5613 29.4842 89.3834 29.5905 89.1699 29.7322C91.7319 31.1852 94.2938 32.6736 96.8558 34.1265ZM96.6423 31.0789C96.1086 31.3624 95.2902 31.6459 94.4362 31.7168C93.3331 31.0789 92.2656 30.4764 91.1626 29.8386C91.2693 29.3424 91.6607 28.8463 92.23 28.5274C92.9773 28.1021 94.0448 28.3502 95.5392 29.2007C97.0337 30.0866 97.3895 30.6536 96.6423 31.0789Z" fill="white"></path> <path fill-rule="evenodd" clip-rule="evenodd" d="M99.2401 24.3813C98.742 24.4168 97.8168 24.6294 96.9984 25.0901C95.326 26.0469 95.9309 27.0746 97.5678 28.0314C99.2046 28.9883 100.984 29.3072 102.656 28.3504C103.617 27.8188 103.83 27.2518 103.901 27.0392C103.581 26.9683 103.332 26.8974 103.012 26.7911C102.941 27.0392 102.763 27.4999 101.98 27.9606C101.09 28.4567 99.9874 28.3504 98.4929 27.4999C96.9984 26.6494 96.6426 26.0115 97.6033 25.4799C98.3861 25.0547 99.169 24.9484 99.6316 24.9129C99.5248 24.7003 99.3825 24.5585 99.2401 24.3813Z" fill="white"></path> <path fill-rule="evenodd" clip-rule="evenodd" d="M107.424 25.4797C105.822 24.5583 104.257 23.6723 102.691 22.7509C103.26 22.432 103.794 22.1131 104.364 21.7941C104.15 21.6524 103.901 21.546 103.687 21.4043C102.264 22.2194 100.841 23.0344 99.4531 23.8495C99.6666 23.9913 99.9157 24.0976 100.129 24.2393C100.699 23.9204 101.232 23.6014 101.802 23.2825C103.367 24.2039 104.968 25.0898 106.534 26.0112C106.819 25.7986 107.103 25.6214 107.424 25.4797Z" fill="white"></path> <path fill-rule="evenodd" clip-rule="evenodd" d="M110.058 20.4833C110.058 20.4833 110.022 20.4833 110.022 20.4478C110.058 20.4124 110.093 20.4124 110.129 20.377C110.449 20.0935 110.627 19.6682 109.987 19.2784C109.097 18.7823 108.065 18.8177 106.962 19.4556C106.215 19.8808 105.468 20.3061 104.756 20.7313C106.571 21.759 108.35 22.8222 110.164 23.8499C110.947 23.3892 111.695 22.9639 112.477 22.5032C113.901 21.6882 113.865 21.1212 112.833 20.5187C111.908 19.9872 110.841 20.1289 110.2 20.377C110.164 20.4478 110.129 20.4833 110.058 20.4833ZM108.492 21.9008C108.955 21.6527 109.417 21.3692 109.88 21.1212C110.769 20.625 111.481 20.8377 111.944 21.0857C112.442 21.3692 112.798 21.6882 112.015 22.1489C111.517 22.4324 110.983 22.7513 110.485 23.0348C109.773 22.645 109.133 22.2906 108.492 21.9008ZM106.215 20.5896C106.642 20.3415 107.069 20.0935 107.531 19.8454C108.207 19.4556 108.812 19.6328 109.204 19.8808C109.595 20.0935 109.915 20.377 109.133 20.8377C108.706 21.0857 108.279 21.3338 107.887 21.5464C107.318 21.2275 106.784 20.9085 106.215 20.5896Z" fill="white"></path> <path fill-rule="evenodd" clip-rule="evenodd" d="M112.265 16.3014C110.593 17.2582 111.091 18.3922 112.763 19.3491C114.507 20.3413 116.25 20.5539 117.958 19.5617C118.919 19.0301 119.382 18.534 119.595 18.1796C119.275 18.1087 118.99 18.0379 118.706 17.9315C118.563 18.2859 118.101 18.782 117.353 19.2073C116.677 19.5971 115.432 19.7743 114.009 18.9592C113.937 18.9238 113.831 18.8529 113.76 18.8175C114.934 18.1442 116.144 17.4354 117.318 16.7621C115.254 15.5926 113.973 15.3446 112.265 16.3014ZM115.895 16.9393C114.969 17.4708 114.08 17.967 113.19 18.4985C112.265 17.967 111.802 17.2228 112.834 16.6203C113.866 16.0533 114.756 16.3014 115.895 16.9393Z" fill="white"></path> <path fill-rule="evenodd" clip-rule="evenodd" d="M122.191 16.9748C121.301 16.4787 120.447 15.9826 119.593 15.4865C120.447 14.9903 121.301 14.4942 122.155 14.0335C123.045 14.5296 123.899 15.0258 124.753 15.5219C125.037 15.3447 125.322 15.203 125.607 15.0258C123.792 13.9981 122.013 12.9349 120.198 11.9072C119.913 12.0844 119.629 12.2262 119.344 12.4034C120.091 12.8286 120.839 13.2539 121.586 13.6791C120.732 14.1753 119.878 14.6714 119.024 15.1321C118.277 14.7068 117.529 14.2816 116.782 13.8563C116.497 14.0335 116.213 14.1753 115.893 14.3524C117.707 15.3801 119.486 16.4433 121.301 17.471C121.621 17.2938 121.906 17.1166 122.191 16.9748Z" fill="white"></path> <path fill-rule="evenodd" clip-rule="evenodd" d="M79.3493 58.6142C79.5272 58.8268 79.7407 59.0395 79.883 59.2875C80.0609 59.571 80.0965 59.7836 79.8119 59.9608C79.5984 60.0671 78.9579 60.2798 78.602 60.3507C78.7088 60.4924 78.8155 60.6342 78.9223 60.7759C79.3493 60.705 80.0609 60.5278 80.4168 60.3152C81.1284 59.89 81.0928 59.4293 80.7014 58.8977C80.2744 58.3307 79.7407 57.7991 79.2781 57.2676C78.2818 56.1335 77.2855 54.9995 76.2892 53.8301C75.9689 54.0073 75.6487 54.1845 75.3284 54.3971C76.3247 55.4248 77.3566 56.4525 78.353 57.4447C78.5309 57.5865 78.7444 57.7637 78.9223 57.9054L78.8867 57.9409C78.602 57.8346 78.353 57.7282 78.0683 57.6574C76.218 57.1258 74.3677 56.5942 72.5174 56.0627C72.1971 56.2399 71.8769 56.417 71.5566 56.5942C74.1542 57.2321 76.7517 57.9054 79.3493 58.6142Z" fill="white"></path> <path fill-rule="evenodd" clip-rule="evenodd" d="M83.761 55.7439C82.8715 55.2478 82.0175 54.7516 81.1635 54.2555C82.0175 53.7594 82.8359 53.2987 83.6899 52.8025C84.5795 53.2987 85.4334 53.7948 86.2874 54.2909C86.5721 54.1137 86.8568 53.972 87.177 53.7948C85.3623 52.7671 83.5831 51.704 81.7684 50.6763C81.4482 50.8535 81.1635 51.0306 80.8788 51.1724C81.6261 51.5977 82.3733 52.0229 83.1206 52.4482C82.2666 52.9443 81.4126 53.4404 80.5942 53.9011C79.8469 53.4759 79.0997 53.0506 78.3525 52.6254C78.0322 52.8025 77.7476 52.9443 77.4629 53.1215C79.2776 54.1492 81.0923 55.2123 82.8715 56.24C83.1561 56.0628 83.4408 55.8856 83.761 55.7439Z" fill="white"></path> <path fill-rule="evenodd" clip-rule="evenodd" d="M89.5977 52.3771C89.1707 51.2076 88.7081 50.0736 88.2811 48.8687C88.1388 48.6561 87.9964 48.4435 87.8541 48.1954C87.8897 48.1954 87.8897 48.1954 87.9253 48.1954C88.1744 48.3726 88.4234 48.5143 88.6369 48.6915C89.8467 49.4003 91.0921 50.109 92.302 50.8178C92.5866 50.6406 92.8713 50.4989 93.1559 50.3217C91.3412 49.294 89.5621 48.2308 87.7474 47.2031C87.4627 47.3803 87.2136 47.5221 86.929 47.6638C87.3559 48.7978 87.7829 49.9318 88.2099 51.0659C88.3167 51.2785 88.4234 51.5265 88.5658 51.7392H88.5302C88.2811 51.5974 88.0676 51.4202 87.8541 51.2785C86.6443 50.5697 85.4701 49.8964 84.2602 49.2231C83.9756 49.4003 83.6909 49.542 83.4062 49.7192C85.221 50.7469 87.0357 51.8101 88.8148 52.8378C89.0639 52.6606 89.3486 52.5188 89.5977 52.3771Z" fill="white"></path> <path fill-rule="evenodd" clip-rule="evenodd" d="M94.7222 45.9984C94.7222 45.9984 94.6866 45.9984 94.6866 45.963C94.7222 45.9275 94.7578 45.9275 94.7934 45.8921C95.1136 45.5732 95.2915 45.1833 94.6154 44.7935C93.7259 44.2974 92.694 44.3328 91.5909 44.9707C90.8437 45.396 90.0964 45.8212 89.3848 46.2465C91.1995 47.2742 93.0142 48.3373 94.7934 49.365C95.5762 48.9398 96.3234 48.4791 97.1062 48.0538C98.5295 47.2387 98.494 46.6717 97.4621 46.0693C96.5369 45.5377 95.4338 45.6795 94.8289 45.9275C94.8289 45.9275 94.7934 45.963 94.7222 45.9984ZM93.121 47.3805C93.5835 47.1324 94.0461 46.8489 94.5087 46.6009C95.3983 46.1047 96.1099 46.3174 96.5725 46.5654C97.0707 46.8489 97.4621 47.1679 96.6437 47.6286C96.1455 47.9121 95.6118 48.231 95.1136 48.5145C94.4375 48.1601 93.797 47.7703 93.121 47.3805ZM90.8792 46.1047C91.3062 45.8567 91.7332 45.6086 92.1958 45.3605C92.8719 44.9707 93.4768 45.1833 93.8682 45.396C94.224 45.6086 94.5799 45.8921 93.797 46.3174C93.37 46.5654 92.943 46.8135 92.5516 47.0261C91.9823 46.7426 91.413 46.4237 90.8792 46.1047Z" fill="white"></path> <path fill-rule="evenodd" clip-rule="evenodd" d="M96.8902 41.7814C95.1822 42.7737 95.716 43.8722 97.3528 44.8291C99.0964 45.8213 100.875 46.0339 102.548 45.0417C103.473 44.5101 103.971 44.014 104.149 43.6596C103.864 43.5887 103.58 43.5179 103.26 43.4115C103.082 43.7659 102.655 44.2621 101.907 44.6873C101.231 45.0771 99.9859 45.2543 98.5626 44.4392C98.4914 44.4038 98.3847 44.3329 98.3135 44.2975C99.4878 43.6242 100.698 42.9154 101.872 42.2421C99.9148 41.1081 98.5982 40.8246 96.8902 41.7814ZM100.52 42.4547C99.6301 42.9863 98.7049 43.4824 97.8154 44.014C96.8902 43.4824 96.4276 42.7382 97.4951 42.1358C98.527 41.5333 99.4166 41.8168 100.52 42.4547Z" fill="white"></path> <path fill-rule="evenodd" clip-rule="evenodd" d="M108.243 44.2618C108.527 44.0846 108.812 43.9428 109.132 43.7657C108.207 43.2341 107.282 42.7025 106.392 42.171C107.175 42.1355 107.922 41.9938 108.634 41.5685C110.342 40.6117 109.524 39.7612 107.851 38.8044C106.214 37.8475 104.649 37.316 102.976 38.3082C102.265 38.7335 101.944 39.3005 101.98 39.7966C101.695 39.6903 101.446 39.584 101.162 39.5131C100.948 39.6194 100.77 39.7257 100.557 39.8321C103.119 41.3204 105.681 42.7734 108.243 44.2618ZM108.029 41.2141C107.495 41.4976 106.677 41.8166 105.823 41.852C104.72 41.2141 103.652 40.6117 102.549 39.9738C102.656 39.4777 103.047 38.9815 103.581 38.6626C104.328 38.2373 105.431 38.4854 106.926 39.3359C108.42 40.2219 108.776 40.7889 108.029 41.2141Z" fill="white"></path> <path fill-rule="evenodd" clip-rule="evenodd" d="M110.628 34.5166C110.13 34.552 109.204 34.7647 108.386 35.2254C106.749 36.1822 107.354 37.2453 108.991 38.1667C110.628 39.1235 112.407 39.407 114.044 38.4856C115.004 37.9186 115.218 37.3871 115.289 37.2099C115.004 37.139 114.72 37.0327 114.4 36.9618C114.328 37.2099 114.151 37.706 113.403 38.1313C112.514 38.6274 111.411 38.5211 109.916 37.6351C108.422 36.7846 108.101 36.1467 109.027 35.6152C109.774 35.1899 110.592 35.0836 111.055 35.0127C110.912 34.8355 110.77 34.6584 110.628 34.5166Z" fill="white"></path> <path fill-rule="evenodd" clip-rule="evenodd" d="M117.744 36.182C117.317 35.0125 116.855 33.8785 116.428 32.709C116.285 32.4964 116.143 32.2838 116.001 32.0357C116.036 32.0357 116.036 32.0357 116.072 32.0357C116.321 32.2129 116.57 32.3547 116.783 32.5319C117.993 33.2406 119.239 33.9494 120.448 34.6581C120.733 34.4809 121.018 34.3392 121.302 34.162C119.488 33.1343 117.709 32.0712 115.894 31.0435C115.609 31.2206 115.325 31.3624 115.075 31.5042C115.502 32.6382 115.929 33.7722 116.356 34.9062C116.463 35.1188 116.57 35.3669 116.712 35.5795H116.677C116.463 35.4378 116.214 35.2606 116.001 35.1188C114.791 34.4101 113.617 33.7367 112.407 33.0634C112.122 33.2406 111.837 33.3824 111.553 33.5595C113.367 34.5872 115.182 35.6504 116.961 36.6781C117.175 36.5009 117.459 36.3591 117.744 36.182Z" fill="white"></path> <path fill-rule="evenodd" clip-rule="evenodd" d="M124.931 32.0714C123.366 31.1501 121.765 30.2641 120.199 29.3427C120.768 29.0238 121.302 28.7049 121.871 28.3859C121.658 28.2442 121.444 28.1378 121.195 27.9961C119.772 28.8112 118.384 29.6262 116.961 30.4413C117.174 30.5831 117.424 30.6894 117.637 30.8311C118.206 30.5122 118.74 30.1932 119.309 29.8743C120.911 30.7957 122.476 31.6816 124.042 32.603C124.327 32.3904 124.611 32.2486 124.931 32.0714Z" fill="white"></path> <path fill-rule="evenodd" clip-rule="evenodd" d="M124.255 26.0825C122.547 27.0393 123.08 28.1734 124.753 29.1302C126.496 30.1224 128.24 30.3351 129.948 29.3428C130.873 28.8112 131.371 28.3151 131.585 27.9607C131.264 27.8898 130.98 27.819 130.695 27.7481C130.517 28.1025 130.09 28.5986 129.343 29.0239C128.667 29.4137 127.422 29.5909 125.998 28.7758C125.927 28.7404 125.82 28.6695 125.749 28.634C126.923 27.9607 128.133 27.252 129.307 26.5786C127.279 25.3738 125.963 25.0903 124.255 26.0825ZM127.884 26.7204C126.959 27.252 126.069 27.7481 125.18 28.2797C124.255 27.7481 123.828 27.0039 124.86 26.4369C125.891 25.799 126.781 26.0825 127.884 26.7204Z" fill="white"></path> <path fill-rule="evenodd" clip-rule="evenodd" d="M135.177 26.1535C133.612 25.2321 132.01 24.3461 130.445 23.4248C131.014 23.1058 131.583 22.7869 132.153 22.4679C131.939 22.3262 131.726 22.2199 131.477 22.0781C130.053 22.8932 128.63 23.7083 127.242 24.5233C127.456 24.6651 127.705 24.7714 127.918 24.9132C128.488 24.5942 129.057 24.2753 129.591 23.9563C131.192 24.8777 132.758 25.7637 134.323 26.6851C134.608 26.5079 134.892 26.3307 135.177 26.1535Z" fill="white"></path> </g> <defs> <clipPath id="clip0_35_432"> <rect width="145" height="87" fill="white"></rect> </clipPath> </defs> </svg> 