<?xml version="1.0" encoding="UTF-8"?> <svg xmlns="http://www.w3.org/2000/svg" width="202" height="48" viewBox="0 0 202 48" fill="none"> <path fill-rule="evenodd" clip-rule="evenodd" d="M98.9261 4.20994H104.794C101.716 20.2579 95.3981 45.6779 83.4241 45.5499L75.9461 45.4699L75.9601 39.3259C76.9681 40.0259 80.3841 40.7299 83.3661 40.3779C86.6301 39.9919 88.1961 37.2259 89.3501 34.7279L77.1521 10.7459C79.0141 11.8539 82.6401 13.8439 84.1601 13.5679L92.3181 29.4919C95.0501 21.3779 96.4341 17.0179 98.9261 4.20994ZM1.91211 24.8159C1.91211 18.9139 4.30011 13.5139 9.07011 9.47594C13.8421 5.43994 19.8881 3.41994 27.2141 3.41994C34.4881 3.41994 40.5021 5.39194 45.2841 9.30194C50.0921 13.2339 52.5121 19.3959 52.5121 25.5299C52.5121 27.0319 52.2581 29.2319 51.8541 30.2039L46.7061 25.5299C46.7061 20.8719 44.8841 15.8439 41.2481 12.7379C37.6121 9.63194 32.5501 8.07994 27.2141 8.07994C21.7801 8.07994 16.6961 9.61394 13.1061 12.6799C9.51411 15.7479 7.71811 20.0779 7.71811 24.8159C7.71811 29.3979 9.51611 34.0139 13.1761 37.1779C16.7901 40.3019 21.8741 41.8379 27.2141 41.8379C32.7881 41.8379 37.8821 40.2739 41.3901 37.1779C42.5741 36.1339 43.5621 35.0019 44.3521 33.7859L42.3021 31.6979V33.8759C41.5741 35.2159 40.1081 36.3679 38.0961 37.3079V25.4699H41.9881L50.4301 34.1919L58.4681 25.4699H62.2721V45.6019H58.0641V31.6979L50.3841 39.7939H50.2501L48.1741 37.6779C47.3321 38.6879 46.3701 39.6459 45.2841 40.5559C40.4661 44.5159 34.4421 46.4979 27.2141 46.4979C19.9841 46.4979 13.9181 44.5599 9.07011 40.6159C4.28211 36.7159 1.91211 30.9499 1.91211 24.8159ZM72.1101 45.5619H66.3021V4.79394C72.8841 2.37594 76.4041 1.99194 80.7421 4.22194C86.3381 7.09994 89.2861 5.51794 94.9021 4.12594L93.7581 9.35794C88.8981 11.7659 84.4161 12.3039 81.3001 10.3559C78.7361 8.75394 75.7761 7.78594 72.1101 9.45394V45.5619Z" fill="white"></path> <path d="M115.21 32.023C115.041 32.4465 114.864 32.7797 114.677 33.0227C114.49 33.2656 114.266 33.4524 114.004 33.5832C113.743 33.714 113.413 33.8106 113.014 33.8729L112.883 33.2282C113.319 33.141 113.643 33.0133 113.855 32.8451C114.067 32.6707 114.241 32.3874 114.378 31.995H114.051L111.986 27.3236H112.911L114.64 31.4531L116.181 27.3236H117.078L115.21 32.023ZM121.563 33.7607V30.743H118.854V33.7607H117.966V27.3236H118.854V30.0143H121.563V27.3236H122.451V33.7607H121.563ZM128.829 33.7607H127.941V30.6216C127.941 29.8928 127.982 29.1236 128.063 28.3139L125.456 33.7607H124.316V27.3236H125.204V30.4627C125.204 31.3347 125.163 32.1133 125.082 32.7984L127.717 27.3236H128.829V33.7607ZM133.534 30.36C133.976 30.4347 134.334 30.5904 134.608 30.8271C134.883 31.0638 135.02 31.4313 135.02 31.9296C135.02 33.1503 134.169 33.7607 132.469 33.7607H130.694V27.3236H132.217C133.033 27.3236 133.655 27.4575 134.085 27.7253C134.521 27.9931 134.739 28.4011 134.739 28.9492C134.739 29.3229 134.621 29.6343 134.384 29.8835C134.154 30.1326 133.87 30.2914 133.534 30.36ZM131.581 28.0243V30.0517H132.553C132.927 30.0517 133.232 29.9613 133.469 29.7807C133.712 29.6001 133.833 29.3447 133.833 29.0146C133.833 28.6409 133.705 28.3824 133.45 28.2391C133.201 28.0959 132.821 28.0243 132.31 28.0243H131.581ZM132.469 33.0507C132.992 33.0507 133.391 32.9728 133.665 32.8171C133.945 32.6614 134.085 32.3656 134.085 31.9296C134.085 31.506 133.951 31.2008 133.684 31.014C133.416 30.8271 133.067 30.7337 132.637 30.7337H131.581V33.0507H132.469ZM139.863 27.3236L139.76 28.0336H137.266V30.1357H139.433V30.8458H137.266V33.0507H139.938V33.7607H136.378V27.3236H139.863ZM143.069 27.3236C143.866 27.3236 144.483 27.4917 144.919 27.8281C145.355 28.1582 145.573 28.6533 145.573 29.3136C145.573 30.0174 145.345 30.5406 144.891 30.8832C144.436 31.2257 143.832 31.397 143.078 31.397H142.265V33.7607H141.378V27.3236H143.069ZM143.041 30.6963C143.558 30.6963 143.95 30.5966 144.218 30.3973C144.492 30.198 144.629 29.8399 144.629 29.3229C144.629 28.862 144.492 28.5288 144.218 28.3232C143.95 28.1177 143.564 28.0149 143.06 28.0149H142.265V30.6963H143.041ZM149.058 27.2114C149.444 27.2114 149.768 27.2613 150.03 27.3609C150.298 27.4606 150.569 27.6225 150.843 27.8467L150.357 28.4167C149.964 28.099 149.55 27.9402 149.114 27.9402C148.579 27.9402 148.146 28.1457 147.816 28.5568C147.492 28.9679 147.33 29.6281 147.33 30.5375C147.33 31.4219 147.492 32.0759 147.816 32.4995C148.139 32.9168 148.569 33.1254 149.105 33.1254C149.379 33.1254 149.619 33.0787 149.824 32.9853C150.03 32.8919 150.248 32.7611 150.478 32.5929L150.917 33.1535C150.718 33.359 150.463 33.5303 150.151 33.6673C149.84 33.8043 149.482 33.8729 149.077 33.8729C148.554 33.8729 148.086 33.7452 147.675 33.4898C147.271 33.2282 146.953 32.8483 146.722 32.35C146.498 31.8455 146.386 31.2413 146.386 30.5375C146.386 29.8337 146.504 29.2326 146.741 28.7343C146.978 28.2298 147.299 27.8499 147.703 27.5945C148.108 27.3391 148.56 27.2114 149.058 27.2114ZM156.547 33.7607H155.659V30.6216C155.659 29.8928 155.7 29.1236 155.781 28.3139L153.174 33.7607H152.034V27.3236H152.922V30.4627C152.922 31.3347 152.882 32.1133 152.801 32.7984L155.435 27.3236H156.547V33.7607ZM162.215 27.3236L162.121 28.0803H160.337V33.7607H159.449V28.0803H157.618V27.3236H162.215ZM166.723 27.3236L166.621 28.0336H164.126V30.1357H166.294V30.8458H164.126V33.0507H166.798V33.7607H163.239V27.3236H166.723ZM172.041 27.3236L171.947 28.0803H170.163V33.7607H169.275V28.0803H167.444V27.3236H172.041Z" fill="white"></path> <path d="M115.789 16.4481L115.659 17.2142H112.959V22.8853H112.071V16.4481H115.789ZM118.557 16.336C119.099 16.336 119.572 16.4667 119.977 16.7283C120.388 16.9837 120.706 17.3605 120.93 17.8588C121.161 18.3571 121.276 18.9613 121.276 19.6713C121.276 20.3689 121.161 20.9669 120.93 21.4651C120.706 21.9634 120.388 22.3434 119.977 22.605C119.572 22.8666 119.099 22.9974 118.557 22.9974C118.015 22.9974 117.539 22.8697 117.128 22.6143C116.723 22.3589 116.405 21.9821 116.175 21.4838C115.951 20.9856 115.838 20.3845 115.838 19.6807C115.838 18.9893 115.951 18.3914 116.175 17.8869C116.405 17.3823 116.726 16.9993 117.137 16.7377C117.548 16.4699 118.022 16.336 118.557 16.336ZM118.557 17.0647C117.997 17.0647 117.561 17.2765 117.249 17.7C116.938 18.1235 116.782 18.7838 116.782 19.6807C116.782 20.5714 116.938 21.2253 117.249 21.6427C117.567 22.06 118.003 22.2686 118.557 22.2686C119.741 22.2686 120.332 21.4029 120.332 19.6713C120.332 17.9336 119.741 17.0647 118.557 17.0647ZM124.979 16.336C125.365 16.336 125.689 16.3858 125.951 16.4854C126.219 16.5851 126.49 16.747 126.764 16.9713L126.278 17.5412C125.885 17.2235 125.471 17.0647 125.035 17.0647C124.5 17.0647 124.067 17.2702 123.737 17.6813C123.413 18.0924 123.251 18.7526 123.251 19.662C123.251 20.5464 123.413 21.2004 123.737 21.624C124.061 22.0413 124.49 22.2499 125.026 22.2499C125.3 22.2499 125.54 22.2032 125.745 22.1098C125.951 22.0164 126.169 21.8856 126.399 21.7174L126.838 22.278C126.639 22.4835 126.384 22.6548 126.072 22.7918C125.761 22.9289 125.403 22.9974 124.998 22.9974C124.475 22.9974 124.008 22.8697 123.597 22.6143C123.192 22.3527 122.874 21.9728 122.644 21.4745C122.419 20.97 122.307 20.3658 122.307 19.662C122.307 18.9582 122.426 18.3571 122.662 17.8588C122.899 17.3543 123.22 16.9744 123.625 16.719C124.029 16.4636 124.481 16.336 124.979 16.336ZM130.181 21.1475C130.013 21.571 129.835 21.9043 129.648 22.1472C129.461 22.3901 129.237 22.5769 128.975 22.7077C128.714 22.8385 128.384 22.9351 127.985 22.9974L127.854 22.3527C128.29 22.2655 128.614 22.1378 128.826 21.9697C129.038 21.7953 129.212 21.5119 129.349 21.1195H129.022L126.957 16.4481H127.882L129.611 20.5776L131.152 16.4481H132.049L130.181 21.1475ZM137.081 22.1565V24.2867H136.381L136.24 22.8853H132.531L132.391 24.2867H131.691V22.1565H132.13C132.298 21.9946 132.425 21.789 132.513 21.5399C132.606 21.2907 132.684 20.9606 132.746 20.5496C132.815 20.1322 132.918 19.3879 133.055 18.3166L133.288 16.4481H136.558V22.1565H137.081ZM135.671 17.1768H134.064L133.933 18.354C133.821 19.3132 133.727 20.0139 133.653 20.4561C133.584 20.8984 133.491 21.2503 133.372 21.5119C133.26 21.7735 133.095 21.9883 132.877 22.1565H135.671V17.1768ZM141.859 22.8853L141.373 21.2689H138.934L138.448 22.8853H137.552L139.616 16.4481H140.737L142.793 22.8853H141.859ZM139.149 20.5496H141.158L140.158 17.1861L139.149 20.5496ZM145.476 16.4481C146.274 16.4481 146.89 16.6162 147.326 16.9526C147.762 17.2827 147.98 17.7779 147.98 18.4381C147.98 19.1419 147.753 19.6651 147.298 20.0077C146.844 20.3502 146.239 20.5215 145.486 20.5215H144.673V22.8853H143.785V16.4481H145.476ZM145.448 19.8208C145.965 19.8208 146.358 19.7212 146.626 19.5218C146.9 19.3225 147.037 18.9644 147.037 18.4474C147.037 17.9865 146.9 17.6533 146.626 17.4477C146.358 17.2422 145.972 17.1394 145.467 17.1394H144.673V19.8208H145.448ZM151.466 16.336C151.852 16.336 152.176 16.3858 152.437 16.4854C152.705 16.5851 152.976 16.747 153.25 16.9713L152.764 17.5412C152.372 17.2235 151.958 17.0647 151.522 17.0647C150.986 17.0647 150.553 17.2702 150.223 17.6813C149.899 18.0924 149.737 18.7526 149.737 19.662C149.737 20.5464 149.899 21.2004 150.223 21.624C150.547 22.0413 150.977 22.2499 151.512 22.2499C151.786 22.2499 152.026 22.2032 152.232 22.1098C152.437 22.0164 152.655 21.8856 152.886 21.7174L153.325 22.278C153.126 22.4835 152.87 22.6548 152.559 22.7918C152.247 22.9289 151.889 22.9974 151.484 22.9974C150.961 22.9974 150.494 22.8697 150.083 22.6143C149.678 22.3527 149.36 21.9728 149.13 21.4745C148.906 20.97 148.794 20.3658 148.794 19.662C148.794 18.9582 148.912 18.3571 149.149 17.8588C149.385 17.3543 149.706 16.9744 150.111 16.719C150.516 16.4636 150.967 16.336 151.466 16.336ZM158.153 16.4481L158.06 17.2048H156.275V22.8853H155.388V17.2048H153.557V16.4481H158.153ZM162.018 19.4845C162.46 19.5592 162.818 19.7149 163.092 19.9516C163.366 20.1883 163.503 20.5558 163.503 21.0541C163.503 22.2749 162.653 22.8853 160.952 22.8853H159.177V16.4481H160.7C161.516 16.4481 162.139 16.582 162.569 16.8498C163.005 17.1176 163.223 17.5256 163.223 18.0737C163.223 18.4474 163.104 18.7589 162.868 19.008C162.637 19.2571 162.354 19.416 162.018 19.4845ZM160.065 17.1488V19.1762H161.037C161.41 19.1762 161.715 19.0858 161.952 18.9052C162.195 18.7246 162.317 18.4692 162.317 18.1391C162.317 17.7654 162.189 17.5069 161.933 17.3637C161.684 17.2204 161.304 17.1488 160.794 17.1488H160.065ZM160.952 22.1752C161.476 22.1752 161.874 22.0973 162.148 21.9416C162.429 21.7859 162.569 21.4901 162.569 21.0541C162.569 20.6305 162.435 20.3253 162.167 20.1385C161.899 19.9516 161.55 19.8582 161.121 19.8582H160.065V22.1752H160.952ZM168.346 16.4481L168.244 17.1581H165.749V19.2602H167.917V19.9703H165.749V22.1752H168.421V22.8853H164.861V16.4481H168.346ZM173.458 22.8853V19.8675H170.749V22.8853H169.861V16.4481H170.749V19.1388H173.458V16.4481H174.346V22.8853H173.458ZM179.808 22.8853V19.8675H177.099V22.8853H176.212V16.4481H177.099V19.1388H179.808V16.4481H180.696V22.8853H179.808ZM184.178 18.8118C184.963 18.8118 185.573 18.98 186.009 19.3163C186.445 19.6464 186.663 20.1416 186.663 20.8018C186.663 21.5243 186.439 22.0537 185.991 22.3901C185.548 22.7202 184.941 22.8853 184.169 22.8853H182.562V16.4481H183.449V18.8118H184.178ZM187.457 16.4481H188.345V22.8853H187.457V16.4481ZM184.243 22.1752C184.717 22.1752 185.081 22.0787 185.337 21.8856C185.592 21.6863 185.72 21.3312 185.72 20.8205C185.72 20.3471 185.592 20.0108 185.337 19.8115C185.081 19.6059 184.698 19.5032 184.187 19.5032H183.449V22.1752H184.243ZM194.729 22.8853H193.842V19.7461C193.842 19.0173 193.882 18.2481 193.963 17.4384L191.356 22.8853H190.217V16.4481H191.104V19.5872C191.104 20.4592 191.064 21.2378 190.983 21.9229L193.617 16.4481H194.729V22.8853ZM192.459 15.8034C192.079 15.8034 191.758 15.7069 191.497 15.5138C191.241 15.3145 191.095 15.0466 191.057 14.7103L191.627 14.5888C191.69 14.7882 191.786 14.9314 191.917 15.0186C192.054 15.1058 192.235 15.1494 192.459 15.1494C192.683 15.1494 192.867 15.1058 193.01 15.0186C193.153 14.9252 193.256 14.7819 193.318 14.5888L193.888 14.7103C193.851 15.0466 193.698 15.3145 193.431 15.5138C193.169 15.7069 192.845 15.8034 192.459 15.8034Z" fill="white"></path> <path d="M114.797 5.07814C115.339 5.07814 115.812 5.20894 116.217 5.47054C116.628 5.72591 116.946 6.10273 117.17 6.60101C117.401 7.0993 117.516 7.70347 117.516 8.41352C117.516 9.11111 117.401 9.70905 117.17 10.2073C116.946 10.7056 116.628 11.0856 116.217 11.3472C115.812 11.6088 115.339 11.7396 114.797 11.7396C114.255 11.7396 113.779 11.6119 113.368 11.3565C112.963 11.1011 112.645 10.7243 112.415 10.226C112.19 9.72774 112.078 9.12669 112.078 8.42286C112.078 7.73149 112.19 7.13355 112.415 6.62904C112.645 6.12453 112.966 5.74148 113.377 5.47988C113.788 5.21205 114.261 5.07814 114.797 5.07814ZM114.797 5.80688C114.236 5.80688 113.8 6.01865 113.489 6.44219C113.178 6.86573 113.022 7.52595 113.022 8.42286C113.022 9.31354 113.178 9.96754 113.489 10.3848C113.807 10.8022 114.243 11.0108 114.797 11.0108C115.98 11.0108 116.572 10.1451 116.572 8.41352C116.572 6.67576 115.98 5.80688 114.797 5.80688ZM124.659 11.6274H123.799L123.575 8.72183C123.482 7.58201 123.429 6.7069 123.416 6.0965L122.024 10.8987H121.193L119.726 6.08716C119.726 6.86573 119.685 7.76575 119.604 8.78723L119.389 11.6274H118.549L119.081 5.19025H120.277L121.632 9.87099L122.921 5.19025H124.126L124.659 11.6274ZM128.336 5.07814C128.722 5.07814 129.046 5.12797 129.307 5.22762C129.575 5.32728 129.846 5.48922 130.12 5.71345L129.634 6.28336C129.242 5.9657 128.828 5.80688 128.392 5.80688C127.856 5.80688 127.423 6.01242 127.093 6.4235C126.769 6.83458 126.607 7.49481 126.607 8.40418C126.607 9.28863 126.769 9.94262 127.093 10.3662C127.417 10.7835 127.847 10.9921 128.382 10.9921C128.656 10.9921 128.896 10.9454 129.102 10.852C129.307 10.7586 129.525 10.6278 129.756 10.4596L130.195 11.0202C129.996 11.2257 129.74 11.397 129.429 11.534C129.117 11.671 128.759 11.7396 128.354 11.7396C127.831 11.7396 127.364 11.6119 126.953 11.3565C126.548 11.0949 126.23 10.715 126 10.2167C125.776 9.71217 125.664 9.108 125.664 8.40418C125.664 7.70035 125.782 7.0993 126.019 6.60101C126.255 6.0965 126.576 5.71656 126.981 5.46119C127.386 5.20582 127.837 5.07814 128.336 5.07814ZM135.61 5.19025L133.825 8.20798L135.787 11.6274H134.76L133.078 8.60972H132.2V11.6274H131.312V5.19025H132.2V7.88098H133.087L134.675 5.19025H135.61ZM141.326 11.6274H140.439V8.48826C140.439 7.75952 140.479 6.9903 140.56 6.18059L137.954 11.6274H136.814V5.19025H137.701V8.32943C137.701 9.20143 137.661 9.97999 137.58 10.6651L140.215 5.19025H141.326V11.6274ZM147.704 11.6274H146.816V8.48826C146.816 7.75952 146.857 6.9903 146.938 6.18059L144.331 11.6274H143.191V5.19025H144.079V8.32943C144.079 9.20143 144.038 9.97999 143.957 10.6651L146.592 5.19025H147.704V11.6274ZM145.434 4.5456C145.054 4.5456 144.733 4.44906 144.471 4.25597C144.216 4.05666 144.07 3.78883 144.032 3.45249L144.602 3.33103C144.664 3.53035 144.761 3.6736 144.892 3.7608C145.029 3.848 145.209 3.8916 145.434 3.8916C145.658 3.8916 145.842 3.848 145.985 3.7608C146.128 3.66738 146.231 3.52412 146.293 3.33103L146.863 3.45249C146.826 3.78883 146.673 4.05666 146.405 4.25597C146.144 4.44906 145.82 4.5456 145.434 4.5456Z" fill="white"></path> <path d="M115.426 44.6846H114.653V42.6631C114.653 42.3234 114.664 42.0007 114.687 41.6949C114.71 41.3891 114.729 41.1881 114.746 41.0919L112.869 44.6846H111.944V40.2085H112.716V42.23C112.716 42.5301 112.705 42.8415 112.683 43.1643C112.66 43.4813 112.643 43.6852 112.632 43.7758L114.483 40.2085H115.426V44.6846ZM121.419 44.6846H120.655L120.451 42.5697C120.428 42.3489 120.414 42.1054 120.408 41.8393C120.403 41.5675 120.4 41.2759 120.4 40.9645L119.38 44.192H118.642L117.69 40.973C117.69 41.7204 117.679 42.2498 117.656 42.5612L117.495 44.6846H116.739L117.138 40.2085H118.149L119.024 43.4106L119.984 40.2085H121.011L121.419 44.6846ZM122.938 43.6059C123.108 43.6059 123.25 43.6625 123.363 43.7758C123.476 43.889 123.533 44.0277 123.533 44.192C123.533 44.3562 123.476 44.4977 123.363 44.6166C123.25 44.7299 123.108 44.7865 122.938 44.7865C122.774 44.7865 122.635 44.7299 122.522 44.6166C122.409 44.4977 122.352 44.3562 122.352 44.192C122.352 44.0277 122.409 43.889 122.522 43.7758C122.635 43.6625 122.774 43.6059 122.938 43.6059ZM132.841 41.7119C132.841 42.5499 132.597 43.1869 132.11 43.6229C131.629 44.0532 130.955 44.2797 130.089 44.3024V44.9649H129.307V44.3024C128.407 44.2627 127.722 44.0249 127.252 43.5889C126.788 43.1473 126.556 42.5272 126.556 41.7289C126.556 40.8909 126.796 40.2567 127.277 39.8263C127.764 39.3904 128.441 39.161 129.307 39.1384V38.5438H130.089V39.1384C130.989 39.178 131.671 39.4187 132.136 39.8603C132.606 40.2963 132.841 40.9135 132.841 41.7119ZM127.388 41.7289C127.388 42.38 127.546 42.8642 127.864 43.1812C128.186 43.4983 128.673 43.671 129.324 43.6993V39.7329C128.662 39.7726 128.172 39.9481 127.855 40.2595C127.544 40.5709 127.388 41.0607 127.388 41.7289ZM130.072 43.7078C130.734 43.6682 131.221 43.4927 131.533 43.1812C131.85 42.8698 132.008 42.38 132.008 41.7119C132.008 41.0607 131.847 40.5766 131.524 40.2595C131.207 39.9424 130.723 39.7697 130.072 39.7414V43.7078ZM134.028 43.6059C134.198 43.6059 134.339 43.6625 134.453 43.7758C134.566 43.889 134.622 44.0277 134.622 44.192C134.622 44.3562 134.566 44.4977 134.453 44.6166C134.339 44.7299 134.198 44.7865 134.028 44.7865C133.864 44.7865 133.725 44.7299 133.612 44.6166C133.498 44.4977 133.442 44.3562 133.442 44.192C133.442 44.0277 133.498 43.889 133.612 43.7758C133.725 43.6625 133.864 43.6059 134.028 43.6059ZM141.139 44.6846H140.357L140.154 42.0431C140.069 41.0069 140.021 40.2114 140.009 39.6565L138.744 44.0221H137.988L136.654 39.648C136.654 40.3558 136.618 41.174 136.544 42.1026L136.349 44.6846H135.584L136.068 38.8326H137.155L138.387 43.0878L139.559 38.8326H140.655L141.139 44.6846ZM142.679 43.6059C142.849 43.6059 142.99 43.6625 143.104 43.7758C143.217 43.889 143.273 44.0277 143.273 44.192C143.273 44.3562 143.217 44.4977 143.104 44.6166C142.99 44.7299 142.849 44.7865 142.679 44.7865C142.515 44.7865 142.376 44.7299 142.263 44.6166C142.149 44.4977 142.093 44.3562 142.093 44.192C142.093 44.0277 142.149 43.889 142.263 43.7758C142.376 43.6625 142.515 43.6059 142.679 43.6059ZM150.772 44.0221V45.9586H150.135L150.008 44.6846H146.636L146.508 45.9586H145.871V44.0221H146.271C146.423 43.8749 146.54 43.688 146.619 43.4615C146.704 43.235 146.775 42.9349 146.831 42.5612C146.893 42.1818 146.987 41.5052 147.111 40.5313L147.324 38.8326H150.296V44.0221H150.772ZM149.49 39.4951H148.029L147.91 40.5653C147.808 41.4373 147.723 42.0743 147.655 42.4763C147.593 42.8783 147.508 43.1982 147.4 43.436C147.298 43.6739 147.148 43.8692 146.95 44.0221H149.49V39.4951ZM153.637 40.1066C154.266 40.1066 154.753 40.3161 155.098 40.7351C155.449 41.1541 155.625 41.7232 155.625 42.4423C155.625 42.9066 155.545 43.3171 155.387 43.6739C155.228 44.0249 154.999 44.2995 154.699 44.4977C154.399 44.6902 154.042 44.7865 153.629 44.7865C153 44.7865 152.51 44.577 152.159 44.158C151.808 43.739 151.633 43.1699 151.633 42.4508C151.633 41.9865 151.712 41.5788 151.871 41.2278C152.029 40.871 152.258 40.5964 152.558 40.4039C152.859 40.2057 153.218 40.1066 153.637 40.1066ZM153.637 40.7351C152.861 40.7351 152.474 41.307 152.474 42.4508C152.474 43.5889 152.859 44.158 153.629 44.158C154.399 44.158 154.784 43.5861 154.784 42.4423C154.784 41.3042 154.402 40.7351 153.637 40.7351ZM158.546 40.1066C158.812 40.1066 159.056 40.1463 159.277 40.2255C159.497 40.2991 159.71 40.4209 159.914 40.5908L159.54 41.0834C159.381 40.9701 159.226 40.888 159.073 40.8371C158.926 40.7804 158.761 40.7521 158.58 40.7521C158.218 40.7521 157.935 40.8965 157.731 41.1853C157.533 41.4741 157.434 41.9016 157.434 42.4678C157.434 43.034 157.533 43.453 157.731 43.7248C157.929 43.9909 158.212 44.124 158.58 44.124C158.756 44.124 158.917 44.0985 159.064 44.0476C159.212 43.9909 159.376 43.9032 159.557 43.7843L159.914 44.2939C159.506 44.6223 159.05 44.7865 158.546 44.7865C157.94 44.7865 157.462 44.5826 157.111 44.175C156.765 43.7673 156.593 43.2039 156.593 42.4848C156.593 42.0091 156.672 41.593 156.831 41.2362C156.989 40.8795 157.213 40.6021 157.502 40.4039C157.796 40.2057 158.144 40.1066 158.546 40.1066ZM163.995 40.2085L163.902 40.8456H162.466V44.6846H161.685V40.8456H160.207V40.2085H163.995ZM166.269 40.1066C166.898 40.1066 167.385 40.3161 167.73 40.7351C168.081 41.1541 168.257 41.7232 168.257 42.4423C168.257 42.9066 168.178 43.3171 168.019 43.6739C167.861 44.0249 167.631 44.2995 167.331 44.4977C167.031 44.6902 166.674 44.7865 166.261 44.7865C165.632 44.7865 165.143 44.577 164.792 44.158C164.441 43.739 164.265 43.1699 164.265 42.4508C164.265 41.9865 164.344 41.5788 164.503 41.2278C164.661 40.871 164.891 40.5964 165.191 40.4039C165.491 40.2057 165.85 40.1066 166.269 40.1066ZM166.269 40.7351C165.494 40.7351 165.106 41.307 165.106 42.4508C165.106 43.5889 165.491 44.158 166.261 44.158C167.031 44.158 167.416 43.5861 167.416 42.4423C167.416 41.3042 167.034 40.7351 166.269 40.7351ZM172.928 42.3149C172.928 42.4451 172.922 42.5782 172.911 42.7141H170.057C170.091 43.2067 170.216 43.5691 170.431 43.8013C170.646 44.0334 170.924 44.1495 171.263 44.1495C171.479 44.1495 171.677 44.1183 171.858 44.0561C172.039 43.9938 172.229 43.8947 172.427 43.7588L172.767 44.2259C172.291 44.5996 171.77 44.7865 171.204 44.7865C170.581 44.7865 170.094 44.5826 169.743 44.175C169.398 43.7673 169.225 43.2067 169.225 42.4933C169.225 42.029 169.299 41.6185 169.446 41.2617C169.599 40.8993 169.814 40.6162 170.091 40.4124C170.374 40.2085 170.706 40.1066 171.085 40.1066C171.68 40.1066 172.135 40.302 172.452 40.6927C172.77 41.0834 172.928 41.6241 172.928 42.3149ZM172.155 42.0856C172.155 41.6439 172.067 41.307 171.892 41.0749C171.716 40.8427 171.453 40.7266 171.102 40.7266C170.462 40.7266 170.114 41.1966 170.057 42.1366H172.155V42.0856ZM176.537 42.2555C177.296 42.3291 177.675 42.6801 177.675 43.3086C177.675 43.7786 177.503 44.1268 177.157 44.3533C176.817 44.5742 176.362 44.6846 175.79 44.6846H174.176V40.268C174.703 40.1604 175.192 40.1066 175.645 40.1066C176.2 40.1066 176.639 40.2114 176.962 40.4209C177.285 40.6304 177.446 40.9305 177.446 41.3212C177.446 41.576 177.37 41.7827 177.217 41.9412C177.064 42.0997 176.837 42.2045 176.537 42.2555ZM175.654 40.7097C175.416 40.7097 175.184 40.7266 174.957 40.7606V42.0261H175.798C176.07 42.0261 176.28 41.9752 176.427 41.8733C176.574 41.7713 176.648 41.5986 176.648 41.3552C176.648 41.1287 176.565 40.9645 176.401 40.8625C176.237 40.7606 175.988 40.7097 175.654 40.7097ZM175.79 44.073C176.124 44.073 176.384 44.0164 176.571 43.9032C176.758 43.7899 176.851 43.5861 176.851 43.2917C176.851 43.0482 176.772 42.8726 176.614 42.7651C176.455 42.6575 176.186 42.6037 175.807 42.6037H174.957V44.073H175.79ZM180.568 40.1066C180.834 40.1066 181.077 40.1463 181.298 40.2255C181.519 40.2991 181.731 40.4209 181.935 40.5908L181.561 41.0834C181.403 40.9701 181.247 40.888 181.094 40.8371C180.947 40.7804 180.783 40.7521 180.602 40.7521C180.239 40.7521 179.956 40.8965 179.752 41.1853C179.554 41.4741 179.455 41.9016 179.455 42.4678C179.455 43.034 179.554 43.453 179.752 43.7248C179.95 43.9909 180.234 44.124 180.602 44.124C180.777 44.124 180.939 44.0985 181.086 44.0476C181.233 43.9909 181.397 43.9032 181.578 43.7843L181.935 44.2939C181.527 44.6223 181.072 44.7865 180.568 44.7865C179.962 44.7865 179.483 44.5826 179.132 44.175C178.787 43.7673 178.614 43.2039 178.614 42.4848C178.614 42.0091 178.693 41.593 178.852 41.2362C179.011 40.8795 179.234 40.6021 179.523 40.4039C179.817 40.2057 180.166 40.1066 180.568 40.1066ZM186.348 40.2085L184.989 42.2809L186.509 44.6846H185.583L184.343 42.6207H183.774V44.6846H182.993V40.2085H183.774V42.0091H184.36L185.49 40.2085H186.348ZM189.004 40.1066C189.633 40.1066 190.12 40.3161 190.465 40.7351C190.816 41.1541 190.992 41.7232 190.992 42.4423C190.992 42.9066 190.912 43.3171 190.754 43.6739C190.595 44.0249 190.366 44.2995 190.066 44.4977C189.766 44.6902 189.409 44.7865 188.996 44.7865C188.367 44.7865 187.877 44.577 187.526 44.158C187.175 43.739 187 43.1699 187 42.4508C187 41.9865 187.079 41.5788 187.238 41.2278C187.396 40.871 187.625 40.5964 187.926 40.4039C188.226 40.2057 188.585 40.1066 189.004 40.1066ZM189.004 40.7351C188.228 40.7351 187.841 41.307 187.841 42.4508C187.841 43.5889 188.226 44.158 188.996 44.158C189.766 44.158 190.151 43.5861 190.151 42.4423C190.151 41.3042 189.769 40.7351 189.004 40.7351ZM193.064 44.6846H192.283V40.2085H195.077L194.975 40.854H193.064V44.6846ZM197.39 40.1066C198.018 40.1066 198.505 40.3161 198.851 40.7351C199.202 41.1541 199.377 41.7232 199.377 42.4423C199.377 42.9066 199.298 43.3171 199.139 43.6739C198.981 44.0249 198.752 44.2995 198.451 44.4977C198.151 44.6902 197.795 44.7865 197.381 44.7865C196.753 44.7865 196.263 44.577 195.912 44.158C195.561 43.739 195.385 43.1699 195.385 42.4508C195.385 41.9865 195.465 41.5788 195.623 41.2278C195.782 40.871 196.011 40.5964 196.311 40.4039C196.611 40.2057 196.971 40.1066 197.39 40.1066ZM197.39 40.7351C196.614 40.7351 196.226 41.307 196.226 42.4508C196.226 43.5889 196.611 44.158 197.381 44.158C198.151 44.158 198.536 43.5861 198.536 42.4423C198.536 41.3042 198.154 40.7351 197.39 40.7351Z" fill="white"></path> </svg> 