<?xml version="1.0" encoding="UTF-8"?> <svg xmlns="http://www.w3.org/2000/svg" width="92" height="15" viewBox="0 0 92 15" fill="none"> <g clip-path="url(#clip0_295_458)"> <path fill-rule="evenodd" clip-rule="evenodd" d="M11.3184 1.81824C11.3184 1.32157 11.4507 0.912554 11.7147 0.590693C11.9792 0.269001 12.3665 0.108154 12.8766 0.108154C13.3871 0.108154 13.7789 0.269001 14.0523 0.590693C14.3258 0.912554 14.4624 1.32157 14.4624 1.81824V6.14813C14.4624 7.28785 14.3438 8.31771 14.107 9.23702C13.87 10.1565 13.4872 10.9976 12.9587 11.7608C12.4303 12.5238 11.683 13.1168 10.717 13.5397C9.75104 13.9625 8.60277 14.1738 7.27221 14.1738C4.70232 14.1738 2.84791 13.4431 1.70848 11.9813C0.569382 10.5194 0 8.59347 0 6.20332L0 1.81824C0 1.32157 0.141095 0.912554 0.423617 0.590693C0.706474 0.269001 1.10274 0.108154 1.61308 0.108154C2.1416 0.108154 2.55154 0.269001 2.84324 0.590693C3.13494 0.912554 3.2807 1.32157 3.2807 1.81824V6.34128C3.2807 9.59556 4.6201 11.2227 7.29939 11.2227C9.97869 11.2227 11.3184 9.57722 11.3184 6.28593V1.81824Z" fill="#FC0269"></path> <path fill-rule="evenodd" clip-rule="evenodd" d="M71.1785 6.21324C71.769 5.91291 72.0646 5.42953 72.0646 4.76326C72.0646 3.58384 70.923 2.99412 68.6403 2.99412C68.2253 2.99412 66.0585 3.02676 65.2602 3.09238V6.59836C65.7553 6.64193 67.8579 6.66381 68.4487 6.66381C69.678 6.66381 70.5879 6.51356 71.1785 6.21324ZM62.1016 1.86652C62.1016 1.04479 62.5787 0.547611 63.5327 0.37465C64.538 0.187221 67.1148 0.0935059 68.6653 0.0935059C73.0783 0.0935059 75.2847 1.59277 75.2847 4.59114C75.2847 5.6146 74.9952 6.47957 74.4157 7.18588C73.8366 7.89219 73.0327 8.44018 71.8723 8.71746L74.6612 11.5212C75.1618 12.0956 75.3775 13.0746 74.2821 13.615C73.3843 14.058 72.3951 13.7461 71.6721 12.8835L68.3673 9.15339C68.1459 9.18233 65.6703 9.16803 65.21 9.11032V12.4728C65.21 12.8619 65.0741 13.1791 64.8014 13.4241C64.5287 13.669 64.2415 13.7917 63.7643 13.7917C63.2703 13.7917 62.7618 13.669 62.4978 13.4241C62.2337 13.1791 62.1016 12.8619 62.1016 12.4728V1.86652Z" fill="#FC0269"></path> <path fill-rule="evenodd" clip-rule="evenodd" d="M88.5762 1.81824C88.5762 1.32157 88.7085 0.912554 88.9725 0.590693C89.237 0.269001 89.6243 0.108154 90.1345 0.108154C90.645 0.108154 91.0367 0.269001 91.3101 0.590693C91.5836 0.912554 91.7202 1.32157 91.7202 1.81824V6.14813C91.7202 7.28785 91.6018 8.31771 91.365 9.23702C91.1278 10.1565 90.745 10.9976 90.2165 11.7608C89.6882 12.5238 88.9408 13.1168 87.9748 13.5397C87.0089 13.9625 85.8606 14.1738 84.53 14.1738C81.9601 14.1738 80.1057 13.4431 78.9663 11.9813C77.8272 10.5194 77.2578 8.59347 77.2578 6.20332V1.81824C77.2578 1.32157 77.3989 0.912554 77.6814 0.590693C77.9643 0.269001 78.3606 0.108154 78.8709 0.108154C79.3994 0.108154 79.8094 0.269001 80.1011 0.590693C80.3928 0.912554 80.5385 1.32157 80.5385 1.81824V6.34128C80.5385 9.59556 81.8779 11.2227 84.5572 11.2227C87.2365 11.2227 88.5762 9.57722 88.5762 6.28593V1.81824Z" fill="#FC0269"></path> <path fill-rule="evenodd" clip-rule="evenodd" d="M23.878 14.1737C21.4497 14.1737 19.5502 13.567 18.1786 12.3536C16.8071 11.1402 16.1211 9.43935 16.1211 7.25144C16.1211 5.04485 16.8352 3.30279 18.2627 2.02477C19.6907 0.746752 21.641 0.10791 24.1141 0.10791C26.0254 0.10791 27.4755 0.365163 28.4647 0.880006C29.4313 1.37651 29.7125 1.99281 29.3078 2.72806C28.9257 3.39012 28.1838 3.67059 27.0821 3.395C25.9355 3.11923 24.655 2.89344 23.8908 2.89344C22.5866 2.89344 21.5639 3.27974 20.8216 4.05184C20.0796 4.8241 19.7088 5.89047 19.7088 7.25144C19.7088 8.53838 20.0964 9.54972 20.8724 10.285C21.648 11.0206 22.6655 11.3883 23.9245 11.3883C24.8239 11.3883 26.2277 11.1309 27.4865 10.6159C28.5659 10.1931 29.3305 10.285 29.7799 10.8917C30.2973 11.5904 30.0724 12.2614 29.1056 12.9053C27.8014 13.7509 26.0591 14.1737 23.878 14.1737Z" fill="#FC0269"></path> <path fill-rule="evenodd" clip-rule="evenodd" d="M50.4979 0.455114C50.8167 0.151929 51.2499 0 51.7964 0C52.3433 0 52.7809 0.151929 53.1089 0.455114C53.4368 0.758636 53.6009 1.16765 53.6009 1.68266C53.6009 2.21584 53.4368 2.62923 53.1089 2.9235C52.7809 3.21777 52.3433 3.36498 51.7964 3.36498C51.2499 3.36498 50.8167 3.22231 50.4979 2.93729C50.179 2.65228 50.0195 2.23401 50.0195 1.68266C50.0195 1.16765 50.179 0.758636 50.4979 0.455114Z" fill="#FC0269"></path> <path fill-rule="evenodd" clip-rule="evenodd" d="M47.1642 0.563269C46.8908 0.259747 46.5082 0.108154 46.0159 0.108154C45.5239 0.108154 45.1457 0.259747 44.8815 0.563269C44.6171 0.866454 44.4849 1.24838 44.4849 1.70787V5.44485H35.238V1.70787C35.238 1.24838 35.1014 0.866454 34.8277 0.563269C34.5546 0.259747 34.1718 0.108154 33.6795 0.108154C33.1875 0.108154 32.8092 0.259747 32.545 0.563269C32.2807 0.866454 32.1484 1.24838 32.1484 1.70787V12.2985C32.1484 12.7583 32.2807 13.1399 32.545 13.4431C32.8092 13.7466 33.1875 13.8982 33.6795 13.8982C34.1718 13.8982 34.5546 13.7466 34.8277 13.4431C35.1014 13.1399 35.238 12.7583 35.238 12.2985V8.5615H44.4849V12.2985C44.4849 12.7583 44.6171 13.1399 44.8815 13.4431C45.1457 13.7466 45.5239 13.8982 46.0159 13.8982C46.5082 13.8982 46.8908 13.7466 47.1642 13.4431C47.4379 13.1399 47.5744 12.7583 47.5744 12.2985V1.70787C47.5744 1.24838 47.4379 0.866454 47.1642 0.563269Z" fill="#FC0269"></path> <path fill-rule="evenodd" clip-rule="evenodd" d="M50.2656 6.56456C50.2656 6.1049 50.3979 5.72314 50.6622 5.41996C50.9264 5.11644 51.3045 4.96484 51.7966 4.96484C52.289 4.96484 52.6716 5.11644 52.9449 5.41996C53.2184 5.72314 53.355 6.1049 53.355 6.56456V12.2985C53.355 12.7583 53.2184 13.1399 52.9449 13.4431C52.6716 13.7466 52.289 13.8982 51.7966 13.8982C51.3045 13.8982 50.9264 13.7466 50.6622 13.4431C50.3979 13.1399 50.2656 12.7583 50.2656 12.2985V6.56456Z" fill="#FC0269"></path> <path fill-rule="evenodd" clip-rule="evenodd" d="M56.3182 10.6297C56.6556 10.253 57.1155 10.0642 57.6989 10.0642C58.2822 10.0642 58.747 10.253 59.0932 10.6297C59.4394 11.0067 59.6127 11.4619 59.6127 11.995C59.6127 12.5467 59.4441 13.0015 59.1067 13.36C58.7698 13.7186 58.3003 13.8979 57.6989 13.8979C57.0974 13.8979 56.6327 13.7186 56.3045 13.36C55.9764 13.0015 55.8125 12.5467 55.8125 11.995C55.8125 11.4619 55.9811 11.0067 56.3182 10.6297Z" fill="#FC0269"></path> </g> <defs> <clipPath id="clip0_295_458"> <rect width="92" height="14.2759" fill="white"></rect> </clipPath> </defs> </svg> 