<?xml version="1.0" encoding="UTF-8"?> <svg xmlns="http://www.w3.org/2000/svg" width="138" height="60" viewBox="0 0 138 60" fill="none"> <path d="M0 30C0 13.4315 13.4315 0 30 0H108C124.569 0 138 13.4315 138 30V30C138 46.5685 124.569 60 108 60H30C13.4315 60 0 46.5685 0 30V30Z" fill="#0077FF"></path> <path d="M69.9737 40C58.6988 40 52.268 32.4925 52 20H57.6477C57.8332 29.1692 61.9968 33.0531 65.2947 33.8539V20H70.6128V27.9079C73.8696 27.5676 77.2908 23.964 78.445 20H83.7631C82.8767 24.8849 79.1666 28.4885 76.5282 29.97C79.1666 31.1712 83.3923 34.3143 85 40H79.146C77.8886 36.1962 74.7559 33.2533 70.6128 32.8529V40H69.9737Z" fill="white"></path> </svg> 