<?xml version="1.0" encoding="UTF-8"?> <svg xmlns="http://www.w3.org/2000/svg" width="139" height="60" viewBox="0 0 139 60" fill="none"> <path d="M0 30C0 13.4315 13.4315 0 30 0H109C125.569 0 139 13.4315 139 30C139 46.5685 125.569 60 109 60H30C13.4315 60 0 46.5685 0 30Z" fill="#2AABEE"></path> <path fill-rule="evenodd" clip-rule="evenodd" d="M54.9936 28.3318C62.7782 24.9449 67.9692 22.712 70.5665 21.6332C77.9823 18.5529 79.5233 18.0179 80.5276 18.0002C80.7485 17.9963 81.2425 18.051 81.5624 18.3102C81.8326 18.5291 81.9069 18.8248 81.9425 19.0324C81.978 19.2399 82.0223 19.7127 81.9871 20.0822C81.5852 24.2988 79.8464 34.5315 78.9617 39.2541C78.5874 41.2525 77.8503 41.9225 77.1368 41.9881C75.5861 42.1306 74.4085 40.9647 72.9066 39.9815C70.5563 38.443 69.2286 37.4853 66.9472 35.984C64.3108 34.249 66.0199 33.2954 67.5224 31.737C67.9156 31.3291 74.7481 25.123 74.8804 24.56C74.8969 24.4896 74.9123 24.2271 74.7561 24.0886C74.6 23.95 74.3695 23.9974 74.2032 24.0351C73.9675 24.0885 70.213 26.5667 62.9396 31.4697C61.8738 32.2005 60.9085 32.5565 60.0437 32.5379C59.0902 32.5173 57.2562 31.9995 55.8927 31.5569C54.2204 31.0141 52.8913 30.7271 53.007 29.8051C53.0673 29.3249 53.7295 28.8338 54.9936 28.3318Z" fill="white"></path> </svg> 