<?xml version="1.0" encoding="UTF-8"?> <svg xmlns="http://www.w3.org/2000/svg" width="48" height="48" viewBox="0 0 48 48" fill="none"> <path fill-rule="evenodd" clip-rule="evenodd" d="M24.0002 26.8286L10.8286 40.0002C10.0475 40.7812 8.7812 40.7812 8.00015 40.0002V40.0002C7.2191 39.2191 7.2191 37.9528 8.00015 37.1717L21.1717 24.0002L8.00015 10.8286C7.2191 10.0475 7.2191 8.7812 8.00015 8.00015V8.00015C8.7812 7.2191 10.0475 7.2191 10.8286 8.00015L24.0002 21.1717L37.1717 8.00015C37.9528 7.2191 39.2191 7.2191 40.0002 8.00015V8.00015C40.7812 8.7812 40.7812 10.0475 40.0002 10.8286L26.8286 24.0002L40.0002 37.1717C40.7812 37.9528 40.7812 39.2191 40.0002 40.0002V40.0002C39.2191 40.7812 37.9528 40.7812 37.1717 40.0002L24.0002 26.8286Z" fill="white" fill-opacity="0.5"></path> </svg> 