<?xml version="1.0" encoding="UTF-8"?> <svg xmlns="http://www.w3.org/2000/svg" width="218" height="62" viewBox="0 0 218 62" fill="none"> <path fill-rule="evenodd" clip-rule="evenodd" d="M21.4102 7.36955C21.4291 7.4145 21.448 7.45868 21.4669 7.49743C21.8069 8.20578 22.4286 8.89088 22.4286 8.89088L22.4404 8.88313L22.442 8.88468C22.442 8.88468 22.5309 8.81803 22.7127 8.71728C22.7741 8.68318 22.8457 8.64598 22.9284 8.6049C23.1251 8.5088 23.3801 8.39798 23.6973 8.28793C24.4465 8.0283 25.4444 7.94693 25.4444 7.94693C25.4444 7.94693 24.515 6.6798 24.3403 4.85003C24.2411 3.81308 24.282 3.26903 24.293 3.23725C24.2301 3.23338 24.1679 3.22795 24.1042 3.22795C23.427 3.2271 22.77 3.45435 22.2421 3.87198L22.2043 3.90143C21.8685 4.17387 21.5981 4.51612 21.4126 4.90362C21.227 5.29113 21.1308 5.71428 21.1309 6.14273C21.1309 6.39383 21.1671 6.6364 21.2277 6.8689C21.2765 7.01693 21.3426 7.20758 21.4102 7.36955V7.36955ZM26.6155 7.62143C26.8044 7.82138 26.9948 7.9105 27.1664 7.9105H27.2105C27.382 7.9105 27.5725 7.82138 27.7614 7.62143C28.1785 7.22618 28.6176 6.55735 28.9143 5.74825C29.3417 4.57568 29.2173 3.58445 28.7176 3.1148C28.4705 2.89625 28.1667 2.75055 27.8314 2.7025C27.7216 2.69047 27.6113 2.68349 27.5009 2.68158C27.7871 2.61212 28.0415 2.45045 28.2238 2.22228C28.406 1.9941 28.5056 1.71249 28.5067 1.4222C28.5067 0.701452 27.9117 0.118652 27.1766 0.118652C26.4423 0.118652 25.8474 0.702227 25.8474 1.4222C25.8484 1.71228 25.9477 1.99373 26.1296 2.22188C26.3116 2.45003 26.5657 2.61182 26.8516 2.68158C26.7398 2.68545 26.6234 2.69165 26.5454 2.7025C26.2151 2.75088 25.9067 2.89463 25.6593 3.11558C25.1603 3.58523 25.0352 4.57568 25.4625 5.74825C25.7592 6.55735 26.1984 7.22618 26.6155 7.62143ZM39.3043 16.2472C39.6089 16.7199 39.594 17.312 39.594 17.312C39.5987 17.3136 40.2078 17.4167 40.51 17.7119C40.51 17.7119 40.5573 17.6662 40.5636 17.6577C40.9759 17.1609 41.7354 16.3464 41.9542 15.1637C42.1321 14.2004 42.0171 12.8511 41.8094 12.4202C41.8015 12.4047 41.7952 12.3815 41.7873 12.3675C41.9841 12.1436 42.3099 11.6251 43.2102 11.6251C43.5408 11.6251 43.8343 11.7134 44.0736 11.825C44.4687 12.011 44.7111 12.2567 44.7111 12.2567C44.7111 12.2567 43.9359 13.6114 43.529 14.2562C43.3212 14.5864 43.1701 14.8429 42.7522 15.7458C42.4044 16.4983 42.3107 16.9974 42.3705 17.536C42.4217 17.9894 42.6664 18.8543 42.7719 19.7238C42.9749 21.3909 42.6397 22.2046 42.6397 22.2046L42.6601 22.1914L42.6523 22.2108C42.6523 22.2108 44.6686 20.9065 45.9427 17.9917C45.938 17.9917 45.9341 17.9894 45.9286 17.9886L45.9301 17.9855C45.7239 17.9511 45.5238 17.8877 45.3359 17.7972C45.1685 17.7109 45.0097 17.6095 44.8614 17.4942C43.7336 16.6494 43.9878 15.7504 44.3545 15.3265C44.4592 15.2064 44.567 15.0893 44.6796 14.9723C44.9629 14.6755 45.2698 14.3763 45.5909 14.009C45.9986 13.544 46.1458 13.079 46.1977 12.6682C46.2158 12.5272 46.2355 12.3854 46.2355 12.2389C46.2355 11.0136 45.6295 10.1789 44.8567 9.76043C44.6048 9.62218 44.331 9.5268 44.0468 9.47833C43.1827 9.33185 42.125 9.65115 41.3513 10.1673C41.057 10.3634 40.5714 10.8005 40.4353 11.1291C40.2661 11.956 40.5179 12.1653 40.7737 13.0201C40.7784 13.0364 40.7894 13.0495 40.7949 13.0666C41.3246 14.9669 41.0523 15.886 39.3043 16.2472V16.2472ZM30.6512 14.5507C30.8795 15.0242 31.295 15.483 31.295 15.483L31.2997 15.4799L31.3603 15.5412C31.3603 15.5412 31.5886 15.3451 32.1883 15.1165C32.6841 14.9281 33.3176 14.8615 33.3176 14.8615C33.3176 14.8615 32.6959 14.0136 32.5778 12.7884C32.5109 12.0792 32.5408 11.7111 32.5479 11.7057L32.5338 11.7049L32.5345 11.6995C32.2118 11.6528 31.8822 11.7045 31.5901 11.8475C31.3947 11.9519 31.2115 12.0772 31.044 12.2211C30.7764 12.4551 30.5962 12.7171 30.5269 12.9984C30.4167 13.2975 30.3774 13.6285 30.4427 13.9702C30.4482 13.9997 30.5568 14.3531 30.6512 14.5507V14.5507ZM33.4113 13.2952C33.6804 14.0299 34.1251 14.646 34.469 14.7755C34.5166 14.7966 34.5679 14.8084 34.6201 14.8103C34.9758 14.7693 35.4465 14.0663 35.6747 13.2061C35.8872 12.4009 35.7432 11.7274 35.3835 11.4422C35.2132 11.3194 35.0185 11.2333 34.8121 11.1895C34.7956 11.1857 34.7799 11.1795 34.7633 11.174C35.0577 11.033 35.2568 10.7152 35.2403 10.3518C35.2353 10.1851 35.1816 10.0234 35.0857 9.88592C34.9898 9.74848 34.8558 9.64115 34.6996 9.57675C34.5942 9.53273 34.4802 9.51234 34.3659 9.51708C33.9118 9.53723 33.5608 9.94023 33.5828 10.4184C33.6001 10.7819 33.8284 11.0818 34.1353 11.1965C33.915 11.2538 33.7118 11.3622 33.5427 11.5127C33.2082 11.8274 33.1248 12.5109 33.4113 13.2952V13.2952ZM35.84 14.7956C35.84 14.7956 36.9001 14.8034 37.9586 15.2095C37.9775 15.2164 37.9901 15.2265 38.0082 15.2343C38.1498 15.0576 38.3552 14.7778 38.4929 14.491C38.5874 14.2942 38.696 13.9408 38.7015 13.9113C38.763 13.5856 38.7339 13.2495 38.6173 12.9387C38.548 12.6582 38.3686 12.3962 38.1002 12.1614C37.9328 12.0179 37.7499 11.8929 37.5548 11.7886L37.547 11.7855L37.5415 11.7824C37.2493 11.6395 36.9198 11.5879 36.5971 11.6344C36.6033 11.6398 36.634 12.0072 36.5656 12.7171C36.4491 13.9416 35.8274 14.7894 35.8274 14.7894L35.8431 14.791L35.84 14.7956V14.7956ZM28.9332 7.94693C28.9332 7.94693 29.9303 8.0283 30.6804 8.28793C30.9967 8.39798 31.2517 8.5088 31.4485 8.60568C31.5311 8.64598 31.6027 8.68318 31.6641 8.71728C31.8451 8.81803 31.9356 8.88468 31.9356 8.88468L31.9372 8.88235L31.9482 8.8901C31.9482 8.8901 32.57 8.20578 32.9099 7.49743C32.9288 7.45868 32.9477 7.4145 32.9666 7.36955C33.0338 7.20497 33.0947 7.03797 33.1492 6.8689C33.2098 6.6364 33.246 6.39383 33.246 6.14273C33.246 5.2414 32.8289 4.43618 32.1725 3.90143L32.1347 3.87198C31.6069 3.45435 30.9498 3.2271 30.2727 3.22795C30.2089 3.22795 30.1468 3.23338 30.0838 3.23725C30.0948 3.26825 30.1365 3.81308 30.0366 4.84925C29.8619 6.6798 28.9332 7.94693 28.9332 7.94693" fill="white"></path> <path fill-rule="evenodd" clip-rule="evenodd" d="M29.5925 10.7612C29.5925 10.7612 29.7081 11.3324 29.7782 11.5881C29.8025 11.588 29.8267 11.5901 29.8506 11.5943C30.2937 11.4199 31.1633 11.165 31.1633 10.8798V9.96836C31.1633 9.80328 30.9933 9.64828 30.6927 9.51266C30.0796 9.23211 28.9298 9.03758 27.6234 9.01356L26.8639 9.01123C25.515 9.02596 24.3046 9.22358 23.6734 9.51266C23.3728 9.64828 23.1973 9.80328 23.1973 9.96836V10.8798C23.1973 11.165 24.0756 11.4199 24.5194 11.5943C24.5194 11.5912 24.5903 11.5873 24.5942 11.5881C24.665 11.3324 24.7831 10.7612 24.7831 10.7612C24.7831 10.7612 24.6886 10.724 24.6705 10.686C24.6154 10.5713 24.7146 10.5054 24.8791 10.4148C25.042 10.3272 25.3119 10.2753 25.5418 10.2667C25.6811 10.7666 25.7007 11.5517 25.6708 12.2252C25.611 13.576 25.3497 15.2725 24.5336 16.4264C24.8445 16.7217 25.1868 17.1053 25.5378 17.5967C26.3846 16.0048 26.5176 14.2634 26.5885 12.4685C26.6199 11.678 26.5877 10.7534 26.5885 10.121C26.6672 10.1203 26.93 10.0893 27.1913 10.0893C27.451 10.0893 27.7107 10.1203 27.7894 10.121C27.7902 10.7534 27.758 11.6788 27.7894 12.4693C27.861 14.2952 27.9941 16.0676 28.8834 17.6835C29.2053 17.2216 29.5208 16.8504 29.8136 16.5574L29.8742 16.4729C29.0321 15.3182 28.7677 13.5938 28.7071 12.2252C28.6772 11.5509 28.6968 10.7666 28.8361 10.2667C29.066 10.2745 29.3351 10.3272 29.4988 10.4155C29.6625 10.5054 29.7609 10.5713 29.7066 10.686C29.6885 10.724 29.5925 10.7612 29.5925 10.7612V10.7612ZM41.0103 23.5169C41.0056 23.5154 41.0024 23.5115 40.9977 23.5107C40.9851 23.5084 40.9725 23.5053 40.9591 23.5061L40.9379 23.5076L40.7986 23.5216C40.3138 23.551 39.8432 23.5154 39.4536 23.3666C39.2333 23.2953 39.0436 23.1728 38.8586 23.0449C38.6489 22.866 38.4408 22.6852 38.2345 22.5024C37.8772 22.1754 37.2036 21.6949 36.5055 21.6275C35.7193 21.5507 35.218 21.8328 34.6545 22.0506C34.6274 22.0611 34.604 22.0789 34.5867 22.1019C34.5695 22.1249 34.5591 22.1523 34.5569 22.1808C34.5552 22.2115 34.5631 22.2419 34.5796 22.268C34.5961 22.294 34.6203 22.3145 34.649 22.3265C34.6689 22.338 34.6912 22.3449 34.7143 22.3467C35.2715 22.3854 35.8027 22.4784 36.3072 22.6241C36.681 22.7349 37.0517 22.8527 37.346 23.0581C37.7316 23.3263 38.0645 23.6688 38.2865 23.806C38.5745 23.985 38.8295 24.1578 39.1601 24.2229C39.5063 24.2803 39.8684 24.2563 40.2068 24.1702L40.2508 24.1571C40.3414 24.1354 40.4271 24.102 40.5137 24.0703C40.6318 24.0238 40.7459 23.9726 40.8521 23.9114L40.8647 23.9036C40.934 23.8641 41.0064 23.8308 41.0717 23.7835L41.078 23.7804C41.1016 23.763 41.1195 23.7392 41.1293 23.7118C41.1392 23.6845 41.1407 23.6549 41.1335 23.6267C41.1264 23.5986 41.111 23.5732 41.0892 23.5536C41.0674 23.5341 41.0402 23.5213 41.0111 23.5169" fill="white"></path> <path fill-rule="evenodd" clip-rule="evenodd" d="M38.8499 18.4267C38.8853 18.536 39.0041 18.6514 39.1371 18.7274C39.5574 18.9669 39.7069 19.3179 39.0781 19.3908C38.6201 19.4435 38.1416 19.1443 36.4487 19.6C35.4555 19.8674 34.2845 20.8509 33.8784 21.3027C33.7525 21.4438 33.6226 21.605 33.5022 21.777C33.1087 22.3327 33.1134 23.0813 33.5376 23.6145C33.791 23.9323 34.0728 24.1384 34.1554 24.1927C35.6429 25.18 37.0382 24.3624 37.1901 24.2136C37.3121 24.0943 37.3192 24.047 37.2956 24.016C37.2932 24.0121 37.2885 24.0129 37.2861 24.0098C37.2851 24.0104 37.2841 24.011 37.283 24.0113V24.0098C37.2806 24.0059 36.8108 24.2539 36.1513 24.2539C35.7774 24.2539 35.3942 24.1896 35.077 24.0501C34.844 23.9462 34.3057 23.6641 33.9894 23.1666C33.8913 23.0077 33.8469 22.8224 33.8623 22.6371C33.8777 22.4518 33.9522 22.2761 34.0751 22.1351C34.3222 21.8456 34.6027 21.5856 34.9109 21.3601C35.5484 20.8997 36.2811 20.6223 37.1311 20.6099C37.1515 20.6099 37.172 20.6068 37.1925 20.6068C37.6198 20.6068 38.029 20.6796 38.4147 20.8036C39.1905 21.0535 39.8684 21.5344 40.3546 22.18L40.357 22.1754L40.3672 22.1862C40.5065 21.9545 40.6631 21.6073 40.7962 21.1198C40.8198 21.0346 40.8426 20.947 40.8638 20.8524C41.0527 20.0356 40.9976 18.1399 39.1584 18.1399C39.1253 18.1399 39.0907 18.1554 39.0569 18.1632C38.8609 18.2143 38.8145 18.3174 38.8499 18.4267V18.4267ZM8.62424 14.0092C8.94691 14.3765 9.25305 14.6757 9.53716 14.9725C9.64892 15.0895 9.75674 15.2066 9.86141 15.3267C10.2282 15.7498 10.4831 16.6488 9.35458 17.4944C9.19718 17.6122 9.04765 17.7137 8.88001 17.7966C8.69221 17.8875 8.49209 17.9511 8.28583 17.9857L8.2874 17.9888L8.27323 17.9919C9.54739 20.9059 11.5629 22.211 11.5629 22.211L11.5558 22.1916L11.5763 22.2048C11.5763 22.2048 11.241 21.3911 11.4441 19.724C11.5495 18.8545 11.7951 17.9896 11.8454 17.537C11.9053 16.9976 11.8116 16.4985 11.4637 15.7467C11.0466 14.8431 10.8947 14.5866 10.687 14.2564C10.2809 13.6116 9.50489 12.2569 9.50489 12.2569C9.50489 12.2569 9.74729 12.012 10.1424 11.8252C10.4118 11.6965 10.707 11.6282 11.0065 11.6253C11.9068 11.6253 12.2319 12.1445 12.4278 12.3677C12.42 12.3809 12.4144 12.4042 12.4066 12.4197C12.1988 12.8513 12.0839 14.2006 12.2626 15.1632C12.4806 16.3466 13.24 17.1611 13.6524 17.6587L13.7059 17.7129C14.0073 17.4169 14.6173 17.3138 14.622 17.3122C14.622 17.3122 14.6063 16.7209 14.9116 16.2474C13.1637 15.8862 12.8914 14.9671 13.4218 13.0676C13.4265 13.0497 13.4376 13.0366 13.4423 13.0195C13.698 12.1655 13.9499 11.9562 13.7807 11.1293C13.6445 10.8007 13.159 10.3636 12.8646 10.1675C12.0918 9.65137 11.0333 9.33207 10.1691 9.47854C9.88496 9.52695 9.61116 9.62232 9.3593 9.76064C8.58646 10.1791 7.98047 11.0138 7.98047 12.2391C7.98047 12.3863 8.00014 12.5274 8.01824 12.6684C8.0694 13.0792 8.21736 13.5442 8.62424 14.0092V14.0092ZM20.8983 14.8617C20.8983 14.8617 21.5319 14.9283 22.0277 15.1167C22.6274 15.3453 22.8556 15.5414 22.8556 15.5414L22.9162 15.4794C22.9178 15.4807 22.9194 15.482 22.9209 15.4832C22.9209 15.4832 23.3381 15.0244 23.5647 14.5509C23.6592 14.3533 23.7678 14.0007 23.7733 13.9704C23.8347 13.6449 23.8056 13.3091 23.6891 12.9986C23.6198 12.718 23.4396 12.4553 23.172 12.2213C23.0047 12.0774 22.8218 11.9521 22.6266 11.8477C22.3342 11.7049 22.0044 11.6535 21.6814 11.7005V11.7051L21.668 11.7059C21.6751 11.7121 21.705 12.0794 21.6373 12.7886C21.5209 14.0131 20.8983 14.8617 20.8983 14.8617ZM19.5951 14.8105H19.5959C19.6431 14.8105 19.6942 14.7974 19.747 14.7757C20.0909 14.6462 20.5355 14.0301 20.8055 13.2954C21.0912 12.5111 21.0077 11.8276 20.6733 11.5129C20.5042 11.3624 20.301 11.2539 20.0806 11.1967C20.3876 11.082 20.6158 10.7821 20.6331 10.4186C20.6552 9.94044 20.3042 9.53744 19.8501 9.51729C19.7357 9.51253 19.6217 9.53292 19.5164 9.57697C19.3603 9.64148 19.2264 9.74886 19.1307 9.88629C19.035 10.0237 18.9814 10.1854 18.9765 10.352C18.9592 10.7154 19.1575 11.0332 19.4526 11.175C19.4369 11.1797 19.4211 11.1859 19.4038 11.1897C19.1976 11.2338 19.0029 11.3199 18.8325 11.4424C18.4728 11.7276 18.328 12.4011 18.5413 13.2063C18.7695 14.0665 19.2401 14.7695 19.5959 14.8105H19.5951ZM15.723 14.4912C15.8607 14.778 16.0661 15.057 16.2078 15.2352C16.2259 15.2267 16.2393 15.2166 16.2574 15.2097C16.9363 14.9601 17.6517 14.8203 18.376 14.7958L18.3729 14.7912L18.3886 14.7896C18.3886 14.7896 17.7669 13.9418 17.6504 12.7173C17.5827 12.0074 17.6126 11.64 17.6189 11.6346C17.2962 11.5879 16.9667 11.6393 16.6745 11.7818L16.669 11.7857L16.6611 11.7888C16.4661 11.8928 16.2832 12.0176 16.1157 12.1608C15.8481 12.3956 15.6679 12.6584 15.5987 12.9389C15.482 13.2497 15.4529 13.5858 15.5145 13.9115C15.52 13.941 15.6286 14.2944 15.723 14.4912V14.4912ZM19.503 22.3466C19.5258 22.3448 19.5478 22.3379 19.5675 22.3265C19.5962 22.3144 19.6204 22.294 19.6369 22.2679C19.6534 22.2419 19.6613 22.2114 19.6596 22.1808C19.6573 22.1524 19.6471 22.1251 19.63 22.1022C19.6129 22.0792 19.5896 22.0613 19.5628 22.0506C18.9985 21.8336 18.4972 21.5507 17.711 21.6274C17.0137 21.6949 16.3392 22.1754 15.9819 22.5032C15.7757 22.686 15.5676 22.8668 15.3578 23.0457C15.1729 23.1736 14.9832 23.2952 14.7629 23.3665C14.3733 23.5153 13.9027 23.551 13.4179 23.5215L13.2794 23.5076L13.2573 23.506C13.2439 23.5053 13.2314 23.5084 13.218 23.5107C13.214 23.5107 13.2109 23.5153 13.207 23.5169H13.2062C13.1734 23.5218 13.1431 23.5373 13.1203 23.561C13.0975 23.5848 13.0834 23.6153 13.0803 23.6479C13.0778 23.6729 13.0819 23.6981 13.092 23.7212C13.1022 23.7442 13.1182 23.7643 13.1385 23.7796L13.1448 23.7835C13.2093 23.8308 13.2825 23.8641 13.3518 23.9036L13.3651 23.9114C13.4714 23.9726 13.5855 24.0245 13.7036 24.0702C13.7901 24.102 13.8751 24.1353 13.9656 24.157L14.0105 24.1702C14.3489 24.2562 14.7101 24.2803 15.0572 24.2229C15.3877 24.1578 15.6419 23.985 15.93 23.806C16.1519 23.6688 16.4848 23.3262 16.8712 23.0573C17.164 22.8527 17.5355 22.7349 17.9101 22.6241C18.4295 22.4758 18.9635 22.3828 19.503 22.3466" fill="white"></path> <path fill-rule="evenodd" clip-rule="evenodd" d="M13.3522 20.8521C13.3735 20.9467 13.3971 21.0335 13.4207 21.1195C13.5529 21.607 13.7095 21.9542 13.8488 22.1859L13.8583 22.1751L13.8614 22.1797C14.3478 21.5339 15.026 21.0529 15.8021 20.8033C16.1878 20.6793 16.5962 20.6065 17.0236 20.6065C17.044 20.6065 17.0645 20.6088 17.085 20.6096C17.9349 20.622 18.6668 20.8994 19.3051 21.3598C19.5884 21.5644 19.8914 21.841 20.1409 22.1348C20.3896 22.4269 20.4321 22.8431 20.2275 23.1655C19.9103 23.6638 19.372 23.9459 19.139 24.049C18.8219 24.1893 18.4386 24.2536 18.0648 24.2536C17.4053 24.2536 16.9362 24.0056 16.9331 24.0095V24.011L16.9307 24.0095C16.9276 24.0126 16.9228 24.0118 16.9205 24.0157C16.8969 24.0467 16.9047 24.0932 17.0259 24.2133C17.1778 24.3621 18.574 25.1797 20.0606 24.1924C20.2937 24.03 20.5018 23.8352 20.6784 23.6142C21.1034 23.081 21.1073 22.3324 20.7138 21.7767C20.5978 21.6116 20.4722 21.4533 20.3377 21.3024C19.9316 20.8506 18.7613 19.8671 17.7673 19.5997C16.0737 19.144 15.5967 19.4432 15.1387 19.3905C14.5091 19.3176 14.6586 18.9666 15.0789 18.7271C15.2127 18.6511 15.3307 18.5357 15.3661 18.4264C15.4016 18.3171 15.3551 18.214 15.1592 18.1629C15.1253 18.1551 15.0915 18.1396 15.0569 18.1396C13.2184 18.1396 13.1633 20.0353 13.3522 20.8521V20.8521ZM35.7259 48.6615L35.7291 48.6808H35.7401C35.7346 48.6739 35.7322 48.6677 35.7259 48.6615ZM28.1526 30.2823C28.2148 30.4017 28.4548 30.5923 28.5067 30.9581C28.513 30.9969 29.4354 29.9995 29.4354 29.9995V29.0408L28.4509 29.4477L28.1518 30.2823H28.1526ZM22.1454 55.4404C22.5802 55.3255 23.0084 55.1876 23.4282 55.0273C23.6407 54.9459 23.8548 54.8545 24.0673 54.7483C24.2813 54.6421 24.493 54.5212 24.6992 54.3786C24.9023 54.2391 25.0904 54.0632 25.2501 53.8648C25.3312 53.7652 25.4004 53.6568 25.4563 53.5416C25.4839 53.4796 25.5146 53.4169 25.535 53.3595L25.5744 53.2022L25.5767 53.196C25.6098 53.1821 25.6388 53.1602 25.661 53.1323C25.6832 53.1044 25.6978 53.0714 25.7034 53.0364C25.7091 53.0014 25.7056 52.9656 25.6934 52.9323C25.6812 52.8989 25.6605 52.8692 25.6335 52.8459C25.6064 52.8226 25.5737 52.8064 25.5385 52.7989C25.5034 52.7914 25.4669 52.7928 25.4324 52.803C25.3979 52.8132 25.3667 52.8319 25.3415 52.8573C25.3164 52.8826 25.2982 52.9138 25.2887 52.948C25.2496 52.9596 25.2146 52.9819 25.188 53.0123C25.0665 53.153 24.9191 53.2697 24.7535 53.3564C24.5952 53.4352 24.4297 53.4992 24.2593 53.5478C23.9004 53.6501 23.5046 53.7028 23.1008 53.754C22.7018 53.8044 22.2682 53.8478 21.8723 53.8857C21.4749 53.9214 21.0696 53.9408 20.6595 53.9555L19.3869 53.9958C18.9454 54.019 18.485 54.0415 17.957 54.1609C17.7374 54.2086 17.5235 54.2787 17.3187 54.3701C17.2439 54.4042 17.1692 54.4422 17.0936 54.4879C16.8048 54.6646 16.516 54.9514 16.3743 55.2854C16.2398 55.5817 16.2021 55.9118 16.2665 56.2301C16.3334 56.5122 16.4499 56.7556 16.6568 56.9671C16.6963 57.0069 16.747 57.0339 16.8024 57.0447C16.8577 57.0555 16.9151 57.0495 16.9669 57.0276C17.0119 57.002 17.0541 56.9719 17.0928 56.9377C17.4596 56.358 18.2442 56.0464 18.3969 56.0108C19.0304 55.8659 19.9363 55.8263 20.8083 55.7008C21.2521 55.6372 21.6984 55.5559 22.1462 55.4404H22.1454ZM18.1553 53.0394C18.1527 53.0786 18.1614 53.1177 18.1804 53.1522C18.1993 53.1867 18.2277 53.2153 18.2623 53.2347C18.2969 53.2541 18.3364 53.2635 18.3762 53.2619C18.416 53.2602 18.4545 53.2476 18.4874 53.2254L18.4937 53.2216C18.4961 53.22 18.4984 53.2208 18.4984 53.2208L18.5677 53.1751C18.6684 53.1084 18.7707 53.0526 18.873 53.0069C19.1855 52.8674 19.5026 52.8162 19.8127 52.81C20.2408 52.7976 20.6745 52.8488 21.1742 52.9356C21.747 53.0381 22.3306 53.0689 22.9112 53.027C23.2102 53.0053 23.5124 52.9495 23.8194 52.8674C23.9728 52.817 24.1294 52.7666 24.2868 52.6853L24.29 52.6829L24.3002 52.6791C24.4458 52.5977 24.6496 52.4946 24.752 52.2745C24.7629 52.2509 24.7683 52.2251 24.7676 52.1991C24.7669 52.1731 24.7602 52.1477 24.7479 52.1246C24.7357 52.1016 24.7183 52.0816 24.697 52.0662C24.6758 52.0508 24.6512 52.0404 24.6252 52.0358C24.6252 52.0358 24.0263 51.9258 23.7824 51.8576L23.0213 51.6654C22.4996 51.5373 21.9733 51.4282 21.4434 51.3383C20.85 51.2383 20.1448 51.243 19.4869 51.4933C19.4043 51.5251 19.3216 51.5615 19.2414 51.6034C18.6818 51.8847 18.2001 52.3939 18.1553 53.0394V53.0394ZM19.0147 50.9756C19.0415 50.9679 19.3917 50.8454 19.5569 50.7919L19.5522 50.7904C19.5585 50.7881 17.495 50.058 18.6661 48.7545L18.6708 48.7041C18.6668 48.7087 18.6645 48.6948 18.6613 48.6994C18.4631 48.6711 18.2607 48.6948 18.0748 48.7683C17.8889 48.8418 17.7261 48.9624 17.6028 49.1179C17.0417 49.7999 17.8106 50.5393 17.831 50.5532C17.7161 50.5455 17.4407 50.5044 17.3258 50.4928C16.8268 50.158 16.0005 49.3342 17.1865 47.5912C16.9866 47.5661 16.7835 47.5956 16.5994 47.6764C16.5065 47.7059 16.4184 47.7423 16.3334 47.7834C15.7502 48.0624 15.352 48.6033 15.352 49.2311C15.352 49.4868 15.4228 49.7271 15.5409 49.9433C15.6259 50.1006 15.7408 50.2417 15.8753 50.3657C15.7872 50.3579 15.4094 50.3355 15.3197 50.3091C14.7759 49.6969 14.1754 48.5506 15.3339 47.2091C15.1339 47.184 14.9308 47.2135 14.7468 47.2944C14.6451 47.3307 14.5468 47.3758 14.4532 47.4292C13.8126 47.7888 13.4994 48.4755 13.4994 49.0428C13.4994 49.2985 13.5938 49.717 13.6883 49.9433C14.4493 51.7684 18.0427 51.2151 19.0147 50.9756V50.9756ZM37.2897 54.4879C37.217 54.4445 37.1418 54.4052 37.0646 54.3701C36.8596 54.2787 36.6454 54.2085 36.4256 54.1609C35.8983 54.0415 35.4379 54.019 34.9956 53.9958L33.7238 53.9555C33.3192 53.9431 32.9151 53.9198 32.5118 53.8857C32.1014 53.8477 31.6916 53.8037 31.2825 53.754C30.878 53.7036 30.4829 53.6501 30.124 53.5478C29.9534 53.4992 29.7877 53.4351 29.629 53.3564C29.4634 53.2698 29.316 53.153 29.1946 53.0123C29.1679 52.9819 29.1329 52.9596 29.0939 52.948C29.0529 52.9315 29.0078 52.928 28.9648 52.9379C28.9371 52.9445 28.911 52.9565 28.8881 52.9731C28.8651 52.9896 28.8457 53.0105 28.8309 53.0345C28.8161 53.0584 28.8063 53.085 28.802 53.1128C28.7977 53.1405 28.799 53.1688 28.8058 53.196L28.8082 53.2022L28.8475 53.3595C28.868 53.4169 28.8987 53.4804 28.9262 53.5416C28.9852 53.6579 29.0506 53.7664 29.1324 53.8648C29.293 54.0632 29.4811 54.2391 29.6833 54.3786C29.8903 54.5212 30.102 54.6421 30.3161 54.7491C30.5286 54.8545 30.7418 54.9459 30.9551 55.0273C31.3864 55.1901 31.7917 55.3241 32.2379 55.4404C32.6849 55.5559 33.1312 55.6372 33.5743 55.7008C34.447 55.8263 35.3529 55.8659 35.9856 56.0108C36.1391 56.0464 36.9237 56.358 37.2897 56.9377C37.2897 56.9377 37.3802 57.0152 37.4156 57.0276C37.5195 57.071 37.6439 57.0516 37.7265 56.9671C37.9327 56.7556 38.05 56.5122 38.1168 56.2301C38.1743 55.9496 38.157 55.6179 38.009 55.2846C37.8674 54.9514 37.5785 54.6646 37.2897 54.4879V54.4879ZM30.0831 52.6791L30.091 52.6822L30.0949 52.6845C30.2539 52.7666 30.4097 52.8162 30.5632 52.8674C30.8701 52.9488 31.1731 53.0053 31.4722 53.027C32.0624 53.0735 32.67 53.0309 33.2091 52.9356C33.7088 52.848 34.1425 52.7976 34.5706 52.81C34.8815 52.8162 35.1971 52.8666 35.5103 53.0069C35.6126 53.0534 35.7149 53.1076 35.8156 53.1751L35.8833 53.22H35.8873L35.8959 53.2262C35.9337 53.251 35.9801 53.265 36.0297 53.2611C36.0856 53.2573 36.1377 53.2319 36.1746 53.1903C36.2115 53.1488 36.2301 53.0945 36.2265 53.0394C36.1832 52.3931 35.7015 51.8847 35.142 51.6034C35.0622 51.5625 34.9803 51.526 34.8964 51.4941C34.2385 51.243 33.5333 51.2383 32.9399 51.3391C32.3812 51.4313 31.8838 51.5406 31.362 51.6646L30.601 51.8568C30.357 51.9258 29.7589 52.0358 29.7589 52.0358C29.7329 52.0404 29.7083 52.0508 29.6871 52.0662C29.6658 52.0816 29.6484 52.1016 29.6362 52.1246C29.6239 52.1477 29.6172 52.1731 29.6165 52.1991C29.6158 52.2251 29.6212 52.2509 29.6322 52.2745C29.7337 52.4946 29.9375 52.5977 30.0831 52.6791V52.6791ZM39.9293 47.43C39.836 47.3766 39.738 47.3315 39.6366 47.2951C39.4525 47.2142 39.2494 47.1847 39.0494 47.2099C40.2079 48.5506 39.6074 49.6976 39.0636 50.3099C38.9739 50.3355 38.5961 50.3587 38.508 50.3657C38.6418 50.2417 38.7567 50.1006 38.8425 49.9433C38.9605 49.7263 39.0313 49.4876 39.0313 49.2311C39.0313 48.6033 38.6331 48.0624 38.0492 47.7834C37.9635 47.7415 37.8748 47.7058 37.7839 47.6764C37.5998 47.5957 37.3968 47.5662 37.1968 47.5912C38.3829 49.3349 37.5557 50.158 37.0575 50.4928C36.9426 50.5044 36.6672 50.5455 36.5515 50.5532C36.5727 50.5393 37.3409 49.7999 36.7805 49.1187C36.6571 48.9632 36.4941 48.8425 36.3081 48.769C36.122 48.6955 35.9196 48.6718 35.7212 48.7002C35.7188 48.6948 35.7157 48.7087 35.7118 48.7041L35.7173 48.7545C36.8883 50.058 34.8248 50.7881 34.8311 50.7904L34.8264 50.7919C34.9917 50.8462 35.3411 50.9686 35.3694 50.9756C36.3406 51.2159 39.934 51.7684 40.6951 49.9433C40.7895 49.7162 40.884 49.2985 40.884 49.0428C40.884 48.4755 40.5707 47.7888 39.9293 47.4292V47.43ZM30.5411 42.0786C30.5215 42.0523 30.4585 42.0383 30.4585 42.0383C30.4294 42.0322 30.3991 42.0363 30.3727 42.0499C30.1067 42.2092 29.9006 42.4494 29.7856 42.7343C29.74 42.8552 29.703 42.9768 29.7305 43.1063C29.7604 43.2365 29.825 43.3713 30.0083 43.5201C30.0493 43.5527 30.2067 43.61 30.3176 43.5744C30.5435 43.5023 30.6561 43.4031 30.7332 43.293C30.8079 43.183 30.8197 43.0567 30.8237 42.9288C30.8257 42.6226 30.7263 42.3241 30.5404 42.0786" fill="white"></path> <path fill-rule="evenodd" clip-rule="evenodd" d="M30.8432 34.8935C30.8399 34.8903 30.8368 34.8869 30.8338 34.8834L30.7755 34.9206C30.5021 35.0409 30.2476 35.1993 30.02 35.3911C29.0205 36.2203 28.1588 37.7711 27.7818 39.6326C27.4221 41.412 27.5905 43.0651 28.1399 44.1656C28.505 44.898 29.0371 45.3878 29.7005 45.4986C30.3521 45.6063 31.029 45.3312 31.6491 44.7825C32.6061 43.9347 33.4246 42.4288 33.789 40.6293C34.1604 38.791 33.97 37.0844 33.3774 35.987C33.0154 35.3136 32.5007 34.8687 31.8703 34.7641C31.5319 34.7075 31.1848 34.7579 30.8424 34.8935H30.8432ZM28.7128 39.721C28.7356 39.5946 28.8183 39.2312 28.845 39.1087C28.8505 39.1142 28.9284 39.3025 29.122 39.4335C29.3479 39.5854 29.4888 39.5923 29.6021 39.6063C29.6021 39.6063 29.4369 39.3753 29.3975 39.08C29.3463 38.7042 29.5242 38.4027 29.5242 38.4027C29.6186 38.553 30.0814 39.6536 30.2608 40.0178C30.2273 40.1195 30.1997 40.223 30.1782 40.3278C30.1656 40.3867 30.1593 40.4448 30.1507 40.5037C30.1459 40.5371 30.1381 40.5696 30.1349 40.6029C30.1058 40.6285 28.8458 42.132 28.5452 42.4288C28.372 41.4074 28.5782 40.4727 28.7128 39.721V39.721ZM29.9405 44.5601C29.5124 44.5051 29.2763 44.264 29.1362 44.1036C28.7443 43.6557 28.6994 43.2278 28.6986 43.224L30.2191 41.4074C30.301 41.6337 30.4686 41.712 30.5135 41.7182L30.5213 41.722C30.6622 41.7492 30.811 41.6678 30.9471 41.5167C30.9857 41.6097 31.8679 43.2062 31.9033 43.2317C31.3524 44.1176 30.5103 44.6337 29.9413 44.5601H29.9405ZM32.9154 40.6696C32.8517 41.0245 32.7879 41.2779 32.684 41.5996C32.5904 41.8819 32.4806 42.1588 32.3551 42.4288C32.1465 42.1568 31.7475 41.5019 31.332 40.7564C31.3506 40.6913 31.3668 40.6257 31.3808 40.5595C31.4083 40.4247 31.4217 40.2945 31.428 40.1689C31.8545 39.7582 32.2598 39.2761 32.6872 38.8034C32.6872 38.8034 32.8839 38.9925 32.8131 39.3296C32.7478 39.6435 32.4534 39.8411 32.4534 39.8411C32.7289 39.8489 32.8422 39.8628 33.0885 39.7582C33.0586 40.0038 32.9603 40.4169 32.9154 40.6704V40.6696ZM32.3496 36.0917C32.4243 36.1583 32.4928 36.2366 32.5589 36.3226L32.6219 36.4234L32.6974 36.5706C32.8343 36.8519 32.9233 37.1457 32.9902 37.489C32.9299 37.4688 32.8665 37.4588 32.8029 37.4595C31.9686 37.4386 31.5067 37.9052 31.3634 38.6344C31.3634 38.6344 31.6302 38.4345 31.8561 38.3787C32.0552 38.3306 32.3362 38.3663 32.3362 38.3663C32.0198 38.7422 31.683 39.1041 31.3327 39.4583C31.2643 39.2963 31.1635 39.1893 31.0368 39.1638C30.9007 39.1382 30.7567 39.2141 30.6229 39.3567C30.4828 39.0467 30.1601 38.2717 30.0948 38.0896C30.0948 38.0896 30.3364 38.0671 30.5387 38.1578C30.7645 38.2593 30.9857 38.5407 30.9857 38.5407C31.0211 38.3624 30.9857 38.0152 30.9219 37.8214C30.7921 37.4246 30.4906 37.1736 29.9996 37.1123C29.9039 37.1022 29.8073 37.1048 29.7123 37.1201C30.0893 36.5474 30.519 36.1281 30.9573 35.9212C30.8361 36.8209 32.093 37.0054 32.3503 36.0917H32.3496Z" fill="white"></path> <path fill-rule="evenodd" clip-rule="evenodd" d="M54.1439 30.8655C54.1203 30.7875 54.081 30.715 54.0283 30.6524C53.9755 30.5898 53.9104 30.5384 53.8369 30.5012C53.7651 30.4624 53.6862 30.438 53.6047 30.4295C53.5232 30.421 53.4409 30.4285 53.3624 30.4516L53.3356 30.4594C52.6234 30.6678 51.8765 30.8856 51.1438 31.0522C50.7779 31.1414 50.4119 31.2266 50.0475 31.3049C49.6839 31.3808 49.325 31.4421 48.93 31.4932C48.1634 31.594 47.3922 31.6777 46.624 31.7428C46.1298 31.7831 45.6246 31.8164 45.1327 31.8381C45.4163 31.7647 45.6984 31.6857 45.9787 31.6009C46.3909 31.4738 46.8 31.3371 47.2056 31.191C48.0065 30.9024 48.7978 30.5889 49.5785 30.2509C50.36 29.9231 51.1792 29.5511 51.9041 29.0915C52.6336 28.6195 53.3191 28.1274 53.9597 27.5144C54.0308 27.4462 54.0841 27.3621 54.115 27.2692C54.1459 27.1764 54.1535 27.0775 54.1371 26.9811C54.1207 26.8847 54.0808 26.7937 54.0209 26.7158C53.9609 26.638 53.8827 26.5756 53.7929 26.534C53.7014 26.4887 53.6 26.4665 53.4976 26.4693C53.3953 26.4722 53.2953 26.5 53.2065 26.5503L53.1814 26.565C52.5053 26.9478 51.7899 27.3408 51.0761 27.6763C50.3552 28.0228 49.6698 28.3537 48.9001 28.611C48.1359 28.8729 47.3567 29.1178 46.5815 29.3302C46.1936 29.4364 45.8048 29.5356 45.4191 29.6216L45.161 29.6751C45.3535 29.5951 45.544 29.5106 45.7324 29.4216C46.1534 29.2201 46.5572 29.0055 46.9522 28.7838C47.7315 28.3406 48.4929 27.8675 49.2345 27.3656C49.9909 26.8657 50.7448 26.3216 51.4012 25.7016C52.0567 25.0677 52.6604 24.4206 53.19 23.6541C53.2402 23.5809 53.2735 23.4978 53.2875 23.4106C53.3016 23.3234 53.2961 23.2343 53.2714 23.1494C53.2468 23.0645 53.2035 22.986 53.1447 22.9193C53.0859 22.8527 53.013 22.7995 52.9311 22.7636C52.8206 22.7115 52.6969 22.6929 52.5756 22.7103C52.4544 22.7277 52.3411 22.7803 52.2503 22.8613L52.2267 22.8814C51.6108 23.4389 50.9701 23.9693 50.3064 24.4709C49.6398 24.9747 48.9898 25.4637 48.2602 25.8737C48.1241 25.9512 47.9848 26.024 47.8478 26.1C47.2466 26.4382 46.634 26.7564 46.011 27.054C45.8913 27.1106 45.7717 27.1625 45.6521 27.2168C45.4262 27.3175 45.2011 27.4136 44.9761 27.5035L45.0988 27.4221C45.3641 27.2385 45.6135 27.0478 45.8575 26.8548C45.9921 26.7479 46.1274 26.6417 46.2589 26.5324C46.9829 25.9279 47.6582 25.2901 48.3051 24.643L48.3303 24.6197C49.0165 23.9346 49.6587 23.2286 50.2033 22.4497C50.7409 21.6623 51.2217 20.8703 51.5979 19.9682C51.6507 19.8415 51.6581 19.701 51.6191 19.5696C51.58 19.4382 51.4968 19.3238 51.3831 19.2451L51.3713 19.2405L51.3705 19.2397C51.2367 19.147 51.071 19.1103 50.9098 19.1377C50.7486 19.165 50.605 19.254 50.5103 19.3854L50.4922 19.4102C49.9964 20.0999 49.4502 20.8129 48.8765 21.4632C48.7057 21.66 48.5333 21.8553 48.3594 22.0498C47.9533 22.5032 47.5354 22.9434 47.0829 23.3363C46.8554 23.534 46.6256 23.7231 46.3958 23.9129C45.9795 24.257 45.56 24.5926 45.1311 24.9065C45.198 24.822 45.2649 24.7383 45.3286 24.6531C45.6828 24.1764 46.0102 23.6921 46.3226 23.2023C46.5391 22.8636 46.75 22.5218 46.9546 22.1785C47.3166 21.5848 47.6464 20.9772 47.9313 20.3518C48.0595 20.0713 48.1815 19.7884 48.2886 19.5009C48.6309 18.5631 48.9079 17.6331 49.0535 16.6194C49.0732 16.4811 49.0436 16.3405 48.9699 16.2212C48.8961 16.102 48.7828 16.0116 48.649 15.9653H48.6466C48.6427 15.9638 48.6404 15.9607 48.6364 15.9599C48.4826 15.9061 48.3134 15.9146 48.1659 15.9835C48.0184 16.0523 47.9046 16.1759 47.8494 16.3272L47.8392 16.3567C47.5795 17.0759 47.2655 17.8152 46.9263 18.5282C46.8727 18.6422 46.8239 18.76 46.7689 18.8716C46.3856 19.6442 45.9858 20.4045 45.5191 21.1191C45.4915 21.1609 45.4664 21.2051 45.438 21.2469C45.0878 21.7507 44.7219 22.2405 44.3488 22.7171C43.1959 23.9765 41.2527 25.2366 40.2013 25.7381C39.6898 25.9814 39.1672 26.3154 38.643 26.5673L38.6194 26.5789C38.2653 26.7471 37.9615 27.016 37.7828 27.3586C37.7372 27.4454 37.701 27.5368 37.6695 27.6314C37.6144 27.798 37.5798 27.9724 37.5798 28.1584C37.5798 28.8171 37.9458 29.4495 38.4959 29.7324C38.6792 29.8285 38.8831 29.8866 39.1011 29.8928C39.1373 29.8936 39.1656 29.8882 39.1971 29.8851C39.3852 29.8649 39.4899 29.7859 39.4899 29.7859C39.4899 29.7859 39.3427 29.3984 39.5686 29.2248C39.6822 29.1502 39.8129 29.1046 39.9488 29.0919C40.0848 29.0792 40.2218 29.0998 40.3477 29.1519C40.6389 29.2775 40.8443 29.5627 40.8443 29.8959C40.8443 30.309 40.5295 30.6461 40.1234 30.6988C39.94 30.7701 39.5859 30.781 39.3616 30.781C38.9042 30.7794 38.448 30.7369 37.9985 30.6539C37.4025 30.5446 36.8226 30.3631 36.2718 30.1137C35.6147 29.8169 34.409 28.9504 34.4271 28.9008C33.1852 27.7709 32.4005 26.2193 32.3336 24.5019C32.3305 24.4229 32.3203 24.3454 32.3203 24.2656C32.3214 23.5867 32.4333 22.9123 32.6516 22.2684C32.8907 21.5539 33.2562 20.8866 33.7314 20.2976C33.7778 20.2418 33.9895 20.0124 34.2642 19.7458L34.3129 19.6985L34.3216 19.69C34.6246 19.3978 34.9906 19.0715 35.3054 18.8708H35.3038L35.3069 18.8685C35.2746 18.8455 35.2443 18.8198 35.2164 18.7917C35.181 18.7582 35.1466 18.7235 35.1133 18.6879C34.542 18.6336 34.3389 18.3663 34.2429 18.1407L34.2342 18.1198L34.2122 18.0671C34.1831 17.9819 34.1839 17.7277 34.1941 17.6912C34.2374 17.4843 34.3641 17.2797 34.4727 17.1797C34.5231 17.1224 34.5766 17.0728 34.6333 17.0302C34.8056 16.9 35.0008 16.8287 35.2078 16.7899C35.2605 16.7783 35.3124 16.769 35.3652 16.7636L35.3856 16.7605C35.9161 16.7062 36.4402 16.931 36.6504 17.4634L36.6527 17.4673C36.6236 17.4874 36.3167 17.5432 36.3167 17.5432H36.3151C36.2065 17.3146 36.0255 17.2185 35.813 17.234C35.7373 17.2408 35.663 17.2585 35.5926 17.2867C35.5458 17.304 35.5024 17.3292 35.4643 17.3611C35.1236 17.6447 35.4234 18.3639 35.8956 18.4143C35.9743 18.4223 36.0539 18.4119 36.1278 18.3841L36.1364 18.381C36.3434 18.3004 37.6601 17.9904 38.4526 17.8687C38.6045 17.8455 38.7391 17.8276 38.8406 17.8207C38.8441 17.8187 38.8475 17.8166 38.8508 17.8145L38.8524 17.8137C38.9893 17.5951 38.9948 16.1614 37.8434 15.6948C36.9329 15.3252 36.1419 15.2663 35.4273 15.2647C34.808 15.2625 34.1904 15.328 33.5858 15.46C31.2413 15.9645 29.8144 17.296 28.508 20.1759C27.6226 21.8786 27.3055 23.5115 27.178 23.961L27.0473 23.9625C26.9159 23.4805 26.5987 21.8561 25.726 20.1782C24.4195 17.2975 22.9856 15.9661 20.6419 15.4616C20.0346 15.3298 19.4143 15.2646 18.7925 15.267C18.0779 15.267 17.2869 15.3275 16.3763 15.6964C15.2242 16.1637 15.2305 17.5975 15.3674 17.8152C15.3705 17.8171 15.3737 17.8189 15.3769 17.8207C15.4784 17.8276 15.613 17.8447 15.7648 17.8687C16.5574 17.9904 17.874 18.3004 18.081 18.381L18.0889 18.3841C18.1699 18.4135 18.2486 18.4228 18.3218 18.4143C18.8428 18.3585 19.1529 17.4921 18.6288 17.289C18.5579 17.2607 18.483 17.2429 18.4068 17.2363C18.1943 17.2208 18.0133 17.3169 17.9047 17.5455H17.9031C17.9031 17.5455 17.5797 17.4859 17.5647 17.468L17.5671 17.4634C17.7772 16.931 18.3014 16.7054 18.8318 16.7605C18.8397 16.7605 18.8452 16.7628 18.8523 16.7636C18.905 16.769 18.9569 16.7791 19.0097 16.7891C19.2851 16.8418 19.5417 16.9519 19.7479 17.1813C19.8557 17.282 19.9824 17.4866 20.0257 17.6936C20.0359 17.7292 20.0375 17.9842 20.0076 18.0687C20.0021 18.0842 19.9926 18.1043 19.9855 18.1221L19.9777 18.1431C19.8817 18.3686 19.6786 18.6352 19.1065 18.6894C19.0732 18.7253 19.0388 18.7602 19.0034 18.7941C18.9754 18.822 18.9451 18.8477 18.9129 18.8708C19.2473 19.0855 19.6424 19.442 19.9556 19.7473C20.2303 20.0147 20.4428 20.2441 20.4884 20.3007C20.9637 20.8896 21.3293 21.5569 21.5682 22.2715C21.7873 22.9166 21.8994 23.5923 21.9003 24.2725C21.9003 24.3524 21.8901 24.4345 21.8869 24.5128C21.8811 24.6552 21.8703 24.7973 21.8547 24.939C21.6989 25.6598 21.3715 26.8277 20.7647 27.8158C20.7332 27.8608 20.7025 27.9057 20.6702 27.9499H20.6805C20.4561 28.3033 20.1818 28.6235 19.8659 28.9008C19.884 28.9504 18.6783 29.8169 18.022 30.1137C17.471 30.3632 16.8907 30.5447 16.2945 30.6539C15.8538 30.7337 15.3981 30.781 14.9314 30.781C14.7071 30.781 14.3537 30.7701 14.1696 30.6988C13.9712 30.6738 13.7888 30.5787 13.6563 30.4311C13.5239 30.2836 13.4503 30.0937 13.4495 29.8967C13.4495 29.5635 13.6541 29.2767 13.9469 29.1512C14.0729 29.0995 14.2099 29.0791 14.3458 29.092C14.4817 29.1048 14.6123 29.1504 14.726 29.2248C14.9503 29.3984 14.8031 29.7859 14.8031 29.7859C14.8031 29.7859 14.9078 29.8649 15.0967 29.8851C15.1282 29.8882 15.1557 29.8936 15.1927 29.8928C15.4099 29.8866 15.6137 29.8285 15.7971 29.7324C16.348 29.4495 16.7132 28.8179 16.7132 28.1576C16.7132 27.9732 16.6793 27.798 16.6235 27.6314C16.593 27.5377 16.5551 27.4465 16.5101 27.3586C16.3244 27.0166 16.0312 26.743 15.6743 26.5789L15.6507 26.5673C15.1266 26.3154 14.604 25.9814 14.0925 25.7381C13.041 25.2366 11.0979 23.9765 9.94496 22.7171C9.5674 22.2374 9.20391 21.7472 8.85496 21.2469C8.82741 21.2051 8.80144 21.1617 8.77389 21.1191C8.3072 20.4045 7.9074 19.6442 7.52413 18.8716C7.46904 18.76 7.42182 18.6422 7.36673 18.5282C7.02753 17.8152 6.71352 17.0759 6.45381 16.3567L6.44358 16.3272C6.38842 16.1759 6.27463 16.0523 6.12713 15.9835C5.97962 15.9146 5.81042 15.9061 5.65657 15.9599C5.65342 15.9607 5.65106 15.9638 5.64713 15.9653H5.64398C5.51022 16.0116 5.39685 16.102 5.32311 16.2212C5.24938 16.3405 5.21982 16.4811 5.23946 16.6194C5.38584 17.6331 5.66208 18.5639 6.00443 19.5009C6.11146 19.7884 6.23345 20.0713 6.36173 20.3518C6.64741 20.9765 6.97716 21.5848 7.3384 22.1785C7.54302 22.5218 7.75394 22.8636 7.97115 23.2023C8.28359 23.6913 8.6102 24.1764 8.96435 24.6531C9.02731 24.7383 9.09578 24.822 9.16189 24.9065C8.7307 24.5877 8.3092 24.2563 7.89796 23.9129C7.66815 23.7231 7.43835 23.534 7.2109 23.3363C6.75759 22.9434 6.34048 22.5032 5.9336 22.0498C5.76046 21.8561 5.58732 21.66 5.41654 21.4632C4.84443 20.8053 4.30547 20.1201 3.8016 19.4102L3.78272 19.3854C3.68816 19.2541 3.54471 19.1651 3.38369 19.1376C3.22267 19.1102 3.05716 19.1466 2.92331 19.2389L2.92252 19.2405L2.91072 19.2451C2.79683 19.3237 2.71344 19.438 2.67426 19.5694C2.63508 19.7008 2.64242 19.8414 2.69508 19.9682C3.07127 20.8703 3.55291 21.6623 4.08965 22.4505C4.63504 23.2286 5.27724 23.9346 5.96272 24.619L5.9879 24.643C6.63482 25.2901 7.31007 25.9279 8.0349 26.5324C8.16554 26.6409 8.30091 26.7479 8.43627 26.8548C8.68024 27.0486 8.92972 27.2385 9.19415 27.4221L9.31693 27.5035C9.08979 27.4127 8.86466 27.3171 8.64168 27.2168C8.52205 27.1625 8.40164 27.1106 8.28202 27.054C7.65934 26.7566 7.04697 26.4386 6.44594 26.1008C6.30821 26.024 6.17049 25.9512 6.03276 25.8737C5.30399 25.4637 4.65393 24.9747 3.98655 24.4709C3.32287 23.9696 2.68215 23.4395 2.06626 22.8822L2.04265 22.8613C1.95185 22.7803 1.83861 22.7277 1.71738 22.7103C1.59614 22.6929 1.47239 22.7115 1.36189 22.7636C1.28 22.7995 1.20709 22.8527 1.14829 22.9193C1.0895 22.986 1.04624 23.0645 1.02156 23.1494C0.996879 23.2343 0.991379 23.3234 1.00544 23.4106C1.01951 23.4978 1.0528 23.5809 1.10297 23.6541C1.63341 24.4213 2.23625 25.0677 2.89262 25.7016C3.54898 26.3216 4.30214 26.8657 5.05845 27.3648C5.79666 27.8608 6.5514 28.3382 7.34076 28.783C7.73584 29.0055 8.13957 29.2201 8.56062 29.4216C8.74635 29.5092 8.93759 29.5937 9.13277 29.6751L8.87463 29.6208C8.489 29.5356 8.09943 29.4364 7.71223 29.3302C6.93187 29.1146 6.15864 28.8748 5.39371 28.611C4.62324 28.3537 3.93776 28.0228 3.21686 27.6763C2.50305 27.3408 1.78766 26.9478 1.11163 26.565L1.08644 26.5503C0.997742 26.5002 0.897837 26.4726 0.795658 26.4699C0.69348 26.4672 0.592213 26.4895 0.500912 26.5348C0.410915 26.576 0.332458 26.6382 0.272301 26.716C0.212144 26.7938 0.172092 26.8848 0.155595 26.9812C0.139099 27.0776 0.146653 27.1765 0.177607 27.2694C0.208562 27.3622 0.261987 27.4463 0.33328 27.5144C0.974688 28.1274 1.65938 28.6195 2.38972 29.0915C3.11376 29.5511 3.93382 29.9231 4.71532 30.2509C5.4976 30.588 6.28067 30.9019 7.08813 31.191C7.49108 31.3359 7.89875 31.4731 8.31428 31.6009C8.52284 31.6637 8.73297 31.7249 8.94704 31.7823L9.16031 31.8381C8.66288 31.8156 8.16593 31.7838 7.66973 31.7428C6.89897 31.6771 6.12986 31.5939 5.36302 31.4932C4.98815 31.4448 4.61535 31.382 4.24548 31.3049C3.87892 31.2255 3.51345 31.1413 3.14918 31.0522C2.41727 30.8864 1.6704 30.6678 0.957374 30.4594L0.931403 30.4516C0.852906 30.4285 0.770534 30.421 0.689068 30.4295C0.607602 30.438 0.528665 30.4624 0.45684 30.5012C0.359756 30.5501 0.277682 30.6237 0.21908 30.7142C0.160479 30.8048 0.127471 30.9091 0.123461 31.0165C0.119452 31.1238 0.144585 31.2302 0.19627 31.3248C0.247954 31.4193 0.324319 31.4986 0.417489 31.5544C1.13838 31.99 1.87423 32.3108 2.64707 32.6053C3.40889 32.8898 4.25649 33.0734 5.03563 33.2315C5.82263 33.3989 6.60963 33.5508 7.40529 33.6818C8.12147 33.7981 8.81718 33.8996 9.56641 33.9755C9.11045 34.0293 8.65397 34.0787 8.19702 34.1236C7.46353 34.1941 6.72768 34.2538 5.99105 34.3003C5.80846 34.3134 5.62667 34.3196 5.43779 34.3266L4.91049 34.3351L3.84253 34.3158C3.12636 34.308 2.38972 34.2584 1.67984 34.2204L1.65623 34.2197C1.53271 34.2128 1.40993 34.2425 1.30366 34.3049C1.19996 34.3621 1.11535 34.4477 1.06011 34.5513C1.00486 34.655 0.981356 34.7722 0.99244 34.8887C1.00352 35.0052 1.04872 35.1161 1.12255 35.2078C1.19637 35.2995 1.29565 35.3682 1.40833 35.4054C2.16385 35.6596 2.90993 35.8107 3.68355 35.9347C4.06997 35.9898 4.46033 36.0254 4.85462 36.0417C5.05137 36.051 5.24969 36.0556 5.44802 36.0572L6.01545 36.0649C6.7749 36.0812 7.53436 36.0851 8.29225 36.0758C8.81797 36.0696 8.93287 36.0688 9.46016 36.051L9.52942 36.2757C8.66135 36.5431 8.06874 36.7175 7.19359 36.9577C6.51205 37.1453 5.8667 37.2701 5.1946 37.4057C4.52958 37.5529 3.83859 37.6692 3.17043 37.8048L3.15154 37.8095C3.10708 37.8187 3.0638 37.8327 3.02247 37.8513C2.89436 37.9032 2.78777 37.9961 2.71993 38.115C2.65209 38.2339 2.62697 38.3719 2.64863 38.5066C2.6703 38.6413 2.73748 38.7649 2.83931 38.8574C2.94114 38.9498 3.07167 39.0058 3.20978 39.0161C3.95586 39.0805 4.67518 39.0611 5.41181 39.0161C6.14373 38.9673 6.88508 38.8061 7.58316 38.6782C8.28674 38.5504 9.32086 38.3101 10.0181 38.1667L10.0732 38.3396C9.78441 38.5023 9.15638 38.8294 8.86676 38.9867C8.57636 39.1448 8.28674 39.2874 7.99555 39.4261C7.70829 39.5641 7.42103 39.6974 7.1322 39.84H7.12984L7.11882 39.8462C6.5388 40.1407 5.93832 40.4212 5.35909 40.7281L5.34885 40.7335C5.27717 40.7713 5.21378 40.8227 5.16236 40.8847C5.11093 40.9467 5.07248 41.0182 5.04921 41.0949C5.02595 41.1716 5.01833 41.2521 5.02681 41.3318C5.03528 41.4114 5.05968 41.4886 5.09859 41.5589C5.16173 41.6727 5.25992 41.7638 5.37901 41.8191C5.4981 41.8744 5.63194 41.891 5.76124 41.8666C6.44594 41.7387 7.096 41.5488 7.75236 41.3419C8.40479 41.1288 9.03833 40.8304 9.65849 40.5654C9.82376 40.4948 10.473 40.2205 10.6367 40.1492L10.7501 40.656L10.2834 40.9761L9.56719 41.5845C9.09499 41.9968 8.65348 42.4478 8.23558 42.9291C8.18223 42.9902 8.14168 43.0611 8.11627 43.1377C8.09086 43.2143 8.0811 43.295 8.08753 43.3754C8.09397 43.4557 8.11649 43.534 8.15378 43.6057C8.19108 43.6774 8.24242 43.7411 8.30484 43.7932C8.39995 43.8721 8.51671 43.9214 8.6403 43.9347C8.76389 43.9481 8.88874 43.925 8.99898 43.8684L9.00763 43.8638L9.01236 43.8622C9.58024 43.574 10.1263 43.2459 10.6462 42.8803L11.1908 42.5672C11.1931 42.5796 11.4914 44.3357 11.5693 45.0642C11.8133 47.3342 11.744 49.9452 11.9943 50.2505C12.2029 50.5063 12.6184 50.4482 12.9914 50.459C12.9663 50.3722 12.9537 50.2908 12.9348 50.2071C12.9348 50.1986 12.9371 50.1901 12.9348 50.1816C12.6672 48.9648 13.0371 48.0674 13.2653 47.7008C13.2693 47.6946 13.2669 47.6876 13.27 47.6814C13.2825 47.6502 13.2912 47.6177 13.296 47.5845C13.215 46.1415 13.0174 43.8126 12.6845 42.0045C12.1541 39.1223 11.264 34.5056 11.0113 33.1982C11.0044 33.1628 11.0065 33.1263 11.0175 33.0919C11.0285 33.0576 11.048 33.0264 11.0743 33.0014C11.1032 32.976 11.1379 32.9579 11.1755 32.9489C11.2131 32.9398 11.2524 32.94 11.2899 32.9494C12.1919 33.1734 13.6746 33.3036 14.6308 33.3656C15.3454 33.4121 17.0508 33.4067 18.8082 32.8774C18.0629 34.601 17.6387 36.5772 17.6387 38.6767C17.6387 42.7943 19.2694 46.4344 21.7516 48.6192C21.458 48.6649 21.24 48.7052 21.1786 48.7269C20.5396 48.9462 20.0375 49.2624 19.7565 49.4228C19.7494 49.4267 19.7447 49.4329 19.7384 49.4376C19.7195 49.4453 19.6991 49.4546 19.6833 49.4631C19.5858 49.5158 19.5795 49.6236 19.6031 49.7297C19.6684 50.0281 19.8376 50.3993 20.0021 50.6187C20.0391 50.6675 20.0753 50.7148 20.1367 50.7179C22.4583 50.831 24.1661 51.0046 25.5339 51.8548L25.552 51.8664C25.5898 51.8897 25.6244 51.9176 25.6622 51.9424C26.3076 52.4407 26.568 53.4745 26.0408 54.2092C25.8597 54.3921 25.6709 54.5688 25.4836 54.7378C24.8616 55.2701 24.1719 55.7203 23.4318 56.077C22.721 56.4138 21.9614 56.6402 21.1802 56.7481C20.4066 56.8861 19.6345 56.9868 18.6256 57.2209L18.6193 57.2232C18.5875 57.2304 18.5576 57.2439 18.5312 57.2627C18.5013 57.2814 18.476 57.3063 18.457 57.3357C18.438 57.3651 18.4258 57.3982 18.4213 57.4328C18.4168 57.4673 18.4201 57.5024 18.4309 57.5356C18.4417 57.5688 18.4598 57.5992 18.4839 57.6247C19.2245 58.409 20.3192 58.7197 21.3754 58.6616C22.1742 58.6012 22.9494 58.3764 23.6577 58.0439C24.8189 57.502 25.8166 56.6712 26.5523 55.6337C26.564 55.6167 26.5753 55.5993 26.5861 55.5818C26.5846 55.5911 26.5814 55.5996 26.5791 55.6089C26.45 56.0506 26.0203 57.2108 25.6764 57.5983C25.3277 57.9905 25.0098 58.3663 24.6422 58.6616C24.2772 58.9566 23.8692 59.1959 23.4318 59.3715C22.9683 59.5598 22.4363 59.6815 21.8106 59.8133L21.8043 59.8148C21.7737 59.8214 21.7448 59.8341 21.7193 59.852C21.6871 59.8713 21.6603 59.8981 21.6412 59.9301C21.6221 59.962 21.6113 59.9982 21.6098 60.0352C21.6083 60.0723 21.6162 60.1091 21.6327 60.1425C21.6492 60.1758 21.6738 60.2046 21.7044 60.2263C22.2616 60.6138 22.9636 60.7952 23.6915 60.7533C24.438 60.6971 25.1486 60.4157 25.7267 59.9473C25.822 59.8698 25.8983 59.7846 25.9833 59.6993C26.1439 60.0124 26.3138 60.3255 26.4366 60.6371C26.5987 61.0106 26.7278 61.3834 26.9364 61.7554C26.9836 61.8391 27.0875 61.8779 27.1284 61.8709C27.1284 61.8779 27.2913 61.8391 27.3385 61.7554C27.5471 61.3834 27.695 61.0106 27.8572 60.6379C27.9799 60.3255 28.1499 60.0124 28.3097 59.6986C28.3955 59.7838 28.471 59.8698 28.5662 59.9466C29.1446 60.415 29.8555 60.6965 30.6022 60.7526C31.3302 60.7952 32.0322 60.6138 32.5886 60.2263C32.6193 60.2047 32.6441 60.1758 32.6607 60.1424C32.6773 60.109 32.6852 60.072 32.6838 60.0348C32.6823 59.9976 32.6714 59.9614 32.6522 59.9294C32.633 59.8973 32.606 59.8705 32.5737 59.8512C32.5481 59.8336 32.5192 59.8212 32.4887 59.8148L32.4832 59.8133C31.8567 59.6815 31.3247 59.5598 30.8619 59.3715C30.4247 59.1958 30.0167 58.9565 29.6515 58.6616C29.284 58.3671 28.9653 57.9905 28.6174 57.5983C28.2735 57.2108 27.843 56.0506 27.7139 55.6089L27.7068 55.5818L27.7415 55.6337C28.4748 56.6731 29.4727 57.5043 30.6353 58.0439C31.3444 58.3764 32.1188 58.6012 32.9176 58.6616C33.9738 58.7197 35.0685 58.409 35.8098 57.6247C35.8339 57.5992 35.8521 57.5688 35.8629 57.5356C35.8737 57.5024 35.877 57.4673 35.8725 57.4328C35.868 57.3982 35.8558 57.3651 35.8368 57.3357C35.8178 57.3063 35.7925 57.2814 35.7626 57.2627C35.736 57.2438 35.7057 57.2304 35.6737 57.2232L35.6674 57.2209C34.6584 56.9868 33.8864 56.8861 33.1136 56.7481C32.3321 56.6403 31.5723 56.4139 30.8612 56.077C30.1211 55.7203 29.4313 55.2701 28.8094 54.7378C28.6188 54.5666 28.433 54.3904 28.2522 54.2092C27.7249 53.4745 27.9854 52.4407 28.6324 51.9424C28.6693 51.9176 28.7032 51.8897 28.741 51.8664L28.7591 51.8548C30.1269 51.0038 31.8347 50.8318 34.1563 50.7179C34.2185 50.7148 34.2539 50.6675 34.2901 50.6187C34.4554 50.3993 34.6238 50.0281 34.6899 49.7297C34.7127 49.6236 34.7065 49.5158 34.6097 49.4631C34.5939 49.4546 34.5711 49.4461 34.5522 49.4376L34.5325 49.4228C34.2508 49.2624 33.7447 48.9462 33.1057 48.7269C32.9255 48.6838 32.7432 48.6499 32.5595 48.6254C35.0464 46.4414 36.6818 42.7981 36.6818 38.6767C36.6818 36.5772 36.2521 34.6056 35.5076 32.8836C37.2571 33.4059 38.9508 33.4113 39.663 33.3656C40.6192 33.3036 42.1011 33.1734 43.0038 32.9494C43.0413 32.9399 43.0806 32.9397 43.1183 32.9488C43.1559 32.9578 43.1906 32.9759 43.2195 33.0014C43.2457 33.0264 43.2652 33.0576 43.2762 33.0919C43.2872 33.1263 43.2894 33.1628 43.2824 33.1982C43.0298 34.5056 42.1389 39.1223 41.6085 42.0053C41.2756 43.8126 41.078 46.1415 40.9978 47.5853C41.0024 47.6182 41.0109 47.6504 41.0229 47.6814C41.0261 47.6876 41.0245 47.6946 41.0285 47.7008C41.2567 48.0674 41.6258 48.9648 41.3582 50.1816C41.3558 50.1901 41.359 50.1986 41.3582 50.2071C41.3393 50.2908 41.3267 50.3722 41.3023 50.459C41.6746 50.4482 42.0901 50.5055 42.2987 50.2505C42.5489 49.9452 42.4797 47.3342 42.7237 45.0642C42.8024 44.3357 43.0998 42.5796 43.1014 42.5672L43.6476 42.8803C44.1688 43.2465 44.7161 43.5752 45.2854 43.8638L45.294 43.8684C45.5136 43.9808 45.7898 43.9606 45.9889 43.7932C46.0513 43.7411 46.1026 43.6773 46.1398 43.6056C46.177 43.5338 46.1995 43.4555 46.2058 43.3752C46.2122 43.2949 46.2024 43.2141 46.1769 43.1376C46.1514 43.061 46.1108 42.9901 46.0574 42.9291C45.6458 42.4515 45.2014 42.0022 44.7274 41.5845L44.0096 40.9761L43.5437 40.656L43.6563 40.1492C43.82 40.2205 44.4692 40.4948 44.6345 40.5654C45.2547 40.8312 45.8882 41.1288 46.5414 41.3419C47.1978 41.5488 47.8478 41.7387 48.5325 41.8666C48.6618 41.891 48.7957 41.8744 48.9148 41.8191C49.0339 41.7638 49.132 41.6727 49.1952 41.5589C49.2341 41.4886 49.2584 41.4113 49.2668 41.3316C49.2753 41.252 49.2676 41.1715 49.2442 41.0947C49.2209 41.018 49.1824 40.9466 49.1309 40.8846C49.0793 40.8226 49.0159 40.7713 48.9441 40.7335L48.9339 40.7281C48.3555 40.4212 47.755 40.1399 47.1742 39.8462L47.1631 39.8407L47.1616 39.84C46.8727 39.6981 46.5847 39.5641 46.2974 39.4261C46.0034 39.2872 45.7132 39.1407 45.427 38.9867C45.1374 38.8294 44.5086 38.5015 44.219 38.3396L44.2741 38.1667C44.9721 38.3101 46.0055 38.5504 46.7106 38.6782C47.4079 38.8061 48.1493 38.9673 48.8812 39.0161C49.6186 39.0611 50.3371 39.0805 51.0832 39.0161C51.2213 39.0058 51.3519 38.9498 51.4537 38.8574C51.5555 38.7649 51.6227 38.6413 51.6444 38.5066C51.666 38.3719 51.6409 38.2339 51.5731 38.115C51.5052 37.9961 51.3986 37.9032 51.2705 37.8513C51.2292 37.8327 51.1859 37.8187 51.1414 37.8095L51.1226 37.8048C50.4544 37.67 49.7642 37.5522 49.0984 37.4057C48.4271 37.2701 47.7809 37.1453 47.0994 36.957C46.3168 36.7433 45.5381 36.5162 44.7636 36.2757L44.8344 36.051C45.3609 36.0688 45.475 36.0696 46.0007 36.0758C46.7594 36.0851 47.5181 36.0812 48.2775 36.0657L48.8458 36.058C49.0433 36.0556 49.2416 36.0502 49.4392 36.0417C49.8327 36.0254 50.2238 35.9898 50.6094 35.9347C51.3831 35.8107 52.1291 35.6596 52.8839 35.4054C52.973 35.4546 53.0732 35.4812 53.1755 35.4826C53.2777 35.484 53.3786 35.4603 53.4691 35.4136C53.5597 35.3668 53.6369 35.2986 53.6939 35.215C53.7508 35.1314 53.7857 35.0352 53.7953 34.9349C53.8049 34.8347 53.7889 34.7338 53.7489 34.6412C53.7088 34.5486 53.6459 34.4673 53.5658 34.4047C53.4858 34.3421 53.3911 34.3002 53.2904 34.2828C53.1898 34.2654 53.0863 34.273 52.9893 34.3049C52.8833 34.2427 52.7608 34.213 52.6375 34.2197L52.6139 34.2204C51.9033 34.2592 51.1666 34.308 50.4512 34.3158L49.3825 34.3351L48.8552 34.3266C48.6663 34.3196 48.4853 34.3134 48.3019 34.3003C47.5661 34.2538 46.8302 34.1941 46.096 34.1236C45.639 34.0787 45.1825 34.0293 44.7266 33.9755C45.4758 33.8996 46.1723 33.7973 46.8877 33.6818C47.6813 33.5503 48.4717 33.4004 49.2581 33.2323C50.0373 33.0734 50.8849 32.8898 51.6459 32.6046C52.4188 32.3101 53.1546 31.99 53.8763 31.5544C53.9917 31.4846 54.0804 31.3792 54.1288 31.2546C54.1772 31.1301 54.1825 30.9933 54.1439 30.8655V30.8655ZM27.1599 49.4244L27.1284 49.4236C24.366 49.4097 21.9247 47.5907 20.4483 44.8232C21.1361 43.6855 22.5583 41.2024 22.5583 41.2024C22.6921 41.7116 23.4854 45.0774 23.4854 45.0774C23.4854 45.0774 22.4827 45.5021 22.9895 45.8059C23.4964 46.1097 24.5738 45.885 24.5738 45.885C24.5738 45.885 24.8477 46.1268 25.1436 46.3306C25.4946 46.5894 25.8928 46.7816 26.3209 46.894C26.4831 46.956 26.5956 46.9948 26.5956 46.9948C26.5956 46.9948 26.4949 47.4598 26.6467 47.7016C26.7066 47.7961 26.7632 47.8783 26.956 47.8783C27.0111 47.8783 27.0686 47.8659 27.1245 47.8449C27.2913 47.7845 27.4519 47.6535 27.5424 47.5613C27.7745 47.328 27.8572 47.1606 28.0303 46.9351C28.024 46.925 28.0327 46.9087 28.0484 46.8917C28.4592 46.7824 28.8929 46.6359 29.3045 46.1306C28.3026 45.7462 27.4519 44.8496 27.1245 43.3654C26.9999 42.789 26.935 42.2017 26.9309 41.6124C26.9238 40.9614 26.9781 40.2786 27.1095 39.578L27.1245 39.5067C27.5959 37.0748 29.1368 35.221 29.5823 35.0613C29.4445 34.7498 29.5028 33.9577 28.423 33.5206C28.1901 33.4268 27.4676 33.3842 27.3999 33.0587C27.7399 32.8324 27.9988 32.4069 28.0626 31.8947C28.1484 31.208 27.854 30.5927 27.3818 30.3718C27.4943 30.1191 27.7714 29.7727 27.7714 29.7727L27.2331 29.207L27.1245 29.2635L26.5366 29.572C26.5366 29.572 26.7136 30.0672 26.7121 30.3338C26.2477 30.4857 25.9022 30.8445 25.8228 31.4808C25.7842 31.7931 25.9589 32.2775 26.3217 32.6332C26.5169 32.8247 26.5562 32.9874 26.435 33.106C26.169 33.3672 25.6197 33.3028 25.3364 33.7066C25.1585 33.9616 24.9437 34.549 24.9437 34.549C24.8107 34.8133 24.0292 36.6508 23.6451 37.2987C23.5491 37.4615 23.1595 38.0637 23.1595 38.0637C23.1595 38.0637 22.9895 38.1784 22.7991 38.3279C22.6438 38.4447 22.5014 38.5772 22.3741 38.7232C22.0782 39.0952 22.197 39.7601 22.378 40.0415L20.1036 44.1164C20.0574 44.0214 20.0136 43.9252 19.9722 43.8281C19.3323 42.2975 18.968 40.5421 18.968 38.6767C18.968 32.9673 22.3796 28.2839 26.668 27.9507H27.662C28.1342 27.9887 28.5962 28.0809 29.0447 28.2196C29.2793 28.2925 29.5099 28.3785 29.7365 28.4769C32.9947 29.8975 35.3518 33.9314 35.3518 38.6767C35.3518 44.6039 31.6765 49.4244 27.1591 49.4244H27.1599ZM26.3178 37.7839C26.3178 37.7839 24.7225 38.3752 23.9631 38.6767L25.5166 36.0363C25.5205 36.0494 25.5898 36.4067 26.2218 36.6671C26.2021 36.7609 26.3178 37.7831 26.3178 37.7831V37.7839Z" fill="white"></path> <path fill-rule="evenodd" clip-rule="evenodd" d="M14.0289 39.9543H13.5V39.5381H14.5349V41.5461H14.0289V39.9543ZM15.2511 42.0809L16.3576 39.9806H15.1425V39.5389H16.8637V39.8845L15.6902 42.2242L15.2511 42.0809V42.0809ZM37.336 41.1873C37.5957 40.9928 38.3717 40.5347 38.3717 40.2619C38.3717 40.0457 38.2158 39.9822 37.9931 39.9822C37.8042 39.9822 37.6028 40.0488 37.5091 40.0883L37.3863 39.745C37.4871 39.683 37.7578 39.5916 38.0144 39.5916C38.6786 39.5916 38.8439 39.9248 38.8439 40.2472C38.8439 40.6766 38.252 41.0276 37.9459 41.195H38.9454V41.5779H37.3352V41.1873H37.336ZM40.2849 41.5763L39.1776 41.5779V41.1904L40.0669 39.645H40.765V41.1904H41.1435V41.5763H40.7657V42.2537H40.2849V41.5763V41.5763ZM40.2849 41.1904V40.1418L39.6812 41.1904H40.2849Z" fill="white"></path> <path fill-rule="evenodd" clip-rule="evenodd" d="M77.2337 11.4296C77.2337 10.2741 76.7371 9.18291 75.396 9.18291C73.2939 9.18291 72.9791 11.9497 72.9791 13.4966C72.9791 15.5798 73.3931 18.624 76.1413 18.624C77.251 18.624 78.0451 18.2008 78.8895 17.5498V19.0797C77.979 19.6167 76.8858 19.7958 75.843 19.7958C72.2669 19.7958 71.0423 16.8663 71.0423 13.7895C71.0423 10.8926 72.1677 8.20719 75.5448 8.20719C77.6303 8.20719 79.3531 9.21546 79.3531 11.4296H77.2337V11.4296ZM84.6016 19.6167V18.5426H84.5686C84.3439 18.9258 84.0202 19.2436 83.6304 19.4637C83.2406 19.6838 82.7985 19.7984 82.3492 19.7958C81.2238 19.7958 80.1975 19.0308 80.1975 17.8583C80.1975 15.6782 82.9284 15.3852 84.6016 15.3039V14.6195C84.6016 13.8383 84.6173 12.3736 83.4919 12.3736C82.4326 12.3736 82.2674 13.2207 82.217 14.0662H80.462C80.595 12.2597 81.7369 11.69 83.4919 11.69C85.6774 11.69 86.2732 12.634 86.2732 14.6195V19.6167H84.6024H84.6016ZM84.6016 15.9874C83.5754 16.0525 82.0187 16.3129 82.0187 17.6149C82.0187 18.1845 82.3335 18.7704 82.9788 18.7704C83.1937 18.7704 83.4258 18.7053 83.6084 18.6077C84.2703 18.2659 84.6016 17.6149 84.6016 16.8988V15.9874ZM93.3263 19.6167V16.0517H90.3625V19.6167H88.6909V11.8691H90.3625V15.1241H93.3263V11.8691H94.9979V19.6167H93.3263V19.6167ZM97.4486 11.8691H99.121V15.1729C100.081 14.0825 100.992 12.9758 101.919 11.8691H103.558L100.495 15.3519C101.538 15.4829 102.282 15.7751 102.829 17.322L103.624 19.6005H101.786L101.191 17.859C100.743 16.5725 100.346 16.199 99.3194 16.199H99.121V19.6167H97.4486V11.8691V11.8691ZM107.961 12.7797V19.6167H106.306V12.7805H104.187V11.8691H110.147V12.7805H107.961V12.7797ZM111.124 14.7505H115.149V15.9068H111.124V14.7505ZM123.162 19.6167V9.50919H119.138V19.6175H117.317V8.38544H124.983V19.6167H123.162V19.6167ZM128.626 14.8644C128.626 16.7027 129.503 18.9332 131.687 18.9332C132.201 18.9332 132.714 18.8193 133.194 18.6077V19.3563C132.399 19.6818 131.754 19.7958 130.894 19.7958C128.161 19.7958 126.953 17.9241 126.953 15.4015C126.953 13.1873 127.896 11.69 130.314 11.69C132.45 11.69 133.344 12.8781 133.344 14.8637H128.626V14.8644ZM130.247 12.3736C129.238 12.3736 128.741 13.2207 128.675 14.115H131.705C131.705 13.2036 131.291 12.3736 130.248 12.3736H130.247ZM137.88 12.7797V19.6167H136.224V12.7805H134.106V11.8691H140.065V12.7805H137.88V12.7797ZM142.267 14.8644C142.267 16.7027 143.144 18.9332 145.33 18.9332C145.844 18.9332 146.357 18.8193 146.836 18.6077V19.3563C146.041 19.6818 145.396 19.7958 144.536 19.7958C141.804 19.7958 140.595 17.9241 140.595 15.4015C140.595 13.1873 141.54 11.69 143.956 11.69C146.092 11.69 146.986 12.8781 146.986 14.8637H142.267V14.8644ZM143.89 12.3736C142.88 12.3736 142.383 13.2207 142.317 14.115H145.347C145.347 13.2036 144.933 12.3736 143.89 12.3736V12.3736ZM152.581 19.7958C151.606 19.7958 150.976 19.3726 150.545 18.5426H150.512V23.0996H148.84V11.8698H150.512V13.1393H150.545C150.926 12.2767 151.588 11.6908 152.581 11.6908C155.015 11.6908 155.562 13.7577 155.562 15.7441C155.562 17.6808 154.932 19.7973 152.581 19.7973V19.7958ZM152.151 12.7316C150.694 12.7316 150.578 14.7009 150.578 15.7433C150.578 16.8174 150.612 18.8518 152.151 18.8518C153.575 18.8518 153.741 16.7516 153.741 15.7433C153.741 14.7172 153.591 12.7316 152.151 12.7316ZM163.293 9.47664L160.644 10.4857C159.138 11.0553 158.509 11.8202 158.227 13.106H158.277C158.724 12.1946 159.585 11.7063 160.743 11.7063C163.078 11.7063 163.889 13.3989 163.889 15.6449C163.889 18.1194 162.83 19.7958 160.429 19.7958C157.846 19.7958 156.936 18.1194 156.936 15.4015C156.936 12.4061 157.614 10.1927 160.247 9.08526C161.058 8.75976 161.852 8.41876 162.647 8.09326L163.293 9.47664H163.293ZM160.429 19.0634C161.952 19.0634 162.068 17.1755 162.068 16.02V15.417C162.068 14.2778 161.985 12.4712 160.445 12.4712C159.021 12.4712 158.74 14.3274 158.74 15.4503V16.0843C158.74 17.2235 158.906 19.0634 160.429 19.0634V19.0634ZM167.797 23.1004H166.455L167.614 19.6981L164.585 11.8691H166.323L168.393 17.4033H168.425L170.28 11.8691H171.852L167.797 23.1004V23.1004ZM176.869 19.7958C175.892 19.7958 175.264 19.3726 174.832 18.5426H174.799V23.0996H173.128V11.8698H174.799V13.1393H174.832C175.213 12.2767 175.876 11.6908 176.869 11.6908C179.303 11.6908 179.849 13.7577 179.849 15.7441C179.849 17.6808 179.219 19.7973 176.869 19.7973V19.7958ZM176.439 12.7316C174.981 12.7316 174.865 14.7009 174.865 15.7433C174.865 16.8174 174.898 18.8518 176.439 18.8518C177.862 18.8518 178.028 16.7516 178.028 15.7433C178.028 14.7172 177.879 12.7316 176.439 12.7316ZM186.173 11.8691V12.7642H183.375V19.6167H181.72V11.8691H186.173V11.8691ZM191.057 14.3917C191.057 13.5942 191.008 12.3736 189.914 12.3736C188.706 12.3736 188.459 14.0011 188.459 14.8807C188.459 16.5896 189.17 18.934 191.289 18.934C191.769 18.934 192.249 18.8193 192.696 18.6395V19.4052C192.017 19.6493 191.305 19.7958 190.594 19.7958C187.812 19.7958 186.637 18.0055 186.637 15.4341C186.637 13.2524 187.597 11.6908 189.981 11.6908C191.836 11.6908 192.812 12.5526 192.812 14.3917H191.057V14.3917ZM194.269 11.8691H195.941V15.1729C196.902 14.0825 197.812 12.9758 198.739 11.8691H200.378L197.315 15.3519C198.358 15.4829 199.103 15.7751 199.65 17.322L200.445 19.6005H198.606L198.011 17.859C197.563 16.5725 197.166 16.199 196.14 16.199H195.941V19.6167H194.269V11.8691V11.8691ZM201.968 19.6167V11.8691H203.541V17.7126L206.835 11.8691H208.391V19.6167H206.835V13.9205L203.557 19.6167H201.967H201.968ZM210.842 19.6167V11.8691H212.414V17.7126L215.709 11.8691H217.265V19.6167H215.709V13.9205L212.431 19.6167H210.842V19.6167ZM216.52 8.20719C216.421 9.54174 215.676 10.5182 214.219 10.5182C212.828 10.5182 211.885 9.55724 211.885 8.20719H212.829C212.978 8.88996 213.441 9.33016 214.186 9.33016C214.948 9.33016 215.395 8.90624 215.576 8.20641H216.521L216.52 8.20719ZM75.9587 29.1043V29.9994H73.1609V36.8527H71.5059V29.1043H75.9587V29.1043ZM79.9158 37.0318C77.3502 37.0318 76.4396 35.2733 76.4396 32.9785C76.4396 30.683 77.3494 28.9253 79.9158 28.9253C82.4814 28.9253 83.4093 30.6675 83.4093 32.9785C83.4093 35.2896 82.4822 37.0318 79.9158 37.0318V37.0318ZM79.9158 29.6096C78.3433 29.6096 78.2607 31.8718 78.2607 32.9785C78.2607 34.0852 78.3433 36.3474 79.9158 36.3474C81.5055 36.3474 81.5882 34.0852 81.5882 32.9785C81.5882 31.8718 81.5055 29.6096 79.9158 29.6096ZM89.1379 31.6277C89.1379 30.8294 89.0883 29.6096 87.9952 29.6096C86.7871 29.6096 86.5392 31.2371 86.5392 32.1159C86.5392 33.8248 87.2499 36.1692 89.3693 36.1692C89.8493 36.1692 90.3294 36.0545 90.7764 35.8755V36.6412C90.0973 36.8853 89.3858 37.0318 88.6744 37.0318C85.8931 37.0318 84.7173 35.2415 84.7173 32.6693C84.7173 30.4877 85.6774 28.926 88.0621 28.926C89.9155 28.926 90.8929 29.7878 90.8929 31.6277H89.1379V31.6277ZM94.3856 40.3356H93.0446L94.2038 36.9333L91.1739 29.1043H92.9124L94.9822 34.6386H95.0145L96.8686 29.1051H98.4418L94.3856 40.3356ZM100.18 36.8527C100.131 37.4549 100.064 38.0571 100.031 38.6755H98.7071V35.9088H99.4689C100.114 34.8339 100.362 32.9948 100.362 30.8945V29.1043H105.826V35.9088H106.901L106.67 38.6755H105.329V36.8527H100.18V36.8527ZM102.018 30.0157V30.879C102.018 32.6856 101.786 34.6068 101.091 35.9088H104.154V30.0157H102.018V30.0157ZM112.315 36.8527V35.7778H112.283C112.058 36.1611 111.735 36.479 111.345 36.6993C110.955 36.9195 110.513 37.0342 110.064 37.0318C108.938 37.0318 107.912 36.2661 107.912 35.0943C107.912 32.9134 110.644 32.6205 112.315 32.5391V31.8555C112.315 31.0743 112.332 29.6096 111.206 29.6096C110.147 29.6096 109.982 30.4559 109.931 31.3022H108.176C108.309 29.4949 109.451 28.9253 111.206 28.9253C113.392 28.9253 113.988 29.87 113.988 31.8548V36.8527H112.315ZM112.315 33.2226C111.29 33.2877 109.734 33.5481 109.734 34.8501C109.734 35.4205 110.048 36.0057 110.693 36.0057C110.908 36.0057 111.14 35.9406 111.323 35.8429C111.984 35.5019 112.315 34.8509 112.315 34.134V33.2226ZM120.147 37.0318C119.17 37.0318 118.541 36.6078 118.11 35.7778H118.077V40.3356H116.405V29.1043H118.077V30.3737H118.11C118.491 29.5112 119.153 28.9253 120.147 28.9253C122.58 28.9253 123.127 30.993 123.127 32.9785C123.127 34.9152 122.497 37.0318 120.147 37.0318ZM119.716 29.9669C118.259 29.9669 118.144 31.9369 118.144 32.9785C118.144 34.0527 118.177 36.087 119.716 36.087C121.141 36.087 121.306 33.9876 121.306 32.9785C121.306 31.9532 121.156 29.9669 119.716 29.9669ZM128.838 31.6277C128.838 30.8294 128.789 29.6096 127.696 29.6096C126.488 29.6096 126.24 31.2371 126.24 32.1159C126.24 33.8248 126.951 36.1692 129.07 36.1692C129.55 36.1692 130.03 36.0545 130.478 35.8755V36.6412C129.798 36.8853 129.086 37.0318 128.375 37.0318C125.593 37.0318 124.418 35.2415 124.418 32.6693C124.418 30.4877 125.378 28.926 127.762 28.926C129.617 28.926 130.593 29.7878 130.593 31.6277H128.838V31.6277ZM134.897 30.0157V36.8527H133.242V30.0157H131.123V29.1043H137.083V30.0157H134.897ZM141.288 36.8527H138.441V29.1043H141.222C142.745 29.1043 144.201 29.381 144.201 30.9271C144.201 31.7742 143.655 32.5065 142.546 32.7507V32.7662C143.904 32.9297 144.566 33.5319 144.566 34.6882C144.566 36.4784 143.043 36.8527 141.288 36.8527ZM140.792 29.9506H140.096V32.3918H140.758C141.718 32.3918 142.447 32.1485 142.447 31.1557C142.447 30.1947 141.851 29.9506 140.791 29.9506H140.792ZM140.824 33.2552H140.096V36.0064H140.791C142 36.0064 142.812 35.7453 142.812 34.606C142.812 33.483 142 33.2552 140.824 33.2552V33.2552ZM147.447 32.0997C147.447 33.9387 148.324 36.1684 150.51 36.1684C151.023 36.1684 151.536 36.0545 152.016 35.8429V36.5916C151.221 36.9171 150.576 37.0318 149.715 37.0318C146.984 37.0318 145.775 35.1594 145.775 32.6367C145.775 30.4233 146.719 28.9253 149.136 28.9253C151.272 28.9253 152.166 30.1141 152.166 32.0997H147.447V32.0997ZM149.07 29.6096C148.06 29.6096 147.563 30.4559 147.497 31.3502H150.527C150.527 30.4388 150.113 29.6096 149.07 29.6096ZM158.655 36.8527V33.2877H155.692V36.8527H154.02V29.1043H155.692V32.3601H158.655V29.1051H160.327V36.8527H158.655ZM167.413 36.8527V33.2877H164.449V36.8527H162.778V29.1043H164.449V32.3601H167.413V29.1051H169.086V36.8527H167.413ZM173.208 29.1043V32.3601H174.449C176.138 32.3926 177.446 32.8158 177.446 34.5409C177.446 36.4125 175.873 36.8527 174.201 36.8527H171.536V29.1043H173.208ZM173.556 33.2389H173.208V36.0057H174.068C175.028 35.9406 175.691 35.6313 175.691 34.6223C175.691 33.4179 174.813 33.2389 173.556 33.2389V33.2389ZM178.372 29.1043H180.045V36.8527H178.373V29.1043H178.372ZM182.495 36.8527V29.1043H184.069V34.9478L187.363 29.1043H188.919V36.8527H187.363V31.1549L184.084 36.8512H182.495V36.8527ZM188.174 25.4424C188.074 26.777 187.33 27.7535 185.873 27.7535C184.482 27.7535 183.538 26.7932 183.538 25.4424H184.483C184.631 26.126 185.095 26.5654 185.839 26.5654C186.601 26.5654 187.048 26.1422 187.23 25.4416H188.174V25.4424ZM73.5418 57.5716H72.2008L73.36 54.1693L70.3301 46.3403H72.0686L74.1384 51.8738H74.1714L76.0256 46.3403H77.5981L73.5418 57.5716ZM83.5085 54.088V50.523H80.5446V54.088H78.873V46.3403H80.5446V49.5953H83.5085V46.3403H85.1801V54.088H83.5085ZM87.6308 54.088V46.3403H89.204V52.1838L92.4984 46.3403H94.0543V54.088H92.4984V48.3917L89.2205 54.088H87.6308V54.088ZM99.3524 54.088H96.505V46.3403H99.2863C100.809 46.3403 102.266 46.617 102.266 48.1631C102.266 49.0094 101.72 49.7418 100.611 49.9867V50.0022C101.968 50.1649 102.63 50.7679 102.63 51.9242C102.63 53.7144 101.107 54.088 99.3524 54.088ZM98.8558 47.1866H98.1601V49.6278H98.8228C99.7829 49.6278 100.511 49.3837 100.511 48.3909C100.511 47.4299 99.9151 47.1866 98.8558 47.1866ZM98.8889 50.4904H98.1601V53.2417H98.8558C100.064 53.2417 100.876 52.9813 100.876 51.842C100.876 50.7183 100.064 50.4904 98.8889 50.4904V50.4904ZM105.511 49.3349C105.511 51.1747 106.388 53.4044 108.574 53.4044C109.094 53.4016 109.607 53.2906 110.08 53.0789V53.8276C109.285 54.1531 108.64 54.267 107.779 54.267C105.048 54.267 103.839 52.3954 103.839 49.8727C103.839 47.6586 104.784 46.1613 107.2 46.1613C109.336 46.1613 110.23 47.3493 110.23 49.3349H105.511V49.3349ZM107.134 46.8448C106.124 46.8448 105.627 47.6911 105.561 48.5862H108.591C108.591 47.6748 108.177 46.8448 107.134 46.8448ZM115.826 54.267C114.849 54.267 114.22 53.8438 113.789 53.0138H113.756V57.5716H112.085V46.3403H113.756V47.6097H113.789C114.17 46.7472 114.833 46.1613 115.826 46.1613C118.259 46.1613 118.806 48.2282 118.806 50.2145C118.806 52.1512 118.176 54.2678 115.826 54.2678V54.267ZM115.395 47.2029C113.938 47.2029 113.823 49.1729 113.823 50.2145C113.823 51.2879 113.855 53.323 115.395 53.323C116.819 53.323 116.984 51.2228 116.984 50.2145C116.984 49.1884 116.835 47.2029 115.395 47.2029H115.395ZM124.518 48.8637C124.518 48.0654 124.467 46.8448 123.375 46.8448C122.167 46.8448 121.919 48.4723 121.919 49.3512C121.919 51.0608 122.63 53.4044 124.749 53.4044C125.229 53.4044 125.709 53.2905 126.157 53.1115V53.8764C125.478 54.1205 124.766 54.267 124.054 54.267C121.273 54.267 120.097 52.4767 120.097 49.9053C120.097 47.7237 121.057 46.162 123.442 46.162C125.295 46.162 126.272 47.0238 126.272 48.8629H124.517L124.518 48.8637ZM127.73 54.088V46.3403H129.302V52.1838L132.596 46.3403H134.153V54.088H132.596V48.3917L129.318 54.088H127.73ZM139.286 47.2517V54.088H137.63V47.2517H135.511V46.3403H141.47V47.2517H139.286V47.2517ZM143.673 49.3349C143.673 51.1747 144.55 53.4044 146.735 53.4044C147.249 53.4044 147.762 53.2905 148.242 53.0789V53.8276C147.447 54.1531 146.802 54.267 145.941 54.267C143.209 54.267 142 52.3954 142 49.8727C142 47.6586 142.944 46.1613 145.361 46.1613C147.497 46.1613 148.391 47.3493 148.391 49.3349H143.673V49.3349ZM145.295 46.8448C144.285 46.8448 143.788 47.6911 143.722 48.5862H146.752C146.752 47.6748 146.338 46.8448 145.295 46.8448ZM152.928 47.2517V54.088H151.272V47.2517H149.153V46.3403H155.112V47.2517H152.928" fill="white"></path> </svg> 