<?xml version="1.0" encoding="UTF-8"?> <svg xmlns="http://www.w3.org/2000/svg" width="27" height="56" viewBox="0 0 27 56" fill="none"> <path d="M13.3984 31.92V56H5.39844V0H16.7584C19.9584 0 22.3318 0.693334 23.8784 2.08C25.4251 3.46667 26.1984 5.36 26.1984 7.76L26.2784 26.64C26.2784 28.0267 26.0384 29.1733 25.5584 30.08C25.0784 30.9333 24.4918 31.6 23.7984 32.08C23.1051 32.56 22.3584 32.88 21.5584 33.04C20.7584 33.2 20.0384 33.28 19.3984 33.28C18.7051 33.28 17.9851 33.2267 17.2384 33.12C16.5451 32.96 15.9051 32.7733 15.3184 32.56C14.6784 32.4 14.0384 32.1867 13.3984 31.92ZM13.3984 7.44V25.84C14.5184 26.2133 15.3984 26.3733 16.0384 26.32C16.7318 26.2133 17.2384 26 17.5584 25.68C17.9318 25.3067 18.1718 24.9067 18.2784 24.48C18.3851 24 18.4384 23.5733 18.4384 23.2V11.28C18.4384 9.46667 18.0651 8.21333 17.3184 7.52C16.6251 6.82667 15.3184 6.8 13.3984 7.44Z" fill="black"></path> <path d="M0 38H24.5L22 46H0V38Z" fill="black"></path> </svg> 