<?xml version="1.0" encoding="UTF-8"?> <svg xmlns="http://www.w3.org/2000/svg" width="180" height="53" viewBox="0 0 180 53" fill="none"> <g clip-path="url(#clip0_35_406)"> <path d="M55.7875 15.9019C56.9323 15.9019 58.4146 16.0763 59.3482 16.3383L58.8016 18.8157C58.202 18.6061 57.1622 18.4841 56.3872 18.4841C53.9192 18.4841 53.0029 18.8329 53.0029 22.2003C53.0029 25.5505 53.9192 26.0041 56.3872 26.0041C57.1622 26.0041 58.202 25.864 58.8016 25.6725L59.3482 28.2023C58.3962 28.4463 56.9323 28.6035 55.7875 28.6035C51.8392 28.6035 49.9707 27.1198 49.9707 22.165C49.9707 17.193 51.8392 15.9019 55.7875 15.9019Z" fill="white"></path> <path d="M66.6711 18.6414C66.1959 19.9144 65.6314 21.5552 65.0675 23.2475H68.5925C68.0285 21.5895 67.4992 19.9316 67.1306 18.6414H66.6711ZM69.4033 25.6725H64.3439C64.0277 26.6845 63.7631 27.6088 63.5515 28.3596H60.5195C61.5424 24.9569 63.4638 19.6181 64.8742 16.1992H69.2615C70.4251 20.002 72.2588 25.1837 73.5805 28.3596H70.4425C70.1432 27.644 69.7735 26.7016 69.4033 25.6725Z" fill="white"></path> <path d="M85.3337 16.1987H88.9638V28.3591H86.2153V20.1416C85.2807 22.1827 83.9926 25.289 83.1834 27.3472H80.927C80.1519 25.3233 78.9363 22.095 78.0547 20.1416V28.3591H75.3047V16.1987H79.1117C80.1336 18.2226 81.3497 21.0316 82.2671 23.3175C83.1477 21.0145 84.3633 18.2045 85.3337 16.1987Z" fill="white"></path> <path d="M96.9627 18.6414C96.4869 19.9144 95.923 21.5552 95.359 23.2475H98.884C98.3201 21.5895 97.7892 19.9316 97.4206 18.6414H96.9627ZM99.6943 25.6725H94.6349C94.3183 26.6845 94.0546 27.6088 93.842 28.3596H90.8105C91.8339 24.9569 93.7543 19.6181 95.1647 16.1992H99.553C100.717 20.002 102.55 25.1837 103.872 28.3596H100.734C100.435 27.644 100.065 26.7016 99.6943 25.6725Z" fill="white"></path> <path d="M111.463 22.2527C112.205 22.2527 112.697 21.7467 112.697 20.4728C112.697 19.1474 112.275 18.6062 111.499 18.6062H108.433V22.2527H111.463ZM105.594 28.3596V16.1982H112.45C114.972 16.1982 115.817 17.9782 115.817 20.4728C115.817 22.671 114.759 24.5739 112.469 24.5739H108.433V28.3596H105.594Z" fill="white"></path> <path d="M123.319 15.9019C124.465 15.9019 125.946 16.0763 126.879 16.3383L126.335 18.8157C125.735 18.6061 124.695 18.4841 123.918 18.4841C121.452 18.4841 120.534 18.8329 120.534 22.2003C120.534 25.5505 121.452 26.0041 123.918 26.0041C124.695 26.0041 125.735 25.864 126.335 25.6725L126.879 28.2023C125.928 28.4463 124.465 28.6035 123.319 28.6035C119.371 28.6035 117.504 27.1198 117.504 22.165C117.504 17.193 119.371 15.9019 123.319 15.9019Z" fill="white"></path> <path d="M136.448 28.3591C134.879 23.8931 133.715 22.8983 131.776 22.6887V28.3591H128.939V16.1987H131.776V22.0254C132.764 20.9439 134.544 18.7114 136.112 16.1987H139.496C137.452 19.3394 136.025 21.1536 135.479 21.6595C136.783 22.1474 138.033 23.0727 139.814 28.3591H136.448Z" fill="white"></path> <path d="M152.848 28.3591H150.045V20.3503C148.599 23.0555 147.013 25.8121 145.427 28.3591H141.709V16.1987H144.493V24.5382C146.185 21.7987 147.859 18.9725 149.376 16.1987H152.848V28.3591Z" fill="white"></path> <path d="M160.392 13.1626C160.392 13.9134 160.746 14.0697 161.451 14.0697C162.136 14.0697 162.507 13.9134 162.507 13.1626H164.164C164.164 14.873 163.16 15.6581 161.379 15.6581C159.651 15.6581 158.612 14.873 158.612 13.1626H160.392ZM167.002 28.3597H164.199V20.351C162.754 23.0552 161.169 25.8118 159.582 28.3597H155.863V16.1993H158.648V24.5378C160.339 21.7993 162.015 18.9731 163.53 16.1993H167.002V28.3597Z" fill="white"></path> <path d="M57.6189 36.4561H59.5933C57.9896 40.5038 55.5043 45.4243 53.4769 48.6174H51.2735C51.9078 47.7798 52.7013 46.5935 53.2652 45.5987C52.5065 43.33 50.4111 38.8639 48.9297 36.4561H51.0272C52.1368 38.4103 53.5125 41.2537 54.3921 43.6797C55.6093 41.2718 56.9142 38.5152 57.6189 36.4561Z" fill="white"></path> <path d="M63.5755 48.6174H61.7949V36.4561H63.5755V41.3242H69.4615V36.4561H71.2426V48.6174H69.4615V42.9469H63.5755V48.6174Z" fill="white"></path> <path d="M84.5228 48.6174H82.7595V39.0564C80.9799 42.2666 78.9882 45.634 76.9975 48.6174H74.6172V36.4561H76.3805V46.4535C78.5287 43.1384 80.5572 39.7539 82.3552 36.4561H84.5228V48.6174Z" fill="white"></path> <path d="M94.0371 47.1161C95.112 47.1161 95.5001 46.331 95.5001 45.0751C95.5001 43.7659 95.0238 42.894 93.9657 42.894H89.6835V47.1161H94.0371ZM89.6835 41.4456H93.8964C94.9188 41.4456 95.2344 40.6614 95.2344 39.6667C95.2344 38.5671 94.9361 37.9563 93.8964 37.9563H89.6835V41.4456ZM97.4214 45.2314C97.4214 47.5526 96.2752 48.6169 94.3008 48.6169H87.9023V36.4556H94.16C96.6112 36.4556 97.1211 37.6943 97.1211 39.3522C97.1211 40.8701 96.8218 41.9345 94.6368 42.127C96.9625 42.2308 97.4214 43.4867 97.4214 45.2314Z" fill="white"></path> <path d="M108.995 36.4561V37.9739H102.12V41.429H107.003V42.9288H102.12V47.0985H108.995V48.6174H100.34V36.4561H108.995Z" fill="white"></path> <path d="M117.137 42.8593C118.354 42.8593 118.953 41.9693 118.953 40.5038C118.953 38.8639 118.354 37.9568 117.208 37.9568H113.33V42.8593H117.137ZM111.533 48.6174V36.4561H117.472C120.134 36.4561 120.928 38.2884 120.928 40.5219C120.928 42.5105 119.993 44.3772 117.544 44.3772H113.33V48.6174H111.533Z" fill="white"></path> <path d="M128.673 36.1592C129.783 36.1592 131.212 36.3516 132.145 36.6137L131.703 38.2011C130.999 37.9391 129.783 37.7819 128.884 37.7819C125.994 37.7819 124.919 38.3403 124.919 42.4404C124.919 46.5235 125.994 47.2209 128.884 47.2209C129.783 47.2209 130.999 47.0637 131.703 46.8198L132.145 48.4072C131.193 48.6864 129.783 48.8608 128.673 48.8608C124.813 48.8608 122.98 47.3782 122.98 42.4233C122.98 37.4503 124.813 36.1592 128.673 36.1592Z" fill="white"></path> <path d="M144.508 48.6174H142.744V39.0564C140.963 42.2666 138.973 45.634 136.982 48.6174H134.602V36.4561H136.364V46.4535C138.514 43.1384 140.541 39.7539 142.34 36.4561H144.508V48.6174Z" fill="white"></path> <path d="M151.041 48.6174V37.974H146.83V36.4561H157.052V37.974H152.858V48.6174H151.041Z" fill="white"></path> <path d="M168.034 36.4561V37.9739H161.16V41.429H166.043V42.9288H161.16V47.0985H168.034V48.6174H159.381V36.4561H168.034Z" fill="white"></path> <path d="M173.991 48.6174V37.974H169.777V36.4561H180.001V37.974H175.805V48.6174H173.991Z" fill="white"></path> <path fill-rule="evenodd" clip-rule="evenodd" d="M18.4172 32.6135C18.4172 32.5029 18.3267 32.4124 18.215 32.4115C10.3969 32.3028 4.09291 25.9969 4.09291 18.232C4.09291 10.4662 10.3969 4.16018 18.215 4.05251C18.3267 4.0506 18.4172 3.96103 18.4172 3.84955V0.20296C18.4172 0.148647 18.396 0.097192 18.3565 0.0590774C18.3171 0.0209632 18.2651 0 18.2102 0C8.13386 0.111484 0 8.2308 0 18.232C0 28.2322 8.13386 36.3515 18.2102 36.463C18.2651 36.464 18.3171 36.4421 18.3565 36.4049C18.396 36.3658 18.4172 36.3144 18.4172 36.2601V32.6135Z" fill="white"></path> <path fill-rule="evenodd" clip-rule="evenodd" d="M18.418 48.8186C18.418 48.7081 18.5084 48.6175 18.6201 48.6166C26.4382 48.508 32.7422 42.202 32.7422 34.4371C32.7422 26.6713 26.4382 20.3653 18.6201 20.2577C18.5084 20.2557 18.418 20.1661 18.418 20.0547V16.4091C18.418 16.3547 18.4391 16.3023 18.4786 16.2642C18.5181 16.2261 18.57 16.2051 18.6249 16.2061C28.7013 16.3166 36.8351 24.4359 36.8351 34.4371C36.8351 44.4374 28.7013 52.5575 18.6249 52.668C18.57 52.669 18.5181 52.6483 18.4786 52.61C18.4391 52.5711 18.418 52.5196 18.418 52.4651V48.8186Z" fill="white"></path> <path fill-rule="evenodd" clip-rule="evenodd" d="M18.4149 28.3599C21.8042 28.3599 24.5553 31.0803 24.5553 34.4372C24.5553 37.7284 21.9139 40.4069 18.6161 40.5108C18.5054 40.5146 18.4178 40.6042 18.4178 40.7137V44.3603C18.4178 44.4156 18.439 44.4671 18.4785 44.5052C18.5179 44.5433 18.5718 44.5642 18.6267 44.5633C24.1808 44.4527 28.6482 39.9619 28.6482 34.4372C28.6482 28.843 24.0663 24.3093 18.4149 24.3093C15.0257 24.3084 12.2765 21.5889 12.2765 18.232C12.2765 14.9408 14.9188 12.2614 18.2166 12.1575C18.3273 12.1537 18.4149 12.0641 18.4149 11.9555V8.30798C18.4149 8.25271 18.3928 8.20122 18.3543 8.16311C18.3148 8.125 18.2609 8.10405 18.2061 8.10501C12.6519 8.21555 8.18359 12.7064 8.18359 18.232C8.18359 23.8262 12.7646 28.3599 18.4149 28.3599Z" fill="white"></path> </g> <defs> <clipPath id="clip0_35_406"> <rect width="180" height="53" fill="white"></rect> </clipPath> </defs> </svg> 