<?xml version="1.0" encoding="UTF-8"?> <svg xmlns="http://www.w3.org/2000/svg" width="150" height="51" viewBox="0 0 150 51" fill="none"> <g clip-path="url(#clip0_35_473)"> <path fill-rule="evenodd" clip-rule="evenodd" d="M122.801 13.0359V3.07896H120.788L116.715 9.86841V3.07896H114.721V13.0359H116.715H116.735L120.788 6.27796V13.0359H122.801ZM116.167 1.22179C117.684 2.37738 119.84 2.37738 121.358 1.22179L120.533 0.000488281C119.44 0.798735 118.084 0.798735 116.991 0.000488281L116.167 1.22179Z" fill="white"></path> <path fill-rule="evenodd" clip-rule="evenodd" d="M57.7135 9.73069V6.29368C57.7135 4.13094 56.5663 2.89746 54.439 2.89746C53.6358 2.89746 52.2546 3.2203 51.6917 3.68604C51.5093 3.37739 51.3246 3.05609 50.9095 2.90251L49.6426 4.07898C50.1237 4.40235 50.1392 5.04153 50.1392 5.3229V16.2426H52.1941V12.7628C52.8153 13.0708 53.7961 13.1914 54.2772 13.1914C56.204 13.1914 57.7135 11.9744 57.7135 9.73069ZM55.6391 9.94605C55.6391 10.8154 54.7796 11.3422 53.9967 11.3422C53.3544 11.3422 52.5953 11.0798 52.1941 10.7963V5.61326V5.43091C52.655 4.96517 53.5759 4.70344 54.1172 4.70344C54.9 4.70344 55.6391 5.27093 55.6391 6.13726V9.94605Z" fill="white"></path> <path fill-rule="evenodd" clip-rule="evenodd" d="M76.2465 13.0371V3.05609H69.458V9.23671C69.4599 10.4932 68.6798 11.542 67.5905 11.5723C67.0867 11.5869 66.3136 11.2473 66.3136 10.4771V6.27323C66.3136 4.21138 65.227 2.89746 62.9186 2.89746C61.3534 2.89746 60.1288 3.56397 59.4664 4.25286L60.5501 5.59296C61.2322 4.92577 62.2157 4.66269 62.7179 4.66269C63.4006 4.66269 64.26 4.96628 64.26 5.89602V6.95735H62.5772C60.1693 6.95735 59.1621 8.49741 59.1621 10.1152C59.1621 11.6711 60.0083 13.1914 62.4366 13.1914C63.1798 13.1914 64.1368 12.8131 64.7246 12.2331C65.7042 13.1247 66.6089 13.2875 67.6393 13.2553C69.9746 13.1794 71.4717 11.9118 71.4131 9.16661V4.76223H74.237L74.2362 13.0371H76.2465ZM64.26 10.7451C63.7712 11.3841 62.8768 11.5659 62.1955 11.4438C61.6697 11.3477 61.2308 10.8118 61.2197 10.2393C61.2056 9.50187 61.6675 8.70362 62.7408 8.70222L64.26 8.70088V10.7451Z" fill="white"></path> <path fill-rule="evenodd" clip-rule="evenodd" d="M103.393 13.0461L99.7176 7.77732L103.152 3.07887H100.815L98.2416 6.98383H96.9787V3.05664H94.9648V13.0461H96.9382L96.9577 8.69012H98.2123L101.047 13.0461H103.393Z" fill="white"></path> <path fill-rule="evenodd" clip-rule="evenodd" d="M78.3281 13.0581V3.05615H80.3809V6.4453H81.8338C84.2419 6.4453 85.5187 7.92559 85.4986 9.62818C85.4775 11.3315 84.2871 13.0589 81.8602 13.0589L78.3281 13.0581ZM80.3809 11.3301L82.1083 11.3323C83.016 11.3331 83.3754 10.3299 83.3767 9.66325C83.3781 8.99554 82.9964 8.15226 82.0777 8.15226H80.3809V11.3301Z" fill="white"></path> <path fill-rule="evenodd" clip-rule="evenodd" d="M93.6591 11.9138L92.8164 10.4112C91.6524 11.2405 90.9495 11.4831 90.3664 11.4831C89.5446 11.4831 88.724 11.0587 88.724 10.1896V6.31976C88.724 5.43083 89.5439 4.80304 90.487 4.80304C91.0903 4.80304 91.912 5.16774 92.5147 5.81462L93.5789 4.45365C92.8566 3.56413 91.8327 2.91797 90.2468 2.91797C88.219 2.91797 86.6504 4.17079 86.6504 6.33314V10.0738C86.6504 12.1967 88.2795 13.1908 90.287 13.1908C91.9525 13.1908 93.0768 12.3987 93.6591 11.9138Z" fill="white"></path> <path fill-rule="evenodd" clip-rule="evenodd" d="M112.642 13.0361V3.0791H110.627L106.555 9.86855V3.0791H104.561V13.0361H106.555H106.574L110.627 6.2781V13.0361H112.642Z" fill="white"></path> <path fill-rule="evenodd" clip-rule="evenodd" d="M49.5934 0.000488281H47.2952L45.5212 5.93838C45.4884 6.04856 45.444 6.16793 45.4195 6.28369C45.3952 6.4007 45.3707 6.5026 45.3596 6.58305C45.3478 6.66191 45.3393 6.70882 45.3393 6.71084C45.3393 6.70882 45.3324 6.66749 45.3186 6.5895C45.3053 6.51175 45.2831 6.41138 45.2579 6.29774C45.2335 6.184 45.2043 6.06602 45.1577 5.95883L42.5365 0.000488281H40.1973L44.3968 9.28908L44.1316 9.9632C43.7945 10.7076 42.9105 11.5276 41.3285 11.5944L41.5787 13.2045C43.9053 13.2564 45.4368 12.2165 46.0296 10.4755L49.5934 0.000488281Z" fill="white"></path> <path fill-rule="evenodd" clip-rule="evenodd" d="M149.744 29.9203V19.9654H147.731L143.658 26.7536V19.9654H141.664V29.9203H143.658H143.679L147.731 23.1645V29.9203H149.744ZM143.109 18.1069C144.627 19.2623 146.782 19.2623 148.3 18.1069L147.474 16.8862C146.383 17.6839 145.027 17.6839 143.934 16.8862L143.109 18.1069Z" fill="white"></path> <path fill-rule="evenodd" clip-rule="evenodd" d="M139.583 19.9653H137.568V29.9202H139.583V19.9653Z" fill="white"></path> <path fill-rule="evenodd" clip-rule="evenodd" d="M129.289 29.9661V19.9648H131.344L131.343 23.3541H132.797C135.206 23.3541 136.481 24.835 136.461 26.5364C136.441 28.2395 135.25 29.9675 132.823 29.9661H129.289ZM131.344 28.2382L133.071 28.2404C133.977 28.241 134.338 27.2377 134.338 26.5713C134.34 25.9041 133.96 25.061 133.04 25.061H131.344V28.2382Z" fill="white"></path> <path fill-rule="evenodd" clip-rule="evenodd" d="M51.8217 26.6185V23.1818C51.8217 21.0195 50.8318 19.7856 48.7045 19.7856C48.1313 19.7856 47.5067 19.9518 47.0698 20.2149V18.3374H45.0156V20.2149C44.5788 19.951 43.9541 19.7856 43.3809 19.7856C41.2541 19.7856 40.2637 21.0201 40.2637 23.1818V26.6185C40.2637 28.8622 41.6151 30.0786 43.5416 30.0786C44.0238 30.0786 44.8011 29.8436 45.0156 29.6501V33.1318H47.0698V29.6501C47.2843 29.8436 48.0616 30.0786 48.5444 30.0786C50.4703 30.0786 51.8217 28.8622 51.8217 26.6185ZM45.0156 22.2051V22.2115V22.2156V22.2198V22.2254V22.2309V22.236V22.2409V22.2456V22.252V22.2563V22.262V22.2676V22.2732V22.2781V22.2829V22.2886V22.2942V22.3012V22.3062V22.3111V22.3167V22.3231V22.3293V22.3333V22.3384V22.3448V22.3502V22.3553V22.3609V22.365V22.3714V22.3756V22.3819V22.3869V22.3924V22.3966V22.4022V22.4071V22.4113V22.4162V22.4218V22.4255V22.4303V22.4352V22.4394V22.4449V22.4494V22.4527V22.4569V22.4596V22.464V22.4682V22.4716V22.4752V22.4787V22.4816V22.4843V22.4863V22.4907V22.4926V22.4948V22.4977V22.4999V22.5012V27.6835C44.8177 27.9901 44.4647 28.2299 43.8232 28.2299C43.0401 28.2299 42.3366 27.7032 42.3366 26.8347V23.0266C42.3366 22.1587 42.9197 21.5926 43.702 21.5926C44.2437 21.5926 44.8485 21.8992 45.0156 22.2051ZM49.7472 26.8347C49.7472 27.7026 49.0459 28.2299 48.2631 28.2299C47.6206 28.2299 47.2669 27.9901 47.0698 27.6835V22.5012V22.4999V22.4977V22.4948V22.4926V22.4907V22.4863V22.4843V22.4816V22.4787V22.4752V22.4716V22.4682V22.464V22.4596V22.4569V22.4527V22.4494V22.4449V22.4394V22.4352V22.4303V22.4255V22.4218V22.4162V22.4113V22.4071V22.4022V22.3966V22.3924V22.3869V22.3819V22.3756V22.3714V22.365V22.3609V22.3553V22.3502V22.3448V22.3384V22.3333V22.3293V22.3231V22.3167V22.3111V22.3062V22.3012V22.2942V22.2886V22.2829V22.2781V22.2732V22.2676V22.262V22.2563V22.252V22.2456V22.2409V22.236V22.2309V22.2254V22.2198V22.2156V22.2115V22.2051C47.2369 21.8992 47.8409 21.5926 48.3835 21.5926C49.1657 21.5926 49.7472 22.1596 49.7472 23.0266V26.8347Z" fill="white"></path> <path fill-rule="evenodd" clip-rule="evenodd" d="M61.0251 28.7616L60.1586 27.1988C59.1764 28.0075 58.216 28.2693 57.4119 28.2693C56.4284 28.2693 55.6693 27.7241 55.6693 26.6528V25.729H60.8071V23.3043C60.8071 20.7759 59.219 19.8057 57.3117 19.8057C55.1245 19.8057 53.5957 20.9386 53.5957 23.425V26.7392C53.5957 28.9622 55.0445 30.0785 57.2519 30.0785C58.8777 30.0785 59.862 29.5495 61.0251 28.7616ZM58.7341 22.7838V24.0235H55.6693V22.9261C55.6693 22.036 56.4284 21.5308 57.3117 21.5308C57.8545 21.5308 58.7341 21.8963 58.7341 22.7838Z" fill="white"></path> <path fill-rule="evenodd" clip-rule="evenodd" d="M70.675 28.2421V19.9673H63.8856V25.4696C63.8883 26.7254 63.1584 28.2105 62.0677 28.2421H61.8789V32.3643H63.8355V29.9489H69.7918V32.3643H71.8V28.2421H70.675ZM65.0446 28.2421C65.5497 27.6858 65.8652 26.6238 65.8423 25.5383V21.6741H68.6669L68.6661 28.2421H65.0446Z" fill="white"></path> <path fill-rule="evenodd" clip-rule="evenodd" d="M127.21 29.9202V19.9653H125.197V23.8547H121.124V19.9653H119.129V29.9202H121.124V25.5595H125.197V29.9202H127.21Z" fill="white"></path> <path fill-rule="evenodd" clip-rule="evenodd" d="M89.8488 26.6391V23.2024C89.8488 21.0402 88.701 19.8062 86.5737 19.8062C85.7713 19.8062 84.3885 20.1289 83.8264 20.594C83.6454 20.2853 83.4602 19.9646 83.045 19.8111L81.7773 20.9876C82.2593 21.311 82.2753 21.9501 82.2753 22.2321V33.151H84.328V29.6707C84.9507 29.9779 85.9314 30.0992 86.4128 30.0992C88.3396 30.0992 89.8488 28.8828 89.8488 26.6391ZM87.7747 26.8553C87.7747 27.7232 86.9144 28.2507 86.1314 28.2507C85.4892 28.2507 84.7299 27.9877 84.328 27.7043V22.5218V22.3395C84.7898 21.8744 85.7099 21.6112 86.2528 21.6112C87.0356 21.6112 87.7747 22.1793 87.7747 23.0466V26.8553Z" fill="white"></path> <path fill-rule="evenodd" clip-rule="evenodd" d="M108.381 29.9444V19.9646H101.592V26.1459C101.595 27.4018 100.815 28.45 99.7254 28.4808C99.2223 28.4956 98.4492 28.1561 98.4492 27.3849V23.1812C98.4492 21.1201 97.3612 19.8062 95.0528 19.8062C93.4876 19.8062 92.2638 20.4719 91.6021 21.1608L92.6851 22.5016C93.3672 21.8345 94.3507 21.5719 94.8522 21.5719C95.5356 21.5719 96.3945 21.8757 96.3945 22.8038V23.8668H94.7121C92.3049 23.8668 91.2969 25.4061 91.2969 27.0237C91.2969 28.5797 92.1426 30.0992 94.5723 30.0992C95.3149 30.0992 96.271 29.7212 96.8604 29.1411C97.8384 30.0334 98.7445 30.1955 99.774 30.1625C102.109 30.0881 103.606 28.8197 103.548 26.076V21.6709H106.372L106.371 29.9444H108.381ZM96.3945 27.6538C95.6381 28.6408 93.3867 28.7685 93.3545 27.1473C93.3407 26.4105 93.8031 25.6128 94.8753 25.6114L96.3945 25.6094V27.6538Z" fill="white"></path> <path fill-rule="evenodd" clip-rule="evenodd" d="M110.461 29.9661V19.9648H112.515L112.513 23.3541H113.966C116.375 23.3541 117.652 24.835 117.63 26.5364C117.61 28.2395 116.419 29.9675 113.993 29.9661H110.461ZM112.515 28.2382L114.241 28.2404C115.148 28.241 115.508 27.2377 115.509 26.5713C115.51 25.9041 115.129 25.061 114.209 25.061H112.515V28.2382Z" fill="white"></path> <path fill-rule="evenodd" clip-rule="evenodd" d="M80.5416 28.7616L79.6751 27.1988C78.6914 28.0075 77.7316 28.2693 76.9278 28.2693C75.9443 28.2693 75.1857 27.7241 75.1857 26.6528V25.729H80.3236V23.3043C80.3236 20.7759 78.7346 19.8057 76.8283 19.8057C74.6396 19.8057 73.1113 20.9386 73.1113 23.425V26.7392C73.1113 28.9622 74.5596 30.0785 76.7676 30.0785C78.3935 30.0785 79.377 29.5495 80.5416 28.7616ZM78.25 22.7838V24.0235H75.1857V22.9261C75.1857 22.036 75.9443 21.5308 76.8283 21.5308C77.3701 21.5308 78.25 21.8963 78.25 22.7838Z" fill="white"></path> <path fill-rule="evenodd" clip-rule="evenodd" d="M48.7402 36.876H46.5063L44.4815 44.6161C44.4815 44.6161 44.5024 44.0303 44.2606 43.2018L42.5382 36.876L40.2637 36.8956C40.2637 36.8956 42.9129 45.3331 43.5355 46.8084C43.2312 48.1148 42.5236 48.9826 41.0251 49.1258L41.2202 50.6376C43.4952 50.6321 44.7859 49.4023 45.2548 47.8812L48.7402 36.876Z" fill="white"></path> <path fill-rule="evenodd" clip-rule="evenodd" d="M58.1102 46.8331V36.8765H56.0963V40.7659H52.0235V36.8765H50.0293V46.8331H52.0235V42.4708H56.0963V46.8331H58.1102Z" fill="white"></path> <path fill-rule="evenodd" clip-rule="evenodd" d="M68.2694 46.8331V36.8765H66.2557L62.1824 43.6655V36.8765H60.1895V46.8331H62.1824H62.2032L66.2557 40.0757V46.8331H68.2694Z" fill="white"></path> <path fill-rule="evenodd" clip-rule="evenodd" d="M70.3496 46.8331V36.8765H73.8804C76.3078 36.8765 77.0664 38.3652 77.0309 39.5031C76.9968 40.6412 76.3698 41.2135 75.8237 41.4977C76.4318 41.6682 77.5038 42.4336 77.5024 43.8717C77.5004 45.3072 76.4458 46.8331 74.0197 46.8331H70.3496ZM72.403 38.6045V40.7542H73.8796C74.701 40.7542 74.9259 40.1899 74.9225 39.6919C74.9182 39.1939 74.6082 38.6031 73.911 38.6031L72.403 38.6045ZM72.403 45.1044L74.1304 45.1066C75.0367 45.108 75.3967 44.3775 75.3974 43.7111C75.3982 43.0447 75.017 42.4519 74.0984 42.4519H72.403V45.1044Z" fill="white"></path> <path fill-rule="evenodd" clip-rule="evenodd" d="M115.324 36.876V38.5821H117.824L117.822 46.857H117.952H119.832H119.963L119.963 38.5821H122.46V36.876H115.324Z" fill="white"></path> <path fill-rule="evenodd" clip-rule="evenodd" d="M131.748 36.876V38.5821H134.247L134.246 46.857H134.375H136.256H136.386L136.385 38.5821H138.884V36.876H131.748Z" fill="white"></path> <path fill-rule="evenodd" clip-rule="evenodd" d="M113.833 46.8331V36.8765H111.82L107.746 43.6655V36.8765H105.752V46.8331H107.746H107.766L111.82 40.0757V46.8331H113.833Z" fill="white"></path> <path fill-rule="evenodd" clip-rule="evenodd" d="M95.6602 43.5272V40.0904C95.6602 37.9268 94.5128 36.6948 92.385 36.6948C91.5825 36.6948 90.2013 37.0182 89.6378 37.4827C89.4573 37.1741 89.2719 36.8527 88.8574 36.6989L87.5898 37.8755C88.0712 38.199 88.0864 38.8374 88.0864 39.1193V50.0398H90.1399V46.5593C90.7627 46.8666 91.7434 46.9881 92.2248 46.9881C94.1516 46.9881 95.6602 45.7716 95.6602 43.5272ZM93.5858 43.7426C93.5858 44.6112 92.7263 45.1381 91.9441 45.1381C91.3011 45.1381 90.542 44.8763 90.1399 44.5921V39.41V39.2281C90.601 38.7616 91.5219 38.4998 92.0639 38.4998C92.8467 38.4998 93.5858 39.0668 93.5858 39.9353V43.7426Z" fill="white"></path> <path fill-rule="evenodd" clip-rule="evenodd" d="M104.442 45.6908L103.6 44.188C102.435 45.0173 101.732 45.2601 101.151 45.2601C100.329 45.2601 99.5088 44.8349 99.5088 43.9657V40.0951C99.5088 39.2078 100.329 38.5798 101.271 38.5798C101.873 38.5798 102.696 38.9439 103.298 39.5909L104.362 38.2305C103.64 37.3408 102.615 36.6948 101.031 36.6948C99.0037 36.6948 97.4336 37.9471 97.4336 40.1107V43.8514C97.4336 45.9729 99.0629 46.9669 101.07 46.9669C102.735 46.9669 103.861 46.1757 104.442 45.6908Z" fill="white"></path> <path fill-rule="evenodd" clip-rule="evenodd" d="M130.941 45.6496L130.075 44.088C129.091 44.8962 128.131 45.1586 127.327 45.1586C126.344 45.1586 125.585 44.6121 125.585 43.5401V42.6175H130.723V40.1908C130.723 37.6646 129.134 36.6943 127.227 36.6943C125.039 36.6943 123.512 37.8267 123.512 40.3124V43.6285C123.512 45.8511 124.959 46.9672 127.167 46.9672C128.793 46.9672 129.776 46.4368 130.941 45.6496ZM128.649 39.6717V40.9106H125.585V39.8141C125.585 38.9233 126.344 38.4181 127.227 38.4181C127.769 38.4181 128.649 38.7836 128.649 39.6717Z" fill="white"></path> <path fill-rule="evenodd" clip-rule="evenodd" d="M86.3962 45.6496L85.5299 44.088C84.5469 44.8962 83.5863 45.1586 82.7825 45.1586C81.799 45.1586 81.0404 44.6121 81.0404 43.5401V42.6175H86.1782V40.1908C86.1782 37.6646 84.5894 36.6943 82.683 36.6943C80.4951 36.6943 78.9668 37.8267 78.9668 40.3124V43.6285C78.9668 45.8511 80.4149 46.9672 82.6224 46.9672C84.2487 46.9672 85.2323 46.4368 86.3962 45.6496ZM84.1047 39.6717V40.9106H81.0404V39.8141C81.0404 38.9233 81.799 38.4181 82.683 38.4181C83.2247 38.4181 84.1047 38.7836 84.1047 39.6717Z" fill="white"></path> <mask id="mask0_35_473" style="mask-type:alpha" maskUnits="userSpaceOnUse" x="0" y="0" width="34" height="51"> <path d="M0 2.03665V2.03718C4.07608 2.04194 5.80204 4.90083 7.63457 7.9729L22.6412 33.891C23.3487 35.1847 24.0462 36.7474 24.0251 38.2121C23.9697 42.024 19.0551 43.4197 16.1148 43.5661C13.9627 43.6729 11.8364 43.1648 9.92226 42.2983L8.72752 43.8475C9.42353 46.8378 12.1719 50.4683 15.9485 50.4411C22.5079 50.3943 25.9531 44.3522 28.5901 39.4327L33.4752 30.3167L19.2958 5.82797C17.985 3.63641 20.1356 2.04333 22.4206 2.03034L22.9417 0.000976562H0.522946L0 2.03665Z" fill="white"></path> </mask> <g mask="url(#mask0_35_473)"> <path d="M0 2.03665V2.03718C4.07608 2.04194 5.80204 4.90083 7.63457 7.9729L22.6412 33.891C23.3487 35.1847 24.0462 36.7474 24.0251 38.2121C23.9697 42.024 19.0551 43.4197 16.1148 43.5661C13.9627 43.6729 11.8364 43.1648 9.92226 42.2983L8.72752 43.8475C9.42353 46.8378 12.1719 50.4683 15.9485 50.4411C22.5079 50.3943 25.9531 44.3522 28.5901 39.4327L33.4752 30.3167L19.2958 5.82797C17.985 3.63641 20.1356 2.04333 22.4206 2.03034L22.9417 0.000976562H0.522946L0 2.03665Z" fill="white"></path> <path fill-rule="evenodd" clip-rule="evenodd" d="M0 2.03665V2.03718C4.07608 2.04194 5.80204 4.90083 7.63457 7.9729L22.6412 33.891C23.3487 35.1847 24.0462 36.7474 24.0251 38.2121C23.9697 42.024 19.0551 43.4197 16.1148 43.5661C13.9627 43.6729 11.8364 43.1648 9.92226 42.2983L8.72752 43.8475C9.42353 46.8378 12.1719 50.4683 15.9485 50.4411C22.5079 50.3943 25.9531 44.3522 28.5901 39.4327L33.4752 30.3167L19.2958 5.82797C17.985 3.63641 20.1356 2.04333 22.4206 2.03034L22.9417 0.000976562H0.522946L0 2.03665Z" fill="white"></path> </g> </g> <defs> <clipPath id="clip0_35_473"> <rect width="150" height="51" fill="white"></rect> </clipPath> </defs> </svg> 