<?xml version="1.0" encoding="UTF-8"?> <svg xmlns="http://www.w3.org/2000/svg" width="26" height="24" viewBox="0 0 26 24" fill="none"> <path fill-rule="evenodd" clip-rule="evenodd" d="M16.2078 2H9.65874C3.6818 2 2.2666 3.32675 2.2666 8.93013V15.0699C2.2666 20.6733 3.6818 22 9.65874 22H16.2078C22.1848 22 23.5999 20.6733 23.5999 15.0699V8.93013C23.5999 3.32675 22.1848 2 16.2078 2ZM19.3333 8.36875C19.8023 8.36875 19.9082 8.5957 19.8023 8.90776C19.6371 9.62293 18.2644 11.52 17.8393 12.1076C17.7585 12.2193 17.7119 12.2836 17.7144 12.2836C17.5479 12.539 17.4874 12.6524 17.7144 12.9361C17.7964 13.041 17.9704 13.2011 18.1692 13.384C18.3737 13.5721 18.6044 13.7844 18.7886 13.9858C19.4543 14.695 19.9687 15.2907 20.1049 15.7021C20.226 16.1134 20.0141 16.3262 19.5603 16.3262H18.0019C17.5888 16.3262 17.3759 16.1039 16.9223 15.63C16.7277 15.4268 16.4889 15.1774 16.1711 14.8794C15.2481 14.0425 14.8396 13.929 14.6127 13.929C14.295 13.929 14.2042 14 14.2042 14.4255V15.7446C14.2042 16.0992 14.0831 16.312 13.0845 16.312C11.4353 16.312 9.60466 15.3758 8.3186 13.6312C6.38196 11.078 5.8524 9.14889 5.8524 8.76592C5.8524 8.55315 5.92806 8.35457 6.38196 8.35457H7.95549C8.34886 8.35457 8.50016 8.5106 8.65147 8.92194C9.42309 11.0071 10.7092 12.8368 11.2387 12.8368C11.4353 12.8368 11.5261 12.7517 11.5261 12.2836V10.1276C11.4888 9.51479 11.2613 9.24778 11.0925 9.04979C10.9879 8.92699 10.9059 8.83074 10.9059 8.69499C10.9059 8.52478 11.0571 8.35457 11.2992 8.35457H13.7502C14.0831 8.35457 14.2042 8.52478 14.2042 8.89358V11.8014C14.2042 12.1134 14.3403 12.2269 14.4462 12.2269C14.6429 12.2269 14.8094 12.1134 15.1725 11.773C16.2921 10.5957 17.094 8.7801 17.094 8.7801C17.1999 8.56733 17.3815 8.36875 17.7749 8.36875H19.3333Z" fill="#5C5C5C"></path> </svg> 