<?xml version="1.0" encoding="UTF-8"?> <svg xmlns="http://www.w3.org/2000/svg" width="30" height="30" viewBox="0 0 30 30" fill="none"> <path d="M15 0C13.355 0 12 1.35499 12 3H10H8C6.35503 3 5 4.35503 5 6V24C5 25.645 6.35503 27 8 27H22C23.645 27 25 25.645 25 24V6C25 4.35503 23.645 3 22 3H20H18C18 1.35499 16.645 0 15 0ZM15 2C15.5641 2 16 2.43587 16 3C16 3.56413 15.5641 4 15 4C14.4359 4 14 3.56413 14 3C14 2.43587 14.4359 2 15 2ZM8 5H10C10 6.105 10.895 7 12 7H18C19.105 7 20 6.105 20 5H22C22.565 5 23 5.43497 23 6V24C23 24.565 22.565 25 22 25H8C7.43497 25 7 24.565 7 24V6C7 5.43497 7.43497 5 8 5ZM19.9805 10.9902C19.7207 10.998 19.4741 11.1066 19.293 11.293L18.5859 12H18C17.8675 11.9981 17.7359 12.0226 17.613 12.072C17.49 12.1214 17.3781 12.1948 17.2837 12.2878C17.1893 12.3809 17.1144 12.4918 17.0632 12.614C17.0121 12.7363 16.9858 12.8675 16.9858 13C16.9858 13.1325 17.0121 13.2637 17.0632 13.386C17.1144 13.5082 17.1893 13.6191 17.2837 13.7122C17.3781 13.8052 17.49 13.8786 17.613 13.928C17.7359 13.9774 17.8675 14.0019 18 14H19C19.2652 13.9999 19.5195 13.8946 19.707 13.707L20.707 12.707C20.8515 12.5666 20.9502 12.3857 20.9902 12.1882C21.0301 11.9907 21.0095 11.7857 20.931 11.6001C20.8524 11.4145 20.7196 11.257 20.55 11.1482C20.3804 11.0393 20.1819 10.9843 19.9805 10.9902ZM10 12C9.86749 11.9981 9.73593 12.0226 9.61296 12.072C9.48999 12.1214 9.37807 12.1948 9.2837 12.2878C9.18933 12.3809 9.11439 12.4918 9.06324 12.614C9.0121 12.7363 8.98576 12.8675 8.98576 13C8.98576 13.1325 9.0121 13.2637 9.06324 13.386C9.11439 13.5082 9.18933 13.6191 9.2837 13.7122C9.37807 13.8052 9.48999 13.8786 9.61296 13.928C9.73593 13.9774 9.86749 14.0019 10 14H14C14.1325 14.0019 14.2641 13.9774 14.387 13.928C14.51 13.8786 14.6219 13.8052 14.7163 13.7122C14.8107 13.6191 14.8856 13.5082 14.9368 13.386C14.9879 13.2637 15.0142 13.1325 15.0142 13C15.0142 12.8675 14.9879 12.7363 14.9368 12.614C14.8856 12.4918 14.8107 12.3809 14.7163 12.2878C14.6219 12.1948 14.51 12.1214 14.387 12.072C14.2641 12.0226 14.1325 11.9981 14 12H10ZM19.9805 16.9902C19.7207 16.998 19.4741 17.1066 19.293 17.293L18.5859 18H18C17.8675 17.9981 17.7359 18.0226 17.613 18.072C17.49 18.1214 17.3781 18.1948 17.2837 18.2878C17.1893 18.3809 17.1144 18.4918 17.0632 18.614C17.0121 18.7363 16.9858 18.8675 16.9858 19C16.9858 19.1325 17.0121 19.2637 17.0632 19.386C17.1144 19.5082 17.1893 19.6191 17.2837 19.7122C17.3781 19.8052 17.49 19.8786 17.613 19.928C17.7359 19.9774 17.8675 20.0019 18 20H19C19.2652 19.9999 19.5195 19.8946 19.707 19.707L20.707 18.707C20.8515 18.5666 20.9502 18.3857 20.9902 18.1882C21.0301 17.9907 21.0095 17.7857 20.931 17.6001C20.8524 17.4145 20.7196 17.257 20.55 17.1482C20.3804 17.0393 20.1819 16.9843 19.9805 16.9902V16.9902ZM10 18C9.86749 17.9981 9.73593 18.0226 9.61296 18.072C9.48999 18.1214 9.37807 18.1948 9.2837 18.2878C9.18933 18.3809 9.11439 18.4918 9.06324 18.614C9.0121 18.7363 8.98576 18.8675 8.98576 19C8.98576 19.1325 9.0121 19.2637 9.06324 19.386C9.11439 19.5082 9.18933 19.6191 9.2837 19.7122C9.37807 19.8052 9.48999 19.8786 9.61296 19.928C9.73593 19.9774 9.86749 20.0019 10 20H14C14.1325 20.0019 14.2641 19.9774 14.387 19.928C14.51 19.8786 14.6219 19.8052 14.7163 19.7122C14.8107 19.6191 14.8856 19.5082 14.9368 19.386C14.9879 19.2637 15.0142 19.1325 15.0142 19C15.0142 18.8675 14.9879 18.7363 14.9368 18.614C14.8856 18.4918 14.8107 18.3809 14.7163 18.2878C14.6219 18.1948 14.51 18.1214 14.387 18.072C14.2641 18.0226 14.1325 17.9981 14 18H10Z" fill="#515DC8"></path> </svg> 