<?xml version="1.0" encoding="UTF-8"?> <svg xmlns="http://www.w3.org/2000/svg" width="384" height="396" viewBox="0 0 384 396" fill="none"> <path d="M155.961 51.3755L93.8729 87.1705C71.5329 100.05 60.3629 106.49 52.0057 115.556C47.2598 120.705 43.2191 126.44 39.9846 132.619C34.2888 143.5 32.0802 156.05 27.6632 181.15L15.8255 248.418C9.73093 283.05 6.68366 300.366 12.4027 314.492C15.6028 322.397 20.6589 329.461 27.1574 335.106C38.7713 345.196 56.4482 348.319 91.8021 354.565L232.186 379.367C267.547 385.615 285.227 388.738 299.586 383.236C307.62 380.157 314.783 375.25 320.488 368.917C330.684 357.6 333.729 340.28 339.817 305.64L351.638 238.382C356.05 213.284 358.255 200.734 356.615 188.559C355.683 181.645 353.843 174.872 351.14 168.408C346.38 157.026 338.081 147.149 321.484 127.394L275.325 72.4561C255.459 48.8114 245.526 36.9888 232.672 31.8119C225.45 28.9035 217.691 27.5332 209.912 27.7924C196.066 28.2538 182.698 35.9611 155.961 51.3755Z" fill="#515DC8"></path> </svg> 