<?xml version="1.0" encoding="UTF-8"?> <svg xmlns="http://www.w3.org/2000/svg" width="421" height="150" viewBox="0 0 421 150" fill="none"> <g filter="url(#filter0_d)"> <path d="M20 65C20 34.6243 44.6243 10 75 10H340.454C373.591 10 400.454 36.8629 400.454 70V120H75.0001C44.6244 120 20 95.3757 20 65V65Z" fill="white"></path> <path d="M81.128 60L78.848 54.096H71.744L69.44 60H68L74.744 42.792H76.016L82.592 60H81.128ZM76.136 46.656C76.04 46.432 75.912 46.08 75.752 45.6C75.592 45.12 75.456 44.696 75.344 44.328C75.216 44.76 75.08 45.184 74.936 45.6C74.792 46.016 74.672 46.376 74.576 46.68L72.2 52.824H78.416L76.136 46.656ZM86.0816 60H84.7136V41.76H86.0816V60ZM91.6591 46.8C91.6591 47.264 91.6511 47.76 91.6351 48.288C91.6191 48.8 91.6031 49.216 91.5871 49.536H91.6591C91.9791 48.816 92.5071 48.216 93.2431 47.736C93.9791 47.24 94.8991 46.992 96.0031 46.992C97.6351 46.992 98.9071 47.552 99.8191 48.672C100.747 49.776 101.211 51.416 101.211 53.592C101.211 55.608 100.747 57.224 99.8191 58.44C98.9071 59.64 97.5711 60.24 95.8111 60.24C94.7391 60.24 93.8591 60.024 93.1711 59.592C92.4991 59.144 92.0031 58.592 91.6831 57.936H91.5871L91.3231 60H90.2911V41.76H91.6591V46.8ZM95.8351 48.168C94.3471 48.168 93.2751 48.632 92.6191 49.56C91.9791 50.488 91.6591 51.832 91.6591 53.592V53.76C91.6591 55.488 91.9631 56.808 92.5711 57.72C93.1951 58.616 94.2271 59.064 95.6671 59.064C97.0271 59.064 98.0511 58.592 98.7391 57.648C99.4431 56.688 99.7951 55.328 99.7951 53.568C99.7951 49.968 98.4751 48.168 95.8351 48.168ZM109.53 46.992C110.618 46.992 111.522 47.248 112.242 47.76C112.978 48.256 113.53 48.944 113.898 49.824C114.282 50.704 114.474 51.712 114.474 52.848V53.784H105.354C105.354 55.48 105.746 56.784 106.53 57.696C107.33 58.592 108.466 59.04 109.938 59.04C110.722 59.04 111.41 58.976 112.002 58.848C112.594 58.704 113.242 58.48 113.946 58.176V59.424C113.306 59.712 112.674 59.92 112.05 60.048C111.426 60.176 110.706 60.24 109.89 60.24C107.97 60.24 106.498 59.656 105.474 58.488C104.45 57.32 103.938 55.728 103.938 53.712C103.938 52.416 104.154 51.264 104.586 50.256C105.034 49.248 105.674 48.456 106.506 47.88C107.338 47.288 108.346 46.992 109.53 46.992ZM109.506 48.144C108.338 48.144 107.386 48.536 106.65 49.32C105.93 50.104 105.514 51.216 105.402 52.656H113.058C113.058 51.312 112.762 50.224 112.17 49.392C111.594 48.56 110.706 48.144 109.506 48.144ZM123.181 47.016C123.805 47.016 124.381 47.08 124.909 47.208L124.693 48.48C124.181 48.336 123.653 48.264 123.109 48.264C121.941 48.264 121.013 48.696 120.325 49.56C119.637 50.424 119.293 51.568 119.293 52.992V60H117.925V47.232H119.077L119.221 49.608H119.293C119.613 48.888 120.101 48.28 120.757 47.784C121.413 47.272 122.221 47.016 123.181 47.016ZM130.97 59.064C131.322 59.064 131.658 59.04 131.978 58.992C132.298 58.944 132.578 58.872 132.818 58.776V59.88C132.578 59.976 132.282 60.056 131.93 60.12C131.578 60.2 131.202 60.24 130.802 60.24C129.73 60.24 128.906 59.944 128.33 59.352C127.754 58.76 127.466 57.792 127.466 56.448V48.336H125.57V47.568L127.466 47.112L127.946 44.184H128.834V47.232H132.746V48.336H128.834V56.376C128.834 58.168 129.546 59.064 130.97 59.064ZM143.128 60H141.76V41.76H143.128V60ZM148.058 42.504C148.682 42.504 148.994 42.848 148.994 43.536C148.994 44.24 148.682 44.592 148.058 44.592C147.434 44.592 147.122 44.24 147.122 43.536C147.122 42.848 147.434 42.504 148.058 42.504ZM148.73 47.232V60H147.362V47.232H148.73ZM154.308 51.024C154.308 51.536 154.3 52.072 154.284 52.632C154.268 53.176 154.26 53.712 154.26 54.24H154.284C154.492 54 154.724 53.72 154.98 53.4C155.252 53.08 155.508 52.784 155.748 52.512L160.596 47.232H162.252L157.188 52.704L162.66 60H161.028L156.252 53.592L154.308 55.56V60H152.964V41.76H154.308V51.024ZM169.671 46.992C170.759 46.992 171.663 47.248 172.383 47.76C173.119 48.256 173.671 48.944 174.039 49.824C174.423 50.704 174.615 51.712 174.615 52.848V53.784H165.495C165.495 55.48 165.887 56.784 166.671 57.696C167.471 58.592 168.607 59.04 170.079 59.04C170.863 59.04 171.551 58.976 172.143 58.848C172.735 58.704 173.383 58.48 174.087 58.176V59.424C173.447 59.712 172.815 59.92 172.191 60.048C171.567 60.176 170.847 60.24 170.031 60.24C168.111 60.24 166.639 59.656 165.615 58.488C164.591 57.32 164.079 55.728 164.079 53.712C164.079 52.416 164.295 51.264 164.727 50.256C165.175 49.248 165.815 48.456 166.647 47.88C167.479 47.288 168.487 46.992 169.671 46.992ZM169.647 48.144C168.479 48.144 167.527 48.536 166.791 49.32C166.071 50.104 165.655 51.216 165.543 52.656H173.199C173.199 51.312 172.903 50.224 172.311 49.392C171.735 48.56 170.847 48.144 169.647 48.144ZM186.105 56.616C186.105 57.768 185.673 58.664 184.809 59.304C183.945 59.928 182.729 60.24 181.161 60.24C180.265 60.24 179.473 60.16 178.785 60C178.097 59.856 177.521 59.664 177.057 59.424V58.104C177.617 58.392 178.257 58.632 178.977 58.824C179.697 59 180.433 59.088 181.185 59.088C182.433 59.088 183.337 58.88 183.897 58.464C184.473 58.032 184.761 57.448 184.761 56.712C184.761 56.008 184.465 55.472 183.873 55.104C183.281 54.72 182.409 54.328 181.257 53.928C180.457 53.656 179.753 53.384 179.145 53.112C178.553 52.824 178.089 52.464 177.753 52.032C177.417 51.6 177.249 51.008 177.249 50.256C177.249 49.232 177.665 48.432 178.497 47.856C179.329 47.28 180.441 46.992 181.833 46.992C182.601 46.992 183.313 47.064 183.969 47.208C184.641 47.352 185.257 47.544 185.817 47.784L185.313 48.912C184.817 48.704 184.257 48.528 183.633 48.384C183.009 48.224 182.385 48.144 181.761 48.144C180.753 48.144 179.969 48.32 179.409 48.672C178.849 49.024 178.569 49.536 178.569 50.208C178.569 50.72 178.705 51.128 178.977 51.432C179.249 51.72 179.641 51.968 180.153 52.176C180.665 52.384 181.289 52.616 182.025 52.872C182.793 53.144 183.481 53.424 184.089 53.712C184.697 54 185.185 54.368 185.553 54.816C185.921 55.264 186.105 55.864 186.105 56.616ZM199.15 59.064C199.502 59.064 199.838 59.04 200.158 58.992C200.478 58.944 200.758 58.872 200.998 58.776V59.88C200.758 59.976 200.462 60.056 200.11 60.12C199.758 60.2 199.382 60.24 198.982 60.24C197.91 60.24 197.086 59.944 196.51 59.352C195.934 58.76 195.646 57.792 195.646 56.448V48.336H193.75V47.568L195.646 47.112L196.126 44.184H197.014V47.232H200.926V48.336H197.014V56.376C197.014 58.168 197.726 59.064 199.15 59.064ZM214.386 53.592C214.386 54.936 214.162 56.104 213.714 57.096C213.282 58.088 212.634 58.864 211.77 59.424C210.922 59.968 209.882 60.24 208.65 60.24C207.466 60.24 206.45 59.968 205.602 59.424C204.754 58.88 204.098 58.112 203.634 57.12C203.186 56.112 202.962 54.936 202.962 53.592C202.962 51.528 203.474 49.912 204.498 48.744C205.522 47.576 206.938 46.992 208.746 46.992C209.962 46.992 210.986 47.272 211.818 47.832C212.666 48.376 213.306 49.144 213.738 50.136C214.17 51.128 214.386 52.28 214.386 53.592ZM204.378 53.592C204.378 55.24 204.722 56.568 205.41 57.576C206.114 58.568 207.202 59.064 208.674 59.064C210.162 59.064 211.25 58.56 211.938 57.552C212.626 56.544 212.97 55.224 212.97 53.592C212.97 52.536 212.826 51.6 212.538 50.784C212.25 49.968 211.794 49.328 211.17 48.864C210.546 48.4 209.73 48.168 208.722 48.168C207.282 48.168 206.194 48.648 205.458 49.608C204.738 50.568 204.378 51.896 204.378 53.592ZM229.832 46.992C231.464 46.992 232.736 47.544 233.648 48.648C234.56 49.752 235.016 51.384 235.016 53.544C235.016 55.704 234.536 57.36 233.576 58.512C232.632 59.664 231.336 60.24 229.688 60.24C228.568 60.24 227.664 60 226.976 59.52C226.288 59.04 225.784 58.464 225.464 57.792H225.368C225.4 58.192 225.424 58.632 225.44 59.112C225.456 59.576 225.464 60.008 225.464 60.408V65.664H224.096V47.232H225.224L225.392 49.608H225.464C225.784 48.92 226.296 48.312 227 47.784C227.704 47.256 228.648 46.992 229.832 46.992ZM229.64 48.168C228.216 48.168 227.168 48.616 226.496 49.512C225.824 50.408 225.48 51.696 225.464 53.376V53.616C225.464 55.44 225.792 56.808 226.448 57.72C227.12 58.616 228.152 59.064 229.544 59.064C230.856 59.064 231.856 58.576 232.544 57.6C233.248 56.608 233.6 55.248 233.6 53.52C233.6 51.808 233.264 50.488 232.592 49.56C231.936 48.632 230.952 48.168 229.64 48.168ZM239.832 60H238.464V41.76H239.832V60ZM248.577 47.016C250.017 47.016 251.089 47.368 251.793 48.072C252.497 48.776 252.849 49.888 252.849 51.408V60H251.817L251.577 57.84H251.505C251.041 58.56 250.473 59.144 249.801 59.592C249.145 60.024 248.225 60.24 247.041 60.24C245.809 60.24 244.841 59.936 244.137 59.328C243.433 58.704 243.081 57.816 243.081 56.664C243.081 55.384 243.601 54.416 244.641 53.76C245.681 53.088 247.193 52.712 249.177 52.632L251.505 52.512V51.624C251.505 50.376 251.249 49.488 250.737 48.96C250.241 48.432 249.505 48.168 248.529 48.168C247.873 48.168 247.241 48.256 246.633 48.432C246.025 48.608 245.417 48.84 244.809 49.128L244.377 48.024C244.985 47.736 245.641 47.496 246.345 47.304C247.065 47.112 247.809 47.016 248.577 47.016ZM249.345 53.64C247.713 53.72 246.497 54.008 245.697 54.504C244.913 54.984 244.521 55.704 244.521 56.664C244.521 57.464 244.761 58.072 245.241 58.488C245.737 58.888 246.417 59.088 247.281 59.088C248.609 59.088 249.641 58.712 250.377 57.96C251.113 57.192 251.489 56.136 251.505 54.792V53.544L249.345 53.64ZM254.844 47.232H256.284L259.332 55.152C259.588 55.872 259.812 56.512 260.004 57.072C260.196 57.616 260.348 58.104 260.46 58.536H260.532C260.772 57.736 261.148 56.624 261.66 55.2L264.636 47.232H266.1L260.34 62.256C259.908 63.392 259.396 64.264 258.804 64.872C258.212 65.48 257.412 65.784 256.404 65.784C256.1 65.784 255.82 65.768 255.564 65.736C255.324 65.704 255.1 65.648 254.892 65.568V64.416C255.084 64.48 255.292 64.528 255.516 64.56C255.74 64.608 255.98 64.632 256.236 64.632C256.908 64.632 257.452 64.424 257.868 64.008C258.3 63.592 258.684 62.952 259.02 62.088L259.836 59.952L254.844 47.232ZM279.097 46.992C280.089 46.992 280.913 47.192 281.569 47.592C282.241 47.976 282.777 48.504 283.177 49.176H283.273L283.465 47.232H284.569V60.408C284.569 62.088 284.137 63.4 283.273 64.344C282.409 65.288 281.009 65.76 279.073 65.76C278.113 65.76 277.257 65.68 276.505 65.52C275.769 65.376 275.105 65.168 274.513 64.896V63.576C275.105 63.88 275.793 64.12 276.577 64.296C277.361 64.488 278.209 64.584 279.121 64.584C280.513 64.584 281.545 64.216 282.217 63.48C282.889 62.744 283.225 61.744 283.225 60.48V59.736C283.225 59.4 283.225 59.064 283.225 58.728C283.241 58.376 283.257 58.048 283.273 57.744H283.201C282.465 59.408 281.041 60.24 278.929 60.24C277.281 60.24 275.993 59.68 275.065 58.56C274.137 57.44 273.673 55.824 273.673 53.712C273.673 51.648 274.137 50.016 275.065 48.816C275.993 47.6 277.337 46.992 279.097 46.992ZM279.241 48.168C277.849 48.168 276.809 48.656 276.121 49.632C275.433 50.608 275.089 51.976 275.089 53.736C275.089 55.464 275.433 56.784 276.121 57.696C276.809 58.608 277.801 59.064 279.097 59.064C280.153 59.064 280.977 58.856 281.569 58.44C282.177 58.008 282.601 57.416 282.841 56.664C283.097 55.912 283.225 55.056 283.225 54.096V53.256C283.225 51.64 282.921 50.392 282.313 49.512C281.721 48.616 280.697 48.168 279.241 48.168ZM293.296 47.016C294.736 47.016 295.808 47.368 296.512 48.072C297.216 48.776 297.568 49.888 297.568 51.408V60H296.536L296.296 57.84H296.224C295.76 58.56 295.192 59.144 294.52 59.592C293.864 60.024 292.944 60.24 291.76 60.24C290.528 60.24 289.56 59.936 288.856 59.328C288.152 58.704 287.8 57.816 287.8 56.664C287.8 55.384 288.32 54.416 289.36 53.76C290.4 53.088 291.912 52.712 293.896 52.632L296.224 52.512V51.624C296.224 50.376 295.968 49.488 295.456 48.96C294.96 48.432 294.224 48.168 293.248 48.168C292.592 48.168 291.96 48.256 291.352 48.432C290.744 48.608 290.136 48.84 289.528 49.128L289.096 48.024C289.704 47.736 290.36 47.496 291.064 47.304C291.784 47.112 292.528 47.016 293.296 47.016ZM294.064 53.64C292.432 53.72 291.216 54.008 290.416 54.504C289.632 54.984 289.24 55.704 289.24 56.664C289.24 57.464 289.48 58.072 289.96 58.488C290.456 58.888 291.136 59.088 292 59.088C293.328 59.088 294.36 58.712 295.096 57.96C295.832 57.192 296.208 56.136 296.224 54.792V53.544L294.064 53.64ZM314.995 46.992C316.259 46.992 317.243 47.352 317.947 48.072C318.667 48.792 319.027 49.928 319.027 51.48V60H317.683V51.528C317.683 50.392 317.419 49.552 316.891 49.008C316.379 48.448 315.683 48.168 314.803 48.168C313.587 48.168 312.651 48.528 311.995 49.248C311.339 49.952 311.011 51.048 311.011 52.536V60H309.667V51.528C309.667 50.392 309.403 49.552 308.875 49.008C308.363 48.448 307.667 48.168 306.787 48.168C305.571 48.168 304.635 48.544 303.979 49.296C303.339 50.048 303.019 51.2 303.019 52.752V60H301.651V47.232H302.755L302.947 49.248H303.043C303.363 48.624 303.843 48.096 304.483 47.664C305.139 47.216 305.971 46.992 306.979 46.992C307.907 46.992 308.691 47.192 309.331 47.592C309.971 47.992 310.427 48.584 310.699 49.368H310.771C311.139 48.616 311.683 48.032 312.403 47.616C313.139 47.2 314.003 46.992 314.995 46.992ZM327.944 46.992C329.032 46.992 329.936 47.248 330.656 47.76C331.392 48.256 331.944 48.944 332.312 49.824C332.696 50.704 332.888 51.712 332.888 52.848V53.784H323.768C323.768 55.48 324.16 56.784 324.944 57.696C325.744 58.592 326.88 59.04 328.352 59.04C329.136 59.04 329.824 58.976 330.416 58.848C331.008 58.704 331.656 58.48 332.36 58.176V59.424C331.72 59.712 331.088 59.92 330.464 60.048C329.84 60.176 329.12 60.24 328.304 60.24C326.384 60.24 324.912 59.656 323.888 58.488C322.864 57.32 322.352 55.728 322.352 53.712C322.352 52.416 322.568 51.264 323 50.256C323.448 49.248 324.088 48.456 324.92 47.88C325.752 47.288 326.76 46.992 327.944 46.992ZM327.92 48.144C326.752 48.144 325.8 48.536 325.064 49.32C324.344 50.104 323.928 51.216 323.816 52.656H331.472C331.472 51.312 331.176 50.224 330.584 49.392C330.008 48.56 329.12 48.144 327.92 48.144ZM344.379 56.616C344.379 57.768 343.947 58.664 343.083 59.304C342.219 59.928 341.003 60.24 339.435 60.24C338.539 60.24 337.747 60.16 337.059 60C336.371 59.856 335.795 59.664 335.331 59.424V58.104C335.891 58.392 336.531 58.632 337.251 58.824C337.971 59 338.707 59.088 339.459 59.088C340.707 59.088 341.611 58.88 342.171 58.464C342.747 58.032 343.035 57.448 343.035 56.712C343.035 56.008 342.739 55.472 342.147 55.104C341.555 54.72 340.683 54.328 339.531 53.928C338.731 53.656 338.027 53.384 337.419 53.112C336.827 52.824 336.363 52.464 336.027 52.032C335.691 51.6 335.523 51.008 335.523 50.256C335.523 49.232 335.939 48.432 336.771 47.856C337.603 47.28 338.715 46.992 340.107 46.992C340.875 46.992 341.587 47.064 342.243 47.208C342.915 47.352 343.531 47.544 344.091 47.784L343.587 48.912C343.091 48.704 342.531 48.528 341.907 48.384C341.283 48.224 340.659 48.144 340.035 48.144C339.027 48.144 338.243 48.32 337.683 48.672C337.123 49.024 336.843 49.536 336.843 50.208C336.843 50.72 336.979 51.128 337.251 51.432C337.523 51.72 337.915 51.968 338.427 52.176C338.939 52.384 339.563 52.616 340.299 52.872C341.067 53.144 341.755 53.424 342.363 53.712C342.971 54 343.459 54.368 343.827 54.816C344.195 55.264 344.379 55.864 344.379 56.616ZM349.293 57.48C349.085 58.36 348.821 59.304 348.501 60.312C348.181 61.32 347.837 62.248 347.469 63.096H346.437C347.013 60.968 347.437 59.008 347.709 57.216H349.173L349.293 57.48ZM74.696 89.24C72.984 89.24 71.664 88.696 70.736 87.608C69.824 86.504 69.368 84.88 69.368 82.736C69.368 80.544 69.848 78.872 70.808 77.72C71.768 76.568 73.104 75.992 74.816 75.992C75.888 75.992 76.752 76.232 77.408 76.712C78.08 77.176 78.584 77.744 78.92 78.416H79.016C79 78.048 78.976 77.64 78.944 77.192C78.928 76.728 78.92 76.304 78.92 75.92V70.76H80.288V89H79.184L78.992 86.768H78.92C78.584 87.456 78.08 88.04 77.408 88.52C76.736 89 75.832 89.24 74.696 89.24ZM74.864 88.064C76.336 88.064 77.384 87.616 78.008 86.72C78.632 85.824 78.944 84.528 78.944 82.832V82.616C78.944 80.856 78.632 79.512 78.008 78.584C77.4 77.64 76.384 77.168 74.96 77.168C73.584 77.168 72.544 77.656 71.84 78.632C71.136 79.592 70.784 80.968 70.784 82.76C70.784 84.488 71.12 85.808 71.792 86.72C72.464 87.616 73.488 88.064 74.864 88.064ZM95.1592 82.592C95.1592 83.936 94.9352 85.104 94.4872 86.096C94.0552 87.088 93.4072 87.864 92.5432 88.424C91.6952 88.968 90.6552 89.24 89.4232 89.24C88.2392 89.24 87.2232 88.968 86.3752 88.424C85.5272 87.88 84.8712 87.112 84.4072 86.12C83.9592 85.112 83.7352 83.936 83.7352 82.592C83.7352 80.528 84.2472 78.912 85.2712 77.744C86.2952 76.576 87.7112 75.992 89.5192 75.992C90.7352 75.992 91.7592 76.272 92.5912 76.832C93.4392 77.376 94.0792 78.144 94.5112 79.136C94.9432 80.128 95.1592 81.28 95.1592 82.592ZM85.1512 82.592C85.1512 84.24 85.4952 85.568 86.1832 86.576C86.8872 87.568 87.9752 88.064 89.4472 88.064C90.9352 88.064 92.0232 87.56 92.7112 86.552C93.3992 85.544 93.7432 84.224 93.7432 82.592C93.7432 81.536 93.5992 80.6 93.3112 79.784C93.0232 78.968 92.5672 78.328 91.9432 77.864C91.3192 77.4 90.5032 77.168 89.4952 77.168C88.0552 77.168 86.9672 77.648 86.2312 78.608C85.5112 79.568 85.1512 80.896 85.1512 82.592ZM103.483 75.992C104.571 75.992 105.475 76.248 106.195 76.76C106.931 77.256 107.483 77.944 107.851 78.824C108.235 79.704 108.427 80.712 108.427 81.848V82.784H99.3074C99.3074 84.48 99.6994 85.784 100.483 86.696C101.283 87.592 102.419 88.04 103.891 88.04C104.675 88.04 105.363 87.976 105.955 87.848C106.547 87.704 107.195 87.48 107.899 87.176V88.424C107.259 88.712 106.627 88.92 106.003 89.048C105.379 89.176 104.659 89.24 103.843 89.24C101.923 89.24 100.451 88.656 99.4274 87.488C98.4034 86.32 97.8914 84.728 97.8914 82.712C97.8914 81.416 98.1074 80.264 98.5394 79.256C98.9874 78.248 99.6274 77.456 100.459 76.88C101.291 76.288 102.299 75.992 103.483 75.992ZM103.459 77.144C102.291 77.144 101.339 77.536 100.603 78.32C99.8834 79.104 99.4674 80.216 99.3554 81.656H107.011C107.011 80.312 106.715 79.224 106.123 78.392C105.547 77.56 104.659 77.144 103.459 77.144ZM119.918 85.616C119.918 86.768 119.486 87.664 118.622 88.304C117.758 88.928 116.542 89.24 114.974 89.24C114.078 89.24 113.286 89.16 112.598 89C111.91 88.856 111.334 88.664 110.87 88.424V87.104C111.43 87.392 112.07 87.632 112.79 87.824C113.51 88 114.246 88.088 114.998 88.088C116.246 88.088 117.15 87.88 117.71 87.464C118.286 87.032 118.574 86.448 118.574 85.712C118.574 85.008 118.278 84.472 117.686 84.104C117.094 83.72 116.222 83.328 115.07 82.928C114.27 82.656 113.566 82.384 112.958 82.112C112.366 81.824 111.902 81.464 111.566 81.032C111.23 80.6 111.062 80.008 111.062 79.256C111.062 78.232 111.478 77.432 112.31 76.856C113.142 76.28 114.254 75.992 115.646 75.992C116.414 75.992 117.126 76.064 117.782 76.208C118.454 76.352 119.07 76.544 119.63 76.784L119.126 77.912C118.63 77.704 118.07 77.528 117.446 77.384C116.822 77.224 116.198 77.144 115.574 77.144C114.566 77.144 113.782 77.32 113.222 77.672C112.662 78.024 112.382 78.536 112.382 79.208C112.382 79.72 112.518 80.128 112.79 80.432C113.062 80.72 113.454 80.968 113.966 81.176C114.478 81.384 115.102 81.616 115.838 81.872C116.606 82.144 117.294 82.424 117.902 82.712C118.51 83 118.998 83.368 119.366 83.816C119.734 84.264 119.918 84.864 119.918 85.616ZM128.84 75.992C130.296 75.992 131.408 76.368 132.176 77.12C132.944 77.872 133.328 79.048 133.328 80.648V89H131.984V80.744C131.984 79.528 131.704 78.632 131.144 78.056C130.584 77.464 129.768 77.168 128.696 77.168C125.896 77.168 124.496 78.792 124.496 82.04V89H123.128V76.232H124.232L124.424 78.44H124.52C124.856 77.736 125.392 77.152 126.128 76.688C126.864 76.224 127.768 75.992 128.84 75.992ZM138.294 72.104C138.118 73.016 137.854 73.976 137.502 74.984C137.15 75.976 136.782 76.896 136.398 77.744H135.414C135.622 77.168 135.814 76.536 135.99 75.848C136.166 75.144 136.318 74.448 136.446 73.76C136.59 73.056 136.702 72.424 136.782 71.864H138.15L138.294 72.104ZM144.423 88.064C144.775 88.064 145.111 88.04 145.431 87.992C145.751 87.944 146.031 87.872 146.271 87.776V88.88C146.031 88.976 145.735 89.056 145.383 89.12C145.031 89.2 144.655 89.24 144.255 89.24C143.183 89.24 142.359 88.944 141.783 88.352C141.207 87.76 140.919 86.792 140.919 85.448V77.336H139.023V76.568L140.919 76.112L141.399 73.184H142.287V76.232H146.199V77.336H142.287V85.376C142.287 87.168 142.999 88.064 144.423 88.064ZM156.582 76.592C156.582 76.928 156.574 77.248 156.558 77.552C156.542 77.856 156.518 78.152 156.486 78.44H156.582C156.918 77.736 157.446 77.152 158.166 76.688C158.902 76.224 159.814 75.992 160.902 75.992C162.374 75.992 163.494 76.368 164.262 77.12C165.03 77.872 165.414 79.048 165.414 80.648V89H164.07V80.744C164.07 79.528 163.79 78.632 163.23 78.056C162.67 77.464 161.854 77.168 160.782 77.168C157.982 77.168 156.582 78.792 156.582 82.04V89H155.214V70.76H156.582V76.592ZM174.358 75.992C175.446 75.992 176.35 76.248 177.07 76.76C177.806 77.256 178.358 77.944 178.726 78.824C179.11 79.704 179.302 80.712 179.302 81.848V82.784H170.182C170.182 84.48 170.574 85.784 171.358 86.696C172.158 87.592 173.294 88.04 174.766 88.04C175.55 88.04 176.238 87.976 176.83 87.848C177.422 87.704 178.07 87.48 178.774 87.176V88.424C178.134 88.712 177.502 88.92 176.878 89.048C176.254 89.176 175.534 89.24 174.718 89.24C172.798 89.24 171.326 88.656 170.302 87.488C169.278 86.32 168.766 84.728 168.766 82.712C168.766 81.416 168.982 80.264 169.414 79.256C169.862 78.248 170.502 77.456 171.334 76.88C172.166 76.288 173.174 75.992 174.358 75.992ZM174.334 77.144C173.166 77.144 172.214 77.536 171.478 78.32C170.758 79.104 170.342 80.216 170.23 81.656H177.886C177.886 80.312 177.59 79.224 176.998 78.392C176.422 77.56 175.534 77.144 174.334 77.144ZM184.049 84.032C184.049 83.328 184.105 82.744 184.217 82.28C184.329 81.8 184.529 81.368 184.817 80.984C185.121 80.584 185.545 80.176 186.089 79.76C186.681 79.296 187.169 78.88 187.553 78.512C187.937 78.144 188.225 77.752 188.417 77.336C188.609 76.904 188.705 76.384 188.705 75.776C188.705 74.8 188.401 74.072 187.793 73.592C187.185 73.096 186.369 72.848 185.345 72.848C184.641 72.848 184.001 72.936 183.425 73.112C182.865 73.272 182.305 73.488 181.745 73.76L181.241 72.608C181.913 72.288 182.569 72.048 183.209 71.888C183.865 71.712 184.601 71.624 185.417 71.624C186.841 71.624 187.961 71.984 188.777 72.704C189.609 73.408 190.025 74.424 190.025 75.752C190.025 76.52 189.897 77.176 189.641 77.72C189.401 78.248 189.057 78.728 188.609 79.16C188.161 79.592 187.633 80.04 187.025 80.504C186.545 80.872 186.169 81.224 185.897 81.56C185.641 81.896 185.457 82.264 185.345 82.664C185.249 83.064 185.201 83.56 185.201 84.152V84.488H184.049V84.032ZM183.641 88.064C183.641 87.28 183.993 86.888 184.697 86.888C185.401 86.888 185.753 87.28 185.753 88.064C185.753 88.864 185.401 89.264 184.697 89.264C183.993 89.264 183.641 88.864 183.641 88.064Z" fill="#303844"></path> </g> <defs> <filter id="filter0_d" x="0" y="0" width="420.454" height="150" filterUnits="userSpaceOnUse" color-interpolation-filters="sRGB"> <feFlood flood-opacity="0" result="BackgroundImageFix"></feFlood> <feColorMatrix in="SourceAlpha" type="matrix" values="0 0 0 0 0 0 0 0 0 0 0 0 0 0 0 0 0 0 127 0"></feColorMatrix> <feOffset dy="10"></feOffset> <feGaussianBlur stdDeviation="10"></feGaussianBlur> <feColorMatrix type="matrix" values="0 0 0 0 0 0 0 0 0 0 0 0 0 0 0 0 0 0 0.25 0"></feColorMatrix> <feBlend mode="normal" in2="BackgroundImageFix" result="effect1_dropShadow"></feBlend> <feBlend mode="normal" in="SourceGraphic" in2="effect1_dropShadow" result="shape"></feBlend> </filter> </defs> </svg> 