<?xml version="1.0" encoding="UTF-8"?> <svg xmlns="http://www.w3.org/2000/svg" width="161" height="183" viewBox="0 0 161 183" fill="none"> <path fill-rule="evenodd" clip-rule="evenodd" d="M104.427 183C120.804 156.581 108.876 123.624 66.4928 107.489L68.9786 136.24C55.2964 143.902 50.3039 165.949 58.3879 182.604C1.13143 168.218 -18.0864 103.034 19.1168 55.816C19.1168 55.816 25.8848 83.0058 42.0946 85.1502C30.3759 46.9679 55.4426 9.24369 101.398 0L93.6693 27.8351C112.052 35.788 123.311 61.9368 122.287 80.7573C134.82 78.9044 138.184 55.1082 138.184 55.1082C176.598 90.7921 167.261 168.343 104.427 183Z" fill="url(#paint0_linear)"></path> <defs> <linearGradient id="paint0_linear" x1="80.5" y1="0" x2="80.5" y2="183" gradientUnits="userSpaceOnUse"> <stop stop-color="#FF4845"></stop> <stop offset="1" stop-color="#EE7674"></stop> </linearGradient> </defs> </svg> 