<?xml version="1.0" encoding="UTF-8"?> <svg xmlns="http://www.w3.org/2000/svg" width="72" height="72" viewBox="0 0 72 72" fill="none"> <path fill-rule="evenodd" clip-rule="evenodd" d="M62.5862 71.8556C56.4647 71.9483 16.1486 71.8051 10.3134 71.7209C4.47816 71.6367 1.98577 68.5044 1.98577 63.789C1.98577 61.3388 1.90157 40.1114 1.85105 28.3651H1.74159C1.74159 28.3651 0.748 25.3844 0.38593 24.0119C-0.835003 19.4565 0.756421 15.7937 6.37272 14.1939L13.1089 12.3414L27.2044 21.3342L17.1253 24.1129L21.6133 28.7019H21.7565L14.4898 39.1346L27.1202 39.5304L35.6583 28.8367L47.514 28.9461L39.86 39.8924L52.9029 40.305L62.5946 29.0472L71.68 29.1314C71.68 29.1314 72 60.2862 72 64.5974C71.9747 69.4306 68.7077 71.7546 62.5862 71.8556ZM8.1999 18.3366C4.09083 18.3366 3.89717 24.5592 8.27569 24.5592C12.2669 24.5592 12.2921 18.3366 8.1999 18.3366ZM52.7429 1.63931C54.5954 1.14252 56.0268 0.797289 56.8267 0.569942C62.7209 -0.920439 66.5269 0.485738 67.773 5.10003C67.9499 5.7568 69.0529 9.73115 69.0529 9.73115L64.2029 11.0784L52.7429 1.63931ZM26.5813 8.68705L40.1463 5.01582L52.2798 14.3791L39.6495 17.8819L26.5813 8.68705Z" fill="#1F1F1F"></path> </svg> 