<?xml version="1.0" encoding="UTF-8"?> <svg xmlns="http://www.w3.org/2000/svg" width="70" height="60" viewBox="0 0 70 60" fill="none"> <path fill-rule="evenodd" clip-rule="evenodd" d="M47.0747 31.7035L51.1897 46.4882L69.4111 48.3172C66.5661 53.5347 59.0506 57.4048 47.134 55.885C36.1183 54.4803 34.9571 60 27.4968 60C4.44369 60 0 41.3516 0 41.3516L16.0763 42.9649L15.5808 36.0823C15.5808 36.0823 23.529 26.493 25.4159 9.71745C33.7422 -4.31144 50.688 -1.85024 56.6243 8.84379L46.8856 9.07895C47.5708 11.5981 44.8012 13.9148 42.6184 14.0669L45.2918 21.7115L48.9602 23.8196L41.0749 29.6478L41.7608 31.8759L47.0747 31.7035ZM29.1422 21.341L28.1136 30.2542L36.604 31.728L37.2892 29.4998L29.1422 21.341ZM24.3894 41.1499L25.1284 42.7095C35.0255 42.7095 40.2054 40.5184 40.2054 40.5184L46.1773 43.1205L46.8521 42.0905C42.8655 34.9051 32.0947 35.3531 24.3894 41.1499Z" fill="#4A358F"></path> </svg> 