<?xml version="1.0" encoding="UTF-8"?> <svg xmlns="http://www.w3.org/2000/svg" width="60" height="84" viewBox="0 0 60 84" fill="none"> <path fill-rule="evenodd" clip-rule="evenodd" d="M49.9325 30.9212V27.0666H60L59.8693 31.4503L49.9325 30.9212ZM45.5749 15.9342L51.6964 11.4068L54.3097 15.1568L47.5414 18.9721L45.5749 15.9342ZM53.9895 44.8628L51.4874 48.5475L44.804 43.0009L46.9534 40.0936L53.9895 44.8628ZM35.4421 9.58406L38.7086 0L42.6873 1.55488L38.7544 10.9691L35.4421 9.58406ZM34.4556 33.0314L36.2391 42.4913L29.706 37.6045L25.7862 83.4669L19.9521 82.4869L26.5505 37.0688L18.8023 40.2504L23.1925 31.7574L16.4503 25.5052L25.9821 25.6228L30.5553 17.4564L33.1686 26.4068L42.5501 28.3667L34.4556 33.0314ZM20.3245 1.67247L24.9434 0.895035L26.4983 8.04225L22.9835 8.76742L20.3245 1.67247ZM4.86063 9.76699L7.55227 6.04312L15.0719 13.0009L13.0205 16.0257L4.86063 9.76699ZM7.74172 28.5823L0 28.2622L0.46385 23.4865L7.85279 24.9891L7.74172 28.5823ZM12.1058 41.9621L4.88676 46.9861L2.48911 42.7265L10.172 38.9373L12.1058 41.9621Z" fill="black"></path> </svg> 