<?xml version="1.0" encoding="UTF-8"?> <svg xmlns="http://www.w3.org/2000/svg" width="1600" height="1000" viewBox="0 0 1600 1000" fill="none"> <rect width="1600" height="1000" fill="url(#paint0_linear)"></rect> <path d="M99.9525 748.468C95.8425 752.578 89.1925 752.578 85.0825 748.468C80.9725 744.358 80.9725 737.708 85.0825 733.598C89.1925 729.488 95.8425 729.488 99.9525 733.598C104.053 737.708 104.053 744.358 99.9525 748.468Z" fill="#444EA8"></path> <path opacity="0.55" d="M157.628 912.622C160.748 911.24 162.158 907.59 160.776 904.47C159.394 901.349 155.744 899.939 152.623 901.321C149.502 902.703 148.093 906.353 149.475 909.474C150.857 912.595 154.507 914.004 157.628 912.622Z" fill="#B8D1FF"></path> <path d="M1465.87 92.5475C1463.46 94.9575 1459.54 94.9575 1457.13 92.5475C1454.72 90.1375 1454.72 86.2175 1457.13 83.8075C1459.54 81.3975 1463.46 81.3975 1465.87 83.8075C1468.28 86.2175 1468.28 90.1375 1465.87 92.5475Z" fill="#219653"></path> <path opacity="0.55" d="M1164.55 873.547C1162.14 875.957 1158.22 875.957 1155.81 873.547C1153.4 871.137 1153.4 867.218 1155.81 864.808C1158.22 862.398 1162.14 862.398 1164.55 864.808C1166.96 867.218 1166.96 871.137 1164.55 873.547Z" fill="#B8D1FF"></path> <path opacity="0.55" d="M154.082 117.514C157.386 116.658 159.37 113.286 158.514 109.982C157.658 106.678 154.286 104.694 150.982 105.55C147.678 106.406 145.694 109.778 146.55 113.082C147.406 116.386 150.778 118.37 154.082 117.514Z" fill="#B8D1FF"></path> <path d="M490.753 901.318C488.343 903.728 484.423 903.728 482.013 901.318C479.603 898.908 479.603 894.988 482.013 892.578C484.423 890.168 488.343 890.168 490.753 892.578C493.163 894.988 493.163 898.898 490.753 901.318Z" fill="#6D77D1"></path> <path opacity="0.4" d="M802.547 857.547C800.137 859.957 796.218 859.957 793.808 857.547C791.398 855.137 791.398 851.218 793.808 848.808C796.218 846.398 800.137 846.398 802.547 848.808C804.957 851.228 804.957 855.137 802.547 857.547Z" fill="white"></path> <path d="M58.5475 343.547C56.1375 345.957 52.2175 345.957 49.8075 343.547C47.3975 341.137 47.3975 337.218 49.8075 334.808C52.2175 332.398 56.1375 332.398 58.5475 334.808C60.9575 337.228 60.9575 341.137 58.5475 343.547Z" fill="#6D77D1"></path> <path d="M1148.55 595.547C1146.14 597.957 1142.22 597.957 1139.81 595.547C1137.4 593.137 1137.4 589.218 1139.81 586.808C1142.22 584.398 1146.14 584.398 1148.55 586.808C1150.97 589.218 1150.97 593.127 1148.55 595.547Z" fill="#4B56B8"></path> <path d="M1372.55 235.547C1370.14 237.957 1366.22 237.957 1363.81 235.547C1361.4 233.137 1361.4 229.218 1363.81 226.808C1366.22 224.398 1370.14 224.398 1372.55 226.808C1374.97 229.218 1374.97 233.127 1372.55 235.547Z" fill="#5F6ACC"></path> <path d="M1497.55 421.547C1495.14 423.957 1491.22 423.957 1488.81 421.547C1486.4 419.137 1486.4 415.218 1488.81 412.808C1491.22 410.398 1495.14 410.398 1497.55 412.808C1499.97 415.218 1499.97 419.127 1497.55 421.547Z" fill="#18A29D"></path> <path opacity="0.55" d="M321.613 757.867C319.203 760.277 315.283 760.277 312.873 757.867C310.463 755.457 310.463 751.537 312.873 749.127C315.283 746.717 319.203 746.717 321.613 749.127C324.023 751.537 324.023 755.447 321.613 757.867Z" fill="#B8D1FF"></path> <path opacity="0.55" d="M1526.72 668.44C1532.64 668.44 1537.44 663.64 1537.44 657.72C1537.44 651.8 1532.64 647 1526.72 647C1520.8 647 1516 651.8 1516 657.72C1516 663.64 1520.8 668.44 1526.72 668.44Z" fill="#B8D1FF"></path> <path opacity="0.55" d="M1486.72 233.44C1492.64 233.44 1497.44 228.64 1497.44 222.72C1497.44 216.8 1492.64 212 1486.72 212C1480.8 212 1476 216.8 1476 222.72C1476 228.64 1480.8 233.44 1486.72 233.44Z" fill="#6D77D1"></path> <g opacity="0.2"> <path fill-rule="evenodd" clip-rule="evenodd" d="M277 621.999C277 620.317 275.87 618.999 274 618.999H270.927L270.955 618.923C270.983 618.848 271.061 618.642 271.137 618.442L271.137 618.441L271.137 618.441L271.137 618.441C271.204 618.263 271.27 618.091 271.297 618.018C271.487 617.508 271.626 617.096 271.738 616.689C271.908 616.074 272 615.519 272 614.999C272 613.527 271.092 612.613 269.748 612.222C269.142 612.045 268.615 611.999 268 611.999H267.52L267.22 612.373C266.881 612.795 266.215 613.556 265.447 614.434L265.447 614.434L265.447 614.434C264.03 616.053 262.267 618.068 261.57 619.082C261.39 619.029 261.198 619 261 619H259C257.895 619 257 619.895 257 621V630C257 631.104 257.895 632 259 632H261C261.687 632 262.293 631.653 262.653 631.126C262.957 631.322 263.295 631.486 263.663 631.617C264.505 631.919 265.341 632.011 266.034 631.998L273 631.999C275.755 631.999 277 627.943 277 621.999ZM264.337 629.734C263.452 629.417 263 628.901 263 627.999V621V620.999C263 620.759 263.044 620.546 263.142 620.319C263.316 619.911 264.902 618.102 266.405 616.388L266.405 616.388C267.18 615.503 267.934 614.643 268.46 614.014C268.711 614.033 268.948 614.072 269.189 614.142C269.762 614.309 270 614.548 270 614.999C270 615.316 269.936 615.701 269.81 616.158C269.716 616.499 269.594 616.859 269.423 617.32C269.399 617.385 269.338 617.544 269.274 617.714L269.273 617.715L269.273 617.716L269.273 617.716C269.194 617.923 269.11 618.145 269.079 618.23C268.949 618.581 268.863 618.84 268.805 619.075C268.556 620.075 268.805 620.999 270 620.999H274C274.691 620.999 275 621.359 275 621.999C275 626.79 274.015 629.999 273 629.999H266L265.963 630C265.525 630.007 264.911 629.939 264.337 629.734ZM259 630V621H261V630H259Z" fill="#E3E5F6"></path> </g> <g opacity="0.2"> <path fill-rule="evenodd" clip-rule="evenodd" d="M1206 210C1199.92 210 1195 205.075 1195 199C1195 192.925 1199.92 188 1206 188C1212.07 188 1217 192.925 1217 199C1217 205.075 1212.07 210 1206 210ZM1213.4 204.125C1214.41 202.67 1215 200.904 1215 199C1215 194.029 1210.97 190 1206 190C1201.03 190 1197 194.029 1197 199C1197 200.904 1197.59 202.67 1198.6 204.125C1199.73 202.638 1202.37 202 1206 202C1209.63 202 1212.27 202.638 1213.4 204.125ZM1211.96 205.74C1211.67 204.687 1209.57 204 1206 204C1202.43 204 1200.33 204.687 1200.04 205.74C1201.62 207.146 1203.71 208 1206 208C1208.29 208 1210.38 207.146 1211.96 205.74ZM1206 193C1203.58 193 1202 194.756 1202 197C1202 200.427 1203.76 202 1206 202C1208.22 202 1210 200.48 1210 197.2C1210 194.922 1208.41 193 1206 193ZM1204 197C1204 199.269 1204.82 200 1206 200C1207.18 200 1208 199.298 1208 197.2C1208 195.95 1207.22 195 1206 195C1204.73 195 1204 195.816 1204 197Z" fill="white"></path> </g> <g opacity="0.3"> <path fill-rule="evenodd" clip-rule="evenodd" d="M1334.18 644.53C1334.72 643.763 1334.66 642.955 1334.28 641.502C1333.53 638.629 1333.83 637.054 1336.41 635.189L1337.68 634.279L1337.98 635.804C1338.3 637.424 1338.84 638.427 1340.2 640.355C1340.26 640.431 1340.26 640.431 1340.31 640.508C1342.28 643.285 1343 644.96 1343 648C1343 651.688 1339.27 655 1335 655C1330.73 655 1327 651.689 1327 648C1327 647.931 1327 647.933 1326.99 647.628C1326.9 645.272 1327.33 643.427 1329.1 641.436C1329.47 641.015 1329.89 640.611 1330.37 640.224L1331.42 639.369L1331.93 640.627C1332.3 641.555 1332.74 642.286 1333.23 642.822C1333.65 643.275 1333.96 643.846 1334.18 644.53ZM1330.59 642.762C1329.24 644.295 1328.91 645.661 1328.99 647.552C1329 647.904 1329 647.892 1329 648C1329 650.528 1331.78 653 1335 653C1338.22 653 1341 650.527 1341 648C1341 645.458 1340.43 644.135 1338.68 641.665C1338.63 641.588 1338.63 641.588 1338.57 641.511C1337.51 640.011 1336.87 638.968 1336.46 637.801C1335.77 638.621 1335.81 639.437 1336.22 640.998C1336.97 643.871 1336.67 645.446 1334.09 647.311L1332.61 648.374L1332.5 646.561C1332.43 645.402 1332.17 644.616 1331.77 644.178C1331.37 643.747 1331.01 643.241 1330.68 642.663C1330.65 642.696 1330.62 642.729 1330.59 642.762Z" fill="#EDFAFA"></path> </g> <path fill-rule="evenodd" clip-rule="evenodd" d="M1456.36 882.045L1456.83 881.106C1457.17 880.428 1457.86 880 1458.62 880H1469.38C1470.14 880 1470.83 880.428 1471.17 881.106L1471.64 882.045C1472.37 882.202 1472.97 882.764 1473.16 883.515L1473.66 885.515C1473.93 886.587 1473.28 887.672 1472.2 887.94C1472.09 887.968 1471.98 887.986 1471.87 887.994L1469.87 902H1458.13L1456.13 887.995C1455.1 887.918 1454.28 887.055 1454.28 886C1454.28 885.836 1454.3 885.674 1454.34 885.515L1454.84 883.515C1455.03 882.764 1455.63 882.202 1456.36 882.045ZM1458.15 888H1469.85L1468.13 900H1459.87L1458.15 888ZM1456.78 884H1457.62L1458.62 882H1469.38L1470.38 884H1471.22L1471.72 886H1456.28L1456.78 884Z" fill="#F2C94C"></path> <g opacity="0.4"> <path fill-rule="evenodd" clip-rule="evenodd" d="M1313 471.804L1319.09 468H1327C1328.1 468 1329 467.105 1329 466V454C1329 452.895 1328.1 452 1327 452H1311C1309.9 452 1309 452.895 1309 454V466C1309 467.105 1309.9 468 1311 468H1313V471.804ZM1318.51 466L1315 468.196V466H1311V454H1327V466H1318.51ZM1314 463V461H1321V463H1314ZM1314 457V459H1323V457H1314Z" fill="#FDF8E9"></path> </g> <g opacity="0.2"> <path fill-rule="evenodd" clip-rule="evenodd" d="M212 408C205.925 408 201 403.075 201 397C201 390.925 205.925 386 212 386C218.075 386 223 390.925 223 397C223 403.075 218.075 408 212 408ZM212 406C216.971 406 221 401.971 221 397C221 392.029 216.971 388 212 388C207.029 388 203 392.029 203 397C203 401.971 207.029 406 212 406ZM216.911 400.448L215.275 399.298C214.529 400.358 213.319 401 212 401C210.681 401 209.471 400.358 208.725 399.298L207.089 400.448C208.205 402.035 210.022 403 212 403C213.978 403 215.795 402.035 216.911 400.448ZM214 396V394H216V396H214ZM208 394V396H210V394H208Z" fill="white"></path> </g> <g opacity="0.2"> <path fill-rule="evenodd" clip-rule="evenodd" d="M262 127V130.5L258 133.5V139H262C262 140.105 262.895 141 264 141H266V142H268V141H270C271.105 141 272 140.105 272 139H276V133.5L272 130.5V127C272 123.844 270.086 120 267 120C263.914 120 262 123.844 262 127ZM268 139H270V129V127C270 124.807 268.603 122 267 122C265.397 122 264 124.807 264 127V129V139H266V133H268V139ZM260 134.5L262 133V137H260V134.5ZM272 137V133L274 134.5V137H272ZM267 130C265.895 130 265 129.105 265 128C265 126.895 265.895 126 267 126C268.105 126 269 126.895 269 128C269 129.105 268.105 130 267 130Z" fill="#FDF8E9"></path> </g> <g opacity="0.4"> <path fill-rule="evenodd" clip-rule="evenodd" d="M881.999 77H883.999V81.9775L883.999 82L883.999 82.0214C884 84.474 884.191 85 884.999 85C886.304 85 886.999 84.3832 886.999 82C886.999 76.7107 884.346 74 878.999 74C875.535 74.0004 872.465 76.2303 871.393 79.5243C870.321 82.8182 871.491 86.428 874.291 88.4671C877.092 90.5062 880.886 90.5114 883.692 88.48L884.865 90.1C881.357 92.6393 876.614 92.6328 873.114 90.0839C869.614 87.5349 868.151 83.0228 869.491 78.9053C870.831 74.7878 874.669 72.0005 878.999 72C885.461 72 888.999 75.6156 888.999 82C888.999 85.5449 887.358 87 884.999 87C883.655 87 882.886 86.5667 882.464 85.6049C881.565 86.4689 880.344 87 878.999 87C876.238 87 873.999 84.7614 873.999 82C873.999 79.2386 876.238 77 878.999 77C880.125 77 881.164 77.3719 881.999 77.9996V77ZM881.999 82C881.999 83.6569 880.656 85 878.999 85C877.343 85 875.999 83.6569 875.999 82C875.999 80.3431 877.343 79 878.999 79C880.656 79 881.999 80.3431 881.999 82Z" fill="white"></path> </g> <path d="M82.5475 208.547C80.1375 210.957 76.2175 210.957 73.8075 208.547C71.3975 206.137 71.3975 202.218 73.8075 199.808C76.2175 197.398 80.1375 197.398 82.5475 199.808C84.9575 202.218 84.9575 206.137 82.5475 208.547Z" fill="#FEEDAF"></path> <g opacity="0.4"> <path fill-rule="evenodd" clip-rule="evenodd" d="M56.9999 560.34L67.1446 554H80.3332C82.1742 554 83.6666 552.508 83.6666 550.667V530.667C83.6666 528.826 82.1742 527.333 80.3332 527.333H53.6666C51.8256 527.333 50.3333 528.826 50.3333 530.667V550.667C50.3333 552.508 51.8256 554 53.6666 554H56.9999V560.34ZM66.1886 550.667L60.3332 554.326V550.667H53.6666V530.667H80.3332V550.667H66.1886ZM58.6666 545.667V542.333H70.3332V545.667H58.6666ZM58.6666 535.667V539H73.6666V535.667H58.6666Z" fill="#FDF8E9"></path> </g> <defs> <linearGradient id="paint0_linear" x1="-1.19209e-05" y1="1000" x2="1152.96" y2="-374.884" gradientUnits="userSpaceOnUse"> <stop stop-color="#515DC8"></stop> <stop offset="1" stop-color="#6666CC"></stop> </linearGradient> </defs> </svg> 