<?xml version="1.0" encoding="UTF-8"?> <svg xmlns="http://www.w3.org/2000/svg" width="108" height="108" viewBox="0 0 108 108" fill="none"> <circle cx="54" cy="54" r="54" fill="url(#paint0_linear)"></circle> <path d="M35.3334 57.1468V64.6402C35.3334 66.5868 36.4001 68.4002 38.1067 69.3335L51.4401 76.6135C53.0401 77.4935 54.9601 77.4935 56.5601 76.6135L69.8934 69.3335C71.6001 68.4002 72.6667 66.5868 72.6667 64.6402V57.1468L56.5601 65.9468C54.9601 66.8268 53.0401 66.8268 51.4401 65.9468L35.3334 57.1468ZM51.4401 31.3868L28.9601 43.6535C27.1201 44.6668 27.1201 47.3335 28.9601 48.3468L51.4401 60.6135C53.0401 61.4935 54.9601 61.4935 56.5601 60.6135L78.0001 48.9068V64.6668C78.0001 66.1335 79.2001 67.3335 80.6667 67.3335C82.1334 67.3335 83.3334 66.1335 83.3334 64.6668V47.5735C83.3334 46.5868 82.8001 45.7068 81.9467 45.2268L56.5601 31.3868C54.9601 30.5335 53.0401 30.5335 51.4401 31.3868V31.3868Z" fill="white"></path> <defs> <linearGradient id="paint0_linear" x1="0" y1="108" x2="122.153" y2="88.4555" gradientUnits="userSpaceOnUse"> <stop stop-color="#219653"></stop> <stop offset="1" stop-color="#4AB668"></stop> </linearGradient> </defs> </svg> 