<?xml version="1.0" encoding="UTF-8"?> <svg xmlns="http://www.w3.org/2000/svg" width="26" height="26" viewBox="0 0 26 26" fill="none"> <path fill-rule="evenodd" clip-rule="evenodd" d="M13 26C20.1797 26 26 20.1797 26 13C26 5.8203 20.1797 0 13 0C5.8203 0 0 5.8203 0 13C0 20.1797 5.8203 26 13 26ZM10.3995 17.5043L7.34496 14.4498C6.88501 13.9898 6.88501 13.2468 7.34496 12.7869C7.80491 12.3269 8.54791 12.3269 9.00786 12.7869L11.2369 15.0041L16.9921 9.24877C17.4521 8.78882 18.1951 8.78882 18.655 9.24877C19.115 9.70872 19.115 10.4517 18.655 10.9117L12.0624 17.5043C11.6143 17.9643 10.8595 17.9643 10.3995 17.5043Z" fill="white"></path> </svg> 