<?xml version="1.0" encoding="UTF-8"?> <svg xmlns="http://www.w3.org/2000/svg" width="30" height="30" viewBox="0 0 30 30" fill="none"> <path d="M6.79446 4.80988C5.21222 4.83508 4.4211 4.84768 3.87028 5.25829C3.69233 5.39095 3.53622 5.55064 3.40764 5.73157C3.00965 6.29157 3.01501 7.08277 3.02575 8.66517L3.1091 20.9462C3.11986 22.532 3.12524 23.3249 3.53198 23.8799C3.66337 24.0593 3.82206 24.2169 4.00225 24.347C4.56005 24.75 5.35297 24.75 6.9388 24.75H22.2658C23.8478 24.75 24.6389 24.75 25.1961 24.3483C25.3761 24.2186 25.5348 24.0614 25.6662 23.8826C26.0731 23.3292 26.0805 22.5382 26.0954 20.9562L26.2131 8.42783C26.2284 6.79522 26.2361 5.97891 25.8223 5.41027C25.6888 5.22682 25.5269 5.0659 25.3425 4.93361C24.7712 4.52355 23.955 4.53655 22.3225 4.56256L6.79446 4.80988ZM4.73959 11.4008C4.72421 10.4378 4.71652 9.95626 4.95691 9.61595C5.03452 9.50607 5.12902 9.40915 5.23689 9.32878C5.57101 9.07984 6.05255 9.07533 7.01564 9.06631L22.1104 8.92485C23.0879 8.9157 23.5766 8.91112 23.9175 9.15867C24.0275 9.23855 24.124 9.33547 24.2034 9.44579C24.4495 9.7877 24.4429 10.2764 24.4296 11.2538L24.3021 20.6424C24.2892 21.588 24.2828 22.0608 24.0385 22.3913C23.9596 22.498 23.8645 22.5919 23.7566 22.6693C23.4229 22.9091 22.95 22.9091 22.0044 22.9091H7.18484C6.24125 22.9091 5.76946 22.9091 5.43599 22.6701C5.32823 22.5928 5.23316 22.4992 5.15419 22.3927C4.90986 22.0631 4.90233 21.5914 4.88726 20.6479L4.73959 11.4008Z" fill="#515DC8"></path> <path d="M11.6214 20.3919L15.7808 10.7792L17.4745 10.9837L13.408 20.4985L11.6214 20.3919Z" fill="#515DC8"></path> <path d="M6.2759 15.1424L9.6797 11.6197L10.9496 12.8721L8.62071 15.2824L10.6464 17.9525L9.23659 19.045L6.2759 15.1424Z" fill="#515DC8"></path> <path d="M18.5424 13.3252L19.9522 12.2327L22.9129 16.1353L19.5091 19.658L18.2392 18.4056L20.5681 15.9953L18.5424 13.3252Z" fill="#515DC8"></path> </svg> 