<?xml version="1.0" encoding="UTF-8"?> <svg xmlns="http://www.w3.org/2000/svg" width="108" height="108" viewBox="0 0 108 108" fill="none"> <circle cx="54" cy="54" r="54" fill="url(#paint0_linear)"></circle> <path d="M69.9998 27.3333H37.9998C36.5853 27.3333 35.2288 27.8952 34.2286 28.8953C33.2284 29.8955 32.6665 31.2521 32.6665 32.6666V75.3332C32.6665 76.7477 33.2284 78.1043 34.2286 79.1045C35.2288 80.1047 36.5853 80.6666 37.9998 80.6666H57.1198C57.8236 80.6671 58.5205 80.5284 59.1704 80.2584C59.8203 79.9884 60.4103 79.5924 60.9065 79.0932L73.7598 66.2399C74.2589 65.7438 74.6549 65.1537 74.925 64.5038C75.195 63.8539 75.3337 63.157 75.3332 62.4533V32.6666C75.3332 31.2521 74.7713 29.8955 73.7711 28.8953C72.7709 27.8952 71.4143 27.3333 69.9998 27.3333ZM40.6665 39.3333C40.6665 38.9796 40.807 38.6405 41.057 38.3904C41.3071 38.1404 41.6462 37.9999 41.9998 37.9999H65.9998C66.3535 37.9999 66.6926 38.1404 66.9426 38.3904C67.1927 38.6405 67.3332 38.9796 67.3332 39.3333V41.9999C67.3332 42.3535 67.1927 42.6927 66.9426 42.9427C66.6926 43.1928 66.3535 43.3333 65.9998 43.3333H41.9998C41.6462 43.3333 41.3071 43.1928 41.057 42.9427C40.807 42.6927 40.6665 42.3535 40.6665 41.9999V39.3333ZM55.3332 53.9999H41.9998C41.6462 53.9999 41.3071 53.8594 41.057 53.6094C40.807 53.3593 40.6665 53.0202 40.6665 52.6666V49.9999C40.6665 49.6463 40.807 49.3072 41.057 49.0571C41.3071 48.8071 41.6462 48.6666 41.9998 48.6666H55.3332C55.6868 48.6666 56.0259 48.8071 56.276 49.0571C56.526 49.3072 56.6665 49.6463 56.6665 49.9999V52.6666C56.6665 53.0202 56.526 53.3593 56.276 53.6094C56.0259 53.8594 55.6868 53.9999 55.3332 53.9999ZM56.6665 75.8132V64.6666C56.6665 63.9593 56.9475 63.2811 57.4476 62.781C57.9476 62.2809 58.6259 61.9999 59.3332 61.9999H70.4798L56.6665 75.8132Z" fill="white"></path> <defs> <linearGradient id="paint0_linear" x1="1.59363e-06" y1="106.338" x2="121.535" y2="87.5497" gradientUnits="userSpaceOnUse"> <stop stop-color="#F2994A"></stop> <stop offset="1" stop-color="#FFC960"></stop> </linearGradient> </defs> </svg> 