<?xml version="1.0" encoding="UTF-8"?> <svg xmlns="http://www.w3.org/2000/svg" width="409" height="293" viewBox="0 0 409 293" fill="none"> <rect x="24.1589" y="26.4041" width="360" height="240" rx="15" fill="#93D4D8"></rect> <g filter="url(#filter0_f)"> <rect x="30.5973" y="30.6964" width="347.644" height="231.763" rx="14.4852" fill="#DAFFFE"></rect> </g> <g filter="url(#filter1_f)"> <rect x="33.7657" y="35.7466" width="340.152" height="220.912" rx="14.4969" fill="white"></rect> </g> <path d="M90.6553 81.7259C90.6553 82.8274 90.2647 83.7376 89.4835 84.4563C88.7022 85.1751 87.6436 85.6321 86.3077 85.8274V85.8977C87.878 86.054 89.0811 86.4876 89.9171 87.1985C90.7608 87.9095 91.1827 88.8352 91.1827 89.9759C91.1827 91.554 90.5421 92.8001 89.2608 93.7141C87.9874 94.6282 86.2217 95.0852 83.9639 95.0852C81.4483 95.0852 79.4288 94.7766 77.9053 94.1595V91.1126C78.6397 91.4641 79.4991 91.7415 80.4835 91.9446C81.4756 92.1399 82.4014 92.2376 83.2608 92.2376C86.1436 92.2376 87.585 91.3977 87.585 89.718C87.585 88.9602 87.1202 88.3782 86.1905 87.972C85.2686 87.5657 83.9014 87.3626 82.0889 87.3626H80.4835V84.5266H81.9249C83.7374 84.5266 85.0577 84.3548 85.8858 84.011C86.7139 83.6673 87.128 83.097 87.128 82.3001C87.128 81.7141 86.8663 81.2493 86.3428 80.9055C85.8272 80.554 85.0499 80.3782 84.0108 80.3782C82.4014 80.3782 80.8467 80.843 79.3467 81.7727L77.7647 79.347C78.7413 78.6985 79.7764 78.2259 80.8702 77.929C81.9639 77.6243 83.1788 77.472 84.5147 77.472C86.3819 77.472 87.8702 77.8626 88.9796 78.6438C90.0967 79.4251 90.6553 80.4524 90.6553 81.7259ZM102.421 94.8509L101.73 93.0696H101.636C101.034 93.8274 100.413 94.3548 99.7725 94.6516C99.1397 94.9407 98.3116 95.0852 97.2881 95.0852C96.0303 95.0852 95.0381 94.7259 94.3116 94.0071C93.5928 93.2884 93.2335 92.2649 93.2335 90.9368C93.2335 89.5462 93.7178 88.5227 94.6866 87.8665C95.6631 87.2024 97.1319 86.8352 99.0928 86.7649L101.366 86.6946V86.1204C101.366 84.7923 100.687 84.1282 99.3272 84.1282C98.2803 84.1282 97.0499 84.4446 95.6358 85.0774L94.4522 82.6634C95.96 81.8743 97.6319 81.4798 99.4678 81.4798C101.226 81.4798 102.573 81.8626 103.511 82.6282C104.448 83.3938 104.917 84.5579 104.917 86.1204V94.8509H102.421ZM101.366 88.7805L99.9835 88.8274C98.9444 88.8587 98.171 89.0462 97.6631 89.3899C97.1553 89.7337 96.9014 90.2571 96.9014 90.9602C96.9014 91.968 97.4796 92.472 98.6358 92.472C99.4639 92.472 100.124 92.2337 100.616 91.7571C101.116 91.2805 101.366 90.6477 101.366 89.8587V88.7805ZM112.183 81.7493V86.7884H117.175V81.7493H120.749V94.8509H117.175V89.4485H112.183V94.8509H108.608V81.7493H112.183ZM126.491 94.8509H122.624L126.151 89.6712C125.308 89.3196 124.667 88.8118 124.23 88.1477C123.8 87.4837 123.585 86.7024 123.585 85.804C123.585 84.5384 124.058 83.5462 125.003 82.8274C125.956 82.1087 127.253 81.7493 128.894 81.7493H134.987V94.8509H131.413V89.9759H129.444L126.491 94.8509ZM127.089 85.8274C127.089 86.3743 127.304 86.804 127.733 87.1165C128.163 87.4212 128.726 87.5735 129.421 87.5735H131.413V84.2688H128.964C128.378 84.2688 127.917 84.4134 127.581 84.7024C127.253 84.9837 127.089 85.3587 127.089 85.8274ZM149.565 81.7493V84.4329H145.276V94.8509H141.702V84.4329H137.401V81.7493H149.565ZM155.472 81.7493V86.929C155.472 87.4759 155.382 88.8118 155.202 90.9368L161.249 81.7493H165.55V94.8509H162.093V89.6243C162.093 88.6946 162.171 87.3821 162.327 85.6868L156.304 94.8509H152.015V81.7493H155.472ZM174.737 84.0462C173.98 84.0462 173.386 84.2884 172.956 84.7727C172.526 85.2493 172.28 85.929 172.218 86.8118H177.233C177.218 85.929 176.987 85.2493 176.542 84.7727C176.097 84.2884 175.495 84.0462 174.737 84.0462ZM175.241 95.0852C173.132 95.0852 171.483 94.5032 170.296 93.3391C169.108 92.1751 168.515 90.5266 168.515 88.3938C168.515 86.1985 169.062 84.5032 170.155 83.3079C171.257 82.1048 172.776 81.5032 174.714 81.5032C176.565 81.5032 178.007 82.0305 179.038 83.0852C180.069 84.1399 180.585 85.597 180.585 87.4563V89.1907H172.136C172.175 90.2063 172.476 90.9993 173.038 91.5696C173.601 92.1399 174.39 92.4251 175.405 92.4251C176.194 92.4251 176.94 92.343 177.644 92.179C178.347 92.0149 179.081 91.7532 179.847 91.3938V94.1595C179.222 94.472 178.554 94.7024 177.843 94.8509C177.132 95.0071 176.265 95.0852 175.241 95.0852ZM192.573 88.2766C192.573 89.5735 192.784 90.554 193.206 91.218C193.636 91.8821 194.331 92.2141 195.292 92.2141C196.245 92.2141 196.929 91.886 197.343 91.2298C197.765 90.5657 197.976 89.5813 197.976 88.2766C197.976 86.9798 197.765 86.0071 197.343 85.3587C196.921 84.7102 196.23 84.386 195.269 84.386C194.315 84.386 193.628 84.7102 193.206 85.3587C192.784 85.9993 192.573 86.972 192.573 88.2766ZM201.632 88.2766C201.632 90.4095 201.069 92.0774 199.944 93.2805C198.819 94.4837 197.253 95.0852 195.245 95.0852C193.987 95.0852 192.878 94.8118 191.917 94.2649C190.956 93.7102 190.218 92.9173 189.702 91.886C189.187 90.8548 188.929 89.6516 188.929 88.2766C188.929 86.136 189.487 84.472 190.605 83.2845C191.722 82.097 193.292 81.5032 195.315 81.5032C196.573 81.5032 197.683 81.7766 198.644 82.3235C199.605 82.8704 200.343 83.6555 200.858 84.679C201.374 85.7024 201.632 86.9016 201.632 88.2766ZM215.308 81.7493V84.4329H211.019V94.8509H207.444V84.4329H203.144V81.7493H215.308Z" fill="#19436D"></path> <path d="M243.562 79.6868L236.965 94.8509H233.391L240 80.5305H231.516V77.7884H243.562V79.6868ZM257.438 94.8509H245.742V92.5305L251.262 86.6477C252.02 85.8196 252.578 85.097 252.938 84.4798C253.305 83.8626 253.488 83.2766 253.488 82.722C253.488 81.9641 253.297 81.3704 252.914 80.9407C252.531 80.5032 251.984 80.2845 251.273 80.2845C250.508 80.2845 249.902 80.5501 249.457 81.0813C249.02 81.6048 248.801 82.2962 248.801 83.1555H245.402C245.402 82.1165 245.648 81.1673 246.141 80.3079C246.641 79.4485 247.344 78.7766 248.25 78.2923C249.156 77.8001 250.184 77.554 251.332 77.554C253.09 77.554 254.453 77.9759 255.422 78.8196C256.398 79.6634 256.887 80.8548 256.887 82.3938C256.887 83.2376 256.668 84.097 256.23 84.972C255.793 85.847 255.043 86.8665 253.98 88.0305L250.102 92.1204H257.438V94.8509ZM271.008 87.7962C271.008 90.1555 270.52 91.9602 269.543 93.2102C268.566 94.4602 267.137 95.0852 265.254 95.0852C263.395 95.0852 261.973 94.472 260.988 93.2454C260.004 92.0188 259.5 90.261 259.477 87.972V84.8313C259.477 82.4485 259.969 80.6399 260.953 79.4055C261.945 78.1712 263.371 77.554 265.23 77.554C267.09 77.554 268.512 78.1673 269.496 79.3938C270.48 80.6126 270.984 82.3665 271.008 84.6555V87.7962ZM267.621 84.3509C267.621 82.9368 267.426 81.9095 267.035 81.2688C266.652 80.6204 266.051 80.2962 265.23 80.2962C264.434 80.2962 263.844 80.6048 263.461 81.222C263.086 81.8313 262.887 82.7884 262.863 84.093V88.2415C262.863 89.6321 263.051 90.6673 263.426 91.347C263.809 92.0188 264.418 92.3548 265.254 92.3548C266.082 92.3548 266.68 92.0305 267.047 91.3821C267.414 90.7337 267.605 89.7415 267.621 88.4055V84.3509ZM282.363 92.5774H278.637V94.8509H275.121V92.5774H272.742V89.7298H275.121V88.8391H272.742V85.9915H275.121V77.7884H281.754C283.035 77.7884 284.16 78.0188 285.129 78.4798C286.098 78.9407 286.848 79.6009 287.379 80.4602C287.918 81.3118 288.188 82.2845 288.188 83.3782C288.188 85.0657 287.613 86.3977 286.465 87.3743C285.324 88.3509 283.734 88.8391 281.695 88.8391H278.637V89.7298H282.363V92.5774ZM278.637 85.9915H281.672C283.641 85.9915 284.625 85.1282 284.625 83.4016C284.625 82.5813 284.375 81.9212 283.875 81.4212C283.375 80.9134 282.684 80.6555 281.801 80.6477H278.637V85.9915Z" fill="#19436D"></path> <line x1="225.686" y1="85.351" x2="289.065" y2="86.3047" stroke="#FFE148" stroke-width="3"></line> <path d="M92.205 126.107C96.909 126.107 100.365 127.099 102.573 129.083C104.813 131.035 105.933 133.611 105.933 136.811C105.933 138.923 105.373 140.875 104.253 142.667C103.165 144.427 101.469 145.867 99.165 146.987C96.861 148.075 93.997 148.619 90.573 148.619C88.205 148.619 85.837 148.363 83.469 147.851C81.133 147.339 79.085 146.587 77.325 145.595L81.165 137.243C82.573 138.043 84.045 138.651 85.581 139.067C87.149 139.483 88.669 139.691 90.141 139.691C91.453 139.691 92.509 139.467 93.309 139.019C94.141 138.539 94.557 137.883 94.557 137.051C94.557 136.251 94.189 135.659 93.453 135.275C92.717 134.859 91.389 134.651 89.469 134.651H79.725L81.405 114.251H103.725V122.795H90.717L90.477 126.107H92.205ZM136.095 114.251V121.211L124.911 147.851H112.527L123.183 123.035H116.703V127.931H107.343V114.251H136.095ZM152.943 148.619C149.967 148.619 147.327 147.931 145.023 146.555C142.751 145.147 140.959 143.131 139.647 140.507C138.367 137.851 137.727 134.699 137.727 131.051C137.727 127.403 138.367 124.267 139.647 121.643C140.959 118.987 142.751 116.971 145.023 115.595C147.327 114.187 149.967 113.483 152.943 113.483C155.919 113.483 158.543 114.187 160.815 115.595C163.119 116.971 164.911 118.987 166.191 121.643C167.503 124.267 168.159 127.403 168.159 131.051C168.159 134.699 167.503 137.851 166.191 140.507C164.911 143.131 163.119 145.147 160.815 146.555C158.543 147.931 155.919 148.619 152.943 148.619ZM152.943 139.547C155.503 139.547 156.783 136.715 156.783 131.051C156.783 125.387 155.503 122.555 152.943 122.555C150.383 122.555 149.103 125.387 149.103 131.051C149.103 136.715 150.383 139.547 152.943 139.547ZM186.657 137.099V139.595H196.737V144.971H186.657V147.851H175.329V144.971H171.009V139.595H175.329V114.251H191.505C196.305 114.251 200.049 115.211 202.737 117.131C205.457 119.019 206.817 121.867 206.817 125.675C206.817 129.483 205.457 132.347 202.737 134.267C200.049 136.155 196.305 137.099 191.505 137.099H186.657ZM195.393 125.819C195.393 124.891 195.041 124.187 194.337 123.707C193.633 123.227 192.641 122.987 191.361 122.987H186.657V128.651H191.361C192.641 128.651 193.633 128.411 194.337 127.931C195.041 127.451 195.393 126.747 195.393 125.819Z" fill="#19436D"></path> <g clip-path="url(#clip0)"> <path d="M171.503 198.95L169.99 208.539C169.359 212.669 169.028 216.84 168.998 221.018L170.481 211.442C170.527 207.259 170.868 203.085 171.503 198.95V198.95Z" fill="url(#paint0_linear)"></path> <path d="M345.151 134.539C341.58 133.759 274.6 117.226 222.816 140.107C183.256 157.588 170.752 183.083 170.483 211.441C198.1 228.098 229.684 234.106 269.237 216.657C321.019 193.744 343.906 137.546 345.151 134.539Z" fill="#71EB8E"></path> <path d="M170.481 211.441L168.998 221.017C196.583 237.676 228.198 243.671 267.729 226.203C283.06 219.449 295.511 209.525 306.208 199.483C336.485 171.023 345.149 134.539 345.149 134.539C343.903 137.546 321.016 193.744 269.235 216.657C229.684 234.137 198.068 228.132 170.504 211.471L170.481 211.441Z" fill="url(#paint1_linear)"></path> <path d="M199.614 176.373C198.586 176.864 197.656 176.962 196.822 176.668C195.992 176.36 195.286 175.596 194.703 174.375C194.3 173.533 194.116 172.778 194.149 172.111C194.182 171.443 194.39 170.863 194.775 170.369C195.168 169.871 195.697 169.463 196.362 169.145C196.834 168.92 197.265 168.771 197.654 168.698C198.052 168.622 198.412 168.585 198.733 168.586L198.871 170.305C198.52 170.328 198.196 170.363 197.899 170.412C197.61 170.457 197.339 170.54 197.087 170.661C196.11 171.127 195.953 172.056 196.617 173.445C196.947 174.136 197.316 174.585 197.726 174.793C198.144 174.996 198.585 174.988 199.048 174.766C199.444 174.577 199.769 174.36 200.024 174.114C200.275 173.86 200.499 173.571 200.697 173.249L201.463 174.854C201.265 175.176 201.025 175.451 200.741 175.68C200.469 175.913 200.094 176.144 199.614 176.373ZM204.466 165.429L206.537 164.44L205.39 169.053L210.072 171.222L207.937 172.242L203.449 170.089L205.12 173.588L203.238 174.487L199.943 167.59L201.825 166.69L203.425 170.038L204.466 165.429ZM210.887 165.713C210.956 165.856 211.032 166.037 211.115 166.256C211.208 166.47 211.297 166.691 211.385 166.918C211.481 167.141 211.561 167.341 211.625 167.517C211.689 167.694 211.732 167.818 211.756 167.889L212.628 161.53L214.89 160.45L218.184 167.347L216.365 168.216L215.05 165.462C214.941 165.235 214.831 164.983 214.719 164.705C214.603 164.419 214.497 164.154 214.401 163.91C214.31 163.654 214.238 163.461 214.186 163.33L213.321 169.671L211.059 170.751L207.765 163.853L209.584 162.984L210.887 165.713ZM223.059 156.547L225.696 162.068L226.707 161.585L228.548 165.438L226.855 166.247L225.672 163.771L221.036 165.985L222.219 168.461L220.526 169.27L218.685 165.417L219.266 165.139C219.348 164.531 219.354 163.882 219.283 163.192C219.208 162.494 219.072 161.777 218.877 161.043C218.681 160.309 218.45 159.587 218.183 158.877L223.059 156.547ZM220.438 159.537C220.703 160.352 220.912 161.147 221.065 161.922C221.214 162.688 221.272 163.447 221.237 164.198L223.814 162.967L221.853 158.861L220.438 159.537ZM229.768 153.343L231.84 152.353L230.692 156.966L235.375 159.136L233.24 160.156L228.751 158.002L230.423 161.501L228.54 162.401L225.246 155.503L227.128 154.604L228.727 157.952L229.768 153.343ZM235.83 150.276C236.757 149.834 237.561 149.698 238.242 149.869C238.928 150.027 239.469 150.519 239.863 151.345L242.059 155.943L240.745 156.57L239.933 155.811L239.882 155.835C239.764 156.346 239.581 156.764 239.333 157.09C239.085 157.415 238.675 157.715 238.102 157.988C237.488 158.282 236.894 158.348 236.32 158.188C235.743 158.019 235.278 157.564 234.924 156.823C234.574 156.09 234.573 155.428 234.922 154.837C235.266 154.238 235.945 153.677 236.956 153.152L238.138 152.541L237.993 152.238C237.82 151.876 237.597 151.657 237.322 151.581C237.057 151.501 236.755 151.541 236.418 151.702C236.082 151.863 235.777 152.07 235.506 152.324C235.23 152.57 234.966 152.841 234.714 153.137L233.486 152.156C233.764 151.786 234.1 151.439 234.494 151.116C234.897 150.79 235.342 150.51 235.83 150.276ZM237.942 154.015C237.344 154.322 236.975 154.632 236.836 154.947C236.697 155.262 236.705 155.583 236.862 155.912C236.999 156.198 237.182 156.364 237.411 156.41C237.635 156.448 237.883 156.402 238.152 156.273C238.556 156.08 238.841 155.799 239.006 155.431C239.168 155.054 239.144 154.646 238.934 154.208L238.663 153.64L237.942 154.015ZM250.175 143.595L252.812 149.115L253.823 148.632L255.664 152.485L253.971 153.294L252.788 150.818L248.152 153.033L249.335 155.509L247.642 156.317L245.801 152.464L246.382 152.187C246.464 151.579 246.47 150.93 246.399 150.239C246.324 149.541 246.188 148.825 245.993 148.091C245.797 147.356 245.566 146.634 245.299 145.924L250.175 143.595ZM247.554 146.585C247.819 147.399 248.028 148.194 248.181 148.969C248.33 149.736 248.387 150.494 248.353 151.245L250.93 150.014L248.969 145.909L247.554 146.585ZM260.269 142.993C260.816 144.139 260.935 145.168 260.627 146.081C260.326 146.99 259.658 147.691 258.622 148.186C257.982 148.492 257.343 148.627 256.705 148.59C256.075 148.549 255.491 148.332 254.951 147.938C254.407 147.536 253.952 146.952 253.586 146.186C253.039 145.04 252.918 144.017 253.222 143.117C253.526 142.216 254.2 141.517 255.245 141.018C255.893 140.708 256.532 140.574 257.162 140.614C257.792 140.655 258.376 140.872 258.916 141.266C259.452 141.651 259.903 142.227 260.269 142.993ZM255.506 145.268C255.832 145.951 256.189 146.416 256.577 146.665C256.969 146.902 257.418 146.9 257.923 146.658C258.42 146.421 258.696 146.077 258.75 145.627C258.808 145.165 258.675 144.593 258.349 143.911C258.023 143.228 257.666 142.773 257.277 142.545C256.894 142.304 256.449 142.305 255.944 142.546C255.447 142.783 255.167 143.129 255.105 143.583C255.047 144.024 255.18 144.586 255.506 145.268Z" fill="#19436D"></path> <g filter="url(#filter2_d)"> <path d="M191.98 210.037L205.175 203.734L207.959 209.562L194.764 215.865L191.98 210.037ZM222.113 191.577C225.196 190.677 227.899 190.703 230.224 191.654C232.534 192.574 234.275 194.261 235.448 196.717C236.354 198.613 236.696 200.607 236.473 202.698C236.236 204.758 235.321 206.76 233.73 208.704C232.17 210.633 229.914 212.302 226.961 213.713C224.661 214.811 222.25 215.6 219.73 216.078C217.227 216.511 214.93 216.539 212.842 216.162L213.017 208.978C214.706 209.316 216.485 209.364 218.354 209.12C220.238 208.831 222.036 208.277 223.745 207.461C225.641 206.555 226.963 205.485 227.709 204.25C228.441 202.985 228.487 201.684 227.849 200.347C226.572 197.674 223.897 197.31 219.826 199.255L216.375 200.903L213.992 195.914L217.076 185.107L203.182 191.744L200.287 185.683L223.133 174.77L225.471 179.666L222.113 191.577ZM257.956 198.907C255.252 200.198 252.524 200.681 249.772 200.354C247.02 200.027 244.436 198.894 242.022 196.956C239.623 194.971 237.585 192.222 235.907 188.71C234.229 185.198 233.379 181.901 233.358 178.819C233.353 175.691 234.088 172.954 235.563 170.608C237.038 168.261 239.128 166.442 241.832 165.151C244.536 163.859 247.264 163.376 250.016 163.703C252.768 164.03 255.344 165.186 257.743 167.171C260.157 169.109 262.204 171.835 263.882 175.347C265.559 178.86 266.401 182.18 266.406 185.308C266.428 188.389 265.701 191.104 264.226 193.45C262.75 195.796 260.661 197.615 257.956 198.907ZM254.905 192.519C256.895 191.569 258.04 189.972 258.343 187.728C258.676 185.469 257.989 182.552 256.282 178.977C254.574 175.403 252.737 173.036 250.77 171.875C248.835 170.7 246.872 170.588 244.883 171.538C242.925 172.474 241.779 174.071 241.446 176.33C241.143 178.574 241.846 181.483 243.553 185.058C245.261 188.632 247.082 191.007 249.018 192.182C250.985 193.342 252.947 193.455 254.905 192.519ZM275.728 171.292C273.335 172.435 270.99 172.562 268.695 171.673C266.416 170.739 264.624 168.904 263.317 166.168C262.01 163.433 261.717 160.901 262.437 158.572C263.173 156.197 264.738 154.438 267.131 153.295C269.525 152.151 271.861 152.047 274.14 152.982C276.404 153.885 278.189 155.705 279.496 158.44C280.802 161.176 281.103 163.723 280.398 166.083C279.678 168.412 278.122 170.148 275.728 171.292ZM286.752 144.38L292.3 141.73L285.604 185.013L280.055 187.663L286.752 144.38ZM273.902 167.468C274.959 166.964 275.575 166.135 275.749 164.983C275.955 163.815 275.65 162.377 274.833 160.667C274.017 158.958 273.09 157.816 272.052 157.243C271.046 156.655 270.014 156.613 268.958 157.118C267.932 157.608 267.323 158.452 267.132 159.65C266.926 160.818 267.224 162.241 268.026 163.919C268.828 165.597 269.755 166.739 270.807 167.343C271.845 167.917 272.876 167.958 273.902 167.468ZM305.224 176.099C303.67 176.841 302.101 177.152 300.516 177.031C298.947 176.864 297.494 176.26 296.157 175.219C294.82 174.178 293.721 172.756 292.86 170.953C291.999 169.15 291.583 167.402 291.614 165.708C291.644 164.013 292.095 162.519 292.966 161.225C293.853 159.885 295.073 158.844 296.628 158.102C299.021 156.958 301.357 156.854 303.636 157.789C305.931 158.678 307.732 160.49 309.039 163.225C310.345 165.96 310.63 168.515 309.894 170.89C309.174 173.219 307.618 174.956 305.224 176.099ZM303.398 172.276C304.455 171.771 305.071 170.942 305.246 169.79C305.437 168.591 305.131 167.153 304.33 165.474C303.528 163.796 302.608 162.67 301.571 162.097C300.55 161.477 299.511 161.42 298.454 161.925C297.428 162.415 296.812 163.244 296.606 164.411C296.4 165.578 296.706 167.017 297.522 168.726C298.339 170.436 299.266 171.577 300.303 172.15C301.341 172.724 302.372 172.766 303.398 172.276Z" fill="#EBEDF5"></path> </g> </g> <defs> <filter id="filter0_f" x="0.59729" y="0.69635" width="407.644" height="291.763" filterUnits="userSpaceOnUse" color-interpolation-filters="sRGB"> <feFlood flood-opacity="0" result="BackgroundImageFix"></feFlood> <feBlend mode="normal" in="SourceGraphic" in2="BackgroundImageFix" result="shape"></feBlend> <feGaussianBlur stdDeviation="15" result="effect1_foregroundBlur"></feGaussianBlur> </filter> <filter id="filter1_f" x="24.1011" y="26.0821" width="359.481" height="240.241" filterUnits="userSpaceOnUse" color-interpolation-filters="sRGB"> <feFlood flood-opacity="0" result="BackgroundImageFix"></feFlood> <feBlend mode="normal" in="SourceGraphic" in2="BackgroundImageFix" result="shape"></feBlend> <feGaussianBlur stdDeviation="4.83229" result="effect1_foregroundBlur"></feGaussianBlur> </filter> <filter id="filter2_d" x="182.043" y="135.768" width="138.185" height="94.5685" filterUnits="userSpaceOnUse" color-interpolation-filters="sRGB"> <feFlood flood-opacity="0" result="BackgroundImageFix"></feFlood> <feColorMatrix in="SourceAlpha" type="matrix" values="0 0 0 0 0 0 0 0 0 0 0 0 0 0 0 0 0 0 127 0"></feColorMatrix> <feOffset dy="3.97467"></feOffset> <feGaussianBlur stdDeviation="4.96833"></feGaussianBlur> <feColorMatrix type="matrix" values="0 0 0 0 0.0156863 0 0 0 0 0.329412 0 0 0 0 0.301961 0 0 0 0.2 0"></feColorMatrix> <feBlend mode="normal" in2="BackgroundImageFix" result="effect1_dropShadow"></feBlend> <feBlend mode="normal" in="SourceGraphic" in2="effect1_dropShadow" result="shape"></feBlend> </filter> <linearGradient id="paint0_linear" x1="171.414" y1="209.562" x2="169.672" y2="209.216" gradientUnits="userSpaceOnUse"> <stop stop-color="#4EB789"></stop> <stop offset="0.25" stop-color="#5FC188"></stop> <stop offset="0.72" stop-color="#7BD087"></stop> <stop offset="1" stop-color="#85D686"></stop> </linearGradient> <linearGradient id="paint1_linear" x1="333.064" y1="196.335" x2="179.709" y2="165.89" gradientUnits="userSpaceOnUse"> <stop stop-color="#1C8870"></stop> <stop offset="0.05" stop-color="#177D69"></stop> <stop offset="0.21" stop-color="#0A6056"></stop> <stop offset="0.35" stop-color="#034E4A"></stop> <stop offset="0.45" stop-color="#004846"></stop> <stop offset="0.67" stop-color="#085F53"></stop> <stop offset="1" stop-color="#15886B"></stop> </linearGradient> <clipPath id="clip0"> <rect width="182.298" height="104.176" fill="white" transform="translate(162.424 137.174) rotate(-4.46719)"></rect> </clipPath> </defs> </svg> 