<?xml version="1.0" encoding="UTF-8"?> <svg xmlns="http://www.w3.org/2000/svg" width="187" height="27" viewBox="0 0 187 27" fill="none"> <path d="M5.99609 21.1953C4.45312 21.1953 3.25195 20.7233 2.39258 19.7793C1.5332 18.8288 1.10352 17.4681 1.10352 15.6973C1.10352 13.9004 1.53646 12.5169 2.40234 11.5469C3.27474 10.5703 4.51497 10.082 6.12305 10.082C6.64388 10.082 7.1582 10.1374 7.66602 10.248C8.18034 10.3522 8.60352 10.4889 8.93555 10.6582L8.39844 12.123C7.49349 11.7845 6.72201 11.6152 6.08398 11.6152C5.00326 11.6152 4.20573 11.957 3.69141 12.6406C3.17708 13.3177 2.91992 14.3301 2.91992 15.6777C2.91992 16.9733 3.17708 17.9661 3.69141 18.6562C4.20573 19.3398 4.96745 19.6816 5.97656 19.6816C6.92057 19.6816 7.84831 19.4733 8.75977 19.0566V20.6191C8.01758 21.0033 7.09635 21.1953 5.99609 21.1953ZM24.8438 12.8164C24.8438 13.5 24.8079 14.1836 24.7363 14.8672C24.6712 15.5443 24.5508 16.1921 24.375 16.8105C24.2057 17.429 23.9714 18.0085 23.6719 18.5488C23.3724 19.0827 22.9915 19.5449 22.5293 19.9355C22.0671 20.3262 21.5137 20.6354 20.8691 20.8633C20.2246 21.0846 19.4694 21.1953 18.6035 21.1953C18.4798 21.1953 18.3431 21.1921 18.1934 21.1855C18.0436 21.179 17.8939 21.166 17.7441 21.1465C17.5944 21.1335 17.4479 21.1172 17.3047 21.0977C17.1615 21.0781 17.0345 21.0521 16.9238 21.0195V19.4961C17.1517 19.5807 17.4089 19.6426 17.6953 19.6816C17.9818 19.7207 18.265 19.7402 18.5449 19.7402C19.4238 19.7402 20.1465 19.5872 20.7129 19.2812C21.2793 18.9753 21.7285 18.5618 22.0605 18.041C22.3926 17.5137 22.627 16.9017 22.7637 16.2051C22.9069 15.5085 22.9948 14.7728 23.0273 13.998H22.9004C22.7702 14.2324 22.6139 14.4505 22.4316 14.6523C22.2493 14.8542 22.0345 15.0299 21.7871 15.1797C21.5397 15.3294 21.2598 15.4466 20.9473 15.5312C20.6348 15.6159 20.2865 15.6582 19.9023 15.6582C19.2839 15.6582 18.724 15.5638 18.2227 15.375C17.7214 15.1797 17.2949 14.8965 16.9434 14.5254C16.5918 14.1543 16.3184 13.7018 16.123 13.168C15.9342 12.6276 15.8398 12.0124 15.8398 11.3223C15.8398 10.5801 15.9408 9.91276 16.1426 9.32031C16.3509 8.72135 16.6406 8.2168 17.0117 7.80664C17.3893 7.38997 17.8451 7.07096 18.3789 6.84961C18.9193 6.62826 19.5215 6.51758 20.1855 6.51758C20.8431 6.51758 21.4551 6.64453 22.0215 6.89844C22.5879 7.15234 23.0794 7.53971 23.4961 8.06055C23.9128 8.58138 24.2415 9.23893 24.4824 10.0332C24.7233 10.821 24.8438 11.7487 24.8438 12.8164ZM20.2051 8.02148C19.8145 8.02148 19.4564 8.08659 19.1309 8.2168C18.8118 8.34701 18.5352 8.54883 18.3008 8.82227C18.0664 9.0957 17.8841 9.44076 17.7539 9.85742C17.6302 10.2676 17.5684 10.7559 17.5684 11.3223C17.5684 11.778 17.6204 12.1882 17.7246 12.5527C17.8353 12.9108 17.998 13.2168 18.2129 13.4707C18.4277 13.7246 18.6947 13.9199 19.0137 14.0566C19.3392 14.1934 19.7168 14.2617 20.1465 14.2617C20.5892 14.2617 20.9896 14.1868 21.3477 14.0371C21.7057 13.8809 22.0117 13.6823 22.2656 13.4414C22.5195 13.194 22.7148 12.9141 22.8516 12.6016C22.9948 12.2891 23.0664 11.9766 23.0664 11.6641C23.0664 11.2279 23.0046 10.7949 22.8809 10.3652C22.7637 9.92904 22.5846 9.53841 22.3438 9.19336C22.1094 8.8418 21.8132 8.55859 21.4551 8.34375C21.097 8.12891 20.6803 8.02148 20.2051 8.02148ZM27.5293 19.916C27.5293 19.6686 27.5618 19.4603 27.627 19.291C27.6921 19.1152 27.7799 18.9753 27.8906 18.8711C28.0013 18.7604 28.1315 18.6823 28.2812 18.6367C28.431 18.5846 28.5938 18.5586 28.7695 18.5586C28.9388 18.5586 29.0983 18.5846 29.248 18.6367C29.4043 18.6823 29.5378 18.7604 29.6484 18.8711C29.7591 18.9753 29.847 19.1152 29.9121 19.291C29.9772 19.4603 30.0098 19.6686 30.0098 19.916C30.0098 20.1569 29.9772 20.3652 29.9121 20.541C29.847 20.7103 29.7591 20.8503 29.6484 20.9609C29.5378 21.0716 29.4043 21.153 29.248 21.2051C29.0983 21.2572 28.9388 21.2832 28.7695 21.2832C28.5938 21.2832 28.431 21.2572 28.2812 21.2051C28.1315 21.153 28.0013 21.0716 27.8906 20.9609C27.7799 20.8503 27.6921 20.7103 27.627 20.541C27.5618 20.3652 27.5293 20.1569 27.5293 19.916ZM27.5293 11.3613C27.5293 11.1074 27.5618 10.8958 27.627 10.7266C27.6921 10.5508 27.7799 10.4108 27.8906 10.3066C28.0013 10.196 28.1315 10.1178 28.2812 10.0723C28.431 10.0267 28.5938 10.0039 28.7695 10.0039C28.9388 10.0039 29.0983 10.0267 29.248 10.0723C29.4043 10.1178 29.5378 10.196 29.6484 10.3066C29.7591 10.4108 29.847 10.5508 29.9121 10.7266C29.9772 10.8958 30.0098 11.1074 30.0098 11.3613C30.0098 11.6022 29.9772 11.8073 29.9121 11.9766C29.847 12.1458 29.7591 12.2858 29.6484 12.3965C29.5378 12.5072 29.4043 12.5885 29.248 12.6406C29.0983 12.6927 28.9388 12.7188 28.7695 12.7188C28.5938 12.7188 28.431 12.6927 28.2812 12.6406C28.1315 12.5885 28.0013 12.5072 27.8906 12.3965C27.7799 12.2858 27.6921 12.1458 27.627 11.9766C27.5618 11.8073 27.5293 11.6022 27.5293 11.3613ZM41.7969 13.8418C41.7969 14.9941 41.7122 16.026 41.543 16.9375C41.3802 17.849 41.1133 18.6204 40.7422 19.252C40.3776 19.8835 39.9056 20.3652 39.3262 20.6973C38.7467 21.0293 38.0436 21.1953 37.2168 21.1953C36.4486 21.1953 35.778 21.0293 35.2051 20.6973C34.6387 20.3652 34.1667 19.8835 33.7891 19.252C33.418 18.6204 33.138 17.849 32.9492 16.9375C32.7669 16.026 32.6758 14.9941 32.6758 13.8418C32.6758 12.6895 32.7572 11.6576 32.9199 10.7461C33.0892 9.83464 33.3529 9.06641 33.7109 8.44141C34.0755 7.8099 34.5443 7.32812 35.1172 6.99609C35.6966 6.66406 36.3965 6.49805 37.2168 6.49805C37.9915 6.49805 38.6654 6.66406 39.2383 6.99609C39.8112 7.32161 40.2865 7.80013 40.6641 8.43164C41.0417 9.05664 41.3249 9.82487 41.5137 10.7363C41.7025 11.6478 41.7969 12.6829 41.7969 13.8418ZM34.4824 13.8418C34.4824 14.8184 34.5312 15.6712 34.6289 16.4004C34.7266 17.1296 34.8828 17.7383 35.0977 18.2266C35.3125 18.7083 35.5924 19.0729 35.9375 19.3203C36.2891 19.5612 36.7155 19.6816 37.2168 19.6816C37.7181 19.6816 38.1445 19.5612 38.4961 19.3203C38.8477 19.0794 39.1341 18.7181 39.3555 18.2363C39.5833 17.7546 39.7461 17.1491 39.8438 16.4199C39.9479 15.6842 40 14.8249 40 13.8418C40 12.8652 39.9479 12.0124 39.8438 11.2832C39.7461 10.554 39.5833 9.94857 39.3555 9.4668C39.1341 8.98503 38.8477 8.6237 38.4961 8.38281C38.1445 8.14193 37.7181 8.02148 37.2168 8.02148C36.7155 8.02148 36.2891 8.14193 35.9375 8.38281C35.5924 8.6237 35.3125 8.98503 35.0977 9.4668C34.8828 9.94857 34.7266 10.554 34.6289 11.2832C34.5312 12.0124 34.4824 12.8652 34.4824 13.8418ZM52.8125 13.8418C52.8125 14.9941 52.7279 16.026 52.5586 16.9375C52.3958 17.849 52.1289 18.6204 51.7578 19.252C51.3932 19.8835 50.9212 20.3652 50.3418 20.6973C49.7624 21.0293 49.0592 21.1953 48.2324 21.1953C47.4642 21.1953 46.7936 21.0293 46.2207 20.6973C45.6543 20.3652 45.1823 19.8835 44.8047 19.252C44.4336 18.6204 44.1536 17.849 43.9648 16.9375C43.7826 16.026 43.6914 14.9941 43.6914 13.8418C43.6914 12.6895 43.7728 11.6576 43.9355 10.7461C44.1048 9.83464 44.3685 9.06641 44.7266 8.44141C45.0911 7.8099 45.5599 7.32812 46.1328 6.99609C46.7122 6.66406 47.4121 6.49805 48.2324 6.49805C49.0072 6.49805 49.681 6.66406 50.2539 6.99609C50.8268 7.32161 51.3021 7.80013 51.6797 8.43164C52.0573 9.05664 52.3405 9.82487 52.5293 10.7363C52.7181 11.6478 52.8125 12.6829 52.8125 13.8418ZM45.498 13.8418C45.498 14.8184 45.5469 15.6712 45.6445 16.4004C45.7422 17.1296 45.8984 17.7383 46.1133 18.2266C46.3281 18.7083 46.6081 19.0729 46.9531 19.3203C47.3047 19.5612 47.7311 19.6816 48.2324 19.6816C48.7337 19.6816 49.1602 19.5612 49.5117 19.3203C49.8633 19.0794 50.1497 18.7181 50.3711 18.2363C50.599 17.7546 50.7617 17.1491 50.8594 16.4199C50.9635 15.6842 51.0156 14.8249 51.0156 13.8418C51.0156 12.8652 50.9635 12.0124 50.8594 11.2832C50.7617 10.554 50.599 9.94857 50.3711 9.4668C50.1497 8.98503 49.8633 8.6237 49.5117 8.38281C49.1602 8.14193 48.7337 8.02148 48.2324 8.02148C47.7311 8.02148 47.3047 8.14193 46.9531 8.38281C46.6081 8.6237 46.3281 8.98503 46.1133 9.4668C45.8984 9.94857 45.7422 10.554 45.6445 11.2832C45.5469 12.0124 45.498 12.8652 45.498 13.8418ZM70.166 24.7207H68.4668V21H61.0059V24.7207H59.3262V19.5156H60.1855C61.0514 18.3112 61.7253 16.918 62.207 15.3359C62.6888 13.7474 62.9427 12.0612 62.9688 10.2773H68.6035V19.5156H70.166V24.7207ZM66.9043 19.5156V11.6641H64.5215C64.4238 13.1029 64.1439 14.5482 63.6816 16C63.2259 17.4453 62.666 18.6172 62.002 19.5156H66.9043ZM81.582 15.6191C81.582 17.3704 81.1393 18.7376 80.2539 19.7207C79.3685 20.7038 78.1445 21.1953 76.582 21.1953C75.612 21.1953 74.7526 20.9707 74.0039 20.5215C73.2552 20.0658 72.679 19.4147 72.2754 18.5684C71.8717 17.722 71.6699 16.7389 71.6699 15.6191C71.6699 13.8743 72.1061 12.5169 72.9785 11.5469C73.8509 10.5703 75.0749 10.082 76.6504 10.082C78.1608 10.082 79.3587 10.5801 80.2441 11.5762C81.1361 12.5658 81.582 13.9134 81.582 15.6191ZM73.4863 15.6191C73.4863 16.9668 73.75 17.9922 74.2773 18.6953C74.8112 19.3919 75.5957 19.7402 76.6309 19.7402C77.653 19.7402 78.431 19.3919 78.9648 18.6953C79.4987 17.9922 79.7656 16.9668 79.7656 15.6191C79.7656 14.2715 79.4954 13.2591 78.9551 12.582C78.4212 11.8984 77.6367 11.5566 76.6016 11.5566C74.5247 11.5566 73.4863 12.9108 73.4863 15.6191ZM97.7148 21H88.8086V19.4766L92.2266 15.7559C92.7148 15.2285 93.151 14.7467 93.5352 14.3105C93.9193 13.8743 94.2448 13.4479 94.5117 13.0312C94.7852 12.6146 94.9935 12.1979 95.1367 11.7812C95.2799 11.3581 95.3516 10.8991 95.3516 10.4043C95.3516 10.0202 95.2962 9.68164 95.1855 9.38867C95.0749 9.0957 94.9154 8.84831 94.707 8.64648C94.5052 8.43815 94.2643 8.2819 93.9844 8.17773C93.7044 8.07357 93.3919 8.02148 93.0469 8.02148C92.4284 8.02148 91.8685 8.14844 91.3672 8.40234C90.8724 8.64974 90.4004 8.96875 89.9512 9.35938L88.9551 8.19727C89.2155 7.96289 89.4954 7.74479 89.7949 7.54297C90.0944 7.33464 90.4167 7.1556 90.7617 7.00586C91.1068 6.85612 91.4714 6.73893 91.8555 6.6543C92.2396 6.56315 92.6432 6.51758 93.0664 6.51758C93.6914 6.51758 94.2546 6.60547 94.7559 6.78125C95.2637 6.95703 95.6934 7.21094 96.0449 7.54297C96.3965 7.86849 96.6667 8.26888 96.8555 8.74414C97.0508 9.21289 97.1484 9.74349 97.1484 10.3359C97.1484 10.8893 97.0605 11.4167 96.8848 11.918C96.7155 12.4193 96.4779 12.9141 96.1719 13.4023C95.8724 13.8841 95.5111 14.3691 95.0879 14.8574C94.6712 15.3457 94.2188 15.8535 93.7305 16.3809L90.9863 19.3008V19.3789H97.7148V21ZM108.73 21H99.8242V19.4766L103.242 15.7559C103.73 15.2285 104.167 14.7467 104.551 14.3105C104.935 13.8743 105.26 13.4479 105.527 13.0312C105.801 12.6146 106.009 12.1979 106.152 11.7812C106.296 11.3581 106.367 10.8991 106.367 10.4043C106.367 10.0202 106.312 9.68164 106.201 9.38867C106.09 9.0957 105.931 8.84831 105.723 8.64648C105.521 8.43815 105.28 8.2819 105 8.17773C104.72 8.07357 104.408 8.02148 104.062 8.02148C103.444 8.02148 102.884 8.14844 102.383 8.40234C101.888 8.64974 101.416 8.96875 100.967 9.35938L99.9707 8.19727C100.231 7.96289 100.511 7.74479 100.811 7.54297C101.11 7.33464 101.432 7.1556 101.777 7.00586C102.122 6.85612 102.487 6.73893 102.871 6.6543C103.255 6.56315 103.659 6.51758 104.082 6.51758C104.707 6.51758 105.27 6.60547 105.771 6.78125C106.279 6.95703 106.709 7.21094 107.061 7.54297C107.412 7.86849 107.682 8.26888 107.871 8.74414C108.066 9.21289 108.164 9.74349 108.164 10.3359C108.164 10.8893 108.076 11.4167 107.9 11.918C107.731 12.4193 107.493 12.9141 107.188 13.4023C106.888 13.8841 106.527 14.3691 106.104 14.8574C105.687 15.3457 105.234 15.8535 104.746 16.3809L102.002 19.3008V19.3789H108.73V21ZM111.611 19.916C111.611 19.6686 111.644 19.4603 111.709 19.291C111.774 19.1152 111.862 18.9753 111.973 18.8711C112.083 18.7604 112.214 18.6823 112.363 18.6367C112.513 18.5846 112.676 18.5586 112.852 18.5586C113.021 18.5586 113.18 18.5846 113.33 18.6367C113.486 18.6823 113.62 18.7604 113.73 18.8711C113.841 18.9753 113.929 19.1152 113.994 19.291C114.059 19.4603 114.092 19.6686 114.092 19.916C114.092 20.1569 114.059 20.3652 113.994 20.541C113.929 20.7103 113.841 20.8503 113.73 20.9609C113.62 21.0716 113.486 21.153 113.33 21.2051C113.18 21.2572 113.021 21.2832 112.852 21.2832C112.676 21.2832 112.513 21.2572 112.363 21.2051C112.214 21.153 112.083 21.0716 111.973 20.9609C111.862 20.8503 111.774 20.7103 111.709 20.541C111.644 20.3652 111.611 20.1569 111.611 19.916ZM111.611 11.3613C111.611 11.1074 111.644 10.8958 111.709 10.7266C111.774 10.5508 111.862 10.4108 111.973 10.3066C112.083 10.196 112.214 10.1178 112.363 10.0723C112.513 10.0267 112.676 10.0039 112.852 10.0039C113.021 10.0039 113.18 10.0267 113.33 10.0723C113.486 10.1178 113.62 10.196 113.73 10.3066C113.841 10.4108 113.929 10.5508 113.994 10.7266C114.059 10.8958 114.092 11.1074 114.092 11.3613C114.092 11.6022 114.059 11.8073 113.994 11.9766C113.929 12.1458 113.841 12.2858 113.73 12.3965C113.62 12.5072 113.486 12.5885 113.33 12.6406C113.18 12.6927 113.021 12.7188 112.852 12.7188C112.676 12.7188 112.513 12.6927 112.363 12.6406C112.214 12.5885 112.083 12.5072 111.973 12.3965C111.862 12.2858 111.774 12.1458 111.709 11.9766C111.644 11.8073 111.611 11.6022 111.611 11.3613ZM125.879 13.8418C125.879 14.9941 125.794 16.026 125.625 16.9375C125.462 17.849 125.195 18.6204 124.824 19.252C124.46 19.8835 123.988 20.3652 123.408 20.6973C122.829 21.0293 122.126 21.1953 121.299 21.1953C120.531 21.1953 119.86 21.0293 119.287 20.6973C118.721 20.3652 118.249 19.8835 117.871 19.252C117.5 18.6204 117.22 17.849 117.031 16.9375C116.849 16.026 116.758 14.9941 116.758 13.8418C116.758 12.6895 116.839 11.6576 117.002 10.7461C117.171 9.83464 117.435 9.06641 117.793 8.44141C118.158 7.8099 118.626 7.32812 119.199 6.99609C119.779 6.66406 120.479 6.49805 121.299 6.49805C122.074 6.49805 122.747 6.66406 123.32 6.99609C123.893 7.32161 124.368 7.80013 124.746 8.43164C125.124 9.05664 125.407 9.82487 125.596 10.7363C125.785 11.6478 125.879 12.6829 125.879 13.8418ZM118.564 13.8418C118.564 14.8184 118.613 15.6712 118.711 16.4004C118.809 17.1296 118.965 17.7383 119.18 18.2266C119.395 18.7083 119.674 19.0729 120.02 19.3203C120.371 19.5612 120.798 19.6816 121.299 19.6816C121.8 19.6816 122.227 19.5612 122.578 19.3203C122.93 19.0794 123.216 18.7181 123.438 18.2363C123.665 17.7546 123.828 17.1491 123.926 16.4199C124.03 15.6842 124.082 14.8249 124.082 13.8418C124.082 12.8652 124.03 12.0124 123.926 11.2832C123.828 10.554 123.665 9.94857 123.438 9.4668C123.216 8.98503 122.93 8.6237 122.578 8.38281C122.227 8.14193 121.8 8.02148 121.299 8.02148C120.798 8.02148 120.371 8.14193 120.02 8.38281C119.674 8.6237 119.395 8.98503 119.18 9.4668C118.965 9.94857 118.809 10.554 118.711 11.2832C118.613 12.0124 118.564 12.8652 118.564 13.8418ZM136.895 13.8418C136.895 14.9941 136.81 16.026 136.641 16.9375C136.478 17.849 136.211 18.6204 135.84 19.252C135.475 19.8835 135.003 20.3652 134.424 20.6973C133.844 21.0293 133.141 21.1953 132.314 21.1953C131.546 21.1953 130.876 21.0293 130.303 20.6973C129.736 20.3652 129.264 19.8835 128.887 19.252C128.516 18.6204 128.236 17.849 128.047 16.9375C127.865 16.026 127.773 14.9941 127.773 13.8418C127.773 12.6895 127.855 11.6576 128.018 10.7461C128.187 9.83464 128.451 9.06641 128.809 8.44141C129.173 7.8099 129.642 7.32812 130.215 6.99609C130.794 6.66406 131.494 6.49805 132.314 6.49805C133.089 6.49805 133.763 6.66406 134.336 6.99609C134.909 7.32161 135.384 7.80013 135.762 8.43164C136.139 9.05664 136.423 9.82487 136.611 10.7363C136.8 11.6478 136.895 12.6829 136.895 13.8418ZM129.58 13.8418C129.58 14.8184 129.629 15.6712 129.727 16.4004C129.824 17.1296 129.98 17.7383 130.195 18.2266C130.41 18.7083 130.69 19.0729 131.035 19.3203C131.387 19.5612 131.813 19.6816 132.314 19.6816C132.816 19.6816 133.242 19.5612 133.594 19.3203C133.945 19.0794 134.232 18.7181 134.453 18.2363C134.681 17.7546 134.844 17.1491 134.941 16.4199C135.046 15.6842 135.098 14.8249 135.098 13.8418C135.098 12.8652 135.046 12.0124 134.941 11.2832C134.844 10.554 134.681 9.94857 134.453 9.4668C134.232 8.98503 133.945 8.6237 133.594 8.38281C133.242 8.14193 132.816 8.02148 132.314 8.02148C131.813 8.02148 131.387 8.14193 131.035 8.38281C130.69 8.6237 130.41 8.98503 130.195 9.4668C129.98 9.94857 129.824 10.554 129.727 11.2832C129.629 12.0124 129.58 12.8652 129.58 13.8418ZM151.27 21L146.562 8.48047H146.484C146.582 9.52214 146.631 10.8079 146.631 12.3379V21H144.971V6.72266H147.627L152.031 18.4219H152.109L156.592 6.72266H159.229V21H157.451V12.2207C157.451 11.2441 157.497 10.0039 157.588 8.5H157.51L152.744 21H151.27ZM169.229 8.09961C167.692 8.09961 166.484 8.61393 165.605 9.64258C164.727 10.6712 164.287 12.0775 164.287 13.8613C164.287 15.7038 164.714 17.1263 165.566 18.1289C166.419 19.125 167.633 19.623 169.209 19.623C170.225 19.623 171.367 19.4342 172.637 19.0566V20.6191C172.031 20.8405 171.449 20.9902 170.889 21.0684C170.329 21.153 169.684 21.1953 168.955 21.1953C166.852 21.1953 165.231 20.5573 164.092 19.2812C162.959 17.9987 162.393 16.1855 162.393 13.8418C162.393 12.3704 162.663 11.0814 163.203 9.97461C163.75 8.86784 164.541 8.01497 165.576 7.41602C166.618 6.81706 167.842 6.51758 169.248 6.51758C170.758 6.51758 172.074 6.79753 173.193 7.35742L172.471 8.88086C171.331 8.36003 170.251 8.09961 169.229 8.09961ZM186.172 21H184.004L177.549 13.7637V21H175.752V6.72266H177.549V13.6367L183.848 6.72266H185.889L179.688 13.6562L186.172 21Z" fill="#19436D"></path> </svg> 