<?xml version="1.0" encoding="UTF-8"?> <svg xmlns="http://www.w3.org/2000/svg" width="409" height="293" viewBox="0 0 409 293" fill="none"> <rect x="24.0005" y="26.4041" width="360" height="240" rx="15" fill="#93D4D8"></rect> <g filter="url(#filter0_f)"> <rect x="30.4389" y="30.6964" width="347.644" height="231.763" rx="14.4852" fill="#DAFFFE"></rect> </g> <g filter="url(#filter1_f)"> <rect x="33.6073" y="35.7466" width="340.152" height="220.912" rx="14.4969" fill="white"></rect> </g> <path d="M90.4969 81.7259C90.4969 82.8274 90.1063 83.7376 89.3251 84.4563C88.5438 85.1751 87.4852 85.6321 86.1493 85.8274V85.8977C87.7196 86.054 88.9227 86.4876 89.7587 87.1985C90.6024 87.9095 91.0243 88.8352 91.0243 89.9759C91.0243 91.554 90.3837 92.8001 89.1024 93.7141C87.829 94.6282 86.0634 95.0852 83.8055 95.0852C81.2899 95.0852 79.2704 94.7766 77.7469 94.1595V91.1126C78.4813 91.4641 79.3407 91.7415 80.3251 91.9446C81.3173 92.1399 82.243 92.2376 83.1024 92.2376C85.9852 92.2376 87.4266 91.3977 87.4266 89.718C87.4266 88.9602 86.9618 88.3782 86.0321 87.972C85.1102 87.5657 83.743 87.3626 81.9305 87.3626H80.3251V84.5266H81.7665C83.579 84.5266 84.8993 84.3548 85.7274 84.011C86.5555 83.6673 86.9696 83.097 86.9696 82.3001C86.9696 81.7141 86.7079 81.2493 86.1844 80.9055C85.6688 80.554 84.8915 80.3782 83.8524 80.3782C82.243 80.3782 80.6884 80.843 79.1884 81.7727L77.6063 79.347C78.5829 78.6985 79.618 78.2259 80.7118 77.929C81.8055 77.6243 83.0204 77.472 84.3563 77.472C86.2235 77.472 87.7118 77.8626 88.8212 78.6438C89.9384 79.4251 90.4969 80.4524 90.4969 81.7259ZM102.263 94.8509L101.571 93.0696H101.477C100.876 93.8274 100.255 94.3548 99.6141 94.6516C98.9813 94.9407 98.1532 95.0852 97.1298 95.0852C95.8719 95.0852 94.8798 94.7259 94.1532 94.0071C93.4344 93.2884 93.0751 92.2649 93.0751 90.9368C93.0751 89.5462 93.5594 88.5227 94.5282 87.8665C95.5048 87.2024 96.9735 86.8352 98.9344 86.7649L101.208 86.6946V86.1204C101.208 84.7923 100.528 84.1282 99.1688 84.1282C98.1219 84.1282 96.8915 84.4446 95.4774 85.0774L94.2938 82.6634C95.8016 81.8743 97.4735 81.4798 99.3094 81.4798C101.067 81.4798 102.415 81.8626 103.352 82.6282C104.29 83.3938 104.759 84.5579 104.759 86.1204V94.8509H102.263ZM101.208 88.7805L99.8251 88.8274C98.786 88.8587 98.0126 89.0462 97.5048 89.3899C96.9969 89.7337 96.743 90.2571 96.743 90.9602C96.743 91.968 97.3212 92.472 98.4774 92.472C99.3055 92.472 99.9657 92.2337 100.458 91.7571C100.958 91.2805 101.208 90.6477 101.208 89.8587V88.7805ZM112.024 81.7493V86.7884H117.016V81.7493H120.591V94.8509H117.016V89.4485H112.024V94.8509H108.45V81.7493H112.024ZM126.333 94.8509H122.466L125.993 89.6712C125.149 89.3196 124.509 88.8118 124.071 88.1477C123.641 87.4837 123.427 86.7024 123.427 85.804C123.427 84.5384 123.899 83.5462 124.845 82.8274C125.798 82.1087 127.095 81.7493 128.735 81.7493H134.829V94.8509H131.255V89.9759H129.286L126.333 94.8509ZM126.931 85.8274C126.931 86.3743 127.145 86.804 127.575 87.1165C128.005 87.4212 128.567 87.5735 129.263 87.5735H131.255V84.2688H128.806C128.22 84.2688 127.759 84.4134 127.423 84.7024C127.095 84.9837 126.931 85.3587 126.931 85.8274ZM149.407 81.7493V84.4329H145.118V94.8509H141.544V84.4329H137.243V81.7493H149.407ZM155.313 81.7493V86.929C155.313 87.4759 155.224 88.8118 155.044 90.9368L161.091 81.7493H165.391V94.8509H161.934V89.6243C161.934 88.6946 162.013 87.3821 162.169 85.6868L156.145 94.8509H151.856V81.7493H155.313ZM174.579 84.0462C173.821 84.0462 173.227 84.2884 172.798 84.7727C172.368 85.2493 172.122 85.929 172.059 86.8118H177.075C177.059 85.929 176.829 85.2493 176.384 84.7727C175.938 84.2884 175.337 84.0462 174.579 84.0462ZM175.083 95.0852C172.974 95.0852 171.325 94.5032 170.138 93.3391C168.95 92.1751 168.356 90.5266 168.356 88.3938C168.356 86.1985 168.903 84.5032 169.997 83.3079C171.099 82.1048 172.618 81.5032 174.556 81.5032C176.407 81.5032 177.849 82.0305 178.88 83.0852C179.911 84.1399 180.427 85.597 180.427 87.4563V89.1907H171.977C172.016 90.2063 172.317 90.9993 172.88 91.5696C173.442 92.1399 174.231 92.4251 175.247 92.4251C176.036 92.4251 176.782 92.343 177.485 92.179C178.188 92.0149 178.923 91.7532 179.688 91.3938V94.1595C179.063 94.472 178.395 94.7024 177.684 94.8509C176.974 95.0071 176.106 95.0852 175.083 95.0852ZM192.415 88.2766C192.415 89.5735 192.626 90.554 193.048 91.218C193.477 91.8821 194.173 92.2141 195.134 92.2141C196.087 92.2141 196.77 91.886 197.184 91.2298C197.606 90.5657 197.817 89.5813 197.817 88.2766C197.817 86.9798 197.606 86.0071 197.184 85.3587C196.763 84.7102 196.071 84.386 195.11 84.386C194.157 84.386 193.47 84.7102 193.048 85.3587C192.626 85.9993 192.415 86.972 192.415 88.2766ZM201.474 88.2766C201.474 90.4095 200.911 92.0774 199.786 93.2805C198.661 94.4837 197.095 95.0852 195.087 95.0852C193.829 95.0852 192.72 94.8118 191.759 94.2649C190.798 93.7102 190.059 92.9173 189.544 91.886C189.028 90.8548 188.77 89.6516 188.77 88.2766C188.77 86.136 189.329 84.472 190.446 83.2845C191.563 82.097 193.134 81.5032 195.157 81.5032C196.415 81.5032 197.524 81.7766 198.485 82.3235C199.446 82.8704 200.184 83.6555 200.7 84.679C201.216 85.7024 201.474 86.9016 201.474 88.2766ZM215.149 81.7493V84.4329H210.86V94.8509H207.286V84.4329H202.985V81.7493H215.149Z" fill="#19436D"></path> <path d="M242.924 82.3235C242.924 83.1516 242.717 83.886 242.303 84.5266C241.888 85.1673 241.318 85.679 240.592 86.0618C241.42 86.4602 242.076 87.011 242.56 87.7141C243.045 88.4095 243.287 89.2298 243.287 90.1751C243.287 91.6907 242.771 92.8899 241.74 93.7727C240.709 94.6477 239.306 95.0852 237.533 95.0852C235.76 95.0852 234.353 94.6438 233.314 93.761C232.275 92.8782 231.756 91.6829 231.756 90.1751C231.756 89.2298 231.998 88.4055 232.482 87.7024C232.967 86.9993 233.619 86.4524 234.439 86.0618C233.713 85.679 233.142 85.1673 232.728 84.5266C232.322 83.886 232.119 83.1516 232.119 82.3235C232.119 80.8704 232.603 79.7141 233.572 78.8548C234.541 77.9876 235.857 77.554 237.521 77.554C239.178 77.554 240.49 77.9837 241.459 78.843C242.435 79.6946 242.924 80.8548 242.924 82.3235ZM239.888 89.929C239.888 89.1868 239.674 88.593 239.244 88.1477C238.814 87.7024 238.236 87.4798 237.51 87.4798C236.791 87.4798 236.217 87.7024 235.787 88.1477C235.357 88.5852 235.142 89.179 235.142 89.929C235.142 90.6555 235.353 91.2415 235.775 91.6868C236.197 92.1321 236.783 92.3548 237.533 92.3548C238.267 92.3548 238.842 92.1399 239.256 91.7102C239.678 91.2805 239.888 90.6868 239.888 89.929ZM239.537 82.4876C239.537 81.8235 239.361 81.2923 239.01 80.8938C238.658 80.4876 238.162 80.2845 237.521 80.2845C236.888 80.2845 236.396 80.4798 236.045 80.8704C235.693 81.261 235.517 81.8001 235.517 82.4876C235.517 83.1673 235.693 83.7141 236.045 84.1282C236.396 84.5423 236.892 84.7493 237.533 84.7493C238.174 84.7493 238.666 84.5423 239.01 84.1282C239.361 83.7141 239.537 83.1673 239.537 82.4876ZM253.506 88.0305C252.623 88.8977 251.592 89.3313 250.412 89.3313C248.904 89.3313 247.697 88.8157 246.791 87.7845C245.885 86.7454 245.431 85.347 245.431 83.5891C245.431 82.472 245.674 81.4485 246.158 80.5188C246.65 79.5813 247.334 78.8548 248.209 78.3391C249.084 77.8157 250.068 77.554 251.162 77.554C252.287 77.554 253.287 77.8352 254.162 78.3977C255.037 78.9602 255.717 79.7688 256.201 80.8235C256.685 81.8782 256.931 83.0852 256.939 84.4446V85.6985C256.939 88.5423 256.232 90.7766 254.818 92.4016C253.404 94.0266 251.4 94.8938 248.806 95.0032L247.974 95.0149V92.1907L248.724 92.179C251.67 92.0462 253.263 90.6634 253.506 88.0305ZM251.244 86.7415C251.791 86.7415 252.26 86.6009 252.65 86.3196C253.049 86.0384 253.349 85.6985 253.553 85.3001V83.9055C253.553 82.7571 253.334 81.8665 252.896 81.2337C252.459 80.6009 251.873 80.2845 251.138 80.2845C250.459 80.2845 249.9 80.597 249.463 81.222C249.025 81.8391 248.806 82.6165 248.806 83.554C248.806 84.4837 249.017 85.2493 249.439 85.8509C249.869 86.4446 250.471 86.7415 251.244 86.7415ZM270.849 87.7962C270.849 90.1555 270.361 91.9602 269.385 93.2102C268.408 94.4602 266.978 95.0852 265.096 95.0852C263.236 95.0852 261.814 94.472 260.83 93.2454C259.846 92.0188 259.342 90.261 259.318 87.972V84.8313C259.318 82.4485 259.81 80.6399 260.795 79.4055C261.787 78.1712 263.213 77.554 265.072 77.554C266.931 77.554 268.353 78.1673 269.338 79.3938C270.322 80.6126 270.826 82.3665 270.849 84.6555V87.7962ZM267.463 84.3509C267.463 82.9368 267.267 81.9095 266.877 81.2688C266.494 80.6204 265.892 80.2962 265.072 80.2962C264.275 80.2962 263.685 80.6048 263.303 81.222C262.928 81.8313 262.728 82.7884 262.705 84.093V88.2415C262.705 89.6321 262.892 90.6673 263.267 91.347C263.65 92.0188 264.26 92.3548 265.096 92.3548C265.924 92.3548 266.521 92.0305 266.888 91.3821C267.256 90.7337 267.447 89.7415 267.463 88.4055V84.3509ZM282.205 92.5774H278.478V94.8509H274.963V92.5774H272.584V89.7298H274.963V88.8391H272.584V85.9915H274.963V77.7884H281.596C282.877 77.7884 284.002 78.0188 284.971 78.4798C285.939 78.9407 286.689 79.6009 287.221 80.4602C287.76 81.3118 288.029 82.2845 288.029 83.3782C288.029 85.0657 287.455 86.3977 286.306 87.3743C285.166 88.3509 283.576 88.8391 281.537 88.8391H278.478V89.7298H282.205V92.5774ZM278.478 85.9915H281.513C283.482 85.9915 284.467 85.1282 284.467 83.4016C284.467 82.5813 284.217 81.9212 283.717 81.4212C283.217 80.9134 282.525 80.6555 281.642 80.6477H278.478V85.9915Z" fill="#19436D"></path> <line x1="225.527" y1="85.351" x2="288.906" y2="86.3047" stroke="#FFE148" stroke-width="3"></line> <path d="M106.265 114.251V121.211L95.0808 147.851H82.6968L93.3528 123.035H86.8728V127.931H77.5128V114.251H106.265ZM125.239 114.251V147.851H113.911V122.795H108.151V114.251H125.239ZM144.582 148.619C141.606 148.619 138.966 147.931 136.662 146.555C134.39 145.147 132.598 143.131 131.286 140.507C130.006 137.851 129.366 134.699 129.366 131.051C129.366 127.403 130.006 124.267 131.286 121.643C132.598 118.987 134.39 116.971 136.662 115.595C138.966 114.187 141.606 113.483 144.582 113.483C147.558 113.483 150.182 114.187 152.454 115.595C154.758 116.971 156.55 118.987 157.83 121.643C159.142 124.267 159.798 127.403 159.798 131.051C159.798 134.699 159.142 137.851 157.83 140.507C156.55 143.131 154.758 145.147 152.454 146.555C150.182 147.931 147.558 148.619 144.582 148.619ZM144.582 139.547C147.142 139.547 148.422 136.715 148.422 131.051C148.422 125.387 147.142 122.555 144.582 122.555C142.022 122.555 140.742 125.387 140.742 131.051C140.742 136.715 142.022 139.547 144.582 139.547ZM178.296 137.099V139.595H188.376V144.971H178.296V147.851H166.968V144.971H162.648V139.595H166.968V114.251H183.144C187.944 114.251 191.688 115.211 194.376 117.131C197.096 119.019 198.456 121.867 198.456 125.675C198.456 129.483 197.096 132.347 194.376 134.267C191.688 136.155 187.944 137.099 183.144 137.099H178.296ZM187.032 125.819C187.032 124.891 186.68 124.187 185.976 123.707C185.272 123.227 184.28 122.987 183 122.987H178.296V128.651H183C184.28 128.651 185.272 128.411 185.976 127.931C186.68 127.451 187.032 126.747 187.032 125.819Z" fill="#19436D"></path> <g clip-path="url(#clip0)"> <path d="M172.221 198.95L170.707 208.539C170.076 212.669 169.745 216.84 169.716 221.018L171.198 211.442C171.244 207.259 171.586 203.085 172.221 198.95V198.95Z" fill="url(#paint0_linear)"></path> <path d="M345.869 134.539C342.298 133.759 275.318 117.226 223.534 140.107C183.973 157.588 171.47 183.083 171.201 211.441C198.817 228.098 230.402 234.106 269.955 216.657C321.736 193.744 344.623 137.546 345.869 134.539Z" fill="#71EB8E"></path> <path d="M171.198 211.441L169.715 221.017C197.301 237.676 228.916 243.671 268.446 226.203C283.778 219.449 296.229 209.525 306.926 199.483C337.203 171.023 345.866 134.539 345.866 134.539C344.621 137.546 321.734 193.744 269.952 216.657C230.402 234.137 198.786 228.132 171.222 211.471L171.198 211.441Z" fill="url(#paint1_linear)"></path> <path d="M200.331 176.373C199.304 176.864 198.373 176.962 197.539 176.668C196.71 176.36 196.004 175.596 195.42 174.375C195.018 173.533 194.833 172.778 194.866 172.111C194.899 171.443 195.108 170.863 195.493 170.369C195.886 169.871 196.415 169.463 197.08 169.145C197.552 168.92 197.982 168.771 198.372 168.698C198.77 168.622 199.129 168.585 199.451 168.586L199.589 170.305C199.238 170.328 198.914 170.363 198.616 170.412C198.328 170.457 198.057 170.54 197.804 170.661C196.827 171.127 196.671 172.056 197.334 173.445C197.664 174.136 198.034 174.585 198.444 174.793C198.862 174.996 199.302 174.988 199.765 174.766C200.161 174.577 200.487 174.36 200.741 174.114C200.992 173.86 201.217 173.571 201.415 173.249L202.181 174.854C201.983 175.176 201.742 175.451 201.458 175.68C201.187 175.913 200.811 176.144 200.331 176.373ZM205.183 165.429L207.255 164.44L206.107 169.053L210.79 171.222L208.655 172.242L204.166 170.089L205.838 173.588L203.956 174.487L200.661 167.59L202.543 166.69L204.142 170.038L205.183 165.429ZM211.605 165.713C211.673 165.856 211.749 166.037 211.833 166.256C211.925 166.47 212.015 166.691 212.103 166.918C212.199 167.141 212.279 167.341 212.342 167.517C212.406 167.694 212.45 167.818 212.474 167.889L213.346 161.53L215.607 160.45L218.902 167.347L217.083 168.216L215.767 165.462C215.659 165.235 215.548 164.983 215.437 164.705C215.321 164.419 215.215 164.154 215.119 163.91C215.028 163.654 214.956 163.461 214.904 163.33L214.038 169.671L211.777 170.751L208.482 163.853L210.301 162.984L211.605 165.713ZM223.777 156.547L226.414 162.068L227.425 161.585L229.265 165.438L227.572 166.247L226.39 163.771L221.753 165.985L222.936 168.461L221.243 169.27L219.403 165.417L219.984 165.139C220.066 164.531 220.071 163.882 220 163.192C219.925 162.494 219.79 161.777 219.594 161.043C219.399 160.309 219.168 159.587 218.901 158.877L223.777 156.547ZM221.156 159.537C221.421 160.352 221.63 161.147 221.783 161.922C221.932 162.688 221.989 163.447 221.955 164.198L224.532 162.967L222.571 158.861L221.156 159.537ZM230.486 153.343L232.558 152.353L231.41 156.966L236.092 159.136L233.957 160.156L229.469 158.002L231.14 161.501L229.258 162.401L225.963 155.503L227.846 154.604L229.445 157.952L230.486 153.343ZM236.548 150.276C237.474 149.834 238.278 149.698 238.96 149.869C239.646 150.027 240.186 150.519 240.58 151.345L242.777 155.943L241.463 156.57L240.65 155.811L240.6 155.835C240.482 156.346 240.299 156.764 240.051 157.09C239.803 157.415 239.393 157.715 238.82 157.988C238.205 158.282 237.611 158.348 237.038 158.188C236.461 158.019 235.995 157.564 235.641 156.823C235.291 156.09 235.291 155.428 235.639 154.837C235.984 154.238 236.662 153.677 237.674 153.152L238.856 152.541L238.711 152.238C238.538 151.876 238.314 151.657 238.04 151.581C237.774 151.501 237.473 151.541 237.136 151.702C236.799 151.863 236.495 152.07 236.223 152.324C235.947 152.57 235.684 152.841 235.432 153.137L234.204 152.156C234.482 151.786 234.818 151.439 235.212 151.116C235.614 150.79 236.06 150.51 236.548 150.276ZM238.66 154.015C238.062 154.322 237.693 154.632 237.554 154.947C237.414 155.262 237.423 155.583 237.58 155.912C237.717 156.198 237.9 156.364 238.128 156.41C238.353 156.448 238.6 156.402 238.87 156.273C239.274 156.08 239.559 155.799 239.724 155.431C239.885 155.054 239.861 154.646 239.652 154.208L239.381 153.64L238.66 154.015ZM250.893 143.595L253.53 149.115L254.541 148.632L256.381 152.485L254.688 153.294L253.506 150.818L248.869 153.033L250.052 155.509L248.359 156.317L246.519 152.464L247.1 152.187C247.182 151.579 247.187 150.93 247.116 150.239C247.041 149.541 246.906 148.825 246.71 148.091C246.515 147.356 246.284 146.634 246.017 145.924L250.893 143.595ZM248.272 146.585C248.537 147.399 248.746 148.194 248.899 148.969C249.048 149.736 249.105 150.494 249.071 151.245L251.648 150.014L249.687 145.909L248.272 146.585ZM260.986 142.993C261.534 144.139 261.653 145.168 261.344 146.081C261.044 146.99 260.376 147.691 259.34 148.186C258.7 148.492 258.061 148.627 257.423 148.59C256.793 148.549 256.208 148.332 255.669 147.938C255.125 147.536 254.67 146.952 254.304 146.186C253.757 145.04 253.635 144.017 253.939 143.117C254.244 142.216 254.918 141.517 255.962 141.018C256.611 140.708 257.25 140.574 257.88 140.614C258.509 140.655 259.094 140.872 259.634 141.266C260.169 141.651 260.62 142.227 260.986 142.993ZM256.224 145.268C256.55 145.951 256.907 146.416 257.295 146.665C257.687 146.902 258.136 146.9 258.641 146.658C259.138 146.421 259.413 146.077 259.467 145.627C259.526 145.165 259.392 144.593 259.066 143.911C258.74 143.228 258.383 142.773 257.995 142.545C257.611 142.304 257.167 142.305 256.661 142.546C256.164 142.783 255.885 143.129 255.822 143.583C255.764 144.024 255.898 144.586 256.224 145.268Z" fill="#19436D"></path> <g filter="url(#filter2_d)"> <path d="M192.698 210.037L205.892 203.734L208.676 209.562L195.482 215.865L192.698 210.037ZM222.831 191.577C225.913 190.677 228.617 190.703 230.942 191.654C233.252 192.574 234.993 194.261 236.166 196.717C237.072 198.613 237.413 200.607 237.191 202.698C236.953 204.758 236.039 206.76 234.448 208.704C232.888 210.633 230.631 212.302 227.678 213.713C225.378 214.811 222.968 215.6 220.448 216.078C217.944 216.511 215.648 216.539 213.559 216.162L213.735 208.978C215.424 209.316 217.202 209.364 219.071 209.12C220.956 208.831 222.753 208.277 224.463 207.461C226.359 206.555 227.68 205.485 228.427 204.25C229.158 202.985 229.205 201.684 228.566 200.347C227.289 197.674 224.615 197.31 220.543 199.255L217.093 200.903L214.71 195.914L217.794 185.107L203.899 191.744L201.004 185.683L223.85 174.77L226.189 179.666L222.831 191.577ZM258.674 198.907C255.97 200.198 253.242 200.681 250.49 200.354C247.738 200.027 245.154 198.894 242.739 196.956C240.34 194.971 238.302 192.222 236.624 188.71C234.947 185.198 234.097 181.901 234.076 178.819C234.07 175.691 234.805 172.954 236.28 170.608C237.756 168.261 239.845 166.442 242.55 165.151C245.254 163.859 247.982 163.376 250.734 163.703C253.486 164.03 256.061 165.186 258.46 167.171C260.875 169.109 262.921 171.835 264.599 175.347C266.277 178.86 267.118 182.18 267.124 185.308C267.145 188.389 266.418 191.104 264.943 193.45C263.468 195.796 261.378 197.615 258.674 198.907ZM255.623 192.519C257.612 191.569 258.758 189.972 259.06 187.728C259.394 185.469 258.707 182.552 256.999 178.977C255.292 175.403 253.455 173.036 251.488 171.875C249.552 170.7 247.59 170.588 245.601 171.538C243.642 172.474 242.497 174.071 242.163 176.33C241.861 178.574 242.563 181.483 244.271 185.058C245.978 188.632 247.8 191.007 249.736 192.182C251.702 193.342 253.665 193.455 255.623 192.519ZM276.446 171.292C274.052 172.435 271.708 172.562 269.413 171.673C267.134 170.739 265.341 168.904 264.035 166.168C262.728 163.433 262.435 160.901 263.155 158.572C263.891 156.197 265.456 154.438 267.849 153.295C270.242 152.151 272.578 152.047 274.857 152.982C277.121 153.885 278.907 155.705 280.213 158.44C281.52 161.176 281.821 163.723 281.116 166.083C280.396 168.412 278.839 170.148 276.446 171.292ZM287.469 144.38L293.018 141.73L286.321 185.013L280.773 187.663L287.469 144.38ZM274.619 167.468C275.676 166.964 276.292 166.135 276.467 164.983C276.673 163.815 276.368 162.377 275.551 160.667C274.734 158.958 273.807 157.816 272.77 157.243C271.764 156.655 270.732 156.613 269.675 157.118C268.649 157.608 268.041 158.452 267.85 159.65C267.644 160.818 267.942 162.241 268.744 163.919C269.546 165.597 270.473 166.739 271.525 167.343C272.562 167.917 273.594 167.958 274.619 167.468ZM305.942 176.099C304.388 176.841 302.818 177.152 301.233 177.031C299.665 176.864 298.212 176.26 296.875 175.219C295.538 174.178 294.439 172.756 293.577 170.953C292.716 169.15 292.301 167.402 292.332 165.708C292.362 164.013 292.813 162.519 293.683 161.225C294.57 159.885 295.791 158.844 297.345 158.102C299.739 156.958 302.075 156.854 304.354 157.789C306.649 158.678 308.45 160.49 309.756 163.225C311.063 165.96 311.348 168.515 310.612 170.89C309.892 173.219 308.335 174.956 305.942 176.099ZM304.116 172.276C305.172 171.771 305.788 170.942 305.963 169.79C306.154 168.591 305.849 167.153 305.047 165.474C304.245 163.796 303.326 162.67 302.288 162.097C301.267 161.477 300.228 161.42 299.171 161.925C298.146 162.415 297.53 163.244 297.324 164.411C297.118 165.578 297.423 167.017 298.24 168.726C299.057 170.436 299.984 171.577 301.021 172.15C302.058 172.724 303.09 172.766 304.116 172.276Z" fill="#EBEDF5"></path> </g> </g> <defs> <filter id="filter0_f" x="0.438904" y="0.69635" width="407.644" height="291.763" filterUnits="userSpaceOnUse" color-interpolation-filters="sRGB"> <feFlood flood-opacity="0" result="BackgroundImageFix"></feFlood> <feBlend mode="normal" in="SourceGraphic" in2="BackgroundImageFix" result="shape"></feBlend> <feGaussianBlur stdDeviation="15" result="effect1_foregroundBlur"></feGaussianBlur> </filter> <filter id="filter1_f" x="23.9427" y="26.0821" width="359.481" height="240.241" filterUnits="userSpaceOnUse" color-interpolation-filters="sRGB"> <feFlood flood-opacity="0" result="BackgroundImageFix"></feFlood> <feBlend mode="normal" in="SourceGraphic" in2="BackgroundImageFix" result="shape"></feBlend> <feGaussianBlur stdDeviation="4.83229" result="effect1_foregroundBlur"></feGaussianBlur> </filter> <filter id="filter2_d" x="182.761" y="135.768" width="138.185" height="94.5685" filterUnits="userSpaceOnUse" color-interpolation-filters="sRGB"> <feFlood flood-opacity="0" result="BackgroundImageFix"></feFlood> <feColorMatrix in="SourceAlpha" type="matrix" values="0 0 0 0 0 0 0 0 0 0 0 0 0 0 0 0 0 0 127 0"></feColorMatrix> <feOffset dy="3.97467"></feOffset> <feGaussianBlur stdDeviation="4.96833"></feGaussianBlur> <feColorMatrix type="matrix" values="0 0 0 0 0.0156863 0 0 0 0 0.329412 0 0 0 0 0.301961 0 0 0 0.2 0"></feColorMatrix> <feBlend mode="normal" in2="BackgroundImageFix" result="effect1_dropShadow"></feBlend> <feBlend mode="normal" in="SourceGraphic" in2="effect1_dropShadow" result="shape"></feBlend> </filter> <linearGradient id="paint0_linear" x1="172.132" y1="209.562" x2="170.389" y2="209.216" gradientUnits="userSpaceOnUse"> <stop stop-color="#4EB789"></stop> <stop offset="0.25" stop-color="#5FC188"></stop> <stop offset="0.72" stop-color="#7BD087"></stop> <stop offset="1" stop-color="#85D686"></stop> </linearGradient> <linearGradient id="paint1_linear" x1="333.781" y1="196.335" x2="180.427" y2="165.89" gradientUnits="userSpaceOnUse"> <stop stop-color="#1C8870"></stop> <stop offset="0.05" stop-color="#177D69"></stop> <stop offset="0.21" stop-color="#0A6056"></stop> <stop offset="0.35" stop-color="#034E4A"></stop> <stop offset="0.45" stop-color="#004846"></stop> <stop offset="0.67" stop-color="#085F53"></stop> <stop offset="1" stop-color="#15886B"></stop> </linearGradient> <clipPath id="clip0"> <rect width="182.298" height="104.176" fill="white" transform="translate(163.141 137.174) rotate(-4.46719)"></rect> </clipPath> </defs> </svg> 