<?xml version="1.0" encoding="UTF-8"?> <svg xmlns="http://www.w3.org/2000/svg" xmlns:xlink="http://www.w3.org/1999/xlink" id="Layer_1" x="0px" y="0px" viewBox="0 0 48 48" style="enable-background:new 0 0 48 48;" xml:space="preserve"> <path style="fill:#FFA726;" d="M23,23.5c0,0.828-0.672,1.5-1.5,1.5c-0.829,0-1.5-0.672-1.5-1.5s0.671-1.5,1.5-1.5 C22.328,22,23,22.672,23,23.5"></path> <path style="fill:#FFA726;" d="M10,24.5c0,0.828-0.672,1.5-1.5,1.5S7,25.328,7,24.5S7.672,23,8.5,23S10,23.672,10,24.5"></path> <path style="fill:#FF9800;" d="M19,33c0,0,0,4-4,4s-4-4-4-4"></path> <path style="fill:#4FC3F7;" d="M18.75,33L18.75,33L15,33.77L11.25,33c0,0-8.25,1.527-8.25,10h24C27,34.559,18.75,33,18.75,33"></path> <path style="fill:#FF9800;" d="M15,37c-4,0-4-4-4-4v-4h8v4C19,33,19,37,15,37z"></path> <path style="fill:#FFB74D;" d="M22,20.68c0-5.879-14-3.828-14,0v4.391C8,28.895,11.133,32,15,32c3.866,0,7-3.105,7-6.93V20.68z"></path> <path style="fill:#01579B;" d="M15,39c3.059,0,5.578-2.292,5.948-5.25c-0.884-0.398-1.603-0.607-1.954-0.693 C18.963,35.238,17.19,37,15,37s-3.964-1.762-3.994-3.945c-0.353,0.086-1.071,0.293-1.955,0.688C9.417,36.705,11.939,39,15,39z"></path> <path style="fill:#424242;" d="M15,13c-4.86,0-8,4.313-8,8.172V23l2,2v-4l9.2-3l2.8,3v4l2-2v-0.809c0-3.218-0.831-6.803-4.8-7.592 L17.399,13H15z"></path> <path style="fill:#784719;" d="M17,24c0-0.551,0.448-1,1-1s1,0.449,1,1s-0.448,1-1,1S17,24.551,17,24 M11,24c0,0.551,0.448,1,1,1 s1-0.449,1-1s-0.448-1-1-1S11,23.449,11,24"></path> <path style="fill:#2196F3;" d="M35.5,5C30.253,5,26,8.582,26,13c0,2.253,1.11,4.285,2.89,5.739c-0.008,0.025-0.018,0.045-0.026,0.07 C28.279,20.306,27.572,22.043,27,23c1.993,0,4.594-0.977,6.536-2.069c0.035-0.027,0.065-0.059,0.099-0.087 C34.238,20.945,34.861,21,35.5,21c5.247,0,9.5-3.582,9.5-8S40.747,5,35.5,5z"></path> <rect x="30" y="10" style="fill:#90CAF9;" width="11" height="2"></rect> <rect x="30" y="14" style="fill:#90CAF9;" width="7" height="2"></rect> <rect x="39" y="14" style="fill:#90CAF9;" width="2" height="2"></rect> </svg> 