<?xml version="1.0" encoding="UTF-8"?> <svg xmlns="http://www.w3.org/2000/svg" xmlns:xlink="http://www.w3.org/1999/xlink" viewBox="0 0 931.4 725.4"> <defs> <linearGradient id="g" x1="89.7" y1="257.2" x2="93.2" y2="296.1" gradientTransform="translate(179 123)" gradientUnits="userSpaceOnUse"> <stop offset=".1" stop-color="#9dde57"></stop> <stop offset="1" stop-color="#7eb346"></stop> </linearGradient> <linearGradient id="h" x1="95.1" y1="243.5" x2="96.6" y2="259.7" gradientTransform="translate(179 123)" gradientUnits="userSpaceOnUse"> <stop offset=".1" stop-color="#9dde57"></stop> <stop offset="1" stop-color="#a69166"></stop> </linearGradient> <linearGradient id="i" x1="11319.9" y1="381.2" x2="11319.9" y2="474.3" gradientTransform="matrix(-1 0 0 1 11739.3 0)" gradientUnits="userSpaceOnUse"> <stop offset=".6" stop-color="#b8c5dd"></stop> <stop offset="1" stop-color="#9aa7ba"></stop> </linearGradient> <linearGradient id="j" x1="11319.9" y1="389.4" x2="11319.9" y2="465.4" gradientTransform="matrix(-1 0 0 1 11739.3 0)" gradientUnits="userSpaceOnUse"> <stop offset="0" stop-color="#e0f2f3"></stop> <stop offset="1" stop-color="#e9f7fe"></stop> </linearGradient> <linearGradient id="b" x1="517.8" y1="477.5" x2="517.8" y2="630.4" gradientUnits="userSpaceOnUse"> <stop offset=".1" stop-color="#885122"></stop> <stop offset=".1" stop-color="#9e602e"></stop> <stop offset=".1" stop-color="#b4703a"></stop> <stop offset=".1" stop-color="#c57c43"></stop> <stop offset=".2" stop-color="#d08449"></stop> <stop offset=".2" stop-color="#d7894d"></stop> <stop offset=".3" stop-color="#d98a4e"></stop> </linearGradient> <linearGradient id="c" x1="593.9" y1="477.5" x2="593.9" y2="630.4" gradientUnits="userSpaceOnUse"> <stop offset=".1" stop-color="#a1602d"></stop> <stop offset=".1" stop-color="#f49a57"></stop> <stop offset=".2" stop-color="#f49a57"></stop> </linearGradient> <linearGradient id="d" x1="519.2" y1="561.8" x2="590.7" y2="561.8" gradientUnits="userSpaceOnUse"> <stop offset=".2" stop-color="#d98c4e"></stop> <stop offset=".5" stop-color="#f49d57"></stop> </linearGradient> <linearGradient id="k" x1="268.8" y1="624" x2="285" y2="544.4" gradientTransform="matrix(-1 0 0 1 626.5 0)" gradientUnits="userSpaceOnUse"> <stop offset=".1" stop-color="#7b3f28"></stop> <stop offset=".3" stop-color="#9b4f27"></stop> <stop offset=".5" stop-color="#b45c26"></stop> <stop offset=".7" stop-color="#b45c26"></stop> </linearGradient> <linearGradient id="l" x1="144.8" y1="464.8" x2="232.9" y2="498.5" gradientTransform="matrix(-1 0 0 1 626.5 0)" gradientUnits="userSpaceOnUse"> <stop offset=".1" stop-color="#7b3f28"></stop> <stop offset=".3" stop-color="#9b4f27"></stop> <stop offset=".5" stop-color="#b45c26"></stop> <stop offset=".8" stop-color="#b45c26"></stop> </linearGradient> <linearGradient id="a" x1="222.4" y1="492.4" x2="202.1" y2="530.8" gradientTransform="matrix(-1 0 0 1 626.5 0)" gradientUnits="userSpaceOnUse"> <stop offset=".1" stop-color="#7b3f28"></stop> <stop offset=".5" stop-color="#9b4f27"></stop> <stop offset=".8" stop-color="#b45c26"></stop> </linearGradient> <linearGradient id="m" x1="233.7" y1="497.4" x2="235.4" y2="548.6" xlink:href="#a"></linearGradient> <linearGradient id="n" x1="241.5" y1="599.8" x2="378.1" y2="626" gradientTransform="matrix(-1 0 0 1 626.5 0)" gradientUnits="userSpaceOnUse"> <stop offset=".1" stop-color="#7b3f28"></stop> <stop offset=".4" stop-color="#b45c26"></stop> </linearGradient> <linearGradient id="o" x1="218.6" y1="499.7" x2="238.9" y2="561.8" gradientTransform="matrix(-1 0 0 1 626.5 0)" gradientUnits="userSpaceOnUse"> <stop offset="0" stop-color="#b45c26"></stop> <stop offset=".3" stop-color="#b05a26"></stop> <stop offset=".6" stop-color="#a25426"></stop> <stop offset=".9" stop-color="#8d4b25"></stop> <stop offset="1" stop-color="#864825"></stop> </linearGradient> <linearGradient id="p" x1="272.4" y1="481" x2="272.4" y2="631.9" xlink:href="#b"></linearGradient> <linearGradient id="q" x1="349.2" y1="480.8" x2="349.2" y2="631.9" xlink:href="#c"></linearGradient> <linearGradient id="r" x1="274.3" y1="555.5" x2="345.8" y2="555.5" xlink:href="#d"></linearGradient> <linearGradient id="e" x1="8032.1" y1="560.4" x2="8032.1" y2="624.3" gradientTransform="matrix(-1 0 0 1 8695 0)" gradientUnits="userSpaceOnUse"> <stop offset=".1" stop-color="#383838"></stop> <stop offset=".1" stop-color="#919191"></stop> <stop offset=".6" stop-color="#919191"></stop> </linearGradient> <linearGradient id="s" x1="7979" y1="555.9" x2="7979" y2="624.2" xlink:href="#e"></linearGradient> <linearGradient id="t" x1="-2251.8" y1="553.2" x2="-2251.8" y2="620.7" gradientTransform="translate(2830)" xlink:href="#e"></linearGradient> <linearGradient id="u" x1="624.6" y1="607" x2="685.2" y2="407.6" gradientUnits="userSpaceOnUse"> <stop offset=".2" stop-color="#a52519"></stop> <stop offset=".4" stop-color="#a52519"></stop> <stop offset=".8" stop-color="#e04435"></stop> </linearGradient> <linearGradient id="v" x1="1510.7" y1="510.3" x2="1437.6" y2="593.1" gradientTransform="matrix(-1 0 0 1 2138.3 0)" gradientUnits="userSpaceOnUse"> <stop offset=".1" stop-color="#015872"></stop> <stop offset=".3" stop-color="#015d77"></stop> <stop offset=".5" stop-color="#016c87"></stop> <stop offset=".7" stop-color="#0084a0"></stop> <stop offset=".9" stop-color="#009ebc"></stop> </linearGradient> <linearGradient id="w" x1="1451.9" y1="632.6" x2="1471" y2="618.5" gradientTransform="matrix(-1 0 0 1 2138.3 0)" gradientUnits="userSpaceOnUse"> <stop offset=".1" stop-color="#d88057"></stop> <stop offset=".1" stop-color="#db875d"></stop> <stop offset=".1" stop-color="#e49b6c"></stop> <stop offset=".2" stop-color="#eaa978"></stop> <stop offset=".2" stop-color="#eeb17e"></stop> <stop offset=".3" stop-color="#efb380"></stop> <stop offset=".5" stop-color="#efb380"></stop> <stop offset=".7" stop-color="#e19366"></stop> <stop offset=".9" stop-color="#d88057"></stop> </linearGradient> <linearGradient id="x" x1="1490.8" y1="502.3" x2="1480.1" y2="632.4" gradientTransform="matrix(-1 0 0 1 2138.3 0)" gradientUnits="userSpaceOnUse"> <stop offset=".1" stop-color="#006380"></stop> <stop offset=".1" stop-color="#006582"></stop> <stop offset=".4" stop-color="#007290"></stop> <stop offset=".6" stop-color="#007695"></stop> </linearGradient> <linearGradient id="y" x1="1594.2" y1="456.5" x2="1572.6" y2="450.6" gradientTransform="matrix(-1 0 0 1 2138.3 0)" gradientUnits="userSpaceOnUse"> <stop offset=".3" stop-color="#c97751"></stop> <stop offset=".6" stop-color="#cf7a53"></stop> <stop offset=".9" stop-color="#df825a"></stop> <stop offset="1" stop-color="#e5855d"></stop> </linearGradient> <linearGradient id="f" x1="1506.6" y1="371.4" x2="1540" y2="395.1" gradientTransform="matrix(-1 0 0 1 2138.3 0)" gradientUnits="userSpaceOnUse"> <stop offset="0" stop-color="#1fbaa6"></stop> <stop offset=".4" stop-color="#1daf9c"></stop> <stop offset=".9" stop-color="#199988"></stop> </linearGradient> <linearGradient id="z" x1="1528.1" y1="394.2" x2="1595.5" y2="441.8" xlink:href="#f"></linearGradient> <linearGradient id="A" x1="1501.8" y1="388.1" x2="1539.5" y2="440.1" gradientTransform="matrix(-1 0 0 1 2138.3 0)" gradientUnits="userSpaceOnUse"> <stop offset=".2" stop-color="#ffeed7"></stop> <stop offset=".6" stop-color="#ffeed7"></stop> <stop offset="1" stop-color="#f7e7cc"></stop> </linearGradient> <linearGradient id="B" x1="1486.7" y1="412.8" x2="1554.7" y2="460.9" xlink:href="#f"></linearGradient> <linearGradient id="C" x1="630.5" y1="422.3" x2="653.3" y2="422.3" xlink:href="#f"></linearGradient> <linearGradient id="D" x1="1460.2" y1="491" x2="1468" y2="505.3" gradientTransform="matrix(-1 -.1 -.1 1 2193.9 74)" gradientUnits="userSpaceOnUse"> <stop offset=".3" stop-color="#efb380"></stop> <stop offset=".5" stop-color="#efb380"></stop> <stop offset=".8" stop-color="#e19366"></stop> <stop offset="1" stop-color="#d88057"></stop> </linearGradient> <linearGradient id="E" x1="1526" y1="357.9" x2="1528.2" y2="380.7" gradientTransform="matrix(-1 0 0 1 2138.3 0)" gradientUnits="userSpaceOnUse"> <stop offset=".3" stop-color="#d88057"></stop> <stop offset=".4" stop-color="#e8a273"></stop> <stop offset=".5" stop-color="#efb380"></stop> </linearGradient> <linearGradient id="F" x1="-5137" y1="-46.7" x2="-5036.2" y2="-155.3" gradientTransform="matrix(.93 -.36 .36 .93 5375.3 -1405.6)" gradientUnits="userSpaceOnUse"> <stop offset="0" stop-color="#d98057"></stop> <stop offset="0" stop-color="#dd885e"></stop> <stop offset=".1" stop-color="#e59c6d"></stop> <stop offset=".1" stop-color="#ebaa78"></stop> <stop offset=".2" stop-color="#efb27e"></stop> <stop offset=".3" stop-color="#f0b480"></stop> <stop offset=".8" stop-color="#f0b480"></stop> <stop offset=".9" stop-color="#e29467"></stop> <stop offset="1" stop-color="#d98057"></stop> </linearGradient> <linearGradient id="G" x1="-5144.7" y1="-264.6" x2="-4942.2" y2="34.1" gradientTransform="matrix(.93 -.36 .36 .93 5375.3 -1405.6)" gradientUnits="userSpaceOnUse"> <stop offset="0" stop-color="#ff9c12"></stop> <stop offset=".1" stop-color="#fa840c"></stop> <stop offset=".2" stop-color="#f56c07"></stop> <stop offset=".4" stop-color="#f15c03"></stop> <stop offset=".5" stop-color="#ef5201"></stop> <stop offset=".7" stop-color="#ee4f00"></stop> </linearGradient> <clipPath id="H"> <path d="M568.6 311s7.6 22.3-.9 24c-7.4-1.5-9.2-14.4-9.6-22.5 2.8-5.9 10.5-1.5 10.5-1.5z" fill="none"></path> </clipPath> <linearGradient id="I" x1="-5042.6" y1="-65.1" x2="-5060.6" y2="-51.1" gradientTransform="matrix(.93 -.36 .36 .93 5375.3 -1405.6)" gradientUnits="userSpaceOnUse"> <stop offset=".1" stop-color="#d98057"></stop> <stop offset=".1" stop-color="#dd885e"></stop> <stop offset=".3" stop-color="#e59c6d"></stop> <stop offset=".5" stop-color="#ebaa78"></stop> <stop offset=".6" stop-color="#efb27e"></stop> <stop offset="1" stop-color="#f0b480"></stop> </linearGradient> </defs> <g data-name="1"> <path d="M886.6 434.4C852.2 624.6 697.7 640 464.6 640S105 675.5 42 434.4C-6.6 248 236.7 138 464.4 83.5 751 15.1 924 227.3 886.6 434.5z" fill="#ebffff"></path> <path d="M279.3 378s15-6.6 19.5 10.2-10 27.4-16.8 28.2-3.5-.2-6.8.7-33.5-16.7-17.2-36.6c9.2-11.3 21.3-2.5 21.3-2.5z" fill="url(#g)"></path> <path d="M279.1 380.5a32.1 32.1 0 0 1 4.4-17.8l-1.4-.1-1.4-.2s-4.9 8.6-2.9 18c.2.3.7.4 1.3 0z" fill="url(#h)"></path> <path fill="#ccb37d" d="M339 430.6l-89.6-1.4.3 11.2 89.5-.3-.2-9.5z"></path> <path fill="#b7e4e8" d="M347.6 431.3l-103.4-.8-.4-15.3 103.5 3.7.3 12.4z"></path> <path fill="#ccb37d" d="M338.1 453.1l-89.6-1.4.3 11.2 89.5-.3-.2-9.5z"></path> <path fill="#d0e8b7" d="M346.6 453.8l-103.4-.8-.3-12.1 101.9-2.4 1.8 15.3z"></path> <path fill="url(#i)" d="M477.8 376l1.7 88.7H366.3l-6.9-93.1 118.4 4.4z"></path> <path fill="url(#j)" d="M471.9 385.1l1.6 72.5H371.6l-6.2-76 106.5 3.5z"></path> <path fill="#9ca2ad" d="M365.6 456.1l153.7-5.8v14.4H365.6v-8.6z"></path> <path fill="url(#b)" d="M550.9 476.7h-11.6l-54.6 161.8h17.7l48.5-161.8z"></path> <path fill="url(#c)" d="M557.9 476.7h14.7L630 638.5h-20.8l-51.3-161.8z"></path> <path fill="url(#d)" d="M522.5 558.5l65.8-3 2.4 12.5-71.5-2.9 3.3-6.6z"></path> <path fill="#5b4f61" d="M626.9 475.7L205.5 483v-20.8l421.4 2.9v10.6z"></path> <path fill="#877991" d="M368.2 480.3L205.5 483v-20.8l162.7 1.1v17z"></path> <path d="M440.4 495.6c1-.1 15-5.2 18.8 2 3.7 8.3-1 10.6-4 11s-1.6-13.7-12.2-8.7c-14.4 2.3-22.1-7.2-22.6-8.4s20 4.1 20 4.1zM393.5 568.4s-13 21-7.5 58.9c8.8 1.7 9.8 4.1 9.8 4.1s.2 4-.9 6c-16.7 0-14.2.3-14.2.3s-11.7-21-13.9-46.4a158.2 158.2 0 0 1 3.3-30.4zM316.4 596.6s31.6-19.4 43.3-6c2.4 4.2.7 29.4-20.2 36H361c5.5 0 9.8 3.3 10.8 10.7.1.8-54.2 0-54.2 0s-4.6-31.4-1.3-40.7z" fill="#b9a089"></path> <path d="M401 502.1a46.4 46.4 0 0 1-9.5-19.5 214 214 0 0 1-37.6 26.8c-53.2 45.5-73.3 116.9-73.3 116.9s7.6-7.3 28.2-9c15.6-10.3 60.3-29.2 60.3-29.2l19.1-6 14.4-17c8-12.2 8.5-26 10-48.6l.7-.3a160.2 160.2 0 0 1-12.4-14z" fill="#b9a089"></path> <path d="M381 484.4a15.3 15.3 0 0 1 5-11.6 73.8 73.8 0 0 1 30-16 20.8 20.8 0 0 1 12 4s18.4-4 29.2-11.4c11.6-.3 14.4.5 14.4.5s5.5 10.4 2.2 21.9c0 0-5.8 8.5-13.5 13.9-3.2 2.2-19.7 12.6-33.5 7.9a13.7 13.7 0 0 0 18.1 5.1 254.8 254.8 0 0 1-30.6 25.4c-7.3-2.9-28.6-24.8-34-33 0-1.7.6-5.4.6-6.7z" fill="#b9a089"></path> <path d="M428 462s-2.6 2-7.8-.3c-2.6-1.2-3.7-2.3-2.9-3.6 1.1-1 8 .7 10.2 2.6a1.9 1.9 0 0 1 .5 1.4zM422.2 479.3s-12.2-1.2-9.6-8.9c2-4.2 11.2-.7 13.1 5.4-1.3 4-3.5 3.5-3.5 3.5zM409 496.8s6.4 16.7 14.5 20.3c-6.8 5.7-9 7.2-9 7.2zM388.8 488.2c-.5.4-8.8 28-6.6 39.3 11.6 8 19.4 9.5 19.4 9.5zM454.9 450.6s6 7.6 9.2 8.4c4.4-.7 9.6-1.7 10.1-1.1a16.4 16.4 0 0 0-1.9-7.3s-3.8-7.6-8-7.6c-5.2 1.7-9.4 7.6-9.4 7.6z" fill="#b9a089"></path> <path d="M415.1 470.5c1.4-2.3 4.6-1.9 8.3 1.4 4.8 4.1 1 9-3.6 6.6s-5.5-6.5-4.7-8zM417.8 458.7c.7-1.7 10.3 1 10.3 2.9 0 2-4.5 1.3-6.5.7s-4.5-2-3.8-3.6zM387.7 567.1s-13 21.6-7.5 60.6c8.8 1.7 10.5 3.4 10.5 3.4s.2 4.1-1 6.1c-4.1.3-6 .7-9 .7a9.6 9.6 0 0 1-8.8-5.7 133.8 133.8 0 0 1-10.8-41.5 167.2 167.2 0 0 1 3.2-31.3zM350.3 594s5.8 22-15.6 35.2c15.9-.5 29.3.2 29.3.2s7.5 4 4.9 9.6H295s-11.3-3.2-13.4-12.3c-1.1-8.3 9.6-29.6 15.4-37.7 33.5-32 53.2 5 53.2 5zM373 497.3s1 8.8 12.5 29.7c8.6 7.1 26.2 8.4 26.2 8.4l-1.1 6s-14.8 3.8-29.3-10.5c-11.4-20-13.1-31.5-13.2-30.5z" fill="#b9a089"></path> <path d="M388.6 486.2s-4 43.2-2.2 52.4c5 4.8 11 6.9 17.2 5.8a23.7 23.7 0 0 0 15.5-6.4l-11.6-50.1c-1.4-4-15.3-7-19-1.7zM303.2 639h-49.3s-20.5-15.6-9.2-35c4.2-8.7 14.1-11 16.3-8.8.9 1.7-5 2.3-7.3 8.7s3.3 35.2 30.4 20.5a23.4 23.4 0 0 1 19 14.6z" fill="#b9a089"></path> <path d="M440.4 495.6c1-.1 15-5.2 18.8 2 3.7 8.3-1 10.6-4 11s-1.6-13.7-12.2-8.7c-14.4 2.3-22.1-7.2-22.6-8.4s20 4.1 20 4.1z" fill="#ff7154"></path> <path d="M393.5 568.4s-13 21-7.5 58.9c8.8 1.7 9.8 4.1 9.8 4.1s.2 4-.9 6c-16.7 0-14.2.3-14.2.3s-11.7-21-13.9-46.4a158.2 158.2 0 0 1 3.3-30.4zM316.4 596.6s31.6-19.4 43.3-6c2.4 4.2.7 29.4-20.2 36H361c5.5 0 9.8 3.3 10.8 10.7.1.8-54.2 0-54.2 0s-4.6-31.4-1.3-40.7z" fill="#864825"></path> <path d="M401 502.1a46.4 46.4 0 0 1-9.5-19.5 214 214 0 0 1-37.6 26.8c-53.2 45.5-73.3 116.9-73.3 116.9s7.6-7.3 28.2-9c15.6-10.3 60.3-29.2 60.3-29.2l19.1-6 14.4-17c8-12.2 8.5-26 10-48.6l.7-.3a160.2 160.2 0 0 1-12.4-14z" fill="url(#k)"></path> <path d="M381 484.4a15.3 15.3 0 0 1 5-11.6 73.8 73.8 0 0 1 30-16 20.8 20.8 0 0 1 12 4s18.4-4 29.2-11.4c11.6-.3 14.4.5 14.4.5s5.5 10.4 2.2 21.9c0 0-5.8 8.5-13.5 13.9-3.2 2.2-19.7 12.6-33.5 7.9a13.7 13.7 0 0 0 18.1 5.1 254.8 254.8 0 0 1-30.6 25.4c-7.3-2.9-28.6-24.8-34-33 0-1.7.6-5.4.6-6.7z" fill="url(#l)"></path> <path d="M428 462s-2.6 2-7.8-.3c-2.6-1.2-3.7-2.3-2.9-3.6 1.1-1 8 .7 10.2 2.6a1.9 1.9 0 0 1 .5 1.4zM422.2 479.3s-12.2-1.2-9.6-8.9c2-4.2 11.2-.7 13.1 5.4-1.3 4-3.5 3.5-3.5 3.5z" fill="#e4e5e6"></path> <path d="M409 496.8s6.4 16.7 14.5 20.3c-6.8 5.7-9 7.2-9 7.2z" fill="url(#a)"></path> <path d="M388.8 488.2c-.5.4-8.8 28-6.6 39.3 11.6 8 19.4 9.5 19.4 9.5z" fill="url(#m)"></path> <path d="M454.9 450.6s6 7.6 9.2 8.4c4.4-.7 9.6-1.7 10.1-1.1a16.4 16.4 0 0 0-1.9-7.3s-3.8-7.6-8-7.6c-5.2 1.7-9.4 7.6-9.4 7.6zM413.1 468.5c1.4-2.4 4.6-1.9 8.3 1.3 4.8 4.2 1 9.1-3.6 6.6s-5.6-6.5-4.7-8zM417.2 458.1c.7-1.7 10.3 1 10.4 2.9 0 2-4.5 1.3-6.5.7s-4.6-2-4-3.6z" fill="#4a2818"></path> <path d="M387.7 567.1s-13 21.6-7.5 60.6c8.8 1.7 10.5 3.4 10.5 3.4s.2 4.1-1 6.1c-4.1.3-6 .7-9 .7a9.6 9.6 0 0 1-8.8-5.7 133.8 133.8 0 0 1-10.8-41.5 167.2 167.2 0 0 1 3.2-31.3z" fill="#b45c26"></path> <path d="M350.3 594s5.8 22-15.6 35.2c15.9-.5 29.3.2 29.3.2s7.5 4 4.9 9.6H295s-11.3-3.2-13.4-12.3c-1.1-8.3 9.6-29.6 15.4-37.7 33.5-32 53.2 5 53.2 5z" fill="url(#n)"></path> <path d="M373 497.3s1 8.8 12.5 29.7c8.6 7.1 26.2 8.4 26.2 8.4l-1.1 6s-14.8 3.8-29.3-10.5c-11.4-20-13.1-31.5-13.2-30.5z" fill="#fcca11"></path> <path d="M388.6 486.2s-4 43.2-2.2 52.4c5 4.8 11 6.9 17.2 5.8a23.7 23.7 0 0 0 15.5-6.4l-11.6-50.1c-1.4-4-15.3-7-19-1.7z" fill="url(#o)"></path> <path d="M303.2 639h-49.3s-20.5-15.6-9.2-35c4.2-8.7 14.1-11 16.3-8.8.9 1.7-5 2.3-7.3 8.7s3.3 35.2 30.4 20.5a23.4 23.4 0 0 1 19 14.6z" fill="#b45c26"></path> <path fill="url(#p)" d="M305.2 480.3h-11.7l-53.8 159.6h17.8l47.7-159.6z"></path> <path fill="url(#q)" d="M313.5 480h13.9L385 639.9h-20L313.5 480z"></path> <path fill="url(#r)" d="M277.6 552.2l65.7-2.9 2.5 12.4-71.5-2.9 3.3-6.6z"></path> <path fill="url(#e)" d="M669 559.8l-6.7 81.1h-4.4l-1-80.9 12.1-.2z"></path> <path fill="url(#s)" d="M705.5 551.5l31.6 86.8h-4.3L695 555.9l10.5-4.4z"></path> <path fill="url(#t)" d="M585.5 552.5L559 638.3h4.3l33.9-85.6-11.7-.2z"></path> <path d="M724.5 436.2s-29.2-20.2-79.9-5c-28.4 8.5 22.1 78.8-11.3 89S558 533.5 580 553.6c42.5 11.6 118.2 8 132.4-9.6s-8-37.4-8.7-51.3 16.1-38.7 22.1-45.3-1.3-11.2-1.3-11.2zm-66.4 9s4-11.8 21-10.6c15 1 15.5 12.5 15.5 12.5z" fill="url(#u)"></path> <path d="M588 546.7c6.3 1.5 24.5 4.6 53.1 4.6 32 0 65.6-2.4 66.6-20.3.8-16.2-19-36.9-6.3-63.5 2.7-5.6 11-14.4 10.6-26.3-.5-13.7-37.5-14.9-34.4-15.3 20.1-2.4 48.6 6.8 50.9 15.5 2.5 9.4-23.4 53.2-19.4 64.4s11.4 12.7 12.3 24.6c.6 8.5-3.9 14.9-10.6 19.6-24.7 17.4-97.5 11.7-124.3 6-13.4-2.8-18.5-13.4-6.5-20.2-.5 1.6-4.6 8 8 11z" fill="#ff4c3b"></path> <path d="M684.2 528.8s17.3 2 24.3 1.8c3.4 6 2.1 11.2 1.5 14-1.2-3.2-2.8-6.3-2.8-6.3s-16 .4-24-1.2c-.5-5.7 1-8.3 1-8.3z" fill="#d88257"></path> <path d="M684.2 528.8c-15-3-36.8-3.3-36.8-3.3l-12.9-45.6a244 244 0 0 1-8-.6 71.1 71.1 0 0 1-19.5-1.9c.9 27.7 4.4 68.7 16 71.4 17.6 4.2 61.7-10.5 61.7-10.5z" fill="url(#v)"></path> <path d="M681 533c-3.4 0-8.2-.3-13.2-.5-8.4-.5-17.8-1-20.5-.2l-.7.3-.2-.8a5.3 5.3 0 0 0-.5-1.4 7.2 7.2 0 0 1-.6-1.6 1.3 1.3 0 0 0-.3.1l-3.7 2.4a3 3 0 0 1-2.3.6 2 2 0 0 1-1.5-2.2v-.5a1.7 1.7 0 0 0 0-1 .7.7 0 0 0-.7-.2l-1.2-.6c.4-.8-.2-2.4-.7-3.6l-.4-1.3a70.1 70.1 0 0 1-2.7-23.9h1.4a69.8 69.8 0 0 0 .9 15.9 67 67 0 0 0 1.7 7.6l.4 1.2a11 11 0 0 1 1 3.4 2 2 0 0 1 1.4.8 2.8 2.8 0 0 1 .3 1.8v.4s0 .7.4.8a1.8 1.8 0 0 0 1.3-.4l3.7-2.4a1.6 1.6 0 0 1 1.8-.2 1.4 1.4 0 0 1 .6.9 6.8 6.8 0 0 0 .5 1.4 6.2 6.2 0 0 1 .4 1c3.5-.7 12-.2 20.2.3 7.2.3 14 .7 16.8.3l.2 1.4a30.6 30.6 0 0 1-3.7.2z" fill="#b07527"></path> <path d="M682.1 539s7.7.5 7.8-1.3c0-1.6-.5-6 .2-8.3-3.2-2-8-1.3-8-1.3z" fill="#096884"></path> <path d="M706.6 530.7s3 4.8 2.8 12.7c1.7 6.4 3.2 10.3 4.5 9.2s3.1-15.2-1.5-22.7c-2-1.4-5.8.8-5.8.8z" fill="#5b4f61"></path> <path d="M711.3 544.6s-3-6.3-6.8-4.6c-1.8 3.5 4.4 4.2 4.4 4.2z" fill="#5b4f61"></path> <path d="M678.7 614s4.4 17.4 4.4 23.1c-5.7.5-8.4-.2-8.4-.2a63.8 63.8 0 0 0-2.2-20.9l6.2-2z" fill="url(#w)"></path> <path d="M653 478.2s31.2 57.5 26.6 139.8a76.6 76.6 0 0 1-7.9-.1s-3-5.5-11-34.2c-4-3.4-13.5-14-40.3-101.8 29.1-4 32.6-3.7 32.6-3.7z" fill="url(#x)"></path> <path d="M678.2 617h-1.4c.5-12-1.4-24-3.2-35.4-1-6.6-2.2-13.3-2.8-20a7.5 7.5 0 0 0-.6-2.7 2 2 0 0 0-1.7-1.3h-1l.4-1a10 10 0 0 1 2.2-3.5 4.3 4.3 0 0 0-1.4-.7l-.3-.1c-1.1-.5-2.3-1.5-2-2.8.1-1.2 1.3-1.7 2-2l1-.5c-3.2-1.7-4-5.9-4.7-9.3l-.4-2c-1.5-6.3-3-12-4.4-17.1a227 227 0 0 0-11.7-32.5l1.3-.5a226.7 226.7 0 0 1 11.7 32.6 417 417 0 0 1 4.4 17.2l.4 2c.8 3.8 1.6 8 5.3 8.9l2 .4-4.4 2c-.6.3-1.1.6-1.2 1s.6 1 1.3 1.3h.2a3.8 3.8 0 0 1 2.5 2l.2.4-.4.3a8.7 8.7 0 0 0-2 2.7 3.7 3.7 0 0 1 2 1.8 8.6 8.6 0 0 1 .7 3.2 324 324 0 0 0 2.8 20c1.8 11.5 3.7 23.5 3.2 35.6z" fill="#b07527"></path> <path d="M670.1 614.3s1.6 5.8 3.4 5.8 4.2-.4 6.6-.3a6.2 6.2 0 0 0-.4-6.3z" fill="#096884"></path> <path d="M683.1 633.8v1l.7 6.7-22.3-.8s4.9-9 13-6.6c5 3 6.6 1.9 8.6-.3z" fill="#5b4f61"></path> <path d="M677.8 638s-1-10.8-8.1-9.3a3.7 3.7 0 0 0-.2 4.4s9.2 3.1 8.3 4.9z" fill="#5b4f61"></path> <path d="M543.6 464.7h-17.2s4.8-3.6 7-3.7 14.4.5 14.4.5z" fill="#9d5e3e"></path> <path d="M567 445.4s-7.2 18.6-10.5 19.3H542c-.3-1.4 2.1-2.5 2.1-2.5a65 65 0 0 0-9.2 1.2c-4.8 1-9.5 2.2-9.8 1.2s6-3.1 6-3.1-.2-3.2 2.2-3 12.2-.5 17-2.5c7.2-6.2 7.7-11.2 12-16.1 4.8 2.8 4.8 5.5 4.8 5.5z" fill="url(#y)"></path> <path d="M639.2 390.7s3.4-15.3-7.6-21.9c-13.9-8.2-30.3-3.6-35.6 4.7a25.7 25.7 0 0 0-2.5 10.1z" fill="url(#f)"></path> <path d="M600.6 371.1c-.6.5-3.3.5-9 8.6S556.2 445 553 446.9a24.8 24.8 0 0 0 12.6 9.1s29.2-51.7 35.2-70.4c1.3-12-.2-14.5-.2-14.5z" fill="url(#z)"></path> <path d="M620.6 369.9s-4 11-19.4 4.3c4.6 71.2 8.6 91.3 8.6 91.3l16.3-.3z" fill="url(#A)"></path> <path d="M659.3 485.3a170.6 170.6 0 0 1-53.3-2c-4.1-28.4-10.7-87.5-6.5-111.6a10.2 10.2 0 0 1 4-1.8s7.4 68.5 12.5 87c-1-26.6 1.5-80.2 4.4-87.8a21.4 21.4 0 0 1 12.5 7.6c12.6 53.6 23.4 96.5 26.4 108.6z" fill="url(#B)"></path> <path d="M630.5 384s7 51.5 22.8 76.6c-3.3-18.3-11.8-59-13.5-75a21.4 21.4 0 0 0-9.3-1.6z" fill="url(#C)"></path> <path d="M689 417.4s-1.2 1.6 5.1 4.6 13.5 5 12.7 6.4-8.7-1.5-9.8-2 4 2.3 1 1.8-9.8.1-11.9-1.2-1.4-2.3-7.4-1.6c-6.6.9-10.8-.2-11-1s9.1-.4 9-6.4c8.3-.1 12.3-.6 12.3-.6z" fill="url(#D)"></path> <path d="M626 382.8s28 2.5 34.3 5 11.5 22.4 14.9 33.5c15.8 1.7 15.4-2.1 15.4-2.1s-3.7-22.5-17.7-38.3c-11.5-13-37.8-13.2-48.7-13.2-1 10.5 1.9 15.1 1.9 15.1z" fill="#10b9a5"></path> <path d="M611.9 351.7l4.6 16.4 4 1.8s-1.7 11.8-9.2 11.8-9.7-10.8-9.7-10.8l4.4-1.7.3-15.4z" fill="url(#E)"></path> <path d="M567.3 237.3c-24.9 4.8-36.9 30.4-36.4 52.2s1.6 31.4-1.7 40.5-1 38.3 27.5 42.2c40 5.6 72.1-19.6 86.5-51 12.2-30.6-3.3-98-76-83.9z" fill="url(#F)"></path> <path d="M534.2 310.6c-2 2.4-4.2 17.5 1.2 21 4.1-1 8.6-9.3 6.4-19.6-3.4-4.4-5.8-3.6-7.6-1.4z" fill="#f4f2f1"></path> <path d="M546.7 264.4S544.6 275 536 274a20.6 20.6 0 0 1-4.5 11.8c-1.8 2.3-7.4 5.5-8.6 3 0 7.3-5.5 11.7-9.7 8s-10.2-13-2.3-19c-2.6 0-3.7-4.2-3.7-4.2s-2.8 3.4-5.5 2.5-14.3-14.7-8-22.3c-7 2.9-8 2.4-11.2-.2s-13.5-13.9-12.2-19.8c1.5-.8 14.4 3.8 16 1.2-4.6-3-9.5-7-8.7-13.2s7.7-17.2 9-12 6.1 18.8 21.6 19.6c-3-3.6-2.9-6.3-2.2-8.2s4.9-11.6 12.3-15.1 14.6.9 14.6.9 5.6-9.5 16-7.3 12.4 6.4 13.5 9.5c3-5.1 6-7 9.4-6.4s8.2 5.2 10.8 9 6 1.3 6.7-.4-.1-6.6 4.6-8.4 11.6-.8 11.6-.8 0-6 9-8 20.6 1 26.7 9.1 8 17.4 11.5 17.2 10.2-7.6 16.2-2.8 4.1 15 4.1 15 3.6-3 5.2-.8 4 18.8 7 18.6 7.6-8 12.5-7 9.5 15 9.2 26c3.2 1 11 8.2 1.6 22.4-1.5 11.5-9.8 20.3-17.4 20.2 6.8 8.5 6.6 14.3 3.7 17.8s-9.5 0-9.5 0 .2 4.4-2.2 5.3-5.7-1.1-5.7-1.1.4 5.3-2.7 6.4a12 12 0 0 1-6.3.5s2 10.9-3.4 14.1-8 0-8 0-3.4-5.8-6.4-5.4c-2 5-8 9.4-12 7.4s-3.4-17-3.4-17c-3.8.7-7-14.1-7.2-18.1-2.1-.6-2.5-6-2.5-6s-3.7 13.3-7.7 12-.7-15.3-4.3-15-3.1 7.4-6.6 6.4-10.4-30-12.8-36.9c-9.5 2.6-22.6 1.7-25.2-4s2.4-9.8 0-12.5c-2 5.5-9.8 11.8-14.9 9s-7.2-10.6-7.2-10.6z" fill="url(#G)"></path> <path d="M686.5 312.3c-2.5 2.5-.3 8.3-3.6 10.5-3.4 2.2-5.3-1.6-5.9-4.1-2 4.8-5 11.5-10.5 13.1-7.2 2.2-9-5-9-10.3 0-1.9.2-7.7-2.6-8-3.2-.3-5 7.2-5.4 9.1a78.3 78.3 0 0 0-8.2-12.2c-5.7-7-12.6-.4-19.7-1.7-5.8-1-4.9-12.6-10.5-7.3-2.8 2.7-4.5 8-8.9 4.4a10.6 10.6 0 0 1-2.5-3.1c2.6 8.4 5.2 16.1 7 16.7 3.5 1 3-6 6.7-6.3s.2 13.6 4.2 15 7.8-12 7.8-12 .4 5.3 2.5 5.9c0 4 3.4 18.8 7.1 18.1 0 0-.7 15 3.4 17s10-2.3 12-7.4c3-.4 6.4 5.4 6.4 5.4s2.7 3.3 8 0 3.5-14 3.5-14a12 12 0 0 0 6.2-.6c3.1-1.1 2.8-6.4 2.8-6.4s3.1 2 5.6 1.1 2.3-5.3 2.3-5.3 6.5 3.4 9.4 0 3.1-9.3-3.7-17.8a10.3 10.3 0 0 0 2.6-.3c-2.4-.7-5.4-1.2-7 .5zM552 354.2s11.9-6.4 13.3-12.1a12.7 12.7 0 0 1-2.7 14c-3.3 3.3-10 3.4-10.5-2z" fill="#c6421d"></path> <path d="M552 354.2a12.4 12.4 0 0 0 10-4.3c3.9-4.8 3.3-7.8 3.3-7.8s-1.8 5.6-13.2 12zM571.6 308.6s4.9 25.1-4.5 25.7c-6-2.7-10.1-18.5-7-25.7 3.8-5.8 11.5 0 11.5 0z" fill="#f4f2f1"></path> <path d="M532.4 313.6c-.6 2-1.3 14.7 3.4 18.5s6-10 .3-18.7c-1.5-2.2-3.1-1.9-3.7.2z" fill="#412128"></path> <path d="M541.8 309.4s2.6 9-1.8 11.5-8.9 2.9-9.4 4.8 3.6 9.1 9.1 8.6 10.9-21.5 2.1-25z" fill="#ec7f58"></path> <g clip-path="url(#H)"> <path d="M561 310.2c3-.7 7 9 7.7 11.6.8 3.4 2.2 11.9-.7 12.7-2.1.6-6-2.5-8-11s-1-12.9 1-13.3z" fill="#412128"></path> </g> <path d="M694 330.7l.3-.3c-.1.1-.2.1-.1 0a5.5 5.5 0 0 0 .5-.4 1.8 1.8 0 0 1-.7.7zM491.7 258.2a17.6 17.6 0 0 0 1.7 7.6 27 27 0 0 0 4.5 6.9c.4.4-.3 0 .7 1l1.6 1.5a8.2 8.2 0 0 0 1 .7 1.4 1.4 0 0 0 .3.1 1.2 1.2 0 0 0 .3.1h.6a4.5 4.5 0 0 0 2.6-.7 9.7 9.7 0 0 0 1-.9 9.8 9.8 0 0 0 1-1 10 10 0 0 0 1.2 2.7 3.3 3.3 0 0 0 2.1 1.7h.3l-.3.2-.6.4-.4.5-.5.5.2-.3a6.9 6.9 0 0 0-1.1 1.6 13.8 13.8 0 0 0-.7 1.8s0-.4 0-.1l-.3 1.3a5.5 5.5 0 0 0 0 1.4 7.5 7.5 0 0 0-.2 1.1l.1.4.1.3 1.2 3.3a14.8 14.8 0 0 0 2 3.4c-.1 0-.3-.3-.2-.1a22.8 22.8 0 0 0 2.3 2.5 6.7 6.7 0 0 0 3 1.9h.9a7.1 7.1 0 0 0 1 0 9 9 0 0 0 .8-.3 7.8 7.8 0 0 0 .8-.4 7.5 7.5 0 0 0 2.4-2.7c0 .1 0 .3.1.1a9.2 9.2 0 0 1 .4-1l.3-.9a7.5 7.5 0 0 0 .2-.9 3.4 3.4 0 0 0 .2-.6l.1-.9a11.6 11.6 0 0 0 0-1.2V288.3l.1.1.1.1h.1a.3.3 0 0 0 .1 0l.4.4.2.2v.1h.1a1 1 0 0 0 .3.2h.2a1.8 1.8 0 0 0 1 0h.7a4.7 4.7 0 0 1 1-.4 5 5 0 0 0 1.2-.6 14 14 0 0 0 1.7-1.3h.1a14.8 14.8 0 0 0 1.5-1.5c.3-.4.5-.6.4-.7.5-.4-1.1 1.5-.3.8l.7-1 .6-1a21.3 21.3 0 0 0 1.1-2 20.6 20.6 0 0 0 1-2.2l.3-1.1.1-.6.1-.5.3-1.2.1-1.2V274a.8.8 0 0 1 0-.2h1.6a8 8 0 0 0 4.4-1.3l1.1-.7a14.2 14.2 0 0 0 1-1.1 8.2 8.2 0 0 0 .8-1.2l.5-.6a4.5 4.5 0 0 0 .5-1c0-.4.2-.7.5-1.3l-.1.5c.2-.7.6-1.8.8-3v.3l.2.5-.1-.2.6 1.7.4.9a6.5 6.5 0 0 0 .4.8l-.3-.4c.4 1 .5 1 .6 1.1l.5.9-.2-.3 1.6 2.3 1 1.1a10.4 10.4 0 0 0 1 1c0-.1 0 0 0 0a7.8 7.8 0 0 0 1 .7l.5.3a6.1 6.1 0 0 0 .6.3 5.5 5.5 0 0 0 2.6.3l.4.1a2.7 2.7 0 0 0 1.2-.2 7.7 7.7 0 0 1 1.2-.5c.6-.3 1-.5.5-.4a14.6 14.6 0 0 0 2.3-1.3 12.8 12.8 0 0 0 1.8-1.5c-.5.5.7-.3-.3.5l.4-.3.4-.3c0 .2-.7.7-.5.6l1.1-1.2 1-1.1a11.8 11.8 0 0 0 .8-1.4 19.5 19.5 0 0 0 1-2l.1-.3.1-.3v.5-.2-.1h.1a2.4 2.4 0 0 1 .5.7 3.1 3.1 0 0 1 .3 1 2.6 2.6 0 0 1 0 .2v.2l-.1.5a3.6 3.6 0 0 0-.2.7v.7l-.5 1.3a9.3 9.3 0 0 1-.5 1.4c-.1.3.2-1 0-.3a10.6 10.6 0 0 0-.2 1.2v1.2c-.1.7.2 2.2.2 1.4 0-.6-.1.2-.1-.6l.2 1.2a10.5 10.5 0 0 0 .7 1.6 1.4 1.4 0 0 0-.4-.4 7.1 7.1 0 0 0 3.5 3.2l-.8-.3a10.2 10.2 0 0 0 3 1.3c1 .4 2 .6 3 .8-.3 0-.2-.1-.1-.1a14.6 14.6 0 0 0 1.7.3 9.2 9.2 0 0 0 1.6.1h-.5c.5 0 1.8.1 3.2 0l4.2-.2 2-.4-.3.2 2-.3c.5-.2-.6.1-1.6.3l-1.3.2c.4 0 2.1-.5 1.8-.3l1.5-.4.8-.1.9-.2h-.3l-.2.2a2.6 2.6 0 0 0 .4-.1c1.1-.5.8.2 1 .2s0 0 0 .2v.3l.2.4.3.7s.4 1.3.3.7c0 .2.7 2.2.5 2l-.1-.1a14.1 14.1 0 0 0 .6 1.5v.2c.2 0 .4 1.6.8 2.3.3 1.4 1 3.4 1 4.1l1 3.1a3.2 3.2 0 0 0-.3-.6 10 10 0 0 0 .5 1.6l.5 2.4c.4 1 .4.6.5.7 0 1 1 2.9 1.2 4-.2-.3-.6-1.4-.4-.5l1.2 3.3v-.4c0 .7.8 2.2.6 2.1.2.5.6 1.8.6 1.5a33 33 0 0 0 1.6 4 21.1 21.1 0 0 0 1.4 2.4c0 .2.2.4.3.5H606.7a1.3 1.3 0 0 0 .3 0h.3l-.3.2h-.2v.1h.1v-.2h-.2a.5.5 0 0 0 .3 0 2 2 0 0 0 .7 0l-.2.2a1.2 1.2 0 0 0 .8-.4 2 2 0 0 0 .4-.6l1-2 .3-.6.3-.6.3-.6.7-.8v.2a3.2 3.2 0 0 1 1.1-.8 3.4 3.4 0 0 1 1-.2.7.7 0 0 1 .2 0 1.3 1.3 0 0 1 .4.1 1.3 1.3 0 0 1 .3.3l.1.2c-.2-.4 0-.2.2 0a3.7 3.7 0 0 1 .4 1v-.2a1.9 1.9 0 0 0 0-.1l.2.7a8.8 8.8 0 0 1 .2.9 4.4 4.4 0 0 0-.3-1.7 7 7 0 0 1 .5 1.6v2a5 5 0 0 0 .2 1s0 1.2 0 .6a8.5 8.5 0 0 0 0-1 4.5 4.5 0 0 0 0 1.4c0 .8.1-.2.1 1.2l-.1-.7v1.5c.2.4.2 2 .4 2.3a9.8 9.8 0 0 0 .2 2v-.2a6.7 6.7 0 0 0 .4 1.1 1.7 1.7 0 0 0 .7.7h.1l.2.1a1.3 1.3 0 0 0 .4.1 1.2 1.2 0 0 0 .7-.1 1.4 1.4 0 0 1 .6-.2c.1 0 .3 0 .6-.4.7-.8 1-1.4.6-1a30.4 30.4 0 0 0 2.7-5.3 2.9 2.9 0 0 1 .2-.6l1.1-3.3.6-2 .4-1.2V313.2l.2-.3.4 4.5a16.5 16.5 0 0 0 .5 2.4c-.3-.7 0 0-.1 0a4 4 0 0 1 .2.6c.1.2.1.3.3.3l-.2-.7a3.9 3.9 0 0 0 .6 1 1 1 0 0 0 .2.2h.2l.2.1.2.2h.2v2.1l.1 1c0-.4 0 0 .2.3-.2-.1 0 1.1.2 2l.1.1v.7a4.2 4.2 0 0 1 .4 1.3.6.6 0 0 0 0 .2l1 3.3.2.9c.1.4.5 1 .2.3.5 1.7 1 2.8 1.2 3.3a11.1 11.1 0 0 0 1.2 1.6 3.3 3.3 0 0 0 .7.7.8.8 0 0 0 .2 0H635.6a1.2 1.2 0 0 1 0 .4v3.8l.1 3.4v-.1l.1 1.1c0-.3 0 .8-.2 0a13.1 13.1 0 0 0 .5 2.7c0 .1-.2-.7 0-.5a11.1 11.1 0 0 0 .4 2c0 .4-.1.1-.2 0l.1.4.1.3c.1.6-.1 0-.3-.5s-.4-1.1-.4-.6l.1.4.1.4c0 .7-.6-2-.2 0 .3.7.7 1.4.5.6a2.9 2.9 0 0 0 .6 1.2 3.7 3.7 0 0 1 .2.4l.5.8-.3-.4-.3-.6a4 4 0 0 0 1.3 2c-.2-.3-.2-.4 0-.3a2 2 0 0 1 .1.1l.3.1c.8.4-.5 0 .6.4.2 0 1.3.1.4 0a6.3 6.3 0 0 0 1.9-.2c.4.1-1.3.5.1.3l.7-.3c.4-.2.6-.3.2-.2.5-.2.6-.1.3 0a4.3 4.3 0 0 0 1.1-.4 1.8 1.8 0 0 1 .8-.4l.2-.3.9-.5c.6-.4 1.6-1.7 1.6-1.6.2-.1 1.2-1.4.7-1-.7.8-.7 1-1.2 1.3a3.6 3.6 0 0 0 .8-.8l.5-.8h.1l.4-.6a3 3 0 0 0 .3-.6c-.1.3 0 .2.1 0l.1-.4a7 7 0 0 1 .5-1 1 1 0 0 1 .2-.3H650.8a2 2 0 0 1 .4 0H651.5h-.2a3 3 0 0 0-.7 0h-.5v.1l-.2.3.2-.4h.5a4.1 4.1 0 0 1 .7 0 4 4 0 0 1 .6.2 5 5 0 0 1 1.1.3 2 2 0 0 1 .6.4 2.5 2.5 0 0 0 .5.4l-.5-.3-.5-.3c-.2 0 .6.5 1.4 1.3.5.5 1.3 1.3.6.4.4.4.9 1.1.5.8.8 1 0-.2.7.6l.5.8.3.6.1.2.1.2.1.2.2.2-.3-.2h-.1l-.2-.3-.1-.2.2.5h.1a.3.3 0 0 0-.1 0c0 .1.2.3 0 .2a3.3 3.3 0 0 0 1.2.8c-.6-.4-.2-.3.3-.2s1 .2 1 0l1.4.2a1.3 1.3 0 0 0 .5 0 3.6 3.6 0 0 0 .5 0l.5-.3c-.3 0 .5-.4-.6 0a2.7 2.7 0 0 0 1-.4 7.8 7.8 0 0 1 1-.6c-1 .6 1-.3-.2.5a5.3 5.3 0 0 0-1 .4c.5-.1 0 .2 1-.3a8.3 8.3 0 0 0 1-.6l.4-.3s-.9.6-.6.3a7.4 7.4 0 0 0 1.2-1 1.5 1.5 0 0 0 .4-.6c-.5.7-.8.7-.8.7v-.1a3.3 3.3 0 0 0 .3-.3l.2-.3.1-.1v.2a3.7 3.7 0 0 0 .4-.7.8.8 0 0 0 0-.2 4.3 4.3 0 0 1 .5-1l.2-.4a2.7 2.7 0 0 0 .2-.3 4.6 4.6 0 0 1-.5 1.3l-.3.7a5.5 5.5 0 0 0 .6-1.1c0-.4.2-.7.4-1.2l-.2.7a4.7 4.7 0 0 0 .6-2.3v-.2a15.3 15.3 0 0 0 0-2v-1.6c.2.3 0-2 .2-.7v4.4a7.8 7.8 0 0 0-.2 1.3c.3-1.4.4-1.3.6-1.6a7.3 7.3 0 0 0 0-1c-.1-.2-.2.3-.3.4a15.4 15.4 0 0 0 0-4.2v-1l-.3-1.8a14.5 14.5 0 0 0 2.2.3 12.6 12.6 0 0 0 1.6 0c-.6 0 0-.1.5-.2s1.1-.2.7-.2l-.7.1h-.5c-.2 0-.3 0 0-.1h.2a6.5 6.5 0 0 1 1 0 4 4 0 0 0 .4-.1 3 3 0 0 0 .5-.2l-.7.2c-.1 0-.1.1 0 .1s.3.1.2.2l1.2-.3a3.3 3.3 0 0 0 1.4-1.3 6.1 6.1 0 0 0 .8-2 7 7 0 0 0 .3-1.4v-.5-.5-1.2l1 .6a8 8 0 0 0 1 .4 11.5 11.5 0 0 0 1.2.5 1.4 1.4 0 0 1 .6.2l.6.2c.6 0 .3 0 .2-.1s-.2 0 .5 0h-.1a3.3 3.3 0 0 0 1.5-.6 2.2 2.2 0 0 0 .8-1.3v.5a2.7 2.7 0 0 0 .2-.4l.1-.4s.3-.3.1.2a4.4 4.4 0 0 0 .4-1.5 13 13 0 0 0 0-1.7v-.5a21.5 21.5 0 0 0 2 .9 11.7 11.7 0 0 0 1.9.5l-.1.1h1.1c-.3.2.7.3 1.2.2a8.6 8.6 0 0 1-1.4 0 12.7 12.7 0 0 1-1.4 0c-.7-.3.9 0 .4-.2l-1.1-.4a10.5 10.5 0 0 0-1.1-.3 5.4 5.4 0 0 0 1 .4c.3.2-.7-.1-1.1-.2a4.4 4.4 0 0 0 .8.3 9.2 9.2 0 0 1-1-.3l-.8-.4v.1l-.1-.1c-.1 0 0 .2 0 .1a2 2 0 0 1 0 .7v.7a8.1 8.1 0 0 1-.2 1 9.5 9.5 0 0 1-.7 1.7 3.2 3.2 0 0 1-.4.5 3 3 0 0 1-.5.3 3 3 0 0 1-1.2.5 3.3 3.3 0 0 0 .5-.2 3 3 0 0 0 .6-.3 3.2 3.2 0 0 0 .9-1 3.6 3.6 0 0 1-.8.7 1.7 1.7 0 0 1-.3.2 2.1 2.1 0 0 1-.6.2 4.2 4.2 0 0 1-.7.3 3.8 3.8 0 0 1-1.4 0l-.1-.1a17 17 0 0 1-1.2-.3 4.5 4.5 0 0 1-1.2-.4 3.8 3.8 0 0 1-.4-.3V335.7a11.4 11.4 0 0 1-.3 1.6 5.6 5.6 0 0 1-1.5 2.7h-.1l-.4.3-.5.3a11.8 11.8 0 0 1-1.3.5 16.1 16.1 0 0 1-2.7.3h-1.2l-.8-.1a3.5 3.5 0 0 0 0 .4v.4l.2 1.2a12 12 0 0 1 0 1.8 17.6 17.6 0 0 1-.8 6.3 8.3 8.3 0 0 1-1.7 2.8 6.9 6.9 0 0 1-1.3 1l-.7.5a6 6 0 0 1-.8.3l.3-.2.4-.2c-.7.4-.6.1-1.3.5.4-.2.2 0-.2.2a6.4 6.4 0 0 1-.8.2l-.6.2a7.4 7.4 0 0 1-2.6-.1 5.8 5.8 0 0 1-1.3-.5 4.3 4.3 0 0 1-.5-.4 1.7 1.7 0 0 1-.3-.2 2.1 2.1 0 0 1-.3-.3v-.2l-.2-.1-.2-.3-.4-.5v-.1l-1.8-2.2a6.1 6.1 0 0 0-2.5-1.8 2 2 0 0 0-.4 0 .6.6 0 0 0-.3 0l-.1.1a4.4 4.4 0 0 1-.3.8l-.3.7a16.2 16.2 0 0 1-1.2 1.7 15.7 15.7 0 0 1-1.6 1.8l-1 .8a10.8 10.8 0 0 1-1 .6 8.9 8.9 0 0 1-3.6 1.5 5.5 5.5 0 0 1-4-.7 4.8 4.8 0 0 1-1.3-1.6 12 12 0 0 1-.7-1.9 27.7 27.7 0 0 1-.8-3.8v-.4a39.1 39.1 0 0 1-.5-4.7v-2.4-1.8a.6.6 0 0 1-.3 0 2.7 2.7 0 0 1-.9-.6 5.8 5.8 0 0 1-1-1.2 18 18 0 0 1-1.4-2.4l.3.3c-.5-1.3-1.1-2.8-1.1-2.5a27.5 27.5 0 0 1-1.2-4l-.7-2.7a91.2 91.2 0 0 1-.7-4.6v-.5h-.2l-.2-.3.3.3h.1v-.1a2.4 2.4 0 0 1-.5-.3 3 3 0 0 1-.4-.5 5.8 5.8 0 0 1-.5-1c-.3-.6-.4-1-.4-.5v-.5l-.1-.5v.2l-.2.4-.8 1.9c.2-.2 0 .4-.1.7a25.8 25.8 0 0 1-1.7 3.3 12 12 0 0 1-2.2 2.7c-.4.3.5-.5-.4.2l-.3.2-.4.3a2.6 2.6 0 0 1-2-.1 3 3 0 0 1-1.4-1.3 8.5 8.5 0 0 1-.8-3c-.3-2-.2-4-.3-5.7l-.1-2.3a7.4 7.4 0 0 0-.5-2.1c-.1-.3-.3-.4-.4-.4a.1.1 0 0 0-.1 0h-.1a2 2 0 0 0-.5 0 3 3 0 0 0-1.3 1.4 20.4 20.4 0 0 0-1 2 7.5 7.5 0 0 1-1.4 2.2 2.5 2.5 0 0 1-1.4.7 2.3 2.3 0 0 1-.8 0h-.5l-.2-.1a2.8 2.8 0 0 1-.6-.6 4 4 0 0 1-.5-.5 8.8 8.8 0 0 1-.6-1c-1.1-1.8-1.8-4.4-2.5-5.9-.2-.4-.6-1.7-.4-1.4-.7-1.5-1.3-4.3-2.1-6.5l.1.6c-.5-2.3-1.2-4.2-1.8-6.6a4.3 4.3 0 0 0 .2.7 19.6 19.6 0 0 1-.7-2.7 386.5 386.5 0 0 0-3.6-12l-.2-.5v-.1c0-.2-.2 0-.3 0h-.3l-.5.2-1 .2c-2 .3-2.1.2-2.1.1l-1.4.2c-.3 0-.2.1-.2 0-1.3.3-2 0-2.8.2l-.6.1-2.7-.1-2.3-.2h.2a25 25 0 0 1-6.9-1.4 9 9 0 0 1-4.2-3.2 8.2 8.2 0 0 1-1-2.5 9 9 0 0 1-.2-2.6 23 23 0 0 1 1-4.9l.2-.6v-.2a.7.7 0 0 0 0-.1.3.3 0 0 0 0-.1 1 1 0 0 0 0 .1l-.2.3-.1.2a16 16 0 0 1-1.4 1.8 18.7 18.7 0 0 1-3.3 3 14 14 0 0 1-4.1 2.2 7.8 7.8 0 0 1-4.9 0 5.6 5.6 0 0 1-.9-.4l-.8-.5a7 7 0 0 1-.8-.6l-.4-.3-.3-.3a15.7 15.7 0 0 1-2.3-3 22.6 22.6 0 0 1-1.7-3.2l-.4-.7v.3a17.6 17.6 0 0 1-1.4 2.5 10.9 10.9 0 0 1-4.4 4 9 9 0 0 1-3 .9 6.3 6.3 0 0 1-.7 0h-.5l-.1.6-.1.7-.3 1.4a14 14 0 0 1-.4 1.4l-.2.7-.2.7-.5 1-.4.6-.6 1.2a26.3 26.3 0 0 1-1.9 2.8c0-.2.2-.3 0-.2a3.9 3.9 0 0 1-.8 1l-1 1a13.2 13.2 0 0 1-3.3 2.1 6.2 6.2 0 0 1-2 .6 3.4 3.4 0 0 1-1.2-.1h-.2V291.4l-.1.4-.1.4-.2.8-.3.8a7.4 7.4 0 0 1-.3.7 2.3 2.3 0 0 0 .3-.7l-.3.5-.3.9-.6-.1c-.3.6-.7 1.2-.3.7a7.7 7.7 0 0 1-3.3 3 5.4 5.4 0 0 1-4.7-.2 5.3 5.3 0 0 1-1-.7 8.5 8.5 0 0 1-.8-.7 18.8 18.8 0 0 1-1.4-1.5 21.2 21.2 0 0 1-2.4-3.4 16.5 16.5 0 0 1-1.6-3.8 11.4 11.4 0 0 1-.3-4.3 10.8 10.8 0 0 1 .5-2.1 9.6 9.6 0 0 1 1-2l.6-.8.3-.4.2-.2.2-.1v-.2h.2v-.1h-.1l-.4-.3a5.8 5.8 0 0 1-1.1-1.2 9.4 9.4 0 0 1-.7-1.3 1.3 1.3 0 0 1 0-.2v-.1h-.2v.1h-.1l-.2.2a8.9 8.9 0 0 1-1.5 1 4.2 4.2 0 0 1-4 .3 8.3 8.3 0 0 1-1.4-1.1l-1.2-1.3-2-2.5a32.9 32.9 0 0 1-3.3-5.6 18.3 18.3 0 0 1-1.7-6.2 10.3 10.3 0 0 1 .3-3.4 8.5 8.5 0 0 1 1.6-3.2v.3l-.4.7a10.2 10.2 0 0 0-1.1 3.8zM692.4 331.5c-.4 0-1.4 0-.6-.1h.6z" fill="#cb3c2b"></path> <path d="M674.1 340.2a3.4 3.4 0 0 1-.5.1l.5-.2h.2l.1-.1a2.9 2.9 0 0 0-.3.2zM667.9 341.9l-.4-1.6 1.4.2H669.8h-1l-1.2-.2c0 .6.2 1 .3 1.6zM667.7 348.3c-.2.6-.2.4 0-.3v.3zM667.8 348.8a4.2 4.2 0 0 1-.3 1s.2-1.2.3-1zM658.7 355.5a2.5 2.5 0 0 1-1-.6 2 2 0 0 0 .7.4c.3.1.5.2.3.2zM654.5 351a5.5 5.5 0 0 0-.4-.4l.3.2zM601.7 307.5l.3.7-.1-.1-.2-.6zM569.5 279c-.4-.5-.2-.4-.2-.5.3.5-.2-.1.2.5zM558.4 275.3h.2l-.1.1-.1-.1zM589 211.1c0 .3.1 0 0 .2v-.2zM640.7 202.6a3.2 3.2 0 0 1-1-1 4.9 4.9 0 0 0-1-.8s.2-.1 0-.3a5.1 5.1 0 0 1-1.2-.8l-1-1.2-.6-.2c-.2-.1.1 0 0-.1l-.3-.2-.1-.2h-.2c-.4 0-.6-.4-1-.5l-1-.5-1.1-.5v-.1h-.5c0-.2-.4 0-.5-.2-.3 0-.3-.2-.4 0l-.1-.2c-.2.1-.2-.2-.4-.2l-.3-.1c-.3 0-.4-.2-.5 0 0-.2.3 0 .2-.2l-3-.8-.1-.1a1.6 1.6 0 0 0-.5 0v-.1h-.5l.1-.2a1.6 1.6 0 0 1-.6 0h-.5v-.1c-.2-.1 0 .2-.3 0a3.2 3.2 0 0 1-.9 0 4.8 4.8 0 0 0-.8 0c-.1 0 0-.2-.3-.2 0 .2-.5 0-.3.2a2.3 2.3 0 0 0-.8 0v-.3c0-.1 0 0 0 0a2.9 2.9 0 0 1-.5 0 1.6 1.6 0 0 1-.6.2c.1 0-.1-.2 0-.2l-.5.3s0-.1-.1 0h-.1-.5s.2 0 0-.1-.2 0-.3 0c-.2 0-.4.1-.3.2s0-.1.1 0a.8.8 0 0 1-.5 0h.1a4.3 4.3 0 0 1-.8.2c0 .1.1-.1.2 0-.4-.1-.8.2-1 0v.1h-.3l-.3.1c0 .1 0 0 0 0a3 3 0 0 1-1 .3l-.3.2v-.1h-.4.3l.2-.1c-.1-.1-.3.2-.3 0-.2 0-.3.3-.5.2 0 0 .1-.2 0-.1l-.2.1-.1.1c0 .1-.2 0-.1.1 0 0-.4.2-.4 0v-.1l-.2.2c0 .2-.3.1-.3.3-.3 0-.6.2-.7.1a1.2 1.2 0 0 1-.4.3v-.1l-.2.1c-.1.1-.3 0-.4 0s0 .2 0 .3h-.3c-.1 0-.2.3-.3.2 0 0 .1-.2 0-.1s-.2.2-.5.3h.1c-.1 0-.2.3-.3.2 0 0-.3.1-.2.2-.3.2-.7.7-1 .6l-.1.2.1-.1c-.1.1-.2.2-.2 0-.2.2 0 .4-.3.6h-.1v.2c-.2.2-.2 0-.3 0 0 0-.2.2-.1.3h-.2c.1 0 0 .1 0 .2v-.1l-.2.2.3-.1-.1.2-.2.2v.2s-.1.1-.2 0 .1 0 .1-.1l-.1.1c0 .1.1 0 0 .2v-.1l-.2.1v.5l-.1.2a.4.4 0 0 0-.1.4.5.5 0 0 0 0 .3c-.1.1-.4 0-.3.1s.1.3.2.3a8 8 0 0 0-.2 1.3.8.8 0 0 1-.3 0l-.7-.1h-.5a1.2 1.2 0 0 1-.6-.1c.1 0 0-.1 0-.2h-.2l.1.2a2 2 0 0 1-.8-.1h-1.4s-.2 0 0 0l-.6-.1a4.9 4.9 0 0 1-1.8.3c-.1-.1 0 0-.2 0 0 0-.1-.1 0-.2l-.4.2h.1l-.3.1v-.2h-.2c-.1 0 .4-.2.2-.4h-.1c-.2 0 .3-.1 0-.1-.2 0-.2.2-.1.3-.3 0-.1.3-.4.3-.1 0 .2 0 .1-.1s-.2 0-.4 0c.2 0 0 .2 0 .2s.1-.1-.1 0c0 0-.2 0 0 .1 0 .2-.2 0-.3.1-.1 0 .2-.3-.1-.3 0 .1-.3.2-.1.4-.1 0-.1-.1 0-.2-.2 0-.3.2-.4 0v.2l-.2-.1c-.1 0-.4.2-.4 0 0 0-.3.1-.2.2s.2-.1.3 0c-.1 0-.2 0-.3.2v-.1l-.2.1c-.2.2 0-.1-.3 0l.2-.1h-.3a2.4 2.4 0 0 1 0 .3c-.1 0-.1-.1-.2 0l.1-.2s-.1 0-.3 0-.2.3 0 .3l-.2-.1c-.1 0 .1 0 0 .2h-.5l.1-.3c0-.1-.2 0-.2-.2a.4.4 0 0 0-.2.2c.3 0 0 .3 0 .5-.2.2-.4-.3-.5 0 .1 0 0 .3.2.2-.2 0 0 .2-.2.2 0-.1-.3 0-.2-.3 0 .1.2 0 .2 0s-.1-.2-.3 0l-.1.2c.1 0 .1-.1.1 0-.1.2-.2 0-.2.3h.3-.1c-.3.2 0 .2-.2.3h-.7l.1-.2c.1 0 .1 0 0-.1-.1 0 0 .2-.2.3v-.1s-.3-.1-.3.2c0 .3 0 .4-.2.6 0-.2-.2.2-.2 0a.6.6 0 0 0 .3-.6c-.2 0 .2-.1.1-.3-.2.2-.3 0-.4 0v.2h.2a.9.9 0 0 0-.3.7s-.2 0-.1-.1l-.4.8c.2-.1-.1.3 0 .2s.3-.2.3 0-.3 0-.2.2c0-.3-.2-.1-.3-.2 0 .2 0 0-.1.1a5.6 5.6 0 0 1 0 .8 2 2 0 0 0-.2 1l-.3.1c0 .1.2-.1 0 .2v.5h-.1-.1c-.2.2 0 .4 0 .6v-.1a4 4 0 0 1 0 .8h-.2v.1s-.1.1 0 .2a1.8 1.8 0 0 0-.1-.2l-.1-.3s0 .2.2.1a.3.3 0 0 0 0-.3.3.3 0 0 0 0 .1c-.2 0-.1-.1-.2-.2v.2a.8.8 0 0 1 0-.4h.1v-.5-.6a.8.8 0 0 1 .2.4v-.3a.6.6 0 0 1-.2-.4h.1v-.5l.3-1h.1c-.1-.3.2-.7.2-1 .2-.3.3-.8.6-.9a4.3 4.3 0 0 1 1.4-1.5v.1h.3c-.2 0 0-.3 0-.4a3 3 0 0 0 1-.5c.2-.3.6-.2 1-.3a.3.3 0 0 0 .2 0l.6-.4a2.6 2.6 0 0 1 .8 0 11.5 11.5 0 0 1 2.4-.6 13.3 13.3 0 0 1 2.5-.2v.2c.2 0 .5 0 .4-.2l.7.1h.5a4 4 0 0 0 1 0h-.1v.1c0 .1.5.1.4-.1a1.4 1.4 0 0 0 .3 0h.4l.2.1v-.6s.1.1.2 0 0 0 0-.1a5.6 5.6 0 0 1 .8-1.8 8.2 8.2 0 0 1 2.1-2.5c.2-.4.8-.4.8-.7.1 0 .3-.2.3 0 .2-.3.7-.4 1-.7.3 0 .6-.3 1-.4l-.1.1c.2 0 .3-.3.4-.1.1 0 0-.1 0-.1a9.8 9.8 0 0 0 1.4-.5l1.3-.4c.7 0 .1.3.6 0 0 0 0-.1 0 0h.5c-.1-.1 0-.1 0-.2.4 0 .5.1.8 0 .4-.2.8-.1 1.1-.4a25.1 25.1 0 0 1 12 1 1.7 1.7 0 0 0 1 .5s.4.2.5 0l.5.3.5.2 1 .4c-.1 0-.2 0 0 0h.3a23.9 23.9 0 0 1 4.8 3.1 10.5 10.5 0 0 0 1.3 1l1.3 1.7a18.7 18.7 0 0 0 1.4 1.6 1 1 0 0 1-.7-.4zM589 210.9c.1 0 .2-.2.3 0h-.3zM590.6 206.8zM591 205.8v.4z" fill="#cb3c2b"></path> <path d="M591.8 205.2c.1 0 .1 0 0 .1zM591.7 205a.2.2 0 0 1 .2 0h-.2zM593.4 204h.2c.1 0-.2.1-.2 0zM594.3 203.6zM610 196.3l-.1.1.1-.1zM617.9 194.1v.1c0 .1.1 0 0 0zM622.4 193.9h-.1l.1-.2v.2zM518.2 205.8l-.1.1zM562.2 208.6c-.5-.4-.6-1.3-1.1-1.8 0 0 .2 0 0-.2a7.6 7.6 0 0 1-1.4-2l-.4-.2c-.1-.1 0 0 0 0l-.3-.3v-.2h-.1c-.4.1-.5-.4-.8-.5a3.6 3.6 0 0 1-.8-.4l-.9-.4.1-.1h-.4c0-.2-.3 0-.4-.2-.2 0-.2-.2-.4 0v-.2c0 .1-.1-.2-.3-.1l-.2-.2c-.2 0-.3-.1-.4 0 0-.2.3 0 .2-.2a10.2 10.2 0 0 1-1.2-.3l-1.1-.4-.1-.2h-.4c-.1 0 0 0 0 0h-.4s.1-.1 0-.2a1 1 0 0 1-.4 0c-.1 0-.2-.2-.4-.1v-.1c-.1-.2 0 .1-.2 0h-.7a3.6 3.6 0 0 0-.7-.2s0-.2-.2-.2c0 .1-.4 0-.3.2a1.7 1.7 0 0 0-.6-.1l.1-.2v-.1c0-.1 0 0 0 0a1.8 1.8 0 0 1-.4 0 1.2 1.2 0 0 1-.6.2c.2 0 0-.2 0-.2h-.1l-.2.2c-.1 0 0-.1-.2 0h-.4s.1 0 0-.2-.2 0-.3 0c-.1 0-.3.1-.2.2a.5.5 0 0 1-.3.1 3 3 0 0 1-.6.1c0 .1.1-.1.1 0-.2-.1-.5.1-.8 0v.1s-.1-.1-.2 0h-.2c-.1 0 0 0 0 0a2 2 0 0 1-.4.1 1.5 1.5 0 0 1-.5.1l-.2.2h-.3l.4-.2-.2.1c-.2 0-.3.2-.4.1v-.1l-.2.1c0 .2-.3.1-.2.2s-.2.1-.2 0v-.1l-.2.2c0 .1 0 0 0 0 0 .2-.2 0-.2.2-.2 0-.4.2-.6 0 0 .2-.1.3-.3.3s-.1 0-.2 0h-.3v.3c-.2-.1-.3.3-.5.2 0 0 .1-.2 0-.2s-.2.3-.4.3l.1.1s-.2.2-.2 0c0 .2-.3.2-.2.3a1.4 1.4 0 0 0-.5.2.5.5 0 0 1-.4.2s-.1 0 0 .1 0-.1 0 0h-.1c-.3 0 0 .3-.3.4h-.2v.2l-.2-.2-.2.3h-.1c.1 0 0 0 0 .1l-.2.1c0 .1.2 0 .2 0v.2l-.3.1v.2h-.1v-.1c0-.1 0 0 0 0s0 .2 0 .3v-.2h-.2v.2.3h-.3a.3.3 0 0 0-.2.3.4.4 0 0 0-.1.3c-.2 0-.3-.3-.3 0v.2l-.5.6c-.3.3-.4.7-.7.8h-.1s-.2 0 0 0h.1v.3l-.2.2a1.5 1.5 0 0 1-.3.4v.1c0-.1-.2 0-.3.2v.1l-.1-.1h-.3a.4.4 0 0 0 0-.2 1.1 1.1 0 0 1-.6-.2.4.4 0 0 1-.1-.2s-.2 0-.1.1l-.3-.3a3 3 0 0 1-1.4-.4c-.1 0-.1.1-.2 0s0-.1 0-.1c0-.2-.2 0-.3 0h-.3l.1-.2h-.1c0-.1.4-.1.3-.3h-.1c0-.2.3 0 0-.2s-.2.2-.1.3c-.3 0-.2.2-.5.1h.2l-.3-.1-.1.2c-.1 0 0-.1 0-.2s-.3 0-.2.2c0 0-.1-.1-.2 0 0-.2.2-.3 0-.4 0 .2-.2.1-.2.3v-.2s-.3.2-.3 0l-.1-.1h-.3-.2l.2.1h-.5c-.2 0 0-.2-.2-.2h0a2.6 2.6 0 0 0-.2.2c-.1 0 0-.1-.1 0l.1-.1-.2-.2c-.2 0-.2.1-.1.2 0 0-.2 0-.1-.1h-.1a3.3 3.3 0 0 0-.3-.2l.1-.1v-.2a.3.3 0 0 0-.3 0c.2.2-.2.3-.2.4-.2 0-.1-.4-.4-.1 0 0 0 .1 0 0 0 0 0 .3-.2.2v-.3h.2l-.1-.2-.3.1c0 .1.2 0 .1.1s-.2-.1-.3 0l.2.3h-.2c-.2-.1 0 0-.2 0l-.2-.1c0-.1.4 0 .3-.1h-.3s0-.3-.2-.2 0 .1 0 .2a4 4 0 0 0-.4.1c0-.1-.3 0-.2-.1a.4.4 0 0 0 .5-.1c0-.2.2 0 .3-.2-.2 0-.2-.2-.3-.3s0 0-.1.1 0 .1 0 .2a.7.7 0 0 0-.5.2v-.2a4 4 0 0 1-.7 0c.2.2-.3.2-.1.3l.2.2v-.1h-.3c.2-.1 0-.2 0-.4-.1.1 0 0-.2 0a2 2 0 0 1-.5.2l-.7.2c-.1 0-.1-.2-.3-.2s.2.2 0 .2c0 0-.4 0-.4.2v-.2h-.1c-.1 0 0 0 0 0-.2-.1-.3 0-.4.1h.1l-.5.3v-.1h-.2-.1l.2-.3c.1 0 0 .2 0 .2s.3 0 .3-.1h-.1c-.1 0 0 0 0-.2a.5.5 0 0 1 .2-.1v.1c0-.1 0-.2.3-.2s.3-.2.5-.2a.7.7 0 0 1-.3.3h.3a.5.5 0 0 1 .2-.3c.1 0 0-.2.3-.2l.9-.1.6-.2c.4 0 .7-.2.9 0a5.7 5.7 0 0 1 1.7-.2l-.1.2c0-.1 0 0 .1 0l.3-.2a1.3 1.3 0 0 0 .8 0v.1c.3-.1.5 0 .8.1 0 0 0 .2.2.2a1 1 0 0 1 .5-.2 2.8 2.8 0 0 1 .6.2 8.9 8.9 0 0 1 2 .4v.1a7.7 7.7 0 0 1 1.9.6l-.1.2h.5v.1c0 .1.2 0 .2 0l.1-.2h.1c.1 0 0 0 0 0v-.1-.1c.3-.3.5-.8.8-1 .2-.3.5-.5.6-.8.1 0 0 .2.2 0s0 0 0-.1c.2-.5.8-.7 1-1a9.5 9.5 0 0 1 1-.9l1-.7c.1-.3.6-.2.7-.5 0 0 .2-.1.2 0 .1-.2.6-.2.8-.5l.8-.3s-.1 0 0 .1.1-.3.3-.1v-.1a10.1 10.1 0 0 0 1-.4l.5-.2a5.6 5.6 0 0 1 .6-.2c.5 0 0 .3.5 0s.3.2.4 0c-.1 0 0 0 0 0h.6l.9-.4a8.9 8.9 0 0 1 1.3 0h.6a3.2 3.2 0 0 1 .6 0 16 16 0 0 1 2.4.3l1.2.3 1.1.3a10 10 0 0 1 1.3-.1l1.1.5a1 1 0 0 0 .7.4c.1-.1.3.1.4 0l1.6.8s-.2 0 0 .1h.2a12 12 0 0 1 3.6 3l.9 1 1.3 3.2a.9.9 0 0 1-.6-.4zM518.4 205.7s.2 0 .1.2l-.1-.2zM522 205.4h-.1c-.1 0 0 0 0 0zM522.8 205.3l-.3.2zM523.6 205.5z" fill="#cb3c2b"></path> <path d="M523.7 205.3a.2.2 0 0 1 0 .1zM525.4 205.6h0zM526.2 205.6zM539.1 201.5l-.1.1.1-.1zM545.3 199.8l.1.1c.1 0 0 0 0 0zM548.9 199.9v-.1.1z" fill="#cb3c2b"></path> <path d="M626.7 322.7s3.4-10.3 11.6-8.2c7.4 2 8.5 11 7.4 17.6-1.4 7.9-11.8 12.9-17.8 8.2a85 85 0 0 1-1.2-17.6z" fill="#f0b480"></path> <path d="M629.3 325c.6-2.8 11-10.6 12.3 2 1.2 10.5-9.2 10.3-10.8 8.4 2.7-.8 8-3.5 6.3-9.7-1.3-4.7-5.3-2.5-7.9-.6z" fill="url(#I)"></path> <path d="M547.9 247.6s-.2 0 0 0zM547 264.8c-.4 0-.1-.4-.4-.6h.1c-.3-.2-.2-.6 0-1h-.2v-.2c-.3 0 0-.2-.2-.3l-.2-.7a.3.3 0 0 0 .1 0 .2.2 0 0 1-.2 0c.1 0-.1-.1 0-.2-.2 0 0-.1-.1-.1s.1-.1 0-.2v-.2h.2a1.5 1.5 0 0 1-.2-.8v-.2-.1a.2.2 0 0 0 .1 0l-.1-.2v-.2h.1l-.1-.3-.1-.2.2-.1c0-.1-.1-.2-.3-.1 0 0 .1-.2 0-.2H546v-.2s-.2 0-.3-.2.2 0 .2 0h-.3.1v-.2h.1c.1 0 0 0 0-.1h-.2s.1 0 0 0a.1.1 0 0 1 0-.2.6.6 0 0 1-.1-.3c-.1 0 0 0 0 0s0-.1 0-.2v-.2s-.1-.2 0-.3-.1 0-.1-.1h.2c-.1-.1 0 .1 0 0 0 0-.2 0 0 0s-.1-.1 0-.2h.1c-.2 0 0-.1-.2 0 .1 0 0-.2.2-.1l-.1-.1c-.1 0 0-.1 0-.1v-.2-.2l.3-.2h-.3c.2 0 0-.2.1-.2h.1c.1 0-.1-.1 0-.2h-.1s-.1 0 0 0c0 0 .1-.1 0-.1 0-.2 0-.3.2-.4s-.1 0-.2 0h.2l-.2-.2c0-.1.1 0 .1 0 0-.1 0 0 .2 0s0-.2-.1-.2h.1v-.1a.1.1 0 0 0-.2 0v-.1c0-.1 0 0 0 0l.1-.1c0-.1-.2 0-.1-.1h.2c-.1 0 0-.2-.2-.2s.1 0 .1 0v-.2-.1h.3-.3l.1-.4s-.1-.3 0-.4h.2s.1 0 0 0h-.1v-.2s.1 0 0 0-.1 0 0-.1h-.1s-.2-.2 0-.2h-.1l.2-.1a.5.5 0 0 1-.1-.6h.2l-.1-.2c-.1 0 0 0 0 0v-.1a1 1 0 0 1 .2 0l.4.1c.1 0 .1.1.2 0s-.2 0-.3 0l-.3-.2h.2c.2 0 0 0 0 0l-.2-.2c0-.2 0 .1.1 0s-.1 0-.2 0 0 0 0-.1H546.3a.2.2 0 0 1 .1 0c.1 0-.1-.2 0-.2s0-.1 0 0v-.2l-.1.1v-.2h.2-.2v-.1h0a.1.1 0 0 1 .2 0l-.2-.1a1.8 1.8 0 0 0 .3 0H546.9c.1 0 0 0 0 0l-.4-.2s.4 0 .2-.1h-.2s-.1 0 0-.1.2 0 .2 0h0c-.2 0 .2-.1 0-.2h-.1c.1-.1 0 0 0-.2h.1l.1.2v-.2s.3 0 .2 0h-.2v-.2s0-.1.1 0v.2h.4c.1 0 0 0 0 0a1.4 1.4 0 0 0-.2 0 .2.2 0 0 0 0-.2h.1a.4.4 0 0 1 0-.2v-.1a.3.3 0 0 1-.3 0h.1c.1 0 .2 0 0-.1l.3.1h.1a.6.6 0 0 1 0-.2v-.3c0-.1.2 0 .2 0s-.1 0 0 0 .1-.2-.1-.2H547.8v-.1h-.1v-.3h.2l.1.2-.2-.1c-.2-.1 0 0 0 .1h.2a.1.1 0 0 1 0 .2V248.5a.9.9 0 0 1-.2-.2v.1l.1.2s.1 0 0 .1a1.2 1.2 0 0 0 0 .3h-.1v.5a1.1 1.1 0 0 1 0 .6h-.2l.1.1v.3l-.1.3h-.1l.1.2a.4.4 0 0 1 0 .2v.7h-.2c.2.2 0 .4 0 .6h-.2s0 .2.2.2l-.1.2c-.1 0 0 0 0 .1a.3.3 0 0 0 0 .3h-.1l.1.1c-.1.1 0 .3 0 .4s-.1.2 0 .3h-.2.1l-.1.5a2.9 2.9 0 0 1 0 .8c.1.1-.2.2 0 .3 0 .1-.2.2 0 .3s0 .2-.1.3h-.1c-.1 0 .2.2 0 .2h.1v.7c0 .2-.3 0-.2.1 0 0 .1 0 0 0s-.2.1 0 .2c0 0-.1 0 0 .2h-.1c.2 0 0 .2.3.3l.1 1.6a13.6 13.6 0 0 1 0 1.6c-.1.1-.1.1 0 .2l.1.1a5.6 5.6 0 0 0 .1.6h-.1a.1.1 0 0 0 .2 0c.2.5 0 1 .2 1.5v.4a1.4 1.4 0 0 0 .2 1.1s-.7-.1-.8-.3zM547.9 247.7h-.2a.7.7 0 0 1 .1 0zM546.8 248.7zM546.7 249a.1.1 0 0 1 0-.1zM546.4 249.2zM546.5 249.3zM546.2 249.8v.1zM546.2 250.2zM545.6 255.6v-.1.1zM545.5 258zM545.8 259.2h.1-.1zM517.6 255.5c0-.1-.1 0 0-.1zM524.8 262.8c-.4.2-.7-.3-1.1-.2v-.2a.7.7 0 0 1-.6 0 2.9 2.9 0 0 1-.5.6v.5h-.2c.3.3 0 .4 0 .6a3 3 0 0 1-.3 1 .2.2 0 0 0-.2 0c.1 0 .1.1 0 .2v.3c.1.1-.1 0 0 .2l-.2.1v.2c0 .1-.2.1 0 .2-.2 0 0-.1-.2-.2a3.5 3.5 0 0 1-.6 1.3h-.2v.2c0 .1 0 0 0 0v.2a.1.1 0 0 0-.1 0l-.1.2c-.1.1 0 0 0 0l-.1.2v-.1c-.2 0 0 .1 0 .2l-.2.3-.3.3c0 .1 0-.1-.2 0v.3l-.2.2s-.2-.1-.1-.2H519l-.1.5s-.1-.1 0-.2v.4c-.1 0-.2-.1-.2 0 0 0-.2.2-.3 0l-.1.1s-.2.1-.1.2a.2.2 0 0 1-.2 0 .8.8 0 0 1-.4.2v-.1h-.5H516.9a.7.7 0 0 1-.5-.3.3.3 0 0 1-.2 0c0-.1-.1-.1 0-.2-.2 0 .3.1.1.1h-.1l-.2-.1s.1-.1 0-.1h-.1c-.1 0-.2-.1-.2 0 0-.1-.2-.1 0-.2v-.1h-.2-.2l-.2-.3c0-.1-.2 0-.2-.2v-.3c0-.1-.2 0-.2 0 0-.1-.3 0-.2-.3h.1l-.1-.2-.2.1c.1 0-.1 0 0-.2 0 0 0-.1 0 0 0-.3-.4-.5-.2-.7s-.1 0-.1 0h.1c0-.2-.3-.1-.3-.3 0 0 .1 0 0 0v-.2h.2c.2 0 0-.2-.1-.2v-.1-.2l-.1.1h-.1v-.2-.1s.1 0 0 0v-.2c-.1 0 0-.2-.2-.2s0-.1 0-.2v-.1a.2.2 0 0 0 0-.2s.3 0 .2-.1l-.2-.1v-.5c0-.2-.1-.5.1-.6h.1s.1-.1 0-.1h-.1a.4.4 0 0 1 0-.4c.1 0 .2 0 .1-.2s-.1 0 0 0v-.4h.1c0-.1 0-.2.2-.2a1 1 0 0 1 0-1h.2c.1 0 0-.1 0-.2h-.1c-.1 0 0-.1 0-.2a.3.3 0 0 1 .2 0c.1 0 .2.3.3.2.2 0 .1.2.2 0s-.2-.1-.2-.1c0-.1-.3-.2-.2-.3s0 .1 0 .1v-.2h-.1.1c.1 0 0-.2-.1-.1-.2-.1 0-.1 0-.2 0 0 .2.2.3 0l-.3-.1h.2s-.2-.2 0-.2a.8.8 0 0 1 .1 0v-.2-.1s0 .1-.1 0c.1 0 0 0 0 0v-.2h.1v-.1c0-.1.4 0 .3-.1h-.2v-.1a.1.1 0 0 0 .1 0s0-.2-.1-.1h.1l-.1-.1.3-.1.1.1h.2c.1 0 0 0 0 0-.2 0-.2-.3-.4-.3 0-.2.5 0 .3-.2 0 0-.2-.1-.2 0 0 0-.1-.1 0-.2 0 .1.2 0 .3.2s0 .1.1 0 0-.1 0-.1h-.1c-.1 0 .1-.1 0-.2h-.2v-.5c.1 0 0 0 0-.2h.2v.3c.1 0 0-.2 0-.2h.2v-.2-.3c0 .1 0 0 0 0a.2.2 0 0 0 0 .3c.2 0 0 .1 0 .2h.4l-.2-.1a.3.3 0 0 0 0-.4l.1.1a1 1 0 0 1 .2-.4c-.2 0 0-.1 0-.1a.2.2 0 0 1-.3 0s.2 0 .1-.2c0 .2.2.2.3.2h.1a1 1 0 0 1 0-.3c.2 0 .2-.3.3-.4s.2 0 .2 0-.1 0 0 0 .2-.2 0-.3H517v-.1l.1-.3h.2l.1.2-.2-.1c-.2 0 0 0 0 .2v-.1l.1.1c.1.1 0 0 0 0a.2.2 0 0 1 0 .2c0-.1 0 0 0 0a.1.1 0 0 1 0 .1c-.2 0 0 .2-.2.3a.6.6 0 0 1-.1-.3l-.2.1.2.3v.2a3 3 0 0 0-.4.5v.3l-.3.4a3.7 3.7 0 0 1-.3.9l-.1-.1h-.1l.1.2v.5h-.2c.1.2 0 .3-.1.4s-.2 0-.2 0l.1.3a.8.8 0 0 1-.2.3l-.2 1h-.1c.1.5-.2.8-.2 1.1h-.1a.1.1 0 0 0 .1.2l-.1.2v.3a.6.6 0 0 0 0 .4h-.2s0 .2.2.2c-.2.1 0 .4-.2.6h.1v.5c0 .2 0 0 0 0 .2.2 0 .5 0 .7l.4 1.2c.2 0 0 .3.2.3v.1c.2 0 0 .3.3.4l.2.3a.1.1 0 0 0-.1 0c0 .1.2 0 0 .2h.2a1.6 1.6 0 0 0 .8.5c.2.2-.1.3 0 .3 0 0 0-.1 0 0s0 .2.2.2 0-.1 0-.2c.2.2.2.3.3.2l.4-.1a2.5 2.5 0 0 0 1.7-1 13.6 13.6 0 0 0 1.5-2c.2 0 .2 0 .3-.3-.1 0 0-.1 0-.2a5.8 5.8 0 0 0 .4-.8s0 .1 0 0v-.1a5.6 5.6 0 0 1 .5-1.1l.3-.6v-.2l.2-.3.1-.5a3 3 0 0 0 .2-.6l.6.2.8.4h.2l.1.1.2.2a2.6 2.6 0 0 0 .9.3.7.7 0 0 1-.7.2z" fill="#cb3c2b"></path> <path d="M517.5 255.6h-.2a1 1 0 0 1 .2 0zM516 257v-.1s-.1 0 0 0zM515.6 257.4v-.2zM515.2 257.7s-.1 0 0 0zM515.3 257.8h-.1c-.1 0 0 0 0 0zM514.7 258.6v.1s0-.1 0 0zM514.6 259.1h-.1zM514.2 268v-.1.1zM517.7 270.1zM519.6 268.9l-.1-.1.1.1zM561.3 206.7c0-.1 0 .2 0 0zM573.8 233.4a1 1 0 0 1 0 .9v.4a1.3 1.3 0 0 0 0 .5s-.2-.1-.2 0a1.4 1.4 0 0 1-.4 1 2.4 2.4 0 0 1-1 .5s0 .2-.2.3 0-.1 0-.1l-.2.2c0 .1 0 0-.2 0 0 .4-.4.3-.6.5a1.7 1.7 0 0 1-.3.2l-.4.1-.8.3a.2.2 0 0 0 0-.2c0 .1-.1.2-.3.2l-.4.1c0 .1-.1 0-.2 0h-.1c0 .2-.2-.1-.3 0h-.2c-.2 0-.3-.1-.4 0 0-.1.2 0 .2-.2a1.8 1.8 0 0 1-.6 0 2.3 2.3 0 0 1-.5-.2 3.6 3.6 0 0 1-.7-.7v-.2l-.3-.2c-.1 0 0 0 0-.1s-.2 0-.2-.2a.1.1 0 0 0 .1 0l-.2-.4v-.4c0-.2-.2 0-.1-.2l-.1-.6v-.6c0-.2.2 0 .2-.1-.2 0 0-.4-.2-.3a1.7 1.7 0 0 0 0-.5h.3c.1 0 0 0 0 0a1.8 1.8 0 0 1 0-.3l-.1-.5c0 .1.2 0 .2 0l-.2-.3v-.2s0-.2.2-.2 0-.2 0-.3v-.2.1c0 .1-.1-.2 0-.4v.1a1.5 1.5 0 0 1 0-.6s.2.1.1.2c.2-.2 0-.6.2-.7v-.2-.2.1a1.3 1.3 0 0 1 0-.4 1 1 0 0 1 .2-.4v-.2l.1-.2v.3c.1 0 0-.2 0-.1v-.4s.1.1.1 0v-.2-.1-.2h.2l-.2-.2v-.3-.4a.5.5 0 0 1 0-.3v-.1l.2-.3c0-.1-.1 0-.2 0 .2-.2-.2-.4 0-.5 0 0 .1.2.2 0s0 .3-.1-.2h-.2c.2 0-.1-.3 0-.3v-.2c0-.3-.3-.6 0-.8 0 0 0-.2-.1-.1.1-.2-.2-.2-.2-.4v-.2c0-.2 0-.2.2-.2 0 0 0-.2-.2-.2l.1-.1v-.1-.2l-.1.2-.2-.1c.1 0 0-.2 0-.2v-.1-.1s.1 0 0 0-.2 0-.2-.2a.6.6 0 0 0 .2 0h-.1l-.2-.3c-.1 0 0-.1 0-.2a.2.2 0 0 0-.1-.3.3.3 0 0 0-.1-.1c0-.2.3-.2.2-.3a.2.2 0 0 0-.3 0c0-.3-.2-.5-.1-.7h-.1c0-.3-.3-.6-.1-1 0 .2 0 0 0 0s.2 0 0 0-.1 0-.1.1a.8.8 0 0 1-.1-.5h-.1v-.3h-.1s-.1 0 0-.2l-.2-.3v-.1-.5a2 2 0 0 1-.6-1h.4l-.1-.2c0-.2.1 0 .2 0 0-.2-.2-.2-.2-.3v.1l-.1-.2h.1c0-.2.3.1.4 0v-.1c.1-.2.2.1.2 0h-.3c-.1-.2-.3 0-.4-.2s0 .1.2 0-.1-.1-.1-.2c0 .1-.2 0-.2 0s.1 0 0-.1-.1-.1-.1 0c-.2 0 0-.2-.2-.2l.3-.1s-.2-.2-.3 0a.1.1 0 0 1 .2-.1c0-.1-.3-.2 0-.3h-.2v-.1c0-.1-.2-.2 0-.3 0 0 0-.2-.2 0s.2 0 0 .2v-.3h-.2v-.4l.2.1v-.1h-.3c-.1-.1 0-.1 0-.2l.1.1v-.2c0-.1-.1-.1-.1 0v-.1c0-.2 0 0-.1 0v-.4h.3l.2-.1c.2 0 0-.1-.1-.2-.2.3-.4 0-.5 0-.1-.1.4-.2 0-.4 0 .1-.2 0-.1.2 0-.2-.2 0-.2-.2.1 0 .1-.2.3-.1v.1s.2 0 .1-.2h-.2c-.1 0 0-.2-.2-.2v.2l-.2-.1h.1c0-.3-.1 0-.2-.2l.1-.2c.1 0 0 .3.2.2l-.1-.3a.5.5 0 0 1 0 .1s.3-.2 0-.3l-.3-.3c.1 0 0-.2.1-.1a.3.3 0 0 0 .2.3c.2 0 0 .2.2.2 0-.2.1-.2.2-.3h-.2a.5.5 0 0 0-.3-.3.1.1 0 0 1 .1 0 2 2 0 0 1-.2-.7c0 .2 0-.2-.2 0l-.2.2h.1v-.3c0 .2.2 0 .3 0-.1 0 0 0 0-.1a2 2 0 0 1-.3-.4c0-.3-.2-.5-.3-.7s.2 0 .2-.2-.1.2-.1 0c0 0 0-.3-.2-.3h.1s0-.1 0 0c.2-.2 0-.3 0-.4l-.1.1c-.2-.1-.1-.3-.2-.4v-.1-.2l.3.2c0 .1-.1 0-.2 0s0 .2.1.2c0-.1 0 0 .2 0s0-.1 0-.1a.3.3 0 0 1 .1.2l.1.3c0 .2.2.2.3.4a.6.6 0 0 1-.4-.2v.2a.5.5 0 0 1 .4.2h-.1s.2 0 .2.2l.2.7c.2 0 .2.3.3.5 0 .2.3.5.2.7a6.8 6.8 0 0 1 .5 1.2h-.1c.1 0 0 .1 0 .2 0-.2.2 0 .2 0a1 1 0 0 0 .4.7h-.1c.2.1.1.4.2.6v.2l.3.3a2.2 2.2 0 0 1 .1.5 9.5 9.5 0 0 1 .6 1.5c.4.5.4 1.1.6 1.6h-.2c0 .1.2.3.3.2 0 .1.2.3 0 .4s.2.2.2.3a1.6 1.6 0 0 0 .2.6h-.1c0 .1 0 .4.2.3 0 .3.3.6.2 1h.1c0 .2 0 .5.2.7h-.1.1c.2.5 0 1 .2 1.3a11.3 11.3 0 0 1 .4 2c.2.2 0 .5.2.7v1.6s.1.2 0 .2c0 .1 0 0 0 0v2c-.2.4-.3 0-.2.3 0 .2-.3.2-.2.3v.1c0 .3-.2.3-.2.5.1.3 0 .5 0 .8a15.9 15.9 0 0 0-.6 3.7 2.5 2.5 0 0 0 .2 1.4 2.2 2.2 0 0 0 .4.6 3.5 3.5 0 0 0 .6.4.3.3 0 0 0 .1.2.5.5 0 0 0 .3 0l.2-.1a4.3 4.3 0 0 0 1.3 0c-.1 0-.1 0 0 0 0 0 .1-.1 0-.2l1.6-.4a3.5 3.5 0 0 0 1.4-.9 1 1 0 0 0 .2-.3l.2-.1v-.2a2.2 2.2 0 0 0 .6-2.2.6.6 0 0 1 .4.6zM561.4 207h-.2.2zM561.8 210v-.1c0-.1 0 0 0 0z" fill="#cb3c2b"></path> <path d="M562 210.6s-.2 0-.2-.2zM562 211.4zM562.2 211.4a.1.1 0 0 1 0 .1s-.1-.1 0-.1zM562.5 212.9v0zM562.9 213.5c0 .1-.1 0-.1 0zM566.2 225.8v-.1l.1.1h-.1zM565.5 231.2zM565.1 234.3v-.1l.2.1h-.2zM591.8 245c0 .1.2 0 0 .1s0 0 0-.1zM609.3 260.5c-.2-.6.2-1.1 0-1.7h.2a3 3 0 0 1 .4-2v-.4c0-.2 0 0 0 0v-.3h.2l-.1-.1c-.3-.2 0-.5 0-.8a8 8 0 0 1 0-1.4h.2l-.2-.4v-.6c-.1-.1.2-.2 0-.3v-.3-.3c.1 0 0 .2.2.1a11.1 11.1 0 0 1 0-1.9v-.1-.3c0-.1 0 0 0 0s-.1-.2 0-.3v-.7-.3l-.2-.5a1.8 1.8 0 0 0 0-.6s.2 0 .1-.1c-.1 0 0-.3-.2-.2v-.5s.1-.1.2 0v-.1h.1a.9.9 0 0 1 0-.3c-.2 0-.4-.2-.4-.4 0 .1.2 0 .2 0l-.3-.2v-.1c0-.1 0 0-.1 0s0-.2 0-.3h.2l-.1-.2c0-.1-.1-.2-.2-.1a.4.4 0 0 1-.1-.3 1.6 1.6 0 0 1-.2-.4c-.1 0 .1 0 0 0 0-.2-.2-.4 0-.6h-.1v-.2l-.1-.1c0-.1 0 0 0 0a1.3 1.3 0 0 1-.3-.7.3.3 0 0 1-.2-.1v-.2l.2.2-.1-.1c0-.1-.2-.2-.1-.3 0 0 .1 0 0 0v-.2h-.1c-.1 0 0-.2-.1 0s-.2-.2 0-.3h-.2c-.1 0 0-.2-.2-.2 0-.1-.1-.3 0-.4-.2 0-.3-.1-.3-.2v-.1-.3h-.3c.1-.1-.2-.1-.2-.3h.2s-.3 0-.3-.2v.1c0-.1-.3 0-.2-.2 0 0 0-.1-.1 0-.2-.2-.5-.3-.5-.6h-.1s-.1 0 0-.1c-.1-.2-.3.1-.4 0v-.1h-.2v-.3h-.2v-.1H605h0-.2-.1c-.1 0-.1 0 0-.1v-.1s0 .2-.2 0 0 0 .1 0v-.1l-.3.2c0 .2-.1-.1-.2-.2h-.2a.2.2 0 0 0-.2 0c-.1 0 0-.3-.1-.2l-.2.2h-.5-.1c-.3 0-.5.2-.8 0v-.1s0-.1 0 0v.2a.8.8 0 0 1-.5 0v.1h-.2v.1s0 .1-.2 0c0 0-.1.3-.2.2h-.5a1.8 1.8 0 0 1-1 .7h-.1c-.2 0-.1 0-.2.2s0-.1 0 0-.1 0 0 .1l-.1-.2v.1c-.2 0 0-.3-.2-.4-.1 0 .1-.2-.1-.2v.3c0 .1.2.3 0 .4s.1 0 0-.2-.1.2-.2.2v.2s0-.1-.1 0v.3c-.2-.1 0-.3-.3-.3l.1.3-.1-.1c-.1-.1 0 .3-.2 0v.2a1.2 1.2 0 0 0-.2 0s0 .3-.2.1c0 0-.1.1 0 .2s0-.1.2 0l-.1.2h-.1c-.1.2-.2 0-.3 0h-.1v.3s0-.1 0 0v-.1a.2.2 0 0 0-.3 0l.1.2h-.1c-.1 0 0 0 0 .1h-.4v-.1c0-.2-.1 0-.2-.2v.2c.2 0 0 .3.1.4 0 .2-.3-.3-.3.1 0 0 0 .2.1 0v.3c0-.1-.3 0-.3-.2l.2-.1c0-.1-.2-.2-.3 0s-.1 0 0 .1h.2s-.3 0-.2.2h.2v.2-.1c-.2 0 0 .1-.1.2h-.2c0-.1.3-.1.1-.2l-.1.2c-.1 0 0 0 0-.1s-.3-.2-.3 0 0 .1 0 .2l-.1.3c-.1-.1-.2.2-.2 0 .1 0 .3-.2.3-.4s0 0 0-.2c-.2.1-.3 0-.4-.1a.1.1 0 0 0 0 .1l.2.1a.5.5 0 0 0-.2.4l-.1-.1a2.2 2.2 0 0 1-.4.4c.2 0-.2.2 0 .2l.2.1c0 .1 0 0 0 0s-.3 0-.2 0c0 0-.2 0-.2-.2 0 .1 0 0-.2 0a1.5 1.5 0 0 1-.2.4c-.2 0-.3.4-.4.5s-.2-.1-.3 0 .2 0 0 0c0 .1-.2.2-.1.4l-.1-.2v.1c0 .1-.1 0-.1 0-.2 0-.1.1-.2.2h.1c0 .2-.2.2-.3.4v-.1.1h-.2v-.3l.1.2.2-.2c0-.1 0 0 0 0l-.1-.1c-.1-.1 0 0 0 0a.3.3 0 0 1 0-.2h.2v-.2l.3-.4a.5.5 0 0 1 0 .4l.2-.1a.5.5 0 0 1 0-.4l.1-.2a7 7 0 0 0 .6-.5c0-.2.3-.3.3-.5.2 0 .3-.4.5-.4a4.8 4.8 0 0 1 1-1v.2c0-.1 0 0 0 0v-.3c.3 0 .4-.3.5-.4 0-.2.4-.2.6-.4h.2l.1-.4a1.4 1.4 0 0 1 .5-.2c.3-.4.8-.6 1.2-1l.1.1c.4-.4 1-.5 1.4-.8v.2c.2 0 .3-.2.2-.3.2 0 .4-.2.5 0s.1-.2.2-.2a2.4 2.4 0 0 0 .7-.2v.1c.1 0 .4 0 .3-.2.3 0 .7-.2 1 0a3.6 3.6 0 0 0 .8 0h.1a1 1 0 0 1 .7.1l.6.2a4.8 4.8 0 0 1 1.9 1c.2 0 .3.4.6.4v.2c.2 0 .2.4.5.5 0 .3.3.4.4.7h-.2s.3 0 .2.2a6.8 6.8 0 0 0 .5.8 7.9 7.9 0 0 1 .5.8c0 .4-.3.1 0 .4s-.2.2 0 .3h.1v.5c.3.2.2.5.5.6a21.6 21.6 0 0 1 .7 3.8 23.9 23.9 0 0 1 0 3.8.6.6 0 0 0 0 .7h-.1c.1 0 0 .2 0 .2v1.4s-.1-.1-.1 0v.1s.2.2.2 0a26.2 26.2 0 0 1-.5 3.6 4.4 4.4 0 0 0-.1 1 8.8 8.8 0 0 0-.7 2.6.8.8 0 0 1-.4-.5zM592 244.9h-.1zM594.3 243.3v.1zM594.8 242.8v.3zM595.5 242.6z" fill="#cb3c2b"></path> <path d="M595.4 242.4a.1.1 0 0 1 .1 0zM596.6 241.7l.1-.1c.1 0 0 .2-.1 0zM597 241.2zM607.2 240.1h-.1v-.1l.1.1zM609.2 244.7zM609.9 247.4h.2-.2zM605.4 202c-.1 0 0 0 0 0zM618 222.2h-.5a1.2 1.2 0 0 0-.5 0c-.1 0 0-.2 0-.1a.8.8 0 0 1-.4 0v-.1a1 1 0 0 1 0-.2 1.9 1.9 0 0 1 0-.7l-.1-.2c0-.1 0 0 0 0v-.2c-.3-.1 0-.4-.2-.5a2.8 2.8 0 0 1-.3-1 .4.4 0 0 0 .2 0h-.2s-.2-.2-.1-.3c-.2 0 0-.1-.1-.2-.1 0 .1-.1 0-.2v-.1-.2s0 .1.2 0a3.6 3.6 0 0 1-.4-1.2v-.2-.1c0-.1-.2 0-.1-.1a.1.1 0 0 0 .1 0l-.1-.3v-.2l-.1-.1c0-.1 0 0 0 0l-.1-.3c0-.1 0-.2-.2-.3s.2 0 .1-.2 0-.2-.2 0v-.4H615.2c.2 0-.1-.2-.1-.2l-.4-.2c-.1-.1.2-.1.2 0l-.3-.1s-.2-.2 0-.3 0 .2.1.2l-.2-.3c-.1 0 0 0 0 0l-.2-.2c0-.1 0 0 .1 0a.7.7 0 0 1-.3-.3h.1c0-.1-.2-.2-.1-.4 0 0-.1 0 0 0v-.1l-.2-.1c-.2-.1 0 0 0 0a.5.5 0 0 1-.2-.4h-.2.1v-.2l.1.1s-.2 0 0 0l-.1-.2v-.1c0-.1 0 0 0 0h-.1s0-.2-.1 0-.1-.2 0-.2h.2-.2l-.2-.1v-.3l-.2-.2h.1v-.3c0-.1-.1 0-.2 0 .2-.1-.2-.1 0-.3s-.1 0 0-.2l-.2.1s-.1 0 0-.1c0 0 0-.1-.1 0 0-.3-.3-.4 0-.6 0 0 0-.1-.1 0a.1.1 0 0 0-.1 0h.1c.1 0-.2 0-.3-.2s.1 0 0-.1l.2-.2h-.2v-.2c0 .1 0 0 0 0h-.2c.1 0 0 0 0 0h-.1v-.1s.2 0 0-.1-.1.1-.1 0 0 0 .1 0v-.1h-.3v-.2a.1.1 0 0 0-.2-.1c0-.1.3-.2.2-.3s-.3 0-.3.1c0-.1-.2-.2-.1-.4h-.1c-.1-.1-.3-.2-.3-.4l.2-.1c-.1 0 0-.1-.1 0l-.1.1-.2-.3v-.1h-.2v-.1l-.2-.2v-.1-.3a.8.8 0 0 1-.7-.3c0-.1 0 0 0 0v-.2h-.1c-.1 0 0 0 0 .1s0-.1-.2 0a.3.3 0 0 1 .2-.2h-.1c0-.1.3 0 .4-.2l.1-.2c0-.2-.2.1-.3.2s-.2.2-.3 0 .1.1.2 0-.2 0-.2 0h-.1c-.1 0 0 0 0 0h-.2-.1s.2 0 .2-.2c0 .1-.2 0-.3.2a.2.2 0 0 1 .2-.1c0-.1-.3 0-.1-.1h-.1a1.3 1.3 0 0 0 0-.1s-.2 0-.1-.1h-.2s.1 0 0 .1c0-.1 0 0-.1 0h-.1a.1.1 0 0 0 0-.2c-.2 0 0 0 0-.1v-.1l-.2.2s0-.1 0 0l.1-.1v-.2l-.2.1v-.1c0-.1 0 0-.1 0a2 2 0 0 0 0-.2h.1c.2-.1 0-.2.2-.2h-.1c0 .2-.3.1-.4.3-.1 0 .2-.4 0-.3l-.1.2h-.2s0-.2.2-.3v.1s.1-.2 0-.2h-.1c-.1 0 0 0 0 .1s0-.2-.2 0v.2h-.3v-.2c.1 0 .2.2.2 0h-.1s.2-.2 0-.1h-.4c.1 0 0 0 0 0h.5c-.1-.1 0-.3 0-.4l-.1.2a.2.2 0 0 0-.3 0v-.1a1.4 1.4 0 0 1-.3-.2c0 .2-.1 0-.1.1a.2.2 0 0 1 0 .3v-.1s0-.2-.1-.1c0 0 0-.2.2-.3-.2 0 0 0 0-.1a.9.9 0 0 1-.4 0c0-.2-.2-.1-.3-.2v-.2s0 .2-.1 0-.1-.1-.2 0v-.2h-.2v.1h-.3v-.2h-.1s0-.1 0 0v-.2h.2l-.1.1c0 .1.1.1.1 0l.1-.1c.1-.1 0 0 0 0a.2.2 0 0 1 .1 0 .1.1 0 0 1 .2 0c0 .2.2 0 .3 0a.6.6 0 0 1-.2.3l.3-.1h.2l.4.2v.1c.2-.1.3 0 .4 0 .1.1.3.1.3.3a1.9 1.9 0 0 1 .8.4h-.1v.1h.2l.4.1v.1c.2 0 .2.1.3.3v.1h.3a.8.8 0 0 1 .2.3c.4 0 .5.4.8.6.4.2.5.6.8.7l-.1.1a.1.1 0 0 0 .2 0c0 .1.2.2.1.3s.2 0 .3 0-.2.4.3.4l-.2.1c0 .1 0 .2.2 0 0 .3.3.4.3.6h.1c.1 0 0 .4.2.4v.1c0 .1 0 0 0 0 .3.2.2.5.4.7a3.6 3.6 0 0 1 .6 1c.2.1 0 .4.3.4v.2l.1.3.2.5s.1 0 0 .2a3.9 3.9 0 0 0 .5 1c0 .2-.3 0 0 .2s-.2.2-.1.2h.1v.4c.2 0 .2.3.4.3l.9 2.3a20.6 20.6 0 0 1 .4 2.4v.4l.2.1.1 1s-.1 0 0 0h.1a4.5 4.5 0 0 1 .2 1.1v.6a2.5 2.5 0 0 0 0 .3v.1a.2.2 0 0 0 .1.2.3.3 0 0 0 .2.2 1.6 1.6 0 0 0 .4 0h.2a.7.7 0 0 1 0 .2.3.3 0 0 1 .4-.2zM605.5 202s.1 0 0 .1a1.3 1.3 0 0 1 0-.2zM607 203.2h-.1z" fill="#cb3c2b"></path> <path d="M607.3 203.4c0 .1-.1 0-.2 0zM607.5 203.9zM607.6 203.8zM608.2 204.4zM608.6 204.6h-.1zM613.1 210.5h-.1.1zM614.3 213.6v.1c0 .1 0 0 0 0zM615.1 215.3h.1-.1zM562.1 270.2c0 .1.1 0 0 .1zM576.4 276.6c-.4 0-.4-.5-.7-.7 0 0 .2 0 .1-.1-.3-.2-.4-.6-.3-1l-.1-.2h-.1l.1-.2h-.1c-.3 0 0-.3-.2-.4a1.8 1.8 0 0 1-.4-.7.3.3 0 0 0 .2 0 .2.2 0 0 1-.3 0c.2-.1-.1-.2 0-.3h-.2l.1-.1c-.2 0 0-.2 0-.2v-.1s0-.2-.1-.1c0-.1 0 0 .2 0a2.8 2.8 0 0 1-.4-1l.1-.1-.1-.2c-.1 0 0 0 0 0s-.1 0 0-.2l-.1-.1c-.1-.1 0 0 0 0v-.2c.1-.1-.1 0-.1 0l-.1-.4-.2-.2c-.2-.1.2 0 .2-.2s-.1 0-.3 0v-.2s.1-.1.1 0l.1-.1v-.2h-.4l.2-.1h-.3s0 0 0-.1a.2.2 0 0 1-.1 0v-.2c0-.1 0 0 0 0v-.1h-.2a.2.2 0 0 1-.2 0h.2a.7.7 0 0 1-.4-.2h.1c0-.2-.2-.1-.1-.3h-.1-.1c-.1 0 0 0 0 0a.4.4 0 0 1-.3-.3h-.2.1v-.2h.1s-.2 0 0 0-.2 0-.2 0h.1s0-.1 0 0c0-.1-.2 0 0-.2h-.2c0 .2 0 0-.1 0 0 0-.2 0-.2-.2s-.1 0-.1 0v-.2l-.2.2c0-.2-.2 0-.2-.1l.1-.1c0-.1-.1 0-.2 0v.1s-.1 0 0 0c0 0-.1-.2-.2 0 0-.2-.3 0-.3-.3h-.1v0c0-.1-.1.2-.2.1h-.1v-.2a.1.1 0 0 0-.1 0h-.2l.1.1c.1 0 0 0 0 .1 0-.1-.2 0-.2 0s-.1 0 0 0l-.1-.1c-.1 0 0 .2 0 0h-.1l-.2.1c0 .1 0 0 0 0 0-.1-.2 0-.2 0a.1.1 0 0 0-.1 0v-.2l-.1.2s-.3.1-.4 0v.1c0 .1-.3.2-.4 0v-.1c0-.1 0-.1 0 0v.2a.2.2 0 0 1-.3 0h-.1l-.2.2v-.1h-.3a.6.6 0 0 1-.4.4c-.1 0 0 0 0 0l-.1-.1v.1c0 .1 0 0 0 0l-.2.1a.6.6 0 0 1 0-.1c-.2 0 0-.2-.2-.4v-.2.6s.1 0 0 0v.2s-.1 0 0 .2c-.1-.1 0-.3-.2-.3l.1.3a.2.2 0 0 1 0-.2c-.2 0 0 .3-.2 0v.1h-.1s0 .2-.1 0c0 0-.1 0 0 .2s0-.1 0 0c0-.1 0 0 0 0v.1c0 .1 0 0 0 0 0 .1 0 0-.1 0v-.1h-.1v.3s0-.1 0 0v-.2h-.1c-.1 0 0 .2 0 .2v-.1.1h-.2v-.2c0-.1-.2 0-.2-.2v.1c.2.1 0 .3.2.4 0 .1-.3-.3-.2 0 0 0 0 .2.1.1v.2s-.2-.1-.2-.3 0-.1 0 0c.1 0 0 0 0 .1s-.2 0 0 .2h.2v.1c-.1 0 0 0 0 .1h-.2c0-.2.2 0 0-.2s-.3-.1-.2 0v.4l-.1-.1s.1-.1 0-.2v-.2l-.2-.1c-.2-.1 0 0 0 0l.2.2a.2.2 0 0 0 0 .2h-.2a.5.5 0 0 1-.2.1c.1.1 0 .1 0 .2a.3.3 0 0 1 .3.1h-.1c-.1 0-.2-.1 0 0l-.3-.2h-.1a.7.7 0 0 1 0 .3c-.2 0-.2.2-.2.2h-.3s.2 0 0 0-.1 0 0 .2l-.2-.1v.4h-.2s-.1 0 0 0l-.2-.2h.2c.1 0 .1 0 0 0l-.1-.1c-.1-.1 0 0 0 0a.1.1 0 0 1 0-.1v-.2l.2-.2a.6.6 0 0 1 0 .3h.2c.2 0-.1-.3-.1-.3v-.2a2.8 2.8 0 0 0 .3-.3h.1c-.1-.1 0-.1 0-.2.2 0 .2-.3.4-.3a1.6 1.6 0 0 1 .5-.5v-.1l.2-.4v.1c0-.2.2-.1.4-.2h.1v-.3a.5.5 0 0 1 .3 0c.2-.4.5-.4.7-.6h.1c.2-.3.6-.3.8-.4v.2c.1 0 .2-.1.1-.3h.3l.1-.1a.5.5 0 0 0 .4 0s.2 0 .1-.1c.2 0 .4-.2.6 0v-.1h.4c.2-.2.5 0 .7 0a1.7 1.7 0 0 1 .6 0l.5.2c.2-.2.3.2.4 0h.1c.1 0 .2.3.4.2s.3 0 .4.2.1 0 0 .1h.1a1.5 1.5 0 0 0 .5.2 4 4 0 0 1 .5.3c0 .3-.2.3 0 .3s-.1.2 0 .2h.1l.1.2c.2 0 .2.2.5.2a8.3 8.3 0 0 1 1 2 13.5 13.5 0 0 1 .5 2v.4h.2a6.2 6.2 0 0 0 .2.8h-.1.2a2.6 2.6 0 0 1 .2.9 4.3 4.3 0 0 0 .3.9.9.9 0 0 0 .2.4 1.8 1.8 0 0 0 .5 1.3s-.8 0-1-.1z" fill="#cb3c2b"></path> <path d="M562.1 270.1l.2.1a1.4 1.4 0 0 1-.2 0zM563.6 269.4zM563.9 269.1a.2.2 0 0 1 0 .2zM564.3 269zM564.2 269h.1c.1 0 0 0 0 0zM564.9 268.6s.1 0 0 0zM565.1 268.3zM570.9 267l-.1.1.1-.1zM572.8 268.7zM573.7 269.9h.1-.1zM532 262.4s-.1 0 0 0zM537 273.8a.2.2 0 0 1-.4 0 .4.4 0 0 0-.3 0v-.1c-.2.2-.4 0-.5-.4s-.1.1-.1 0h-.2v-.2c-.2.3-.1 0-.3 0l-.5-.2.1-.1a.2.2 0 0 1-.2 0c.1-.1 0 0 0 0-.2 0 0-.2-.2 0v-.2c0 .1 0 0 0 0v-.1s0-.1-.1 0l.1-.1a1 1 0 0 1-.5-.4.3.3 0 0 1 0-.2h-.2a.3.3 0 0 0 .2-.1h-.2c0-.2-.1 0-.1 0l-.2-.2h-.1c-.1 0 .1-.2 0-.2h-.2v-.1l.2-.1v-.1h-.3l.1-.2-.3.1v-.2c0-.1 0 0 0 0h-.4a.3.3 0 0 0 .2 0 .5.5 0 0 1-.3 0s.1 0 0 0-.1 0 0-.2-.1 0-.1 0v-.1s-.3-.1-.2-.2h-.2v-.1h.1c.1 0-.1 0 0 0s-.1 0 0 0v-.1c0-.1 0 0 0 0h-.1c-.1 0-.1 0 0-.1h.1-.2c-.1 0 0-.1-.1 0v-.2s-.2 0-.1-.1l.2-.2h-.3c.2-.1-.1 0 0-.2s.1 0 .2 0-.2 0-.1 0h-.2c.1 0 0 0 0-.1s-.2-.2 0-.3h-.1l.1-.1h-.2v-.1l.2-.1c.2 0 0-.1-.1 0v-.2a.1.1 0 0 0-.1 0h-.1c-.1 0 0 0 0 0s.1 0 0 0h-.1v-.1c-.1 0 0-.1-.2 0s.1-.1.1-.1v-.1h-.1l.2-.2h-.3v-.2s-.2-.2 0-.3c0 0 .2 0 0 0a.3.3 0 0 0-.1 0 .1.1 0 0 1 0-.1h-.1c.1 0 .1-.1 0-.1 0 0-.1 0 0-.1l.1-.2c-.3-.1-.3-.3-.3-.4h.8s-.1 0 0 0h.1l-.1-.1c-.1-.1 0 0 0 0l-.1-.1h.7a.5.5 0 0 0-.3 0h-.3.1c.1 0 0-.1 0-.2h-.2-.1.3-.3a.3.3 0 0 1 .2 0s-.2-.1 0-.1h-.1s0-.1 0-.1 0-.1 0 0h-.1c.1 0 0 0 0 0-.1-.1 0 0 0-.1h.1-.2l.2-.1c0-.1-.1-.1-.2 0h0l.2-.1h.4c.2 0 0 0 0 0l-.5-.1c-.2 0 .4 0 .1-.1h-.1s-.2 0-.1-.1h.4-.1c-.1 0 .1-.1 0-.2h-.3.1s-.1 0 0-.1h.2s-.1 0 0 0 .3 0 .1-.1h-.1l-.1-.1c.1 0 0-.1.1 0v.1c0 .1 0 0 .2 0h.3a.7.7 0 0 0-.2 0h-.2.2a.3.3 0 0 1 0-.3h-.2a.3.3 0 0 1-.2 0s.2 0 0-.1h.5a.5.5 0 0 1-.1-.2c.1 0 0-.1 0-.2h.2s-.1 0 0 0 0 0-.1-.1h.1a.4.4 0 0 1 .2 0v-.1h-.1c-.1-.1 0-.1 0-.2H531.7c-.2 0 0 .1 0 .2h.2v.1c0 .1 0 0 0 0v.1c0 .1.2.1 0 .2a.8.8 0 0 1-.2-.1l.2.1v.1a.6.6 0 0 0 0 .3v.2s.1.1 0 .2a.7.7 0 0 1 0 .4h-.1.2v.3c.2 0 0 .1 0 .2s-.1 0-.1 0a.6.6 0 0 1 .2.1.3.3 0 0 1 0 .2l.1.5.1.5h-.2.2s.1.1 0 .2.1 0 .1 0a.1.1 0 0 0 0 .3c0 .1.2.2 0 .3h.2v.2h-.1.1c.1 0 0 .3 0 .4a2.8 2.8 0 0 1 .2.6c.2 0 0 .2.2.2 0 0-.1.2 0 .2s0 .1 0 .3c-.1 0 .1 0 0 0 0 .2.2.4.3.5 0 .2-.3.2 0 .2s-.3.1-.2.1h.2s-.1.2 0 .2h.3l.8 1 .7 1c-.1.2 0 .2 0 .2h.1a2 2 0 0 0 .3.3.2.2 0 0 0 .1 0 .9.9 0 0 1 .4.3 1 1 0 0 0 .3.3l.3.1c.1.3.3.4.6.4 0-1.2-.1-.8-.3-.8zM532 262.5h-.2zM531.2 263.3zM531.1 263.6a.1.1 0 0 1-.1-.1zM530.8 263.8zM531 263.8s-.1 0 0 0zM530.8 264.3s-.1 0 0 0zM530.8 264.6zM531.8 268.8zM532.6 270.5zM533.4 271.2l.1-.1-.1.1zM523.6 227.2s.1 0 0 0zM530.9 244.6a.7.7 0 0 1 .5-.4.8.8 0 0 0 .5-.3s0 .2.1 0a1.8 1.8 0 0 1 1.2-.6l.1-.2c.1 0 0 0 0 0l.4-.3s-.1.2.4 0c-.2-.4 0-.2 0-.5l-.1.1a6.6 6.6 0 0 1 .4-.9v-.1l.1-.3c0-.1.1 0 0-.2h.1c-.1-.1.1 0 .1-.1v-.2c0-.1.2-.1 0-.2l.2.1a7.9 7.9 0 0 1 .4-1.3h.1c.1 0 0-.2 0-.2v-.2a.1.1 0 0 0 .2 0l-.1-.2v-.3h.1c.2 0-.1 0 0-.1v-.4-.4l.1-.1c0-.1 0-.2-.2-.1v-.4H535.8c.1 0 0-.2 0-.2l-.3-.3h.2l-.3-.2v-.3h.2c.2 0 0 0 0-.1l-.2-.1a.2.2 0 0 1-.1-.2.8.8 0 0 1-.2-.3h.1c0-.2-.2-.3 0-.4h-.1v-.2h-.1c-.1 0 0 0 0 0a.6.6 0 0 1-.2-.5l-.2-.1h.1v-.2c-.1 0 .2.3 0 .2.2 0-.1-.1 0-.1 0 0-.1-.1 0-.2v-.1h-.2s-.1-.1 0-.2h.2-.4c0-.2-.1-.3 0-.4l-.2-.1c0-.1 0 0 0 0v-.1-.3h-.1c0-.1-.2 0-.1-.2h.1s-.2 0-.2-.2h.2s-.2 0 0-.2c0 0 0-.1-.1 0 0-.2-.3-.3-.2-.6v.1c0 .1-.1 0-.2 0l.1-.1-.3-.1v-.1h-.1l.1-.2c.1 0 0-.1-.1 0v-.2l-.1-.1c-.1 0 0 .1 0 .1h-.2v-.1c0-.1 0 0 0 0v-.1c0-.1 0 0 0 0v-.1s-.2.1-.2 0v-.1h-.2c-.1 0 0 0 0-.1l-.2-.1a.2.2 0 0 0-.1 0c0-.2.2-.3 0-.3l-.1.1c0-.1-.3-.1-.3-.3s-.5-.2-.5-.5h.1s0-.2 0 0l-.1.1-.3-.3v-.1h-.1s-.1.1-.1 0h-.3v-.2l-.2-.2a1 1 0 0 1-.8-.2c0-.2 0 0 0 0v-.3h-.2s.1 0 0 .1 0-.1-.1 0v-.2l.3-.3c0-.1.1 0 0-.2s-.2.2-.2.3c-.1 0-.2.2-.3.1s.1 0 .1 0h-.2c-.1 0 0 0 0 0h-.1-.2s.2-.1.1-.2l-.2.2a.2.2 0 0 1 .1-.1c0-.1-.2.1-.1-.1s-.2 0-.2-.1h-.1s.1 0 0 .2c0-.2 0 0 0 0h-.2a.1.1 0 0 0 0-.1l-.1-.1v-.1l-.1.2s0-.1 0 0a.2.2 0 0 0 0-.3l-.2.2a1.7 1.7 0 0 0-.2-.2l.1-.1v-.3c0-.2 0 0 0 0 0 .3-.2.3-.3.5s0-.5-.1-.2c0 0-.1.2 0 .1-.1 0-.1.2-.2.1v-.3c0 .1 0 0 .1 0v-.2l-.1.1v.1l-.2.1v.2-.1l-.1.1-.1-.1c0-.2.2 0 .2-.2-.1 0-.1.1-.2 0s0-.2-.1 0l-.2.2s-.2 0-.1-.2h.3v-.2-.3h-.1v.3a.3.3 0 0 0-.3.1v-.1a1.8 1.8 0 0 1-.4 0c.1.1-.1 0 0 .2a.2.2 0 0 1 0 .2v-.1s0-.2 0 0v-.4c-.1.1 0 0-.1 0a.9.9 0 0 1-.3.2c-.1-.2-.3 0-.4.1s0-.2-.1-.2 0 .1 0 .1-.3 0-.2.2v-.1-.1l-.2.1h.1c0 .2-.2.2-.3.3v-.1s-.1 0 0 0v-.2.2s.2 0 .1-.2v-.1c0-.1 0 0 0 0a.2.2 0 0 1 0-.2l.1.1a.1.1 0 0 1 .2-.2l.2-.1a.5.5 0 0 1 0 .3h.1v-.3l.1-.2a4.8 4.8 0 0 1 .6 0c0-.2.2-.1.3-.2s.4-.1.5 0l.5-.1a2.8 2.8 0 0 1 .5 0h-.1v.2l.2-.2a.5.5 0 0 0 .5 0c.2 0 .3 0 .5.2s.2 0 .4 0a.8.8 0 0 1 .3.2c.4 0 .7.2 1 .3v.1c.5 0 .8.4 1 .5v.1a.1.1 0 0 0 .2 0c0 .1.3.1.2.3s.2 0 .3 0a.8.8 0 0 0 .3.3s0 .3.2 0c0 .3.4.3.4.6h.1s.2.3.4.3c0 0-.1 0 0 .1s0 0 .1 0c.3.2.3.5.5.7a5.1 5.1 0 0 1 1 1c.2 0 0 .5.3.4v.2c.1 0 0 .3.3.4l.1.5s.2 0 0 .2h.1a8.7 8.7 0 0 0 .6 1.1c0 .4-.3.2-.1.3s-.2.2-.1.3h.1v.4c.2 0 .1.3.4.4a10.6 10.6 0 0 1 .3 2.8 8.1 8.1 0 0 1-.7 2.7l-.3.4v.3a9.1 9.1 0 0 1-.4.9s-.1-.1-.1 0v.2a2 2 0 0 1-.3.5 3.9 3.9 0 0 1-.5.5l-1.1.9a4.2 4.2 0 0 0-.6.5l-1 .2a3.3 3.3 0 0 0-1 .4.8.8 0 0 1 .1-.5zM523.7 227.1l.1.1-.1-.1zM525.7 227zM526.1 227h-.1zM526.5 227.2zM526.6 227s0 .1 0 0zM527.4 227.3h.1c.1 0-.1 0 0 0zM527.8 227.3zM534 232.1v-.1.1zM535.2 235.4zM535.6 237.3h.1-.1zM590.9 261.2zM599.5 273a.7.7 0 0 1-.3.5.8.8 0 0 0-.3.3s-.1-.1-.1 0a.5.5 0 0 1-.4.5.7.7 0 0 1-.6 0h-.2c-.2 0 0 0 0 0h-.1c-.1 0 0 0 0-.1-.2.3-.3 0-.5 0-.3 0-.5-.2-.7-.4a.3.3 0 0 0 .1-.1l-.2-.1c0-.1-.2 0-.2-.2-.1 0 0-.1 0-.1v-.1c-.2 0 0-.1 0-.1v-.2s0-.2-.1-.1h.2a2 2 0 0 1-.2-1.1v-.1-.2-.1a.2.2 0 0 0 .1 0v-.3-.2c.2-.1 0 0 0-.1v-.4-.3c0-.1.1 0 .1 0s0-.3-.2-.2v-.3h.3l.1.1c.1 0 0-.2 0-.2l-.2-.3h.2l-.3-.2h.1s0-.3 0-.2h.1c.1 0 0-.1 0-.2s0-.1-.1-.1.1 0 0 0a.2.2 0 0 1 0-.2.7.7 0 0 1-.1-.2s.1 0 0 0c.2 0 0-.2.2-.3h-.1s.1 0 0-.1 0 0 0-.1a.5.5 0 0 1 0-.5v-.1l.1-.1v.2c.1 0-.1-.2 0-.1v-.2h.2l-.1-.1v-.1-.2h.2l-.2-.1c-.1 0 0 0 0-.2l.1-.2v-.2l.3-.2h-.2c.2 0-.1-.2 0-.3 0 0 .2.1.2 0s-.1 0 0-.1h-.1s-.1-.2 0-.1c0 0 .1-.1 0-.1.1-.2 0-.4.2-.5h0c.1 0-.2-.1-.1-.2v-.1h.2c.2 0 0-.1-.1-.1h.1v-.1a.1.1 0 0 0-.2 0v-.1-.1c0-.1 0 0 0 0h.1c-.1 0-.2 0-.1-.2h.1l-.1-.2c-.1 0 0 0 0 0 .1-.1 0-.2 0-.2a.1.1 0 0 0 0-.1s.3 0 .2-.1-.2-.1-.2 0v-.3h-.1c0-.2-.2-.3 0-.5h.1s.1 0 0 0h-.2v-.2-.2h-.1s-.2 0-.1-.1v-.1-.2a.6.6 0 0 1-.3 0l-.2-.3s-.1.1-.1 0l.1-.1c.1-.1-.1 0-.2 0a.4.4 0 0 1 0-.1c0-.2.2-.2.3-.3 0-.2.2 0 .1-.2s-.2.2-.2.2l-.3.2h.1l-.2.1s.1 0 0-.1 0 0 0 .1h-.1s.1-.1 0-.2v.3a.3.3 0 0 1 0-.2c0-.1-.2.2-.2 0h-.1v.2h-.1v-.2h-.1v.3s0-.1 0 0v-.1l-.1-.2c-.1 0-.1.2 0 .2a1.1 1.1 0 0 0-.3-.1v-.2-.2c0-.2 0 0 0 0v.5c-.1.1-.2-.4-.2 0 0 0 0 .1 0 0v.2s-.2-.2-.1-.3 0-.2 0-.2v.2s-.1 0-.1.1l.1.2c-.1 0 0 .1 0 .1h-.2c0-.2.2 0 .1-.3l-.1.1s-.2-.2-.2 0v.1l-.1.2-.1-.2.2-.1v-.2l-.2-.2c0-.1 0 0 0 0v.3a.2.2 0 0 0-.1.2v-.2a.6.6 0 0 1-.4.1c.2.2 0 .1 0 .2a.2.2 0 0 1 .2.2s-.2-.2-.2 0c.1-.2 0-.3 0-.4 0 .1 0 0-.2 0a1 1 0 0 1-.1.2l-.4.2-.1-.2c-.1 0 0 .2 0 .1s-.2 0-.2.3v-.2h-.2v.1l-.2.2h-.1v-.6.2l.2-.1c0-.1 0 0 0 0v-.2c0-.2-.1 0 0 0v-.1c0-.1 0 0 0 0l.1-.1.2-.2a.6.6 0 0 1 0 .3h.1v-.3l.1-.1a2.5 2.5 0 0 0 .4-.2c0-.1.2 0 .2-.2s.3-.2.4-.1a1.6 1.6 0 0 1 .7-.4v.2c0-.1 0 0 .1 0s0-.2 0-.3l.4-.2v.1c0-.2.2 0 .4 0s0 .1 0 .1l.3-.2a.6.6 0 0 1 .4.2c.4-.1.7.1 1 .3.5 0 .6.6.9.8h-.2c0 .2.1.2.2.1 0 .1.2.2.1.3s.1.1.2.2a.8.8 0 0 0 .1.4s0 .2.1.1c0 .2.2.4 0 .6h.2v.5h-.1c.2.2 0 .5 0 .7a3.9 3.9 0 0 1 0 1.2c.2.1-.2.3 0 .4 0 0 0 .1 0 0 0 .2-.2.3 0 .5-.2.1 0 .3-.2.4-.2 0 0 .1-.1.1a2.8 2.8 0 0 0 0 1c-.2.2-.4 0-.3.2 0 0 .1 0 0 0s-.2 0-.1.1h.1c0 .2-.2.2-.1.3l.1.5-.2 2.1a16.3 16.3 0 0 0 0 2c-.2.1-.2.1-.1.3a1 1 0 0 0 .3.5l-.1.1a.1.1 0 0 0 .2 0l.2.2v.1h.1c.2.1.2.2.3.1l.3-.2a2.3 2.3 0 0 0 .7-.3 2.7 2.7 0 0 1 1-.6 1.4 1.4 0 0 1-.1.2 1.8 1.8 0 0 1-.5.4zM591 261l.1.2-.1-.1zM592.7 260.8zM593 260.7v.2zM593.5 260.8z" fill="#cb3c2b"></path> <path d="M593.4 260.6h.1c.1 0 0 .1 0 0zM594.2 260.6zM594.5 260.5zM596.5 265.2v-.1.1zM596 268.2h-.1zM595.9 269.9h.2-.2zM536.3 213.3c0-.1 0 0 0 0zM554.6 219.4a.8.8 0 0 1-.5 0 .6.6 0 0 0-.5.2s0-.2-.1-.2a1.5 1.5 0 0 1-1.2.4l-.2.2c-.1 0 0-.1 0-.1l-.1.1c0 .1 0 0-.1 0 0 .3-.3.1-.4.3a3.3 3.3 0 0 1-.7.6.3.3 0 0 0 0-.2c0 .2 0 .2-.2.3l-.2.1v.2h-.1c0 .1-.2 0-.2 0-.2.2-.3.1-.2.2-.1 0 0 0 0-.2a3.5 3.5 0 0 1-1 .7h-.2l-.1.1c0 .1 0 0-.1 0l-.1.2a.1.1 0 0 0 0-.1l-.2.2v-.1l-.1.2v-.1c-.2 0 0 .1-.1.1l-.3.2-.3.2c0 .1 0-.2-.1-.1 0 .1-.2.1 0 .3h-.3s-.1-.1 0-.1l-.1-.1h-.2s0 .3-.2.4v-.2.3s0 0-.1 0 0 .1 0 .1-.2.1-.2 0v-.1c0-.1-.1 0-.2 0v.2a.2.2 0 0 1-.2.1.7.7 0 0 1-.3.2v-.1c-.1-.1-.3.1-.4 0h-.2s-.5.1-.6 0l-.2.1v-.2c-.2.1.2 0 .1 0 0 0-.1.1 0 0s-.3 0-.3 0v-.1h-.2v.1l-.2-.1v-.1l-.1.1c-.1.1 0 0 0 0 0 .1-.1 0-.2 0 0 0-.3 0-.3-.2s-.1.1-.2 0l-.1-.2-.2.2c0-.2-.2 0-.2-.2 0 0 .1 0 0-.1s0 0-.2 0c0 0-.1 0 0 0-.1 0-.1-.1-.2 0-.1-.2-.4-.2-.4-.5v-.1c0-.2-.3.1-.4 0s0-.1 0-.1h-.1v-.3h-.1v-.1h-.1-.1c-.1 0 0 0 0 0h-.2c-.2 0 0 0 0 0s-.1-.1 0-.2 0 .1 0 0c0 0-.2.1-.2 0v-.1h-.2c0-.2-.1-.2-.2-.2a.2.2 0 0 0-.1 0s.2-.2 0-.2l-.2.1c0-.1-.2-.1-.2-.3h-.1c-.1-.2-.4-.2-.3-.5s0-.2 0 0a.3.3 0 0 1-.3-.2v-.1h-.1v-.1h-.2v-.1l-.2-.1.1-.1h-.1v-.3a.8.8 0 0 1-.6-.5c0-.1-.1 0-.1 0l.1-.1-.2-.1c0-.1.1 0 0 0s0-.1 0 0a.5.5 0 0 1 0-.1c0-.2.3 0 .4-.2.1-.1.2 0 .2 0h-.3-.3s0 .1.1 0-.1 0-.1-.1h-.2-.1s0-.1-.1 0c0-.2.3 0 .3-.2h-.3a.2.2 0 0 1 .1 0c0-.1-.2 0 0-.2h-.1a.8.8 0 0 0 0-.1s-.2-.1 0-.2h-.1c-.1 0 .1 0 0 .2l-.1-.1h-.1c-.2-.2 0-.2 0-.3h.1a1.6 1.6 0 0 1-.3 0s.1-.1 0-.1h.2v-.2c0-.1-.1 0-.1 0v-.1h-.1l.1-.3h.4c.2 0 0-.1-.1-.1h-.5s.4-.2.1-.2h-.1-.2l.3-.1h.2s0-.2-.2-.1c0 0 0-.1-.2 0h-.1l-.2-.1.2-.1s0 .2.1 0 .2-.2 0-.3h-.1l-.1.1.1-.1s0 .2.2.2h.2l.2-.1c.1-.1 0 0 0 0h-.3a.2.2 0 0 0-.2-.2h.2a.8.8 0 0 1-.1-.4c-.2.2-.1 0-.2 0a.2.2 0 0 1-.2.2s.2-.2 0-.2c.2.1.3 0 .4 0 0 0 .1 0 0 0a.7.7 0 0 1-.2-.3c.1-.2 0-.3 0-.4l.2-.1c0-.1-.2 0-.1 0s0-.2-.2-.2h.2v-.3c-.2 0 0-.1-.1-.2 0 0 .1-.1 0-.2l.3.2h-.2c-.1 0 0 .1 0 .1h.2c.1 0 0-.1 0-.1a.2.2 0 0 1 .1.1s0 0 0 .1l.2.3a.7.7 0 0 1-.3-.1v.1l.3.1v.1a1.8 1.8 0 0 0 .2.5h-.1c.2 0 .1.2.2.2s.2.3 0 .4a2 2 0 0 1 .4.7h-.1c.1 0 0 .1 0 .1h.2c0 .2.1.3.3.4h-.1c.2 0 .1.2.1.3v.1l.3.1a.6.6 0 0 1 0 .3l.6.7v.1c.2.2.3.6.5.7l-.1.1c0 .1.1.1.2 0 0 .1.2.1.1.2s.1 0 .2.1a.5.5 0 0 0 .2.3v.1c0 .1 0 .2.1 0 0 .2.4.2.4.4s.2.3.3.3v.1c0 .1 0 0 .1 0 .3 0 .3.4.5.4a2 2 0 0 1 .5.3l.4.3c.2 0 .2.3.4.1v.1l.4.2.3.1c.1.1 0 0 0 0s.1 0 .1.1a1.1 1.1 0 0 0 .5 0h.5c.2.2 0 .4.1.3s.1.2.2.1c0 0 .1.1.2 0 .2-.1.3 0 .4-.2a7 7 0 0 0 2-.8l2-1 .3-.1v-.2c.3 0 .5-.2.8-.4v-.1a9.6 9.6 0 0 1 2.1-1 2.7 2.7 0 0 0 .7-.2 8.1 8.1 0 0 1 2 .3 1 1 0 0 1-.5.3zM536.3 213.4h-.1.1zM536 215.3zM536.1 215.7l-.1-.1zM536 216.2zM536.2 216.2s-.1 0 0 0z" fill="#cb3c2b"></path> <path d="M536.4 217.1v.1c0 .1-.1 0 0 0zM536.6 217.5zM542.1 223.1h-.1.1zM545.5 223.7h.1c.1 0 0 0 0 0zM547.2 222.9v-.1.1zM616.2 265.6v-.2a.2.2 0 0 1 0 .2zM648.8 292a.8.8 0 0 0 0-.2.5.5 0 0 0-.1-.2.7.7 0 0 0-.4-.3 2.3 2.3 0 0 0-1 0 3.5 3.5 0 0 0-1.7.7s0-.2-.3 0a9.2 9.2 0 0 0-1.4 1.5 2.8 2.8 0 0 0-.4 1 3 3 0 0 0 0 1.2c0 .3.4.5.5.7a.7.7 0 0 1 .2.2l.3.2.2.2h.2a4.5 4.5 0 0 1 .8 0 1.7 1.7 0 0 0 1-.2v.1a15.5 15.5 0 0 0 2.7-1.8v.1l.5-.6c.2 0 .3-.4.6-.6l.4-.4h.2c0-.2.3-.2.4-.4 0-.2.2-.2.3-.3.3-.4.5-.5.4-.6.2 0-.2.4 0 .3.9-1.1 1.8-2.3 2.5-3.5.2 0 .2-.2.3-.2a3.4 3.4 0 0 0 .3-.6h.1c.1 0 0-.4.2-.6v.1a3.4 3.4 0 0 1 .4-.8v.1c0-.3.3-.5.3-.7v.1c.3-.4 0-.2.1-.5a7.4 7.4 0 0 1 .4-1.2 12 12 0 0 0 .4-1.1c.1-.1.2.1.3-.3-.2 0 .1-.7-.1-.5a3.9 3.9 0 0 0 .3-1s.2-.2.2 0l.1-.1v.2l.1-.8a2.6 2.6 0 0 1-.1-1c0 .3.2 0 .2 0l-.3-.5c0-.2.2 0 .1-.3v-.1l.1-.7c.1 0 0 .3 0 0v-.5-.3.2a1.5 1.5 0 0 1-.2-.7h.1l-.3-1 .1.2a1.9 1.9 0 0 0-.1-.8 1.5 1.5 0 0 1-.2-.7v-.4c0-.2-.1-.1-.2-.3l-.2-.6a4.7 4.7 0 0 1-.4-.8l-.3-.4h.1s-.2-.3-.1-.4c-.2-.1.5.9.3.6 0-.1-.4-.4-.2-.4-.1-.2-.4-.3-.4-.6 0 .1.2.1.1 0l-.3-.3v-.1c-.2 0-.3-.3-.3-.1l-.2-.4h.2c-.1-.2-.3-.2-.4-.2-.2 0-.2-.4-.4-.4-.2-.3-.6-.5-.6-.7a1.7 1.7 0 0 1-.6-.4h.1c.1 0-.1-.2-.3-.2l-.3-.5c-.1-.2-.2 0-.3.1 0-.3-.6-.2-.8-.5h.2c-.2 0-.4-.1-.7-.4v.2c-.1-.1-.5-.1-.4-.2-.2 0-.4-.2-.4 0a3.4 3.4 0 0 0-.9-.4 1.3 1.3 0 0 1-.7-.4h-.3.2c-.2 0-.4 0-.2-.1-.4-.2-.4.1-1 0v-.1h-.4c-.3 0-.1-.1-.1-.2h-.5l-.2-.2c.1.1-.2 0-.2 0h-.3l.3.2a3 3 0 0 0-.3 0h-.7-.1.2s0-.2-.3-.1 0 .2-.3.1h.2l-.3-.1s-.5 0-.5.2-.3 0-.5 0a.8.8 0 0 0-.5 0 1.1 1.1 0 0 0-.5 0c-.2 0 0-.3-.3-.1s-.4.2-.3.3c-.4 0-1 .2-1.3 0 0 .1 0 .2-.2.2a10.6 10.6 0 0 1-1.8.3c.2 0 0 0 0-.1l-.2.1.2.1a4.2 4.2 0 0 1-1.2.3c.1 0 0 0 0 .1 0-.1-.3 0-.4 0v.1h-.2s0 .2-.3.2a1.6 1.6 0 0 1-.7.3h-.3s-.2.2 0 .1a2.3 2.3 0 0 1-.8.2 8.7 8.7 0 0 1-2.2 1.3l-.2.1s-.2 0-.1-.1c-.3 0-.3.2-.5.4 0 0 .1-.2.1 0s-.4.1-.4.2v-.1h-.2c-.3 0 .4-.4 0-.4-.3 0 .3-.3-.1-.1-.2.1-.3.4 0 .3-.4.3 0 .4-.5.6l.2-.2-.5.2c.2 0 0 .2 0 .2s0-.1-.3 0c0 0-.2.3 0 .2 0 .2-.3.1-.4.3-.1 0 .2-.4-.1-.3 0 0-.4.3-.1.4l-.2-.1c-.2 0-.3.3-.5.2h-.3c-.1.1-.4.4-.5.3 0 0-.4.2-.2.2s.2-.2.4 0c-.2-.1-.3 0-.4.2v-.1l-.3.2c0 .1 0 0 0 0-.4.2-.2 0-.5 0l.2-.1h-.3l-.2.4c0 .1 0 0-.2 0l.2-.1h-.5c-.3 0-.4.3 0 .2h-.3c-.3.1 0 0-.2.2h-.7l.3-.3h-.2c.2-.1-.1 0 0-.2a1 1 0 0 0-.4.2c.4.1-.3.4-.2.5-.5.2-.4-.4-.8 0 0 0-.1.2.2.1-.3 0-.2.2-.6.2.3-.1-.3-.1 0-.3h.3c-.1 0 0-.2-.3-.2s-.4.1-.4.2.3 0 .2 0c-.4.2-.4 0-.6.2l.3.1-.3.1h-.7c.1-.2.6 0 .6-.2h-.7.2c-.1 0-.2-.3-.6-.2-.2 0 0 0 0 .2h-1c0-.2-.6-.2-.2-.3a1.3 1.3 0 0 0 1 .2c-.1-.2.4 0 .5-.1-.4 0-.3-.2-.4-.3a1 1 0 0 0-.2 0c-.1 0 0 0 0 .2a4.3 4.3 0 0 0-1-.1c-.1-.1 0-.2.1-.2a3.6 3.6 0 0 1-1.3-.6c0 .1 0 0-.2 0s-.2-.2-.2 0 .4.3.2.3-.2-.4-.4-.4c.4.2.2-.1.3-.2-.3-.1 0 0-.2-.2a2.2 2.2 0 0 1-.4-.3 2.3 2.3 0 0 1-.4-.4 4.4 4.4 0 0 0-.4-.7 4.7 4.7 0 0 1-.4-.6c0-.2.2-.1.1-.4s0 .3-.1 0c-.1-.2-.2-.8-.4-.8h.2a.4.4 0 0 0-.1-.1s0-.1.1 0l-.2-.7v.2a5.5 5.5 0 0 1-.3-1.2v-.2-.3a2.8 2.8 0 0 0 .1.3l.2.3c0 .2-.1-.2-.2 0a.6.6 0 0 0 .1.5.6.6 0 0 0 0-.2l.2.2v-.2a1.6 1.6 0 0 1 .1.5c0-.1 0 .1 0 0l.2.6c.1.3.3.5.3.8a1.3 1.3 0 0 1-.4-.4l.1.5c.1 0 .3 0 .5.3h-.1c.2.3.3.2.4.5a3.6 3.6 0 0 0 .4.7 3.8 3.8 0 0 0 .5.6c.3 0 .6.5 1 .6a2 2 0 0 0 .7.3 1.6 1.6 0 0 1 .6.3 10.3 10.3 0 0 0 2.7 0l-.1.1h.3c-.2 0 .2-.1.3-.2a3 3 0 0 0 1.4-.5v.1a4.4 4.4 0 0 1 1.3-.4.4.4 0 0 0 .3 0 3.3 3.3 0 0 1 .7-.5 8.1 8.1 0 0 1 1-.3c1-.7 2-1 3-1.7l.1.1a26 26 0 0 1 3.2-1.6v.2c.3-.1.6-.4.5-.4.3-.1.7-.4.9-.3s.3-.2.6-.3a10.6 10.6 0 0 0 1.4-.5h-.2c0 .1 0 .2.2.1s.8-.1.5-.3a17.2 17.2 0 0 1 2-.3l.2-.2a15.8 15.8 0 0 0 1.6-.2c.1 0-.1.1.1.1s0 0 .2-.1a13.5 13.5 0 0 1 2.7 0 14.5 14.5 0 0 1 4.4.6 1.7 1.7 0 0 1 .7.2 1.3 1.3 0 0 0 .7.2c.1 0 .4.1.3.2a2 2 0 0 1 .7.3 4.5 4.5 0 0 0 .8.4.3.3 0 0 0-.1 0 12 12 0 0 1 1.3 1h-.2c.2.1.6.1.5.4h.1a14.6 14.6 0 0 1 2.7 3c.3 1-.3.2.2.8.2.3 0 .5.2.7 0-.2 0 0 .2 0 .1.6 0 .8.2 1.2a2.5 2.5 0 0 1 .3.8 3.8 3.8 0 0 0 .3.7 16.3 16.3 0 0 1-.8 8.7 24.2 24.2 0 0 1-4.3 7.4 3.4 3.4 0 0 0-1 1l-.3.6-2.3 2.1c.1-.1.1-.3 0-.1l-.1.2c-.1 0-.2.2 0 .2a10.4 10.4 0 0 1-1.8 1.2 6 6 0 0 1-2.2.7 3 3 0 0 1-1.4-.2 2.5 2.5 0 0 1-1.1-.9l-.3-.6a6 6 0 0 1-.2-.6 3.3 3.3 0 0 1-.1-1.3 4.5 4.5 0 0 1 .5-1.3 5.2 5.2 0 0 1 .9-1 6.8 6.8 0 0 1 3-1.1h.5a2.5 2.5 0 0 1 .6 0 1.2 1.2 0 0 1 .8.7 1.4 1.4 0 0 1 0 1l-.2.6-.3.3a1.3 1.3 0 0 1 0-.3v-.2-.2a3 3 0 0 0-.2-.8zM616.3 266s0 .3-.2.1l.2-.1zM618.2 272v.1l-.2-.1c0-.1.1 0 .2 0z" fill="#cb3c2b"></path> <path d="M619.6 273l-.6-.2a2.7 2.7 0 0 0 .3 0zM621.2 273.6h-.1zM621.3 273.4a.4.4 0 0 1 .3.2c0-.1-.3 0-.3-.2zM624.8 273.3h.3-.3zM626.3 272.8c.2 0 0 0 0 .1zM651.8 267.9l-.1-.1.1.1zM657.9 277v.2c-.1-.1 0 0 0-.1zM657.4 283.4v-.1l.1.1h-.1zM630.5 289.5s0 .1 0 0zM631.4 298.1c0-.3.3 0 .4-.4 0 0 0 .2.1.1 0-.2.4-.2.6-.2l.1-.1h.1c0-.3.2-.2.2-.3l.2-.4a.4.4 0 0 0 .1 0 .2.2 0 0 1 0-.1v-.1c-.1-.2 0 0 0-.2 0 0 .1 0 0 0 0 0 .2 0 0 0 0-.2.2 0 0-.2l.2.1a1.2 1.2 0 0 1 .3-.5h.1c.1 0 0-.1 0-.2h.1c.1 0-.1 0 0 0a.3.3 0 0 0 .1 0v-.2-.1c.2 0 0 0 0-.1h.1c-.1 0 0-.1 0-.2v-.2c0-.2.1.1.1 0l-.2-.1.1-.2.2.1c.1 0 0 0 0 0l-.1-.3c0-.1.1 0 .1 0l-.2-.1.1-.1c.1 0 0 0 0 0v-.1l-.1-.2a.6.6 0 0 1-.1-.2s.1 0 0 0c.2 0 0-.1 0-.2s0-.2 0-.3h.1s.1 0 0 0c.1 0-.1 0 0 0s0-.1 0-.2h.1-.1.2l-.2-.1h.1c-.2 0 0 0-.1-.1l.1-.2s-.1 0 0 0v-.1c0-.1 0 0 .1 0a.6.6 0 0 0-.2 0c.2 0-.1-.2 0-.2h.2c.2 0-.2 0 0-.1h-.2c.1 0 0 0 0 0s0-.2 0 0c0-.2-.1-.3.1-.4h-.1-.1s.1 0 0 0l.2-.1c.1-.1 0 0 0 0v-.1a.1.1 0 0 0-.2 0h-.1.1v-.1h-.2c-.2 0 0-.1 0-.1h-.1l.1-.2h-.2s-.1 0 0-.1c0 0-.3-.1 0-.3 0 0 .1-.1 0 0h-.2v-.2s-.2 0-.1 0v-.1h-.1v-.1a.3.3 0 0 1 0-.2h-.3s-.1 0 0 0v-.2l-.1.1c-.1 0 0 0 0 0l.2-.4c0-.2.2-.1.1-.2a.5.5 0 0 0-.1.2l-.2.2a.4.4 0 0 1-.1.1l-.2.1.2-.3-.2.3a.6.6 0 0 1 .1-.2s-.1.2 0 0v.1-.1s-.1.1 0 0v.1c0 .1 0 0 0 0l-.1.1v-.1-.1l-.1.2c-.1 0 0 0 0 0v-.2a.3.3 0 0 0 0 .2v-.2 0-.2-.2c0-.2 0 0-.1 0v.5c0 .2 0-.5-.2-.2V289.6c0 .1 0 0 0 0v-.1.2c0 .2 0-.2-.1 0V290v-.1-.2s0 .1 0 0 0-.2-.1 0l-.1.2v-.2c0 .1.1.1.1 0v-.2-.3V289.5c0 .1-.2 0-.2.2a.4.4 0 0 1 0-.2h-.2c.1.1 0 0 0 .2a.3.3 0 0 1 .1.2v-.1c0-.1 0-.2 0 0v-.3-.1a.8.8 0 0 1-.2.2c0-.1-.1 0-.2 0v-.2.1s-.2 0-.1.1v-.1-.1h-.1v.1c0 .1-.1 0-.2 0v-.2.2c0 .1.1 0 .1 0v-.2c0-.1 0 0 0 0v-.1l.1-.2a.9.9 0 0 1 0 .3v.1l-.2-.2c.9-.3.1-.2.2-.2a1.5 1.5 0 0 0 .3 0l.2-.1c0-.1.2-.2.3 0a.7.7 0 0 1 .5-.2v.2c0-.1 0 0 0 0v-.2h.3c0-.1.2 0 .2 0v.2l.2-.2a.3.3 0 0 1 .2.2.4.4 0 0 1 .3 0 .9.9 0 0 0 .3.1c.3 0 .3.4.5.4l-.1.1h.2s.1 0 0 .2.1 0 .2 0l.1.2s0 .2.1 0c0 .2.2.3.1.4h.1l.1.3c.1 0 0 0 0 0v.5a1.5 1.5 0 0 1 .3.7c.2 0-.1.2.1.2 0 .1-.2.2 0 .3s0 .2 0 .3h-.1c-.1 0 .1 0 0 0l.1.7c.1.2-.3 0-.2.1 0 0-.2 0-.1.1h.1s-.2 0-.1.2c.1 0 0 .2.2.3a5.5 5.5 0 0 1-.2 1.4 3.9 3.9 0 0 1-.8 1.2l-.2.1v.2a4.6 4.6 0 0 0-.3.4v-.1a.1.1 0 0 0 0 .2c-.2.4-.8.5-1.2.7l-.3.2a1.4 1.4 0 0 0-1 .2s-.1-.3 0-.4zM630.5 289.5l.1.2-.1-.2zM631.6 289.8s0 .1 0 0z" fill="#cb3c2b"></path> <path d="M631.8 289.8a.1.1 0 0 1 0 .2zM632 290v.1zM632 290zM632.3 290.1s0 .1 0 0zM632.5 290zM634.3 292.4h-.1.1zM634.1 294zM634.2 295h.1-.1zM619.3 247.2c0 .1.1 0 0 0zM628.5 263.3c.2-.5 1-.6 1.2-1 0 0 .1.1.2 0a3.8 3.8 0 0 1 1.5-1.3v.1l.1-.3h.1v-.3h.3c-.1-.4.3-.5.3-.8v.1a13.9 13.9 0 0 1 .7-1.3v-.3s0-.2.2-.3c0-.2.2-.1 0-.3h.1c0-.1.2 0 .2-.2v-.2c0-.2.2-.2 0-.3.2 0 0 .2.2.2a17.5 17.5 0 0 1 .5-1.8l.2-.1v-.3s0-.2 0-.3c0 0 .1.1.2 0v-.3-.3h.1c.2-.1-.1 0 0-.2v-.5a1.5 1.5 0 0 0 0-.5s.2 0 .2-.2c-.2 0 0-.3-.3-.2a.8.8 0 0 0 .1-.5c0 .1.2 0 .2 0h.1s0 .1 0 0v-.2l-.3-.5c.1.1.2 0 .2 0l-.3-.2s.2 0 .1-.1v-.1-.3c.1 0 0 .1.1 0s0-.1 0-.2l-.2-.2s.1 0 0 .1a.4.4 0 0 1-.1-.3 1.6 1.6 0 0 1-.2-.4h.2c0-.2-.2-.4-.1-.6h-.1s.1 0 0-.2v-.1c0-.1 0 0 0 0a1.2 1.2 0 0 1-.2-.7l-.2-.2v-.2s.3.4.1.3c.1 0-.2-.2 0-.1 0-.2-.2-.2-.1-.3h.1l-.1-.2c-.2 0 0-.2-.2 0v-.3h.2l-.2-.1c-.2 0 0-.2-.2-.2 0-.1-.1-.3 0-.4-.1 0-.2-.1-.2-.3v-.1-.3h-.2c.2-.1-.2-.2-.1-.4 0 0 .1.1.1 0s-.2 0-.2-.2c0 0-.3 0 0-.1-.2 0-.1-.2-.3-.1 0-.3-.3-.5-.2-.8h-.1c-.1 0 0 0 0 .1v-.1c0-.2-.3 0-.3-.2v-.1h-.2l.1-.2-.2-.1v-.2c0 .1 0 0-.1 0h-.1c-.1 0 0 0 0 .1h-.2v-.2h-.2s.2-.1 0-.1 0 .1-.1 0v-.2.1h-.3l-.1-.2a.2.2 0 0 0-.2 0 .2.2 0 0 0-.2 0c0-.2.2-.4 0-.4s-.2.1-.2.2c-.1-.2-.4-.1-.4-.3h-.1c-.3-.1-.6 0-.7-.3v-.2h-.1c-.1 0 0 .2 0 .2h-.5c0-.1 0-.2-.1-.1s0 .1-.2 0h-.3l-.4-.1a1 1 0 0 1-.4.3l-.5.1h-.1c-.1 0-.1 0 0-.2-.2 0-.2.2-.3.2h.1l-.2.1v-.1h.3c-.1-.1.1-.3 0-.4-.2-.1 0-.2-.1-.2v.3c-.2 0 0 .3-.1.3s0 0 0-.1l-.3.1c.1 0 .1.2 0 .2s0-.1 0 0c0 .3-.2 0-.2.3-.1-.1 0-.3-.2-.3v.3a.2.2 0 0 1 0-.2c-.1 0 0 .3-.2.1v.1h-.2s0 .2-.2 0c0 0-.1.2 0 .2s0 0 .2 0l-.1.2v.1h-.1c-.1.2-.2 0-.3 0v.2c0 .1 0 0 0 0v-.1h-.3c-.1 0 0 .2 0 .2-.1 0 0 0 0 .1h-.4v-.2c0-.1-.2 0-.2-.2v.2l.1.4c0 .2-.4-.2-.3.1 0 0 0 .2.1 0v.3c0-.1-.3 0-.3-.2h.1s0-.2-.2-.2 0 .2 0 .2h.1s-.2 0 0 .2h.1v.1c-.2 0 0 .1-.1.2h-.2c0-.1.2-.1 0-.2v.2a.2.2 0 0 1 0-.1s-.3-.2-.3 0 0 .1 0 .2l-.1.3c0-.1-.1.1-.2 0a.3.3 0 0 0 .3-.4c-.2 0 0 0 0-.2-.1.1-.3 0-.4 0l.2.2a.4.4 0 0 0-.2.3s-.1 0 0 0a2 2 0 0 1-.5.3c.2 0 0 .2 0 .2l.3.1c0 .1 0 0-.1 0s-.2 0-.1.1c0-.2-.2-.2-.2-.3 0 .2-.1 0-.2 0a1.6 1.6 0 0 1-.1.5c-.3 0-.3.3-.4.4s-.2 0-.3 0 .2 0 0 .1c0 0-.2.2-.1.4l-.1-.2v.1c0 .1-.1 0-.1 0l-.2.2h.2c0 .2-.2.2-.3.4v.1h-.2v-.3l.1.2c.1 0 .2-.2.1-.3V246.5s-.1 0 0 .1a.3.3 0 0 1 0-.2h.1c.1 0 0-.1 0-.2l.2-.4a.6.6 0 0 1 0 .3h.2c.1 0-.1-.3 0-.4v-.3l.5-.5c0-.2.3-.3.3-.5.2-.1.3-.4.5-.4a3.9 3.9 0 0 1 .8-1v.1c0-.1.1 0 .2 0-.2 0 0-.2 0-.3.2 0 .3-.3.4-.5 0-.2.4-.2.6-.3h.1l.2-.4a1.8 1.8 0 0 1 .5-.2 2 2 0 0 1 .6-.4l.8-.4v.1a1.4 1.4 0 0 1 .8-.3l.8-.1v.1l.3-.1h.8a1.7 1.7 0 0 0 .7 0h-.1v.2c.1 0 .4.2.3 0 .3.1.7 0 1 .3l.7.4s-.1 0 0 .1h.1c.4.2.6.6 1 .9a5.3 5.3 0 0 1 1.3 1.4c.3.1.2.5.4.5 0 .1.1.2 0 .2.2.1.2.5.4.6 0 .2.3.4.3.7h-.1c-.1 0 .2.1 0 .2h.2c.1.6.4 1.1.6 1.7 0 .4-.3 0-.1.4s-.2.2 0 .3v.5c.2.2.2.5.4.6a16 16 0 0 1 0 3.9 13.7 13.7 0 0 1-1 3.6c-.2.2-.2.3-.2.6h-.1v.3l-.6 1.3c0-.1 0-.2-.1-.1v.2a10.6 10.6 0 0 1-2.2 2.9 7 7 0 0 0-.8.7l-2.4 1.2a.8.8 0 0 1 .3-.6zM619.4 247h.2-.2zM621.5 245.3zM622 244.8v.2zM622.6 244.5v.1c0 .1 0 0 0 0zM622.5 244.4h.1z" fill="#cb3c2b"></path> <path d="M623.6 243.6h.1c.1 0 0 .1 0 0zM624 243.2zM633.1 245.1h-.1.1zM634.4 249.9zM634.6 252.6h.2-.2zM594.4 275.9s-.1 0 0 0zM594.9 285c-.3 0 0-.3-.2-.4 0 0 .1 0 0 0-.2 0 0-.2 0-.4h.1l-.1-.1h.1-.1.1-.1c-.3 0 0-.2-.2-.2h.1c-.2 0-.2-.2-.3-.3a.4.4 0 0 0 .2 0 .2.2 0 0 1-.2 0c.1 0-.1 0 0 0-.2 0 0-.1-.2 0h.1c-.2 0 .1-.1 0-.1h.1l-.2-.5c-.1 0 0 0 0 0 .1-.2-.1 0-.1 0v-.2l-.1-.1c-.1-.1.1 0 .1 0h-.2v-.2H594c.1 0 0-.1 0-.1h-.4.2-.3.1-.1l.1-.1c.1-.1 0 0 0 0h-.1c-.1 0 0 0 0 0h-.2.2a.5.5 0 0 1-.3-.2h.1s-.1 0 0-.1-.1-.2 0-.3h-.2.2c-.2 0 0 0 0 0s-.2 0 0 0-.1 0 0 0h.1-.1l-.2-.1.1-.1v-.1a1.6 1.6 0 0 0 .2 0 .8.8 0 0 0-.2 0c.2 0-.2-.1 0-.2h.1c.1 0-.1 0 0 0h-.2s-.1-.1 0-.1c0-.1-.1-.2.1-.2h-.1.2c.2 0-.3 0-.2-.1h.2a.1.1 0 0 0-.1 0h.1a.2.2 0 0 0-.2 0c-.1 0-.1 0 0 0v-.1-.1-.1c0-.1.3 0 .2 0h-.3l.1-.2s-.2-.1 0-.2h.1c.1 0 .1 0 0 0h-.1a.1.1 0 0 1-.1 0h.1l-.1-.2h.1a.2.2 0 0 0-.1 0 .4.4 0 0 1 .2 0c-.3-.1-.2-.3-.2-.3.1 0 0 0 0 0h.2l-.1-.1h-.1c-.1 0 0 0 0 0H593.8a1 1 0 0 0-.2 0l-.3-.2c0-.2 0 0 0 0a.3.3 0 0 1-.1 0h0l-.1-.1h.3-.3a.5.5 0 0 1 .2 0s-.2-.1 0-.1h-.1.1s-.1-.1 0 0l-.1-.1h-.1c.1 0 0 0 0 0v-.1c0-.1 0 0 0 0s.1 0 0 0h.2l-.3-.1s.1 0 0 0h.2a.3.3 0 0 0-.2 0h.2l-.2-.1h.4c.1.1 0 0 .2 0l-.4-.1h0l-.1-.1h.4-.1c-.1 0 .1 0 0-.1h-.2s-.1 0 0 0H593.6h-.1l-.1-.2h.2c-.1 0-.1 0 0 .1h.4-.2-.1a.2.2 0 0 1 .1 0 .1.1 0 0 1 0-.2h-.1a.5.5 0 0 1-.3 0h.1c.1 0 .2 0 0 0h.4a.5.5 0 0 1 0-.1v-.2h.1a.4.4 0 0 1 .2 0v-.1h-.1v-.1H594.1c-.2 0 0 0 0 0a.8.8 0 0 1 .2.2h0c-.1 0 .1.1 0 .1s.2.1 0 .1a1.1 1.1 0 0 1-.2 0h.2v.1a.4.4 0 0 0 0 .2v.5h-.2c.1 0 0 0 0 0l.2.1c-.2 0 0 .1 0 .2.1 0 0 0 0 .1s-.2 0-.2 0l.2.1a.2.2 0 0 1 0 .1c.1.2 0 .3 0 .4.2.1 0 .2 0 .3-.1 0 0 .1 0 .1s.1.1 0 .1h.1c.1 0 0 .2 0 .2h-.1.1v.4c0 .1 0 0 0 0v.7l.2.1h-.1s-.1.1 0 .2v.1c-.1 0 .1 0 0 .1s0 .3.2.4h-.2s-.2.1-.1.2h.1c.1 0-.2 0 0 0h-.1c.1 0 0 .2.3.2l.3.7a3.4 3.4 0 0 1 .2.8c-.2.1-.2.1 0 .2h-.1.1a1.3 1.3 0 0 0 .1.3h.1c.2.3 0 .6.1.9l.1.2c-.1.3-.3.5-.1.7a1.3 1.3 0 0 1-.6-1.7zM594.4 276a.5.5 0 0 1-.2 0zM593.6 276.4zM593.5 276.6a.1.1 0 0 1-.1-.1zM593.2 276.7zM593.4 276.7h-.1c-.1 0 0 0 0 0zM593.1 277s-.1 0 0 0zM593.2 277.2zM593.3 280.1zM593.4 281.4zM593.9 282h.1-.1z" fill="#cb3c2b"></path> <path d="M565.8 285.6a83.6 83.6 0 0 1 16.7 6.9l-.7 1.2L559 295l.2-4.3a5.3 5.3 0 0 1 6.5-5zM540.7 294.1l.3 2.2s-6.4.1-9.9 3.6a31.4 31.4 0 0 0 .1-4.8 13.8 13.8 0 0 1 3.6-3.6 3.8 3.8 0 0 1 6 2.6z" fill="#a45c1e"></path> </g> </svg> 