<?xml version="1.0" encoding="UTF-8"?> <!-- Generator: Adobe Illustrator 21.1.0, SVG Export Plug-In . SVG Version: 6.00 Build 0) --> <svg xmlns="http://www.w3.org/2000/svg" xmlns:xlink="http://www.w3.org/1999/xlink" id="Layer_1" x="0px" y="0px" viewBox="0 0 128 128" style="enable-background:new 0 0 128 128;" xml:space="preserve"> <style type="text/css"> .st0{fill:#FFFFFF;} .st1{fill:#444B54;} .st2{fill:#FFF0B3;} .st3{opacity:0.2;} .st4{fill:#FCCA3D;} .st5{fill:#FF5576;} .st6{fill:#ADF9D2;} .st7{fill:#3F4A54;} .st8{fill:#FF6144;} .st9{fill:#D3D8DD;} .st10{fill:#C0E7FF;} .st11{fill:none;stroke:#444B54;stroke-width:6;stroke-linecap:round;stroke-linejoin:round;stroke-miterlimit:10;} .st12{opacity:0.5;} .st13{fill:#F8DB59;} .st14{fill:#1AB792;} .st15{fill:#E9EEF4;} .st16{fill:#009F96;} .st17{fill:#FCE0E2;} .st18{fill:#3C71A6;} .st19{fill:#D32F56;} </style> <g> <g> <g> <g> <path class="st0" d="M86,9H32c-5.5,0-10,4.5-10,10v90c0,5.5,4.5,10,10,10h64c5.5,0,10-4.5,10-10V29C106,18,97,9,86,9z"></path> </g> </g> </g> <path class="st1" d="M106,39C105.9,39,105.9,39,106,39c-1.7,0-3,1.3-3,3l0,67c0,1.9-0.7,3.6-2,5s-3.1,2.1-5,2.1H30c-1.7,0-5-3-5-7 V19c0-3.9,3.1-7,7-7h51v7c0,7.2,5.8,13,13,13h9.6c0.1,0,0.2,0,0.4,0c0,0,0,0,0,0c1.2,0,2.3-0.8,2.8-1.8c0.2-0.4,0.3-0.8,0.3-1.2 c0-0.1,0-0.3,0-0.4c-0.1-6-2.5-11.6-6.7-15.9C97.9,8.4,92.2,6,86,6c0,0,0,0,0,0c0,0,0,0,0,0c0,0,0,0,0,0H32c-7.2,0-13,5.8-13,13v90 c0,7.3,5.9,13,11,13h66c3.5,0,6.7-1.4,9.2-3.8s3.8-5.7,3.8-9.2l0-67C108.9,40.3,107.6,39,106,39z M102.7,26H96c-3.9,0-7-3.1-7-7 v-6.7c3.4,0.6,6.5,2.2,9,4.7C100.5,19.5,102.1,22.6,102.7,26z"></path> <g> <g> <g> <path class="st9" d="M86,62H42c-1.7,0-3-1.3-3-3s1.3-3,3-3h44c1.7,0,3,1.3,3,3S87.7,62,86,62z"></path> </g> </g> </g> <g> <g> <g> <path class="st9" d="M76,32H52c-1.7,0-3-1.3-3-3s1.3-3,3-3h24c1.7,0,3,1.3,3,3S77.7,32,76,32z"></path> </g> </g> </g> <g> <g> <g> <path class="st9" d="M71,77H42c-1.7,0-3-1.3-3-3s1.3-3,3-3h29c1.7,0,3,1.3,3,3S72.7,77,71,77z"></path> </g> </g> </g> <g> <g> <g> <path class="st5" d="M84,110c-3.3,0-6.7-1.3-9.2-3.8c-2.5-2.5-3.8-5.7-3.8-9.2s1.4-6.7,3.8-9.2c5.1-5.1,13.3-5.1,18.4,0 c1.2,1.2,1.2,3.1,0,4.2c-1.2,1.2-3.1,1.2-4.2,0c-2.7-2.7-7.2-2.7-9.9,0c-1.3,1.3-2,3.1-2,4.9s0.7,3.6,2,5c2.7,2.7,7.2,2.7,9.9,0 c1.2-1.2,3.1-1.2,4.2,0c1.2,1.2,1.2,3.1,0,4.2C90.7,108.7,87.3,110,84,110z"></path> </g> </g> </g> <g> <g> <g> <circle class="st9" cx="86" cy="74" r="3"></circle> </g> </g> </g> </g> </svg> 