<?xml version="1.0" encoding="UTF-8"?> <svg xmlns="http://www.w3.org/2000/svg" width="26" height="24" viewBox="0 0 26 24" fill="none"> <path fill-rule="evenodd" clip-rule="evenodd" d="M13.0691 2C10.1714 2 9.80856 2.01251 8.67059 2.06003C7.53661 2.10881 6.76018 2.27766 6.08246 2.5253C5.37036 2.7762 4.72523 3.16974 4.19206 3.67844C3.64896 4.17817 3.22873 4.78299 2.96071 5.45069C2.69656 6.0873 2.51645 6.81396 2.46442 7.8783C2.41373 8.94515 2.40039 9.2866 2.40039 12.0031C2.40039 14.7197 2.41373 15.0598 2.46442 16.1267C2.51645 17.191 2.69656 17.9177 2.96071 18.5543C3.23286 19.2122 3.5984 19.77 4.19073 20.3266C4.7844 20.8819 5.37806 21.2246 6.08113 21.4797C6.76018 21.7273 7.53528 21.8962 8.67059 21.945C9.80856 21.9937 10.1714 22.005 13.0691 22.005C15.9667 22.005 16.3308 21.9925 17.4689 21.945C18.6041 21.8962 19.3793 21.7273 20.0583 21.4797C20.7704 21.2288 21.4155 20.8353 21.9488 20.3266C22.4914 19.8267 22.9111 19.2219 23.1787 18.5543C23.4428 17.9177 23.623 17.191 23.6751 16.1267C23.727 15.0598 23.7391 14.7197 23.7391 12.0031C23.7391 9.2866 23.7257 8.94515 23.6751 7.8783C23.623 6.81396 23.4428 6.0873 23.1787 5.45069C22.9111 4.7831 22.4914 4.17829 21.9488 3.67844C21.4155 3.16974 20.7704 2.7762 20.0583 2.5253C19.3793 2.27766 18.6041 2.10881 17.4689 2.06003C16.3308 2.01126 15.9667 2 13.0691 2ZM11.687 15.1013C12.1265 15.2649 12.5963 15.3448 13.0691 15.3362C14.0003 15.3193 14.8872 14.9607 15.5394 14.3373C16.1915 13.7139 16.5569 12.8756 16.5569 12.0025C16.5569 11.1293 16.1915 10.291 15.5394 9.66767C14.8872 9.04431 14.0003 8.68565 13.0691 8.66874C12.5963 8.66015 12.1265 8.74004 11.687 8.90372C11.2475 9.0674 10.8473 9.31159 10.5097 9.62201C10.1721 9.93242 9.90396 10.3028 9.72089 10.7116C9.53782 11.1203 9.44353 11.5592 9.44353 12.0025C9.44353 12.4458 9.53782 12.8847 9.72089 13.2934C9.90396 13.7021 10.1721 14.0725 10.5097 14.383C10.8473 14.6934 11.2475 14.9376 11.687 15.1013ZM10.9462 7.23417C11.6208 6.98083 12.3425 6.85584 13.0691 6.86647C14.5073 6.88751 15.8789 7.43788 16.888 8.39878C17.897 9.35968 18.4627 10.654 18.4627 12.0025C18.4627 13.3509 17.897 14.6453 16.888 15.6062C15.8789 16.5671 14.5073 17.1175 13.0691 17.1385C12.3425 17.1491 11.6208 17.0241 10.9462 16.7708C10.2716 16.5175 9.65749 16.1408 9.13963 15.6629C8.62177 15.1849 8.2105 14.6151 7.92979 13.9867C7.64906 13.3583 7.5045 12.6838 7.5045 12.0025C7.5045 11.3212 7.64906 10.6467 7.92979 10.0183C8.2105 9.38987 8.62177 8.82008 9.13963 8.34211C9.65749 7.86413 10.2716 7.48751 10.9462 7.23417ZM19.6698 7.51161C19.91 7.28644 20.045 6.98105 20.045 6.66261C20.045 6.34417 19.91 6.03877 19.6698 5.8136C19.4297 5.58843 19.104 5.46193 18.7642 5.46193C18.4246 5.46193 18.0988 5.58843 17.8586 5.8136C17.6185 6.03877 17.4836 6.34417 17.4836 6.66261C17.4836 6.98105 17.6185 7.28644 17.8586 7.51161C18.0988 7.73678 18.4246 7.86328 18.7642 7.86328C19.104 7.86328 19.4297 7.73678 19.6698 7.51161Z" fill="#5C5C5C"></path> </svg> 