<?xml version="1.0" encoding="UTF-8"?> <svg xmlns="http://www.w3.org/2000/svg" width="360" height="240" viewBox="0 0 360 240" fill="none"> <g clip-path="url(#clip0)"> <path d="M360 0H0V240H360V0Z" fill="#C8EBFF"></path> <path d="M164.083 104.137H292.436L260.51 245.974H135.895L164.083 104.137Z" fill="#46AED3"></path> <path d="M155.555 97.3125L138.008 219.41L120.461 214.13C120.461 214.13 129.722 198.533 131.347 172.05C132.646 151.172 127.528 122.902 132.971 104.787C138.414 86.6706 155.555 97.3125 155.555 97.3125Z" fill="#75CFF0"></path> <path d="M164.086 104.136L131.592 267.338L73.4269 264.658L66.7656 201.944L133.379 214.129C133.379 214.129 142.64 198.532 144.265 172.049C145.564 151.171 140.447 122.901 145.889 104.786C151.251 86.6702 164.086 104.136 164.086 104.136Z" fill="#2C91B6"></path> <path d="M49.5391 213.642C49.5391 206.655 55.2256 200.969 62.2119 200.969C66.1924 200.969 69.6855 202.756 72.0414 205.68C73.7473 207.468 75.2096 209.824 76.2656 212.992C79.6775 223.471 82.1146 248.004 82.1146 248.004L65.9487 250.929L61.8057 226.396C54.9819 226.152 49.5391 220.547 49.5391 213.642Z" fill="#75CFF0"></path> <path d="M284.637 97.3125L267.09 219.41L249.543 214.13C249.543 214.13 258.804 198.533 260.429 172.05C261.728 151.172 256.61 122.902 262.053 104.787C267.496 86.6706 284.637 97.3125 284.637 97.3125Z" fill="#75CFF0"></path> <path d="M171.478 107.144C171.478 107.144 156.53 109.581 151.25 128.752L154.093 190.979L259.619 213.4C265.874 216.649 270.667 162.14 263.355 130.458C257.831 106.25 231.267 103.082 231.267 103.082L171.478 107.144Z" fill="#0B0C28"></path> <path d="M232.485 103.488C220.299 98.4514 190.648 97.8828 190.648 97.8828C187.155 100.076 177.244 105.925 171.477 107.144C177.488 132.57 219.406 136.795 232.485 103.488Z" fill="#F8CEB7"></path> <path d="M197.391 115.511C193.411 115.511 189.918 114.698 186.993 113.155C182.769 110.962 179.926 106.981 179.52 102.919L181.388 102.757C181.713 106.25 184.231 109.581 187.887 111.53C191.055 113.236 194.954 113.886 199.504 113.561C204.215 113.236 208.521 111.855 212.014 109.662C215.832 107.225 218.594 103.65 219.731 99.832L221.518 100.401C220.219 104.706 217.213 108.606 212.989 111.287C209.252 113.642 204.621 115.105 199.585 115.43C198.935 115.511 198.123 115.511 197.391 115.511Z" fill="white"></path> <path d="M183.907 114.292C184.939 114.292 185.776 113.456 185.776 112.424C185.776 111.392 184.939 110.555 183.907 110.555C182.876 110.555 182.039 111.392 182.039 112.424C182.039 113.456 182.876 114.292 183.907 114.292Z" fill="white"></path> <path d="M192.598 119.247C194.123 119.247 195.36 118.01 195.36 116.485C195.36 114.959 194.123 113.723 192.598 113.723C191.073 113.723 189.836 114.959 189.836 116.485C189.836 118.01 191.073 119.247 192.598 119.247Z" fill="white"></path> <path d="M206.001 118.272C207.257 118.272 208.276 117.253 208.276 115.997C208.276 114.741 207.257 113.723 206.001 113.723C204.745 113.723 203.727 114.741 203.727 115.997C203.727 117.253 204.745 118.272 206.001 118.272Z" fill="white"></path> <path d="M215.265 112.342C216.207 112.342 216.971 111.578 216.971 110.636C216.971 109.693 216.207 108.93 215.265 108.93C214.322 108.93 213.559 109.693 213.559 110.636C213.559 111.578 214.322 112.342 215.265 112.342Z" fill="white"></path> <path d="M200.234 185.777C200.234 185.777 183.824 173.754 171.477 185.777V190.163L200.234 202.024V185.777Z" fill="#F8CEB7"></path> <path d="M231.266 190.491C231.266 190.491 241.908 183.343 254.662 191.547C267.091 199.509 259.617 216.731 259.617 216.731L231.266 190.491Z" fill="#303466"></path> <path d="M195.277 198.531L200.233 185.777C212.418 190.732 267.74 185.777 258.641 216.565C247.756 237.361 195.277 198.531 195.277 198.531Z" fill="#F8CEB7"></path> <path d="M102.02 187.648L134.514 195.447L206.082 197.315L171.314 186.023L102.02 187.648Z" fill="#45A2A3"></path> <path d="M85.2844 128.263L102.1 187.646L179.112 189.108L162.377 125.176L87.3153 125.42C85.8531 125.42 84.797 126.882 85.2844 128.263Z" fill="#57CBCC"></path> <path d="M129.072 162.628C132.078 162.628 134.515 160.191 134.515 157.185C134.515 154.179 132.078 151.742 129.072 151.742C126.066 151.742 123.629 154.179 123.629 157.185C123.629 160.191 126.066 162.628 129.072 162.628Z" fill="white"></path> <path d="M206.567 197.395C206.405 197.395 206.243 197.395 206.161 197.314L177.566 190.653L161.075 127.451C160.832 126.477 161.4 125.421 162.456 125.177C163.431 124.933 164.487 125.502 164.731 126.558L180.653 187.566L207.055 193.74C208.03 193.984 208.68 194.958 208.436 196.014C208.192 196.746 207.38 197.395 206.567 197.395Z" fill="#45A2A3"></path> <path d="M168.226 63.6805C175.131 42.5592 196.659 31.8361 196.659 31.8361C227.122 17.2137 249.462 74.4849 215.099 95.6874C215.099 95.6874 216.805 94.1439 217.049 90.1634C217.049 90.1634 211.2 98.3682 200.233 93.7377L179.112 88.7011C179.112 88.7011 170.338 86.9952 169.851 79.5215C169.851 79.5215 167.901 82.3647 168.876 85.3705C168.876 85.3705 162.783 80.4151 168.226 63.6805Z" fill="#1D1D1B"></path> <path d="M190.566 89.0252L191.704 101.617C198.934 104.785 206.57 101.86 212.906 96.9051L211.769 86.0195L190.566 89.0252Z" fill="#E7BAA9"></path> <path d="M191.703 101.618L191.947 103.811C198.202 105.679 204.863 106.329 213.474 101.374L212.987 96.9062C206.569 101.861 198.933 104.786 191.703 101.618Z" fill="#F8CEB7"></path> <path d="M219.974 62.5429C215.913 60.7557 211.932 66.4422 211.932 66.4422L211.77 79.5212C211.77 79.5212 215.588 80.496 219.974 76.6779C225.661 71.8038 224.036 64.3301 219.974 62.5429Z" fill="#E7BAA9"></path> <path d="M191.538 38.7415C165.706 40.9349 172.204 57.3445 173.26 73.4292C174.804 96.1752 187.477 98.2873 187.477 98.2873C187.477 98.2873 190.482 101.861 196.819 101.374C203.155 100.886 205.592 96.7439 205.592 96.7439C205.592 96.7439 219.321 92.7633 215.341 69.9361C212.579 54.0139 217.371 36.6294 191.538 38.7415Z" fill="#F8CEB7"></path> <path d="M189.105 89.0288C189.105 89.0288 191.055 93.1718 196.011 92.8468C201.372 92.5219 202.753 87.5665 202.753 87.5665C202.753 87.5665 199.991 86.1855 195.767 86.5104C191.461 86.8354 189.105 89.0288 189.105 89.0288Z" fill="#E59289"></path> <path d="M187.316 87.7255C187.316 87.7255 189.835 90.8937 196.334 90.325C202.101 89.7564 204.457 86.0195 204.457 86.0195C195.684 92.9246 187.316 87.7255 187.316 87.7255Z" fill="#C1736B"></path> <path d="M202.589 58.5647C201.127 59.4583 201.208 60.9205 201.208 60.9205C203.889 57.7523 208.925 59.5395 208.925 59.5395C208.925 59.5395 205.757 56.615 202.589 58.5647Z" fill="#1D1D1B"></path> <path d="M184.558 60.0258C181.064 58.726 178.465 62.1379 178.465 62.1379C178.465 62.1379 183.177 59.4572 186.345 62.1379C186.345 62.1379 186.101 60.6757 184.558 60.0258Z" fill="#1D1D1B"></path> <path d="M195.195 72.1289C195.195 72.1289 192.921 76.1907 193.489 79.034C193.977 80.9836 196.901 81.2273 196.901 81.2273C196.901 81.2273 192.677 82.4459 192.027 79.1152C191.215 75.6221 195.195 72.1289 195.195 72.1289Z" fill="#D3A594"></path> <path d="M178.3 66.1199C178.3 66.2011 178.218 66.2011 178.218 66.2823C176.837 67.1759 175.863 66.5261 175.863 66.5261C175.863 66.5261 175.7 67.9883 177.65 68.1508C177.65 69.3693 178.3 70.7503 179.681 71.4002L186.992 66.851C185.855 64.9013 180.899 63.1954 178.3 66.1199Z" fill="#2A2A2C"></path> <path d="M182.93 65.1445C179.518 65.1445 177.162 67.7441 179.03 70.831C179.03 70.831 179.843 72.3745 182.767 72.9432C185.773 73.5118 188.535 71.9683 188.535 71.9683C188.454 66.9317 185.692 65.1445 182.93 65.1445Z" fill="white"></path> <path d="M182.115 67.4172C182.278 67.5797 182.521 67.8234 182.603 68.1484C182.846 68.9607 182.359 69.8543 181.547 70.098C180.978 70.2605 180.409 70.098 180.084 69.7731C180.003 70.1793 180.084 70.5854 180.166 70.9104C180.653 72.4539 182.278 73.2662 183.902 72.7788C185.527 72.2914 186.421 70.7479 185.933 69.2044C185.365 67.8234 183.74 67.0111 182.115 67.4172Z" fill="#1D1D1B"></path> <path d="M209.656 63.6003L209.574 63.519C206.487 61.0007 201.938 63.6003 201.207 65.6312L209.168 68.8806C210.387 67.987 210.793 66.5248 210.63 65.3062C212.499 64.8188 212.093 63.3566 212.093 63.3566C212.093 63.3566 211.118 64.2502 209.656 63.6003Z" fill="#2A2A2C"></path> <path d="M204.702 63.2771C202.021 63.7646 199.584 65.9579 200.315 70.9133C200.315 70.9133 203.24 71.9694 206.164 70.9133C208.926 69.8572 209.495 68.2325 209.495 68.2325C210.876 64.9019 208.114 62.7085 204.702 63.2771Z" fill="white"></path> <path d="M203.154 65.6321C203.317 65.7946 203.561 66.0383 203.642 66.3632C203.885 67.1756 203.398 68.0692 202.586 68.3129C202.017 68.4753 201.448 68.3129 201.123 67.9879C201.042 68.3941 201.123 68.8003 201.205 69.1252C201.692 70.6687 203.317 71.4811 204.942 70.9936C206.566 70.5062 207.46 68.9627 206.972 67.4193C206.404 66.0383 204.779 65.2259 203.154 65.6321Z" fill="#1D1D1B"></path> <path d="M170.95 38.2557C165.344 43.4548 162.989 50.1162 163.963 58.0773C164.938 66.1196 163.72 71.075 160.227 73.0246C164.288 76.7615 168.431 76.7615 172.737 73.1059C176.23 70.1001 178.911 66.2821 180.861 61.5704C182.81 56.8587 185.572 53.0406 189.147 50.0349C192.802 47.1104 196.214 45.8919 199.545 46.5418C200.195 51.091 207.1 60.9205 214.898 63.3576C213.68 62.8702 215.142 50.1162 214.492 48.4102C213.842 46.2168 213.274 44.5921 212.949 43.4548C211.568 38.9869 208.724 36.631 204.581 36.3873C201.251 32.6505 196.133 30.9445 189.228 31.2695C182.404 31.5944 176.23 33.9502 170.95 38.2557Z" fill="#1D1D1B"></path> <path d="M216.969 81.5515C218.27 81.5515 219.325 80.4968 219.325 79.1957C219.325 77.8946 218.27 76.8398 216.969 76.8398C215.668 76.8398 214.613 77.8946 214.613 79.1957C214.613 80.4968 215.668 81.5515 216.969 81.5515Z" fill="white"></path> <path d="M167.415 56.8557C167.415 65.7104 164.572 70.0159 162.216 71.3969C161.647 72.0468 161.079 72.6155 160.348 73.0216C160.591 73.2654 160.835 73.4278 161.079 73.6715C161.972 73.4278 163.597 72.6967 165.222 71.1532C167.334 69.1223 170.665 65.1418 170.665 57.7493C170.665 44.6704 186.099 32.8912 196.741 32.1601V31.9164C195.36 31.5914 193.817 31.4289 192.273 31.3477C181.388 34.2722 167.415 44.2642 167.415 56.8557Z" fill="#404140"></path> <path d="M65.1406 289.678C65.1406 289.678 89.3489 207.143 106.246 194.957C119.731 185.209 179.521 186.265 230.537 215.429L219.245 250.848C174.565 255.234 124.768 225.908 124.768 225.908C120.219 250.848 105.434 263.683 88.374 297.233L65.1406 289.678Z" fill="#3A2E88"></path> <path d="M292.435 104.137L254.416 324.042H209.168L226.39 201.863L261.646 214.049C261.646 214.049 270.907 198.451 272.532 171.969C273.832 151.091 268.714 122.821 274.157 104.705C279.599 86.5899 292.435 104.137 292.435 104.137Z" fill="#2C91B6"></path> <path d="M235.895 213.642C235.895 206.655 230.209 200.969 223.223 200.969C219.242 200.969 215.749 202.756 213.393 205.68C211.687 207.468 210.225 209.824 209.169 212.992C205.757 223.471 200.477 254.828 200.477 254.828L215.586 274.081L223.547 226.314C230.452 226.152 235.895 220.547 235.895 213.642Z" fill="#75CFF0"></path> <path d="M199.906 250.522C181.791 248.491 142.797 225.663 135.974 221.195C131.668 221.358 127.444 223.876 122.57 227.938C107.054 240.692 103.804 317.46 101.367 330.864L125.494 332.488C134.186 295.039 144.26 274.08 152.383 252.309C152.627 251.821 152.789 251.334 153.033 250.847H199.906C199.906 250.765 199.906 250.684 199.906 250.522Z" fill="#322873"></path> <g opacity="0.35"> <path opacity="0.35" d="M187.967 68.396C185.693 68.0711 182.687 68.0711 179.844 68.396C178.381 68.5585 177 68.721 175.863 68.9647C175.132 69.1271 174.563 69.8583 174.644 70.6706C174.888 73.0264 175.701 80.1752 182.362 80.2564C182.768 80.2564 183.174 80.2564 183.58 80.1752C187.723 79.769 190.242 77.007 190.892 72.0516C190.973 71.2393 190.81 70.3457 190.242 69.6958C189.673 68.9647 188.861 68.4772 187.967 68.396Z" fill="white"></path> <path opacity="0.35" d="M210.144 65.6328C208.926 65.6328 207.626 65.6328 206.082 65.7953C203.239 66.039 200.315 66.6076 198.121 67.3387C197.309 67.5825 196.578 68.2323 196.172 69.0447C195.765 69.857 195.684 70.6694 196.009 71.4818C197.634 76.1934 200.64 78.468 204.783 78.0619C205.189 78.0619 205.514 77.9806 205.92 77.8994C212.419 76.5184 211.85 69.3696 211.606 67.0138C211.525 66.2827 210.956 65.714 210.144 65.6328Z" fill="white"></path> </g> <path d="M195.197 67.0917C194.709 67.2542 193.085 67.4167 193.085 67.4167C193.085 67.4167 191.46 67.5791 190.973 67.4979C184.717 66.3606 178.787 66.3606 172.613 68.3103L172.776 70.3411C172.776 70.3411 173.507 70.8286 173.669 71.8846C173.832 72.9407 175.132 81.308 182.605 81.0643C189.592 80.8206 190.891 77.6524 191.866 70.8286C191.947 70.0974 193.328 70.0974 193.328 70.0974C193.328 70.0974 194.628 69.8537 194.872 70.5849C197.146 77.165 199.015 80.0082 205.92 78.8709C213.312 77.6524 213.069 69.2038 212.987 68.229C212.906 67.1729 213.556 66.5231 213.556 66.5231L213.394 64.4922C206.976 63.6798 201.208 64.8171 195.197 67.0917ZM190.323 71.9659C189.754 76.0276 187.723 79.602 182.443 79.5208C176.756 79.4396 175.781 73.9968 175.375 70.5849C175.294 70.1787 175.619 69.7725 176.025 69.61C179.437 68.8789 184.392 68.6352 187.967 69.0414C189.429 69.2038 190.485 70.5036 190.323 71.9659ZM205.92 77.2462C200.802 78.3022 198.121 75.2153 196.74 71.316C196.253 69.935 197.065 68.4727 198.446 67.9853C201.777 66.848 206.732 66.1981 210.225 66.2794C210.713 66.2794 211.038 66.6043 211.119 67.0917C211.363 70.5036 211.444 76.1089 205.92 77.2462Z" fill="#2A3A63"></path> <path d="M211.934 65.1426L214.777 62.543L214.858 64.8989L213.396 66.686L211.934 65.1426Z" fill="#2A3A63"></path> </g> <defs> <clipPath id="clip0"> <rect width="360" height="240" fill="white"></rect> </clipPath> </defs> </svg> 