<?xml version="1.0" encoding="UTF-8"?> <svg xmlns="http://www.w3.org/2000/svg" width="24" height="24" viewBox="0 0 24 24" fill="none"> <path fill-rule="evenodd" clip-rule="evenodd" d="M15.0699 2H8.93013C3.32675 2 2 3.32675 2 8.93013V15.0699C2 20.6733 3.32675 22 8.93013 22H15.0699C20.6733 22 22 20.6733 22 15.0699V8.93013C22 3.32675 20.6733 2 15.0699 2ZM18 8.36875C18.4397 8.36875 18.539 8.5957 18.4397 8.90776C18.2848 9.62293 16.9979 11.52 16.5994 12.1076C16.5237 12.2193 16.48 12.2836 16.4823 12.2836C16.3262 12.539 16.2695 12.6524 16.4823 12.9361C16.5592 13.041 16.7223 13.2011 16.9087 13.384C17.1004 13.5721 17.3167 13.7844 17.4894 13.9858C18.1135 14.695 18.5957 15.2907 18.7234 15.7021C18.8369 16.1134 18.6383 16.3262 18.2128 16.3262H16.7518C16.3646 16.3262 16.165 16.1039 15.7397 15.63C15.5573 15.4268 15.3334 15.1774 15.0355 14.8794C14.1702 14.0425 13.7872 13.929 13.5745 13.929C13.2766 13.929 13.1915 14 13.1915 14.4255V15.7446C13.1915 16.0992 13.078 16.312 12.1418 16.312C10.5957 16.312 8.87943 15.3758 7.67375 13.6312C5.85815 11.078 5.36169 9.14889 5.36169 8.76592C5.36169 8.55315 5.43262 8.35457 5.85815 8.35457H7.33333C7.70212 8.35457 7.84396 8.5106 7.98581 8.92194C8.70921 11.0071 9.91489 12.8368 10.4113 12.8368C10.5957 12.8368 10.6808 12.7517 10.6808 12.2836V10.1276C10.6458 9.51479 10.4325 9.24778 10.2743 9.04979C10.1762 8.92699 10.0993 8.83074 10.0993 8.69499C10.0993 8.52478 10.2411 8.35457 10.4681 8.35457H12.7659C13.078 8.35457 13.1915 8.52478 13.1915 8.89358V11.8014C13.1915 12.1134 13.3191 12.2269 13.4184 12.2269C13.6028 12.2269 13.7589 12.1134 14.0993 11.773C15.1489 10.5957 15.9007 8.7801 15.9007 8.7801C16 8.56733 16.1702 8.36875 16.539 8.36875H18Z" fill="white"></path> </svg> 