<?xml version="1.0" encoding="UTF-8"?> <svg xmlns="http://www.w3.org/2000/svg" width="352" height="59" viewBox="0 0 352 59" fill="none"> <path d="M0.759766 50H21.8398C26.5091 50 30.1131 48.6967 32.6518 46.09C35.2131 43.4834 36.4938 40.0267 36.4938 35.72C36.4938 33.1134 35.8478 30.79 34.5558 28.75C33.2638 26.71 31.4051 25.1687 28.9798 24.126C30.5891 23.1967 31.8584 21.8707 32.7878 20.148C33.7171 18.4254 34.1818 16.442 34.1818 14.198C34.1818 11.9767 33.6491 9.86869 32.5838 7.87402C31.5184 5.85668 29.9318 4.21335 27.8238 2.94402C25.7384 1.67469 23.1318 1.04002 20.0038 1.04002H0.759766V50ZM7.96777 21.032V7.73802H19.9018C22.0324 7.73802 23.7324 8.35002 25.0018 9.57402C26.2711 10.798 26.9058 12.362 26.9058 14.266C26.9058 16.3967 26.2258 18.0627 24.8658 19.264C23.5284 20.4427 21.8738 21.032 19.9018 21.032H7.96777ZM7.96777 43.234V27.73H21.1938C23.6418 27.73 25.5911 28.4894 27.0418 30.008C28.4924 31.504 29.2178 33.3627 29.2178 35.584C29.2178 37.964 28.4131 39.834 26.8038 41.194C25.1944 42.554 23.1771 43.234 20.7518 43.234H7.96777Z" fill="url(#paint0_linear_154_1657)"></path> <path d="M81.7818 50H74.5738V13.586L50.4678 50H43.2598V1.04002H50.4678V37.42L74.5738 1.04002H81.7818V50Z" fill="url(#paint1_linear_154_1657)"></path> <path d="M88.7895 58.16H95.8955V50H127.481V58.16H134.621V43.302H130.983V1.04002L99.6355 1.00602C99.4315 4.45135 99.2388 7.63602 99.0575 10.56C98.8988 13.484 98.7175 16.306 98.5135 19.026C98.3321 21.746 98.1055 24.5454 97.8335 27.424C97.5615 30.2347 97.1535 32.8527 96.6095 35.278C96.0655 37.6807 95.1815 39.6187 93.9575 41.092C92.7561 42.5654 91.0335 43.302 88.7895 43.302V58.16ZM100.451 43.302C101.449 42.214 102.208 41.0354 102.729 39.766C103.251 38.4967 103.659 37.0007 103.953 35.278C104.248 33.5327 104.509 31.4134 104.735 28.92C105.007 26.2907 105.211 23.8427 105.347 21.576C105.506 19.3094 105.642 17.054 105.755 14.81C105.891 12.566 106.039 10.1974 106.197 7.70402L123.877 7.73802V43.302H100.451Z" fill="url(#paint2_linear_154_1657)"></path> <path d="M142.072 50H173.352V43.302H149.178V28.172H169.272V21.474H149.178V7.73802H173.352V1.04002H142.072V50Z" fill="url(#paint3_linear_154_1657)"></path> <path d="M199.893 51.02C204.789 51.02 208.96 49.9434 212.405 47.79C215.85 45.6367 218.48 42.656 220.293 38.848C222.106 35.0174 223.013 30.5747 223.013 25.52C223.013 20.4654 222.106 16.034 220.293 12.226C218.48 8.39535 215.85 5.40335 212.405 3.25002C208.96 1.09669 204.789 0.0200195 199.893 0.0200195C194.997 0.0200195 190.826 1.09669 187.381 3.25002C183.936 5.40335 181.295 8.39535 179.459 12.226C177.646 16.034 176.739 20.4654 176.739 25.52C176.739 30.5747 177.646 35.0174 179.459 38.848C181.295 42.656 183.936 45.6367 187.381 47.79C190.826 49.9434 194.997 51.02 199.893 51.02ZM199.893 44.254C194.702 44.2087 190.792 42.4747 188.163 39.052C185.556 35.6294 184.264 31.1187 184.287 25.52C184.31 21.78 184.888 18.5047 186.021 15.694C187.177 12.8607 188.911 10.662 191.223 9.09802C193.535 7.51135 196.425 6.74069 199.893 6.78602C205.106 6.80868 209.005 8.53135 211.589 11.954C214.173 15.3767 215.465 19.8987 215.465 25.52C215.465 29.26 214.887 32.5467 213.731 35.38C212.598 38.1907 210.875 40.378 208.563 41.942C206.251 43.506 203.361 44.2767 199.893 44.254Z" fill="url(#paint4_linear_154_1657)"></path> <path d="M258.423 50H265.597V1.04002H258.423V23.582C257.38 24.4207 255.975 25.1687 254.207 25.826C252.462 26.4607 250.433 26.778 248.121 26.778C244.948 26.778 242.556 26.1207 240.947 24.806C239.36 23.4914 238.306 21.7574 237.785 19.604C237.264 17.4507 237.003 15.116 237.003 12.6V1.04002H229.795V14.878C229.795 18.5274 230.339 21.7574 231.427 24.568C232.538 27.3787 234.328 29.5887 236.799 31.198C239.292 32.7847 242.624 33.578 246.795 33.578C251.51 33.578 255.386 32.6827 258.423 30.892V50Z" fill="url(#paint5_linear_154_1657)"></path> <path d="M271.684 50H279.062L282.632 38.95H302.726L306.364 50H313.742L297.83 1.04002H287.596L271.684 50ZM284.808 32.286L292.628 8.14602L300.55 32.286H284.808Z" fill="url(#paint6_linear_154_1657)"></path> <path d="M327.997 50H335.103V7.73802H351.389V1.04002H311.711V7.73802H327.997V50Z" fill="url(#paint7_linear_154_1657)"></path> <defs> <linearGradient id="paint0_linear_154_1657" x1="-4.00001" y1="-5.10103" x2="516.404" y2="400.598" gradientUnits="userSpaceOnUse"> <stop stop-color="#F2AE66"></stop> <stop offset="0.114381" stop-color="#869272"></stop> <stop offset="0.204735" stop-color="#8951B9"></stop> <stop offset="0.295273" stop-color="#7061B4"></stop> <stop offset="0.473958" stop-color="#7061B4"></stop> <stop offset="0.739583" stop-color="#DD8A37"></stop> <stop offset="0.932292" stop-color="#EA4664"></stop> </linearGradient> <linearGradient id="paint1_linear_154_1657" x1="-4.00001" y1="-5.10103" x2="516.404" y2="400.598" gradientUnits="userSpaceOnUse"> <stop stop-color="#F2AE66"></stop> <stop offset="0.114381" stop-color="#869272"></stop> <stop offset="0.204735" stop-color="#8951B9"></stop> <stop offset="0.295273" stop-color="#7061B4"></stop> <stop offset="0.473958" stop-color="#7061B4"></stop> <stop offset="0.739583" stop-color="#DD8A37"></stop> <stop offset="0.932292" stop-color="#EA4664"></stop> </linearGradient> <linearGradient id="paint2_linear_154_1657" x1="-4.00001" y1="-5.10103" x2="516.404" y2="400.598" gradientUnits="userSpaceOnUse"> <stop stop-color="#F2AE66"></stop> <stop offset="0.114381" stop-color="#869272"></stop> <stop offset="0.204735" stop-color="#8951B9"></stop> <stop offset="0.295273" stop-color="#7061B4"></stop> <stop offset="0.473958" stop-color="#7061B4"></stop> <stop offset="0.739583" stop-color="#DD8A37"></stop> <stop offset="0.932292" stop-color="#EA4664"></stop> </linearGradient> <linearGradient id="paint3_linear_154_1657" x1="-4.00001" y1="-5.10103" x2="516.404" y2="400.598" gradientUnits="userSpaceOnUse"> <stop stop-color="#F2AE66"></stop> <stop offset="0.114381" stop-color="#869272"></stop> <stop offset="0.204735" stop-color="#8951B9"></stop> <stop offset="0.295273" stop-color="#7061B4"></stop> <stop offset="0.473958" stop-color="#7061B4"></stop> <stop offset="0.739583" stop-color="#DD8A37"></stop> <stop offset="0.932292" stop-color="#EA4664"></stop> </linearGradient> <linearGradient id="paint4_linear_154_1657" x1="-4.00001" y1="-5.10103" x2="516.404" y2="400.598" gradientUnits="userSpaceOnUse"> <stop stop-color="#F2AE66"></stop> <stop offset="0.114381" stop-color="#869272"></stop> <stop offset="0.204735" stop-color="#8951B9"></stop> <stop offset="0.295273" stop-color="#7061B4"></stop> <stop offset="0.473958" stop-color="#7061B4"></stop> <stop offset="0.739583" stop-color="#DD8A37"></stop> <stop offset="0.932292" stop-color="#EA4664"></stop> </linearGradient> <linearGradient id="paint5_linear_154_1657" x1="-4.00001" y1="-5.10103" x2="516.404" y2="400.598" gradientUnits="userSpaceOnUse"> <stop stop-color="#F2AE66"></stop> <stop offset="0.114381" stop-color="#869272"></stop> <stop offset="0.204735" stop-color="#8951B9"></stop> <stop offset="0.295273" stop-color="#7061B4"></stop> <stop offset="0.473958" stop-color="#7061B4"></stop> <stop offset="0.739583" stop-color="#DD8A37"></stop> <stop offset="0.932292" stop-color="#EA4664"></stop> </linearGradient> <linearGradient id="paint6_linear_154_1657" x1="-4.00001" y1="-5.10103" x2="516.404" y2="400.598" gradientUnits="userSpaceOnUse"> <stop stop-color="#F2AE66"></stop> <stop offset="0.114381" stop-color="#869272"></stop> <stop offset="0.204735" stop-color="#8951B9"></stop> <stop offset="0.295273" stop-color="#7061B4"></stop> <stop offset="0.473958" stop-color="#7061B4"></stop> <stop offset="0.739583" stop-color="#DD8A37"></stop> <stop offset="0.932292" stop-color="#EA4664"></stop> </linearGradient> <linearGradient id="paint7_linear_154_1657" x1="-4.00001" y1="-5.10103" x2="516.404" y2="400.598" gradientUnits="userSpaceOnUse"> <stop stop-color="#F2AE66"></stop> <stop offset="0.114381" stop-color="#869272"></stop> <stop offset="0.204735" stop-color="#8951B9"></stop> <stop offset="0.295273" stop-color="#7061B4"></stop> <stop offset="0.473958" stop-color="#7061B4"></stop> <stop offset="0.739583" stop-color="#DD8A37"></stop> <stop offset="0.932292" stop-color="#EA4664"></stop> </linearGradient> </defs> </svg> 