<?xml version="1.0" encoding="UTF-8"?> <svg xmlns="http://www.w3.org/2000/svg" width="25" height="25" viewBox="0 0 25 25" fill="none"> <g clip-path="url(#clip0_160_2315)"> <path fill-rule="evenodd" clip-rule="evenodd" d="M13.1314 9.81803C17.2781 9.81803 17.252 16.1542 13.2023 16.1542C8.76778 16.1539 8.96832 9.81803 13.1314 9.81803ZM21.1479 21.9707C20.9278 22.1688 20.6931 22.3303 20.4479 22.4653L20.2099 20.9841C20.2194 20.9759 20.23 20.9688 20.2395 20.9604C21.3118 19.9957 21.3439 18.3593 20.7257 16.4933C18.8469 17.5251 16.5488 18.3178 14.2575 18.8031C13.7882 18.9025 13.3132 18.9871 12.8365 19.0623C13.7322 19.7656 14.6352 20.3615 15.5036 20.7996C15.8246 20.2441 16.4123 19.8371 17.2553 19.8371C19.9056 19.8371 19.8887 23.8862 17.3004 23.8862C15.9963 23.8862 15.321 23.0286 15.2297 22.1028C13.8303 21.4504 12.389 20.4602 11.03 19.2854C9.81343 19.3928 8.61452 19.4126 7.49523 19.3237C7.77186 21.4928 8.71207 22.7876 9.91398 23.1792C10.9531 23.5178 12.0757 23.08 13.1656 22.0813L14.2814 22.8172C12.8099 24.2803 11.1648 25.0156 9.49305 24.471C7.3493 23.7729 6.37974 21.7091 6.16696 19.1596C3.62512 18.7243 1.69794 17.6205 1.27131 15.6077C1.20963 15.3167 1.18082 15.0316 1.17865 14.7525C-0.681677 13.9914 -0.298797 10.8699 2.03734 10.8699C4.51533 10.8699 4.66126 14.4088 2.55446 14.8691C2.55936 15.0237 2.56887 15.1775 2.60039 15.3262C2.8743 16.6186 4.19088 17.4498 6.12023 17.8308C6.13408 16.6794 6.27702 15.4661 6.51099 14.2593C3.8637 10.4455 2.49876 6.22618 4.89251 4.07374C6.24522 2.85798 7.98517 2.74765 9.82213 3.32238L9.2762 4.55064C7.76669 4.15771 6.56751 4.3952 5.8012 5.08406C4.30691 6.42754 4.93952 9.32428 6.92131 12.4906C7.04033 12.0479 7.16724 11.6093 7.30664 11.1816C8.3137 8.09004 10.0094 4.8558 12.0509 2.9501C11.6939 1.77537 12.3727 0.271835 13.9941 0.271835C16.6441 0.271835 16.6276 4.32102 14.0392 4.32102C13.5577 4.32102 13.1637 4.20227 12.8512 4.00825C11.1159 5.66912 9.55229 8.59765 8.5762 11.5952C8.30528 12.427 8.09142 13.2107 7.91941 13.9555C8.42919 14.646 8.9955 15.3398 9.61126 16.0246C10.2064 16.6865 10.8344 17.3207 11.4778 17.9096C12.289 17.814 13.1265 17.6778 13.9803 17.4968C16.2662 17.0126 18.5034 16.24 20.2469 15.2737C20.1034 14.9563 19.9458 14.6354 19.7732 14.3126L20.577 13.0365C20.8708 13.5444 21.1346 14.0561 21.3708 14.5659C22.9479 13.4523 23.8629 12.1485 23.5691 10.7607C23.2721 9.35933 21.8895 8.51368 19.9852 8.11232C19.9344 10.2216 19.4825 12.5629 18.7751 14.7544L17.2137 15.1977C17.3064 14.9381 17.3971 14.6762 17.4841 14.4093C18.2028 12.2025 18.6498 9.89656 18.6898 7.91341C16.6558 7.7058 14.2458 7.89194 11.9645 8.37537C11.8017 8.40988 11.6531 8.44928 11.495 8.48542L11.949 7.01667C14.136 6.57673 16.5224 6.38678 18.6493 6.58515C18.5194 5.09901 18.0931 3.89684 17.292 3.21559L17.5349 1.73787C19.0757 2.59683 19.8064 4.47075 19.9594 6.76613C22.4925 7.23488 24.4528 8.37618 24.8985 10.4794C25.3322 12.5267 24.0235 14.3441 21.8762 15.7933C22.7526 18.2379 22.7558 20.5251 21.1479 21.9707ZM8.61914 16.9172C8.26533 16.524 7.92104 16.1178 7.5887 15.7025C7.46778 16.539 7.41017 17.311 7.4137 18.0112C8.12512 18.074 8.89332 18.0884 9.70256 18.055C9.33028 17.6852 8.96778 17.3053 8.61914 16.9172Z" fill="#5B6CFF"></path> </g> <defs> <clipPath id="clip0_160_2315"> <rect width="25" height="25" fill="white"></rect> </clipPath> </defs> </svg> 