<?xml version="1.0" encoding="UTF-8"?> <svg xmlns="http://www.w3.org/2000/svg" width="898" height="432" viewBox="0 0 898 432" fill="none"> <g filter="url(#filter0_b_179_808)"> <path d="M1 52.2C1 34.2783 1 25.3175 4.48779 18.4723C7.55574 12.4511 12.4511 7.55574 18.4723 4.48779C25.3175 1 34.2783 1 52.2 1H845.8C863.722 1 872.683 1 879.528 4.48779C885.549 7.55574 890.444 12.4511 893.512 18.4723C897 25.3175 897 34.2783 897 52.2V379.8C897 397.722 897 406.683 893.512 413.528C890.444 419.549 885.549 424.444 879.528 427.512C872.683 431 863.722 431 845.8 431H52.2C34.2783 431 25.3175 431 18.4723 427.512C12.4511 424.444 7.55574 419.549 4.48779 413.528C1 406.683 1 397.722 1 379.8V52.2Z" fill="#F1F2FB" fill-opacity="0.07"></path> <path d="M845.8 0.5H52.2H52.1762C43.2355 0.5 36.4981 0.499999 31.1417 0.937634C25.7748 1.37613 21.7501 2.25649 18.2453 4.04229C12.13 7.15817 7.15817 12.13 4.04229 18.2453C2.25649 21.7501 1.37613 25.7748 0.937634 31.1418C0.499999 36.4982 0.5 43.2355 0.5 52.1762V52.2V379.8V379.824C0.5 388.765 0.499999 395.502 0.937634 400.858C1.37613 406.225 2.25649 410.25 4.04229 413.755C7.15817 419.87 12.13 424.842 18.2453 427.958C21.7501 429.743 25.7748 430.624 31.1417 431.062C36.498 431.5 43.2352 431.5 52.1757 431.5H52.2H845.8H845.824C854.765 431.5 861.502 431.5 866.858 431.062C872.225 430.624 876.25 429.743 879.755 427.958C885.87 424.842 890.842 419.87 893.958 413.755C895.744 410.25 896.624 406.225 897.062 400.858C897.5 395.502 897.5 388.764 897.5 379.822V379.8V52.2V52.1776C897.5 43.2361 897.5 36.4984 897.062 31.1417C896.624 25.7748 895.744 21.7501 893.958 18.2453C890.842 12.13 885.87 7.15817 879.755 4.04229C876.25 2.25649 872.225 1.37613 866.858 0.937634C861.502 0.499999 854.765 0.5 845.824 0.5H845.8Z" stroke="url(#paint0_linear_179_808)" stroke-opacity="0.5"></path> </g> <defs> <filter id="filter0_b_179_808" x="-20" y="-20" width="938" height="472" filterUnits="userSpaceOnUse" color-interpolation-filters="sRGB"> <feFlood flood-opacity="0" result="BackgroundImageFix"></feFlood> <feGaussianBlur in="BackgroundImage" stdDeviation="10"></feGaussianBlur> <feComposite in2="SourceAlpha" operator="in" result="effect1_backgroundBlur_179_808"></feComposite> <feBlend mode="normal" in="SourceGraphic" in2="effect1_backgroundBlur_179_808" result="shape"></feBlend> </filter> <linearGradient id="paint0_linear_179_808" x1="558.699" y1="0.999998" x2="336.377" y2="457.255" gradientUnits="userSpaceOnUse"> <stop stop-color="#F1F2FB"></stop> <stop offset="1" stop-color="#F1F2FB" stop-opacity="0.32"></stop> </linearGradient> </defs> </svg> 