<?xml version="1.0" encoding="UTF-8"?> <svg xmlns="http://www.w3.org/2000/svg" width="1138" height="384" viewBox="0 0 1138 384" fill="none"> <g filter="url(#filter0_b_179_670)"> <path d="M1 52.2C1 34.2783 1 25.3175 4.48779 18.4723C7.55574 12.4511 12.4511 7.55574 18.4723 4.48779C25.3175 1 34.2783 1 52.2 1H1085.8C1103.72 1 1112.68 1 1119.53 4.48779C1125.55 7.55574 1130.44 12.4511 1133.51 18.4723C1137 25.3175 1137 34.2783 1137 52.2V331.8C1137 349.722 1137 358.683 1133.51 365.528C1130.44 371.549 1125.55 376.444 1119.53 379.512C1112.68 383 1103.72 383 1085.8 383H52.2C34.2783 383 25.3175 383 18.4723 379.512C12.4511 376.444 7.55574 371.549 4.48779 365.528C1 358.683 1 349.722 1 331.8V52.2Z" fill="#F1F2FB" fill-opacity="0.07"></path> <path d="M1085.8 0.5H52.2H52.1762C43.2355 0.5 36.4981 0.499999 31.1417 0.937634C25.7748 1.37613 21.7501 2.25649 18.2453 4.04229C12.13 7.15817 7.15817 12.13 4.04229 18.2453C2.25649 21.7501 1.37613 25.7748 0.937634 31.1417C0.499999 36.4981 0.5 43.2355 0.5 52.1762V52.2V331.8V331.824C0.5 340.765 0.499999 347.502 0.937634 352.858C1.37613 358.225 2.25649 362.25 4.04229 365.755C7.15817 371.87 12.13 376.842 18.2453 379.958C21.7501 381.743 25.7748 382.624 31.1417 383.062C36.498 383.5 43.2352 383.5 52.1757 383.5H52.2H1085.8H1085.82C1094.76 383.5 1101.5 383.5 1106.86 383.062C1112.23 382.624 1116.25 381.743 1119.75 379.958C1125.87 376.842 1130.84 371.87 1133.96 365.755C1135.74 362.25 1136.62 358.225 1137.06 352.858C1137.5 347.502 1137.5 340.764 1137.5 331.822V331.8V52.2V52.1776C1137.5 43.2361 1137.5 36.4984 1137.06 31.1417C1136.62 25.7748 1135.74 21.7501 1133.96 18.2453C1130.84 12.13 1125.87 7.15817 1119.75 4.04229C1116.25 2.25649 1112.23 1.37613 1106.86 0.937634C1101.5 0.499999 1094.76 0.5 1085.82 0.5H1085.8Z" stroke="url(#paint0_linear_179_670)" stroke-opacity="0.5"></path> </g> <defs> <filter id="filter0_b_179_670" x="-20" y="-20" width="1178" height="424" filterUnits="userSpaceOnUse" color-interpolation-filters="sRGB"> <feFlood flood-opacity="0" result="BackgroundImageFix"></feFlood> <feGaussianBlur in="BackgroundImage" stdDeviation="10"></feGaussianBlur> <feComposite in2="SourceAlpha" operator="in" result="effect1_backgroundBlur_179_670"></feComposite> <feBlend mode="normal" in="SourceGraphic" in2="effect1_backgroundBlur_179_670" result="shape"></feBlend> </filter> <linearGradient id="paint0_linear_179_670" x1="708.082" y1="0.999998" x2="555.749" y2="448.856" gradientUnits="userSpaceOnUse"> <stop stop-color="#F1F2FB"></stop> <stop offset="1" stop-color="#F1F2FB" stop-opacity="0.32"></stop> </linearGradient> </defs> </svg> 