<?xml version="1.0" encoding="UTF-8"?> <svg xmlns="http://www.w3.org/2000/svg" width="594" height="542" viewBox="0 0 594 542" fill="none"> <g filter="url(#filter0_b_179_898)"> <path d="M1 52.2C1 34.2783 1 25.3175 4.48779 18.4723C7.55574 12.4511 12.4511 7.55574 18.4723 4.48779C25.3175 1 34.2783 1 52.2 1H541.8C559.722 1 568.683 1 575.528 4.48779C581.549 7.55574 586.444 12.4511 589.512 18.4723C593 25.3175 593 34.2783 593 52.2V489.8C593 507.722 593 516.683 589.512 523.528C586.444 529.549 581.549 534.444 575.528 537.512C568.683 541 559.722 541 541.8 541H52.2C34.2783 541 25.3175 541 18.4723 537.512C12.4511 534.444 7.55574 529.549 4.48779 523.528C1 516.683 1 507.722 1 489.8V52.2Z" fill="#F1F2FB" fill-opacity="0.07"></path> <path d="M541.8 0.5H52.2H52.1762C43.2355 0.5 36.4981 0.499999 31.1417 0.937634C25.7748 1.37613 21.7501 2.25649 18.2453 4.04229C12.13 7.15817 7.15817 12.13 4.04229 18.2453C2.25649 21.7501 1.37613 25.7748 0.937634 31.1418C0.499999 36.4981 0.5 43.2355 0.5 52.1762V52.2V489.8V489.824C0.5 498.765 0.499999 505.502 0.937634 510.858C1.37613 516.225 2.25649 520.25 4.04229 523.755C7.15817 529.87 12.13 534.842 18.2453 537.958C21.7501 539.744 25.7748 540.624 31.1418 541.062C36.4984 541.5 43.2362 541.5 52.1776 541.5H52.2H541.8H541.822C550.764 541.5 557.502 541.5 562.858 541.062C568.225 540.624 572.25 539.744 575.755 537.958C581.87 534.842 586.842 529.87 589.958 523.755C591.744 520.25 592.624 516.225 593.062 510.858C593.5 505.502 593.5 498.764 593.5 489.822V489.8V52.2V52.1776C593.5 43.2361 593.5 36.4984 593.062 31.1417C592.624 25.7748 591.744 21.7501 589.958 18.2453C586.842 12.13 581.87 7.15817 575.755 4.04229C572.25 2.25649 568.225 1.37613 562.858 0.937634C557.502 0.499999 550.765 0.5 541.824 0.5H541.8Z" stroke="url(#paint0_linear_179_898)" stroke-opacity="0.5"></path> </g> <defs> <filter id="filter0_b_179_898" x="-20" y="-20" width="634" height="582" filterUnits="userSpaceOnUse" color-interpolation-filters="sRGB"> <feFlood flood-opacity="0" result="BackgroundImageFix"></feFlood> <feGaussianBlur in="BackgroundImage" stdDeviation="10"></feGaussianBlur> <feComposite in2="SourceAlpha" operator="in" result="effect1_backgroundBlur_179_898"></feComposite> <feBlend mode="normal" in="SourceGraphic" in2="effect1_backgroundBlur_179_898" result="shape"></feBlend> </filter> <linearGradient id="paint0_linear_179_898" x1="369.479" y1="0.999997" x2="16.0118" y2="382.648" gradientUnits="userSpaceOnUse"> <stop stop-color="#F1F2FB"></stop> <stop offset="1" stop-color="#F1F2FB" stop-opacity="0.32"></stop> </linearGradient> </defs> </svg> 