<?xml version="1.0" encoding="UTF-8"?> <svg xmlns="http://www.w3.org/2000/svg" width="451" height="124" viewBox="0 0 451 124" fill="none"> <path d="M0.808594 50H7.91459V7.73802H32.0886V1.04002H0.808594V50Z" fill="url(#paint0_linear_154_1656)"></path> <path d="M76.0533 50H68.8453V13.586L44.7393 50H37.5312V1.04002H44.7393V37.42L68.8453 1.04002H76.0533V50Z" fill="url(#paint1_linear_154_1656)"></path> <path d="M85.543 50H105.331C105.807 50 106.396 49.9887 107.099 49.966C107.802 49.9207 108.47 49.8527 109.105 49.762C111.78 49.4447 114.024 48.5834 115.837 47.178C117.673 45.7727 119.056 43.9934 119.985 41.84C120.914 39.664 121.379 37.3067 121.379 34.768C121.379 32.2067 120.903 29.8494 119.951 27.696C119.022 25.5427 117.639 23.7634 115.803 22.358C113.99 20.9527 111.757 20.0914 109.105 19.774C108.47 19.6834 107.79 19.6267 107.065 19.604C106.362 19.5587 105.784 19.536 105.331 19.536H92.649V7.73802H117.469V1.04002H85.543V50ZM92.649 43.302V26.234H105.059C105.512 26.234 106.011 26.2567 106.555 26.302C107.122 26.3247 107.654 26.3927 108.153 26.506C110.329 26.9594 111.87 28.002 112.777 29.634C113.684 31.2434 114.137 32.9547 114.137 34.768C114.137 36.5587 113.684 38.27 112.777 39.902C111.87 41.534 110.329 42.5767 108.153 43.03C107.654 43.1207 107.122 43.1887 106.555 43.234C106.011 43.2794 105.512 43.302 105.059 43.302H92.649Z" fill="url(#paint2_linear_154_1656)"></path> <path d="M128.176 50H135.282V26.608L157.11 50H166.222L142.966 24.942L164.624 1.04002H155.784L135.282 23.888V1.04002H128.176V50Z" fill="url(#paint3_linear_154_1656)"></path> <path d="M188.985 51.02C193.881 51.02 198.051 49.9434 201.497 47.79C204.942 45.6367 207.571 42.656 209.385 38.848C211.198 35.0174 212.105 30.5747 212.105 25.52C212.105 20.4654 211.198 16.034 209.385 12.226C207.571 8.39535 204.942 5.40335 201.497 3.25002C198.051 1.09669 193.881 0.0200195 188.985 0.0200195C184.089 0.0200195 179.918 1.09669 176.473 3.25002C173.027 5.40335 170.387 8.39535 168.551 12.226C166.737 16.034 165.831 20.4654 165.831 25.52C165.831 30.5747 166.737 35.0174 168.551 38.848C170.387 42.656 173.027 45.6367 176.473 47.79C179.918 49.9434 184.089 51.02 188.985 51.02ZM188.985 44.254C183.794 44.2087 179.884 42.4747 177.255 39.052C174.648 35.6294 173.356 31.1187 173.379 25.52C173.401 21.78 173.979 18.5047 175.113 15.694C176.269 12.8607 178.003 10.662 180.315 9.09802C182.627 7.51135 185.517 6.74069 188.985 6.78602C194.198 6.80868 198.097 8.53135 200.681 11.954C203.265 15.3767 204.557 19.8987 204.557 25.52C204.557 29.26 203.979 32.5467 202.823 35.38C201.689 38.1907 199.967 40.378 197.655 41.942C195.343 43.506 192.453 44.2767 188.985 44.254Z" fill="url(#paint4_linear_154_1656)"></path> <path d="M218.887 50H250.167V43.302H225.993V28.172H246.087V21.474H225.993V7.73802H250.167V1.04002H218.887V50Z" fill="url(#paint5_linear_154_1656)"></path> <path d="M0.808594 122H7.91459V104.422H20.5966C21.0499 104.422 21.6279 104.399 22.3306 104.354C23.0559 104.309 23.7359 104.241 24.3706 104.15C28.4506 103.493 31.5106 101.747 33.5506 98.914C35.6133 96.0807 36.6446 92.6807 36.6446 88.714C36.6446 84.7474 35.6246 81.3474 33.5846 78.514C31.5446 75.6807 28.4733 73.9467 24.3706 73.312C23.7359 73.1987 23.0673 73.1307 22.3646 73.108C21.6619 73.0627 21.0726 73.04 20.5966 73.04H0.808594V122ZM7.91459 97.69V79.738H20.3246C20.7779 79.738 21.2766 79.7607 21.8206 79.806C22.3873 79.8513 22.9199 79.942 23.4186 80.078C25.5946 80.5767 27.1359 81.6874 28.0426 83.41C28.9493 85.1327 29.4026 86.9007 29.4026 88.714C29.4026 90.5047 28.9493 92.2727 28.0426 94.018C27.1359 95.7407 25.5946 96.8627 23.4186 97.384C22.9199 97.4974 22.3873 97.5767 21.8206 97.622C21.2766 97.6673 20.7779 97.69 20.3246 97.69H7.91459Z" fill="url(#paint6_linear_154_1656)"></path> <path d="M37.3187 122H44.6968L48.2668 110.95H68.3608L71.9987 122H79.3768L63.4648 73.04H53.2308L37.3187 122ZM50.4428 104.286L58.2627 80.146L66.1848 104.286H50.4428Z" fill="url(#paint7_linear_154_1656)"></path> <path d="M104.582 123.02C110.226 123.02 114.896 121.592 118.59 118.736C122.308 115.88 124.892 112.038 126.342 107.21L119.134 105.272C118.16 108.695 116.46 111.381 114.034 113.33C111.609 115.279 108.458 116.254 104.582 116.254C101.114 116.254 98.2131 115.472 95.8784 113.908C93.5664 112.344 91.8211 110.157 90.6424 107.346C89.4864 104.535 88.9198 101.26 88.9424 97.52C88.9651 93.78 89.5544 90.5047 90.7104 87.694C91.8664 84.8833 93.6004 82.696 95.9124 81.132C98.2244 79.568 101.114 78.786 104.582 78.786C108.458 78.786 111.609 79.7607 114.034 81.71C116.46 83.6594 118.16 86.3454 119.134 89.768L126.342 87.83C124.892 83.002 122.308 79.16 118.59 76.304C114.896 73.448 110.226 72.02 104.582 72.02C99.6864 72.02 95.5158 73.0967 92.0704 75.25C88.6251 77.4033 85.9844 80.3954 84.1484 84.226C82.3351 88.034 81.4284 92.4654 81.4284 97.52C81.4284 102.575 82.3351 107.017 84.1484 110.848C85.9844 114.656 88.6251 117.637 92.0704 119.79C95.5158 121.943 99.6864 123.02 104.582 123.02Z" fill="url(#paint8_linear_154_1656)"></path> <path d="M133.82 122H140.926V79.738H165.644V122H172.75V73.04H133.82V122Z" fill="url(#paint9_linear_154_1656)"></path> <path d="M220.819 122H213.611V85.586L189.505 122H182.297V73.04H189.505V109.42L213.611 73.04H220.819V122Z" fill="url(#paint10_linear_154_1656)"></path> <path d="M250.743 123.02C256.387 123.02 261.056 121.592 264.751 118.736C268.468 115.88 271.052 112.038 272.503 107.21L265.295 105.272C264.32 108.695 262.62 111.381 260.195 113.33C257.769 115.279 254.619 116.254 250.743 116.254C247.275 116.254 244.373 115.472 242.039 113.908C239.727 112.344 237.981 110.157 236.803 107.346C235.647 104.535 235.08 101.26 235.103 97.52C235.125 93.78 235.715 90.5047 236.871 87.694C238.027 84.8833 239.761 82.696 242.073 81.132C244.385 79.568 247.275 78.786 250.743 78.786C254.619 78.786 257.769 79.7607 260.195 81.71C262.62 83.6594 264.32 86.3454 265.295 89.768L272.503 87.83C271.052 83.002 268.468 79.16 264.751 76.304C261.056 73.448 256.387 72.02 250.743 72.02C245.847 72.02 241.676 73.0967 238.231 75.25C234.785 77.4033 232.145 80.3954 230.309 84.226C228.495 88.034 227.589 92.4654 227.589 97.52C227.589 102.575 228.495 107.017 230.309 110.848C232.145 114.656 234.785 117.637 238.231 119.79C241.676 121.943 245.847 123.02 250.743 123.02Z" fill="url(#paint11_linear_154_1656)"></path> <path d="M275.252 122H282.63L286.2 110.95H306.294L309.932 122H317.31L301.398 73.04H291.164L275.252 122ZM288.376 104.286L296.196 80.146L304.118 104.286H288.376Z" fill="url(#paint12_linear_154_1656)"></path> <path d="M323.41 122H330.516V100.852H354.996V122H362.136V73.04H354.996V94.154H330.516V73.04H323.41V122Z" fill="url(#paint13_linear_154_1656)"></path> <path d="M410.21 122H403.001V85.586L378.896 122H371.688V73.04H378.896V109.42L403.001 73.04H410.21V122Z" fill="url(#paint14_linear_154_1656)"></path> <path d="M419.699 122H450.979V115.302H426.805V100.172H446.899V93.474H426.805V79.738H450.979V73.04H419.699V122Z" fill="url(#paint15_linear_154_1656)"></path> <defs> <linearGradient id="paint0_linear_154_1656" x1="-3.95315" y1="1.79794" x2="977.912" y2="641.698" gradientUnits="userSpaceOnUse"> <stop offset="0.0190319" stop-color="#E5755F"></stop> <stop offset="0.112073" stop-color="#F2AE66"></stop> <stop offset="0.210278" stop-color="#E5755F"></stop> <stop offset="0.269749" stop-color="#C54D8B"></stop> <stop offset="0.360129" stop-color="#8951B9"></stop> <stop offset="0.416667" stop-color="#7061B4"></stop> <stop offset="0.473958" stop-color="#7061B4"></stop> <stop offset="0.583333" stop-color="#869272"></stop> <stop offset="0.739583" stop-color="#DD8A37"></stop> <stop offset="0.932292" stop-color="#EA4664"></stop> </linearGradient> <linearGradient id="paint1_linear_154_1656" x1="-3.95315" y1="1.79794" x2="977.912" y2="641.698" gradientUnits="userSpaceOnUse"> <stop offset="0.0190319" stop-color="#E5755F"></stop> <stop offset="0.112073" stop-color="#F2AE66"></stop> <stop offset="0.210278" stop-color="#E5755F"></stop> <stop offset="0.269749" stop-color="#C54D8B"></stop> <stop offset="0.360129" stop-color="#8951B9"></stop> <stop offset="0.416667" stop-color="#7061B4"></stop> <stop offset="0.473958" stop-color="#7061B4"></stop> <stop offset="0.583333" stop-color="#869272"></stop> <stop offset="0.739583" stop-color="#DD8A37"></stop> <stop offset="0.932292" stop-color="#EA4664"></stop> </linearGradient> <linearGradient id="paint2_linear_154_1656" x1="-3.95315" y1="1.79794" x2="977.912" y2="641.698" gradientUnits="userSpaceOnUse"> <stop offset="0.0190319" stop-color="#E5755F"></stop> <stop offset="0.112073" stop-color="#F2AE66"></stop> <stop offset="0.210278" stop-color="#E5755F"></stop> <stop offset="0.269749" stop-color="#C54D8B"></stop> <stop offset="0.360129" stop-color="#8951B9"></stop> <stop offset="0.416667" stop-color="#7061B4"></stop> <stop offset="0.473958" stop-color="#7061B4"></stop> <stop offset="0.583333" stop-color="#869272"></stop> <stop offset="0.739583" stop-color="#DD8A37"></stop> <stop offset="0.932292" stop-color="#EA4664"></stop> </linearGradient> <linearGradient id="paint3_linear_154_1656" x1="-3.95315" y1="1.79794" x2="977.912" y2="641.698" gradientUnits="userSpaceOnUse"> <stop offset="0.0190319" stop-color="#E5755F"></stop> <stop offset="0.112073" stop-color="#F2AE66"></stop> <stop offset="0.210278" stop-color="#E5755F"></stop> <stop offset="0.269749" stop-color="#C54D8B"></stop> <stop offset="0.360129" stop-color="#8951B9"></stop> <stop offset="0.416667" stop-color="#7061B4"></stop> <stop offset="0.473958" stop-color="#7061B4"></stop> <stop offset="0.583333" stop-color="#869272"></stop> <stop offset="0.739583" stop-color="#DD8A37"></stop> <stop offset="0.932292" stop-color="#EA4664"></stop> </linearGradient> <linearGradient id="paint4_linear_154_1656" x1="-3.95315" y1="1.79794" x2="977.912" y2="641.698" gradientUnits="userSpaceOnUse"> <stop offset="0.0190319" stop-color="#E5755F"></stop> <stop offset="0.112073" stop-color="#F2AE66"></stop> <stop offset="0.210278" stop-color="#E5755F"></stop> <stop offset="0.269749" stop-color="#C54D8B"></stop> <stop offset="0.360129" stop-color="#8951B9"></stop> <stop offset="0.416667" stop-color="#7061B4"></stop> <stop offset="0.473958" stop-color="#7061B4"></stop> <stop offset="0.583333" stop-color="#869272"></stop> <stop offset="0.739583" stop-color="#DD8A37"></stop> <stop offset="0.932292" stop-color="#EA4664"></stop> </linearGradient> <linearGradient id="paint5_linear_154_1656" x1="-3.95315" y1="1.79794" x2="977.912" y2="641.698" gradientUnits="userSpaceOnUse"> <stop offset="0.0190319" stop-color="#E5755F"></stop> <stop offset="0.112073" stop-color="#F2AE66"></stop> <stop offset="0.210278" stop-color="#E5755F"></stop> <stop offset="0.269749" stop-color="#C54D8B"></stop> <stop offset="0.360129" stop-color="#8951B9"></stop> <stop offset="0.416667" stop-color="#7061B4"></stop> <stop offset="0.473958" stop-color="#7061B4"></stop> <stop offset="0.583333" stop-color="#869272"></stop> <stop offset="0.739583" stop-color="#DD8A37"></stop> <stop offset="0.932292" stop-color="#EA4664"></stop> </linearGradient> <linearGradient id="paint6_linear_154_1656" x1="-3.95315" y1="1.79794" x2="977.912" y2="641.698" gradientUnits="userSpaceOnUse"> <stop offset="0.0190319" stop-color="#E5755F"></stop> <stop offset="0.112073" stop-color="#F2AE66"></stop> <stop offset="0.210278" stop-color="#E5755F"></stop> <stop offset="0.269749" stop-color="#C54D8B"></stop> <stop offset="0.360129" stop-color="#8951B9"></stop> <stop offset="0.416667" stop-color="#7061B4"></stop> <stop offset="0.473958" stop-color="#7061B4"></stop> <stop offset="0.583333" stop-color="#869272"></stop> <stop offset="0.739583" stop-color="#DD8A37"></stop> <stop offset="0.932292" stop-color="#EA4664"></stop> </linearGradient> <linearGradient id="paint7_linear_154_1656" x1="-3.95315" y1="1.79794" x2="977.912" y2="641.698" gradientUnits="userSpaceOnUse"> <stop offset="0.0190319" stop-color="#E5755F"></stop> <stop offset="0.112073" stop-color="#F2AE66"></stop> <stop offset="0.210278" stop-color="#E5755F"></stop> <stop offset="0.269749" stop-color="#C54D8B"></stop> <stop offset="0.360129" stop-color="#8951B9"></stop> <stop offset="0.416667" stop-color="#7061B4"></stop> <stop offset="0.473958" stop-color="#7061B4"></stop> <stop offset="0.583333" stop-color="#869272"></stop> <stop offset="0.739583" stop-color="#DD8A37"></stop> <stop offset="0.932292" stop-color="#EA4664"></stop> </linearGradient> <linearGradient id="paint8_linear_154_1656" x1="-3.95315" y1="1.79794" x2="977.912" y2="641.698" gradientUnits="userSpaceOnUse"> <stop offset="0.0190319" stop-color="#E5755F"></stop> <stop offset="0.112073" stop-color="#F2AE66"></stop> <stop offset="0.210278" stop-color="#E5755F"></stop> <stop offset="0.269749" stop-color="#C54D8B"></stop> <stop offset="0.360129" stop-color="#8951B9"></stop> <stop offset="0.416667" stop-color="#7061B4"></stop> <stop offset="0.473958" stop-color="#7061B4"></stop> <stop offset="0.583333" stop-color="#869272"></stop> <stop offset="0.739583" stop-color="#DD8A37"></stop> <stop offset="0.932292" stop-color="#EA4664"></stop> </linearGradient> <linearGradient id="paint9_linear_154_1656" x1="-3.95315" y1="1.79794" x2="977.912" y2="641.698" gradientUnits="userSpaceOnUse"> <stop offset="0.0190319" stop-color="#E5755F"></stop> <stop offset="0.112073" stop-color="#F2AE66"></stop> <stop offset="0.210278" stop-color="#E5755F"></stop> <stop offset="0.269749" stop-color="#C54D8B"></stop> <stop offset="0.360129" stop-color="#8951B9"></stop> <stop offset="0.416667" stop-color="#7061B4"></stop> <stop offset="0.473958" stop-color="#7061B4"></stop> <stop offset="0.583333" stop-color="#869272"></stop> <stop offset="0.739583" stop-color="#DD8A37"></stop> <stop offset="0.932292" stop-color="#EA4664"></stop> </linearGradient> <linearGradient id="paint10_linear_154_1656" x1="-3.95315" y1="1.79794" x2="977.912" y2="641.698" gradientUnits="userSpaceOnUse"> <stop offset="0.0190319" stop-color="#E5755F"></stop> <stop offset="0.112073" stop-color="#F2AE66"></stop> <stop offset="0.210278" stop-color="#E5755F"></stop> <stop offset="0.269749" stop-color="#C54D8B"></stop> <stop offset="0.360129" stop-color="#8951B9"></stop> <stop offset="0.416667" stop-color="#7061B4"></stop> <stop offset="0.473958" stop-color="#7061B4"></stop> <stop offset="0.583333" stop-color="#869272"></stop> <stop offset="0.739583" stop-color="#DD8A37"></stop> <stop offset="0.932292" stop-color="#EA4664"></stop> </linearGradient> <linearGradient id="paint11_linear_154_1656" x1="-3.95315" y1="1.79794" x2="977.912" y2="641.698" gradientUnits="userSpaceOnUse"> <stop offset="0.0190319" stop-color="#E5755F"></stop> <stop offset="0.112073" stop-color="#F2AE66"></stop> <stop offset="0.210278" stop-color="#E5755F"></stop> <stop offset="0.269749" stop-color="#C54D8B"></stop> <stop offset="0.360129" stop-color="#8951B9"></stop> <stop offset="0.416667" stop-color="#7061B4"></stop> <stop offset="0.473958" stop-color="#7061B4"></stop> <stop offset="0.583333" stop-color="#869272"></stop> <stop offset="0.739583" stop-color="#DD8A37"></stop> <stop offset="0.932292" stop-color="#EA4664"></stop> </linearGradient> <linearGradient id="paint12_linear_154_1656" x1="-3.95315" y1="1.79794" x2="977.912" y2="641.698" gradientUnits="userSpaceOnUse"> <stop offset="0.0190319" stop-color="#E5755F"></stop> <stop offset="0.112073" stop-color="#F2AE66"></stop> <stop offset="0.210278" stop-color="#E5755F"></stop> <stop offset="0.269749" stop-color="#C54D8B"></stop> <stop offset="0.360129" stop-color="#8951B9"></stop> <stop offset="0.416667" stop-color="#7061B4"></stop> <stop offset="0.473958" stop-color="#7061B4"></stop> <stop offset="0.583333" stop-color="#869272"></stop> <stop offset="0.739583" stop-color="#DD8A37"></stop> <stop offset="0.932292" stop-color="#EA4664"></stop> </linearGradient> <linearGradient id="paint13_linear_154_1656" x1="-3.95315" y1="1.79794" x2="977.912" y2="641.698" gradientUnits="userSpaceOnUse"> <stop offset="0.0190319" stop-color="#E5755F"></stop> <stop offset="0.112073" stop-color="#F2AE66"></stop> <stop offset="0.210278" stop-color="#E5755F"></stop> <stop offset="0.269749" stop-color="#C54D8B"></stop> <stop offset="0.360129" stop-color="#8951B9"></stop> <stop offset="0.416667" stop-color="#7061B4"></stop> <stop offset="0.473958" stop-color="#7061B4"></stop> <stop offset="0.583333" stop-color="#869272"></stop> <stop offset="0.739583" stop-color="#DD8A37"></stop> <stop offset="0.932292" stop-color="#EA4664"></stop> </linearGradient> <linearGradient id="paint14_linear_154_1656" x1="-3.95315" y1="1.79794" x2="977.912" y2="641.698" gradientUnits="userSpaceOnUse"> <stop offset="0.0190319" stop-color="#E5755F"></stop> <stop offset="0.112073" stop-color="#F2AE66"></stop> <stop offset="0.210278" stop-color="#E5755F"></stop> <stop offset="0.269749" stop-color="#C54D8B"></stop> <stop offset="0.360129" stop-color="#8951B9"></stop> <stop offset="0.416667" stop-color="#7061B4"></stop> <stop offset="0.473958" stop-color="#7061B4"></stop> <stop offset="0.583333" stop-color="#869272"></stop> <stop offset="0.739583" stop-color="#DD8A37"></stop> <stop offset="0.932292" stop-color="#EA4664"></stop> </linearGradient> <linearGradient id="paint15_linear_154_1656" x1="-3.95315" y1="1.79794" x2="977.912" y2="641.698" gradientUnits="userSpaceOnUse"> <stop offset="0.0190319" stop-color="#E5755F"></stop> <stop offset="0.112073" stop-color="#F2AE66"></stop> <stop offset="0.210278" stop-color="#E5755F"></stop> <stop offset="0.269749" stop-color="#C54D8B"></stop> <stop offset="0.360129" stop-color="#8951B9"></stop> <stop offset="0.416667" stop-color="#7061B4"></stop> <stop offset="0.473958" stop-color="#7061B4"></stop> <stop offset="0.583333" stop-color="#869272"></stop> <stop offset="0.739583" stop-color="#DD8A37"></stop> <stop offset="0.932292" stop-color="#EA4664"></stop> </linearGradient> </defs> </svg> 