<?xml version="1.0" encoding="UTF-8"?> <svg xmlns="http://www.w3.org/2000/svg" width="267" height="117" viewBox="0 0 267 117" fill="none"> <path d="M15.0123 46.3026C17.8004 46.3026 20.3834 45.6466 22.7615 44.3345C25.1395 43.002 27.0563 41.2185 28.5118 38.9839C29.9673 36.7289 30.6951 34.2074 30.6951 31.4193C30.6951 28.6313 30.0903 26.161 28.8808 24.0084C27.6918 21.8354 26.0313 20.1339 23.8992 18.9038C21.7877 17.6533 19.3379 17.0281 16.5499 17.0281C15.5863 17.0281 14.5613 17.1511 13.4748 17.3971C12.3883 17.6431 11.353 18.0326 10.369 18.5656L10.984 8.90993H27.7431V1.0993H3.57314L2.22012 24.6542L9.29274 26.8067C9.78475 26.3352 10.5228 25.8432 11.5068 25.3307C12.4908 24.7977 13.7618 24.5312 15.3198 24.5312C16.5909 24.5312 17.7491 24.8387 18.7947 25.4537C19.8607 26.0687 20.7012 26.899 21.3162 27.9445C21.9517 28.99 22.2695 30.1483 22.2695 31.4193C22.2695 32.6903 21.9517 33.8486 21.3162 34.8941C20.7012 35.9396 19.8607 36.7699 18.7947 37.3849C17.7491 37.9999 16.5909 38.3074 15.3198 38.3074C13.8848 38.3074 12.5215 37.8462 11.23 36.9237C9.9385 36.0011 9.08774 34.7609 8.67773 33.2028L0.621094 35.3554C1.2361 37.5284 2.25087 39.4349 3.6654 41.075C5.07992 42.715 6.76095 43.9963 8.70848 44.9188C10.6765 45.8413 12.7778 46.3026 15.0123 46.3026Z" fill="#F1F2FB"></path> <path d="M37.452 29.2053H63.2825V22.7477H37.452V29.2053Z" fill="#F1F2FB"></path> <path d="M85.4868 0.238281C82.6987 0.238281 80.1362 0.904542 77.7991 2.23706C75.4621 3.54909 73.5863 5.33262 72.1718 7.58765C70.7573 9.82219 70.05 12.3335 70.05 15.1215C70.05 17.9096 70.6445 20.3901 71.8335 22.5632C73.0431 24.7362 74.7036 26.448 76.8151 27.6985C78.9472 28.949 81.4072 29.5743 84.1952 29.5743C87.2498 29.5743 89.9763 28.662 92.3749 26.8375V30.6198C92.3749 31.9728 92.0469 33.2541 91.3909 34.4636C90.7554 35.6526 89.8431 36.6264 88.6541 37.3849C87.4855 38.1229 86.1018 38.4919 84.5027 38.4919C82.3707 38.4919 80.5257 37.7129 78.9677 36.1549L73.0021 42.1205C74.6216 43.6375 76.4051 44.7138 78.3526 45.3493C80.3002 45.9848 82.3502 46.3026 84.5027 46.3026C87.8238 46.3026 90.7144 45.6261 93.1744 44.273C95.6344 42.8995 97.541 40.952 98.894 38.4304C100.247 35.8884 100.924 32.8748 100.924 29.3898V16.5361C100.924 13.3175 100.247 10.4885 98.894 8.04891C97.541 5.58887 95.6959 3.67209 93.3589 2.29857C91.0424 0.925043 88.4183 0.238281 85.4868 0.238281ZM85.4868 8.23342C86.7578 8.23342 87.9161 8.55117 88.9616 9.18668C90.0071 9.82219 90.8374 10.6627 91.4524 11.7082C92.0674 12.7537 92.3749 13.8915 92.3749 15.1215C92.3749 16.3926 92.0571 17.5611 91.4216 18.6271C90.8066 19.6726 89.9661 20.5131 88.9001 21.1486C87.8546 21.7636 86.6963 22.0712 85.4253 22.0712C84.1542 22.0712 82.996 21.7636 81.9505 21.1486C80.9049 20.5131 80.0747 19.6726 79.4597 18.6271C78.8447 17.5611 78.5371 16.3926 78.5371 15.1215C78.5371 13.8505 78.8447 12.6922 79.4597 11.6467C80.0952 10.6012 80.9357 9.77094 81.9812 9.15593C83.0472 8.54092 84.2157 8.23342 85.4868 8.23342Z" fill="#F1F2FB"></path> <path d="M1.85111 115.38H10.2153V95.2077L27.8661 115.38H38.4442L18.7639 92.9322L37.2757 71.0993H27.0665L10.2153 91.5176V71.0993H1.85111V115.38Z" fill="#F1F2FB"></path> <path d="M39.6767 115.38C42.8952 116.016 45.4065 115.923 47.2105 115.103C49.0351 114.283 50.4188 112.869 51.3619 110.86C52.3049 108.851 53.0634 106.38 53.6374 103.449C54.1089 101.194 54.5087 98.867 54.8367 96.4685C55.1647 94.0699 55.4414 91.7534 55.6669 89.5189C55.8924 87.2843 56.0667 85.2445 56.1897 83.3995C56.3332 81.5545 56.4459 80.0579 56.5279 78.9099H70.6732V115.38H79.0373V71.0993H48.8403C48.7788 72.4318 48.6866 74.2256 48.5636 76.4806C48.4406 78.7152 48.2663 81.1957 48.0408 83.9223C47.8153 86.6488 47.5283 89.4369 47.1798 92.2864C46.8518 95.1155 46.4418 97.8113 45.9498 100.374C45.5398 102.547 45.0887 104.238 44.5967 105.448C44.1047 106.637 43.4692 107.457 42.6902 107.908C41.9317 108.338 40.9272 108.512 39.6767 108.43V115.38Z" fill="#F1F2FB"></path> <path d="M84.6012 115.38H93.2114L96.0097 106.155H112.676L115.536 115.38H124.146L110.616 71.0993H98.1315L84.6012 115.38ZM98.3775 98.3443L104.282 78.9407L110.278 98.3443H98.3775Z" fill="#F1F2FB"></path> <path d="M147.461 116.303C152.545 116.303 156.809 115.042 160.253 112.52C163.717 109.999 166.157 106.585 167.571 102.28L159.146 99.9433C158.326 102.608 156.942 104.689 154.994 106.186C153.047 107.682 150.536 108.43 147.461 108.43C143.258 108.43 140.091 107.057 137.959 104.31C135.847 101.542 134.791 97.8522 134.791 93.2397C134.791 88.6271 135.847 84.9473 137.959 82.2002C140.091 79.4327 143.258 78.0489 147.461 78.0489C150.536 78.0489 153.047 78.7972 154.994 80.2937C156.942 81.7697 158.326 83.8505 159.146 86.5361L167.571 84.199C166.157 79.8939 163.717 76.4806 160.253 73.9591C156.809 71.4376 152.545 70.1768 147.461 70.1768C143.033 70.1768 139.209 71.1403 135.991 73.0673C132.793 74.9944 130.322 77.6902 128.58 81.1547C126.858 84.6193 125.997 88.6476 125.997 93.2397C125.997 97.8317 126.858 101.86 128.58 105.325C130.322 108.789 132.793 111.485 135.991 113.412C139.209 115.339 143.033 116.303 147.461 116.303Z" fill="#F1F2FB"></path> <path d="M193.346 116.303C198.43 116.303 202.694 115.042 206.138 112.52C209.603 109.999 212.042 106.585 213.457 102.28L205.031 99.9433C204.211 102.608 202.828 104.689 200.88 106.186C198.932 107.682 196.421 108.43 193.346 108.43C189.144 108.43 185.976 107.057 183.844 104.31C181.733 101.542 180.677 97.8522 180.677 93.2397C180.677 88.6271 181.733 84.9473 183.844 82.2002C185.976 79.4327 189.144 78.0489 193.346 78.0489C196.421 78.0489 198.932 78.7972 200.88 80.2937C202.828 81.7697 204.211 83.8505 205.031 86.5361L213.457 84.199C212.042 79.8939 209.603 76.4806 206.138 73.9591C202.694 71.4376 198.43 70.1768 193.346 70.1768C188.918 70.1768 185.095 71.1403 181.876 73.0673C178.678 74.9944 176.208 77.6902 174.465 81.1547C172.743 84.6193 171.882 88.6476 171.882 93.2397C171.882 97.8317 172.743 101.86 174.465 105.325C176.208 108.789 178.678 111.485 181.876 113.412C185.095 115.339 188.918 116.303 193.346 116.303Z" fill="#F1F2FB"></path> <path d="M220.166 115.38H238.863C239.293 115.38 239.867 115.36 240.585 115.319C241.323 115.278 241.979 115.216 242.553 115.134C246.53 114.519 249.431 112.9 251.255 110.275C253.08 107.631 253.992 104.453 253.992 100.743C253.992 97.0117 253.069 93.8342 251.224 91.2101C249.379 88.5861 246.489 86.9666 242.553 86.3516C241.979 86.2491 241.323 86.1876 240.585 86.1671C239.847 86.1261 239.273 86.1056 238.863 86.1056H228.531V71.0993H220.166V115.38ZM228.531 107.569V93.9162H238.494C238.924 93.9162 239.396 93.9367 239.908 93.9777C240.421 94.0187 240.892 94.1007 241.323 94.2237C242.45 94.5312 243.321 95.0539 243.937 95.792C244.552 96.5095 244.972 97.3192 245.197 98.2213C245.443 99.1028 245.566 99.9433 245.566 100.743C245.566 101.542 245.443 102.393 245.197 103.295C244.972 104.177 244.552 104.986 243.937 105.724C243.321 106.442 242.45 106.954 241.323 107.262C240.892 107.385 240.421 107.467 239.908 107.508C239.396 107.549 238.924 107.569 238.494 107.569H228.531ZM258.42 115.38H266.784V71.0993H258.42V115.38Z" fill="#F1F2FB"></path> </svg> 