<?xml version="1.0" encoding="UTF-8"?> <svg xmlns="http://www.w3.org/2000/svg" width="25" height="25" viewBox="0 0 25 25" fill="none"> <g clip-path="url(#clip0_160_2171)"> <path fill-rule="evenodd" clip-rule="evenodd" d="M5.74487 10.5952C6.04552 10.3736 6.47732 10.3722 7.34092 10.3693L17.7736 10.3342C18.6482 10.3312 19.0855 10.3298 19.3893 10.553C19.4873 10.6251 19.5732 10.7123 19.6437 10.8114C19.8622 11.1186 19.8539 11.5559 19.8373 12.4303L19.6999 19.6748C19.6839 20.5171 19.6759 20.9383 19.4571 21.2323C19.3864 21.3274 19.3013 21.4109 19.2049 21.4798C18.9068 21.693 18.4855 21.693 17.6431 21.693H7.43237C6.58436 21.693 6.16036 21.693 5.86133 21.4778C5.7647 21.4083 5.67953 21.3241 5.6089 21.2283C5.39028 20.9319 5.38531 20.5079 5.37537 19.6599L5.29085 12.4505C5.28072 11.587 5.27566 11.1552 5.49263 10.8513C5.56268 10.7531 5.64781 10.6667 5.74487 10.5952ZM12.8219 19.941C7.21207 19.941 7.46537 12.0001 12.7311 12.0001C17.9787 12.0001 17.9478 19.941 12.8219 19.941Z" fill="#5B6CFF"></path> <path d="M8.33333 4.16667L12.5 0L16.6667 4.16667V7.20899L18.75 9.375L6.26653 9.4246L8.33333 7.29167V4.16667Z" fill="#5B6CFF"></path> <path d="M6.28307 25L6.25 22.9167H18.75L18.7169 25H6.28307Z" fill="#5B6CFF"></path> <path d="M14.6835 17.8613L14.0221 18.5226L11.7734 16.5385L12.8895 13.5417L13.7359 13.8346L12.8151 16.2781L14.6835 17.8613Z" fill="#5B6CFF"></path> </g> <defs> <clipPath id="clip0_160_2171"> <rect width="25" height="25" fill="white"></rect> </clipPath> </defs> </svg> 