<?xml version="1.0" encoding="UTF-8"?> <svg xmlns="http://www.w3.org/2000/svg" width="298" height="832" viewBox="0 0 298 832" fill="none"> <g filter="url(#filter0_b_179_1076)"> <path d="M1 52.2C1 34.2783 1 25.3175 4.48779 18.4723C7.55574 12.4511 12.4511 7.55574 18.4723 4.48779C25.3175 1 34.2783 1 52.2 1H245.8C263.722 1 272.683 1 279.528 4.48779C285.549 7.55574 290.444 12.4511 293.512 18.4723C297 25.3175 297 34.2783 297 52.2V779.8C297 797.722 297 806.683 293.512 813.528C290.444 819.549 285.549 824.444 279.528 827.512C272.683 831 263.722 831 245.8 831H52.2C34.2783 831 25.3175 831 18.4723 827.512C12.4511 824.444 7.55574 819.549 4.48779 813.528C1 806.683 1 797.722 1 779.8V52.2Z" fill="#F1F2FB" fill-opacity="0.07"></path> <path d="M245.8 0.5H52.2H52.1762C43.2355 0.5 36.4981 0.499999 31.1417 0.937634C25.7748 1.37613 21.7501 2.25649 18.2453 4.04229C12.13 7.15817 7.15817 12.13 4.04229 18.2453C2.25649 21.7501 1.37613 25.7748 0.937634 31.1417C0.499999 36.4981 0.5 43.2355 0.5 52.1762V52.2V779.8V779.824C0.5 788.765 0.499999 795.502 0.937634 800.858C1.37613 806.225 2.25649 810.25 4.04229 813.755C7.15817 819.87 12.13 824.842 18.2453 827.958C21.7501 829.744 25.7748 830.624 31.1417 831.062C36.4977 831.5 43.2343 831.5 52.1739 831.5H52.2H245.8H245.826C254.766 831.5 261.502 831.5 266.858 831.062C272.225 830.624 276.25 829.744 279.755 827.958C285.87 824.842 290.842 819.87 293.958 813.755C295.743 810.25 296.624 806.225 297.062 800.858C297.5 795.502 297.5 788.764 297.5 779.822V779.8V52.2V52.1776C297.5 43.2361 297.5 36.4984 297.062 31.1417C296.624 25.7748 295.743 21.7501 293.958 18.2453C290.842 12.13 285.87 7.15817 279.755 4.04229C276.25 2.25649 272.225 1.37613 266.858 0.937634C261.502 0.499999 254.765 0.5 245.824 0.5H245.8Z" stroke="url(#paint0_linear_179_1076)" stroke-opacity="0.5"></path> </g> <defs> <filter id="filter0_b_179_1076" x="-20" y="-20" width="338" height="872" filterUnits="userSpaceOnUse" color-interpolation-filters="sRGB"> <feFlood flood-opacity="0" result="BackgroundImageFix"></feFlood> <feGaussianBlur in="BackgroundImage" stdDeviation="10"></feGaussianBlur> <feComposite in2="SourceAlpha" operator="in" result="effect1_backgroundBlur_179_1076"></feComposite> <feBlend mode="normal" in="SourceGraphic" in2="effect1_backgroundBlur_179_1076" result="shape"></feBlend> </filter> <linearGradient id="paint0_linear_179_1076" x1="185.24" y1="0.999996" x2="-155.497" y2="120.679" gradientUnits="userSpaceOnUse"> <stop stop-color="#F1F2FB"></stop> <stop offset="1" stop-color="#F1F2FB" stop-opacity="0.32"></stop> </linearGradient> </defs> </svg> 