<?xml version="1.0" encoding="UTF-8"?> <svg xmlns="http://www.w3.org/2000/svg" width="25" height="25" viewBox="0 0 25 25" fill="none"> <path d="M4.86141 3.81636C3.27823 3.84086 2.48663 3.85311 1.93549 4.2638C1.75744 4.39648 1.60125 4.55622 1.4726 4.73721C1.07439 5.29743 1.07992 6.0891 1.09098 7.67244L1.17087 19.1085C1.18194 20.694 1.18748 21.4868 1.59422 22.0417C1.72562 22.221 1.8843 22.3785 2.06449 22.5087C2.62225 22.9115 3.41502 22.9115 5.00056 22.9115H20.0007C21.5823 22.9115 22.3732 22.9115 22.9303 22.51C23.1103 22.3803 23.269 22.2232 23.4004 22.0445C23.8073 21.4912 23.815 20.7004 23.8303 19.1188L23.9431 7.44763C23.9589 5.81529 23.9668 4.99911 23.5533 4.4304C23.4199 4.24692 23.258 4.08596 23.0737 3.95361C22.5026 3.54339 21.6865 3.55601 20.0543 3.58127L4.86141 3.81636ZM2.78074 10.2283C2.7649 9.26471 2.75698 8.78289 2.99743 8.44236C3.07506 8.33242 3.16959 8.23544 3.27752 8.15503C3.61179 7.90596 4.09366 7.90158 5.05739 7.8928L19.8668 7.75798C20.8444 7.74908 21.3332 7.74463 21.6741 7.99232C21.784 8.07223 21.8805 8.1692 21.9599 8.27955C22.2059 8.62158 22.1991 9.11035 22.1854 10.0879L22.0624 18.883C22.0492 19.8282 22.0426 20.3008 21.7983 20.6311C21.7194 20.7379 21.6243 20.8317 21.5165 20.9091C21.1827 21.1487 20.7101 21.1487 19.7648 21.1487H5.22066C4.27747 21.1487 3.80588 21.1487 3.47248 20.9098C3.36473 20.8326 3.26966 20.7391 3.1907 20.6326C2.94635 20.3032 2.9386 19.8317 2.9231 18.8886L2.78074 10.2283Z" fill="#5B6CFF"></path> <path d="M9.57215 18.9678L13.6691 9.49948L15.3374 9.70086L11.3318 19.0728L9.57215 18.9678Z" fill="#5B6CFF"></path> <path d="M4.30692 13.7972L7.6596 10.3274L8.91045 11.5609L6.61651 13.935L8.61182 16.565L7.22314 17.6411L4.30692 13.7972Z" fill="#5B6CFF"></path> <path d="M16.3891 12.0072L17.7778 10.9312L20.694 14.7751L17.3414 18.2449L16.0905 17.0113L18.3844 14.6373L16.3891 12.0072Z" fill="#5B6CFF"></path> </svg> 