<?xml version="1.0" encoding="UTF-8"?> <svg xmlns="http://www.w3.org/2000/svg" width="360" height="282" viewBox="0 0 360 282" fill="none"> <path d="M307.8 0.5H52.2H52.1762C43.2355 0.5 36.4981 0.499999 31.1417 0.937634C25.7748 1.37613 21.7501 2.25649 18.2453 4.04229C12.13 7.15817 7.15817 12.13 4.04229 18.2453C2.25649 21.7501 1.37613 25.7748 0.937634 31.1417C0.499999 36.4981 0.5 43.2355 0.5 52.1762V52.2V229.8V229.824C0.5 238.765 0.499999 245.502 0.937634 250.858C1.37613 256.225 2.25649 260.25 4.04229 263.755C7.15817 269.87 12.13 274.842 18.2453 277.958C21.7501 279.743 25.7748 280.624 31.1418 281.062C36.4981 281.5 43.2352 281.5 52.1757 281.5H52.2H307.8H307.824C316.765 281.5 323.502 281.5 328.858 281.062C334.225 280.624 338.25 279.743 341.755 277.958C347.87 274.842 352.842 269.87 355.958 263.755C357.743 260.25 358.624 256.225 359.062 250.858C359.5 245.502 359.5 238.765 359.5 229.824V229.8V52.2V52.1757C359.5 43.2352 359.5 36.498 359.062 31.1417C358.624 25.7748 357.743 21.7501 355.958 18.2453C352.842 12.13 347.87 7.15817 341.755 4.04229C338.25 2.25649 334.225 1.37613 328.858 0.937634C323.502 0.499999 316.765 0.5 307.824 0.5H307.8Z" stroke="url(#paint0_linear_136_207)" stroke-opacity="0.5"></path> <defs> <linearGradient id="paint0_linear_136_207" x1="223.83" y1="0.999999" x2="45.6189" y2="226.262" gradientUnits="userSpaceOnUse"> <stop stop-color="#F1F2FB"></stop> <stop offset="1" stop-color="#F1F2FB" stop-opacity="0.32"></stop> </linearGradient> </defs> </svg> 