<?xml version="1.0" encoding="UTF-8"?> <svg xmlns="http://www.w3.org/2000/svg" width="450" height="1040" viewBox="0 0 450 1040" fill="none"> <g filter="url(#filter0_b_179_987)"> <path d="M1 52.2C1 34.2783 1 25.3175 4.48779 18.4723C7.55574 12.4511 12.4511 7.55574 18.4723 4.48779C25.3175 1 34.2783 1 52.2 1H397.8C415.722 1 424.683 1 431.528 4.48779C437.549 7.55574 442.444 12.4511 445.512 18.4723C449 25.3175 449 34.2783 449 52.2V987.8C449 1005.72 449 1014.68 445.512 1021.53C442.444 1027.55 437.549 1032.44 431.528 1035.51C424.683 1039 415.722 1039 397.8 1039H52.2C34.2783 1039 25.3175 1039 18.4723 1035.51C12.4511 1032.44 7.55574 1027.55 4.48779 1021.53C1 1014.68 1 1005.72 1 987.8V52.2Z" fill="#F1F2FB" fill-opacity="0.07"></path> <path d="M397.8 0.5H52.2H52.1762C43.2355 0.5 36.4981 0.499999 31.1417 0.937634C25.7748 1.37613 21.7501 2.25649 18.2453 4.04229C12.13 7.15817 7.15817 12.13 4.04229 18.2453C2.25649 21.7501 1.37613 25.7748 0.937634 31.1418C0.499999 36.4981 0.5 43.2355 0.5 52.1762V52.2V987.8V987.824C0.5 996.765 0.499999 1003.5 0.937634 1008.86C1.37613 1014.23 2.25649 1018.25 4.04229 1021.75C7.15817 1027.87 12.13 1032.84 18.2453 1035.96C21.7501 1037.74 25.7748 1038.62 31.1418 1039.06C36.4984 1039.5 43.2362 1039.5 52.1776 1039.5H52.2H397.8H397.822C406.764 1039.5 413.502 1039.5 418.858 1039.06C424.225 1038.62 428.25 1037.74 431.755 1035.96C437.87 1032.84 442.842 1027.87 445.958 1021.75C447.744 1018.25 448.624 1014.23 449.062 1008.86C449.5 1003.5 449.5 996.765 449.5 987.824V987.8V52.2V52.1757C449.5 43.2352 449.5 36.498 449.062 31.1417C448.624 25.7748 447.744 21.7501 445.958 18.2453C442.842 12.13 437.87 7.15817 431.755 4.04229C428.25 2.25649 424.225 1.37613 418.858 0.937634C413.502 0.499999 406.765 0.5 397.824 0.5H397.8Z" stroke="url(#paint0_linear_179_987)" stroke-opacity="0.5"></path> </g> <defs> <filter id="filter0_b_179_987" x="-20" y="-20" width="490" height="1080" filterUnits="userSpaceOnUse" color-interpolation-filters="sRGB"> <feFlood flood-opacity="0" result="BackgroundImageFix"></feFlood> <feGaussianBlur in="BackgroundImage" stdDeviation="10"></feGaussianBlur> <feComposite in2="SourceAlpha" operator="in" result="effect1_backgroundBlur_179_987"></feComposite> <feBlend mode="normal" in="SourceGraphic" in2="effect1_backgroundBlur_179_987" result="shape"></feBlend> </filter> <linearGradient id="paint0_linear_179_987" x1="279.849" y1="0.999995" x2="-210.822" y2="209.573" gradientUnits="userSpaceOnUse"> <stop stop-color="#F1F2FB"></stop> <stop offset="1" stop-color="#F1F2FB" stop-opacity="0.32"></stop> </linearGradient> </defs> </svg> 