<?xml version="1.0" encoding="UTF-8"?> <svg xmlns="http://www.w3.org/2000/svg" width="254" height="110" viewBox="0 0 254 110" fill="none"> <path d="M13.5972 71.0953C13.5972 72.4968 13.3657 73.7312 12.9029 74.7984C12.44 75.8656 11.7457 76.7014 10.8199 77.3057C9.90698 77.8971 8.76906 78.1929 7.40613 78.1929C6.01748 78.1929 4.86027 77.8971 3.93451 77.3057C3.0216 76.7014 2.3337 75.8656 1.87082 74.7984C1.42079 73.7183 1.19578 72.4775 1.19578 71.076C1.19578 69.6745 1.42722 68.4466 1.89011 67.3923C2.36585 66.3379 3.0666 65.515 3.99237 64.9236C4.93099 64.3192 6.0882 64.0171 7.46399 64.0171C8.78835 64.0171 9.90698 64.3064 10.8199 64.885C11.7328 65.4507 12.4207 66.2608 12.8836 67.3151C13.3593 68.3695 13.5972 69.6295 13.5972 71.0953ZM2.37228 71.076C2.37228 72.2975 2.55229 73.3712 2.91231 74.2969C3.27233 75.2098 3.82521 75.9235 4.57097 76.4378C5.31673 76.9392 6.26178 77.19 7.40613 77.19C8.56334 77.19 9.50839 76.9392 10.2413 76.4378C10.987 75.9363 11.5335 75.2291 11.8807 74.3162C12.2407 73.3905 12.4207 72.3168 12.4207 71.0953C12.4207 69.1795 12.0028 67.688 11.1671 66.6208C10.3441 65.5536 9.10979 65.02 7.46399 65.02C6.31964 65.02 5.36816 65.2771 4.60954 65.7915C3.85093 66.2929 3.28518 67.0001 2.91231 67.913C2.55229 68.8131 2.37228 69.8674 2.37228 71.076ZM17.6007 67.7394V72.1947H23.8882V67.7394H24.9875V78H23.8882V73.1397H17.6007V78H16.5014V67.7394H17.6007ZM35.6379 78H34.5193V68.6845H31.0477C30.8934 70.8446 30.6876 72.619 30.4305 74.0076C30.1733 75.3963 29.8133 76.4249 29.3504 77.0935C28.9004 77.7621 28.3025 78.0964 27.5568 78.0964C27.2353 78.0964 26.9846 78.0643 26.8046 78V77.1321C26.9331 77.1707 27.126 77.19 27.3832 77.19C28.1675 77.19 28.759 76.4249 29.1576 74.8948C29.5562 73.3647 29.8647 70.9796 30.0833 67.7394H35.6379V78ZM42.6536 67.5658C43.8109 67.5658 44.6723 67.8487 45.2381 68.4145C45.8038 68.9802 46.0867 69.8738 46.0867 71.0953V78H45.2574L45.0645 76.2642H45.0066C44.6338 76.8428 44.1773 77.3121 43.6373 77.6721C43.1101 78.0193 42.3708 78.1929 41.4193 78.1929C40.4292 78.1929 39.6513 77.9486 39.0856 77.46C38.5198 76.9585 38.237 76.2449 38.237 75.3191C38.237 74.2905 38.6548 73.5126 39.4906 72.9854C40.3264 72.4454 41.5414 72.1432 43.1358 72.079L45.0066 71.9825V71.2689C45.0066 70.266 44.8009 69.5524 44.3895 69.1281C43.9909 68.7038 43.3994 68.4916 42.6151 68.4916C42.0879 68.4916 41.58 68.5623 41.0914 68.7038C40.6028 68.8452 40.1142 69.0316 39.6256 69.2631L39.2785 68.3759C39.7671 68.1444 40.2942 67.9516 40.86 67.7973C41.4386 67.643 42.0365 67.5658 42.6536 67.5658ZM43.2708 72.889C41.9593 72.9533 40.9821 73.1847 40.3392 73.5833C39.7092 73.9691 39.3942 74.5477 39.3942 75.3191C39.3942 75.962 39.587 76.4506 39.9728 76.7849C40.3714 77.1064 40.9178 77.2671 41.6122 77.2671C42.6794 77.2671 43.5087 76.9649 44.1002 76.3606C44.6916 75.7434 44.9938 74.8948 45.0066 73.8148V72.8119L43.2708 72.889ZM56.7741 63.6121C56.6584 65.4122 55.5848 66.3122 53.5532 66.3122C52.5246 66.3122 51.7596 66.0936 51.2581 65.6565C50.7567 65.2193 50.4802 64.5378 50.4288 63.6121H51.4703C51.5217 64.3064 51.7081 64.795 52.0296 65.0778C52.3639 65.3607 52.8782 65.5022 53.5725 65.5022C54.2283 65.5022 54.7362 65.3607 55.0962 65.0778C55.4562 64.795 55.6684 64.3064 55.7326 63.6121H56.7741ZM50.4288 74.8755C50.4288 75.1584 50.4159 75.4799 50.3902 75.8399C50.3773 76.1999 50.3645 76.5213 50.3516 76.8042L56.3498 67.7394H57.6999V78H56.6584V70.8446C56.6584 70.5617 56.6584 70.2403 56.6584 69.8803C56.6713 69.5074 56.6906 69.1859 56.7163 68.9159L50.6988 78H49.368V67.7394H50.4288V74.8755ZM62.2202 67.7394V72.1947H68.5077V67.7394H69.6071V78H68.5077V73.1397H62.2202V78H61.1209V67.7394H62.2202ZM72.0799 73.294V72.2911H76.7473V73.294H72.0799ZM92.4325 67.7394V78H79.2018V67.7394H80.3012V77.0357H85.2579V67.7394H86.3572V77.0357H91.3332V67.7394H92.4325ZM101.523 67.7394H102.777L98.1863 72.7154L103.066 78H101.735L96.9327 72.7926V78H95.8334V67.7394H96.9327V72.7154L101.523 67.7394ZM113.155 72.8504C113.155 73.9305 112.975 74.8691 112.615 75.6663C112.268 76.4635 111.747 77.0871 111.053 77.5371C110.372 77.9743 109.536 78.1929 108.546 78.1929C107.594 78.1929 106.778 77.9743 106.096 77.5371C105.415 77.0999 104.888 76.4828 104.515 75.6856C104.155 74.8755 103.975 73.9305 103.975 72.8504C103.975 71.1918 104.386 69.8931 105.209 68.9545C106.032 68.0159 107.17 67.5466 108.623 67.5466C109.6 67.5466 110.423 67.7716 111.092 68.2216C111.773 68.6588 112.287 69.2759 112.635 70.0731C112.982 70.8703 113.155 71.7961 113.155 72.8504ZM105.113 72.8504C105.113 74.1748 105.389 75.242 105.942 76.052C106.508 76.8492 107.382 77.2478 108.565 77.2478C109.761 77.2478 110.635 76.8428 111.188 76.0327C111.741 75.2227 112.017 74.1619 112.017 72.8504C112.017 72.0018 111.902 71.2496 111.67 70.5939C111.439 69.9381 111.072 69.4238 110.571 69.0509C110.069 68.6781 109.414 68.4916 108.604 68.4916C107.446 68.4916 106.572 68.8773 105.981 69.6488C105.402 70.4203 105.113 71.4875 105.113 72.8504ZM123.201 78H122.082V68.6845H118.61C118.456 70.8446 118.25 72.619 117.993 74.0076C117.736 75.3963 117.376 76.4249 116.913 77.0935C116.463 77.7621 115.865 78.0964 115.12 78.0964C114.798 78.0964 114.547 78.0643 114.367 78V77.1321C114.496 77.1707 114.689 77.19 114.946 77.19C115.73 77.19 116.322 76.4249 116.72 74.8948C117.119 73.3647 117.428 70.9796 117.646 67.7394H123.201V78ZM130.216 67.5658C131.374 67.5658 132.235 67.8487 132.801 68.4145C133.367 68.9802 133.649 69.8738 133.649 71.0953V78H132.82L132.627 76.2642H132.569C132.197 76.8428 131.74 77.3121 131.2 77.6721C130.673 78.0193 129.934 78.1929 128.982 78.1929C127.992 78.1929 127.214 77.9486 126.648 77.46C126.083 76.9585 125.8 76.2449 125.8 75.3191C125.8 74.2905 126.218 73.5126 127.053 72.9854C127.889 72.4454 129.104 72.1432 130.699 72.079L132.569 71.9825V71.2689C132.569 70.266 132.364 69.5524 131.952 69.1281C131.554 68.7038 130.962 68.4916 130.178 68.4916C129.651 68.4916 129.143 68.5623 128.654 68.7038C128.166 68.8452 127.677 69.0316 127.188 69.2631L126.841 68.3759C127.33 68.1444 127.857 67.9516 128.423 67.7973C129.001 67.643 129.599 67.5658 130.216 67.5658ZM130.834 72.889C129.522 72.9533 128.545 73.1847 127.902 73.5833C127.272 73.9691 126.957 74.5477 126.957 75.3191C126.957 75.962 127.15 76.4506 127.536 76.7849C127.934 77.1064 128.481 77.2671 129.175 77.2671C130.242 77.2671 131.071 76.9649 131.663 76.3606C132.254 75.7434 132.557 74.8948 132.569 73.8148V72.8119L130.834 72.889ZM145.567 67.5658C146.724 67.5658 147.585 67.8487 148.151 68.4145C148.717 68.9802 149 69.8738 149 71.0953V78H148.17L147.978 76.2642H147.92C147.547 76.8428 147.09 77.3121 146.55 77.6721C146.023 78.0193 145.284 78.1929 144.332 78.1929C143.342 78.1929 142.564 77.9486 141.999 77.46C141.433 76.9585 141.15 76.2449 141.15 75.3191C141.15 74.2905 141.568 73.5126 142.404 72.9854C143.239 72.4454 144.455 72.1432 146.049 72.079L147.92 71.9825V71.2689C147.92 70.266 147.714 69.5524 147.303 69.1281C146.904 68.7038 146.313 68.4916 145.528 68.4916C145.001 68.4916 144.493 68.5623 144.005 68.7038C143.516 68.8452 143.027 69.0316 142.539 69.2631L142.192 68.3759C142.68 68.1444 143.207 67.9516 143.773 67.7973C144.352 67.643 144.95 67.5658 145.567 67.5658ZM146.184 72.889C144.872 72.9533 143.895 73.1847 143.252 73.5833C142.622 73.9691 142.307 74.5477 142.307 75.3191C142.307 75.962 142.5 76.4506 142.886 76.7849C143.284 77.1064 143.831 77.2671 144.525 77.2671C145.592 77.2671 146.422 76.9649 147.013 76.3606C147.605 75.7434 147.907 74.8948 147.92 73.8148V72.8119L146.184 72.889ZM153.38 67.7394V72.1947H159.668V67.7394H160.767V78H159.668V73.1397H153.38V78H152.281V67.7394H153.38ZM170.241 67.7394V68.6845H165.265V78H164.166V67.7394H170.241ZM179.008 78H177.889V68.6845H174.418C174.264 70.8446 174.058 72.619 173.801 74.0076C173.544 75.3963 173.183 76.4249 172.721 77.0935C172.271 77.7621 171.673 78.0964 170.927 78.0964C170.605 78.0964 170.355 78.0643 170.175 78V77.1321C170.303 77.1707 170.496 77.19 170.753 77.19C171.538 77.19 172.129 76.4249 172.528 74.8948C172.926 73.3647 173.235 70.9796 173.453 67.7394H179.008V78ZM183.459 74.8755C183.459 75.1584 183.446 75.4799 183.42 75.8399C183.407 76.1999 183.394 76.5213 183.382 76.8042L189.38 67.7394H190.73V78H189.688V70.8446C189.688 70.5617 189.688 70.2403 189.688 69.8803C189.701 69.5074 189.72 69.1859 189.746 68.9159L183.729 78H182.398V67.7394H183.459V74.8755ZM201.557 63.6121C201.441 65.4122 200.368 66.3122 198.336 66.3122C197.307 66.3122 196.542 66.0936 196.041 65.6565C195.539 65.2193 195.263 64.5378 195.212 63.6121H196.253C196.304 64.3064 196.491 64.795 196.812 65.0778C197.147 65.3607 197.661 65.5022 198.355 65.5022C199.011 65.5022 199.519 65.3607 199.879 65.0778C200.239 64.795 200.451 64.3064 200.515 63.6121H201.557ZM195.212 74.8755C195.212 75.1584 195.199 75.4799 195.173 75.8399C195.16 76.1999 195.147 76.5213 195.134 76.8042L201.133 67.7394H202.483V78H201.441V70.8446C201.441 70.5617 201.441 70.2403 201.441 69.8803C201.454 69.5074 201.473 69.1859 201.499 68.9159L195.482 78H194.151V67.7394H195.212V74.8755ZM210.012 78.1929C208.507 78.1929 207.344 77.73 206.521 76.8042C205.711 75.8785 205.306 74.5862 205.306 72.9276C205.306 71.7704 205.512 70.7932 205.923 69.996C206.334 69.1988 206.907 68.5945 207.639 68.183C208.385 67.7587 209.253 67.5466 210.243 67.5466C210.732 67.5466 211.195 67.5916 211.632 67.6816C212.069 67.7716 212.455 67.8937 212.789 68.048L212.48 68.9931C212.133 68.8516 211.76 68.7423 211.362 68.6652C210.963 68.5752 210.584 68.5302 210.224 68.5302C209.002 68.5302 208.064 68.9224 207.408 69.7067C206.765 70.491 206.444 71.5582 206.444 72.9083C206.444 74.1941 206.733 75.2356 207.312 76.0327C207.89 76.8171 208.79 77.2092 210.012 77.2092C210.513 77.2092 210.989 77.1578 211.439 77.0549C211.889 76.9521 212.294 76.8235 212.654 76.6692V77.6528C212.32 77.82 211.934 77.9486 211.497 78.0386C211.073 78.1414 210.578 78.1929 210.012 78.1929ZM220.766 67.7394H222.019L217.429 72.7154L222.309 78H220.978L216.176 72.7926V78H215.076V67.7394H216.176V72.7154L220.766 67.7394ZM232.398 72.8504C232.398 73.9305 232.218 74.8691 231.858 75.6663C231.511 76.4635 230.99 77.0871 230.296 77.5371C229.614 77.9743 228.779 78.1929 227.789 78.1929C226.837 78.1929 226.021 77.9743 225.339 77.5371C224.658 77.0999 224.131 76.4828 223.758 75.6856C223.398 74.8755 223.218 73.9305 223.218 72.8504C223.218 71.1918 223.629 69.8931 224.452 68.9545C225.275 68.0159 226.413 67.5466 227.866 67.5466C228.843 67.5466 229.666 67.7716 230.334 68.2216C231.016 68.6588 231.53 69.2759 231.877 70.0731C232.225 70.8703 232.398 71.7961 232.398 72.8504ZM224.356 72.8504C224.356 74.1748 224.632 75.242 225.185 76.052C225.751 76.8492 226.625 77.2478 227.808 77.2478C229.004 77.2478 229.878 76.8428 230.431 76.0327C230.984 75.2227 231.26 74.1619 231.26 72.8504C231.26 72.0018 231.145 71.2496 230.913 70.5939C230.682 69.9381 230.315 69.4238 229.814 69.0509C229.312 68.6781 228.657 68.4916 227.846 68.4916C226.689 68.4916 225.815 68.8773 225.223 69.6488C224.645 70.4203 224.356 71.4875 224.356 72.8504ZM241.267 67.7394V68.6845H236.291V78H235.192V67.7394H241.267ZM251.76 72.8504C251.76 73.9305 251.58 74.8691 251.22 75.6663C250.873 76.4635 250.352 77.0871 249.658 77.5371C248.977 77.9743 248.141 78.1929 247.151 78.1929C246.199 78.1929 245.383 77.9743 244.701 77.5371C244.02 77.0999 243.493 76.4828 243.12 75.6856C242.76 74.8755 242.58 73.9305 242.58 72.8504C242.58 71.1918 242.991 69.8931 243.814 68.9545C244.637 68.0159 245.775 67.5466 247.228 67.5466C248.205 67.5466 249.028 67.7716 249.697 68.2216C250.378 68.6588 250.892 69.2759 251.24 70.0731C251.587 70.8703 251.76 71.7961 251.76 72.8504ZM243.718 72.8504C243.718 74.1748 243.994 75.242 244.547 76.052C245.113 76.8492 245.987 77.2478 247.17 77.2478C248.366 77.2478 249.24 76.8428 249.793 76.0327C250.346 75.2227 250.622 74.1619 250.622 72.8504C250.622 72.0018 250.507 71.2496 250.275 70.5939C250.044 69.9381 249.677 69.4238 249.176 69.0509C248.674 68.6781 248.019 68.4916 247.209 68.4916C246.051 68.4916 245.177 68.8773 244.586 69.6488C244.007 70.4203 243.718 71.4875 243.718 72.8504ZM5.80532 101.193C4.30095 101.193 3.13732 100.73 2.31441 99.8042C1.50437 98.8785 1.09935 97.5862 1.09935 95.9276C1.09935 94.7704 1.30507 93.7932 1.71652 92.996C2.12798 92.1988 2.70015 91.5945 3.43305 91.183C4.1788 90.7587 5.04671 90.5466 6.03677 90.5466C6.52536 90.5466 6.98825 90.5916 7.42541 90.6816C7.86258 90.7716 8.24832 90.8937 8.58262 91.048L8.27403 91.9931C7.92687 91.8516 7.55399 91.7423 7.1554 91.6652C6.75681 91.5752 6.3775 91.5302 6.01748 91.5302C4.79598 91.5302 3.85736 91.9224 3.20161 92.7067C2.55871 93.491 2.23727 94.5582 2.23727 95.9083C2.23727 97.1941 2.52657 98.2356 3.10517 99.0327C3.68378 99.8171 4.58383 100.209 5.80532 100.209C6.30678 100.209 6.78252 100.158 7.23255 100.055C7.68257 99.9521 8.08759 99.8235 8.44761 99.6692V100.653C8.11331 100.82 7.72757 100.949 7.29041 101.039C6.8661 101.141 6.37107 101.193 5.80532 101.193ZM20.4894 90.5466C21.8009 90.5466 22.8231 90.9902 23.556 91.8773C24.2889 92.7645 24.6553 94.076 24.6553 95.8119C24.6553 97.5477 24.2696 98.8785 23.4981 99.8042C22.7395 100.73 21.698 101.193 20.3736 101.193C19.4736 101.193 18.7471 101 18.1942 100.614C17.6413 100.229 17.2363 99.7656 16.9792 99.2256H16.902C16.9277 99.5471 16.947 99.9007 16.9599 100.286C16.9727 100.659 16.9792 101.006 16.9792 101.328V105.552H15.8798V90.7394H16.7863L16.9213 92.6488H16.9792C17.2363 92.0959 17.6478 91.6073 18.2135 91.183C18.7793 90.7587 19.5379 90.5466 20.4894 90.5466ZM20.3351 91.4916C19.1907 91.4916 18.3485 91.8516 17.8085 92.5717C17.2685 93.2917 16.992 94.3268 16.9792 95.6768V95.8697C16.9792 97.3355 17.2427 98.4349 17.7699 99.1678C18.3099 99.8878 19.1393 100.248 20.2579 100.248C21.3123 100.248 22.1159 99.8557 22.6688 99.0713C23.2345 98.2741 23.5174 97.1812 23.5174 95.7926C23.5174 94.4168 23.2474 93.356 22.7073 92.6102C22.1802 91.8645 21.3894 91.4916 20.3351 91.4916ZM31.3214 90.5466C32.1958 90.5466 32.9223 90.7523 33.5009 91.1637C34.0923 91.5623 34.5359 92.1152 34.8316 92.8224C35.1402 93.5296 35.2945 94.3396 35.2945 95.2525V96.0047H27.9655C27.9655 97.3677 28.2806 98.4156 28.9106 99.1485C29.5535 99.8685 30.4664 100.229 31.6493 100.229C32.2794 100.229 32.8322 100.177 33.308 100.074C33.7837 99.9585 34.3045 99.7785 34.8702 99.5342V100.537C34.3559 100.769 33.848 100.936 33.3466 101.039C32.8451 101.141 32.2665 101.193 31.6107 101.193C30.0678 101.193 28.8849 100.724 28.062 99.7849C27.2391 98.8463 26.8276 97.567 26.8276 95.9469C26.8276 94.9054 27.0012 93.9796 27.3484 93.1696C27.7084 92.3595 28.2227 91.7231 28.8913 91.2602C29.5599 90.7844 30.37 90.5466 31.3214 90.5466ZM31.3022 91.4723C30.3635 91.4723 29.5985 91.7873 29.007 92.4174C28.4284 93.0474 28.0941 93.941 28.0041 95.0982H34.1566C34.1566 94.0182 33.9187 93.1438 33.443 92.4752C32.9801 91.8066 32.2665 91.4723 31.3022 91.4723ZM46.3412 90.7394V101H45.2418V91.7038H39.1665V101H38.0672V90.7394H46.3412ZM53.6595 90.5466C54.5338 90.5466 55.2603 90.7523 55.8389 91.1637C56.4303 91.5623 56.8739 92.1152 57.1697 92.8224C57.4783 93.5296 57.6325 94.3396 57.6325 95.2525V96.0047H50.3036C50.3036 97.3677 50.6186 98.4156 51.2486 99.1485C51.8915 99.8685 52.8044 100.229 53.9873 100.229C54.6174 100.229 55.1703 100.177 55.646 100.074C56.1217 99.9585 56.6425 99.7785 57.2082 99.5342V100.537C56.6939 100.769 56.186 100.936 55.6846 101.039C55.1831 101.141 54.6045 101.193 53.9488 101.193C52.4058 101.193 51.2229 100.724 50.4 99.7849C49.5771 98.8463 49.1656 97.567 49.1656 95.9469C49.1656 94.9054 49.3392 93.9796 49.6864 93.1696C50.0464 92.3595 50.5607 91.7231 51.2293 91.2602C51.8979 90.7844 52.708 90.5466 53.6595 90.5466ZM53.6402 91.4723C52.7016 91.4723 51.9365 91.7873 51.3451 92.4174C50.7665 93.0474 50.4321 93.941 50.3421 95.0982H56.4946C56.4946 94.0182 56.2568 93.1438 55.781 92.4752C55.3181 91.8066 54.6045 91.4723 53.6402 91.4723ZM67.0398 91.6845H63.6068V101H62.5074V91.6845H59.0937V90.7394H67.0398V91.6845ZM70.1864 97.8755C70.1864 98.1584 70.1736 98.4799 70.1479 98.8399C70.135 99.1999 70.1222 99.5213 70.1093 99.8042L76.1075 90.7394H77.4576V101H76.4161V93.8446C76.4161 93.5617 76.4161 93.2403 76.4161 92.8803C76.4289 92.5074 76.4482 92.1859 76.4739 91.9159L70.4565 101H69.1257V90.7394H70.1864V97.8755ZM87.5132 91.6845H84.0802V101H82.9808V91.6845H79.5671V90.7394H87.5132V91.6845ZM97.9933 95.8504C97.9933 96.9305 97.8133 97.8691 97.4533 98.6663C97.1061 99.4635 96.5854 100.087 95.8911 100.537C95.2096 100.974 94.3738 101.193 93.3838 101.193C92.4323 101.193 91.6158 100.974 90.9344 100.537C90.2529 100.1 89.7257 99.4828 89.3528 98.6856C88.9928 97.8755 88.8128 96.9305 88.8128 95.8504C88.8128 94.1918 89.2243 92.8931 90.0472 91.9545C90.8701 91.0159 92.008 90.5466 93.4609 90.5466C94.4381 90.5466 95.261 90.7716 95.9296 91.2216C96.6111 91.6588 97.1254 92.2759 97.4726 93.0731C97.8197 93.8703 97.9933 94.7961 97.9933 95.8504ZM89.9507 95.8504C89.9507 97.1748 90.2272 98.242 90.7801 99.052C91.3458 99.8492 92.2201 100.248 93.4031 100.248C94.5988 100.248 95.4732 99.8428 96.0261 99.0327C96.579 98.2227 96.8554 97.1619 96.8554 95.8504C96.8554 95.0018 96.7397 94.2496 96.5082 93.5939C96.2768 92.9381 95.9103 92.4238 95.4089 92.0509C94.9074 91.6781 94.2517 91.4916 93.4416 91.4916C92.2844 91.4916 91.4101 91.8773 90.8186 92.6488C90.24 93.4203 89.9507 94.4875 89.9507 95.8504ZM105.396 90.5466C106.708 90.5466 107.73 90.9902 108.463 91.8773C109.196 92.7645 109.562 94.076 109.562 95.8119C109.562 97.5477 109.177 98.8785 108.405 99.8042C107.647 100.73 106.605 101.193 105.281 101.193C104.381 101.193 103.654 101 103.101 100.614C102.548 100.229 102.143 99.7656 101.886 99.2256H101.809C101.835 99.5471 101.854 99.9007 101.867 100.286C101.88 100.659 101.886 101.006 101.886 101.328V105.552H100.787V90.7394H101.693L101.828 92.6488H101.886C102.143 92.0959 102.555 91.6073 103.121 91.183C103.686 90.7587 104.445 90.5466 105.396 90.5466ZM105.242 91.4916C104.098 91.4916 103.256 91.8516 102.716 92.5717C102.176 93.2917 101.899 94.3268 101.886 95.6768V95.8697C101.886 97.3355 102.15 98.4349 102.677 99.1678C103.217 99.8878 104.046 100.248 105.165 100.248C106.219 100.248 107.023 99.8557 107.576 99.0713C108.142 98.2741 108.424 97.1812 108.424 95.7926C108.424 94.4168 108.154 93.356 107.614 92.6102C107.087 91.8645 106.296 91.4916 105.242 91.4916ZM115.959 90.5658C117.116 90.5658 117.977 90.8487 118.543 91.4145C119.109 91.9802 119.392 92.8738 119.392 94.0953V101H118.562L118.369 99.2642H118.312C117.939 99.8428 117.482 100.312 116.942 100.672C116.415 101.019 115.676 101.193 114.724 101.193C113.734 101.193 112.956 100.949 112.39 100.46C111.825 99.9585 111.542 99.2449 111.542 98.3191C111.542 97.2905 111.96 96.5126 112.795 95.9854C113.631 95.4454 114.846 95.1432 116.441 95.079L118.312 94.9825V94.2689C118.312 93.266 118.106 92.5524 117.694 92.1281C117.296 91.7038 116.704 91.4916 115.92 91.4916C115.393 91.4916 114.885 91.5623 114.396 91.7038C113.908 91.8452 113.419 92.0316 112.93 92.2631L112.583 91.3759C113.072 91.1444 113.599 90.9516 114.165 90.7973C114.743 90.643 115.341 90.5658 115.959 90.5658ZM116.576 95.889C115.264 95.9533 114.287 96.1847 113.644 96.5833C113.014 96.9691 112.699 97.5477 112.699 98.3191C112.699 98.962 112.892 99.4506 113.278 99.7849C113.676 100.106 114.223 100.267 114.917 100.267C115.984 100.267 116.814 99.9649 117.405 99.3606C117.996 98.7434 118.299 97.8948 118.312 96.8148V95.8119L116.576 95.889ZM132.856 90.7394V101H131.853V93.7867C131.853 93.2853 131.873 92.7453 131.911 92.1666H131.853L128.208 101H127.263L123.657 92.1474H123.618C123.631 92.4431 123.637 92.726 123.637 92.996C123.65 93.2531 123.657 93.536 123.657 93.8446V101H122.634V90.7394H124.139L127.745 99.6306L131.391 90.7394H132.856ZM137.031 97.8755C137.031 98.1584 137.018 98.4799 136.992 98.8399C136.98 99.1999 136.967 99.5213 136.954 99.8042L142.952 90.7394H144.302V101H143.261V93.8446C143.261 93.5617 143.261 93.2403 143.261 92.8803C143.273 92.5074 143.293 92.1859 143.318 91.9159L137.301 101H135.97V90.7394H137.031V97.8755ZM161.316 95.8504C161.316 96.9305 161.136 97.8691 160.776 98.6663C160.429 99.4635 159.908 100.087 159.214 100.537C158.532 100.974 157.696 101.193 156.706 101.193C155.755 101.193 154.938 100.974 154.257 100.537C153.575 100.1 153.048 99.4828 152.675 98.6856C152.315 97.8755 152.135 96.9305 152.135 95.8504C152.135 94.1918 152.547 92.8931 153.37 91.9545C154.193 91.0159 155.33 90.5466 156.783 90.5466C157.761 90.5466 158.583 90.7716 159.252 91.2216C159.934 91.6588 160.448 92.2759 160.795 93.0731C161.142 93.8703 161.316 94.7961 161.316 95.8504ZM153.273 95.8504C153.273 97.1748 153.55 98.242 154.103 99.052C154.668 99.8492 155.543 100.248 156.726 100.248C157.921 100.248 158.796 99.8428 159.349 99.0327C159.901 98.2227 160.178 97.1619 160.178 95.8504C160.178 95.0018 160.062 94.2496 159.831 93.5939C159.599 92.9381 159.233 92.4238 158.731 92.0509C158.23 91.6781 157.574 91.4916 156.764 91.4916C155.607 91.4916 154.733 91.8773 154.141 92.6488C153.562 93.4203 153.273 94.4875 153.273 95.8504ZM170.556 91.6845H167.123V101H166.023V91.6845H162.609V90.7394H170.556V91.6845ZM188.086 96.1397C188.086 97.7084 187.629 98.9427 186.716 99.8428C185.816 100.743 184.537 101.193 182.878 101.193C181.22 101.193 179.947 100.743 179.059 99.8428C178.185 98.9427 177.748 97.6955 177.748 96.1012V87.2292H178.867V96.1012C178.867 97.4384 179.214 98.4541 179.908 99.1485C180.602 99.8428 181.612 100.19 182.936 100.19C184.235 100.19 185.231 99.8428 185.926 99.1485C186.633 98.4413 186.986 97.4641 186.986 96.2169V87.2292H188.086V96.1397ZM197.665 88.0393C196.534 88.0393 195.563 88.2964 194.753 88.8107C193.943 89.3122 193.319 90.0194 192.882 90.9323C192.458 91.8323 192.245 92.8803 192.245 94.076C192.245 95.3104 192.438 96.3905 192.824 97.3162C193.21 98.2291 193.788 98.9363 194.56 99.4378C195.344 99.9392 196.315 100.19 197.472 100.19C198.141 100.19 198.752 100.139 199.304 100.036C199.87 99.9328 200.404 99.7978 200.905 99.6306V100.614C200.429 100.794 199.909 100.936 199.343 101.039C198.777 101.141 198.115 101.193 197.356 101.193C195.968 101.193 194.804 100.897 193.866 100.306C192.94 99.7142 192.239 98.8849 191.763 97.8177C191.3 96.7505 191.069 95.5033 191.069 94.076C191.069 92.7131 191.326 91.5045 191.84 90.4501C192.368 89.3829 193.12 88.5472 194.097 87.9428C195.087 87.3385 196.283 87.0364 197.684 87.0364C199.022 87.0364 200.224 87.2871 201.291 87.7885L200.847 88.7722C199.857 88.2836 198.797 88.0393 197.665 88.0393ZM213.905 101H212.787V94.2882H204.937V101H203.818V87.2292H204.937V93.2853H212.787V87.2292H213.905V101ZM218.103 86.9399C218.604 86.9399 218.855 87.2164 218.855 87.7693C218.855 88.335 218.604 88.6179 218.103 88.6179C217.601 88.6179 217.351 88.335 217.351 87.7693C217.351 87.2164 217.601 86.9399 218.103 86.9399ZM218.643 90.7394V101H217.544V90.7394H218.643ZM221.871 100.248C221.871 99.6178 222.148 99.3028 222.701 99.3028C223.279 99.3028 223.569 99.6178 223.569 100.248C223.569 100.891 223.279 101.212 222.701 101.212C222.148 101.212 221.871 100.891 221.871 100.248ZM230.418 87.2292C232.064 87.2292 233.298 87.5185 234.121 88.0971C234.957 88.6629 235.375 89.6337 235.375 91.0094C235.375 92.0638 235.092 92.8931 234.526 93.4974C233.973 94.0889 233.279 94.5068 232.443 94.7511L236.224 101H234.893L231.383 95.0597H228.104V101H226.985V87.2292H230.418ZM230.322 88.2129H228.104V94.0953H230.708C231.826 94.0953 232.688 93.8382 233.292 93.3239C233.909 92.7967 234.218 92.0381 234.218 91.048C234.218 89.9937 233.896 89.2608 233.253 88.8493C232.61 88.425 231.633 88.2129 230.322 88.2129ZM248.752 96.1397C248.752 97.7084 248.296 98.9427 247.383 99.8428C246.483 100.743 245.204 101.193 243.545 101.193C241.886 101.193 240.613 100.743 239.726 99.8428C238.852 98.9427 238.415 97.6955 238.415 96.1012V87.2292H239.533V96.1012C239.533 97.4384 239.881 98.4541 240.575 99.1485C241.269 99.8428 242.279 100.19 243.603 100.19C244.902 100.19 245.898 99.8428 246.592 99.1485C247.3 98.4413 247.653 97.4641 247.653 96.2169V87.2292H248.752V96.1397Z" fill="white"></path> <g clip-path="url(#clip0)"> <path d="M251.447 17.9878C251.447 14.4709 247.606 5.19727 236.729 5.19727C225.851 5.19727 222.01 14.4709 222.01 17.9878V30.5067C222.01 32.5757 224.282 33.8644 226.042 32.7737C230.127 30.2349 235.055 25.0488 236.729 15.7519C238.403 25.0488 243.331 30.2349 247.416 32.7737C249.172 33.8644 251.447 32.5757 251.447 30.5067V17.9878Z" fill="white"></path> <path d="M163.766 4.875H163.172C158.943 4.875 155.537 6.22199 152.889 8.9936C150.24 11.6915 148.912 15.1191 148.912 19.2028C148.912 23.5038 150.236 26.9664 152.92 29.5944C155.603 32.1835 159.009 33.4956 163.172 33.4956H163.766C167.929 33.4956 171.339 32.1835 174.019 29.5944C176.702 26.9703 178.026 23.5077 178.026 19.2028C178.026 15.1191 176.702 11.6915 174.05 8.9936C171.401 6.22199 167.991 4.875 163.766 4.875ZM168.512 23.7561C167.199 24.9401 165.553 25.3865 163.723 25.3865H163.211C161.382 25.3865 159.735 24.944 158.422 23.7561C157.11 22.5722 156.593 21.1281 156.593 19.1639C156.593 17.1299 157.114 15.7945 158.391 14.6494C159.642 13.5004 161.257 12.9453 163.18 12.9453H163.755C165.677 12.9453 167.292 13.5004 168.543 14.6494C169.824 15.7984 170.341 17.1299 170.341 19.1639C170.341 21.1281 169.821 22.5722 168.512 23.7561Z" fill="white"></path> <path d="M68.194 6.15607C67.6504 6.80434 67.3669 7.63892 67.4018 8.48516L67.394 29.9749C67.394 30.8133 67.662 31.6285 68.1979 32.269C68.4892 32.5796 68.8426 32.8241 69.2387 32.9794C69.6348 33.1385 69.9571 33.1657 70.4736 33.1657C71.3397 33.1657 72.0232 33.0104 72.6096 32.4825L89.7668 15.3327V29.971C89.7357 30.8095 90.0231 31.6285 90.5668 32.2651C90.858 32.5757 91.2114 32.8202 91.6075 32.9794C91.9998 33.1385 92.3299 33.1774 92.8502 33.1774C93.3706 33.1774 93.7512 33.1347 94.1512 32.9755C94.5512 32.8163 94.9085 32.5757 95.2075 32.2651C95.7667 31.6363 96.0619 30.8133 96.0269 29.971V8.48516C96.0308 7.57293 95.7629 6.81598 95.1997 6.18325C94.6095 5.62815 93.9415 5.19727 93.06 5.19727C92.1784 5.19727 91.3668 5.38747 90.7609 5.99304L73.6503 23.0963V8.48516C73.6503 7.53412 73.3979 6.81986 72.8503 6.18325C72.5513 5.86494 72.1863 5.6165 71.7824 5.45347C71.3785 5.29043 70.9901 5.20115 70.462 5.20115C69.9338 5.20115 69.6232 5.29043 69.2309 5.4457C68.8387 5.60097 68.4853 5.84553 68.194 6.15607Z" fill="white"></path> <path d="M183.385 32.269C183.684 32.5796 184.042 32.8241 184.442 32.9794C184.842 33.1385 185.222 33.1812 185.743 33.1812C186.263 33.1812 186.593 33.1424 186.985 32.9833C187.381 32.8241 187.735 32.5834 188.026 32.269C188.57 31.6324 188.857 30.8133 188.826 29.9749V15.3366L197.987 24.4937C199.11 25.6156 200.935 25.6156 202.057 24.4937L211.218 15.3366V29.9749C211.187 30.8133 211.471 31.6324 212.014 32.269C212.306 32.5834 212.663 32.8241 213.055 32.9833C213.451 33.1424 213.781 33.1812 214.302 33.1812C214.818 33.1812 215.203 33.1385 215.603 32.9794C215.999 32.8241 216.36 32.5796 216.655 32.269C217.214 31.6402 217.51 30.8172 217.478 29.9749V8.48516C217.478 7.57293 217.21 6.81598 216.651 6.18325C216.061 5.63203 215.393 5.19727 214.511 5.19727C213.626 5.19727 212.814 5.39136 212.212 5.99304L200.022 18.178L187.832 5.99304C187.226 5.39136 186.415 5.19727 185.533 5.19727C184.651 5.19727 183.98 5.63203 183.393 6.18325C182.83 6.81598 182.562 7.57293 182.566 8.48516V29.9749C182.535 30.8172 182.826 31.6402 183.385 32.269Z" fill="white"></path> <path d="M105.134 25.5107C103.98 25.5107 103.04 25.8718 102.353 26.6365C101.704 27.3624 101.343 28.2707 101.343 29.3576C101.343 30.4445 101.669 31.3529 102.318 32.0788C102.967 32.8047 103.906 33.1657 105.134 33.1657C106.361 33.1657 107.301 32.8047 107.984 32.0788C108.671 31.3529 108.994 30.4445 108.994 29.3576C108.994 28.3056 108.633 27.3973 107.945 26.6365C107.266 25.8756 106.326 25.5107 105.134 25.5107Z" fill="white"></path> <path d="M34.5203 6.15995C33.9689 6.7888 33.6737 7.69715 33.6737 8.58608V13.0773C33.6737 17.7394 34.629 20.9574 36.5436 22.8052C39.1572 25.3943 43.0445 26.5395 48.0503 26.5395C52.1707 26.5395 54.2328 25.6156 56.5513 24.6568V30.0176C56.5513 30.9414 56.8037 31.7061 57.3551 32.2962C57.9066 32.8862 58.6872 33.1696 59.6813 33.1696C60.7105 33.1696 61.5726 32.8901 62.0852 32.2962C62.6367 31.7061 62.8542 30.7318 62.8542 30.0176V8.58608C62.8542 7.80972 62.5435 6.71505 61.9881 6.12502C61.4367 5.53498 60.6639 5.20114 59.6697 5.20114C58.6406 5.20114 57.8678 5.49616 57.3513 6.12502C56.8348 6.75387 56.5435 7.62728 56.5435 8.58608V18.1819C54.8503 19.8472 52.462 20.8448 48.5241 20.8448C46.7222 20.8448 43.3863 20.3635 41.363 18.4769C40.295 17.4793 39.9766 15.4841 39.9766 12.7474V8.58608C39.9766 7.69715 39.7047 6.7888 39.1533 6.15995C38.6018 5.5311 37.8213 5.20114 36.831 5.20114C35.8368 5.19726 35.0718 5.5311 34.5203 6.15995Z" fill="white"></path> <path d="M0.807763 6.09396C0.260193 6.71505 0 7.47201 0 8.40364V8.43858C0 12.9531 1.13786 16.1944 3.41358 19.0941C5.72425 21.9977 9.44462 23.4495 14.6407 23.4495C17.3125 23.4495 19.6232 23.0148 21.5727 22.1802C21.7902 22.0715 22.295 21.8541 22.5125 21.7804C21.2116 26.1707 17.565 27.2576 13.8485 27.2964C10.0932 27.3313 8.21744 26.5356 6.01551 24.9013C4.13979 23.5233 2.6563 24.1017 1.75533 25.3012C0.706793 26.718 0.924268 28.3134 2.73008 29.8002C5.32813 31.9779 9.51452 33.1735 13.8834 33.1735C16.5553 33.1735 19.662 32.7426 21.5766 31.908C23.5261 31.0734 25.0445 29.8778 26.0892 28.3523C27.1377 26.8267 27.93 25.1575 28.3999 23.3447C28.8698 21.5319 29.1455 19.4552 29.1455 17.2076V8.58609C29.1455 7.60787 28.8698 6.79657 28.2911 6.14055C27.7513 5.4884 26.9552 5.19727 25.9067 5.19727C24.897 5.19727 24.1009 5.52334 23.5611 6.14055C23.0213 6.79269 22.862 7.59234 22.862 8.57056V8.753C22.862 15.321 19.7941 17.5686 14.4155 17.5686C9.03685 17.5686 6.26017 14.8125 6.26017 8.67925V8.40364C6.26017 7.47201 5.98444 6.68012 5.43687 6.09396C4.85435 5.47287 4.09707 5.19727 3.06795 5.19727C2.11261 5.19727 1.32038 5.47287 0.807763 6.09396Z" fill="white"></path> <path d="M146.663 38.2509C147.203 37.7502 147.502 37.0398 147.483 36.3061V31.3025C147.483 29.6488 146.283 27.3159 143.487 27.246V9.76618C143.487 7.2663 141.646 5.23999 139.145 5.23999H125.366C122.842 5.23999 120.885 7.27406 120.823 9.68078C120.691 14.5175 119.856 19.0204 118.854 22.6111C118.333 24.4821 117.782 26.0426 117.293 27.2421C117.137 27.2421 116.998 27.2421 116.881 27.2421C113.988 27.2421 112.765 29.6294 112.765 31.3025V36.3061C112.741 37.0437 113.04 37.7502 113.584 38.2509C114.345 38.7905 114.9 39.0001 115.883 39.0001C116.866 39.0001 117.603 38.7788 118.186 38.2509C118.741 37.7579 119.048 37.0476 119.025 36.3061V33.1735H141.227V36.3061C141.203 37.0476 141.51 37.7618 142.065 38.2509C142.648 38.7788 143.405 39.0001 144.392 39.0001C145.378 39.0001 145.898 38.7905 146.663 38.2509ZM137.215 11.1209V27.2382C133.219 27.2382 128.131 27.2382 123.98 27.2382C124.295 26.3182 124.601 25.3322 124.893 24.2919C125.895 20.7051 126.749 15.9111 127.021 11.1209H137.215V11.1209Z" fill="white"></path> </g> <defs> <clipPath id="clip0"> <rect width="251.447" height="34.125" fill="white" transform="translate(0 4.875)"></rect> </clipPath> </defs> </svg> 