<?xml version="1.0" encoding="UTF-8"?> <svg xmlns="http://www.w3.org/2000/svg" width="30" height="30" viewBox="0 0 30 30" fill="none"> <g clip-path="url(#clip0_1:235)"> <path fill-rule="evenodd" clip-rule="evenodd" d="M7.23245 12.0478C7.5331 11.8263 7.9649 11.8248 8.8285 11.8219L21.3067 11.7799C22.1813 11.777 22.6186 11.7755 22.9223 11.9988C23.0203 12.0708 23.1062 12.1581 23.1767 12.2572C23.3953 12.5644 23.387 13.0016 23.3704 13.8761L23.2028 22.7118C23.1868 23.5541 23.1788 23.9752 22.96 24.2693C22.8893 24.3643 22.8042 24.4478 22.7078 24.5167C22.4097 24.7299 21.9884 24.7299 21.146 24.7299H8.93852C8.09052 24.7299 7.66652 24.7299 7.36748 24.5148C7.27086 24.4453 7.18569 24.3611 7.11505 24.2653C6.89643 23.9688 6.89146 23.5448 6.88152 22.6969L6.77843 13.9032C6.7683 13.0396 6.76324 12.6078 6.98021 12.3039C7.05026 12.2057 7.13539 12.1193 7.23245 12.0478ZM15.3674 22.7327C8.9722 22.7327 9.26096 13.68 15.2639 13.68C21.2462 13.68 21.211 22.7327 15.3674 22.7327Z" fill="#515DC8"></path> <path d="M10.25 4.75L15 0L19.75 4.75V8.21825L22.125 10.6875L7.89385 10.744L10.25 8.3125V4.75Z" fill="#515DC8"></path> <path d="M7.9127 28.5L7.875 26.125H22.125L22.0873 28.5H7.9127Z" fill="#515DC8"></path> <path d="M17.4883 20.3619L16.7343 21.1158L14.1708 18.8539L15.4432 15.4375L16.408 15.7715L15.3583 18.557L17.4883 20.3619Z" fill="#515DC8"></path> </g> <defs> <clipPath id="clip0_1:235"> <rect width="28.5" height="28.5" fill="white" transform="translate(0.75)"></rect> </clipPath> </defs> </svg> 