<?xml version="1.0" encoding="UTF-8"?> <svg xmlns="http://www.w3.org/2000/svg" width="384" height="396" viewBox="0 0 384 396" fill="none"> <path d="M156.43 51.3755L94.3426 87.1705C72.0026 100.05 60.8326 106.49 52.4753 115.556C47.7295 120.705 43.6888 126.44 40.4543 132.619C34.7584 143.5 32.5499 156.05 28.1328 181.15L16.2951 248.418C10.2006 283.05 7.15331 300.366 12.8724 314.492C16.0725 322.397 21.1285 329.461 27.6271 335.106C39.2409 345.196 56.9179 348.319 92.2717 354.565L232.656 379.367C268.016 385.615 285.697 388.738 300.056 383.236C308.09 380.157 315.253 375.25 320.958 368.917C331.154 357.6 334.198 340.28 340.287 305.64L352.108 238.382C356.519 213.284 358.725 200.734 357.085 188.559C356.153 181.645 354.313 174.872 351.61 168.408C346.85 157.026 338.551 147.149 321.953 127.394L275.795 72.4561C255.929 48.8114 245.996 36.9888 233.141 31.8119C225.92 28.9035 218.161 27.5332 210.382 27.7924C196.536 28.2538 183.167 35.9611 156.43 51.3755Z" fill="#515DC8" fill-opacity="0.1"></path> </svg> 