<?xml version="1.0" encoding="UTF-8"?> <svg xmlns="http://www.w3.org/2000/svg" width="31" height="30" viewBox="0 0 31 30" fill="none"> <path fill-rule="evenodd" clip-rule="evenodd" d="M25.9129 6.67819C25.8084 7.68963 24.217 19.4145 23.7464 24.7484C23.5901 26.5185 22.0345 27.194 19.8394 26.9528C17.6446 26.7119 9.69784 25.5824 7.60465 25.3524C5.51204 25.1224 4.80782 23.7933 4.97414 22.0491C5.50002 16.5243 7.02868 5.30864 7.17125 4.16671C7.41686 2.19785 8.27967 1.34199 9.93487 1.52385C11.2697 1.67087 21.9635 2.97341 23.67 3.19926C25.6166 3.45699 26.1021 4.84927 25.9129 6.67819ZM9.31796 4.09468L9.01882 6.65517L9.89651 6.77237C10.1232 5.88345 10.5827 5.29359 11.5843 5.42024C12.8614 5.58202 13.0074 6.69414 12.8522 7.99726C12.6971 9.30039 12.3238 10.3042 11.0224 10.1394C10.017 10.0119 9.71731 9.32046 9.70385 8.41205L8.82473 8.31286L8.31603 12.6657L9.18142 12.7811C9.40843 11.8934 9.86788 11.3044 10.869 11.4313C12.146 11.5931 12.292 12.7049 12.1368 14.0081C11.9817 15.3115 11.6087 16.3149 10.3073 16.1502C9.34115 16.028 9.02597 15.385 8.99076 14.5294L8.10934 14.4358L7.61353 18.6782L8.46632 18.7922C8.69333 17.9047 9.1525 17.3158 10.1539 17.4424C11.4309 17.6039 11.5769 18.716 11.4217 20.0191C11.2666 21.3226 10.8936 22.326 9.59192 22.1613C8.62577 22.0388 8.31059 21.3961 8.27538 20.5402L7.40684 20.4481L7.10226 23.0558L21.5035 24.8529L21.843 21.9794L20.3567 21.8218L20.4981 20.3994L22.0059 20.6007L22.5535 15.9681L17.1245 15.3924L17.2765 13.8628L22.7164 14.5891L23.2652 9.94398L21.5885 9.75474L21.7342 8.3533L23.4264 8.57944L23.7507 5.83592L9.31796 4.09468ZM19.0888 11.1396C18.0508 11.0083 17.7646 10.2755 17.7694 9.32341L13.7388 8.86817L13.9011 7.30732L17.9435 7.84728C18.1636 6.91673 18.6208 6.29056 19.6508 6.42076C20.9278 6.58254 21.0735 7.69436 20.9187 8.99748C20.7635 10.3009 20.3905 11.3047 19.0888 11.1396ZM14.899 11.963C16.1761 12.1248 16.3221 13.2366 16.1666 14.54C16.0115 15.8432 15.6387 16.8469 14.3371 16.6822C13.0357 16.5175 12.9143 15.4086 13.0695 14.1055C13.2247 12.8024 13.622 11.8012 14.899 11.963ZM14.1507 17.97C15.4278 18.1315 15.5738 19.2436 15.4186 20.5467C15.2635 21.8498 14.8904 22.8536 13.5891 22.6889C12.2877 22.5241 12.166 21.4153 12.3212 20.1121C12.4764 18.809 12.8737 17.8079 14.1507 17.97ZM18.1479 18.497C19.4249 18.6587 19.5709 19.7706 19.4158 21.074C19.2606 22.3771 18.8879 23.3809 17.5859 23.2161C16.2846 23.0514 16.1632 21.9428 16.3183 20.6394C16.4735 19.336 16.8711 18.3352 18.1479 18.497Z" fill="#515DC8"></path> </svg> 