<?xml version="1.0" encoding="UTF-8"?> <svg xmlns="http://www.w3.org/2000/svg" width="165" height="50" viewBox="0 0 165 50" fill="none"> <path fill-rule="evenodd" clip-rule="evenodd" d="M40.2163 14.6738H52.1102L52.4983 26.1529H52.6482L57.5907 14.6738H69.4544L65.1993 35.6564H58.0107L61.3642 19.1692H61.1835L53.6963 35.6564H47.0185L46.3561 19.1692H46.1464L42.793 35.6564H35.9629L40.2163 14.6738Z" fill="white"></path> <path fill-rule="evenodd" clip-rule="evenodd" d="M85.921 27.8606H86.4003C88.647 27.8606 89.9054 25.4048 89.9054 23.5774C89.9054 22.2286 89.1269 21.2088 87.7185 21.2088H87.2694L85.921 27.8606ZM79.9595 21.2088H79.5115C77.384 21.2088 75.9472 23.4559 75.9472 25.4356C75.9472 26.6617 76.6961 27.8606 78.1346 27.8606H78.6127L79.9595 21.2088ZM76.6066 36.0164L77.266 32.6565H75.8269C70.3145 32.6565 68.3066 29.5426 68.3066 26.4245C68.3066 21.8083 72.0226 16.4123 79.332 16.4123H80.5904L81.2179 13.2646H89.2494L88.6196 16.4123H89.8769C92.8115 16.4123 97.5436 17.1019 97.5436 22.678C97.5436 27.5623 94.0408 32.6565 86.8802 32.6565H85.2923L84.6335 36.0164H76.6066Z" fill="white"></path> <path fill-rule="evenodd" clip-rule="evenodd" d="M121.46 14.6738L120.202 20.8796H113.131L110.137 35.6564H102.109L105.104 20.8796H98.0332L99.2916 14.6738H121.46Z" fill="white"></path> <path fill-rule="evenodd" clip-rule="evenodd" d="M131.282 14.6738L128.855 26.6616H128.975L136.706 14.6738H146.081L141.828 35.6564H133.799L136.194 23.9058H136.075L128.378 35.6564H119.002L123.254 14.6738H131.282Z" fill="white"></path> <path fill-rule="evenodd" clip-rule="evenodd" d="M152.316 43.5639L153.457 37.6162L164.691 40.9976L152.316 43.5639Z" fill="white"></path> <path fill-rule="evenodd" clip-rule="evenodd" d="M149.653 38.9709H33.5926C31.4488 38.9709 30.5163 41.3512 29.6163 43.6529C29.3014 44.4546 28.807 45.7163 28.4294 46.236C27.7444 45.5523 27.2413 42.2855 27.0449 40.9977L26.9357 40.286C26.2449 35.8663 25.6232 31.2017 25.0207 26.6936C22.3889 6.975 21.1415 0.0709295 17.479 0.00116207C12.8857 -0.0848844 11.2531 8.05697 6.40886 32.2227L5.77442 35.3802C5.05574 38.9709 3.41968 38.9709 2.72134 38.9709H0.540898L0 42.0808H2.72134C4.54331 42.0808 7.76023 41.2895 8.82227 35.9924L9.45438 32.8343C12.4424 17.936 15.2654 3.88139 17.2593 3.17849C18.9918 5.02384 20.6907 17.7384 21.9398 27.1035C22.5457 31.6308 23.1686 36.3116 23.8675 40.7663L23.9732 41.4645C24.5159 45.0302 25.1898 49.4669 28.5328 49.4669C30.6766 49.4669 31.6091 47.0878 32.5091 44.786C32.8536 43.9058 33.4142 42.482 33.8023 42.0808H149.114L149.653 38.9709Z" fill="white"></path> </svg> 