<?xml version="1.0" encoding="UTF-8"?> <svg xmlns="http://www.w3.org/2000/svg" width="85" height="82" viewBox="0 0 85 82" fill="none"> <path fill-rule="evenodd" clip-rule="evenodd" d="M9.47626 17.8701L5.72852 17.7612L8.53106 29.4642L10.3 27.6939L9.47626 17.8701Z" fill="white"></path> <path fill-rule="evenodd" clip-rule="evenodd" d="M18.6348 71.6543L19.5733 75.5734L30.9286 75.0073L28.64 72.7169L18.6348 71.6543Z" fill="white"></path> <path fill-rule="evenodd" clip-rule="evenodd" d="M11.2812 12.2144L12.4029 25.5901L23.4894 14.4947L11.2812 12.2144Z" fill="white"></path> <path fill-rule="evenodd" clip-rule="evenodd" d="M26.0252 70.0998L14.4863 58.5518L15.3228 69.0294L26.0252 70.0998Z" fill="white"></path> <path fill-rule="evenodd" clip-rule="evenodd" d="M59.5078 15.1721L67.2668 22.9373L75.5101 19.4306C77.9024 18.4128 79.8175 16.5212 80.8657 14.1404L84.7815 5.24512L59.5078 15.1721Z" fill="white"></path> <path fill-rule="evenodd" clip-rule="evenodd" d="M77.6783 21.3789L68.2051 23.8777L73.28 28.9567C74.7295 27.2302 75.9613 25.2795 76.9091 23.1263L77.6783 21.3789Z" fill="white"></path> <path fill-rule="evenodd" clip-rule="evenodd" d="M53.9892 65.9455L40.9343 79.0108L2.92121 40.9673L40.9343 2.92404L78.9472 40.9673L64.5629 55.3633C65.0582 55.867 65.4494 56.4639 65.7198 57.1286L81.8684 40.9673L40.9343 0.000488281L0 40.9673L40.9343 81.9341L51.8118 71.0479L53.9892 65.9455Z" fill="white"></path> <path fill-rule="evenodd" clip-rule="evenodd" d="M19.2118 34.856L21.151 41.3577C21.1841 41.4408 21.3165 41.9052 21.3165 41.988H21.3499C21.5651 41.2252 22.9075 36.7303 23.5209 34.856H28.6089V36.332H28.3436C27.4986 36.332 27.4986 36.4647 27.4986 37.2443V44.0283C27.4986 44.7247 27.4986 44.8906 28.294 44.8906H28.6089V46.3669H23.9518V44.8906H24.25C25.0289 44.8906 25.0289 44.7082 25.0289 44.0283V36.332H24.996L22.1453 45.6869H20.1566L17.4054 36.332H17.3722V44.0944C17.3722 44.8739 17.538 44.8906 18.1843 44.8906H18.4493V46.3669H14.0742V44.8906H14.3724C15.201 44.8906 15.201 44.7082 15.201 44.0283V37.1447C15.201 36.5144 15.1349 36.332 14.3724 36.332H14.0742V34.856H19.2118Z" fill="white"></path> <path fill-rule="evenodd" clip-rule="evenodd" d="M29.9512 46.3669V44.8906H30.2993C31.0782 44.8906 31.0782 44.6418 31.0782 44.1111V37.0783C31.0782 36.6139 31.0782 36.332 30.3489 36.332H29.9512V34.856H38.7184V38.2394H36.8125V37.3271C36.8125 36.8627 36.7629 36.6304 36.0999 36.6304H33.6137V44.1111C33.6137 44.6586 33.6137 44.8906 34.3762 44.8906H34.8734V46.3669H29.9512Z" fill="white"></path> <path fill-rule="evenodd" clip-rule="evenodd" d="M44.6012 34.8562V36.3322H44.2032C43.5405 36.3322 43.4574 36.5478 43.4574 37.0785V39.2847H45.5955C46.0596 36.3654 47.9156 34.5078 50.7998 34.5078C54.2633 34.5078 55.9371 37.0289 55.9371 40.4126C55.9371 43.9289 54.1474 46.7152 50.6836 46.7152C47.3853 46.7152 45.6619 44.3104 45.5125 41.2087H43.4574V44.2273C43.4574 44.5592 43.4574 44.8909 44.2032 44.8909H44.6012V46.3671H39.7949V44.8909H40.1926C40.9219 44.8909 40.9219 44.6421 40.9219 44.0946V37.1285C40.9219 36.581 40.8888 36.3322 40.1926 36.3322H39.7949V34.8562H44.6012ZM50.7167 44.8909C52.7882 44.8909 53.2522 42.4858 53.2522 40.4458C53.2522 39.6992 53.2522 36.3322 50.7499 36.3322C48.9599 36.3322 48.1481 38.1401 48.1481 40.6779C48.1481 42.7346 48.6784 44.8909 50.7167 44.8909Z" fill="white"></path> <path fill-rule="evenodd" clip-rule="evenodd" d="M63.0464 34.7231L66.1457 43.7626C66.5102 44.8242 66.7092 44.8906 67.1896 44.8906H67.4549V46.3668H62.6818V44.8906H63.1623C63.444 44.8906 63.7258 44.8906 63.7258 44.5422C63.7258 44.4097 63.6099 44.0778 63.5767 43.9618L63.2785 43.0495H59.7152L59.3838 43.9783C59.3671 44.0446 59.2676 44.3598 59.2676 44.4926C59.2676 44.8077 59.5494 44.8906 59.8975 44.8906H60.2787V46.3668H55.9863V44.8906C56.7321 44.8906 56.9308 44.8242 57.2293 43.9451L60.4612 34.7231H63.0464ZM60.1129 41.3411H62.8973L61.5216 37.3106H61.4885L60.1129 41.3411Z" fill="white"></path> <path fill-rule="evenodd" clip-rule="evenodd" d="M73.7668 53.1852C73.7567 54.2949 73.6126 55.4084 73.2877 56.517C72.6701 58.6236 70.9972 60.8156 68.771 61.4131C68.4343 61.5034 68.0707 61.5461 67.6927 61.5461C66.2776 61.5461 64.6587 60.9473 63.4829 60.0023C63.5629 59.739 63.6066 59.4604 63.6066 59.1712C63.6066 57.5948 62.3297 56.3168 60.7548 56.3168C59.1799 56.3168 57.903 57.5948 57.903 59.1712C57.903 60.0079 58.2653 60.7587 58.8388 61.2806L53.0078 74.9458H68.5018L63.7833 63.8881C64.8563 64.3475 65.9978 64.6367 67.1131 64.7343C67.316 64.7522 67.5186 64.7608 67.7198 64.7608C70.8263 64.7608 73.701 62.6935 75.2837 60.0734C77.1891 56.9189 77.4622 53.5148 76.8084 50.1411L73.7668 53.1852Z" fill="white"></path> </svg> 