<?xml version="1.0" encoding="UTF-8"?> <svg xmlns="http://www.w3.org/2000/svg" width="195" height="60" viewBox="0 0 195 60" fill="none"> <path d="M0 30C0 13.4315 13.4315 0 30 0H165C181.569 0 195 13.4315 195 30V30C195 46.5685 181.569 60 165 60H30C13.4315 60 0 46.5685 0 30V30Z" fill="#0077FF"></path> <path d="M98.9737 40C87.6988 40 81.268 32.4925 81 20H86.6477C86.8332 29.1692 90.9968 33.0531 94.2947 33.8539V20H99.6128V27.9079C102.87 27.5676 106.291 23.964 107.445 20H112.763C111.877 24.8849 108.167 28.4885 105.528 29.97C108.167 31.1712 112.392 34.3143 114 40H108.146C106.889 36.1962 103.756 33.2533 99.6128 32.8529V40H98.9737Z" fill="white"></path> </svg> 