<svg width="408" height="55" viewBox="0 0 408 55" fill="none" xmlns="http://www.w3.org/2000/svg">
<path fill-rule="evenodd" clip-rule="evenodd" d="M214.641 10.0033C214.252 16.8853 213.025 24.9045 211.588 30.0582C210.018 35.6888 208.1 40.258 206.538 42.6521L199 37.7356C199.831 36.4613 201.451 32.9051 202.919 27.6404C204.356 22.487 205.556 16.0222 205.744 9.07367C205.837 5.61506 208.645 2.69385 212.269 2.69385H232.769C236.359 2.69385 239 5.604 239 9.19385V40.1938H230V10.0033H214.641Z" fill="#423783"/>
<path fill-rule="evenodd" clip-rule="evenodd" d="M200 46.1938V50.1938C200 52.6791 197.985 54.6938 195.5 54.6938C193.015 54.6938 191 52.6791 191 50.1938V42.8682C191 39.8307 193.462 37.1938 196.5 37.1938H240.32C243.358 37.1938 245.82 39.8307 245.82 42.8682V50.1938C245.82 52.6791 243.806 54.6938 241.32 54.6938C238.835 54.6938 236.82 52.6791 236.82 50.1938V46.1938H200Z" fill="#423783"/>
<path d="M156.562 4.16199C155.636 3.29964 154.43 2.79485 153.163 2.73848C151.895 2.68211 150.649 3.07787 149.649 3.85452L118.809 29.7032V7.7456C118.863 6.43539 118.414 5.15382 117.552 4.16199C117.082 3.66523 116.509 3.27684 115.872 3.02408C115.235 2.77132 114.551 2.66032 113.866 2.69886C113.2 2.65892 112.533 2.7655 111.912 3.01104C111.292 3.25658 110.733 3.63505 110.276 4.11958C109.421 5.13127 108.976 6.42453 109.03 7.7456V41.1907C108.993 42.4951 109.44 43.7673 110.287 44.7637C110.744 45.2482 111.302 45.6267 111.923 45.8722C112.543 46.1178 113.21 46.2243 113.877 46.1844C115.057 46.2421 116.218 45.8647 117.137 45.1242L148.093 17.2348V41.1907C148.046 42.4966 148.495 43.7724 149.35 44.7637C149.806 45.2494 150.365 45.6287 150.986 45.8743C151.606 46.1199 152.274 46.2258 152.94 46.1844C153.613 46.2227 154.286 46.1155 154.913 45.8702C155.54 45.625 156.106 45.2475 156.573 44.7637C157.451 43.7833 157.913 42.5027 157.862 41.1907V7.7456C157.91 6.42882 157.444 5.14457 156.562 4.16199Z" fill="#423783"/>
<path d="M90.0915 7.74558C90.0424 6.43616 90.4913 5.15648 91.3485 4.16197C92.3304 3.26792 93.613 2.77209 94.9438 2.77209C96.2746 2.77209 97.5572 3.26792 98.5391 4.16197C99.5 5.00006 99.7962 5.66535 99.7962 5.76686V38.6907C99.7962 42.7726 99.37 43.9919 98.5391 44.8613C97.5506 45.742 96.2705 46.229 94.9438 46.229C93.6171 46.229 92.337 45.742 91.3485 44.8613C90.4845 43.8875 90.0338 42.6179 90.0915 41.3201V31.0001C86.3799 34.5001 80.7445 35.5545 75.8267 35.5001C67.8267 35.4114 61.7286 32.9548 57.7018 29.0001C54.7936 26.1586 53.0271 21.9846 53.0271 14.7962V7.70317C52.9953 6.40176 53.4596 5.1366 54.3267 4.16197C55.2846 3.23766 56.3676 2.76318 57.7018 2.76318C59.0361 2.76318 59.8687 3.23766 60.8267 4.16197C61.672 5.14661 62.12 6.40854 62.0837 7.70317V14.3191C62.0837 18.507 62.6483 21.6029 64.2143 23.1297C67.3142 26.0771 73.6969 26.8405 76.4986 26.8405C80.8267 27.5001 90.0915 25.0001 90.0915 21.0001V7.74558Z" fill="#423783"/>
<path fill-rule="evenodd" clip-rule="evenodd" d="M271 1C258.297 1 248 11.2975 248 24C248 36.7025 258.297 47 271 47H274C286.703 47 297 36.7025 297 24C297 11.2975 286.703 1 274 1H271ZM272 14C266.477 14 262 18.4772 262 24C262 29.5228 266.477 34 272 34H274C279.523 34 284 29.5228 284 24C284 18.4772 279.523 14 274 14H272Z" fill="#1CC1BB"/>
<path d="M310 46C306.4 46 305.167 43.3333 305 42V7C305 5.66667 306 3 310 3C312.5 3 313.5 3.5 316 7L330 24L342.5 7C344.5 4.5 345 3.00001 349 3C352.6 3 353.5 5.66667 353.5 7V42C353.5 43.5 353 46 349 46C345.378 46 344.167 43.5 344 42V20L333 34.5C331 36.5 328 35.5 327 34.5L314.5 19.5V42C314.5 43.3333 313.6 46 310 46Z" fill="#423783"/>
<rect x="168" y="34" width="13" height="12" rx="6" fill="#1CC1BB"/>
<path d="M362 20V46C377.2 40.8 383.333 24.3333 384.5 16.5C388.1 36.5 401.333 44.3333 407.5 46V20C407.5 14.5 401.5 -1.33346e-05 384.5 0C368.5 1.25502e-05 362 13.5 362 20Z" fill="#1CC1BB"/>
<path d="M42.7382 4.48373C42.2885 3.98154 41.7331 3.58837 41.1133 3.33331C40.4935 3.07826 39.825 2.96785 39.1574 3.01027C38.497 2.96426 37.835 3.07326 37.2229 3.3288C36.6108 3.58434 36.0649 3.97955 35.6278 4.48373C34.794 5.54835 34.3655 6.88156 34.4205 8.24001V8.52018C34.4205 18.5854 30.3282 22.0719 22.2049 22.0719C14.0817 22.0719 9.97909 18.6372 9.97909 8.6862V8.24001C10.0318 6.86052 9.55503 5.51406 8.64909 4.48373C8.16656 3.97887 7.58211 3.58581 6.93579 3.33149C6.28947 3.07716 5.59658 2.96758 4.9046 3.01027C4.23282 2.97127 3.56083 3.08311 2.93657 3.33781C2.3123 3.5925 1.75114 3.98378 1.29312 4.48373C0.412012 5.5263 -0.0483962 6.86789 0.00403231 8.24001C0.00403231 15.5035 1.73304 19.8824 5.20129 24.3547C8.66955 28.8269 14.3067 31.0579 22.1129 31.0579C25.6994 31.1483 29.2657 30.4877 32.5892 29.1175C32.9371 28.9722 33.6123 28.6402 33.9909 28.4845C32.047 35.2188 26.5428 36.9102 20.9363 36.9621C15.3298 37.014 12.4447 35.8103 9.08901 33.2888C6.2653 31.1616 4.03498 32.0748 2.66405 33.9218C1.0885 36.0905 1.44658 38.5186 4.09637 40.8118C8.025 44.1634 14.3272 46 20.9465 46C24.957 46 29.6428 45.3359 32.5483 44.0596C35.2808 42.9322 37.6455 41.0481 39.3723 38.6223C40.9864 36.3017 42.1815 33.7089 42.9019 30.9645C43.662 27.8595 44.0299 24.6691 43.9966 21.47V8.20888C44.0439 6.85234 43.5958 5.52585 42.7382 4.48373Z" fill="#423783"/>
</svg>
