<?xml version="1.0" encoding="UTF-8"?> <svg xmlns="http://www.w3.org/2000/svg" width="691" height="666" viewBox="0 0 691 666" fill="none"> <g clip-path="url(#clip0)"> <path d="M597.473 20.3132C482.595 -32.0515 395.32 45.3865 360.221 201.994C331.941 328.172 47.7091 395.981 69.5481 509.339C87.2196 600.95 297.356 662.646 514.799 558.945C702.717 469.308 756.029 92.558 597.473 20.3132Z" fill="url(#paint0_linear)"></path> <path d="M443.869 369.609L446.792 258.767L479.429 137.484C479.429 137.484 489.658 133.535 494.394 136.24L631.598 214.49C636.713 217.411 639.148 223.496 637.47 229.149L602.073 347.322L598.799 463.411L443.869 369.609Z" fill="#403B54"></path> <path d="M436.916 371.07L439.839 260.228L475.073 142.65C476.643 137.403 482.705 134.996 487.441 137.701L624.645 215.95C629.76 218.871 632.195 224.957 630.517 230.61L595.12 348.782L592.198 459.625L436.916 371.07Z" fill="#524D64"></path> <path d="M446.225 238.969L445.846 240.186L600.965 329.255L601.344 328.037L446.225 238.969Z" fill="#403B54"></path> <path d="M439.406 277.079L439.379 278.486L594.633 367.662L594.66 366.229L439.406 277.079Z" fill="#403B54"></path> <path d="M440.866 256.901L440.487 258.119L595.606 347.187L595.958 345.97L440.866 256.901Z" fill="#403B54"></path> <path d="M438.864 297.77L438.837 299.203L594.064 388.353L594.118 386.946L438.864 297.77Z" fill="#403B54"></path> <path d="M592.982 429.764L593.009 428.331L437.755 339.181L437.728 340.614L592.982 429.764Z" fill="#403B54"></path> <path d="M438.324 318.489L438.27 319.896L593.524 409.046L593.551 407.639L438.324 318.489Z" fill="#403B54"></path> <path d="M473.097 149.305L472.718 150.522L627.837 239.591L628.189 238.373L473.097 149.305Z" fill="#403B54"></path> <path d="M467.712 167.237L467.36 168.454L622.452 257.523L622.831 256.306L467.712 167.237Z" fill="#403B54"></path> <path d="M456.968 203.103L456.589 204.32L611.708 293.388L612.087 292.171L456.968 203.103Z" fill="#403B54"></path> <path d="M462.353 185.17L461.975 186.387L617.094 275.456L617.446 274.239L462.353 185.17Z" fill="#403B54"></path> <path d="M451.61 221.035L451.231 222.252L606.351 311.321L606.702 310.104L451.61 221.035Z" fill="#403B54"></path> <path opacity="0.2" d="M487.467 137.701C486.872 137.35 486.222 137.106 485.6 136.917L457.888 200.101L439.865 260.228L436.942 371.071L566.813 445.155L572.117 348.513C572.117 348.513 595.985 250.112 593.577 230.34C591.277 211.326 565.108 200.48 547.599 188.633C540.454 183.791 537.072 175.19 538.749 166.94L487.467 137.701Z" fill="#403B54"></path> <path d="M428.662 275.293L352.049 319.489C347.449 322.14 339.98 322.14 335.379 319.489L335.217 319.381C332.619 317.893 331.888 315.892 331.807 313.917C331.753 312.592 331.591 309.4 331.753 309.022C332.267 307.913 333.701 310.617 335.217 309.752L411.829 265.556L428.662 270.722V275.293Z" fill="#C9C8C8"></path> <path d="M428.661 270.723L352.049 314.919C347.448 317.57 339.979 317.57 335.378 314.919L335.216 314.811C330.615 312.16 330.615 307.859 335.216 305.182L411.828 260.985L428.661 270.723Z" fill="#EFEFEF"></path> <path d="M525.003 459.896L370.263 516.67C354.188 522.566 336.381 514.317 330.482 498.25C324.907 483.103 332.051 466.334 346.367 459.545L495.478 389.328C514.611 380.321 537.424 388.517 546.436 407.64C555.448 426.763 547.248 449.564 528.115 458.571C527.114 459.085 526.031 459.518 525.003 459.896Z" fill="#403B54"></path> <path d="M450.366 150.17C447.227 142.597 441.327 136.701 433.777 133.563C431.693 132.697 429.501 132.075 427.309 131.67C414.022 129.344 400.545 136.187 394.564 148.304L393.644 150.089C393.644 150.089 356.028 221.225 349.614 233.829C343.931 244.946 390.099 272.562 396.242 262.04C406.607 244.351 447.2 179.517 447.2 179.517L447.173 179.49L448.255 177.678C449.175 176.163 449.852 174.865 450.366 173.567C453.478 166.075 453.478 157.744 450.366 150.17Z" fill="#E0E0E0"></path> <path d="M394.779 264.068C394.049 265.231 392.479 265.799 390.422 265.799C389.421 265.799 388.284 265.691 387.013 265.448C381.735 264.474 374.537 261.364 367.311 256.522C358.76 250.815 352.373 244.323 350.073 239.482C349.748 238.86 349.559 238.238 349.396 237.67C349.342 237.534 349.342 237.426 349.315 237.318C349.045 236.047 349.126 234.938 349.694 234.126C350.127 233.477 350.804 233.017 351.724 232.72C351.751 232.693 351.805 232.693 351.886 232.666C352.698 232.422 353.645 232.341 354.782 232.368C360.113 232.612 368.583 235.966 377.189 241.673C384.063 246.244 389.529 251.356 392.587 255.684C392.668 255.738 392.723 255.846 392.777 255.9C393.832 257.388 394.563 258.794 394.969 260.038C395.483 261.688 395.456 263.068 394.779 264.068Z" fill="#58495C"></path> <path d="M392.589 255.684L387.014 265.421L384.389 269.993L355.487 317.813L354.486 319.382C350.345 326.225 342.605 330.093 334.676 329.254C334.216 329.2 333.783 329.146 333.323 329.092C331.862 328.822 330.4 328.389 328.993 327.821C318.493 323.466 313.487 311.403 317.844 300.908C317.952 300.638 318.114 300.367 318.223 300.124L320.631 295.228L346.8 242.241L349.344 237.292L351.752 232.693C351.779 232.666 351.833 232.666 351.915 232.639C352.727 232.396 353.674 232.315 354.81 232.342C360.142 232.585 368.612 235.939 377.218 241.646C384.064 246.244 389.531 251.357 392.589 255.684Z" fill="url(#paint1_linear)"></path> <path d="M387.013 265.447L392.588 255.71C389.53 251.382 384.063 246.27 377.19 241.699C368.611 235.992 360.113 232.638 354.782 232.395C353.673 232.368 352.726 232.449 351.887 232.692C351.833 232.719 351.778 232.719 351.724 232.746L349.911 236.208C356.785 235.938 388.366 250.814 380.87 275.833L384.361 270.045L387.013 265.447Z" fill="#FFA6BB"></path> <path d="M462.462 453.674C496.912 453.674 524.84 425.761 524.84 391.329C524.84 356.896 496.912 328.983 462.462 328.983C428.011 328.983 400.084 356.896 400.084 391.329C400.084 425.761 428.011 453.674 462.462 453.674Z" fill="#534363"></path> <path d="M553.526 408.044C559.317 365.795 574.769 257.387 574.932 231.097C575.148 195.961 528.358 175.459 480.729 151.63C435.346 128.937 405.145 121.742 397.838 149.628C390.532 177.542 406.661 342.858 406.661 342.858C406.661 342.858 389.747 362.793 383.82 376.912C377.921 391.031 401.302 410.938 437.403 426.707C492.853 450.888 547.735 450.293 553.526 408.044Z" fill="#EFEFEF"></path> <path d="M530.82 308.725C485.572 294.524 415.374 250.409 398.487 241.402C401.653 291.63 406.66 342.859 406.66 342.859C406.66 342.859 389.746 362.793 383.819 376.912C377.893 391.031 401.301 410.938 437.402 426.707C492.852 450.915 547.734 450.32 553.525 408.071C556.772 384.35 563.078 339.775 568.003 300.61C562.915 304.992 549.249 314.486 530.82 308.725Z" fill="#EFEFEF"></path> <path opacity="0.2" d="M569.004 210.271C551.712 219.196 529.413 261.039 529.413 261.039C529.413 261.039 479.375 394.034 475.451 403.122C471.527 412.237 478.266 436.824 504.949 442.801C531.064 442.612 550.223 432.063 553.525 408.045C559.316 365.796 574.742 257.388 574.931 231.097C574.985 223.524 572.847 216.654 569.004 210.271Z" fill="#8F2841"></path> <path d="M499.807 209.999C492.148 209.999 483.786 208.646 475.559 206.077C450.31 198.179 433.83 181.517 438.024 168.129C440.703 159.554 451.258 154.442 466.25 154.442C473.908 154.442 482.271 155.795 490.497 158.364C502.242 162.043 512.58 167.804 519.616 174.62C527.139 181.896 530.116 189.578 528.032 196.285C525.353 204.86 514.799 209.999 499.807 209.999Z" fill="white"></path> <path d="M521.279 194.184C524.601 183.578 510.171 169.621 489.048 163.011C467.925 156.4 448.107 159.639 444.785 170.245C441.462 180.851 455.892 194.808 477.016 201.419C498.139 208.029 517.956 204.79 521.279 194.184Z" fill="#F9C7C7"></path> <path d="M456.075 117.983H456.047C460.134 148.141 460.134 149.359 453.666 178.543H510.09C506.41 151.198 506.68 149.25 513.067 120.363C513.716 117.469 513.933 114.44 513.635 111.356C512.12 95.4251 497.939 83.7404 482 85.2821C466.06 86.7968 454.37 100.97 455.912 116.901C455.966 117.226 456.02 117.604 456.075 117.983Z" fill="url(#paint2_linear)"></path> <path d="M515.26 38.8141C497.426 22.8288 459.377 24.7222 443.87 40.5452C427.985 56.7739 427.823 74.7337 428.472 87.7167C429.149 100.673 424.142 113.331 425.089 118.524C426.01 123.717 435.265 140.622 439.432 148.872C443.627 157.122 442.869 157.933 444.087 158.799C449.58 162.666 456.914 161.557 468.903 156.932C480.891 152.307 499.997 146.194 515.341 125.394C530.712 104.568 551.956 71.6502 515.26 38.8141Z" fill="url(#paint3_linear)"></path> <path d="M535.582 48.6313C532.118 31.8346 517.857 17.3098 475.288 21.6646C471.283 20.5285 467.386 19.7441 464.599 19.9335C458.699 20.3392 456.128 24.5857 451.798 25.1537C447.468 25.7217 446.765 22.4219 441.488 24.0177C438.7 24.8562 437.266 28.67 436.535 32.105C432.801 30.7256 428.823 27.588 423.437 31.1043C415.454 36.3245 415.779 68.4844 433.992 79.9798C445.006 86.9311 464.572 91.2317 488.278 80.0609C514.474 67.7541 492.77 108.921 505.922 118.631C513.04 123.878 522.484 121.417 530.359 103.133C540.047 80.5478 537.206 56.5293 535.582 48.6313Z" fill="url(#paint4_linear)"></path> <path d="M528.067 116.184C533.46 109.098 533.426 100.002 527.99 95.8688C522.553 91.7352 513.774 94.1286 508.38 101.215C502.987 108.301 503.021 117.396 508.457 121.529C513.894 125.663 522.673 123.27 528.067 116.184Z" fill="#FFB4B4"></path> <path d="M523.541 115.332C520.591 119.2 515.774 120.525 512.797 118.253C509.82 115.981 509.793 111.005 512.77 107.137C515.72 103.269 520.537 101.943 523.513 104.216C526.49 106.46 526.49 111.464 523.541 115.332Z" fill="#F09595"></path> <path d="M440.732 99.834H440.705C439.785 99.8069 439.054 99.0496 439.081 98.1299L439.135 95.9932H436.077C435.996 96.2366 435.915 96.48 435.915 96.7775L435.78 102.728C435.753 104.486 437.133 105.92 438.892 105.974H438.946C440.705 106.001 442.139 104.621 442.193 102.863L442.275 98.9143C441.977 99.4553 441.409 99.861 440.732 99.834Z" fill="#F09595"></path> <path d="M440.731 97.1289H440.704C439.784 97.1019 439.053 96.3445 439.08 95.4249L439.134 92.3144C439.134 91.8005 439.405 91.3677 439.757 91.0702C439.567 91.0432 439.405 90.935 439.188 90.935H439.134C437.375 90.9079 435.941 92.2874 435.887 94.0455L435.751 99.996C435.724 101.754 437.104 103.188 438.863 103.242H438.918C440.677 103.269 442.111 101.889 442.165 100.131L442.246 96.1822C441.976 96.7503 441.407 97.156 440.731 97.1289Z" fill="#2F2830"></path> <path d="M468.415 106.027H468.388C467.468 106 466.737 105.243 466.765 104.323L466.792 102.457H463.679C463.652 102.619 463.571 102.782 463.571 102.944L463.436 108.894C463.409 110.653 464.789 112.086 466.548 112.14H466.602C468.361 112.167 469.796 110.788 469.85 109.03L469.931 105.081C469.66 105.649 469.092 106.054 468.415 106.027Z" fill="#F09595"></path> <path d="M468.415 103.863H468.388C467.468 103.836 466.737 103.079 466.765 102.159L466.819 99.0488C466.819 98.5349 467.089 98.1021 467.441 97.8046C467.252 97.7775 467.089 97.6693 466.873 97.6693H466.819C465.06 97.6423 463.625 99.0217 463.571 100.78L463.436 106.73C463.409 108.488 464.789 109.922 466.548 109.976H466.602C468.361 110.003 469.796 108.624 469.85 106.866L469.931 102.917C469.66 103.485 469.092 103.89 468.415 103.863Z" fill="#2F2830"></path> <path d="M450.148 90.9619L440.379 118.253C439.621 120.336 440.758 122.635 442.869 123.311L452.719 126.476L450.148 90.9619Z" fill="#F09595"></path> <path d="M445.521 134.401C444.737 134.401 444.222 135.213 444.52 135.943C445.981 139.568 449.527 142.137 453.667 142.137C457.808 142.137 461.353 139.568 462.814 135.943C463.112 135.213 462.597 134.401 461.813 134.401H445.521Z" fill="#DE638A"></path> <path d="M460.73 134.401H445.521C445.251 134.401 445.034 134.51 444.845 134.672C446.631 137.052 449.472 138.594 452.693 138.594C456.048 138.594 458.944 136.944 460.73 134.401Z" fill="white"></path> <path d="M541.023 314.242C549.656 295.281 571.684 242.186 571.684 242.186L571.657 242.159L572.469 240.212C573.145 238.589 573.633 237.209 573.957 235.857C577.259 222.82 571.819 209.323 560.372 202.263C557.72 200.613 554.825 199.396 551.739 198.612C536.152 194.663 520.023 203.562 515.07 218.871L514.421 220.791C514.421 220.791 492.961 285.436 488.793 297.553C485.086 308.426 535.232 326.954 541.023 314.242Z" fill="#EFEFEF"></path> <path d="M540.211 314.865C539.832 316.136 538.506 317.083 536.666 317.624C536.611 317.651 536.53 317.651 536.449 317.678C531.361 319.165 521.89 318.246 511.687 314.838C502.053 311.646 494.205 307.156 490.687 303.126C490.66 303.072 490.606 303.045 490.579 302.991C488.955 301.124 488.333 299.366 488.793 297.906C489.253 296.445 490.85 295.444 493.204 294.93C493.285 294.903 493.366 294.903 493.502 294.876C498.752 293.767 507.682 294.822 517.289 297.987C527.952 301.503 536.422 306.642 539.291 310.997C539.318 311.024 539.345 311.078 539.345 311.105C540.292 312.43 540.59 313.756 540.211 314.865Z" fill="#58495C"></path> <path d="M539.372 311.052L536.666 317.597L536.639 317.678L504.976 392.845L504.191 394.603C500.348 403.691 490.281 408.884 480.701 406.747L480.133 406.639C478.076 406.071 476.155 405.259 474.342 404.178C466.656 399.444 463.03 390.356 465.249 381.62C465.303 381.322 465.384 381.106 465.493 380.808L466.9 376.508L466.873 376.481L490.714 303.127L490.769 302.991L493.529 294.85C498.779 293.741 507.709 294.796 517.316 297.961C527.979 301.477 536.449 306.616 539.318 310.971C539.345 310.971 539.372 311.025 539.372 311.052Z" fill="url(#paint5_linear)"></path> <path d="M539.318 310.942C536.449 306.615 527.979 301.448 517.316 297.932C507.709 294.768 498.779 293.713 493.529 294.822L491.418 301.07C502.54 302.909 524.65 308.778 532.715 327.009L536.638 317.677L536.666 317.596L539.372 311.05C539.372 311.023 539.345 310.969 539.318 310.942Z" fill="#FFA6BB"></path> <path d="M680.824 530.544L450.472 663.484C444.654 666.838 435.236 666.838 429.445 663.484L4.35593 418.187C-1.46239 414.833 -1.46239 409.397 4.35593 406.043L234.707 273.102C240.526 269.748 249.943 269.748 255.734 273.102L680.824 518.4C686.642 521.754 686.642 527.19 680.824 530.544Z" fill="url(#paint6_linear)"></path> <path d="M680.824 522.43L450.472 655.37C444.654 658.724 435.236 658.724 429.445 655.37L4.35593 410.073C-1.46239 406.719 -1.46239 401.282 4.35593 397.928L234.707 264.988C240.526 261.634 249.943 261.634 255.734 264.988L680.824 510.285C686.642 513.639 686.642 519.076 680.824 522.43Z" fill="white"></path> <path opacity="0.3" d="M481.108 395.061C467.414 400.091 442.734 409.207 425.441 415.969C407.824 422.839 387.879 428.411 384.09 436.417C372.021 440.474 358.896 445.18 354.918 447.723C347.016 452.808 354.349 460.462 362.441 462.545C370.532 464.628 380.491 456.73 386.255 455.702C391.993 454.647 399.678 458.217 405.415 457.866C411.152 457.514 422.248 452.564 422.248 452.564C425.82 451.077 429.257 449.237 432.586 447.425C445.088 440.663 481.297 421.73 493.583 415.644C499.185 412.858 501.837 410.045 503.055 407.773L481.108 395.061Z" fill="#21386E"></path> <path d="M367.529 409.613C367.529 409.613 358.733 407.828 356.812 407.882C354.864 407.909 344.986 410.289 342.604 410.641C340.25 410.993 340.494 416.537 344.986 417.836C349.478 419.134 361.034 420.432 361.034 420.432L367.529 409.613Z" fill="#FFAEAE"></path> <path d="M335.65 434.876C345.852 425.139 369.044 413.536 386.526 414.158C404.008 414.78 414.833 422.029 412.614 431.252C410.801 438.825 370.451 463.304 352.807 464.683C338.329 465.846 318.087 451.646 335.65 434.876Z" fill="#B3B5CA"></path> <path d="M335.65 432.171C345.852 422.434 369.044 410.831 386.526 411.453C404.008 412.075 414.833 419.324 412.614 428.547C410.801 436.12 370.451 460.599 352.807 461.978C338.329 463.141 318.087 448.941 335.65 432.171Z" fill="#E7EBF5"></path> <path opacity="0.5" d="M112.577 461.817L253.543 543.15C255.275 544.15 258.089 544.15 259.821 543.15L357.894 486.565C359.626 485.565 359.626 483.942 357.894 482.941L216.928 401.608C215.196 400.607 212.382 400.607 210.65 401.608L112.577 458.165C110.818 459.166 110.818 460.816 112.577 461.817Z" fill="#21386E"></path> <path d="M249.753 536.468C251.485 537.469 254.3 537.469 256.032 536.468L354.104 479.884C354.97 479.37 355.403 479.749 355.403 479.749V482.4C355.403 483.049 354.97 483.725 354.104 484.212L256.032 540.796C254.3 541.797 251.485 541.797 249.753 540.796L108.787 459.463C107.894 458.949 107.461 458.273 107.488 457.597V454.838L249.753 536.468Z" fill="#B3B5CA"></path> <path d="M108.788 456.677L249.754 538.01C251.486 539.011 254.3 539.011 256.032 538.01L354.105 481.426C355.837 480.425 355.837 478.802 354.105 477.801L213.139 396.468C211.407 395.468 208.593 395.468 206.861 396.468L108.788 453.053C107.056 454.053 107.056 455.676 108.788 456.677Z" fill="#EEEEFA"></path> <path d="M224.64 443.153L266.37 467.226C267.912 468.118 270.402 468.118 271.945 467.226L297.275 452.62C298.817 451.727 298.817 450.294 297.275 449.401L255.545 425.329C254.003 424.436 251.513 424.436 249.97 425.329L224.64 439.934C223.098 440.827 223.098 442.288 224.64 443.153Z" fill="#E7E7F2"></path> <path d="M297.247 450.051L255.517 425.978C253.975 425.086 251.485 425.086 249.943 425.978L224.613 440.584C223.99 440.936 223.638 441.395 223.503 441.882C223.341 441.206 223.693 440.476 224.613 439.962L249.943 425.356C251.485 424.463 253.975 424.463 255.517 425.356L297.247 449.429C298.167 449.943 298.519 450.673 298.356 451.349C298.248 450.862 297.896 450.402 297.247 450.051Z" fill="#B3B5CA"></path> <path d="M149.328 462.33L142.021 458.11C141.507 457.813 141.507 457.353 142.021 457.055L144.24 455.757C144.754 455.46 145.566 455.46 146.053 455.757L153.36 459.977C153.874 460.274 153.874 460.734 153.36 461.031L151.141 462.33C150.654 462.6 149.842 462.6 149.328 462.33ZM162.317 468.74L164.536 467.442C165.051 467.144 165.051 466.684 164.536 466.387L157.23 462.167C156.715 461.87 155.904 461.87 155.416 462.167L153.197 463.466C152.683 463.763 152.683 464.223 153.197 464.521L160.504 468.74C160.991 469.038 161.803 469.038 162.317 468.74ZM173.467 475.177L175.686 473.879C176.2 473.582 176.2 473.122 175.686 472.824L168.379 468.605C167.865 468.307 167.053 468.307 166.566 468.605L164.347 469.903C163.833 470.201 163.833 470.66 164.347 470.958L171.654 475.177C172.141 475.475 172.953 475.475 173.467 475.177ZM184.616 481.615L186.835 480.317C187.35 480.019 187.35 479.559 186.835 479.262L179.529 475.042C179.014 474.745 178.203 474.745 177.716 475.042L175.496 476.341C174.982 476.638 174.982 477.098 175.496 477.395L182.803 481.615C183.29 481.912 184.102 481.912 184.616 481.615ZM195.766 488.052L197.985 486.754C198.499 486.456 198.499 485.997 197.985 485.699L190.678 481.48C190.164 481.182 189.352 481.182 188.865 481.48L186.646 482.778C186.132 483.075 186.132 483.535 186.646 483.833L193.953 488.052C194.44 488.35 195.252 488.35 195.766 488.052ZM206.915 494.49L209.134 493.191C209.649 492.894 209.649 492.434 209.134 492.136L201.828 487.917C201.314 487.619 200.502 487.619 200.015 487.917L197.795 489.215C197.281 489.513 197.281 489.973 197.795 490.27L205.102 494.49C205.589 494.76 206.401 494.76 206.915 494.49ZM218.038 500.927L220.257 499.629C220.771 499.331 220.771 498.871 220.257 498.574L212.95 494.354C212.436 494.057 211.624 494.057 211.137 494.354L208.918 495.653C208.404 495.95 208.404 496.41 208.918 496.708L216.225 500.927C216.739 501.198 217.551 501.198 218.038 500.927ZM229.187 507.337L231.406 506.039C231.921 505.742 231.921 505.282 231.406 504.984L224.1 500.765C223.586 500.467 222.774 500.467 222.287 500.765L220.067 502.063C219.553 502.361 219.553 502.82 220.067 503.118L227.374 507.337C227.888 507.635 228.7 507.635 229.187 507.337ZM240.337 513.775L242.556 512.476C243.07 512.179 243.07 511.719 242.556 511.422L235.249 507.202C234.735 506.905 233.923 506.905 233.436 507.202L231.217 508.5C230.703 508.798 230.703 509.258 231.217 509.555L238.524 513.775C239.011 514.072 239.85 514.072 240.337 513.775ZM251.486 520.212L253.705 518.914C254.22 518.616 254.22 518.157 253.705 517.859L246.399 513.64C245.885 513.342 245.073 513.342 244.586 513.64L242.367 514.938C241.852 515.235 241.852 515.695 242.367 515.993L249.673 520.212C250.16 520.51 250.999 520.51 251.486 520.212ZM262.636 526.65L264.855 525.351C265.369 525.054 265.369 524.594 264.855 524.296L257.548 520.077C257.034 519.779 256.222 519.779 255.735 520.077L253.516 521.375C253.002 521.673 253.002 522.133 253.516 522.43L260.823 526.65C261.31 526.947 262.122 526.947 262.636 526.65ZM140.018 455.892L142.237 454.594C142.751 454.297 142.751 453.837 142.237 453.539L134.931 449.32C134.416 449.022 133.605 449.022 133.117 449.32L130.898 450.618C130.384 450.916 130.384 451.375 130.898 451.673L138.205 455.892C138.692 456.163 139.504 456.163 140.018 455.892ZM189.217 478.964L196.415 474.826C196.659 474.691 196.659 474.447 196.415 474.312L189.217 470.174C188.973 470.038 188.567 470.038 188.297 470.174L181.098 474.312C180.855 474.447 180.855 474.691 181.098 474.826L188.297 478.964C188.567 479.099 188.973 479.099 189.217 478.964ZM198.337 484.211L205.535 480.073C205.779 479.938 205.779 479.694 205.535 479.559L198.337 475.421C198.093 475.286 197.687 475.286 197.417 475.421L190.218 479.559C189.975 479.694 189.975 479.938 190.218 480.073L197.417 484.211C197.687 484.374 198.093 484.374 198.337 484.211ZM207.457 489.486L214.655 485.347C214.899 485.212 214.899 484.969 214.655 484.834L207.457 480.695C207.213 480.56 206.807 480.56 206.536 480.695L199.338 484.834C199.094 484.969 199.094 485.212 199.338 485.347L206.536 489.486C206.807 489.621 207.213 489.621 207.457 489.486ZM216.576 494.733L223.775 490.595C224.019 490.46 224.019 490.216 223.775 490.081L216.576 485.943C216.333 485.807 215.927 485.807 215.656 485.943L208.458 490.081C208.214 490.216 208.214 490.46 208.458 490.595L215.656 494.733C215.927 494.895 216.333 494.895 216.576 494.733ZM225.696 500.007L232.895 495.869C233.138 495.734 233.138 495.49 232.895 495.355L225.696 491.217C225.453 491.082 225.047 491.082 224.776 491.217L217.578 495.355C217.334 495.49 217.334 495.734 217.578 495.869L224.776 500.007C225.047 500.143 225.453 500.143 225.696 500.007ZM234.816 505.282L242.015 501.143C242.258 501.008 242.258 500.765 242.015 500.63L234.816 496.491C234.573 496.356 234.167 496.356 233.896 496.491L226.698 500.63C226.454 500.765 226.454 501.008 226.698 501.143L233.896 505.282C234.167 505.417 234.573 505.417 234.816 505.282ZM243.936 510.529L251.135 506.391C251.378 506.255 251.378 506.012 251.135 505.877L243.936 501.738C243.693 501.603 243.287 501.603 243.016 501.738L235.818 505.877C235.574 506.012 235.574 506.255 235.818 506.391L243.016 510.529C243.287 510.691 243.693 510.691 243.936 510.529ZM253.056 515.803L260.254 511.665C260.498 511.53 260.498 511.286 260.254 511.151L253.056 507.013C252.812 506.878 252.407 506.878 252.136 507.013L244.937 511.151C244.694 511.286 244.694 511.53 244.937 511.665L252.136 515.803C252.407 515.939 252.812 515.939 253.056 515.803ZM267.236 523.972L274.435 519.834C274.679 519.698 274.679 519.455 274.435 519.32L262.176 512.233C261.932 512.098 261.526 512.098 261.256 512.233L254.057 516.371C253.814 516.507 253.814 516.75 254.057 516.885L266.316 523.972C266.587 524.134 266.993 524.134 267.236 523.972ZM207.457 447.372L214.655 443.207C214.899 443.072 214.899 442.828 214.655 442.693L207.457 438.555C207.213 438.419 206.807 438.419 206.536 438.555L199.338 442.693C199.094 442.828 199.094 443.072 199.338 443.207L206.536 447.372C206.807 447.534 207.213 447.534 207.457 447.372ZM216.576 452.647L223.775 448.508C224.019 448.373 224.019 448.13 223.775 447.994L216.576 443.856C216.333 443.721 215.927 443.721 215.656 443.856L208.458 447.994C208.214 448.13 208.214 448.373 208.458 448.508L215.656 452.647C215.927 452.782 216.333 452.782 216.576 452.647ZM225.696 457.894L232.895 453.756C233.138 453.62 233.138 453.377 232.895 453.242L225.696 449.103C225.453 448.968 225.047 448.968 224.776 449.103L217.578 453.242C217.334 453.377 217.334 453.62 217.578 453.756L224.776 457.894C225.047 458.056 225.453 458.056 225.696 457.894ZM280.416 489.486L287.614 485.347C287.858 485.212 287.858 484.969 287.614 484.834L280.416 480.695C280.172 480.56 279.766 480.56 279.496 480.695L272.297 484.834C272.054 484.969 272.054 485.212 272.297 485.347L279.496 489.486C279.766 489.621 280.172 489.621 280.416 489.486ZM289.536 494.733L296.734 490.595C296.978 490.46 296.978 490.216 296.734 490.081L289.536 485.943C289.292 485.807 288.886 485.807 288.615 485.943L281.417 490.081C281.173 490.216 281.173 490.46 281.417 490.595L288.615 494.733C288.886 494.895 289.292 494.895 289.536 494.733ZM303.743 502.929L310.942 498.79C311.185 498.655 311.185 498.412 310.942 498.276L298.682 491.19C298.439 491.055 298.033 491.055 297.762 491.19L290.564 495.328C290.32 495.463 290.32 495.707 290.564 495.842L302.823 502.929C303.067 503.064 303.472 503.064 303.743 502.929ZM275.463 509.88L268.265 514.018C268.021 514.153 268.021 514.397 268.265 514.532L275.463 518.67C275.707 518.806 276.113 518.806 276.383 518.67L283.582 514.532C283.825 514.397 283.825 514.153 283.582 514.018L276.383 509.88C276.113 509.745 275.707 509.745 275.463 509.88ZM266.343 504.633L259.145 508.771C258.901 508.906 258.901 509.15 259.145 509.285L266.343 513.423C266.587 513.558 266.993 513.558 267.264 513.423L274.462 509.285C274.706 509.15 274.706 508.906 274.462 508.771L267.264 504.633C266.993 504.47 266.587 504.47 266.343 504.633ZM257.224 499.358L250.025 503.497C249.782 503.632 249.782 503.875 250.025 504.01L257.224 508.149C257.467 508.284 257.873 508.284 258.144 508.149L265.342 504.01C265.586 503.875 265.586 503.632 265.342 503.497L258.144 499.358C257.873 499.223 257.467 499.223 257.224 499.358ZM248.104 494.111L240.905 498.249C240.662 498.385 240.662 498.628 240.905 498.763L248.104 502.902C248.347 503.037 248.753 503.037 249.024 502.902L256.222 498.763C256.466 498.628 256.466 498.385 256.222 498.249L249.024 494.111C248.753 493.949 248.347 493.949 248.104 494.111ZM238.984 488.837L231.785 492.975C231.542 493.11 231.542 493.354 231.785 493.489L238.984 497.627C239.227 497.762 239.633 497.762 239.904 497.627L247.102 493.489C247.346 493.354 247.346 493.11 247.102 492.975L239.904 488.837C239.633 488.701 239.227 488.701 238.984 488.837ZM229.864 483.562L222.665 487.701C222.422 487.836 222.422 488.079 222.665 488.215L229.864 492.353C230.107 492.488 230.513 492.488 230.784 492.353L237.983 488.215C238.226 488.079 238.226 487.836 237.983 487.701L230.784 483.562C230.513 483.427 230.107 483.427 229.864 483.562ZM220.744 478.315L213.546 482.453C213.302 482.589 213.302 482.832 213.546 482.967L220.744 487.106C220.988 487.241 221.394 487.241 221.664 487.106L228.863 482.967C229.106 482.832 229.106 482.589 228.863 482.453L221.664 478.315C221.394 478.18 220.988 478.18 220.744 478.315ZM211.624 473.041L204.426 477.179C204.182 477.314 204.182 477.558 204.426 477.693L211.624 481.831C211.868 481.966 212.274 481.966 212.544 481.831L219.743 477.693C219.986 477.558 219.986 477.314 219.743 477.179L212.544 473.041C212.274 472.905 211.868 472.905 211.624 473.041ZM202.504 467.793L195.306 471.932C195.062 472.067 195.062 472.31 195.306 472.446L202.504 476.584C202.748 476.719 203.154 476.719 203.424 476.584L210.623 472.446C210.866 472.31 210.866 472.067 210.623 471.932L203.424 467.793C203.154 467.631 202.748 467.631 202.504 467.793ZM193.384 462.519L186.186 466.657C185.942 466.793 185.942 467.036 186.186 467.171L193.384 471.31C193.628 471.445 194.034 471.445 194.305 471.31L201.503 467.171C201.747 467.036 201.747 466.793 201.503 466.657L194.277 462.519C194.034 462.384 193.628 462.384 193.384 462.519ZM206.536 459.598L199.338 463.736C199.094 463.871 199.094 464.115 199.338 464.25L206.536 468.388C206.78 468.524 207.186 468.524 207.457 468.388L214.655 464.25C214.899 464.115 214.899 463.871 214.655 463.736L207.457 459.598C207.213 459.463 206.807 459.463 206.536 459.598ZM215.656 464.872L208.458 469.011C208.214 469.146 208.214 469.389 208.458 469.524L215.656 473.663C215.9 473.798 216.306 473.798 216.576 473.663L223.775 469.524C224.019 469.389 224.019 469.146 223.775 469.011L216.576 464.872C216.333 464.71 215.927 464.71 215.656 464.872ZM224.776 470.119L217.578 474.258C217.334 474.393 217.334 474.636 217.578 474.772L224.776 478.91C225.02 479.045 225.426 479.045 225.696 478.91L232.895 474.772C233.138 474.636 233.138 474.393 232.895 474.258L225.696 470.119C225.453 469.984 225.047 469.984 224.776 470.119ZM233.896 475.394L226.698 479.532C226.454 479.667 226.454 479.911 226.698 480.046L233.896 484.184C234.14 484.32 234.546 484.32 234.816 484.184L242.015 480.046C242.258 479.911 242.258 479.667 242.015 479.532L234.816 475.394C234.573 475.232 234.167 475.232 233.896 475.394ZM243.016 480.641L235.818 484.779C235.574 484.915 235.574 485.158 235.818 485.293L243.016 489.432C243.26 489.567 243.666 489.567 243.936 489.432L251.135 485.293C251.378 485.158 251.378 484.915 251.135 484.779L243.936 480.641C243.693 480.506 243.287 480.506 243.016 480.641ZM252.163 485.915L244.964 490.054C244.721 490.189 244.721 490.432 244.964 490.568L252.163 494.706C252.407 494.841 252.812 494.841 253.083 494.706L260.282 490.568C260.525 490.432 260.525 490.189 260.282 490.054L253.083 485.915C252.812 485.78 252.407 485.78 252.163 485.915ZM261.283 491.19L254.084 495.328C253.841 495.463 253.841 495.707 254.084 495.842L261.283 499.98C261.526 500.116 261.932 500.116 262.203 499.98L269.401 495.842C269.645 495.707 269.645 495.463 269.401 495.328L262.203 491.19C261.932 491.028 261.526 491.028 261.283 491.19ZM270.403 496.437L263.204 500.575C262.961 500.711 262.961 500.954 263.204 501.089L270.403 505.228C270.646 505.363 271.052 505.363 271.323 505.228L278.521 501.089C278.765 500.954 278.765 500.711 278.521 500.575L271.323 496.437C271.052 496.302 270.646 496.302 270.403 496.437ZM279.523 501.711L272.324 505.85C272.081 505.985 272.081 506.228 272.324 506.364L284.583 513.45C284.827 513.585 285.233 513.585 285.503 513.45L292.702 509.312C292.945 509.177 292.945 508.933 292.702 508.798L280.443 501.711C280.172 501.549 279.766 501.549 279.523 501.711ZM197.417 454.324L190.218 458.462C189.975 458.597 189.975 458.841 190.218 458.976L197.417 463.114C197.66 463.249 198.066 463.249 198.337 463.114L205.535 458.976C205.779 458.841 205.779 458.597 205.535 458.462L198.337 454.324C198.093 454.188 197.687 454.188 197.417 454.324ZM160.937 443.802L153.739 447.94C153.495 448.075 153.495 448.319 153.739 448.454L160.937 452.592C161.181 452.728 161.587 452.728 161.857 452.592L169.056 448.454C169.299 448.319 169.299 448.075 169.056 447.94L161.857 443.802C161.614 443.667 161.208 443.667 160.937 443.802ZM170.057 449.076L162.859 453.215C162.615 453.35 162.615 453.593 162.859 453.728L170.057 457.867C170.301 458.002 170.706 458.002 170.977 457.867L178.176 453.728C178.419 453.593 178.419 453.35 178.176 453.215L170.977 449.076C170.734 448.914 170.328 448.914 170.057 449.076ZM151.817 438.555L144.619 442.693C144.375 442.828 144.375 443.072 144.619 443.207L151.817 447.345C152.061 447.48 152.467 447.48 152.737 447.345L159.936 443.207C160.179 443.072 160.179 442.828 159.936 442.693L152.737 438.555C152.494 438.392 152.088 438.392 151.817 438.555ZM151.817 449.076L144.619 453.215C144.375 453.35 144.375 453.593 144.619 453.728L151.817 457.867C152.061 458.002 152.467 458.002 152.737 457.867L159.936 453.728C160.179 453.593 160.179 453.35 159.936 453.215L152.737 449.076C152.494 448.914 152.088 448.914 151.817 449.076ZM188.297 428.006L185.158 429.818C184.914 429.953 184.914 430.197 185.158 430.332L192.356 434.47C192.6 434.606 193.006 434.606 193.276 434.47L196.415 432.658C196.659 432.523 196.659 432.28 196.415 432.144L189.217 428.006C188.973 427.871 188.567 427.871 188.297 428.006ZM197.417 433.28L194.277 435.092C194.034 435.228 194.034 435.471 194.277 435.606L201.476 439.745C201.719 439.88 202.125 439.88 202.396 439.745L205.535 437.933C205.779 437.797 205.779 437.554 205.535 437.419L198.337 433.253C198.093 433.145 197.687 433.145 197.417 433.28ZM179.177 422.759L176.038 424.571C175.794 424.706 175.794 424.95 176.038 425.085L183.236 429.223C183.48 429.358 183.886 429.358 184.156 429.223L187.295 427.411C187.539 427.276 187.539 427.032 187.295 426.897L180.097 422.759C179.853 422.623 179.447 422.623 179.177 422.759ZM183.453 430.819L180.313 432.631C180.07 432.766 180.07 433.01 180.313 433.145L187.512 437.283C187.756 437.419 188.161 437.419 188.432 437.283L191.571 435.471C191.815 435.336 191.815 435.092 191.571 434.957L184.373 430.819C184.102 430.684 183.696 430.684 183.453 430.819ZM160.937 454.324L153.739 458.462C153.495 458.597 153.495 458.841 153.739 458.976L160.937 463.114C161.181 463.249 161.587 463.249 161.857 463.114L169.056 458.976C169.299 458.841 169.299 458.597 169.056 458.462L161.857 454.324C161.614 454.188 161.208 454.188 160.937 454.324ZM142.697 443.802L135.499 447.94C135.255 448.075 135.255 448.319 135.499 448.454L142.697 452.592C142.941 452.728 143.347 452.728 143.617 452.592L150.816 448.454C151.059 448.319 151.059 448.075 150.816 447.94L143.617 443.802C143.374 443.667 142.968 443.667 142.697 443.802ZM185.158 466.089L192.356 461.951C192.6 461.816 192.6 461.572 192.356 461.437L188.188 459.03C187.945 458.895 187.945 458.651 188.188 458.516L196.388 453.783C196.632 453.647 196.632 453.404 196.388 453.269L189.19 449.103C188.946 448.968 188.54 448.968 188.27 449.103L179.61 454.107L171.951 458.516C171.708 458.651 171.708 458.895 171.951 459.03L184.21 466.116C184.508 466.225 184.914 466.225 185.158 466.089ZM197.417 443.802L190.218 447.94C189.975 448.075 189.975 448.319 190.218 448.454L209.134 459.381C209.378 459.517 209.784 459.517 210.055 459.381L217.253 455.243C217.497 455.108 217.497 454.864 217.253 454.729L198.337 443.802C198.093 443.667 197.687 443.667 197.417 443.802ZM227.077 460.923L219.878 465.062C219.634 465.197 219.634 465.44 219.878 465.575L227.077 469.714C227.32 469.849 227.726 469.849 227.997 469.714L235.195 465.575C235.439 465.44 235.439 465.197 235.195 465.062L227.997 460.923C227.753 460.788 227.347 460.788 227.077 460.923ZM236.196 466.198L228.998 470.336C228.754 470.471 228.754 470.715 228.998 470.85L236.196 474.988C236.44 475.123 236.846 475.123 237.117 474.988L244.315 470.85C244.559 470.715 244.559 470.471 244.315 470.336L237.117 466.198C236.873 466.035 236.467 466.035 236.196 466.198ZM245.316 471.445L238.145 475.61C237.901 475.745 237.901 475.989 238.145 476.124L245.343 480.262C245.587 480.398 245.993 480.398 246.263 480.262L253.462 476.124C253.706 475.989 253.706 475.745 253.462 475.61L246.263 471.472C245.993 471.31 245.587 471.31 245.316 471.445ZM254.436 476.719L247.238 480.858C246.994 480.993 246.994 481.236 247.238 481.371L254.436 485.51C254.68 485.645 255.086 485.645 255.356 485.51L262.555 481.371C262.798 481.236 262.798 480.993 262.555 480.858L255.356 476.719C255.113 476.557 254.707 476.557 254.436 476.719ZM263.556 481.966L256.358 486.105C256.114 486.24 256.114 486.483 256.358 486.619L263.556 490.757C263.8 490.892 264.206 490.892 264.476 490.757L271.675 486.619C271.918 486.483 271.918 486.24 271.675 486.105L264.476 481.966C264.233 481.831 263.827 481.831 263.556 481.966ZM272.676 487.241L265.477 491.379C265.234 491.514 265.234 491.758 265.477 491.893L272.676 496.031C272.919 496.167 273.325 496.167 273.596 496.031L280.795 491.893C281.038 491.758 281.038 491.514 280.795 491.379L273.596 487.241C273.352 487.106 272.947 487.106 272.676 487.241ZM281.796 492.515L274.597 496.653C274.354 496.789 274.354 497.032 274.597 497.167L281.796 501.306C282.039 501.441 282.445 501.441 282.716 501.306L289.914 497.167C290.158 497.032 290.158 496.789 289.914 496.653L282.716 492.515C282.472 492.353 282.066 492.353 281.796 492.515ZM290.916 497.762L283.717 501.901C283.474 502.036 283.474 502.279 283.717 502.415L293.676 508.176C293.92 508.311 294.325 508.311 294.596 508.176L301.795 504.038C302.038 503.902 302.038 503.659 301.795 503.524L291.836 497.762C291.592 497.627 291.186 497.627 290.916 497.762ZM218.281 455.838L211.083 459.977C210.839 460.112 210.839 460.355 211.083 460.49L218.281 464.629C218.525 464.764 218.931 464.764 219.201 464.629L226.4 460.49C226.644 460.355 226.644 460.112 226.4 459.977L219.201 455.838C218.931 455.703 218.525 455.703 218.281 455.838ZM180.097 473.69L187.295 469.552C187.539 469.416 187.539 469.173 187.295 469.038L170.977 459.625C170.734 459.49 170.328 459.49 170.057 459.625L162.859 463.763C162.615 463.899 162.615 464.142 162.859 464.277L179.177 473.69C179.447 473.825 179.853 473.825 180.097 473.69ZM271.296 484.211L278.494 480.073C278.738 479.938 278.738 479.694 278.494 479.559L234.816 454.351C234.573 454.215 234.167 454.215 233.896 454.351L226.698 458.489C226.454 458.624 226.454 458.868 226.698 459.003L270.376 484.211C270.646 484.374 271.052 484.374 271.296 484.211Z" fill="#AEACCC"></path> <path d="M149.328 461.005L142.021 456.785C141.507 456.488 141.507 456.028 142.021 455.73L144.24 454.432C144.754 454.134 145.566 454.134 146.053 454.432L153.36 458.651C153.874 458.949 153.874 459.409 153.36 459.706L151.141 461.005C150.654 461.302 149.842 461.302 149.328 461.005ZM162.317 467.442L164.536 466.144C165.051 465.846 165.051 465.386 164.536 465.089L157.23 460.869C156.715 460.572 155.904 460.572 155.416 460.869L153.197 462.168C152.683 462.465 152.683 462.925 153.197 463.222L160.504 467.442C160.991 467.712 161.803 467.712 162.317 467.442ZM173.467 473.852L175.686 472.554C176.2 472.256 176.2 471.797 175.686 471.499L168.379 467.28C167.865 466.982 167.053 466.982 166.566 467.28L164.347 468.578C163.833 468.875 163.833 469.335 164.347 469.633L171.654 473.852C172.141 474.15 172.953 474.15 173.467 473.852ZM184.616 480.29L186.835 478.991C187.35 478.694 187.35 478.234 186.835 477.936L179.529 473.717C179.014 473.419 178.203 473.419 177.716 473.717L175.496 475.015C174.982 475.313 174.982 475.773 175.496 476.07L182.803 480.29C183.29 480.587 184.102 480.587 184.616 480.29ZM195.766 486.727L197.985 485.429C198.499 485.131 198.499 484.671 197.985 484.374L190.678 480.154C190.164 479.857 189.352 479.857 188.865 480.154L186.646 481.453C186.132 481.75 186.132 482.21 186.646 482.508L193.953 486.727C194.44 487.025 195.252 487.025 195.766 486.727ZM206.915 493.164L209.134 491.866C209.649 491.569 209.649 491.109 209.134 490.811L201.828 486.592C201.314 486.294 200.502 486.294 200.015 486.592L197.795 487.89C197.281 488.188 197.281 488.647 197.795 488.945L205.102 493.164C205.589 493.462 206.401 493.462 206.915 493.164ZM218.038 499.602L220.257 498.304C220.771 498.006 220.771 497.546 220.257 497.249L212.95 493.029C212.436 492.732 211.624 492.732 211.137 493.029L208.918 494.327C208.404 494.625 208.404 495.085 208.918 495.382L216.225 499.602C216.739 499.899 217.551 499.899 218.038 499.602ZM229.187 506.039L231.406 504.741C231.921 504.443 231.921 503.984 231.406 503.686L224.1 499.467C223.586 499.169 222.774 499.169 222.287 499.467L220.067 500.765C219.553 501.062 219.553 501.522 220.067 501.82L227.374 506.039C227.888 506.31 228.7 506.31 229.187 506.039ZM240.337 512.45L242.556 511.151C243.07 510.854 243.07 510.394 242.556 510.096L235.249 505.877C234.735 505.579 233.923 505.579 233.436 505.877L231.217 507.175C230.703 507.473 230.703 507.933 231.217 508.23L238.524 512.45C239.011 512.747 239.85 512.747 240.337 512.45ZM251.486 518.887L253.705 517.589C254.22 517.291 254.22 516.831 253.705 516.534L246.399 512.314C245.885 512.017 245.073 512.017 244.586 512.314L242.367 513.613C241.852 513.91 241.852 514.37 242.367 514.668L249.673 518.887C250.16 519.184 250.999 519.184 251.486 518.887ZM262.636 525.324L264.855 524.026C265.369 523.729 265.369 523.269 264.855 522.971L257.548 518.752C257.034 518.454 256.222 518.454 255.735 518.752L253.516 520.05C253.002 520.348 253.002 520.807 253.516 521.105L260.823 525.324C261.31 525.622 262.122 525.622 262.636 525.324ZM140.018 454.567L142.237 453.269C142.751 452.971 142.751 452.511 142.237 452.214L134.931 447.994C134.416 447.697 133.605 447.697 133.117 447.994L130.898 449.293C130.384 449.59 130.384 450.05 130.898 450.348L138.205 454.567C138.692 454.865 139.504 454.865 140.018 454.567ZM189.217 477.639L196.415 473.501C196.659 473.365 196.659 473.122 196.415 472.987L189.217 468.848C188.973 468.713 188.567 468.713 188.297 468.848L181.098 472.987C180.855 473.122 180.855 473.365 181.098 473.501L188.297 477.639C188.567 477.774 188.973 477.774 189.217 477.639ZM198.337 482.886L205.535 478.748C205.779 478.613 205.779 478.369 205.535 478.234L198.337 474.096C198.093 473.96 197.687 473.96 197.417 474.096L190.218 478.234C189.975 478.369 189.975 478.613 190.218 478.748L197.417 482.886C197.687 483.049 198.093 483.049 198.337 482.886ZM207.457 488.161L214.655 484.022C214.899 483.887 214.899 483.644 214.655 483.508L207.457 479.37C207.213 479.235 206.807 479.235 206.536 479.37L199.338 483.508C199.094 483.644 199.094 483.887 199.338 484.022L206.536 488.161C206.807 488.296 207.213 488.296 207.457 488.161ZM216.576 493.435L223.775 489.297C224.019 489.161 224.019 488.918 223.775 488.783L216.576 484.644C216.333 484.509 215.927 484.509 215.656 484.644L208.458 488.783C208.214 488.918 208.214 489.161 208.458 489.297L215.656 493.435C215.927 493.57 216.333 493.57 216.576 493.435ZM225.696 498.682L232.895 494.544C233.138 494.409 233.138 494.165 232.895 494.03L225.696 489.892C225.453 489.756 225.047 489.756 224.776 489.892L217.578 494.03C217.334 494.165 217.334 494.409 217.578 494.544L224.776 498.682C225.047 498.844 225.453 498.844 225.696 498.682ZM234.816 503.957L242.015 499.818C242.258 499.683 242.258 499.44 242.015 499.304L234.816 495.139C234.573 495.004 234.167 495.004 233.896 495.139L226.698 499.304C226.454 499.44 226.454 499.683 226.698 499.818L233.896 503.957C234.167 504.092 234.573 504.092 234.816 503.957ZM243.936 509.204L251.135 505.066C251.378 504.93 251.378 504.687 251.135 504.552L243.936 500.386C243.693 500.251 243.287 500.251 243.016 500.386L235.818 504.525C235.574 504.66 235.574 504.903 235.818 505.038L243.016 509.177C243.287 509.366 243.693 509.366 243.936 509.204ZM253.056 514.478L260.254 510.34C260.498 510.205 260.498 509.961 260.254 509.826L253.056 505.688C252.812 505.552 252.407 505.552 252.136 505.688L244.937 509.826C244.694 509.961 244.694 510.205 244.937 510.34L252.136 514.478C252.407 514.613 252.812 514.613 253.056 514.478ZM267.236 522.674L274.435 518.508C274.679 518.373 274.679 518.13 274.435 517.994L262.176 510.908C261.932 510.773 261.526 510.773 261.256 510.908L254.057 515.046C253.814 515.181 253.814 515.425 254.057 515.56L266.316 522.647C266.587 522.809 266.993 522.809 267.236 522.674ZM207.457 446.047L214.655 441.909C214.899 441.773 214.899 441.53 214.655 441.395L207.457 437.256C207.213 437.121 206.807 437.121 206.536 437.256L199.338 441.395C199.094 441.53 199.094 441.773 199.338 441.909L206.536 446.047C206.807 446.209 207.213 446.209 207.457 446.047ZM216.576 451.321L223.775 447.183C224.019 447.048 224.019 446.804 223.775 446.669L216.576 442.531C216.333 442.396 215.927 442.396 215.656 442.531L208.458 446.669C208.214 446.804 208.214 447.048 208.458 447.183L215.656 451.321C215.927 451.457 216.333 451.457 216.576 451.321ZM225.696 456.596L232.895 452.457C233.138 452.322 233.138 452.079 232.895 451.943L225.696 447.805C225.453 447.67 225.047 447.67 224.776 447.805L217.578 451.943C217.334 452.079 217.334 452.322 217.578 452.457L224.776 456.596C225.047 456.731 225.453 456.731 225.696 456.596ZM280.416 488.161L287.614 484.022C287.858 483.887 287.858 483.644 287.614 483.508L280.416 479.37C280.172 479.235 279.766 479.235 279.496 479.37L272.297 483.508C272.054 483.644 272.054 483.887 272.297 484.022L279.496 488.161C279.766 488.296 280.172 488.296 280.416 488.161ZM289.536 493.435L296.734 489.297C296.978 489.161 296.978 488.918 296.734 488.783L289.536 484.644C289.292 484.509 288.886 484.509 288.615 484.644L281.444 488.756C281.2 488.891 281.2 489.134 281.444 489.27L288.642 493.408C288.886 493.57 289.292 493.57 289.536 493.435ZM303.743 501.603L310.942 497.465C311.185 497.33 311.185 497.086 310.942 496.951L298.682 489.865C298.439 489.729 298.033 489.729 297.762 489.865L290.564 494.003C290.32 494.138 290.32 494.382 290.564 494.517L302.823 501.603C303.067 501.766 303.472 501.766 303.743 501.603ZM275.463 508.582L268.265 512.72C268.021 512.855 268.021 513.099 268.265 513.234L275.463 517.372C275.707 517.508 276.113 517.508 276.383 517.372L283.582 513.234C283.825 513.099 283.825 512.855 283.582 512.72L276.383 508.582C276.113 508.419 275.707 508.419 275.463 508.582ZM266.343 503.307L259.145 507.446C258.901 507.581 258.901 507.824 259.145 507.96L266.343 512.098C266.587 512.233 266.993 512.233 267.264 512.098L274.462 507.96C274.706 507.824 274.706 507.581 274.462 507.446L267.264 503.307C266.993 503.172 266.587 503.172 266.343 503.307ZM257.224 498.033L250.025 502.171C249.782 502.307 249.782 502.55 250.025 502.685L257.224 506.851C257.467 506.986 257.873 506.986 258.144 506.851L265.342 502.685C265.586 502.55 265.586 502.307 265.342 502.171L258.144 498.033C257.873 497.898 257.467 497.898 257.224 498.033ZM248.104 492.786L240.905 496.924C240.662 497.059 240.662 497.303 240.905 497.438L248.104 501.576C248.347 501.712 248.753 501.712 249.024 501.576L256.222 497.438C256.466 497.303 256.466 497.059 256.222 496.924L249.024 492.786C248.753 492.651 248.347 492.651 248.104 492.786ZM238.984 487.511L231.785 491.65C231.542 491.785 231.542 492.028 231.785 492.164L238.984 496.302C239.227 496.437 239.633 496.437 239.904 496.302L247.102 492.164C247.346 492.028 247.346 491.785 247.102 491.65L239.904 487.511C239.633 487.376 239.227 487.376 238.984 487.511ZM229.864 482.264L222.665 486.402C222.422 486.538 222.422 486.781 222.665 486.916L229.864 491.055C230.107 491.19 230.513 491.19 230.784 491.055L237.983 486.916C238.226 486.781 238.226 486.538 237.983 486.402L230.784 482.264C230.513 482.102 230.107 482.102 229.864 482.264ZM220.744 476.99L213.546 481.128C213.302 481.263 213.302 481.507 213.546 481.642L220.744 485.78C220.988 485.916 221.394 485.916 221.664 485.78L228.863 481.642C229.106 481.507 229.106 481.263 228.863 481.128L221.664 476.99C221.394 476.855 220.988 476.855 220.744 476.99ZM211.624 471.743L204.426 475.908C204.182 476.043 204.182 476.287 204.426 476.422L211.624 480.56C211.868 480.695 212.274 480.695 212.544 480.56L219.743 476.422C219.986 476.287 219.986 476.043 219.743 475.908L212.544 471.743C212.274 471.58 211.868 471.58 211.624 471.743ZM202.504 466.468L195.306 470.607C195.062 470.742 195.062 470.985 195.306 471.12L202.504 475.259C202.748 475.394 203.154 475.394 203.424 475.259L210.623 471.12C210.866 470.985 210.866 470.742 210.623 470.607L203.424 466.468C203.154 466.333 202.748 466.333 202.504 466.468ZM193.384 461.194L186.186 465.332C185.942 465.467 185.942 465.711 186.186 465.846L193.384 469.984C193.628 470.12 194.034 470.12 194.305 469.984L201.503 465.846C201.747 465.711 201.747 465.467 201.503 465.332L194.305 461.194C194.034 461.059 193.628 461.059 193.384 461.194ZM206.536 458.273L199.338 462.411C199.094 462.546 199.094 462.79 199.338 462.925L206.536 467.063C206.78 467.198 207.186 467.198 207.457 467.063L214.655 462.925C214.899 462.79 214.899 462.546 214.655 462.411L207.457 458.273C207.213 458.137 206.807 458.137 206.536 458.273ZM215.656 463.547L208.458 467.685C208.214 467.821 208.214 468.064 208.458 468.199L215.656 472.338C215.9 472.473 216.306 472.473 216.576 472.338L223.775 468.199C224.019 468.064 224.019 467.821 223.775 467.685L216.576 463.547C216.333 463.385 215.927 463.385 215.656 463.547ZM224.776 468.794L217.578 472.933C217.334 473.068 217.334 473.311 217.578 473.447L224.776 477.585C225.02 477.72 225.426 477.72 225.696 477.585L232.895 473.447C233.138 473.311 233.138 473.068 232.895 472.933L225.696 468.794C225.453 468.659 225.047 468.659 224.776 468.794ZM233.896 474.069L226.698 478.207C226.454 478.342 226.454 478.586 226.698 478.721L233.896 482.859C234.14 482.994 234.546 482.994 234.816 482.859L242.015 478.721C242.258 478.586 242.258 478.342 242.015 478.207L234.816 474.069C234.573 473.933 234.167 473.933 233.896 474.069ZM243.016 479.343L235.818 483.481C235.574 483.617 235.574 483.86 235.818 483.995L243.016 488.134C243.26 488.269 243.666 488.269 243.936 488.134L251.135 483.995C251.378 483.86 251.378 483.617 251.135 483.481L243.936 479.343C243.693 479.181 243.287 479.181 243.016 479.343ZM252.163 484.59L244.964 488.729C244.721 488.864 244.721 489.107 244.964 489.243L252.163 493.381C252.407 493.516 252.812 493.516 253.083 493.381L260.282 489.243C260.525 489.107 260.525 488.864 260.282 488.729L253.083 484.59C252.812 484.455 252.407 484.455 252.163 484.59ZM261.283 489.865L254.084 494.003C253.841 494.138 253.841 494.382 254.084 494.517L261.283 498.655C261.526 498.79 261.932 498.79 262.203 498.655L269.401 494.517C269.645 494.382 269.645 494.138 269.401 494.003L262.203 489.865C261.932 489.702 261.526 489.702 261.283 489.865ZM270.403 495.112L263.204 499.277C262.961 499.412 262.961 499.656 263.204 499.791L270.403 503.929C270.646 504.065 271.052 504.065 271.323 503.929L278.521 499.791C278.765 499.656 278.765 499.412 278.521 499.277L271.323 495.112C271.052 494.977 270.646 494.977 270.403 495.112ZM279.523 500.386L272.324 504.525C272.081 504.66 272.081 504.903 272.324 505.038L284.583 512.125C284.827 512.26 285.233 512.26 285.503 512.125L292.702 507.987C292.945 507.851 292.945 507.608 292.702 507.473L280.443 500.386C280.172 500.251 279.766 500.251 279.523 500.386ZM197.417 453.025L190.218 457.164C189.975 457.299 189.975 457.542 190.218 457.678L197.417 461.816C197.66 461.951 198.066 461.951 198.337 461.816L205.535 457.678C205.779 457.542 205.779 457.299 205.535 457.164L198.337 453.025C198.093 452.863 197.687 452.863 197.417 453.025ZM160.937 442.504L153.739 446.642C153.495 446.777 153.495 447.021 153.739 447.156L160.937 451.294C161.181 451.43 161.587 451.43 161.857 451.294L169.056 447.156C169.299 447.021 169.299 446.777 169.056 446.642L161.857 442.504C161.614 442.341 161.208 442.341 160.937 442.504ZM170.057 447.751L162.859 451.916C162.615 452.052 162.615 452.295 162.859 452.43L170.057 456.569C170.301 456.704 170.706 456.704 170.977 456.569L178.176 452.43C178.419 452.295 178.419 452.052 178.176 451.916L170.977 447.751C170.734 447.616 170.328 447.616 170.057 447.751ZM151.817 437.229L144.619 441.368C144.375 441.503 144.375 441.746 144.619 441.882L151.817 446.02C152.061 446.155 152.467 446.155 152.737 446.02L159.936 441.882C160.179 441.746 160.179 441.503 159.936 441.368L152.737 437.229C152.494 437.094 152.088 437.094 151.817 437.229ZM151.817 447.751L144.619 451.916C144.375 452.052 144.375 452.295 144.619 452.43L151.817 456.569C152.061 456.704 152.467 456.704 152.737 456.569L159.936 452.43C160.179 452.295 160.179 452.052 159.936 451.916L152.737 447.751C152.494 447.616 152.088 447.616 151.817 447.751ZM188.297 426.708L185.158 428.52C184.914 428.655 184.914 428.899 185.158 429.034L192.356 433.172C192.6 433.307 193.006 433.307 193.276 433.172L196.415 431.36C196.659 431.225 196.659 430.981 196.415 430.846L189.217 426.708C188.973 426.546 188.567 426.546 188.297 426.708ZM197.417 431.955L194.277 433.767C194.034 433.903 194.034 434.146 194.277 434.281L201.476 438.42C201.719 438.555 202.125 438.555 202.396 438.42L205.535 436.607C205.779 436.472 205.779 436.229 205.535 436.093L198.337 431.955C198.093 431.82 197.687 431.82 197.417 431.955ZM179.177 421.433L176.038 423.246C175.794 423.381 175.794 423.624 176.038 423.76L183.236 427.898C183.48 428.033 183.886 428.033 184.156 427.898L187.295 426.086C187.539 425.95 187.539 425.707 187.295 425.572L180.097 421.433C179.853 421.298 179.447 421.298 179.177 421.433ZM183.453 429.521L180.313 431.333C180.07 431.468 180.07 431.712 180.313 431.847L187.512 435.985C187.756 436.12 188.161 436.12 188.432 435.985L191.571 434.173C191.815 434.038 191.815 433.794 191.571 433.659L184.373 429.521C184.102 429.359 183.696 429.359 183.453 429.521ZM160.937 453.025L153.739 457.164C153.495 457.299 153.495 457.542 153.739 457.678L160.937 461.816C161.181 461.951 161.587 461.951 161.857 461.816L169.056 457.678C169.299 457.542 169.299 457.299 169.056 457.164L161.857 453.025C161.614 452.863 161.208 452.863 160.937 453.025ZM142.697 442.504L135.499 446.642C135.255 446.777 135.255 447.021 135.499 447.156L142.697 451.294C142.941 451.43 143.347 451.43 143.617 451.294L150.816 447.156C151.059 447.021 151.059 446.777 150.816 446.642L143.617 442.504C143.374 442.341 142.968 442.341 142.697 442.504ZM185.158 464.764L192.356 460.626C192.6 460.491 192.6 460.247 192.356 460.112L188.188 457.705C187.945 457.569 187.945 457.326 188.188 457.191L196.388 452.457C196.632 452.322 196.632 452.079 196.388 451.943L189.19 447.805C188.946 447.67 188.54 447.67 188.27 447.805L179.61 452.809L171.951 457.218C171.708 457.353 171.708 457.596 171.951 457.732L184.21 464.818C184.508 464.926 184.914 464.926 185.158 464.764ZM197.417 442.504L190.218 446.642C189.975 446.777 189.975 447.021 190.218 447.156L209.134 458.083C209.378 458.219 209.784 458.219 210.055 458.083L217.253 453.945C217.497 453.81 217.497 453.566 217.253 453.431L198.337 442.504C198.093 442.341 197.687 442.341 197.417 442.504ZM227.077 459.598L219.878 463.736C219.634 463.872 219.634 464.115 219.878 464.25L227.077 468.389C227.32 468.524 227.726 468.524 227.997 468.389L235.195 464.25C235.439 464.115 235.439 463.872 235.195 463.736L227.997 459.598C227.753 459.463 227.347 459.463 227.077 459.598ZM236.196 464.872L228.998 469.011C228.754 469.146 228.754 469.389 228.998 469.525L236.196 473.663C236.44 473.798 236.846 473.798 237.117 473.663L244.315 469.525C244.559 469.389 244.559 469.146 244.315 469.011L237.117 464.872C236.873 464.71 236.467 464.71 236.196 464.872ZM245.316 470.12L238.145 474.285C237.901 474.42 237.901 474.664 238.145 474.799L245.343 478.937C245.587 479.073 245.993 479.073 246.263 478.937L253.462 474.799C253.706 474.664 253.706 474.42 253.462 474.285L246.263 470.147C245.993 469.984 245.587 469.984 245.316 470.12ZM254.436 475.394L247.238 479.559C246.994 479.695 246.994 479.938 247.238 480.073L254.436 484.212C254.68 484.347 255.086 484.347 255.356 484.212L262.555 480.073C262.798 479.938 262.798 479.695 262.555 479.559L255.356 475.394C255.113 475.259 254.707 475.259 254.436 475.394ZM263.556 480.668L256.358 484.807C256.114 484.942 256.114 485.185 256.358 485.321L263.556 489.459C263.8 489.594 264.206 489.594 264.476 489.459L271.675 485.321C271.918 485.185 271.918 484.942 271.675 484.807L264.476 480.668C264.233 480.506 263.827 480.506 263.556 480.668ZM272.676 485.916L265.477 490.054C265.234 490.189 265.234 490.433 265.477 490.568L272.676 494.706C272.919 494.841 273.325 494.841 273.596 494.706L280.795 490.568C281.038 490.433 281.038 490.189 280.795 490.054L273.596 485.916C273.352 485.78 272.947 485.78 272.676 485.916ZM281.796 491.19L274.597 495.328C274.354 495.464 274.354 495.707 274.597 495.842L281.796 499.981C282.039 500.116 282.445 500.116 282.716 499.981L289.914 495.842C290.158 495.707 290.158 495.464 289.914 495.328L282.716 491.19C282.472 491.028 282.066 491.028 281.796 491.19ZM290.916 496.437L283.717 500.576C283.474 500.711 283.474 500.954 283.717 501.089L293.676 506.851C293.92 506.986 294.325 506.986 294.596 506.851L301.795 502.712C302.038 502.577 302.038 502.334 301.795 502.198L291.836 496.437C291.592 496.302 291.186 496.302 290.916 496.437ZM218.281 454.513L211.083 458.678C210.839 458.814 210.839 459.057 211.083 459.192L218.281 463.331C218.525 463.466 218.931 463.466 219.201 463.331L226.4 459.192C226.644 459.057 226.644 458.814 226.4 458.678L219.201 454.54C218.931 454.378 218.525 454.378 218.281 454.513ZM180.097 472.365L187.295 468.226C187.539 468.091 187.539 467.848 187.295 467.712L170.977 458.3C170.734 458.164 170.328 458.164 170.057 458.3L162.859 462.438C162.615 462.573 162.615 462.817 162.859 462.952L179.177 472.365C179.447 472.527 179.853 472.527 180.097 472.365ZM271.296 482.886L278.494 478.748C278.738 478.613 278.738 478.369 278.494 478.234L234.816 453.025C234.573 452.89 234.167 452.89 233.896 453.025L226.698 457.164C226.454 457.299 226.454 457.542 226.698 457.678L270.376 482.886C270.646 483.049 271.052 483.049 271.296 482.886Z" fill="white"></path> <path d="M110.763 454.216L247.805 536.874C248.671 537.388 252.46 535.305 253.163 534.845C254.002 534.304 254.489 533.276 254.192 532.14L222.692 419.513C222.259 417.944 221.203 416.592 219.796 415.78L79.9398 335.07C79.0197 334.556 78.0996 334.799 77.3148 335.205C75.5829 336.043 74.2568 336.611 74.2568 336.611L107.895 450.483C108.274 452.052 109.329 453.404 110.763 454.216Z" fill="#B3B5CA"></path> <path d="M107.3 455.865L247.156 536.575C249.05 537.657 251.296 535.926 250.728 533.817L219.201 421.162C218.768 419.593 217.712 418.241 216.305 417.43L76.4489 336.719C74.5546 335.637 72.3084 337.368 72.8767 339.478L104.377 452.105C104.837 453.701 105.865 455.026 107.3 455.865Z" fill="#E7EBF5"></path> <path d="M143.238 421.785C143.238 413.833 148.813 410.615 155.714 414.591C162.615 418.567 168.189 428.223 168.189 436.175C168.189 444.127 162.615 447.346 155.714 443.37C148.813 439.394 143.238 429.738 143.238 421.785Z" fill="white"></path> <path opacity="0.5" d="M250.133 375.668L215.9 395.44L181.64 375.668L215.9 355.923L250.133 375.668Z" fill="#21386E"></path> <path d="M249.918 375.074L215.657 394.846L181.424 375.074L215.657 355.302L249.918 375.074Z" fill="#F3CD80"></path> <path opacity="0.3" d="M213.465 365.877L181.072 388.544L144.998 371.449L177.391 348.783L213.465 365.877Z" fill="url(#paint7_linear)"></path> <path d="M213.248 364.903L180.855 387.569L144.998 370.881L177.391 348.215L213.248 364.903Z" fill="#FAFAFF"></path> <path opacity="0.5" d="M397.378 556.564C407.662 562.515 407.662 572.144 397.378 578.068C387.095 584.018 370.397 584.018 360.087 578.068C349.803 572.117 349.803 562.488 360.087 556.564C370.37 550.614 387.067 550.614 397.378 556.564Z" fill="#21386E"></path> <path d="M349.965 515.18V564.326C349.694 568.411 352.238 572.549 357.65 575.686C367.934 581.637 384.631 581.637 394.942 575.686C400.084 572.711 402.654 568.816 402.654 564.921V515.153H349.965V515.18Z" fill="#25C6BF"></path> <path d="M394.942 505.065C405.225 511.016 405.225 520.645 394.942 526.568C384.658 532.519 367.961 532.519 357.65 526.568C347.367 520.618 347.367 510.989 357.65 505.065C367.934 499.142 384.658 499.115 394.942 505.065Z" fill="url(#paint8_linear)"></path> <path d="M376.296 529.328C369.558 529.328 363.225 527.813 358.516 525.108C354.078 522.566 351.643 519.266 351.643 515.831C351.643 512.396 354.078 509.096 358.516 506.553C363.252 503.822 369.558 502.334 376.296 502.334C383.034 502.334 389.367 503.822 394.076 506.553C398.514 509.096 400.949 512.396 400.949 515.831C400.949 519.266 398.514 522.566 394.076 525.108C389.367 527.813 383.062 529.328 376.296 529.328Z" fill="#D6D6E0"></path> <path d="M392.128 515.397C387.392 512.665 381.087 511.178 374.348 511.178C367.61 511.178 361.277 512.692 356.568 515.397C354.809 516.398 353.375 517.534 352.266 518.751C353.24 521.104 355.378 523.295 358.517 525.107C363.253 527.839 369.558 529.327 376.297 529.327C383.035 529.327 389.368 527.812 394.076 525.107C395.835 524.107 397.27 522.971 398.379 521.753C397.405 519.4 395.267 517.209 392.128 515.397Z" fill="#332824"></path> <path d="M391.964 526.189C391.45 523.214 389.096 520.374 385.199 518.129C380.463 515.397 374.157 513.909 367.419 513.909C363.712 513.909 360.139 514.369 356.892 515.207C356.784 515.262 356.648 515.343 356.54 515.397C354.781 516.398 353.347 517.534 352.237 518.751C353.212 521.104 355.349 523.295 358.489 525.107C363.224 527.839 369.53 529.326 376.268 529.326C382.087 529.326 387.553 528.218 391.964 526.189Z" fill="#54403B"></path> <path d="M397.567 564.922L392.967 561.649L397.54 559.052C399.813 560.377 401.924 560.648 403.548 560.053C405.686 559.268 404.82 559.972 404.82 556.564C404.82 555.428 403.846 552.615 403.494 551.56C401.951 546.989 400.463 541.931 396.187 539.469L392.994 535.791L397.567 533.194C404.685 537.306 410.476 547.313 410.476 555.509C410.476 560.377 408.284 562.893 405.442 564.543C405.063 564.759 402.655 566.247 402.384 566.301C400.355 566.626 400.111 566.382 397.567 564.922Z" fill="url(#paint9_linear)"></path> <path d="M392.967 565.57V561.649C398.217 564.678 402.466 562.217 402.466 556.158C402.466 550.099 398.19 542.715 392.967 539.686V535.764C400.084 539.875 405.875 549.883 405.875 558.078C405.875 566.328 400.084 569.655 392.967 565.57Z" fill="#46EDE6"></path> <path d="M626.62 384.918L550.007 429.114C545.407 431.765 537.938 431.765 533.337 429.114L533.175 429.006C530.577 427.518 529.846 425.517 529.765 423.542C529.711 422.217 529.549 419.025 529.711 418.647C530.225 417.538 531.659 420.242 533.175 419.377L609.787 375.181L626.62 380.347V384.918Z" fill="#C9C8C8"></path> <path d="M626.62 380.375L550.008 424.571C545.407 427.222 537.938 427.222 533.337 424.571L533.175 424.463C528.574 421.812 528.574 417.512 533.175 414.834L609.787 370.638L626.62 380.375Z" fill="#EFEFEF"></path> <path d="M550.007 424.3C545.406 426.95 537.937 426.95 533.336 424.3L533.174 424.191C530.928 422.893 529.818 421.216 529.737 419.539C529.683 421.324 530.793 423.137 533.174 424.489L533.336 424.597C537.937 427.248 545.406 427.248 550.007 424.597L626.619 380.401L626.375 380.266L550.007 424.3Z" fill="white"></path> <path opacity="0.5" d="M202.342 353.138L126.298 309.239L215.9 257.523L291.944 301.422L202.342 353.138Z" fill="#21386E"></path> <path d="M195.685 349.297L119.614 305.398V304.289L209.216 253.683L285.288 296.472V297.581L195.685 349.297Z" fill="#847AAD"></path> <path d="M195.685 348.188L119.614 304.289L209.216 252.573L285.288 296.472L195.685 348.188Z" fill="#403B54"></path> <path d="M122.971 303.99V293.252L209.217 263.229L285.288 283.514V294.252L195.686 345.968L122.971 303.99Z" fill="#FAFAFF"></path> <path d="M195.685 335.204L119.614 291.333V290.197L209.216 239.617L285.288 282.407V283.516L195.685 335.204Z" fill="#847AAD"></path> <path d="M195.685 334.095L119.614 290.196L209.216 238.508L285.288 282.407L195.685 334.095Z" fill="#EC959D"></path> <path d="M285.288 282.407V297.581L195.686 349.297V334.096L285.288 282.407Z" fill="#403B54"></path> <path d="M195.685 334.095V349.296L194.819 348.809V333.608L195.685 334.095Z" fill="#847AAD"></path> <path d="M204.093 333.608L201.59 337.941L204.097 339.388L206.601 335.055L204.093 333.608Z" fill="white"></path> <path d="M209.101 330.702L206.598 335.035L209.105 336.482L211.608 332.149L209.101 330.702Z" fill="white"></path> <path d="M214.11 327.833L211.606 332.166L214.114 333.613L216.617 329.28L214.11 327.833Z" fill="white"></path> <path opacity="0.7" d="M122.971 295.525L194.82 336.989V334.717L122.971 293.253V295.525Z" fill="#E2E2E2"></path> <path d="M154.171 316.92C154.171 316.92 148.055 320.274 147.758 325.548L138.936 320.544C138.936 320.544 139.91 314.377 145.62 312.105L154.171 316.92Z" fill="#F3CD80"></path> <path d="M202.911 242.132L262.637 276.591L265.641 274.86L205.915 240.401L202.911 242.132Z" fill="#F6C6CD"></path> <path d="M270.24 277.539L267.236 279.243L278.981 286.032L281.985 284.301L270.24 277.539Z" fill="#F6C6CD"></path> <path d="M192.547 332.309L193.927 333.094L283.529 281.378L282.149 280.594L192.547 332.309Z" fill="#403B54"></path> <path d="M474.343 100.158C473.585 100.158 472.962 99.5358 472.962 98.7785C472.962 98.6703 472.8 95.3975 467.875 93.8828C464.33 92.8009 462.056 95.2352 461.975 95.3434C461.461 95.9114 460.595 95.9655 460.027 95.4516C459.458 94.9377 459.404 94.0722 459.919 93.5041C460.054 93.3419 463.437 89.6092 468.714 91.2321C475.669 93.3689 475.75 98.5621 475.75 98.7785C475.723 99.5358 475.1 100.158 474.343 100.158Z" fill="#403854"></path> <path d="M445.711 93.613C444.953 93.613 444.331 92.9909 444.331 92.2336C444.331 92.1254 444.168 88.8526 439.243 87.3379C435.698 86.256 433.425 88.6903 433.343 88.7985C432.829 89.3665 431.963 89.4206 431.395 88.9067C430.827 88.3928 430.773 87.5272 431.287 86.9592C431.422 86.7969 434.778 83.0643 440.082 84.6872C447.037 86.824 447.118 92.0172 447.118 92.2336C447.091 92.9909 446.468 93.613 445.711 93.613Z" fill="#403854"></path> <path d="M426.524 327.28C426.524 327.28 439.595 319.68 445.169 319.761C450.771 319.842 458.078 319.22 462.624 315.082C467.171 310.943 472.204 314.324 470.445 318.733C466.088 329.552 447.74 330.499 445.792 338.424C443.843 346.322 433.316 356.789 433.316 356.789L420.922 339.425L426.524 327.28Z" fill="#FF9C9C"></path> <path opacity="0.5" d="M458.7 524.54L493.204 544.447C494.99 545.475 497.886 545.475 499.672 544.447L577.745 499.385C579.532 498.358 579.532 496.681 577.745 495.653L543.241 475.745C541.455 474.718 538.56 474.718 536.774 475.745L458.7 520.807C456.914 521.835 456.914 523.512 458.7 524.54Z" fill="#21386E"></path> <path d="M458.7 521.564L493.204 541.471C494.99 542.499 497.885 542.499 499.672 541.471L577.745 496.409C578.692 495.868 579.071 495.138 579.071 494.408C579.071 493.705 579.071 491.081 579.071 491.081L543.241 472.743C541.455 471.715 538.56 471.715 536.774 472.743L457.374 516.127C457.374 516.127 457.32 519.049 457.374 519.752C457.401 520.428 457.834 521.077 458.7 521.564Z" fill="#B3B5CA"></path> <path d="M458.699 518.13L493.203 538.037C494.989 539.065 497.885 539.065 499.671 538.037L577.744 492.975C579.531 491.947 579.531 490.27 577.744 489.243L543.24 469.335C541.454 468.307 538.559 468.307 536.773 469.335L458.699 514.397C456.913 515.425 456.913 517.102 458.699 518.13Z" fill="#E7EBF5"></path> <path d="M467.36 512.124L503.596 533.033L568.653 495.49L532.417 474.582L467.36 512.124Z" fill="#403B54"></path> <path d="M474.937 523.377C474.856 523.431 474.802 523.485 474.802 523.539C474.802 523.593 474.856 523.674 474.937 523.701L481.161 527.299C481.378 527.434 481.784 527.434 482 527.299C482.081 527.245 482.136 527.19 482.136 527.136C482.136 527.082 482.081 527.028 482 526.974L475.776 523.377C475.668 523.323 475.505 523.269 475.37 523.269C475.208 523.269 475.072 523.296 474.937 523.377Z" fill="#58567A"></path> <path opacity="0.1" d="M520.05 523.54L503.596 533.034L467.36 512.125L520.05 481.724V523.54Z" fill="#F0F0F0"></path> <path opacity="0.3" d="M452.422 378.508L416.159 357.6C378.082 338.126 325.961 312.836 324.337 319.571C321.793 330.228 402.303 372.152 412.857 376.75C423.411 381.375 429.365 380.077 435.778 379.752C440.298 379.509 448.065 378.86 452.422 378.508Z" fill="#21386E"></path> <path d="M500.7 382.375C495.207 372.476 482.731 368.906 472.827 374.369L406.606 414.319C403.142 412.371 393.67 396.359 390.991 394.953C388.231 393.519 367.068 387.325 364.498 386.676C361.927 386.054 348.883 392.978 347.449 393.708C346.014 394.439 340.737 400.2 338.87 402.445C337.003 404.717 341.414 409.64 345.554 407.746C349.668 405.88 355.405 401.931 355.405 401.931L365.607 399.47L375.674 405.15C375.674 405.15 358.517 412.398 356.731 413.48C354.945 414.562 346.42 423.867 344.336 426.193C342.253 428.519 336.678 441.096 336.299 441.773C335.298 444.396 341.82 447.615 344.066 444.856C346.285 442.07 353.971 431.034 353.971 431.034L363.55 423.082L377.325 416.158C377.325 416.158 365.391 423.407 364.281 424.218C363.145 425.03 348.017 444.423 345.906 447.182C343.768 449.914 349.478 453.836 353.24 450.644C353.456 450.455 353.7 450.238 353.943 450.022C354.755 451.618 356.704 453.106 359.735 452.294C364.931 450.888 378.11 443.585 378.11 443.585L386.932 441.096C386.932 441.096 409.069 452.348 415.076 452.402C421.084 452.456 450.771 433.442 450.771 433.442L492.717 410.208C502.595 404.744 506.167 392.275 500.7 382.375ZM361.304 442.395C365.012 438.337 368.422 434.47 368.422 434.47L381.898 426.896L382.981 428.844C382.981 428.817 369.937 436.931 361.304 442.395Z" fill="url(#paint10_linear)"></path> <path d="M475.127 346.213C473.937 344.996 468.064 339.046 467.009 338.424C465.953 337.802 454.506 330.58 453.207 330.228C451.908 329.876 439.73 326.144 437.268 325.143C434.805 324.142 430.881 324.846 427.985 326.468C426.686 327.199 421.003 330.958 415.997 334.177L347.692 289.548C337.734 283.76 324.906 287.303 319.359 297.527C314 307.4 318.141 319.788 327.829 325.414L395.024 364.417C400.734 367.906 406.931 371.341 411.342 373.694C415.185 375.777 419.488 376.805 423.872 376.696L444.899 376.264C447.335 376.21 449.743 375.75 452.016 374.857C455.237 373.613 459.621 371.855 460.378 371.152C461.623 369.989 461.028 367.284 461.028 367.284C461.028 367.284 462.056 367.013 462.895 366.77C466.9 365.607 467.333 359.521 465.223 358.71C464.194 358.331 460.676 357.411 457.077 356.546C460.839 357.087 463.842 357.546 465.06 357.871C469.553 359.007 470.473 352.407 469.444 351.677C468.957 351.325 464.844 349.162 460.433 346.863C464.492 348.702 468.47 350.487 470.121 351.19C474.207 352.921 476.345 347.431 475.127 346.213Z" fill="url(#paint11_linear)"></path> </g> <defs> <linearGradient id="paint0_linear" x1="68.3525" y1="612.987" x2="755.825" y2="89.0984" gradientUnits="userSpaceOnUse"> <stop stop-color="#1CC1BB"></stop> <stop offset="1" stop-color="#54DED0"></stop> </linearGradient> <linearGradient id="paint1_linear" x1="375.96" y1="296.037" x2="337.724" y2="276.671" gradientUnits="userSpaceOnUse"> <stop stop-color="#F99595"></stop> <stop offset="0.3771" stop-color="#F9A9A9"></stop> <stop offset="1" stop-color="#F9C7C7"></stop> </linearGradient> <linearGradient id="paint2_linear" x1="484.68" y1="82.1811" x2="483.298" y2="174.794" gradientUnits="userSpaceOnUse"> <stop stop-color="#872F4E"></stop> <stop offset="0.2814" stop-color="#AA5D73"></stop> <stop offset="0.7729" stop-color="#E3A9AF"></stop> <stop offset="1" stop-color="#F9C7C7"></stop> </linearGradient> <linearGradient id="paint3_linear" x1="518.516" y1="44.7427" x2="440.187" y2="123.113" gradientUnits="userSpaceOnUse"> <stop stop-color="#F99595"></stop> <stop offset="0.3771" stop-color="#F9A9A9"></stop> <stop offset="1" stop-color="#F9C7C7"></stop> </linearGradient> <linearGradient id="paint4_linear" x1="461.455" y1="85.3975" x2="518.587" y2="25.9298" gradientUnits="userSpaceOnUse"> <stop stop-color="#403B54"></stop> <stop offset="1" stop-color="#69618A"></stop> </linearGradient> <linearGradient id="paint5_linear" x1="523.807" y1="361.852" x2="482.318" y2="346.059" gradientUnits="userSpaceOnUse"> <stop stop-color="#F99595"></stop> <stop offset="0.3771" stop-color="#F9A9A9"></stop> <stop offset="1" stop-color="#F9C7C7"></stop> </linearGradient> <linearGradient id="paint6_linear" x1="-0.00104701" y1="468.298" x2="685.19" y2="468.298" gradientUnits="userSpaceOnUse"> <stop stop-color="white"></stop> <stop offset="1" stop-color="#E2E2E2"></stop> </linearGradient> <linearGradient id="paint7_linear" x1="145.01" y1="368.666" x2="213.467" y2="368.666" gradientUnits="userSpaceOnUse"> <stop stop-color="#4E2C51"></stop> <stop offset="1" stop-color="#4E2C51"></stop> </linearGradient> <linearGradient id="paint8_linear" x1="349.943" y1="515.82" x2="402.67" y2="515.82" gradientUnits="userSpaceOnUse"> <stop stop-color="#F1F1FD"></stop> <stop offset="0.9545" stop-color="#EEEEFA"></stop> <stop offset="0.9951" stop-color="#EEEEFA"></stop> </linearGradient> <linearGradient id="paint9_linear" x1="392.967" y1="566.428" x2="419.443" y2="556.031" gradientUnits="userSpaceOnUse"> <stop stop-color="#1CC1BB"></stop> <stop offset="1" stop-color="#54DED0"></stop> </linearGradient> <linearGradient id="paint10_linear" x1="437.417" y1="442.934" x2="413.952" y2="405.363" gradientUnits="userSpaceOnUse"> <stop stop-color="#F99595"></stop> <stop offset="0.3771" stop-color="#F9A9A9"></stop> <stop offset="1" stop-color="#F9C7C7"></stop> </linearGradient> <linearGradient id="paint11_linear" x1="398.276" y1="288.137" x2="394.103" y2="367.793" gradientUnits="userSpaceOnUse"> <stop stop-color="#F9C7C7"></stop> <stop offset="0.6229" stop-color="#F9A9A9"></stop> <stop offset="1" stop-color="#F99595"></stop> </linearGradient> <clipPath id="clip0"> <rect width="691" height="666" fill="white"></rect> </clipPath> </defs> </svg> 