<?xml version="1.0" encoding="UTF-8"?> <svg xmlns="http://www.w3.org/2000/svg" width="334" height="334" viewBox="0 0 334 334" fill="none"> <circle opacity="0.56" cx="167" cy="167" r="167" fill="#F2C94C"></circle> <path d="M78.096 117.024H98.064V96.328H110.232V117.024H130.304V128.672H110.232V149.576H98.064V128.672H78.096V117.024ZM146.383 146.56H162.295V101.112L148.567 111.616L142.327 103.296L166.039 85.2H175.191V146.56H190.791V158H146.383V146.56ZM222.367 147.496C224.655 147.496 226.769 147.219 228.711 146.664C230.652 146.109 232.316 145.312 233.703 144.272C235.159 143.232 236.268 141.949 237.031 140.424C237.863 138.899 238.279 137.165 238.279 135.224C238.279 131.411 236.753 128.429 233.703 126.28C230.721 124.061 226.215 122.952 220.183 122.952C219.42 122.952 218.519 122.987 217.479 123.056C216.508 123.056 215.572 123.091 214.671 123.16C213.631 123.229 212.556 123.264 211.447 123.264V85.2H249.095V97.68H223.095V111.928C223.649 111.928 224.204 111.893 224.759 111.824C225.244 111.824 225.695 111.824 226.111 111.824C226.596 111.755 227.012 111.72 227.359 111.72C230.825 111.72 234.049 112.24 237.031 113.28C240.012 114.251 242.612 115.741 244.831 117.752C247.049 119.763 248.748 122.224 249.927 125.136C251.175 127.979 251.799 131.133 251.799 134.6C251.799 138.691 251.036 142.296 249.511 145.416C247.985 148.467 245.905 151.032 243.271 153.112C240.636 155.192 237.585 156.787 234.119 157.896C230.652 158.936 226.943 159.456 222.991 159.456C221.465 159.456 219.836 159.283 218.103 158.936C216.369 158.659 214.671 158.312 213.007 157.896C211.343 157.411 209.783 156.891 208.327 156.336C206.94 155.781 205.761 155.261 204.791 154.776L209.159 143.96C210.337 144.653 212.14 145.416 214.567 146.248C217.063 147.08 219.663 147.496 222.367 147.496ZM85.256 182.216L87.752 186.184C87.112 186.845 86.4507 187.315 85.768 187.592C85.4267 187.72 84.6693 187.955 83.496 188.296C82.344 188.616 81.544 188.893 81.096 189.128C79.6667 189.896 78.8347 191.165 78.6 192.936H78.664C79.112 192.36 79.7413 191.88 80.552 191.496C81.3627 191.112 82.2053 190.92 83.08 190.92C84.9787 190.92 86.5147 191.56 87.688 192.84C88.8613 194.077 89.448 195.773 89.448 197.928C89.448 200.04 88.744 201.811 87.336 203.24C85.928 204.669 84.072 205.384 81.768 205.384C79.272 205.384 77.32 204.552 75.912 202.888C74.504 201.224 73.8 198.973 73.8 196.136C73.8 190.056 75.6453 186.195 79.336 184.552C80.0613 184.232 80.8613 183.976 81.736 183.784C82.7173 183.549 83.4427 183.336 83.912 183.144C84.4027 182.931 84.8507 182.621 85.256 182.216ZM78.92 197.16C78.9413 198.227 79.1973 199.123 79.688 199.848C80.1787 200.552 80.8293 200.904 81.64 200.904C82.7493 200.989 83.5387 200.552 84.008 199.592C84.4773 198.632 84.488 197.672 84.04 196.712C83.6133 195.752 82.8773 195.315 81.832 195.4C80.424 195.4 79.4533 195.987 78.92 197.16ZM93.7023 195.112L92.5182 191.624C94.0543 190.685 95.8356 190.216 97.8623 190.216C99.9529 190.216 101.468 190.717 102.406 191.72C103.366 192.723 103.846 194.259 103.846 196.328V205H99.6863V203.688C98.9823 204.691 97.7236 205.192 95.9103 205.192C94.5449 205.192 93.4463 204.787 92.6143 203.976C91.7823 203.165 91.3663 202.056 91.3663 200.648C91.3663 199.133 91.8356 197.96 92.7743 197.128C93.7343 196.296 94.9929 195.88 96.5503 195.88C97.7663 195.88 98.7049 196.147 99.3663 196.68C99.4729 195.037 98.8116 194.216 97.3823 194.216C96.4009 194.216 95.1743 194.515 93.7023 195.112ZM97.5423 201.192C98.3956 201.192 99.0036 200.947 99.3663 200.456V199.56C98.9183 199.24 98.3103 199.08 97.5423 199.08C97.1369 199.08 96.8063 199.176 96.5503 199.368C96.2943 199.56 96.1663 199.827 96.1663 200.168C96.1663 200.488 96.2943 200.744 96.5503 200.936C96.8063 201.107 97.1369 201.192 97.5423 201.192ZM120.961 205H116.161V195.4H113.633L113.569 196.04C113.271 198.643 112.865 200.584 112.353 201.864C111.863 203.144 111.169 204.04 110.273 204.552C109.377 205.064 108.065 205.341 106.337 205.384L105.921 200.712C106.753 200.797 107.436 200.381 107.969 199.464C108.503 198.525 108.823 197.064 108.929 195.08L109.153 190.6H120.961V205ZM138.399 205H133.599V195.4H131.071L131.007 196.04C130.708 198.643 130.303 200.584 129.791 201.864C129.3 203.144 128.607 204.04 127.711 204.552C126.815 205.064 125.503 205.341 123.775 205.384L123.359 200.712C124.191 200.797 124.873 200.381 125.407 199.464C125.94 198.525 126.26 197.064 126.367 195.08L126.591 190.6H138.399V205ZM143.292 203.24C141.842 201.789 141.116 199.976 141.116 197.8C141.116 195.624 141.842 193.811 143.292 192.36C144.743 190.931 146.684 190.216 149.116 190.216C151.548 190.216 153.479 190.931 154.908 192.36C156.38 193.789 157.116 195.603 157.116 197.8C157.116 199.997 156.38 201.811 154.908 203.24C153.479 204.669 151.548 205.384 149.116 205.384C146.684 205.384 144.743 204.669 143.292 203.24ZM146.236 197.8C146.236 198.696 146.503 199.443 147.036 200.04C147.591 200.616 148.284 200.904 149.116 200.904C149.97 200.904 150.663 200.627 151.196 200.072C151.73 199.496 151.996 198.739 151.996 197.8C151.996 196.904 151.719 196.168 151.164 195.592C150.631 194.995 149.948 194.696 149.116 194.696C148.284 194.696 147.591 194.984 147.036 195.56C146.503 196.115 146.236 196.861 146.236 197.8ZM159.823 205V190.6C159.993 190.6 160.868 190.568 162.447 190.504C164.047 190.44 165.231 190.408 165.999 190.408C170.543 190.408 172.815 191.688 172.815 194.248C172.815 195.059 172.559 195.763 172.047 196.36C171.556 196.936 170.969 197.277 170.287 197.384V197.448C171.183 197.704 171.876 198.12 172.367 198.696C172.879 199.251 173.135 199.912 173.135 200.68C173.135 203.688 170.767 205.192 166.031 205.192C165.391 205.192 164.292 205.16 162.735 205.096C161.199 205.032 160.228 205 159.823 205ZM166.159 199.24H164.623V201.224C165.455 201.309 166.105 201.352 166.575 201.352C167.001 201.352 167.353 201.256 167.631 201.064C167.908 200.851 168.047 200.605 168.047 200.328C168.047 199.603 167.417 199.24 166.159 199.24ZM166.447 194.248C165.615 194.248 165.007 194.28 164.623 194.344V196.36H166.223C167.225 196.36 167.727 195.997 167.727 195.272C167.727 194.995 167.609 194.76 167.375 194.568C167.14 194.355 166.831 194.248 166.447 194.248ZM80.232 252.384C78.888 252.384 77.576 252.139 76.296 251.648C75.0587 251.136 74.1733 250.517 73.64 249.792L76.072 246.848C76.456 247.296 77.0213 247.691 77.768 248.032C78.5147 248.373 79.208 248.544 79.848 248.544C81.2347 248.544 81.928 248.203 81.928 247.52C81.928 246.795 81.416 246.432 80.392 246.432H77.64V243.232H80.232C80.68 243.232 81.0213 243.125 81.256 242.912C81.4907 242.699 81.608 242.421 81.608 242.08C81.608 241.397 80.9893 241.056 79.752 241.056C78.6 241.056 77.3733 241.611 76.072 242.72L74.088 239.84C75.5173 238.091 77.7147 237.216 80.68 237.216C82.6213 237.216 84.1147 237.589 85.16 238.336C86.2053 239.061 86.728 240.096 86.728 241.44C86.728 242.123 86.4827 242.752 85.992 243.328C85.5227 243.883 84.8933 244.288 84.104 244.544V244.608C86.0667 245.056 87.048 246.187 87.048 248C87.048 249.344 86.4293 250.411 85.192 251.2C83.9547 251.989 82.3013 252.384 80.232 252.384ZM91.6085 242.112L90.4245 238.624C91.9605 237.685 93.7418 237.216 95.7685 237.216C97.8592 237.216 99.3738 237.717 100.313 238.72C101.273 239.723 101.753 241.259 101.753 243.328V252H97.5925V250.688C96.8885 251.691 95.6298 252.192 93.8165 252.192C92.4512 252.192 91.3525 251.787 90.5205 250.976C89.6885 250.165 89.2725 249.056 89.2725 247.648C89.2725 246.133 89.7418 244.96 90.6805 244.128C91.6405 243.296 92.8992 242.88 94.4565 242.88C95.6725 242.88 96.6112 243.147 97.2725 243.68C97.3792 242.037 96.7178 241.216 95.2885 241.216C94.3072 241.216 93.0805 241.515 91.6085 242.112ZM95.4485 248.192C96.3018 248.192 96.9098 247.947 97.2725 247.456V246.56C96.8245 246.24 96.2165 246.08 95.4485 246.08C95.0432 246.08 94.7125 246.176 94.4565 246.368C94.2005 246.56 94.0725 246.827 94.0725 247.168C94.0725 247.488 94.2005 247.744 94.4565 247.936C94.7125 248.107 95.0432 248.192 95.4485 248.192ZM111.61 242.144L113.146 229.6H124.218V234.4H117.37L116.922 237.248H117.69C119.695 237.248 121.359 237.909 122.682 239.232C124.026 240.533 124.698 242.304 124.698 244.544C124.698 246.976 123.93 248.896 122.394 250.304C120.836 251.691 118.884 252.384 116.538 252.384C115.279 252.384 114.02 252.117 112.762 251.584C111.503 251.029 110.554 250.293 109.914 249.376L112.602 245.696C113.05 246.229 113.658 246.677 114.426 247.04C115.215 247.403 115.962 247.584 116.666 247.584C117.519 247.584 118.212 247.328 118.746 246.816C119.3 246.283 119.578 245.6 119.578 244.768C119.578 243.808 119.204 243.04 118.458 242.464C117.732 241.867 116.73 241.568 115.45 241.568C113.679 241.568 112.399 241.76 111.61 242.144ZM139.607 252.384C138.263 252.384 136.951 252.139 135.671 251.648C134.434 251.136 133.548 250.517 133.015 249.792L135.447 246.848C135.831 247.296 136.396 247.691 137.143 248.032C137.89 248.373 138.583 248.544 139.223 248.544C140.61 248.544 141.303 248.203 141.303 247.52C141.303 246.795 140.791 246.432 139.767 246.432H137.015V243.232H139.607C140.055 243.232 140.396 243.125 140.631 242.912C140.866 242.699 140.983 242.421 140.983 242.08C140.983 241.397 140.364 241.056 139.127 241.056C137.975 241.056 136.748 241.611 135.447 242.72L133.463 239.84C134.892 238.091 137.09 237.216 140.055 237.216C141.996 237.216 143.49 237.589 144.535 238.336C145.58 239.061 146.103 240.096 146.103 241.44C146.103 242.123 145.858 242.752 145.367 243.328C144.898 243.883 144.268 244.288 143.479 244.544V244.608C145.442 245.056 146.423 246.187 146.423 248C146.423 249.344 145.804 250.411 144.567 251.2C143.33 251.989 141.676 252.384 139.607 252.384ZM150.984 242.112L149.799 238.624C151.336 237.685 153.117 237.216 155.144 237.216C157.234 237.216 158.749 237.717 159.688 238.72C160.648 239.723 161.128 241.259 161.128 243.328V252H156.968V250.688C156.264 251.691 155.005 252.192 153.192 252.192C151.826 252.192 150.728 251.787 149.896 250.976C149.064 250.165 148.648 249.056 148.648 247.648C148.648 246.133 149.117 244.96 150.056 244.128C151.016 243.296 152.274 242.88 153.832 242.88C155.048 242.88 155.986 243.147 156.648 243.68C156.754 242.037 156.093 241.216 154.664 241.216C153.682 241.216 152.456 241.515 150.984 242.112ZM154.824 248.192C155.677 248.192 156.285 247.947 156.648 247.456V246.56C156.2 246.24 155.592 246.08 154.824 246.08C154.418 246.08 154.088 246.176 153.832 246.368C153.576 246.56 153.448 246.827 153.448 247.168C153.448 247.488 153.576 247.744 153.832 247.936C154.088 248.107 154.418 248.192 154.824 248.192ZM178.562 252H173.763V247.04H169.123V252H164.323V237.6H169.123V242.56H173.763V237.6H178.562V252ZM189.689 237.6H194.649V252H189.849V248.32H188.697L186.425 252H180.953L184.377 247.264C182.777 246.411 181.977 244.992 181.977 243.008C181.977 241.344 182.627 240.032 183.929 239.072C185.23 238.091 187.15 237.6 189.689 237.6ZM187.097 243.392C187.097 243.776 187.278 244.107 187.641 244.384C188.003 244.661 188.451 244.8 188.985 244.8H189.849V241.76H188.921C188.409 241.76 187.971 241.931 187.609 242.272C187.267 242.592 187.097 242.965 187.097 243.392ZM201.206 242.4H197.046V237.6H210.166V242.4H206.006V252H201.206V242.4ZM222.493 244.48L217.373 252H212.573V237.6H217.373V245.12L222.493 237.6H227.293V252H222.493V244.48ZM240.743 244.48L235.623 252H230.823V237.6H235.623V245.12L240.743 237.6H245.543V252H240.743V244.48ZM232.807 230.56H236.967C236.967 231.797 237.415 232.416 238.311 232.416C239.121 232.416 239.527 231.797 239.527 230.56H243.687C243.687 232.181 243.207 233.493 242.247 234.496C241.308 235.499 239.996 236 238.311 236C236.497 236 235.121 235.52 234.183 234.56C233.265 233.579 232.807 232.245 232.807 230.56Z" fill="black"></path> </svg> 