<?xml version="1.0" encoding="UTF-8"?> <svg xmlns="http://www.w3.org/2000/svg" width="120" height="120" viewBox="0 0 120 120" fill="none"> <circle cx="60" cy="60" r="60" fill="#EB5757"></circle> <path d="M73.472 81H44.928V74.792C45.44 74.3653 46.08 73.8107 46.848 73.128C47.616 72.4027 48.4693 71.592 49.408 70.696C50.3893 69.8 51.4133 68.8187 52.48 67.752C53.5467 66.6853 54.592 65.576 55.616 64.424C57.0667 62.8027 58.3253 61.3307 59.392 60.008C60.5013 58.6853 61.3973 57.448 62.08 56.296C62.8053 55.1013 63.3387 53.9493 63.68 52.84C64.0213 51.688 64.192 50.5147 64.192 49.32C64.192 48.4667 64 47.6347 63.616 46.824C63.232 46.0133 62.6987 45.3093 62.016 44.712C61.3333 44.072 60.5013 43.5813 59.52 43.24C58.5813 42.856 57.536 42.664 56.384 42.664C54.848 42.664 53.44 42.8987 52.16 43.368C50.9227 43.8373 49.6213 44.6267 48.256 45.736L44.928 39.848C46.72 38.568 48.704 37.5013 50.88 36.648C53.0987 35.752 55.6373 35.304 58.496 35.304C60.3307 35.304 62.08 35.56 63.744 36.072C65.4507 36.584 66.944 37.352 68.224 38.376C69.5467 39.3573 70.592 40.5947 71.36 42.088C72.128 43.5813 72.512 45.3093 72.512 47.272C72.512 48.6373 72.384 49.9173 72.128 51.112C71.9147 52.264 71.552 53.4373 71.04 54.632C70.5707 55.784 69.9307 56.9787 69.12 58.216C68.352 59.4533 67.4133 60.7973 66.304 62.248C65.4507 63.3573 64.512 64.488 63.488 65.64C62.5067 66.7493 61.5253 67.816 60.544 68.84C59.5627 69.864 58.5813 70.824 57.6 71.72C56.6613 72.616 55.808 73.3627 55.04 73.96H73.472V81Z" fill="white"></path> </svg> 