<?xml version="1.0" encoding="UTF-8"?> <svg xmlns="http://www.w3.org/2000/svg" width="720" height="800" viewBox="0 0 720 800" fill="none"> <path d="M0 48C0 31.1984 0 22.7976 3.2698 16.3803C6.14601 10.7354 10.7354 6.14601 16.3803 3.2698C22.7976 0 31.1984 0 48 0H672C688.802 0 697.202 0 703.62 3.2698C709.265 6.14601 713.854 10.7354 716.73 16.3803C720 22.7976 720 31.1984 720 48V752C720 768.802 720 777.202 716.73 783.62C713.854 789.265 709.265 793.854 703.62 796.73C697.202 800 688.802 800 672 800H48C31.1984 800 22.7976 800 16.3803 796.73C10.7354 793.854 6.14601 789.265 3.2698 783.62C0 777.202 0 768.802 0 752V48Z" fill="url(#paint0_linear_399_171)"></path> <defs> <linearGradient id="paint0_linear_399_171" x1="-5.36442e-06" y1="800" x2="778.361" y2="61.5126" gradientUnits="userSpaceOnUse"> <stop stop-color="#423783"></stop> <stop offset="1" stop-color="#515DC8"></stop> </linearGradient> </defs> </svg> 