<?xml version="1.0" encoding="UTF-8"?> <svg xmlns="http://www.w3.org/2000/svg" width="40" height="40" viewBox="0 0 40 40" fill="none"> <path fill-rule="evenodd" clip-rule="evenodd" d="M22.8561 0L28.7925 2.96528L28.0083 4.39286H26.2162L25.0847 6.91967L20.9768 5.09167L22.408 3.40457L21.96 1.31786L22.8561 0ZM24.9992 11.617C26.0493 12.3583 26.9475 13.1527 27.7135 13.9851L29.0324 13.111L28.2656 11.3818L29.6927 10.5157L33 15.1333L31.9263 15.8098L30.4695 14.9078L29.1873 15.8791C32.5164 21.0104 31.5146 27.0916 28.4841 31.3541L28.7876 36H12.4553V32.4448L6.48288 30.2488L7.65605 27.4256L13.2019 29.8306L21.4669 29.7249C27.1849 24.832 25.8173 19.1861 22.8846 16.1427L20.6613 20.9007L5.8614 14.0823L8.0789 10.4315L14.0699 13.2592L18.4913 5.44269L25.8833 9.72543L24.9992 11.617ZM13.0165 19.2889L17.8912 22.004L15.4049 26.5689L14.2094 26.1819L13.2394 28.0001L10.7027 26.9515L11.4704 25.2956L10.4785 24.9745L13.0165 19.2889ZM7.50119 16.2601L11.6839 18.5508L9.2339 22.3712L8.012 22.0339L7.06843 23.8028L5.22381 23.1785L6.01088 21.4813L5 21.2019L7.50119 16.2601Z" fill="#515DC8"></path> </svg> 