<?xml version="1.0" encoding="UTF-8"?> <svg xmlns="http://www.w3.org/2000/svg" width="80" height="62" viewBox="0 0 80 62" fill="none"> <path d="M40 0C39.7563 0 39.525 0.0375008 39.3 0.15L0.9 19.35C0.35625 19.625 0 20.1938 0 20.8C0 21.4062 0.35625 21.975 0.9 22.25L6.4 25V48.3C4.55 48.9688 3.2 50.7188 3.2 52.8C3.2 54.8375 5.65 58.5813 6.7 60.1L8 62L9.3 60.1C10.35 58.5813 12.8 54.8375 12.8 52.8C12.8 50.7188 11.45 48.9688 9.6 48.3V26.6L12.8 28.2V24C12.8 18.45 20.7875 17.325 24.2 16.85C29.3438 16.1375 35.6313 16 40 16C44.3688 16 50.6563 16.1375 55.8 16.85C59.2125 17.325 67.2 18.45 67.2 24V28.2L79.1 22.25C79.6438 21.9813 80 21.4062 80 20.8C80 20.1938 79.6438 19.625 79.1 19.35L40.7 0.15C40.475 0.0375008 40.2438 0 40 0ZM40 19.2C31.0375 19.2 16 19.825 16 24V31.45C19.325 30.0312 26.1125 28.8 40 28.8C53.8875 28.8 60.675 30.0312 64 31.45V24C64 19.825 48.9625 19.2 40 19.2ZM40 32C23.375 32 16.4625 33.9562 16 35.2C16.025 39.3625 31.0438 40 40 40C48.7688 40 63.3188 39.3875 63.95 35.45C63.9688 35.3563 64 35.2938 64 35.2C63.5688 33.975 56.6625 32 40 32Z" fill="url(#paint0_linear_399_1327)"></path> <defs> <linearGradient id="paint0_linear_399_1327" x1="1.18046e-06" y1="61.0462" x2="88.6499" y2="43.3624" gradientUnits="userSpaceOnUse"> <stop stop-color="#F2994A"></stop> <stop offset="1" stop-color="#FFC960"></stop> </linearGradient> </defs> </svg> 