<?xml version="1.0" encoding="UTF-8"?> <svg xmlns="http://www.w3.org/2000/svg" width="40" height="40" viewBox="0 0 40 40" fill="none"> <g clip-path="url(#clip0_399_1058)"> <path fill-rule="evenodd" clip-rule="evenodd" d="M9.48316 15.9908C9.7838 15.7693 10.2156 15.7678 11.0792 15.7649L29.1094 15.7042C29.984 15.7013 30.4213 15.6998 30.7251 15.9231C30.8231 15.9951 30.909 16.0824 30.9795 16.1815C31.198 16.4887 31.1897 16.9259 31.1731 17.8004L30.9236 30.9551C30.9076 31.7974 30.8996 32.2186 30.6808 32.5126C30.6101 32.6077 30.525 32.6912 30.4287 32.7601C30.1305 32.9733 29.7093 32.9733 28.8668 32.9733H11.2396C10.3916 32.9733 9.96763 32.9733 9.6686 32.7581C9.57198 32.6886 9.48681 32.6045 9.41617 32.5086C9.19755 32.2122 9.19258 31.7882 9.18264 30.9402L9.02913 17.8461C9.019 16.9826 9.01394 16.5508 9.23091 16.2469C9.30096 16.1487 9.38609 16.0623 9.48316 15.9908ZM20.4892 30.3102C11.9623 30.3102 12.3473 18.24 20.3512 18.24C28.3276 18.24 28.2806 30.3102 20.4892 30.3102Z" fill="#515DC8"></path> <path d="M13.6667 6.33333L20 0L26.3333 6.33333V10.9577L29.5 14.25L10.5251 14.3254L13.6667 11.0833V6.33333Z" fill="#515DC8"></path> <path d="M10.5503 38L10.5 34.8333H29.5L29.4497 38H10.5503Z" fill="#515DC8"></path> <path d="M23.3178 27.1491L22.3125 28.1544L18.8945 25.1385L20.591 20.5833L21.8774 21.0286L20.4779 24.7426L23.3178 27.1491Z" fill="#515DC8"></path> </g> <defs> <clipPath id="clip0_399_1058"> <rect width="38" height="38" fill="white" transform="translate(1)"></rect> </clipPath> </defs> </svg> 