<?xml version="1.0" encoding="UTF-8"?> <svg xmlns="http://www.w3.org/2000/svg" width="40" height="40" viewBox="0 0 40 40" fill="none"> <path fill-rule="evenodd" clip-rule="evenodd" d="M26.179 28.3231L30.5698 14.6539C27.8255 14.37 25.7673 12.2355 22.3164 11.2296L22.7795 15.4004L21.4965 16.7814L21.6955 27.0368L22.9579 28.1444L23.5513 31.6773C24.8548 32.536 26.4568 33.1003 28.5974 33.6997L28.6488 35H12.7868L12.9206 33.7382C15.0543 33.2265 16.6357 32.7043 17.8775 31.8736L18.0696 28.2215L19.3731 27.1209L19.332 16.8515L18.0764 15.2217L18.5876 10.7038C15.1332 10.7038 12.9892 12.0637 10.2861 11.864L14.8313 25.3685C10.8212 28.1374 7.03068 28.1409 3 25.3685L7.87112 11.2997C6.82848 10.8531 5.8416 10.2813 4.9313 9.59628L5.84034 8.38007C11.8057 11.9271 11.9738 6.94304 20.6389 8.02957C29.304 9.1161 29.184 14.5522 34.6588 12.0497L35.3449 13.3641C34.6662 13.7711 33.9462 14.1013 33.1975 14.349L38 28.3056C33.9796 31.0955 30.1891 31.092 26.179 28.3231ZM9.01 12.0848L5.10624 23.651L12.7834 23.6931L9.01 12.0848ZM32.0106 15.071L28.2372 26.6548L35.9143 26.6127L32.0106 15.071ZM20.4194 6.71873C17.8706 6.71873 17.9838 3 20.3782 3C22.7726 3 22.7486 6.71873 20.4194 6.71873Z" fill="#515DC8"></path> </svg> 