<?xml version="1.0" encoding="UTF-8"?> <svg xmlns="http://www.w3.org/2000/svg" width="40" height="40" viewBox="0 0 40 40" fill="none"> <path fill-rule="evenodd" clip-rule="evenodd" d="M35.8921 25.2839C34.8537 25.0535 33.5995 24.8858 32.2026 24.7641C32.2156 24.1746 32.2409 23.0087 32.2451 22.4825C32.2623 20.1449 28.8751 20.1321 28.8565 22.6425C28.8523 23.196 28.8523 24.0618 28.853 24.5597C28.0706 24.528 27.2671 24.5044 26.4489 24.4866C26.4604 23.4766 26.4731 22.3784 26.4759 22.02C26.4899 20.0803 24.1626 19.7427 23.3581 21.1172L21.5863 17.3772C28.84 17.4122 34.1371 18.2291 37 19.7286L35.8602 21.3708L35.8921 25.2839ZM18.3506 22.9154C18.3513 22.1679 18.3513 20.941 18.3471 20.3942C18.3285 17.8842 14.9417 17.8967 14.9589 20.2342C14.9627 20.7119 14.9834 22.0823 14.9971 22.9514C13.9288 22.9706 12.9076 22.9983 11.9358 23.0377C11.9361 22.2989 11.9354 21.3264 11.9319 20.8564C11.9133 18.3464 8.52615 18.3588 8.54333 20.6971C8.54684 21.1438 8.56543 22.3744 8.57911 23.2428C6.95637 23.3843 5.53389 23.5851 4.34392 23.8718L4.37899 19.5628L3.06243 17.6659C6.37033 15.9327 10.1657 14.9894 18.547 14.9487L22.2039 22.9086C20.8719 22.908 19.5883 22.9093 18.3506 22.9154ZM4.34848 15.2239L4.37899 11.5769L3 9.83597C4.32779 8.52351 8.26803 6.3042 12.217 6L15.4927 13.4132C11.4876 13.5436 7.20853 14.0843 4.34848 15.2239ZM25.1453 24.501L28.8498 33L24.7655 32.9848C24.7658 31.921 24.7665 30.084 24.762 29.5167C24.743 27.0074 21.3562 27.0192 21.3734 29.3574C21.3772 29.8455 21.399 31.7788 21.4127 32.9717L18.3503 32.9606C18.351 31.9321 18.3517 29.9287 18.3468 29.3321C18.3282 26.8221 14.9413 26.8346 14.9585 29.1721C14.9624 29.6835 14.9862 31.7758 14.9999 32.9474L11.9354 32.9357C11.9361 31.8573 11.9361 30.307 11.9319 29.7947C11.9133 27.2846 8.52615 27.2971 8.54333 29.6353C8.54684 30.0807 8.56508 31.731 8.57911 32.9232L4.3555 32.9074L4.42213 27.4379L3.39245 25.8307C7.91486 24.4306 15.6259 24.4963 25.1453 24.501ZM36.7082 26.8046L35.8234 28.1858L35.8816 32.9191L32.2065 32.9771C32.2205 32.0389 32.2423 30.525 32.2458 30.0406C32.2601 28.0813 29.8841 27.7569 29.103 29.1805L27.6146 25.7468C31.1393 25.8762 34.5086 26.1649 36.7082 26.8046Z" fill="#515DC8"></path> </svg> 