<?xml version="1.0" encoding="UTF-8"?> <svg xmlns="http://www.w3.org/2000/svg" width="1136" height="650" viewBox="0 0 1136 650" fill="none"> <path d="M0 48C0 31.1984 0 22.7976 3.2698 16.3803C6.14601 10.7354 10.7354 6.14601 16.3803 3.2698C22.7976 0 31.1984 0 48 0H1088C1104.8 0 1113.2 0 1119.62 3.2698C1125.26 6.14601 1129.85 10.7354 1132.73 16.3803C1136 22.7976 1136 31.1984 1136 48V602C1136 618.802 1136 627.202 1132.73 633.62C1129.85 639.265 1125.26 643.854 1119.62 646.73C1113.2 650 1104.8 650 1088 650H48C31.1984 650 22.7976 650 16.3803 646.73C10.7354 643.854 6.14601 639.265 3.2698 633.62C0 627.202 0 618.802 0 602V48Z" fill="url(#paint0_linear_416_487)"></path> <mask id="mask0_416_487" style="mask-type:alpha" maskUnits="userSpaceOnUse" x="0" y="0" width="1136" height="650"> <path d="M0 48C0 31.1984 0 22.7976 3.2698 16.3803C6.14601 10.7354 10.7354 6.14601 16.3803 3.2698C22.7976 0 31.1984 0 48 0H1088C1104.8 0 1113.2 0 1119.62 3.2698C1125.26 6.14601 1129.85 10.7354 1132.73 16.3803C1136 22.7976 1136 31.1984 1136 48V602C1136 618.802 1136 627.202 1132.73 633.62C1129.85 639.265 1125.26 643.854 1119.62 646.73C1113.2 650 1104.8 650 1088 650H48C31.1984 650 22.7976 650 16.3803 646.73C10.7354 643.854 6.14601 639.265 3.2698 633.62C0 627.202 0 618.802 0 602V48Z" fill="url(#paint1_linear_416_487)"></path> </mask> <g mask="url(#mask0_416_487)"> <g filter="url(#filter0_f_416_487)"> <circle r="346.06" transform="matrix(0.866025 -0.5 -0.5 -0.866025 1028.73 428.728)" fill="url(#paint2_linear_416_487)" fill-opacity="0.5"></circle> <circle r="345.56" transform="matrix(0.866025 -0.5 -0.5 -0.866025 1028.73 428.728)" stroke="url(#paint3_linear_416_487)" stroke-opacity="0.12"></circle> </g> </g> <defs> <filter id="filter0_f_416_487" x="678.609" y="78.6099" width="700.236" height="700.237" filterUnits="userSpaceOnUse" color-interpolation-filters="sRGB"> <feFlood flood-opacity="0" result="BackgroundImageFix"></feFlood> <feBlend mode="normal" in="SourceGraphic" in2="BackgroundImageFix" result="shape"></feBlend> <feGaussianBlur stdDeviation="2" result="effect1_foregroundBlur_416_487"></feGaussianBlur> </filter> <linearGradient id="paint0_linear_416_487" x1="-8.46386e-06" y1="650" x2="531.025" y2="-328.362" gradientUnits="userSpaceOnUse"> <stop stop-color="#423783"></stop> <stop offset="1" stop-color="#515DC8"></stop> </linearGradient> <linearGradient id="paint1_linear_416_487" x1="-8.46386e-06" y1="650" x2="531.025" y2="-328.362" gradientUnits="userSpaceOnUse"> <stop stop-color="#423783"></stop> <stop offset="1" stop-color="#515DC8"></stop> </linearGradient> <linearGradient id="paint2_linear_416_487" x1="75.1139" y1="654.564" x2="484.664" y2="1.01409e-05" gradientUnits="userSpaceOnUse"> <stop offset="0.048848" stop-color="#F1F2FB"></stop> <stop offset="0.511545" stop-color="#A7AEE6"></stop> </linearGradient> <linearGradient id="paint3_linear_416_487" x1="445.93" y1="25.5481" x2="116.592" y2="623.838" gradientUnits="userSpaceOnUse"> <stop offset="0.84375" stop-color="#F8F9FD"></stop> <stop offset="1" stop-color="#A7AEE6"></stop> </linearGradient> </defs> </svg> 