<?xml version="1.0" encoding="UTF-8"?> <svg xmlns="http://www.w3.org/2000/svg" width="44" height="45" viewBox="0 0 44 45" fill="none"> <path d="M18.8599 0C7.57929 0 0.00175376 4.18774 0.00175376 8.09824C0.00175376 12.0105 7.57929 16.2 18.8599 16.2C30.1396 16.2 37.7145 12.0105 37.7145 8.09824C37.7136 4.18774 30.1396 0 18.8599 0ZM0.00175376 12.2484V17.2354C0.00175376 21.082 7.58434 25.2 18.8739 25.2C30.1617 25.2 37.7145 21.082 37.7145 17.2354V12.2484C34.4147 15.627 27.3288 18 18.8739 18C10.4155 18 3.30252 15.6261 0.00175376 12.2484ZM0 21.5191V26.2758C0 30.1197 7.58434 34.2 18.8739 34.2C21.7024 34.2 24.2672 33.9636 26.5659 33.5127C27.0571 32.8413 27.8437 32.4 28.7353 32.4H30.6381C30.9057 32.3064 31.175 32.2133 31.4291 32.1152V29.7C31.4291 28.2114 32.6377 27 34.1228 27H37.7145V21.5191C34.4147 24.8959 27.3288 27 18.8739 27C10.4155 27 3.30077 24.8959 0 21.5191ZM34.1228 28.8C33.6263 28.8 33.2249 29.2023 33.2249 29.7V34.2H28.7353C28.2388 34.2 27.8374 34.6023 27.8374 35.1V38.7C27.8374 39.1977 28.2388 39.6 28.7353 39.6H33.2249V44.1C33.2249 44.5977 33.6263 45 34.1228 45H37.7145C38.2111 45 38.6125 44.5977 38.6125 44.1V39.6H43.1021C43.5986 39.6 44 39.1977 44 38.7V35.1C44 34.6023 43.5986 34.2 43.1021 34.2H38.6125V29.7C38.6125 29.2023 38.2111 28.8 37.7145 28.8H34.1228ZM0.00175376 30.5596V30.6V35.2354V35.5869C0.00175376 35.6058 0.0247771 35.6268 0.0526127 35.6502C0.57251 39.3717 7.9893 43.2 18.8739 43.2C21.8487 43.2 24.5546 42.9092 26.9395 42.416V42.3967C28.2657 42.124 29.4818 41.7843 30.5925 41.4H28.7353C27.2501 41.4 26.0415 40.1886 26.0415 38.7V35.6291C23.8129 36.0107 21.4115 36 18.8739 36C10.4155 36 3.30252 33.9373 0.00175376 30.5596Z" fill="url(#paint0_linear_1_903)"></path> <defs> <linearGradient id="paint0_linear_1_903" x1="6.49255e-07" y1="44.3077" x2="49.565" y2="36.8154" gradientUnits="userSpaceOnUse"> <stop stop-color="#F2994A"></stop> <stop offset="1" stop-color="#FFC960"></stop> </linearGradient> </defs> </svg> 