<?xml version="1.0" encoding="UTF-8"?> <svg xmlns="http://www.w3.org/2000/svg" width="40" height="40" viewBox="0 0 40 40" fill="none"> <path fill-rule="evenodd" clip-rule="evenodd" d="M20.872 15.9221C26.5158 15.9221 26.4803 24.499 20.9686 24.499C14.9331 24.4986 15.2061 15.9221 20.872 15.9221ZM31.7828 32.3726C31.4832 32.6407 31.1636 32.8592 30.83 33.042L30.5061 31.0369C30.519 31.0259 30.5334 31.0163 30.5464 31.0049C32.0058 29.6991 32.0494 27.484 31.208 24.9581C28.6509 26.3547 25.5232 27.4277 22.4047 28.0847C21.7659 28.2193 21.1195 28.3337 20.4708 28.4356C21.6898 29.3876 22.9187 30.1942 24.1008 30.7872C24.5375 30.0353 25.3375 29.4843 26.4848 29.4843C30.0918 29.4843 30.0689 34.9654 26.5462 34.9654C24.7713 34.9654 23.8522 33.8045 23.728 32.5513C21.8233 31.6681 19.8616 30.3277 18.0121 28.7376C16.3563 28.8829 14.7245 28.9097 13.2011 28.7895C13.5776 31.7255 14.8573 33.4783 16.4931 34.0083C17.9074 34.4667 19.4352 33.8741 20.9186 32.5223L22.4372 33.5184C20.4345 35.4988 18.1955 36.4942 15.9202 35.757C13.0025 34.8121 11.6829 32.0183 11.3934 28.5673C7.93385 27.978 5.31093 26.4838 4.73028 23.7593C4.64633 23.3653 4.60712 22.9795 4.60416 22.6017C2.07222 21.5714 2.59333 17.346 5.77286 17.346C9.14546 17.346 9.34406 22.1364 6.47667 22.7595C6.48333 22.9688 6.49628 23.177 6.53918 23.3782C6.91198 25.1276 8.70386 26.2528 11.3297 26.7686C11.3486 25.21 11.5431 23.5676 11.8616 21.9341C8.25857 16.7715 6.40086 11.0601 9.6588 8.14641C11.4999 6.50071 13.868 6.35137 16.3681 7.12934L15.6251 8.79197C13.5706 8.26008 11.9385 8.58157 10.8955 9.51403C8.86179 11.3326 9.72278 15.2538 12.42 19.5398C12.582 18.9406 12.7547 18.3469 12.9445 17.7679C14.3151 13.5831 16.6229 9.20505 19.4015 6.62541C18.9156 5.03525 19.8394 3 22.0463 3C25.653 3 25.6304 8.48115 22.1077 8.48115C21.4523 8.48115 20.9161 8.3204 20.4907 8.05777C18.1289 10.306 16.0008 14.2702 14.6724 18.3278C14.3036 19.4537 14.0126 20.5146 13.7785 21.5228C14.4723 22.4575 15.243 23.3966 16.0811 24.3235C16.8911 25.2196 17.7458 26.0781 18.6216 26.8752C19.7255 26.7457 20.8654 26.5615 22.0274 26.3165C25.1385 25.661 28.1835 24.6152 30.5564 23.3072C30.3611 22.8776 30.1466 22.4432 29.9117 22.0062L31.0057 20.2788C31.4055 20.9663 31.7646 21.6589 32.086 22.349C34.2326 20.8416 35.4778 19.0767 35.078 17.1982C34.6738 15.3012 32.7921 14.1565 30.2002 13.6132C30.131 16.4684 29.516 19.6377 28.5533 22.6043L26.4282 23.2042C26.5543 22.8529 26.6778 22.4983 26.7962 22.1371C27.7744 19.1499 28.3828 16.0284 28.4372 13.344C25.6689 13.0629 22.3888 13.3149 19.2839 13.9693C19.0624 14.016 18.8601 14.0693 18.6449 14.1183L19.2629 12.1301C22.2393 11.5346 25.4873 11.2774 28.3821 11.546C28.2053 9.53427 27.625 7.90695 26.5347 6.98478L26.8653 4.98448C28.9623 6.14722 29.9568 8.68383 30.1651 11.7909C33.6127 12.4255 36.2808 13.9704 36.8873 16.8174C37.4776 19.5887 35.6964 22.0488 32.7739 24.0105C33.9667 27.3196 33.9711 30.4157 31.7828 32.3726ZM14.7308 25.5319C14.2493 24.9996 13.7807 24.4497 13.3284 23.8877C13.1638 25.0199 13.0854 26.0649 13.0902 27.0128C14.0584 27.0978 15.104 27.1173 16.2054 27.072C15.6987 26.5714 15.2053 26.0572 14.7308 25.5319Z" fill="#515DC8"></path> </svg> 