<?xml version="1.0" encoding="UTF-8"?> <svg xmlns="http://www.w3.org/2000/svg" width="69" height="52" viewBox="0 0 69 52" fill="none"> <path d="M4.14 0C3.37992 0 2.76 0.631335 2.76 1.40541V42.1622H15.18V36.5405H30.2306L31.74 39.3514L30.2306 42.1622H66.24V1.40541C66.24 0.631335 65.6255 0 64.86 0H4.14ZM54.0356 9.83784C54.386 9.89823 54.7202 10.0959 54.9412 10.4088C55.3833 11.0401 55.2593 11.935 54.6394 12.3851L35.3194 26.4392C34.8073 26.8125 34.1173 26.8015 33.6375 26.3953L26.1769 20.0709L15.9994 27.8446C15.7514 28.0367 15.4657 28.1081 15.18 28.1081C14.7595 28.1081 14.3283 27.905 14.0588 27.5372C13.6005 26.9168 13.7515 26.0274 14.3606 25.5608L25.4006 17.1284C25.9127 16.7386 26.592 16.7551 27.0825 17.1723L34.5863 23.5405L53.0006 10.1014C53.3079 9.87627 53.6852 9.77745 54.0356 9.83784ZM1.38 44.973C0.619922 44.973 0 45.5988 0 46.3784V50.5946C0 51.3742 0.619922 52 1.38 52H67.62C68.3855 52 69 51.3742 69 50.5946V46.3784C69 45.5988 68.3855 44.973 67.62 44.973H1.38Z" fill="url(#paint0_linear_399_1323)"></path> <defs> <linearGradient id="paint0_linear_399_1323" x1="0" y1="52" x2="76.5878" y2="35.7398" gradientUnits="userSpaceOnUse"> <stop stop-color="#219653"></stop> <stop offset="1" stop-color="#4AB668"></stop> </linearGradient> </defs> </svg> 