<?xml version="1.0" encoding="UTF-8"?> <svg xmlns="http://www.w3.org/2000/svg" width="40" height="40" viewBox="0 0 40 40" fill="none"> <path d="M7.79446 6.43332C6.21222 6.45852 5.4211 6.47112 4.87028 6.88173C4.69233 7.01439 4.53622 7.17408 4.40764 7.35501C4.00965 7.915 4.01501 8.70621 4.02575 10.2886L4.15407 29.1962C4.16483 30.782 4.17021 31.5749 4.57695 32.1299C4.70834 32.3093 4.86703 32.4669 5.04722 32.597C5.60503 33 6.39794 33 7.98377 33H30.9523C32.5344 33 33.3255 33 33.8827 32.5983C34.0627 32.4686 34.2213 32.3114 34.3528 32.1326C34.7597 31.5792 34.7671 30.7882 34.782 29.2062L34.9631 9.92784C34.9784 8.29522 34.9861 7.47891 34.5723 6.91027C34.4388 6.72682 34.2769 6.5659 34.0925 6.43361C33.5212 6.02355 32.705 6.03655 31.0725 6.06256L7.79446 6.43332ZM6.30714 14.4301C6.29176 13.4671 6.28407 12.9856 6.52446 12.6453C6.60208 12.5354 6.69657 12.4385 6.80445 12.3581C7.13856 12.1092 7.6201 12.1047 8.58319 12.0956L30.2643 11.8925C31.2417 11.8833 31.7305 11.8787 32.0713 12.1263C32.1813 12.2062 32.2778 12.3031 32.3572 12.4134C32.6034 12.7553 32.5967 13.244 32.5835 14.2214L32.3925 28.2788C32.3796 29.2243 32.3732 29.6971 32.129 30.0276C32.05 30.1344 31.9549 30.2282 31.8471 30.3057C31.5133 30.5455 31.0405 30.5455 30.0948 30.5455H8.82597C7.88238 30.5455 7.41058 30.5455 7.07712 30.3064C6.96935 30.2292 6.87428 30.1356 6.79532 30.0291C6.55099 29.6995 6.54346 29.2277 6.52839 28.2843L6.30714 14.4301Z" fill="#515DC8"></path> <path d="M15.4943 27.1892L21.0402 14.3724L23.2984 14.645L17.8763 27.3314L15.4943 27.1892Z" fill="#515DC8"></path> <path d="M8.36689 20.19L12.9053 15.493L14.5985 17.1629L11.4933 20.3766L14.1943 23.9368L12.3145 25.3934L8.36689 20.19Z" fill="#515DC8"></path> <path d="M24.7222 17.767L26.602 16.3104L30.5496 21.5138L26.0111 26.2107L24.3179 24.5409L27.4231 21.3272L24.7222 17.767Z" fill="#515DC8"></path> </svg> 