<?xml version="1.0" encoding="UTF-8"?> <svg xmlns="http://www.w3.org/2000/svg" width="40" height="40" viewBox="0 0 40 40" fill="none"> <path fill-rule="evenodd" clip-rule="evenodd" d="M33.9495 8.90426C33.8102 10.2528 31.6884 25.886 31.0609 32.9978C30.8525 35.358 28.7784 36.2587 25.8516 35.9371C22.9252 35.6159 12.3295 34.1098 9.53855 33.8032C6.74839 33.4965 5.80944 31.7244 6.0312 29.3988C6.73236 22.0323 8.77059 7.07819 8.96067 5.55562C9.28816 2.93047 10.4386 1.78932 12.6455 2.0318C14.4253 2.22783 28.6837 3.96455 30.959 4.26568C33.5545 4.60932 34.2018 6.46569 33.9495 8.90426ZM11.823 5.45957L11.4241 8.87356L12.5944 9.02983C12.8967 7.84459 13.5093 7.05811 14.8448 7.22698C16.5475 7.44269 16.7422 8.92551 16.5353 10.663C16.3284 12.4005 15.8307 13.7389 14.0955 13.5192C12.755 13.3492 12.3554 12.4273 12.3375 11.2161L11.1653 11.0838L10.487 16.8875L11.6409 17.0415C11.9436 15.8578 12.5562 15.0725 13.891 15.2418C15.5937 15.4575 15.7883 16.9399 15.5815 18.6774C15.3746 20.4153 14.8772 21.7533 13.1421 21.5336C11.8539 21.3706 11.4336 20.5133 11.3867 19.3726L10.2115 19.2478L9.55038 24.9043L10.6874 25.0562C10.9901 23.873 11.6023 23.0877 12.9375 23.2565C14.6402 23.4719 14.8349 24.9547 14.628 26.6922C14.4211 28.4301 13.9238 29.768 12.1882 29.5484C10.9 29.385 10.4798 28.5281 10.4328 27.3869L9.2748 27.2641L8.86868 30.7411L28.0703 33.1371L28.523 29.3059L26.5413 29.0957L26.7299 27.1992L28.7402 27.4676L29.4704 21.2907L22.2316 20.5231L22.4343 18.4837L29.6876 19.4521L30.4193 13.2586L28.1837 13.0063L28.378 11.1377L30.6342 11.4393L31.0666 7.78122L11.823 5.45957ZM24.8508 14.8529C23.4668 14.6777 23.0851 13.7007 23.0916 12.4312L17.7174 11.8242L17.9338 9.74309L23.3237 10.463C23.6172 9.22231 24.2267 8.38741 25.6001 8.56101C27.3028 8.77672 27.4971 10.2591 27.2906 11.9966C27.0837 13.7345 26.5863 15.0729 24.8508 14.8529ZM19.2644 15.9507C20.9671 16.1664 21.1618 17.6488 20.9545 19.3867C20.7476 21.1242 20.2507 22.4626 18.5151 22.2429C16.78 22.0233 16.6181 20.5448 16.825 18.8073C17.0319 17.0698 17.5617 15.735 19.2644 15.9507ZM18.2666 23.96C19.9694 24.1753 20.164 25.6581 19.9572 27.3956C19.7503 29.1331 19.2529 30.4715 17.5178 30.2518C15.7826 30.0322 15.6204 28.5537 15.8273 26.8162C16.0341 25.0787 16.5639 23.7439 18.2666 23.96ZM23.5962 24.6626C25.2989 24.8783 25.4936 26.3607 25.2867 28.0986C25.0798 29.8361 24.5828 31.1745 22.8469 30.9548C21.1118 30.7352 20.9499 29.2571 21.1568 27.5192C21.3637 25.7813 21.8938 24.4469 23.5962 24.6626Z" fill="#515DC8"></path> </svg> 