<?xml version="1.0" encoding="UTF-8"?> <svg xmlns="http://www.w3.org/2000/svg" width="40" height="40" viewBox="0 0 40 40" fill="none"> <path fill-rule="evenodd" clip-rule="evenodd" d="M30.8431 34.9784L8.90572 35C8.90572 35 7.24435 33.5784 8.42182 31.0487C9.45495 28.8289 15.0646 13.8532 15.0646 13.8532L14.8952 6.84117L13.7459 6.84695L13.4903 3.10935L26.831 3L26.5396 6.78149L25.2923 6.78804L24.9945 13.9602C24.9945 13.9602 30.7151 29.06 31.7129 31.2085C32.6948 33.3235 30.8431 34.9784 30.8431 34.9784ZM22.2362 14.1931L22.5024 6.80267L17.6676 6.82731L17.717 14.2232L11.1737 31.6875L11.6086 32.4841L28.432 32.5253L29.0321 31.6509L22.2362 14.1931ZM16.1031 23.7699C19.0726 24.6736 20.8342 21.4308 23.6586 22.9967L26.3752 30.3379L13.3611 30.7746L16.1031 23.7699Z" fill="#515DC8"></path> </svg> 