<?xml version="1.0" encoding="UTF-8"?> <svg xmlns="http://www.w3.org/2000/svg" width="69" height="11" viewBox="0 0 69 11" fill="none"> <g clip-path="url(#clip0_399_1480)"> <path fill-rule="evenodd" clip-rule="evenodd" d="M9.08419 1.50388C9.08419 1.14013 9.18105 0.840583 9.3744 0.604862C9.56812 0.369264 9.85174 0.251465 10.2254 0.251465C10.5993 0.251465 10.8862 0.369264 11.0864 0.604862C11.2867 0.840583 11.3867 1.14013 11.3867 1.50388L11.3867 4.67496C11.3867 5.50966 11.2999 6.26389 11.1264 6.93717C10.9529 7.61057 10.6725 8.22655 10.2855 8.78548C9.89852 9.34428 9.35119 9.77863 8.64374 10.0883C7.93628 10.3979 7.09533 10.5527 6.12087 10.5527C4.23876 10.5527 2.88064 10.0176 2.04616 8.94702C1.21192 7.87636 0.794922 6.46585 0.794922 4.71538L0.794922 1.50388C0.794922 1.14013 0.898255 0.840582 1.10517 0.604862C1.31232 0.369264 1.60253 0.251465 1.97629 0.251465C2.36337 0.251465 2.66359 0.369264 2.87722 0.604862C3.09085 0.840583 3.19761 1.14013 3.19761 1.50388L3.19761 4.81642C3.19761 7.19975 4.17854 8.39142 6.14078 8.39142C8.10301 8.39142 9.08419 7.18632 9.08419 4.77588L9.08419 1.50388Z" fill="#0A0A0A"></path> <path fill-rule="evenodd" clip-rule="evenodd" d="M52.923 4.72287C53.3556 4.50292 53.572 4.14891 53.572 3.66095C53.572 2.79718 52.7359 2.36529 51.0641 2.36529C50.7603 2.36529 49.1734 2.38919 48.5887 2.43725L48.5887 5.00492C48.9513 5.03684 50.4912 5.05285 50.9238 5.05285C51.8241 5.05285 52.4905 4.94282 52.923 4.72287ZM46.2754 1.53947C46.2754 0.937656 46.6248 0.573539 47.3235 0.446868C48.0598 0.309601 49.9469 0.240967 51.0825 0.240967C54.3144 0.240967 55.9303 1.33899 55.9303 3.5349C55.9303 4.28445 55.7183 4.91793 55.2939 5.43521C54.8698 5.95249 54.281 6.35382 53.4312 6.55689L55.4737 8.61023C55.8403 9.03091 55.9983 9.74793 55.196 10.1437C54.5385 10.4682 53.8141 10.2397 53.2846 9.60795L50.8642 6.87615C50.7021 6.89734 48.889 6.88687 48.5519 6.84461L48.5519 9.30717C48.5519 9.59218 48.4524 9.82445 48.2526 10.0039C48.0529 10.1833 47.8426 10.2731 47.4932 10.2731C47.1314 10.2731 46.759 10.1833 46.5656 10.0039C46.3721 9.82445 46.2754 9.59218 46.2754 9.30717L46.2754 1.53947Z" fill="#0A0A0A"></path> <path fill-rule="evenodd" clip-rule="evenodd" d="M65.6662 1.50388C65.6662 1.14013 65.7631 0.840583 65.9564 0.604862C66.1502 0.369264 66.4338 0.251465 66.8074 0.251465C67.1813 0.251465 67.4682 0.369264 67.6684 0.604862C67.8687 0.840583 67.9687 1.14013 67.9687 1.50388L67.9687 4.67496C67.9687 5.50966 67.882 6.26389 67.7086 6.93717C67.5349 7.61057 67.2546 8.22655 66.8675 8.78548C66.4806 9.34428 65.9332 9.77863 65.2258 10.0883C64.5183 10.3979 63.6774 10.5527 62.7029 10.5527C60.8208 10.5527 59.4627 10.0176 58.6282 8.94702C57.7939 7.87636 57.377 6.46585 57.377 4.71538L57.377 1.50388C57.377 1.14013 57.4803 0.840582 57.6872 0.604862C57.8944 0.369264 58.1846 0.251465 58.5583 0.251465C58.9454 0.251465 59.2456 0.369264 59.4593 0.604862C59.6729 0.840583 59.7796 1.14013 59.7796 1.50388L59.7796 4.81642C59.7796 7.19975 60.7606 8.39142 62.7228 8.39142C64.685 8.39142 65.6662 7.18632 65.6662 4.77588L65.6662 1.50388Z" fill="#0A0A0A"></path> <path fill-rule="evenodd" clip-rule="evenodd" d="M18.2825 10.5526C16.504 10.5526 15.113 10.1083 14.1084 9.21959C13.1039 8.33092 12.6016 7.08528 12.6016 5.48292C12.6016 3.86688 13.1246 2.59106 14.17 1.65507C15.2158 0.719089 16.6441 0.251221 18.4554 0.251221C19.8552 0.251221 20.9172 0.439625 21.6416 0.81668C22.3496 1.1803 22.5555 1.63166 22.2591 2.17014C21.9792 2.65501 21.436 2.86042 20.6291 2.65858C19.7893 2.45662 18.8515 2.29126 18.2919 2.29126C17.3367 2.29126 16.5877 2.57418 16.0441 3.13963C15.5006 3.70522 15.2291 4.48619 15.2291 5.48292C15.2291 6.42544 15.513 7.16611 16.0813 7.70459C16.6493 8.24331 17.3945 8.51267 18.3165 8.51267C18.9753 8.51267 20.0033 8.32414 20.9253 7.94696C21.7158 7.63731 22.2757 7.70459 22.6049 8.14892C22.9838 8.66066 22.8191 9.15206 22.111 9.62363C21.1559 10.2429 19.8798 10.5526 18.2825 10.5526Z" fill="#0A0A0A"></path> <path fill-rule="evenodd" clip-rule="evenodd" d="M37.778 0.505675C38.0116 0.283632 38.3288 0.172363 38.7291 0.172363C39.1296 0.172363 39.4501 0.283632 39.6903 0.505675C39.9305 0.727965 40.0506 1.02751 40.0506 1.40469C40.0506 1.79518 39.9305 2.09793 39.6903 2.31344C39.4501 2.52896 39.1296 2.63678 38.7291 2.63678C38.3288 2.63678 38.0116 2.53228 37.778 2.32355C37.5445 2.11481 37.4277 1.80849 37.4277 1.40469C37.4277 1.02751 37.5445 0.727965 37.778 0.505675Z" fill="#0A0A0A"></path> <path fill-rule="evenodd" clip-rule="evenodd" d="M35.3369 0.584777C35.1367 0.362487 34.8565 0.251465 34.496 0.251465C34.1356 0.251465 33.8586 0.362487 33.6651 0.584777C33.4715 0.80682 33.3747 1.08653 33.3747 1.42305L33.3747 4.1599L26.6026 4.1599L26.6026 1.42305C26.6026 1.08653 26.5025 0.80682 26.3021 0.584777C26.102 0.362487 25.8217 0.251465 25.4611 0.251465C25.1008 0.251465 24.8238 0.362487 24.6303 0.584777C24.4367 0.80682 24.3398 1.08653 24.3398 1.42305L24.3398 9.17929C24.3398 9.51605 24.4367 9.79552 24.6303 10.0176C24.8238 10.2399 25.1008 10.3509 25.4611 10.3509C25.8217 10.3509 26.102 10.2399 26.3021 10.0176C26.5025 9.79552 26.6026 9.51605 26.6026 9.17929L26.6026 6.44244L33.3747 6.44244L33.3747 9.17929C33.3747 9.51605 33.4715 9.79552 33.6651 10.0176C33.8586 10.2399 34.1356 10.3509 34.496 10.3509C34.8565 10.3509 35.1367 10.2399 35.3369 10.0176C35.5373 9.79552 35.6374 9.51605 35.6374 9.17929L35.6374 1.42305C35.6374 1.08653 35.5373 0.80682 35.3369 0.584777Z" fill="#0A0A0A"></path> <path fill-rule="evenodd" clip-rule="evenodd" d="M37.6074 4.97993C37.6074 4.64329 37.7043 4.3637 37.8979 4.14166C38.0914 3.91937 38.3683 3.80835 38.7287 3.80835C39.0893 3.80835 39.3695 3.91937 39.5697 4.14166C39.77 4.3637 39.87 4.64329 39.87 4.97993L39.87 9.17929C39.87 9.51605 39.77 9.79552 39.5697 10.0176C39.3695 10.2398 39.0893 10.3509 38.7287 10.3509C38.3683 10.3509 38.0914 10.2398 37.8979 10.0176C37.7043 9.79552 37.6074 9.51605 37.6074 9.17929L37.6074 4.97993Z" fill="#0A0A0A"></path> <path fill-rule="evenodd" clip-rule="evenodd" d="M42.0422 7.95711C42.2893 7.68122 42.6262 7.54297 43.0534 7.54297C43.4806 7.54297 43.821 7.68122 44.0746 7.95711C44.3281 8.23325 44.455 8.56656 44.455 8.95705C44.455 9.36109 44.3316 9.69415 44.0845 9.95674C43.8377 10.2193 43.4939 10.3507 43.0534 10.3507C42.6129 10.3507 42.2726 10.2193 42.0322 9.95674C41.7919 9.69415 41.6719 9.36109 41.6719 8.95705C41.6719 8.56656 41.7954 8.23325 42.0422 7.95711Z" fill="#0A0A0A"></path> </g> <defs> <clipPath id="clip0_399_1480"> <rect width="67.378" height="10.4552" fill="white" transform="translate(0.794922 0.172363)"></rect> </clipPath> </defs> </svg> 