<?xml version="1.0" encoding="UTF-8"?> <svg xmlns="http://www.w3.org/2000/svg" xmlns:xlink="http://www.w3.org/1999/xlink" viewBox="0 0 48 48"> <g id="surface1"> <path style=" fill:#FFCC80;" d="M 22.960938 18 L 38 18 L 38 42 L 22.960938 42 C 19.710938 42 17.082031 39.3125 17.082031 36.003906 L 17.082031 24 C 17.082031 20.683594 19.710938 18 22.960938 18 Z "></path> <path style=" fill:#FFCC80;" d="M 34 21 C 34 22.65625 35.34375 24 37 24 L 40 24 C 41.65625 24 43 22.65625 43 21 C 43 19.34375 41.65625 18 40 18 L 37 18 C 35.34375 18 34 19.34375 34 21 Z "></path> <path style=" fill:#FFCC80;" d="M 31 27 C 31 28.65625 32.34375 30 34 30 L 40 30 C 41.65625 30 43 28.65625 43 27 C 43 25.34375 41.65625 24 40 24 L 34 24 C 32.34375 24 31 25.34375 31 27 Z "></path> <path style=" fill:#FFCC80;" d="M 30 33 C 30 34.65625 31.34375 36 33 36 L 39 36 C 40.65625 36 42 34.65625 42 33 C 42 31.34375 40.65625 30 39 30 L 33 30 C 31.34375 30 30 31.34375 30 33 Z "></path> <path style=" fill:#FFCC80;" d="M 29 39 C 29 40.65625 30.34375 42 32 42 L 38 42 C 39.65625 42 41 40.65625 41 39 C 41 37.34375 39.65625 36 38 36 L 32 36 C 30.34375 36 29 37.34375 29 39 Z "></path> <path style=" fill:#FFCC80;" d="M 24.527344 13.566406 C 25.453125 12.535156 26.109375 11.289063 26.441406 9.933594 L 27.164063 6.980469 C 27.304688 6.402344 27.816406 6 28.398438 6 L 29.070313 6 C 30.851563 6 32.039063 8 32.039063 9.292969 L 32.039063 10.6875 C 32.039063 13.515625 31.585938 16.296875 30.226563 18.757813 L 27.601563 23.519531 L 19.40625 19.253906 Z "></path> <path style=" fill:#F2A25A;" d="M 41 24 L 37 24 C 36.449219 24 36 24.445313 36 25 C 36 25.554688 36.449219 26 37 26 Z "></path> <path style=" fill:#F2A25A;" d="M 40 30 L 36 30 C 35.449219 30 35 30.445313 35 31 C 35 31.554688 35.449219 32 36 32 Z "></path> <path style=" fill:#F2A25A;" d="M 39 36 L 35 36 C 34.449219 36 34 36.445313 34 37 C 34 37.554688 34.449219 38 35 38 Z "></path> <path style=" fill:#BA68C8;" d="M 18 41 L 8 41 L 5 19 L 18 19 Z "></path> <path style=" fill:#F3E5F5;" d="M 15 36 C 15 37.105469 14.105469 38 13 38 C 11.894531 38 11 37.105469 11 36 C 11 34.894531 11.894531 34 13 34 C 14.105469 34 15 34.894531 15 36 Z "></path> </g> </svg> 