<?xml version="1.0" encoding="UTF-8"?> <svg xmlns="http://www.w3.org/2000/svg" width="800" height="800" viewBox="0 0 800 800" fill="none"> <path opacity="0.4" d="M336.186 589.002C353.364 578.971 380.432 575.655 403.405 579.717C405.453 574.274 410.327 568.989 418.138 564.418C441.429 550.817 481.897 548.818 508.505 559.959C535.114 571.1 537.813 591.16 514.522 604.761C495.535 615.839 465.148 619.219 440.159 614.061C437.952 618.664 433.57 623.107 426.918 626.98C404.993 639.787 366.906 641.66 341.853 631.17C316.785 620.679 314.245 601.809 336.186 589.002Z" fill="#A8C4E5"></path> <path d="M489.597 566.085L494.535 532.313C496.011 528.853 501.377 523.822 505.743 521.346C507.712 520.235 510.188 520.711 511.665 522.409L514.872 526.06C519.666 531.17 519.778 532.36 517.841 536.915L506.315 564.022C504.378 568.592 499.297 572.751 495.027 573.274L493.82 573.417C489.565 573.957 487.66 570.656 489.597 566.085Z" fill="#2C1F9C"></path> <path d="M458.766 400.777L467.593 451.277C467.704 451.896 468.45 452.166 468.926 451.769L522.858 406.681C523.08 406.491 523.191 406.205 523.143 405.904L514.316 355.404C514.205 354.785 512.491 360.339 512.983 354.912L459.051 400C458.813 400.19 458.702 400.492 458.766 400.777Z" fill="#C76408"></path> <path d="M468.571 450.181L467.955 451.865L469.64 452.481L470.256 450.797L468.571 450.181Z" fill="#C76408"></path> <path d="M514.211 355.075L513.654 356.595L515.175 357.151L515.731 355.631L514.211 355.075Z" fill="#DD4078"></path> <path d="M460.179 401.301L469.006 451.801C469.117 452.42 469.863 452.689 470.34 452.293L524.271 407.205C524.493 407.014 524.604 406.729 524.557 406.427L515.73 355.927C515.301 356.006 514.698 356.006 514.396 355.435L460.465 400.523C460.227 400.714 460.131 401.015 460.179 401.301Z" fill="#C76408"></path> <path d="M487.979 454.817L484.676 453.61L475.214 450.151L471.912 448.944L464.148 404.936L467.451 406.142L476.913 409.601L480.215 410.808L487.979 454.817Z" fill="#D8E3F0"></path> <path d="M477.198 407.522L486.025 458.022C486.137 458.641 486.883 458.911 487.359 458.514L541.29 413.426C541.513 413.236 541.624 412.95 541.576 412.649L532.749 362.149C532.209 362.609 531.336 362.784 531.415 361.657L477.484 406.745C477.246 406.935 477.135 407.237 477.198 407.522Z" fill="#C76408"></path> <path d="M487.142 456.965L486.525 458.649L488.031 459.2L488.647 457.516L487.142 456.965Z" fill="#C76408"></path> <path d="M532.253 361.545L531.637 363.229L532.755 363.638L533.371 361.954L532.253 361.545Z" fill="#DEA749"></path> <path d="M478.612 408.03L487.439 458.53C487.55 459.149 488.296 459.419 488.772 459.022L542.704 413.934C542.926 413.744 543.037 413.458 542.989 413.156L534.162 362.657C534.051 362.038 533.305 361.768 532.829 362.165L478.897 407.253C478.659 407.459 478.564 407.745 478.612 408.03Z" fill="#E68429"></path> <path d="M478.866 407.205L471.721 404.602L466.101 402.539L458.957 399.936L512.65 355.198C513.206 354.737 514.349 354.975 515.016 355.229L520.81 357.499L524.97 359.022L533.638 362.054L478.866 407.205Z" fill="#ED9039"></path> <path d="M378.447 194.35C377.446 200.794 372.557 205.396 367.508 204.602C362.475 203.825 359.189 197.969 360.189 191.509C361.189 185.066 366.079 180.463 371.128 181.257C376.16 182.035 379.447 187.907 378.447 194.35Z" fill="#C7E1F8"></path> <path d="M346.87 259.514C344.426 277.987 328.375 297.984 306.863 313.569C305.259 316.315 279.127 332.106 279.127 332.106L287.827 343.66C287.827 343.66 316.992 332.169 331.883 323.044C335.805 320.631 339.091 317.505 341.488 313.855L372.256 267.084L346.87 259.514Z" fill="#FFC2B0"></path> <path d="M267.298 294.445C266.536 294.493 265.853 293.921 265.805 293.16L265.631 290.827C265.567 290.065 266.155 289.382 266.917 289.335C267.679 289.271 268.361 289.859 268.409 290.62L268.584 292.953C268.631 293.715 268.06 294.382 267.298 294.445Z" fill="#57383F"></path> <path d="M297.797 301.952C297.463 299.619 260.504 302.396 260.52 304.761L262.044 308.03L268.235 344.58C268.775 352.483 296.193 351.515 296.13 342.485L296.765 305.411L297.797 301.952Z" fill="#DBE8FF"></path> <path d="M279.904 333.979C279.888 333.963 279.888 333.931 279.904 333.931C279.968 333.947 279.92 333.963 279.904 333.979Z" fill="white"></path> <path d="M280.349 319.743C280.349 319.76 280.349 319.76 280.349 319.777C280.332 319.76 280.332 319.76 280.349 319.743Z" fill="white"></path> <path d="M263.456 318.584C274.157 321.488 285.381 320.489 297.05 316.045L296.193 337.28C286.889 341.374 277.316 342.374 267.409 339.454L263.456 318.584Z" fill="#EFEBE2"></path> <path d="M262.995 318.06C273.648 322.25 288.032 321.155 297.367 315.473L296.462 336.708C287.095 343.12 276.109 344.04 267.012 338.93L262.995 318.06Z" fill="#A2BA30"></path> <path d="M298.527 305.872C298.796 309.427 290.461 312.95 279.92 313.744C269.378 314.537 260.614 312.3 260.344 308.745C260.313 308.253 260.011 306.539 260.122 305.713C260.583 302.285 269.854 301.555 278.951 300.873C287.778 300.206 295.859 300.238 298.241 302.809C298.241 302.825 298.479 305.285 298.527 305.872Z" fill="#57383F"></path> <path d="M298.209 302.095C298.479 305.65 290.144 309.173 279.602 309.966C269.06 310.76 260.297 308.522 260.027 304.967C259.757 301.412 268.092 297.889 278.634 297.095C289.175 296.302 297.939 298.54 298.209 302.095Z" fill="#754D56"></path> <path d="M295.319 299.92C295.652 302.967 288.603 305.999 279.554 306.681C270.504 307.363 262.9 305.443 262.566 302.396C262.519 301.983 264.313 295.048 264.313 295.048C264.313 295.048 270.52 296.222 278.331 295.635C285.904 295.064 290.445 290.89 292.572 293.096C292.588 293.096 295.271 299.412 295.319 299.92Z" fill="#57383F"></path> <path d="M292.652 293.508C292.843 295.937 286.619 298.397 278.776 298.984C270.933 299.571 264.424 298.079 264.234 295.651C264.043 293.223 270.267 290.763 278.11 290.176C285.952 289.588 292.462 291.08 292.652 293.508Z" fill="#A16A76"></path> <path d="M286.509 293.969C286.62 295.35 283.079 296.746 278.634 297.079C274.173 297.413 270.474 296.572 270.379 295.191C270.267 293.81 273.808 292.413 278.253 292.08C282.698 291.747 286.398 292.588 286.509 293.969Z" fill="white"></path> <path d="M267.537 340.914C263.393 341.787 259.281 339.105 258.408 334.947L257.17 329.011C256.297 324.869 258.98 320.758 263.139 319.886C267.283 319.013 271.395 321.695 272.268 325.853L273.506 331.788C274.379 335.946 271.696 340.057 267.537 340.914Z" fill="#FFC2B0"></path> <path d="M359.126 235.629C359.126 235.629 323.96 275.4 326.484 281.701C328.993 288.002 348.06 308.713 359.126 302.777C370.191 296.826 368.223 243.326 359.126 235.629Z" fill="#3E49B3"></path> <path d="M347.505 600.095L375.114 580.003C378.622 578.638 385.973 578.94 390.799 580.352C392.958 580.987 394.355 583.082 394.181 585.336L393.8 590.176C393.498 597.175 392.736 598.08 388.116 599.889L360.666 610.617C356.046 612.427 349.521 611.712 346.155 609.03L345.203 608.269C341.853 605.571 342.885 601.904 347.505 600.095Z" fill="#2C1F9C"></path> <path d="M393.927 581.019C393.927 588.272 376.24 589.208 376.24 581.955L376.225 558.388L393.911 557.451L393.927 581.019Z" fill="#86ABD9"></path> <path d="M395.452 570.052C389.371 577.4 376.734 577.225 373.368 571.782L350.982 348.976L414.725 350.118L395.452 570.052Z" fill="#BAD4F5"></path> <path d="M408.04 402.745L404.278 452.896L397.086 397.111C399.864 397.476 402.817 397.635 405.881 397.666L408.04 402.745Z" fill="#86ABD9"></path> <path d="M404.009 240.12C394.292 248.706 384.449 259.181 373.828 282.272C373.193 298.73 382.369 305.38 391.673 312.569L424.409 278.416L411.296 253.055L404.009 240.12Z" fill="#4432DB"></path> <path d="M507.219 520.552C513.3 524.504 504.425 539.835 498.345 535.883L478.595 523.028L487.469 507.697L507.219 520.552Z" fill="#86ABD9"></path> <path d="M496.931 509.395C501.583 516.124 488.628 531.995 482.785 529.757C464.972 517.632 444.111 510.141 428.187 489.652C404.071 458.641 404.198 406.951 390.307 366.275L441.253 340.39C453.732 387.557 435.951 426.012 452.779 462.339C465.417 489.652 478.594 494.54 496.931 509.395Z" fill="#BAD4F5"></path> <path d="M352.109 362.308C353.014 334.915 353.919 309.507 350.966 275.242C352.522 227.996 370.97 211.094 400.388 222.933L412.581 226.599C447.89 247.135 466.163 246.77 458.479 284.59L449.43 367.735C448.017 410.649 348.156 412.681 352.109 362.308Z" fill="#515DC8"></path> <path d="M435.411 281.701L448.779 346.532L450.43 352.848L453.732 321.932L435.411 281.701Z" fill="#3E49B3"></path> <path d="M390.466 220.806C390.466 220.806 393.832 226.249 395.991 227.376C398.15 228.487 428.33 215.473 425.647 190.683C423.949 174.987 394.165 178.59 394.165 178.59L390.466 220.806Z" fill="#45312B"></path> <path d="M403.486 243.628L402.041 243.818C397.183 244.485 392.674 241.041 392.023 236.2L388.308 208.84C387.641 203.983 391.087 199.476 395.929 198.825L397.373 198.635C402.232 197.968 406.74 201.412 407.391 206.253L414.837 232.01C415.488 236.867 408.344 242.977 403.486 243.628Z" fill="#FFC2B0"></path> <path d="M390.307 223.615C390.307 223.615 401.991 224.25 409.977 213.315C409.977 213.315 402.055 230.154 391.339 231.264L390.307 223.615Z" fill="#F09A82"></path> <path d="M395.578 216.251C389.466 228.043 379.448 229.694 373.209 219.933C366.97 210.173 366.858 192.7 372.971 180.908C379.083 169.116 389.101 167.465 395.34 177.226C401.58 186.986 401.691 204.46 395.578 216.251Z" fill="#FFC2B0"></path> <path d="M409.581 214.934C403.468 226.726 381.242 232.059 375.003 222.314C368.763 212.554 376.543 191.573 382.655 179.781C388.767 167.99 398.785 166.339 405.024 176.099C411.264 185.844 415.677 203.127 409.581 214.934Z" fill="#FFC2B0"></path> <path d="M399.721 180.257C399.721 180.257 394.387 204.3 413.105 211.791C413.105 211.791 436.189 201.523 422.678 176.4C410.771 154.261 386.544 167.592 386.544 167.592L399.721 180.257Z" fill="#45312B"></path> <path d="M369.859 193.699C369.859 193.699 373.542 183.542 386.704 180.463L377.321 173.432C377.321 173.432 366.842 174.686 369.859 193.699Z" fill="#2C1F9C"></path> <path d="M408.295 195.619C404.66 189.478 395.61 188.589 382.258 191.874C380.226 192.366 378.083 192.477 376.083 191.842C366.732 188.859 366.541 176.86 366.541 176.86C365.319 168.719 370.939 165.688 379.083 164.466L400.294 161.26C412.296 159.387 422.616 170.179 423.838 178.321L424.235 179.685C425.489 187.811 416.44 194.381 408.295 195.619Z" fill="#45312B"></path> <path d="M415.327 211.268C413.834 214.14 410.31 215.251 407.436 213.775C404.563 212.284 403.451 208.76 404.928 205.888C406.42 203.015 409.945 201.904 412.818 203.38C415.692 204.872 416.819 208.395 415.327 211.268Z" fill="#FFC2B0"></path> <path d="M495.154 379.923L492.979 380.479C488.994 381.495 486.549 385.573 487.565 389.573L489.629 397.762C490.645 401.745 494.725 404.189 498.726 403.174L500.901 402.618C504.886 401.603 507.331 397.524 506.315 393.525L504.251 385.335C503.235 381.352 499.139 378.908 495.154 379.923Z" fill="#FFC2B0"></path> <path d="M441.253 285.446C458.383 296.286 471.624 319.822 478.387 346.104C480.435 348.801 488.818 394.128 488.818 394.128L504.98 388.176C504.98 388.176 500.63 345.961 497.582 328.551C496.772 323.964 495.01 319.616 492.374 315.775L458.717 266.688L441.253 285.446Z" fill="#FFC2B0"></path> <path d="M435.84 282.86L459.766 327.154C462.766 330.503 497.218 310.808 493.36 305.602C492.677 304.682 465.91 251.008 443.763 243.802C425.791 237.946 423.679 262.783 435.84 282.86Z" fill="#515DC8"></path> <path d="M375.098 210.823L389.259 213.14C389.259 213.14 384.115 220.631 380.21 219.282C376.304 217.933 375.098 210.823 375.098 210.823Z" fill="white"></path> <path d="M391.5 200.444C391.531 201.555 391.087 202.476 390.515 202.492C389.928 202.507 389.436 201.619 389.404 200.492C389.372 199.381 389.817 198.46 390.388 198.445C390.96 198.429 391.468 199.317 391.5 200.444Z" fill="#2C1F9C"></path> <path d="M376.448 197.27C376.48 198.381 376.035 199.301 375.464 199.317C374.876 199.333 374.384 198.444 374.352 197.318C374.32 196.207 374.765 195.286 375.337 195.27C375.908 195.254 376.416 196.143 376.448 197.27Z" fill="#2C1F9C"></path> <path d="M381.051 200.46C381.051 200.46 379.431 205.602 378.876 206.427C378.304 207.253 379.685 208.76 381.289 208.268" stroke="#F09A82" stroke-width="1.0533" stroke-miterlimit="10" stroke-linecap="round" stroke-linejoin="round"></path> <path d="M422.076 206.253C420.774 212.649 415.662 216.998 410.661 215.982C405.66 214.966 402.675 208.951 403.977 202.555C405.279 196.16 410.391 191.811 415.392 192.827C420.393 193.858 423.393 199.873 422.076 206.253Z" fill="#FDFDFD"></path> <path d="M419.774 207.697C418.964 211.649 415.805 214.347 412.709 213.712C409.613 213.077 407.772 209.363 408.581 205.412C409.391 201.46 412.55 198.762 415.646 199.397C418.726 200.032 420.584 203.745 419.774 207.697Z" fill="#9C91FF"></path> <path d="M379.686 164.989C379.686 164.989 410.835 160.847 410.295 195.27L414.486 196C414.486 196 417.931 171.322 400.896 164.053C383.877 156.768 379.686 164.989 379.686 164.989Z" fill="#FDFDFD"></path> <path d="M401.531 286.271L374.24 278.812C371.049 277.939 368.43 274.432 368.43 271.02C368.43 267.608 371.049 265.545 374.24 266.417L401.531 273.877C404.723 274.749 407.342 278.257 407.342 281.653C407.342 285.065 404.723 287.144 401.531 286.271Z" fill="white"></path> </svg> 