<?xml version="1.0" encoding="UTF-8"?> <svg xmlns="http://www.w3.org/2000/svg" width="800" height="800" viewBox="0 0 800 800" fill="none"> <g clip-path="url(#clip0)"> <path opacity="0.4" d="M566.91 524.82L407.21 434.35C405.36 433.3 405.49 431.4 407.49 430.13L479.28 384.48C481.28 383.21 484.43 383.02 486.28 384.07L645.98 474.54C647.83 475.59 647.7 477.49 645.7 478.76L573.91 524.41C571.91 525.68 568.76 525.87 566.91 524.82Z" fill="#A8C4E5"></path> <path d="M580.509 350.69C583.839 352.61 586.459 356.81 586.369 360.07L582.409 507.86C582.329 511.12 579.559 512.2 576.229 510.28L331.149 368.7C327.819 366.78 325.199 362.58 325.289 359.32L329.239 211.53C329.329 208.27 332.089 207.19 335.419 209.11L580.509 350.69Z" fill="#EBF0FF"></path> <path d="M592.6 319.43V319.42C592.6 319.41 592.6 319.4 592.6 319.39C592.6 319.37 592.6 319.35 592.6 319.33C592.6 319.24 592.59 319.16 592.58 319.07C592.57 319 592.57 318.93 592.56 318.86C592.56 318.85 592.56 318.84 592.56 318.83C592.56 318.82 592.56 318.81 592.56 318.81C592.55 318.73 592.54 318.64 592.52 318.56C592.51 318.48 592.49 318.39 592.47 318.31C592.47 318.3 592.46 318.29 592.46 318.27C592.46 318.26 592.45 318.25 592.45 318.23C592.44 318.17 592.43 318.11 592.41 318.05C592.39 317.97 592.37 317.88 592.35 317.8C592.34 317.76 592.33 317.72 592.32 317.68C592.32 317.66 592.31 317.65 592.31 317.63C592.3 317.6 592.3 317.58 592.29 317.55C592.27 317.47 592.24 317.38 592.21 317.3C592.18 317.22 592.16 317.14 592.13 317.06V317.05C592.13 317.05 592.13 317.05 592.13 317.04C592.1 316.96 592.07 316.87 592.04 316.79C592.01 316.71 591.98 316.62 591.94 316.54C591.93 316.52 591.92 316.5 591.91 316.47C591.9 316.45 591.9 316.44 591.89 316.42C591.87 316.37 591.85 316.33 591.83 316.28C591.8 316.2 591.76 316.12 591.72 316.04C591.69 315.98 591.66 315.92 591.63 315.86C591.63 315.85 591.62 315.84 591.62 315.83C591.62 315.82 591.61 315.81 591.61 315.8C591.57 315.72 591.53 315.65 591.5 315.57C591.46 315.5 591.42 315.42 591.38 315.35C591.36 315.32 591.35 315.29 591.33 315.26C591.32 315.25 591.32 315.23 591.31 315.22C591.29 315.19 591.28 315.16 591.26 315.13C591.22 315.05 591.17 314.98 591.13 314.9C591.09 314.83 591.04 314.75 590.99 314.68C590.99 314.67 590.98 314.67 590.98 314.66C590.97 314.65 590.97 314.64 590.96 314.63C590.91 314.55 590.86 314.47 590.81 314.39C590.76 314.32 590.71 314.25 590.66 314.17C590.63 314.12 590.6 314.07 590.56 314.03C590.54 314.01 590.53 313.98 590.51 313.96C590.43 313.84 590.34 313.73 590.25 313.62C590.22 313.58 590.2 313.54 590.17 313.51C590.17 313.5 590.16 313.5 590.16 313.49C590.05 313.35 589.93 313.2 589.82 313.07C589.8 313.05 589.79 313.03 589.77 313.01C589.75 312.99 589.74 312.97 589.72 312.96C589.68 312.91 589.64 312.86 589.6 312.82C589.53 312.74 589.46 312.66 589.39 312.59C589.36 312.56 589.34 312.53 589.31 312.5C589.3 312.49 589.28 312.47 589.27 312.46C589.24 312.43 589.22 312.41 589.19 312.38C589.12 312.31 589.05 312.24 588.98 312.17C588.93 312.12 588.87 312.07 588.82 312.01C588.81 312 588.8 311.99 588.79 311.98C588.78 311.97 588.77 311.96 588.76 311.95C588.68 311.88 588.61 311.81 588.53 311.74C588.45 311.67 588.37 311.6 588.29 311.53C588.29 311.53 588.29 311.53 588.28 311.53C588.28 311.53 588.28 311.53 588.27 311.53C588.19 311.46 588.11 311.4 588.04 311.34C587.96 311.27 587.87 311.21 587.79 311.15C587.78 311.14 587.77 311.14 587.76 311.13C587.75 311.12 587.74 311.11 587.72 311.1C587.66 311.05 587.6 311.01 587.54 310.97C587.46 310.91 587.37 310.85 587.29 310.8C587.27 310.78 587.24 310.77 587.22 310.75C587.21 310.74 587.2 310.74 587.2 310.73C587.2 310.73 587.2 310.73 587.19 310.73C587.14 310.7 587.09 310.67 587.04 310.63C586.96 310.58 586.87 310.53 586.79 310.48C586.77 310.47 580.87 307.06 580.86 307.05L580.84 307.07L342.55 169.43C342.55 169.43 342.54 169.42 342.53 169.42L342.17 169.21C341.89 169.05 341.57 168.86 341.53 168.84C341.45 168.79 341.36 168.75 341.28 168.71C341.2 168.67 341.11 168.63 341.03 168.59C340.95 168.55 340.86 168.51 340.78 168.48C340.69 168.44 340.61 168.41 340.52 168.38C340.43 168.35 340.35 168.32 340.26 168.29C340.17 168.26 340.08 168.23 339.99 168.21C339.98 168.21 339.98 168.21 339.97 168.21C339.96 168.21 339.95 168.21 339.95 168.2C339.87 168.18 339.79 168.16 339.72 168.14C339.68 168.13 339.64 168.12 339.6 168.12C339.57 168.11 339.54 168.11 339.5 168.1C339.48 168.1 339.45 168.09 339.43 168.08C339.34 168.06 339.24 168.05 339.15 168.04C339.14 168.04 339.13 168.04 339.13 168.04C339.02 168.01 338.91 168 338.8 168C338.79 168 338.78 168 338.76 168C338.71 168 338.66 168 338.62 168C338.56 168 338.51 168 338.45 168C338.43 168 338.42 168 338.4 168C338.32 168 338.25 168.01 338.17 168.02C338.13 168.03 338.09 168.03 338.05 168.03C338.04 168.03 338.03 168.03 338.02 168.04C337.87 168.06 337.73 168.1 337.59 168.14C337.58 168.14 337.57 168.14 337.56 168.15C337.54 168.16 337.53 168.16 337.52 168.17C337.34 168.23 337.17 168.3 337.01 168.4L330.91 171.97C331.06 171.88 331.23 171.81 331.41 171.75C331.48 171.73 331.55 171.71 331.62 171.69C331.7 171.67 331.79 171.65 331.87 171.63C331.97 171.61 332.08 171.6 332.18 171.59C332.22 171.59 332.26 171.58 332.3 171.58C332.45 171.57 332.6 171.57 332.76 171.58C332.79 171.58 332.82 171.58 332.85 171.59C333.01 171.6 333.17 171.62 333.34 171.65C333.35 171.65 333.36 171.66 333.38 171.66C333.56 171.69 333.74 171.74 333.92 171.79C333.93 171.79 333.95 171.8 333.96 171.8C334.14 171.85 334.32 171.92 334.51 171.99C334.53 172 334.55 172 334.56 172.01C334.76 172.09 334.96 172.18 335.16 172.28C335.24 172.32 335.32 172.36 335.41 172.41C335.47 172.45 335.54 172.48 335.6 172.52L336.94 173.3L574.85 310.73L574.63 310.87C574.63 310.87 580.84 314.17 580.92 314.22C581 314.27 581.09 314.33 581.17 314.38C581.25 314.44 581.34 314.49 581.42 314.55C581.5 314.61 581.59 314.67 581.67 314.73C581.7 314.76 581.74 314.78 581.77 314.81C581.9 314.91 582.03 315.02 582.16 315.12C582.29 315.23 582.42 315.34 582.54 315.46C582.56 315.47 582.57 315.49 582.59 315.5C582.71 315.61 582.83 315.73 582.94 315.84C582.96 315.86 582.98 315.88 582.99 315.89C583.1 316 583.21 316.12 583.32 316.24C583.34 316.26 583.36 316.28 583.38 316.3C583.49 316.42 583.59 316.54 583.7 316.66C583.75 316.72 583.8 316.79 583.86 316.85C583.92 316.93 583.99 317.01 584.05 317.09C584.12 317.18 584.19 317.28 584.26 317.37C584.3 317.43 584.35 317.49 584.39 317.55C584.43 317.6 584.46 317.66 584.5 317.71C584.57 317.81 584.63 317.9 584.7 318C584.72 318.03 584.73 318.05 584.75 318.08C584.84 318.22 584.92 318.35 585 318.49C585.01 318.5 585.01 318.51 585.02 318.52C585.1 318.66 585.19 318.81 585.26 318.96C585.27 318.97 585.28 318.99 585.28 319.01C585.36 319.15 585.43 319.3 585.5 319.44C585.51 319.46 585.52 319.48 585.53 319.5C585.6 319.64 585.66 319.78 585.72 319.93C585.73 319.95 585.74 319.97 585.75 319.99C585.81 320.13 585.87 320.27 585.92 320.42C585.93 320.44 585.94 320.46 585.94 320.49C585.99 320.63 586.04 320.78 586.08 320.92C586.09 320.94 586.09 320.96 586.1 320.98C586.14 321.12 586.18 321.27 586.22 321.41C586.22 321.43 586.23 321.45 586.23 321.47C586.27 321.61 586.3 321.76 586.32 321.9C586.33 321.97 586.35 322.04 586.36 322.11C586.37 322.19 586.39 322.28 586.4 322.36C586.41 322.45 586.42 322.54 586.43 322.62C586.44 322.71 586.44 322.79 586.45 322.88C586.46 322.97 586.46 323.07 586.46 323.16C586.46 323.23 586.46 323.3 586.46 323.38C586.46 323.38 586.46 323.52 586.45 323.77L585.83 347.12C585.62 347 584.55 346.38 584.53 346.37L578.18 349.79C578.18 349.79 579.95 350.81 580.03 350.87C580.11 350.92 580.2 350.98 580.28 351.03C580.36 351.09 580.45 351.14 580.53 351.2C580.61 351.26 580.7 351.32 580.78 351.38C580.81 351.41 580.85 351.43 580.88 351.46C581.01 351.56 581.14 351.67 581.27 351.77C581.4 351.88 581.53 351.99 581.65 352.11C581.67 352.12 581.68 352.14 581.7 352.15C581.82 352.26 581.94 352.38 582.05 352.49C582.07 352.51 582.09 352.53 582.1 352.54C582.21 352.65 582.32 352.77 582.43 352.89C582.45 352.91 582.47 352.93 582.49 352.95C582.6 353.07 582.7 353.19 582.81 353.31C582.86 353.37 582.91 353.44 582.97 353.5C583.03 353.58 583.1 353.66 583.16 353.74C583.23 353.83 583.3 353.93 583.37 354.02C583.41 354.08 583.46 354.14 583.51 354.2C583.55 354.25 583.58 354.31 583.62 354.36C583.69 354.46 583.75 354.55 583.82 354.65C583.84 354.68 583.85 354.7 583.87 354.73C583.96 354.87 584.04 355 584.12 355.14C584.13 355.15 584.13 355.16 584.14 355.17C584.22 355.31 584.31 355.46 584.38 355.61C584.39 355.62 584.4 355.64 584.4 355.66C584.48 355.8 584.55 355.95 584.62 356.09C584.63 356.11 584.64 356.13 584.65 356.15C584.72 356.29 584.78 356.43 584.84 356.58C584.85 356.6 584.86 356.62 584.87 356.64C584.93 356.78 584.98 356.92 585.04 357.07C585.05 357.09 585.06 357.11 585.06 357.14C585.11 357.28 585.16 357.43 585.2 357.57C585.21 357.59 585.21 357.61 585.22 357.63C585.26 357.77 585.3 357.92 585.34 358.06C585.34 358.08 585.35 358.1 585.35 358.12C585.39 358.26 585.42 358.41 585.44 358.55C585.45 358.62 585.47 358.69 585.48 358.76C585.49 358.81 585.5 358.86 585.5 358.91L582.54 469.41C582.52 470.1 580.43 474.45 580.99 474.12L582.55 472.7L581.66 506.08C581.64 506.77 579.55 511.12 580.11 510.79L585.84 505.57C587.05 504.47 587.75 502.89 587.79 501.12L591.62 358.19C591.64 357.5 591.67 356.46 591.67 356.46C591.67 356.39 591.67 356.32 591.67 356.24C591.67 356.18 591.67 356.12 591.66 356.06V356.05C591.66 356.04 591.66 356.03 591.66 356.02C591.66 356 591.66 355.98 591.66 355.96C591.66 355.87 591.65 355.79 591.64 355.7C591.63 355.63 591.63 355.56 591.62 355.49C591.62 355.48 591.62 355.47 591.62 355.46C591.62 355.45 591.62 355.44 591.62 355.44C591.62 355.41 591.61 355.37 591.61 355.34L592.52 321.52C592.54 320.83 592.57 319.79 592.57 319.79C592.57 319.72 592.57 319.65 592.57 319.57C592.6 319.55 592.6 319.49 592.6 319.43Z" fill="#AEBCE8"></path> <path d="M580.68 333.46C584.01 335.38 586.3 333.49 586.21 336.75L582.87 490.68C582.79 493.94 579.73 494.97 576.4 493.05L331.32 351.46C327.99 349.54 325.37 345.34 325.46 342.08L329.41 194.29C329.5 191.03 332.26 189.95 335.59 191.87L580.68 333.46Z" fill="#2C1F9C"></path> <path d="M580.679 314.02C584.009 315.94 586.629 320.14 586.539 323.4L582.869 471.24C582.789 474.5 579.729 475.53 576.399 473.61L331.319 332.02C327.989 330.1 325.579 337.36 325.669 334.1L329.409 174.86C329.499 171.6 332.259 170.52 335.589 172.44L580.679 314.02Z" fill="#25319C"></path> <path d="M580.25 331.99C580.36 329.26 577.89 325.59 574.74 323.8L342.58 191.86C339.43 190.07 336.79 190.83 336.68 193.56L335.97 211.46C335.87 211.75 335.81 212.08 335.8 212.44L332.6 336.59C332.49 339.32 336.05 344.33 339.21 346.12L568.57 476.47C571.72 478.26 574.36 477.5 574.47 474.77L575.18 456.87C575.28 456.58 575.34 456.25 575.35 455.89L580.25 331.99Z" fill="#515DC8"></path> <path d="M577.34 523.53L577.24 510.14L568.56 505.29L565.83 515.19L329.69 378.86C326.85 377.22 321.09 377.43 317.81 379.32L215.41 438.02V436.39L197.84 436.91V443.05L198.16 450.22C198.4 451.78 199.01 452.43 199.98 452.99L445.72 595.24C448.56 596.88 453.58 596.86 456.87 594.97L574.62 527.08C576.41 526.04 577.33 524.76 577.33 523.5L577.34 523.53Z" fill="#2C1F9C"></path> <path d="M445.59 582.46L199.86 440.59C197.02 438.95 197.38 436.05 200.66 434.16L318.41 366.18C321.69 364.28 326.71 364.08 329.55 365.72L575.28 507.59C578.12 509.23 577.76 512.13 574.48 514.02L456.73 582C453.45 583.9 448.43 584.11 445.59 582.46Z" fill="#CCD9FF"></path> <path d="M333.13 392C332.77 392.21 332.04 392.12 331.51 391.81L316.59 383.2C316.05 382.89 315.9 382.47 316.26 382.26L326.14 376.55C326.5 376.34 327.23 376.43 327.76 376.74L342.68 385.35C343.22 385.66 343.37 386.08 343.01 386.29L333.13 392Z" fill="#7396FF"></path> <path d="M350.439 417.7C350.079 417.91 349.359 417.83 348.809 417.51L333.889 408.9C333.349 408.59 333.209 408.17 333.569 407.96L343.459 402.25C343.809 402.05 344.539 402.13 345.069 402.44L359.989 411.05C360.539 411.36 360.679 411.78 360.319 411.98L350.439 417.7Z" fill="#7396FF"></path> <path d="M341.69 428.38C341.33 428.59 340.61 428.5 340.07 428.19L325.15 419.58C324.62 419.27 324.46 418.85 324.82 418.65L334.71 412.94C335.06 412.74 335.8 412.83 336.33 413.13L351.25 421.74C351.79 422.05 351.93 422.47 351.58 422.67L341.69 428.38Z" fill="#7396FF"></path> <path d="M318.02 430.44C317.67 430.64 316.94 430.56 316.4 430.25L301.48 421.64C300.95 421.33 300.8 420.91 301.15 420.71L311.04 415C311.39 414.8 312.13 414.88 312.66 415.19L327.58 423.8C328.11 424.11 328.26 424.53 327.9 424.73L318.02 430.44Z" fill="#7396FF"></path> <path d="M276.96 424.45C276.6 424.66 275.88 424.57 275.34 424.26L260.42 415.65C259.88 415.34 259.73 414.92 260.09 414.71L271.7 408.01C272.05 407.81 272.78 407.89 273.32 408.2L288.24 416.81C288.78 417.12 288.92 417.54 288.57 417.75L276.96 424.45Z" fill="#7396FF"></path> <path d="M302.68 439.29C302.32 439.5 301.46 439.33 300.75 438.92L281.2 427.64C280.5 427.24 280.21 426.74 280.57 426.53L292.18 419.83C292.53 419.63 293.4 419.79 294.1 420.19L313.65 431.47C314.36 431.88 314.63 432.38 314.29 432.58L302.68 439.29Z" fill="#7396FF"></path> <path d="M431.089 513.5C430.789 513.67 430.109 513.56 429.579 513.25L414.669 504.65C414.129 504.34 413.919 503.94 414.219 503.77L418.509 501.29C418.799 501.12 419.489 501.23 420.029 501.55L434.939 510.15C435.479 510.46 435.669 510.85 435.379 511.02L431.089 513.5Z" fill="#7396FF"></path> <path d="M451.02 525.3C450.72 525.47 450.04 525.36 449.51 525.05L434.6 516.45C434.06 516.14 433.85 515.74 434.15 515.57L438.44 513.09C438.73 512.92 439.42 513.03 439.96 513.35L454.87 521.95C455.41 522.26 455.6 522.65 455.31 522.82L451.02 525.3Z" fill="#7396FF"></path> <path d="M472.15 537.22C471.86 537.39 471.19 537.27 470.66 536.96L455.75 528.35C455.22 528.04 455 527.65 455.29 527.48L459.42 525.09C459.7 524.93 460.38 525.05 460.92 525.36L475.83 533.97C476.37 534.28 476.57 534.67 476.29 534.83L472.15 537.22Z" fill="#7396FF"></path> <path d="M459.16 520.75C458.87 520.92 458.2 520.8 457.67 520.49L442.76 511.88C442.23 511.57 442.01 511.18 442.3 511.01L446.43 508.62C446.71 508.46 447.39 508.58 447.93 508.89L462.84 517.5C463.38 517.81 463.58 518.2 463.3 518.36L459.16 520.75Z" fill="#7396FF"></path> <path d="M405.3 498.5C404.94 498.71 404.21 498.62 403.67 498.31L306.59 442.29C306.06 441.98 305.9 441.56 306.26 441.35L317.87 434.64C318.22 434.44 318.96 434.53 319.49 434.83L416.57 490.85C417.11 491.16 417.26 491.59 416.91 491.79L405.3 498.5Z" fill="#7396FF"></path> <path d="M300.02 435.59C300 435.6 299.93 435.58 299.86 435.55L288.46 428.97C288.4 428.93 288.36 428.89 288.39 428.88L289.11 428.46C289.13 428.45 289.2 428.47 289.26 428.5L300.66 435.08C300.72 435.12 300.76 435.16 300.74 435.17L300.02 435.59Z" fill="#7396FF"></path> <path d="M270.78 417.46C270.76 417.47 270.72 417.47 270.69 417.45L265.85 414.66C265.82 414.64 265.82 414.62 265.84 414.61L266.56 414.19C266.58 414.18 266.62 414.18 266.65 414.19L271.49 416.98C271.52 417 271.52 417.02 271.5 417.03L270.78 417.46Z" fill="#7396FF"></path> <path d="M338.469 442.23C338.119 442.43 337.389 442.35 336.849 442.04L321.929 433.43C321.399 433.12 321.249 432.7 321.599 432.49L331.489 426.78C331.839 426.58 332.589 426.66 333.119 426.97L348.039 435.58C348.579 435.89 348.719 436.31 348.369 436.52L338.469 442.23Z" fill="#7396FF"></path> <path d="M359.01 454.08C358.66 454.28 357.92 454.2 357.39 453.89L342.47 445.28C341.93 444.97 341.78 444.55 342.14 444.34L352.03 438.63C352.38 438.43 353.12 438.51 353.66 438.82L368.58 447.43C369.11 447.74 369.26 448.16 368.9 448.36L359.01 454.08Z" fill="#7396FF"></path> <path d="M379.549 465.94C379.199 466.14 378.469 466.06 377.929 465.75L363.009 457.14C362.479 456.83 362.329 456.41 362.679 456.21L372.569 450.5C372.919 450.3 373.659 450.38 374.189 450.69L389.109 459.3C389.639 459.61 389.789 460.03 389.429 460.23L379.549 465.94Z" fill="#7396FF"></path> <path d="M400.09 477.79C399.74 477.99 399.01 477.91 398.47 477.6L383.55 468.99C383.01 468.68 382.87 468.26 383.22 468.05L393.11 462.34C393.46 462.14 394.2 462.22 394.74 462.53L409.66 471.14C410.2 471.45 410.34 471.87 409.98 472.08L400.09 477.79Z" fill="#7396FF"></path> <path d="M420.64 489.65C420.29 489.85 419.55 489.77 419.01 489.46L404.1 480.85C403.57 480.54 403.42 480.12 403.78 479.92L413.67 474.21C414.02 474.01 414.76 474.09 415.29 474.4L430.2 483.01C430.74 483.32 430.89 483.75 430.53 483.95L420.64 489.65Z" fill="#7396FF"></path> <path d="M441.18 501.49C440.83 501.69 440.1 501.61 439.56 501.3L424.65 492.69C424.11 492.38 423.97 491.96 424.32 491.75L434.21 486.04C434.56 485.84 435.3 485.92 435.84 486.23L450.75 494.84C451.29 495.15 451.43 495.57 451.08 495.78L441.18 501.49Z" fill="#7396FF"></path> <path d="M487.45 528.19C487.1 528.39 486.37 528.31 485.83 528L445.19 504.55C444.65 504.24 444.51 503.82 444.86 503.61L454.75 497.9C455.1 497.7 455.84 497.78 456.37 498.09L497.01 521.54C497.55 521.85 497.69 522.27 497.34 522.48L487.45 528.19Z" fill="#7396FF"></path> <path d="M362.129 440.16C361.769 440.37 361.059 440.28 360.519 439.97L345.599 431.36C345.059 431.05 344.909 430.63 345.269 430.43L355.159 424.72C355.509 424.52 356.239 424.6 356.769 424.91L371.689 433.52C372.229 433.83 372.369 434.25 372.019 434.45L362.129 440.16Z" fill="#7396FF"></path> <path d="M382.68 452.02C382.32 452.23 381.6 452.14 381.06 451.83L366.13 443.22C365.6 442.91 365.45 442.5 365.81 442.29L375.7 436.58C376.05 436.38 376.78 436.46 377.31 436.77L392.24 445.38C392.77 445.69 392.92 446.11 392.57 446.31L382.68 452.02Z" fill="#7396FF"></path> <path d="M403.22 463.88C402.86 464.09 402.13 464 401.6 463.69L386.68 455.08C386.15 454.78 385.99 454.35 386.35 454.14L396.24 448.43C396.59 448.23 397.33 448.32 397.86 448.62L412.78 457.23C413.31 457.54 413.46 457.96 413.11 458.16L403.22 463.88Z" fill="#7396FF"></path> <path d="M423.759 475.73C423.399 475.94 422.679 475.85 422.139 475.54L407.229 466.93C406.689 466.62 406.539 466.2 406.899 466L416.789 460.29C417.139 460.09 417.869 460.17 418.409 460.48L433.319 469.09C433.859 469.4 433.999 469.82 433.649 470.02L423.759 475.73Z" fill="#7396FF"></path> <path d="M444.31 487.58C443.95 487.79 443.23 487.7 442.69 487.39L427.77 478.78C427.23 478.47 427.09 478.06 427.44 477.85L437.33 472.14C437.68 471.94 438.4 472.02 438.94 472.33L453.86 480.94C454.39 481.25 454.54 481.67 454.19 481.87L444.31 487.58Z" fill="#7396FF"></path> <path d="M464.84 499.43C464.48 499.64 463.76 499.55 463.23 499.24L448.32 490.63C447.78 490.32 447.63 489.9 447.98 489.69L457.87 483.98C458.22 483.78 458.95 483.86 459.49 484.17L474.4 492.78C474.93 493.09 475.08 493.51 474.73 493.71L464.84 499.43Z" fill="#7396FF"></path> <path d="M485.38 511.28C485.02 511.49 484.3 511.4 483.77 511.09L468.85 502.48C468.32 502.17 468.17 501.76 468.53 501.55L478.42 495.84C478.77 495.64 479.49 495.72 480.03 496.03L494.95 504.64C495.48 504.95 495.63 505.37 495.28 505.57L485.38 511.28Z" fill="#7396FF"></path> <path d="M370.88 429.49C370.52 429.7 369.79 429.61 369.25 429.3L354.33 420.69C353.8 420.38 353.65 419.96 354.01 419.76L363.9 414.05C364.25 413.85 364.98 413.93 365.51 414.24L380.43 422.85C380.97 423.16 381.11 423.58 380.76 423.78L370.88 429.49Z" fill="#7396FF"></path> <path d="M391.42 441.35C391.06 441.56 390.33 441.47 389.8 441.17L374.88 432.56C374.34 432.25 374.2 431.83 374.56 431.62L384.45 425.91C384.8 425.71 385.53 425.79 386.07 426.1L400.99 434.71C401.52 435.02 401.67 435.44 401.32 435.64L391.42 441.35Z" fill="#7396FF"></path> <path d="M411.959 453.2C411.599 453.41 410.869 453.32 410.329 453.01L395.409 444.4C394.879 444.09 394.729 443.67 395.089 443.46L404.979 437.75C405.329 437.55 406.059 437.63 406.589 437.94L421.509 446.55C422.049 446.86 422.199 447.28 421.839 447.48L411.959 453.2Z" fill="#7396FF"></path> <path d="M432.5 465.05C432.14 465.26 431.42 465.18 430.88 464.87L415.96 456.26C415.42 455.95 415.28 455.53 415.64 455.32L425.53 449.61C425.88 449.41 426.61 449.49 427.15 449.8L442.07 458.41C442.61 458.72 442.75 459.14 442.4 459.34L432.5 465.05Z" fill="#7396FF"></path> <path d="M453.05 476.9C452.69 477.11 451.96 477.02 451.43 476.72L436.51 468.11C435.97 467.8 435.83 467.38 436.19 467.17L446.08 461.46C446.43 461.26 447.16 461.34 447.69 461.65L462.61 470.26C463.14 470.56 463.28 470.99 462.93 471.19L453.05 476.9Z" fill="#7396FF"></path> <path d="M473.6 488.76C473.24 488.97 472.51 488.88 471.97 488.57L457.05 479.96C456.52 479.66 456.37 479.23 456.73 479.02L466.62 473.31C466.97 473.11 467.7 473.19 468.23 473.5L483.15 482.11C483.69 482.42 483.84 482.84 483.49 483.05L473.6 488.76Z" fill="#7396FF"></path> <path d="M494.13 500.61C493.77 500.82 493.04 500.73 492.51 500.43L477.59 491.82C477.05 491.51 476.91 491.09 477.27 490.88L487.16 485.17C487.51 484.97 488.24 485.05 488.77 485.36L503.69 493.97C504.22 494.28 504.37 494.7 504.02 494.9L494.13 500.61Z" fill="#7396FF"></path> <path d="M329.899 405.85C329.539 406.06 328.809 405.97 328.269 405.66L302.979 391.06C302.439 390.75 302.289 390.33 302.649 390.12L312.539 384.41C312.889 384.21 313.619 384.29 314.159 384.6L339.449 399.2C339.989 399.51 340.129 399.93 339.779 400.13L329.899 405.85Z" fill="#7396FF"></path> <path d="M528.29 504.6C527.93 504.81 527.21 504.72 526.67 504.41L501.37 489.81C500.84 489.51 500.69 489.08 501.05 488.87L510.93 483.16C511.29 482.95 512.02 483.04 512.55 483.35L537.85 497.95C538.39 498.26 538.54 498.68 538.18 498.89L528.29 504.6Z" fill="#7396FF"></path> <path d="M321.14 416.52C320.78 416.73 320.06 416.64 319.52 416.33L289.36 398.93C288.82 398.62 288.67 398.2 289.03 397.99L298.92 392.28C299.27 392.08 300 392.16 300.54 392.47L330.7 409.87C331.24 410.18 331.38 410.6 331.03 410.8L321.14 416.52Z" fill="#7396FF"></path> <path d="M297.479 418.59C297.129 418.79 296.399 418.71 295.859 418.4L275.749 406.8C275.209 406.49 275.069 406.07 275.419 405.86L285.309 400.15C285.659 399.95 286.399 400.03 286.929 400.34L307.039 411.94C307.579 412.25 307.719 412.67 307.369 412.88L297.479 418.59Z" fill="#7396FF"></path> <path d="M353.67 403.85C353.31 404.06 352.59 403.97 352.04 403.66L337.13 395.06C336.59 394.75 336.44 394.33 336.8 394.12L346.68 388.41C347.04 388.2 347.77 388.29 348.3 388.6L363.21 397.2C363.75 397.51 363.9 397.93 363.54 398.14L353.67 403.85Z" fill="#7396FF"></path> <path d="M374.12 415.64C373.76 415.85 373.03 415.76 372.5 415.45L357.58 406.84C357.05 406.53 356.9 406.11 357.25 405.9L367.13 400.19C367.49 399.98 368.22 400.07 368.75 400.38L383.67 408.99C384.21 409.3 384.36 409.72 384 409.93L374.12 415.64Z" fill="#7396FF"></path> <path d="M394.649 427.49C394.289 427.7 393.57 427.62 393.03 427.3L378.11 418.69C377.58 418.38 377.429 417.96 377.789 417.76L387.67 412.05C388.03 411.84 388.759 411.93 389.289 412.24L404.21 420.85C404.75 421.16 404.89 421.58 404.53 421.78L394.649 427.49Z" fill="#7396FF"></path> <path d="M415.2 439.35C414.84 439.56 414.11 439.47 413.58 439.16L398.67 430.56C398.13 430.25 397.98 429.83 398.34 429.62L408.22 423.91C408.58 423.7 409.3 423.79 409.84 424.1L424.75 432.7C425.29 433.01 425.44 433.43 425.08 433.64L415.2 439.35Z" fill="#7396FF"></path> <path d="M435.73 451.2C435.37 451.41 434.66 451.33 434.11 451.02L419.2 442.41C418.66 442.1 418.51 441.68 418.87 441.47L428.75 435.76C429.11 435.55 429.83 435.64 430.37 435.95L445.29 444.56C445.83 444.87 445.97 445.29 445.61 445.49L435.73 451.2Z" fill="#7396FF"></path> <path d="M456.29 463.05C455.93 463.26 455.2 463.17 454.67 462.86L439.75 454.25C439.22 453.94 439.07 453.52 439.43 453.32L449.31 447.61C449.67 447.4 450.39 447.49 450.93 447.79L465.85 456.4C466.38 456.71 466.53 457.13 466.17 457.33L456.29 463.05Z" fill="#7396FF"></path> <path d="M476.83 474.91C476.47 475.12 475.74 475.03 475.21 474.72L460.29 466.11C459.75 465.8 459.6 465.38 459.96 465.17L469.84 459.46C470.2 459.25 470.93 459.34 471.47 459.65L486.39 468.26C486.93 468.57 487.08 468.99 486.72 469.2L476.83 474.91Z" fill="#7396FF"></path> <path d="M497.36 486.76C497 486.97 496.28 486.88 495.75 486.58L480.82 477.97C480.29 477.66 480.15 477.24 480.5 477.04L490.38 471.33C490.74 471.12 491.46 471.21 491.99 471.51L506.92 480.13C507.45 480.44 507.6 480.85 507.24 481.06L497.36 486.76Z" fill="#7396FF"></path> <path d="M509.31 497.21C509.06 497.07 508.76 496.96 508.44 496.92C508.12 496.88 507.87 496.92 507.71 497.02L497.82 502.73C497.65 502.83 497.58 502.97 497.64 503.16C497.71 503.34 497.89 503.52 498.13 503.66L502.02 505.91L489.06 513.4C488.89 513.5 488.83 513.65 488.89 513.83C488.95 514.01 489.14 514.19 489.39 514.33L499.44 520.13C499.69 520.28 500 520.38 500.32 520.42C500.64 520.46 500.9 520.42 501.06 520.32L524.56 506.74C524.73 506.64 524.79 506.5 524.73 506.31C524.67 506.12 524.48 505.95 524.23 505.8L509.31 497.21Z" fill="#7396FF"></path> <path d="M294.81 413.77C294.79 413.78 294.72 413.76 294.65 413.73L283.25 407.15C283.19 407.11 283.15 407.07 283.18 407.06L283.9 406.64C283.92 406.63 283.99 406.65 284.05 406.68L295.45 413.26C295.51 413.3 295.55 413.34 295.53 413.35L294.81 413.77Z" fill="#7396FF"></path> <path d="M526.93 307.79L467.97 273.75C467.75 273.6 467.52 273.46 467.28 273.32L375.31 220.22C371.23 217.87 366.13 220.81 366.13 225.52V241.7V325.86C366.13 331.45 369.11 336.62 373.96 339.42L478.42 399.73C478.74 399.92 479.06 400.11 479.36 400.32L519.59 423.55C525.54 426.99 532.98 422.69 532.98 415.82V338.09V318.38V318.29C532.99 313.95 530.68 309.95 526.93 307.79Z" fill="#6D77D1"></path> <path d="M461.67 400.68C461.99 400.87 462.31 401.06 462.61 401.27L502.84 424.5C508.79 427.94 516.23 423.64 516.23 416.77V319.33C516.23 315 513.92 311 510.17 308.84L451.21 274.8C450.99 274.65 450.76 274.51 450.52 274.37L358.55 221.27C354.47 218.92 349.37 221.86 349.37 226.57V326.82C349.37 332.41 352.35 337.58 357.2 340.38L461.67 400.68Z" fill="white"></path> <path d="M367.74 240.09C367.74 242.46 366.07 243.41 364 242.22C361.94 241.03 360.26 238.14 360.26 235.78C360.26 233.41 361.93 232.46 364 233.65C366.06 234.84 367.74 237.72 367.74 240.09Z" fill="#E24152"></path> <path d="M377.76 245.96C377.76 248.33 376.09 249.28 374.02 248.09C371.96 246.9 370.28 244.01 370.28 241.65C370.28 239.29 371.95 238.33 374.02 239.52C376.09 240.71 377.76 243.59 377.76 245.96Z" fill="#607FFC"></path> <path d="M387.791 251.83C387.791 254.2 386.121 255.15 384.051 253.96C381.991 252.77 380.311 249.88 380.311 247.52C380.311 245.15 381.981 244.2 384.051 245.39C386.121 246.58 387.791 249.46 387.791 251.83Z" fill="#FFAF6F"></path> <path d="M401.18 298.21C397.07 291.53 391.55 286.08 385.63 282.86C379.39 279.47 373.37 278.89 368.67 281.24C363.79 283.69 361.1 288.88 361.1 295.87C361.1 302.22 363.36 309.38 367.46 316.04C371.57 322.72 377.1 328.17 383.01 331.39C386.72 333.41 390.36 334.43 393.69 334.43C395.95 334.43 398.07 333.96 399.97 333.01C404.85 330.56 407.54 325.37 407.54 318.38C407.54 312.03 405.28 304.87 401.18 298.21ZM397.64 329.16C396.02 329.97 394.22 330.37 392.29 330.37C389.46 330.37 386.36 329.5 383.2 327.78C378.17 325.04 373.47 320.41 369.97 314.72C366.48 309.05 364.56 302.96 364.55 297.55C364.55 291.6 366.84 287.18 370.99 285.1C374.99 283.1 380.11 283.59 385.42 286.48C390.45 289.22 395.15 293.85 398.65 299.54C402.14 305.21 404.06 311.3 404.07 316.71C404.09 322.65 401.8 327.08 397.64 329.16Z" fill="white"></path> <path d="M405.02 296.49C399.94 288.23 393.11 281.5 385.81 277.53C378.1 273.34 370.66 272.63 364.85 275.53C358.81 278.55 355.49 284.97 355.5 293.61C355.5 301.45 358.3 310.31 363.37 318.54C368.45 326.8 375.28 333.53 382.58 337.5C387.17 340 391.66 341.26 395.77 341.26C398.57 341.26 401.18 340.68 403.53 339.5C409.57 336.48 412.89 330.05 412.88 321.42C412.89 313.57 410.09 304.72 405.02 296.49Z" fill="#F2994A" stroke="white" stroke-width="0.9639" stroke-miterlimit="10"></path> <path d="M380.9 295.81L393.53 313.02C394.31 314.09 394.13 315.34 393.2 315.29L379.81 314.64C378.91 314.6 377.93 313.37 377.98 312.35L378.74 295.79C378.78 294.64 380.05 294.65 380.9 295.81Z" fill="white"></path> <path d="M414.629 580.931C414.629 580.871 414.629 580.821 414.629 580.771V574.651C414.629 573.871 414.199 573.141 413.509 572.771L406.599 569.011L405.789 575.131L322.099 527.851C321.719 527.631 321.249 527.641 320.869 527.861L263.299 552.781L254.489 559.111C254.139 559.361 253.939 559.761 253.939 560.181V567.851H253.989C253.909 568.331 254.079 568.841 254.569 569.111L347.109 621.381L414.049 581.891C414.399 581.691 414.559 581.351 414.609 581.001H414.629V580.931Z" fill="#C97430"></path> <path d="M346.76 612.01L409.37 576.33L409.18 555.92L346.27 593.6L346.76 612.01Z" fill="#D8E3F0"></path> <path d="M409.04 569.01L347.17 605.16" stroke="#BACED8" stroke-width="0.6617" stroke-miterlimit="10"></path> <path d="M408.99 563.061L346.18 599.121" stroke="#BACED8" stroke-width="0.6617" stroke-miterlimit="10"></path> <path d="M409.08 572.98L347.21 609.13" stroke="#BACED8" stroke-width="0.6617" stroke-miterlimit="10"></path> <path d="M346.8 612.01L258.46 561.21L258.29 543.15L346.61 591.94L346.8 612.01Z" fill="white"></path> <path d="M259.51 550.65L346.18 599.12" stroke="#BACED8" stroke-width="0.6617" stroke-miterlimit="10"></path> <path d="M259.55 554.86L346.22 603.33" stroke="#BACED8" stroke-width="0.6617" stroke-miterlimit="10"></path> <path d="M259.59 559.061L346.26 607.541" stroke="#BACED8" stroke-width="0.6617" stroke-miterlimit="10"></path> <path d="M414.63 562.06C414.63 562 414.63 561.95 414.63 561.89V553.51H405.8V556.26L322.11 508.98C321.73 508.76 321.26 508.77 320.88 508.99L267.24 540.64H253.95V549H254C253.92 549.48 254.09 549.99 254.58 550.26L346.5 602.18C346.88 602.4 347.35 602.39 347.73 602.17L414.06 563.04C414.41 562.84 414.57 562.5 414.62 562.15H414.64V562.06H414.63Z" fill="#C97430"></path> <path d="M253.94 540.64L253.92 569.01L347.1 621.4L347.7 593.8L253.94 540.64Z" fill="#FFAF6F"></path> <path d="M347.7 593.8L414.03 554.67C414.85 554.19 414.84 553 414.01 552.53L322.09 500.61C321.71 500.39 321.24 500.4 320.86 500.62L254.53 539.75C253.71 540.23 253.72 541.42 254.55 541.89L346.47 593.81C346.85 594.03 347.32 594.03 347.7 593.8Z" fill="#F2994A"></path> <path d="M412.59 546.3C412.59 546.24 412.59 546.19 412.59 546.14V537.76H403.76V540.51L320.07 493.23C319.69 493.01 319.22 493.02 318.84 493.24L261.27 518.16L252.46 524.49C252.11 524.74 251.91 525.14 251.91 525.56V533.23H251.96C251.88 533.71 252.05 534.22 252.54 534.49L345.08 586.76L412.02 547.27C412.37 547.07 412.53 546.73 412.58 546.38H412.6V546.3H412.59Z" fill="#3B2AD1"></path> <path d="M412.59 545.26L320.18 486.68L320.01 468.62L412.6 519.32L412.59 545.26Z" fill="#3B2AD1"></path> <path d="M344.729 577.38L407.329 541.7L407.139 521.29L344.239 558.97L344.729 577.38Z" fill="#D8E3F0"></path> <path d="M407.01 534.39L345.13 570.53" stroke="#BACED8" stroke-width="0.6617" stroke-miterlimit="10"></path> <path d="M406.95 528.43L344.14 564.49" stroke="#BACED8" stroke-width="0.6617" stroke-miterlimit="10"></path> <path d="M407.04 538.36L345.17 574.5" stroke="#BACED8" stroke-width="0.6617" stroke-miterlimit="10"></path> <path d="M344.76 577.38L256.42 526.59L256.25 508.53L344.57 557.31L344.76 577.38Z" fill="white"></path> <path d="M257.479 516.02L344.139 564.49" stroke="#BACED8" stroke-width="0.6617" stroke-miterlimit="10"></path> <path d="M257.52 520.23L344.18 568.7" stroke="#BACED8" stroke-width="0.6617" stroke-miterlimit="10"></path> <path d="M257.56 524.44L344.22 572.91" stroke="#BACED8" stroke-width="0.6617" stroke-miterlimit="10"></path> <path d="M412.589 527.43C412.589 527.37 412.589 527.32 412.589 527.26V518.88H403.759V521.63L320.069 474.35C319.689 474.13 319.219 474.14 318.839 474.36L265.199 506.01H251.899V514.36H251.949C251.869 514.84 252.039 515.35 252.529 515.62L344.449 567.54C344.829 567.76 345.299 567.75 345.679 567.53L412.009 528.4C412.359 528.2 412.519 527.86 412.569 527.51H412.589V527.43Z" fill="#3B2AD1"></path> <path d="M345.66 559.18L411.99 520.05C412.81 519.57 412.8 518.38 411.97 517.91L320.05 465.99C319.67 465.77 319.2 465.78 318.82 466L252.49 505.13C251.67 505.61 251.68 506.8 252.51 507.27L344.43 559.19C344.81 559.41 345.28 559.4 345.66 559.18Z" fill="#515DC8"></path> <path d="M355.609 541.7L383.329 525.34C384.539 524.63 384.369 523.41 382.959 522.61L370.039 515.31C368.629 514.51 366.509 514.45 365.299 515.16L337.579 531.52C336.369 532.23 336.539 533.45 337.949 534.25L350.869 541.55C352.279 542.34 354.399 542.41 355.609 541.7Z" fill="white"></path> <path d="M345.769 530.19L366.629 518.15C367.479 517.66 368.769 517.61 369.499 518.03L369.709 518.15C370.439 518.57 370.349 519.32 369.499 519.81L348.639 531.85C347.789 532.34 346.499 532.39 345.769 531.97L345.559 531.85C344.829 531.42 344.919 530.68 345.769 530.19Z" fill="#3B2AD1"></path> <path d="M351.79 534.09L372.65 522.05C373.5 521.56 374.79 521.51 375.52 521.93L375.73 522.05C376.46 522.47 376.37 523.22 375.52 523.71L354.66 535.75C353.81 536.24 352.52 536.29 351.79 535.87L351.58 535.75C350.86 535.32 350.95 534.58 351.79 534.09Z" fill="#3B2AD1"></path> <path d="M326.43 600.22L267.73 566.33C266 565.33 264.59 562.64 264.59 560.34C264.59 558.04 266 556.97 267.73 557.97L326.43 591.86C328.16 592.86 329.57 595.55 329.57 597.85C329.57 600.15 328.15 601.21 326.43 600.22Z" fill="white"></path> <path d="M623.91 431.91L547.97 388.06C543.88 385.7 540.53 379.3 540.53 373.84V289.46C540.53 284 543.88 281.47 547.97 283.83L623.91 327.68C628 330.04 631.35 336.44 631.35 341.9V426.28C631.36 431.74 628.01 434.27 623.91 431.91Z" fill="#7396FF"></path> <path d="M614.04 436.87L538.1 393.02C534.01 390.66 530.66 384.26 530.66 378.8V294.42C530.66 288.96 534.01 286.43 538.1 288.79L614.04 332.64C618.13 335 621.48 341.4 621.48 346.86V431.24C621.49 436.7 618.14 439.23 614.04 436.87Z" fill="#4432DB"></path> <path d="M551.601 391.76L551.561 391.74C551.561 391.74 551.581 391.75 551.601 391.76Z" fill="#FF619A"></path> <path d="M608.381 408.28L607.511 378.86C607.331 376.7 606.391 374.76 604.981 373.3C604.271 372.27 603.371 371.32 602.251 370.52C597.551 367.15 586.841 359.75 580.381 356.61C571.541 352.3 560.941 350.31 553.961 354.8C552.731 355.38 551.571 356.39 550.491 357.98L550.481 357.99C549.971 358.64 549.651 359.23 549.461 359.79C546.261 366.83 548.221 374.9 547.701 384.91C548.161 388.67 548.771 390.19 551.581 391.65L551.711 391.72C551.661 391.76 551.621 391.77 551.591 391.76L590.661 413.34C590.751 413.39 590.831 413.44 590.921 413.49L591.391 413.75C591.391 413.75 591.411 413.75 591.431 413.74C597.611 416.52 608.821 413.79 608.381 408.28Z" fill="url(#paint0_linear)"></path> <path d="M585.521 362.1L564.101 361.49L567.521 349.91C574.621 349.78 579.611 352.04 585.591 356.1L585.521 362.1Z" fill="#2C1F9C"></path> <path d="M571.24 363.93C571.24 363.93 572.94 364.52 574.45 364.19L579.9 373.44L579.62 373.74C578.74 374.68 577.14 374.58 576.56 373.55L571.24 363.93Z" fill="#2C1F9C"></path> <path d="M576.6 364.9C576.6 364.9 574.96 364.76 573.89 363.93L565.28 369.58L565.37 369.94C565.65 371.04 567 371.55 567.94 370.91L576.6 364.9Z" fill="#2C1F9C"></path> <path d="M573.31 372.09C573.31 372.75 572.84 373.02 572.27 372.69C571.69 372.36 571.23 371.55 571.23 370.89C571.23 370.23 571.7 369.96 572.27 370.29C572.85 370.62 573.31 371.43 573.31 372.09Z" fill="#2C1F9C"></path> <path d="M573.31 376.81C573.31 377.47 572.84 377.74 572.27 377.41C571.69 377.08 571.23 376.27 571.23 375.61C571.23 374.95 571.7 374.68 572.27 375.01C572.85 375.35 573.31 376.15 573.31 376.81Z" fill="#2C1F9C"></path> <path d="M573.31 381.54C573.31 382.2 572.84 382.47 572.27 382.14C571.69 381.81 571.23 381 571.23 380.34C571.23 379.68 571.7 379.41 572.27 379.74C572.85 380.07 573.31 380.88 573.31 381.54Z" fill="#2C1F9C"></path> <path d="M575.42 363.58C575.42 363.58 569.62 363.56 568.53 353.46L564.67 352.92C564.14 353.34 563.02 353.06 562.5 356.44C562.19 358.45 562.33 360.5 562.82 362.48L564.25 368.24C564.57 369.53 566.15 370.12 567.24 369.35L575.42 363.58Z" fill="#FFAF6F"></path> <path d="M575.571 363.6C575.571 363.6 573.931 363.46 572.861 362.63L564.251 368.28L564.341 368.64C564.621 369.74 565.971 370.25 566.911 369.61L575.571 363.6Z" fill="#FCFEFF"></path> <path d="M572.431 361.06L570.061 340.48L581.951 346.16L583.871 362.96C584.391 365.73 574.741 371.72 572.431 361.06Z" fill="#FBDDD3"></path> <path d="M571.95 357.61C572.13 358.13 578.14 356.13 577.96 355.48C577.96 355.48 575.36 359.32 572.36 360.52L571.95 357.61Z" fill="#2C1F9C"></path> <path d="M572.541 363.13C572.541 363.13 579.051 365.38 585.591 356.1L590.631 361.69C591.011 362.51 590.871 362.71 590.211 363.44L581.441 373.23C580.421 374.34 578.541 374.21 577.881 372.99L572.541 363.13Z" fill="#FFAF6F"></path> <path d="M572.541 363.13C572.541 363.13 574.081 363.39 575.581 363.29L581.311 373.03L581.031 373.33C580.151 374.27 578.551 374.17 577.971 373.14L572.541 363.13Z" fill="#FCFEFF"></path> <path d="M573.141 357.63L568.05 357.85C562.04 358.19 558.041 353.55 557.701 347.54L556.58 327.7C556.24 321.69 581.99 320.23 582.33 326.24L583.451 346.08C583.781 352.1 579.151 357.29 573.141 357.63Z" fill="#FBDDD3"></path> <path d="M572.54 335.98C568.5 338 563.08 338.36 558.51 336.71C553.55 334.93 550.04 329.2 553.81 325.52C555.85 323.53 561.33 321.1 565.73 319.19C578.21 313.79 591.71 319.39 592.53 333.77C592.53 333.77 594.3 351.18 582.89 354.35L582.52 351.12C582.52 351.12 583.89 348.09 581.23 345.76C579.79 344.5 578.08 341.96 578.18 339.57C578.27 337.15 574.71 334.9 572.54 335.98Z" fill="#2C1F9C"></path> <path d="M583.89 348.39C582.32 350.04 580.27 349.78 579.31 347.8C578.35 345.82 578.84 342.88 580.41 341.23C581.98 339.58 584.03 339.84 584.99 341.82C585.95 343.8 585.46 346.74 583.89 348.39Z" fill="#FBDDD3"></path> <path d="M581.041 344.29C581.041 344.29 582.871 342.26 583.581 344.14C584.291 346.01 581.711 347.98 581.711 347.98C581.711 347.98 582.981 346.34 582.041 345.49C581.091 344.64 581.041 344.29 581.041 344.29Z" fill="#2C1F9C"></path> <path d="M483.19 335.58L474.38 330.49C474.35 330.47 474.33 330.47 474.3 330.45L467.76 326.67C467.66 326.61 467.56 326.58 467.47 326.54L462.13 323.46C462.1 323.44 462.08 323.44 462.05 323.42L456.81 320.4C456.75 320.35 456.68 320.3 456.62 320.26L447.81 315.17C447.78 315.15 447.76 315.15 447.73 315.13L441.19 311.35C441.09 311.29 440.99 311.26 440.9 311.22L435.56 308.14C435.53 308.12 435.51 308.12 435.48 308.1L428.94 304.32C427.97 303.76 427.17 304.36 427.17 305.66C427.17 306.96 427.97 308.48 428.94 309.04L437.75 314.13C437.78 314.15 437.8 314.15 437.83 314.17L444.37 317.95C444.47 318.01 444.56 318.04 444.66 318.08L450 321.16C450.03 321.18 450.05 321.18 450.08 321.2L455.32 324.22C455.38 324.27 455.45 324.32 455.51 324.36L464.32 329.45C464.35 329.47 464.37 329.47 464.4 329.49L470.94 333.27C471.04 333.33 471.13 333.36 471.23 333.4L476.57 336.48C476.6 336.5 476.62 336.5 476.65 336.52L483.19 340.3C484.16 340.86 484.96 340.26 484.96 338.96C484.96 337.67 484.16 336.15 483.19 335.58Z" fill="#CDD6F7"></path> <path d="M454.8 335.99L445.99 330.9C445.96 330.88 445.94 330.88 445.91 330.86L439.37 327.08C439.27 327.02 439.17 326.99 439.08 326.95L433.74 323.87C433.71 323.85 433.69 323.85 433.66 323.83L427.12 320.05C426.15 319.49 425.35 320.09 425.35 321.39C425.35 322.69 426.15 324.21 427.12 324.78L435.93 329.87C435.96 329.89 435.98 329.89 436.01 329.91L442.55 333.69C442.65 333.75 442.74 333.78 442.84 333.82L448.18 336.9C448.21 336.92 448.23 336.92 448.26 336.94L454.8 340.72C455.77 341.28 456.57 340.68 456.57 339.38C456.57 338.07 455.78 336.55 454.8 335.99Z" fill="#CDD6F7"></path> <path opacity="0.44" d="M453.74 383.86L424.62 367.05C422.98 366.1 421.63 363.54 421.63 361.35V338.23C421.63 336.04 422.97 335.03 424.62 335.97L453.74 352.78C455.38 353.73 456.73 356.29 456.73 358.48V381.6C456.73 383.8 455.38 384.81 453.74 383.86Z" fill="#CDD6F7"></path> <path opacity="0.44" d="M494.9 407.54L465.78 390.73C464.14 389.78 462.79 387.22 462.79 385.03V361.91C462.79 359.72 464.13 358.71 465.78 359.65L494.9 376.46C496.54 377.41 497.89 379.97 497.89 382.16V405.28C497.89 407.47 496.54 408.49 494.9 407.54Z" fill="#CDD6F7"></path> <path opacity="0.4" d="M506.58 601.59C506.24 597.02 502.2 594.05 497.6 594.96C497.55 594.97 497.4 594.98 497.4 595L488.85 596.69C488.54 596.71 488.06 596.74 487.73 596.81C487.68 596.82 487.4 596.83 487.4 596.85L484.6 597.37H484.61L392.55 615.61C392.31 615.59 392.12 615.63 391.87 615.7L382.4 623.32V623.33L373.67 629.49L385.58 630.97L394.75 632.38C395.15 632.16 395.48 631.88 395.79 631.55L395.89 631.95L481.92 615.02C481.56 615.18 481.08 615.32 480.67 615.42C480.62 615.43 480.4 615.44 480.4 615.45L484.4 614.67C484.4 614.66 484.73 614.65 484.79 614.64C485.16 614.57 485.8 614.47 486.15 614.35L489.41 613.8C489.41 613.79 489.35 613.78 489.4 613.77C490.07 613.63 490.44 613.38 490.98 613.07L498.41 611.56C498.41 611.55 498.66 611.54 498.72 611.53C503.32 610.6 506.92 606.16 506.58 601.59Z" fill="#A8C4E5"></path> <path d="M492.6 591.1C492.55 591.11 492.49 591.12 492.44 591.14L475.94 594.39C471.34 595.3 467.88 599.73 468.22 604.3C468.56 608.87 472.56 611.84 477.17 610.93L493.67 607.68C493.72 607.67 493.78 607.66 493.83 607.65C498.43 606.74 501.89 602.31 501.55 597.74C501.21 593.16 497.2 590.2 492.6 591.1Z" fill="#F2C94C"></path> <path d="M485.3 609.49L390.85 628.08L388.5 618.97L488.73 599.09L485.3 609.49Z" fill="#3B2AD1"></path> <path d="M388.5 618.97C388.84 614.8 385.31 616.86 387.4 611.8L481.39 593.24C487.77 593.73 489.46 595.98 489.14 599L388.5 618.97Z" fill="#3F5FC2"></path> <path d="M482.9 592.95C482.85 592.96 482.79 592.97 482.74 592.99L479.58 593.61C483.79 593.24 487.32 596.2 487.65 600.57C488.01 605.25 484.56 609.78 479.96 610.68C479.91 610.69 479.85 610.7 479.8 610.71L484.03 609.93C484.08 609.92 484.14 609.91 484.19 609.9C492.71 608.05 491.49 591.09 482.9 592.95Z" fill="#E1EAF4"></path> <path d="M487.67 600.65C487.31 595.97 485.07 592.52 480.47 593.42C480.42 593.43 478.58 593.84 478.53 593.85L475.37 594.47C481.3 593.56 484.33 609.46 475.75 611.54C475.7 611.55 475.64 611.56 475.59 611.57L479.82 610.79C479.87 610.78 479.93 610.77 479.98 610.76C484.58 609.86 488.03 605.33 487.67 600.65Z" fill="#E1EAF4"></path> <path d="M386.78 611.85L369.76 625.45L389.7 628.51C395.22 625.51 391.61 610.54 386.78 611.85Z" fill="#E1EAF4"></path> <path d="M368.58 625.62L377.26 619.46C377.26 619.46 378.39 618.87 378.91 620.93C379.43 622.99 380.46 621.79 380.76 624.16C381.06 626.54 380.52 627.1 380.52 627.1L368.58 625.62Z" fill="#3B2AD1"></path> <path d="M243.54 246.69V263.8" stroke="#3B2AD1" stroke-miterlimit="10" stroke-linecap="round" stroke-linejoin="round"></path> <path d="M263.09 243.036C273.751 236.804 273.642 216.782 262.846 198.316C252.051 179.85 234.657 169.933 223.996 176.165C213.335 182.398 213.444 202.42 224.239 220.886C235.035 239.352 252.429 249.269 263.09 243.036Z" stroke="#3B2AD1" stroke-miterlimit="10" stroke-linecap="round" stroke-linejoin="round"></path> <path d="M224.82 197.92C224.82 197.92 240.59 181.66 262.27 219.05C262.27 219.05 242.57 233.42 224.82 197.92Z" stroke="#3B2AD1" stroke-miterlimit="10" stroke-linecap="round" stroke-linejoin="round"></path> <path d="M245.016 216.645C247.747 215.956 248.864 211.053 247.512 205.692C246.16 200.332 242.85 196.545 240.119 197.234C237.388 197.923 236.27 202.827 237.622 208.187C238.975 213.547 242.285 217.334 245.016 216.645Z" stroke="#3B2AD1" stroke-miterlimit="10" stroke-linecap="round" stroke-linejoin="round"></path> <path d="M215.289 262.335L210.624 263.406L250.185 339.635L254.091 337.404L221.137 279.435L215.289 262.335Z" fill="#CC6F18"></path> <path d="M244.192 274.081C244.192 274.081 241.96 272.106 238.4 272.932C234.851 273.746 226.169 293.634 226.169 293.634C226.169 293.634 240.945 296.468 241.012 295.821C241.078 295.185 244.192 274.081 244.192 274.081Z" fill="#CC3D90"></path> <path d="M254.091 337.405L225.478 316.947L244.192 274.081L272.806 294.538L254.091 337.405Z" fill="#CC3D90"></path> <path d="M220.222 313.612L192.702 301.42L215.289 262.335L239.194 272.865L220.222 313.612Z" fill="#CC3D90"></path> <path d="M250.186 339.635L221.572 319.178L240.298 276.312L268.901 296.769L250.186 339.635Z" fill="#DE49A0"></path> <path d="M250.487 334.995L245.823 335.062L225.144 316.869L241.727 278.888C249.94 283.127 258.422 289.362 267.071 297.014L250.487 334.995Z" fill="#E1E8F0"></path> <path d="M221.572 319.178L191.14 304.744L210.625 263.406L240.298 276.312L221.572 319.178Z" fill="#DE49A0"></path> <path d="M239.54 278.152C232.041 274.805 222.89 270.366 212.444 266.016L211.451 268.124L211.429 268.113L194.622 303.751C205.614 308.38 214.308 313.812 221.684 316.4L222.667 314.292L222.7 314.303L239.54 278.152Z" fill="#E1E8F0"></path> <path d="M262.406 297.081C254.305 289.362 247.173 284.912 240.277 281.264L223.693 319.245C232.398 323.885 239.975 329.061 245.823 335.062L262.406 297.081Z" fill="white"></path> <path d="M235.456 317.862L230.98 314.515L234.194 306.863L238.681 310.21L235.456 317.862Z" fill="#758CEB"></path> <path d="M240.098 321.409L235.656 318.074L237.877 313.065L242.319 316.389L240.098 321.409Z" fill="#4432DB"></path> <path d="M244.673 325.012L240.343 321.52L244.673 311.537L249.003 315.017L244.673 325.012Z" fill="#FEC601"></path> <path d="M239.081 278.91C231.136 275.966 222.755 271.403 213.749 267.555L212.823 269.518L212.8 269.507L197.076 302.848C205.546 308.67 213.983 312.608 222.386 314.683L223.302 312.708L223.335 312.719L239.081 278.91Z" fill="white"></path> <path d="M240.622 290.689L254.962 300.505" stroke="#C9DCF2" stroke-width="1.272" stroke-miterlimit="10" stroke-linecap="round" stroke-linejoin="round"></path> <path d="M238.1 295.653L252.44 305.458" stroke="#C9DCF2" stroke-width="1.272" stroke-miterlimit="10" stroke-linecap="round" stroke-linejoin="round"></path> <path d="M235.588 300.605L249.928 310.421" stroke="#C9DCF2" stroke-width="1.272" stroke-miterlimit="10" stroke-linecap="round" stroke-linejoin="round"></path> <path d="M216.35 274.761L232.554 282.29" stroke="#C9DCF2" stroke-width="1.339" stroke-miterlimit="10" stroke-linecap="round" stroke-linejoin="round"></path> <path d="M213.481 280.985L229.697 288.514" stroke="#C9DCF2" stroke-width="1.339" stroke-miterlimit="10" stroke-linecap="round" stroke-linejoin="round"></path> <path d="M210.624 287.209L226.839 294.738" stroke="#C9DCF2" stroke-width="1.339" stroke-miterlimit="10" stroke-linecap="round" stroke-linejoin="round"></path> <path d="M207.801 293.009L224.016 300.538" stroke="#C9DCF2" stroke-width="1.339" stroke-miterlimit="10" stroke-linecap="round" stroke-linejoin="round"></path> <path d="M204.978 298.81L221.193 306.339" stroke="#C9DCF2" stroke-width="1.339" stroke-miterlimit="10" stroke-linecap="round" stroke-linejoin="round"></path> <path d="M214.273 255.33C214.273 255.33 222.989 261.085 222.275 266.462C221.304 273.835 212.175 277.17 212.175 277.17L209.318 260.338L214.273 255.33Z" fill="#1F309C"></path> <path opacity="0.4" d="M194.858 548.029C215.328 547.667 231.777 539.135 231.597 528.972C231.417 518.81 214.676 510.865 194.206 511.227C173.735 511.589 157.287 520.121 157.467 530.284C157.647 540.447 174.387 548.391 194.858 548.029Z" fill="#A8C4E5"></path> <path d="M165.147 514.235L174.532 513.053C180.815 510.208 183.75 508.067 186.551 509.684L187.344 510.142C190.145 511.759 189.788 514.603 186.551 516.466L172.747 527.431C169.511 529.294 165.158 528.702 162.58 526.449C162.58 526.449 161.04 525.055 162.145 519.188C162.781 515.853 162.569 515.73 165.147 514.235Z" fill="#1F309C"></path> <path d="M174.655 513.622C173.963 519.623 162.96 519.623 162.96 515.049L169.053 376.567L196.227 375.039L174.655 513.622Z" fill="#FFC2B0"></path> <path d="M207.867 527.174L217.152 528.926C223.993 528.145 227.43 527.007 229.595 529.394L230.209 530.075C232.374 532.462 231.168 535.061 227.53 535.841L211.07 542.043C207.431 542.824 203.47 540.939 201.718 538.005C201.718 538.005 200.68 536.209 203.514 530.978C205.133 527.989 204.965 527.81 207.867 527.174Z" fill="#1F309C"></path> <path d="M213.178 527.921C213.546 534.257 203.994 533.019 204.128 529.037C192.778 477.649 204.909 463.259 177.043 394.794L210.801 392.094C218.033 447.476 215.098 491.29 213.178 527.921Z" fill="#FFC2B0"></path> <path d="M214.473 287.443C213.982 289.73 213.156 294.549 211.192 294.582C205.556 294.694 196.729 293.076 194.999 291.269C189.095 285.123 189.319 271.492 193.37 262.602C197.421 253.712 209.752 251.448 214.696 258.386C219.662 265.335 216.682 277.203 214.473 287.443Z" fill="#FFC2B0"></path> <path d="M187.322 309.317L186.396 308.949C183.249 307.699 181.709 304.096 182.959 300.951L190.034 283.227C191.284 280.081 194.889 278.542 198.036 279.791L198.962 280.159C202.109 281.408 203.649 285.011 202.399 288.157L198.102 306.194C196.853 309.328 190.469 310.566 187.322 309.317Z" fill="#FFC2B0"></path> <path d="M184.465 284.187C184.465 284.187 185.391 287.332 189.442 288.883C197.5 291.984 199.241 277.182 207.376 270.456C215.277 263.919 219.54 266.239 217.9 259.234C216.505 253.278 206.606 249.965 198.27 252.252C189.9 254.538 171.888 259.089 184.465 284.187Z" fill="#4432DB"></path> <path d="M204.676 281.766C203.694 283.93 201.138 284.878 198.973 283.897C196.808 282.915 195.859 280.361 196.841 278.197C197.823 276.033 200.379 275.085 202.544 276.066C204.709 277.059 205.658 279.602 204.676 281.766Z" fill="#FFC2B0"></path> <path d="M169.812 365.346C169.366 350.946 164.757 349.038 165.036 330.856C165.024 305.112 166.085 291.247 183.371 296.211C183.371 296.211 198.347 302.145 200.87 303.506C201.149 303.662 201.428 303.807 201.706 303.952C216.873 312.15 221.113 316.512 220.265 328.046C220.366 350.466 205.367 346.595 210.924 366.227C206.215 381.732 175.024 376.444 169.812 365.346Z" fill="#F2C94C"></path> <path d="M200.981 293.645C198.716 290.946 199.418 290.712 199.363 287.298C199.363 287.298 204.318 294.415 207.799 294.493C207.799 294.482 203.146 294.147 200.981 293.645Z" fill="#F09A82"></path> <path d="M251.647 326.852L252.874 327.733C255.128 329.35 258.309 328.826 259.927 326.573L263.253 321.944C264.871 319.69 264.346 316.511 262.092 314.894L260.864 314.013C258.61 312.395 255.43 312.92 253.812 315.173L250.486 319.802C248.868 322.066 249.392 325.234 251.647 326.852Z" fill="#FFC2B0"></path> <path d="M216.527 350.053L205.065 334.415L209.674 358.508C209.674 358.519 214.853 354.247 216.527 350.053Z" fill="#EDA71C"></path> <path d="M198.549 256.713C198.147 262.77 192.913 267.354 186.853 266.964C180.794 266.562 176.207 261.331 176.597 255.274C176.999 249.217 182.233 244.633 188.293 245.023C194.364 245.425 198.95 250.656 198.549 256.713Z" fill="#4432DB"></path> <path d="M180.828 267.499C180.817 267.388 196.742 270.143 200.982 251.649L197.076 251.393C197.076 251.393 196.139 258.609 180.761 264.61L180.828 267.499Z" fill="#1F309C"></path> <path d="M214.25 376.266L218.881 425.836C219.272 430.008 217.431 434.102 213.993 436.489C205.981 442.066 189.464 448.491 166.955 431.246C164.433 429.316 163.038 426.249 163.183 423.081L165.147 380.36C165.136 375.887 168.194 363.695 170.18 360.125C172.234 367.588 205.735 370.198 210.221 363.461C213.681 369.451 213.681 372.25 214.25 376.266Z" fill="#25319C"></path> <path d="M215.79 279.033L217.632 282.681C218.078 283.573 217.553 284.644 216.571 284.833L214.373 285.257L215.79 279.033Z" fill="#FFC2B0"></path> <path d="M214.34 335.463C214.34 335.463 229.227 387.309 259.816 324.521L252.629 319.813C252.629 319.813 237.251 341.118 232.028 337.984C226.805 334.861 222.62 325.558 222.62 325.558L214.34 335.463Z" fill="#FFC2B0"></path> <path d="M199.675 323.238C199.675 323.238 207.219 341.565 218.323 351.804C226.335 359.189 241.066 336.077 232.496 329.116C222.218 320.784 214.049 309.998 208.971 309.038C203.882 308.09 199.675 323.238 199.675 323.238Z" fill="#F2C94C"></path> <path d="M214.429 278.643C214.34 279.245 214.016 279.703 213.704 279.658C213.391 279.613 213.224 279.089 213.313 278.476C213.402 277.873 213.726 277.416 214.038 277.461C214.34 277.505 214.518 278.029 214.429 278.643Z" fill="#1F309C"></path> <path d="M210.479 286.897C210.479 286.897 210.88 288.291 213.146 288.302" stroke="#CC3A4A" stroke-width="0.9472" stroke-miterlimit="10" stroke-linecap="round" stroke-linejoin="round"></path> <path d="M217.531 278.776C217.007 281.052 215.255 282.58 213.625 282.201C211.996 281.822 211.103 279.68 211.628 277.405C212.152 275.129 213.904 273.601 215.534 273.98C217.152 274.359 218.056 276.501 217.531 278.776Z" stroke="#2C1F9C" stroke-width="0.8698" stroke-miterlimit="10"></path> <path d="M211.449 278.185L203.291 277.181" stroke="#2C1F9C" stroke-width="0.8698" stroke-miterlimit="10"></path> <path d="M202.41 277.683C202.41 277.683 218.235 272.106 216.661 263.361C215.088 254.616 208.872 261.498 208.872 261.498C208.872 261.498 213.882 268.213 202.41 277.683Z" fill="#4432DB"></path> <path d="M165.158 380.36C165.158 380.36 167.033 391.782 174.075 394.861C174.075 394.861 167.48 394.66 164.712 390.176L165.158 380.36Z" fill="#1E156B"></path> </g> <defs> <linearGradient id="paint0_linear" x1="569.004" y1="401.806" x2="591.49" y2="362.858" gradientUnits="userSpaceOnUse"> <stop stop-color="#4432DB"></stop> <stop offset="0.381" stop-color="#9165AF"></stop> <stop offset="0.7975" stop-color="#E09A81"></stop> <stop offset="0.9892" stop-color="#FFAF6F"></stop> </linearGradient> <clipPath id="clip0"> <rect width="494.29" height="464.37" fill="white" transform="translate(153 168)"></rect> </clipPath> </defs> </svg> 