<?xml version="1.0" encoding="UTF-8"?> <svg xmlns="http://www.w3.org/2000/svg" width="800" height="800" viewBox="0 0 800 800" fill="none"> <g clip-path="url(#clip0)"> <path opacity="0.19" d="M450.364 644.387L159.526 476.58L165.781 464.464L332.692 365.192L635.751 534.753L450.364 644.387Z" fill="#88BDEB"></path> <path d="M434.982 287.188L472.765 187.311C478.988 170.874 496.268 163.7 510.197 171.751L565.93 203.954C575.966 209.757 581.582 222.08 579.97 234.77L563.424 364.778L434.982 287.188Z" fill="#F2C94C"></path> <path d="M552.495 480.805C554.665 480.486 556.18 478.462 555.845 476.278L537.704 354.129C537.385 351.961 535.358 350.446 533.172 350.781C531.003 351.1 529.487 353.125 529.822 355.309L547.963 477.457C548.282 479.625 550.309 481.124 552.495 480.805Z" fill="#7191CB"></path> <path d="M463.942 408.603L356.912 346.859C346.988 341.136 351.008 328.59 365.831 318.977L404.3 294.011C419.123 284.398 439.37 281.21 449.294 286.933L556.324 348.677C566.248 354.4 562.228 366.946 547.405 376.56L508.936 401.509C494.098 411.138 473.866 414.326 463.942 408.603Z" fill="#E7B10E"></path> <path d="M458.182 423.589L363.565 369.003C353.402 363.136 347.769 351.451 347.769 351.451C343.956 342.715 353.035 336.401 363.214 342.268L462.697 400.792C472.861 406.658 476.706 412.78 475.063 420.066C475.063 420.066 471.074 430.237 458.182 423.589Z" fill="#4C73DB"></path> <path d="M554.553 376.257L479.131 422.393C466.909 429.87 457.48 426.363 458.15 414.598L458.804 403.295C459.474 391.529 470.021 375.795 482.243 368.334L557.665 322.197C569.886 314.72 579.316 318.228 578.646 329.993L577.992 341.296C577.306 353.045 566.759 368.78 554.553 376.257Z" fill="#E7B10E"></path> <path opacity="0.4" d="M350.578 541.082C378.318 541.082 400.806 528.135 400.806 512.163C400.806 496.192 378.318 483.244 350.578 483.244C322.837 483.244 300.35 496.192 300.35 512.163C300.35 528.135 322.837 541.082 350.578 541.082Z" fill="#A8C4E5"></path> <path d="M315.827 502.582L338.436 482.224C341.308 480.343 346.27 476.501 350.849 476.852C352.908 477.011 354.535 478.637 354.79 480.678L355.604 484.615C356.641 490.928 352.78 494.372 348.998 496.843L329.533 509.533C325.735 512.004 319.768 512.578 316.274 510.808L315.284 510.298C311.79 508.529 312.03 505.053 315.827 502.582Z" fill="#2C1F9C"></path> <path d="M353.786 486.656C351.967 491.693 338.484 486.464 340.303 481.427L346.239 465.038L359.721 470.267L353.786 486.656Z" fill="#86ABD9"></path> <path d="M362.72 478.748C355.763 480.885 341.435 476.58 338.148 471.192L375.532 326.613L419.043 349.362L362.72 478.748Z" fill="#515DC8"></path> <path d="M349.684 523.498L372.293 503.14C375.165 501.259 380.128 497.417 384.707 497.768C386.765 497.927 388.392 499.553 388.648 501.594L389.462 505.531C390.499 511.844 386.637 515.288 382.856 517.759L363.39 530.449C359.593 532.92 353.625 533.494 350.131 531.724L349.142 531.214C345.648 529.445 345.887 525.969 349.684 523.498Z" fill="#2C1F9C"></path> <path d="M387.626 507.572C385.807 512.609 372.325 507.38 374.144 502.343L380.079 485.954L393.562 491.183L387.626 507.572Z" fill="#86ABD9"></path> <path d="M396.577 499.664C389.621 501.801 375.293 497.496 372.006 492.108L409.39 347.529L452.9 370.278L396.577 499.664Z" fill="#515DC8"></path> <path d="M446.231 289.563L370.315 348.151C357.917 355.739 348.615 348.214 348.615 335.174L347.163 313.955C347.179 300.914 357.327 284.047 369.724 276.475L446.263 229.653C458.66 222.064 468.792 226.528 468.776 239.553L468.76 252.067C468.776 265.108 458.628 281.975 446.231 289.563Z" fill="#E7B10E"></path> <path d="M422.393 347.513C428.999 322.021 451.592 289.308 428.967 246.934C428.233 198.103 434.344 190.547 465.314 201.308L478.094 204.496C524.876 219.912 521.094 237.927 521.094 237.927C525.243 275.454 511.952 329.434 499.905 355.324C500.575 399.659 420.814 399.675 422.393 347.513Z" fill="#515DC8"></path> <path d="M160.93 478.892L159.653 478.78C157.451 478.589 155.824 476.66 156.015 474.46L169.418 318.976C169.609 316.776 171.54 315.15 173.742 315.341L175.018 315.453C177.22 315.644 178.848 317.573 178.656 319.773L165.254 475.257C165.062 477.457 163.131 479.083 160.93 478.892Z" fill="#92A8D1"></path> <path d="M639.915 539.312C642.484 538.977 644.287 536.634 643.968 534.067L628.73 415.585C628.395 413.019 626.05 411.217 623.481 411.536C620.912 411.871 619.109 414.214 619.428 416.781L634.666 535.263C635.001 537.83 637.346 539.631 639.915 539.312Z" fill="#92A8D1"></path> <path d="M445.928 653.984C443.375 653.761 441.476 651.513 441.699 648.962L459.921 437.522C460.144 434.971 462.394 433.074 464.947 433.297C467.5 433.52 469.398 435.768 469.175 438.319L450.954 649.759C450.73 652.31 448.481 654.207 445.928 653.984Z" fill="#92A8D1"></path> <path d="M460.735 536.204L451.911 530.178L455.15 490.179L465.186 493.16L460.735 536.204Z" fill="#7191CB"></path> <path d="M174.782 366.499L165.959 360.473L169.198 320.474L179.234 323.455L174.782 366.499Z" fill="#7191CB"></path> <path d="M624.629 457.131L633.133 450.658L628.586 414.262L619.156 417.881L624.629 457.131Z" fill="#7191CB"></path> <path d="M184.208 308.215H159.604V322.499H184.208V308.215Z" fill="#92A8D1"></path> <path d="M631.538 399.5H606.935V413.784H631.538V399.5Z" fill="#92A8D1"></path> <path d="M466.621 502.613L162.732 327.314C157.962 324.572 158.568 319.773 164.073 316.585L305.869 234.786C311.374 231.613 319.687 231.263 324.458 234.021L628.331 409.32C633.101 412.062 632.495 416.861 626.99 420.049L485.194 501.848C479.705 505.021 471.376 505.356 466.621 502.613Z" fill="#92A8D1"></path> <path d="M466.621 488.919L162.732 313.62C157.962 310.878 158.568 306.079 164.073 302.891L305.869 221.092C311.374 217.919 319.687 217.568 324.458 220.326L628.331 395.626C633.101 398.368 632.495 403.166 626.99 406.355L485.194 488.154C479.705 491.326 471.376 491.661 466.621 488.919Z" fill="#E9F5FF"></path> <path d="M488.577 209.677C488.577 209.677 480.392 232.315 462.873 227.277C444.939 222.112 457.192 202.296 457.192 202.296L478.732 204.289L488.577 209.677Z" fill="white"></path> <path d="M455.964 208.577C455.964 208.577 461.213 212.611 463.702 212.898C466.191 213.185 488.051 189.255 476.387 166.283C469 151.728 444.077 166.442 444.077 166.442L455.964 208.577Z" fill="#875963"></path> <path d="M472.861 221.379L471.536 222.096C467.085 224.488 461.468 222.814 459.059 218.366L445.529 193.257C443.135 188.809 444.811 183.197 449.262 180.79L450.587 180.073C455.038 177.681 460.655 179.355 463.064 183.803L479.626 206.027C482.019 210.474 477.312 218.988 472.861 221.379Z" fill="#FFC2B0"></path> <path d="M454.688 210.123C454.688 210.123 466.223 206.505 469.989 193.018C469.989 193.018 468.441 212.18 458.485 217.138L454.688 210.123Z" fill="#F09A82"></path> <path d="M471.409 305.409L481.046 252.769L452.565 294.234L471.409 305.409Z" fill="#3E49B3"></path> <path d="M406.183 250.76L389.733 276.315C385.185 283.377 386.956 292.767 393.801 297.661C407.507 307.466 429.462 321.67 440.695 320.985C443.232 320.825 450.364 313.54 450.364 313.54C450.364 313.54 406.853 289.117 408.401 286.725C409.948 284.334 424.548 264.821 424.548 264.821L406.183 250.76Z" fill="#FFC2B0"></path> <path d="M440.312 199.155C425.824 204.894 420.463 224.503 406.183 246.551C403.646 260.293 413.666 263.641 422.011 269.237C425.058 271.277 429.175 270.56 431.376 267.627L456.139 234.674L448.928 214.555L440.312 199.155Z" fill="#515DC8"></path> <path opacity="0.4" d="M561.163 413.449L511.653 384.897C511.366 384.737 511.015 384.737 510.744 384.897L501.825 390.046C501.761 390.062 501.697 390.094 501.633 390.126L433.758 429.28C433.152 429.63 433.152 430.507 433.758 430.858L483.268 459.41C483.556 459.57 483.907 459.57 484.178 459.41L493.097 454.261C493.161 454.245 493.225 454.213 493.289 454.181L561.163 415.028C561.77 414.693 561.77 413.816 561.163 413.449Z" fill="#A8C4E5"></path> <path d="M469.004 466.536L419.494 437.984C418.887 437.633 418.887 436.756 419.494 436.406L487.369 397.252C487.656 397.092 488.007 397.092 488.278 397.252L537.788 425.804C538.394 426.155 531.916 425.82 537.788 427.383L469.913 466.536C469.642 466.712 469.291 466.712 469.004 466.536Z" fill="#C76408"></path> <path d="M421.041 435.337H419.047V437.33H421.041V435.337Z" fill="#C76408"></path> <path d="M538.107 424.242H536.288V426.059H538.107V424.242Z" fill="#DD4078"></path> <path d="M469.004 464.863L419.494 436.31C418.887 435.959 418.887 435.083 419.494 434.732L487.369 395.578C487.656 395.419 488.007 395.419 488.278 395.578L537.788 424.13C537.549 424.545 537.309 425.183 537.788 425.709L469.913 464.863C469.642 465.022 469.291 465.022 469.004 464.863Z" fill="#C76408"></path> <path d="M423.595 415.299V419.221V430.428V434.35L466.707 459.315V455.393V444.186V440.264L423.595 415.299Z" fill="#D8E3F0"></path> <path d="M469.004 444.68L419.494 416.128C418.887 415.777 418.887 414.9 419.494 414.549L487.369 375.395C487.656 375.236 488.007 375.236 488.278 375.395L537.788 403.948C537.102 404.33 536.591 405.191 537.788 405.526L469.913 444.68C469.642 444.839 469.291 444.839 469.004 444.68Z" fill="#C76408"></path> <path d="M421.041 413.545H419.047V415.33H421.041V413.545Z" fill="#C76408"></path> <path d="M538.235 403.326H536.24V404.665H538.235V403.326Z" fill="#DEA749"></path> <path d="M469.004 443.006L419.494 414.454C418.887 414.103 418.887 413.226 419.494 412.875L487.369 373.722C487.656 373.562 488.007 373.562 488.278 373.722L537.788 402.274C538.394 402.625 538.394 403.502 537.788 403.852L469.913 443.006C469.642 443.166 469.291 443.166 469.004 443.006Z" fill="#ED9039"></path> <path d="M469.977 443.054V451.519V458.199V466.664L537.389 427.622C538.075 427.223 538.266 425.932 538.25 425.135L538.091 418.2V413.274L538.25 403.039L469.977 443.054Z" fill="#E68429"></path> <path d="M238.727 216.396L292.975 327.385C292.975 327.385 349.123 275.86 347.559 271.109C345.996 266.375 267.383 182.742 267.383 182.742L238.727 216.396Z" fill="url(#paint0_linear)"></path> <g clip-path="url(#clip1)"> <path opacity="0.4" d="M403.879 374.962L455.759 372.466L477.638 359.391C480.82 357.487 480.788 352.856 477.581 350.997L375.998 292.5L348.347 305.989L403.879 374.962Z" fill="#A8C4E5"></path> <path d="M444.981 349.016L434.299 345.513L433.124 344.265L432.369 342.864L356.964 300.448C356.056 299.939 354.551 299.958 353.624 300.493L324.835 317.115L324.784 316.631L319.354 318.72L319.596 321.032H319.634C319.729 321.261 319.926 321.472 320.237 321.643L398.702 365.785C398.804 365.842 389.475 373.593 389.519 373.746C391.158 379.981 394.53 382.821 399.655 379.739L441.152 355.531C443.686 354.169 445 352.328 444.975 349.341V349.016H444.981Z" fill="#99A8E0"></path> <path d="M397.051 372.319L311.555 320.809C310.507 320.223 310.533 319.236 311.6 318.618L364.274 302.257L444.213 347.226C445.26 347.812 445.235 348.799 444.168 349.417L400.385 374.472C399.312 375.096 398.099 372.905 397.051 372.319Z" fill="white"></path> <path d="M401.561 339.036L379.694 326.732C379.44 326.592 379.447 326.35 379.707 326.203L388.998 320.841C389.259 320.695 389.678 320.688 389.932 320.828L411.798 333.133C412.052 333.273 412.046 333.515 411.785 333.661L402.494 339.024C402.234 339.17 401.815 339.177 401.561 339.036Z" fill="#A7C1F5"></path> <path d="M426.329 361.62L442.479 352.188" stroke="#342B8C" stroke-width="1.1473" stroke-miterlimit="10" stroke-linecap="round" stroke-linejoin="round"></path> <path d="M412.941 369.504L408.629 372.039" stroke="#342B8C" stroke-width="1.1473" stroke-miterlimit="10" stroke-linecap="round" stroke-linejoin="round"></path> <path d="M407.549 372.765L403.236 375.3" stroke="#342B8C" stroke-width="1.1473" stroke-miterlimit="10" stroke-linecap="round" stroke-linejoin="round"></path> <path d="M387.448 320.402C386.87 318.179 384.832 315.51 382.907 314.441L294.96 265.459C294.166 265.013 292.934 264.917 292.833 265.064L288.457 267.541L289.657 269.133L304.43 318.899C305.007 321.121 307.046 323.79 308.97 324.86L393.723 371.867L396.606 374.803L396.968 376.682L401.458 373.829L387.448 320.402Z" fill="white"></path> <path d="M392.097 380.338L303.331 329.082C301.312 327.91 302.715 322.911 305.052 321.561L311.168 322.223C313.499 320.873 309.796 323 311.816 324.172L392.999 369.708C395.019 370.88 393.501 370.874 391.164 372.224L396.791 377.351C397.813 381.478 394.117 381.509 392.097 380.338Z" fill="#1A3EA1"></path> <path d="M395.927 377.586L305.478 325.783C302.804 324.255 300.88 321.688 300.143 318.695L288.153 269.834C287.575 267.611 288.667 266.675 290.598 267.745L380.228 317.459C382.158 318.529 384.191 321.198 384.769 323.42L398.366 375.504C398.95 377.727 397.851 378.656 395.927 377.586Z" fill="#426CDB"></path> <path d="M345.66 326.165C346.384 328.929 343.914 329.483 340.148 327.394C336.382 325.305 332.743 321.369 332.019 318.599C331.295 315.835 333.765 315.281 337.531 317.37C341.297 319.465 344.936 323.401 345.66 326.165Z" stroke="white" stroke-width="1.3676" stroke-miterlimit="10"></path> <path d="M294.961 265.669L381.238 313.46C381.238 313.46 386.103 315.6 387.849 321.828C393.546 342.183 388.624 324.319 401.268 373.097" stroke="#342B8C" stroke-width="1.1473" stroke-miterlimit="10" stroke-linecap="round" stroke-linejoin="round"></path> <path d="M290.668 269.528L376.945 317.319C376.945 317.319 381.81 319.459 383.556 325.688C389.253 346.042 384.331 328.178 396.975 376.956" stroke="#4B7BFA" stroke-miterlimit="10" stroke-linecap="round" stroke-linejoin="round"></path> <path d="M314.401 332.668L306.018 327.777L306.049 322.65L314.433 327.541L314.401 332.668Z" fill="#4B7BFA"></path> <path d="M386.344 374.517L377.961 369.625L377.993 364.492L386.376 369.383L386.344 374.517Z" fill="#4B7BFA"></path> </g> <path d="M404.508 334.042L469.861 327.027L507.995 270.72L484.19 254.666L458.294 307.052L403.104 319.088L404.508 334.042Z" fill="#FFC2B0"></path> <path d="M481.398 250.059L459.22 297.104C458.278 301.647 495.79 318.195 497.768 311.819C498.119 310.687 526.36 255.527 518.766 232.698C512.607 214.157 490.652 227.644 481.398 250.059Z" fill="#515DC8"></path> <path d="M405.481 334.52H403.981C398.811 334.52 394.583 330.295 394.583 325.13V324.301C394.583 319.136 398.811 314.911 403.981 314.911H405.481C410.65 314.911 414.878 319.136 414.878 324.301V325.13C414.862 330.295 410.634 334.52 405.481 334.52Z" fill="#FFC2B0"></path> <path opacity="0.4" d="M267.262 310.695C268.904 299.555 255.056 288.29 236.33 285.534C217.604 282.779 201.093 289.576 199.451 300.717C197.809 311.857 211.658 323.122 230.383 325.878C249.109 328.633 265.62 321.836 267.262 310.695Z" fill="#A8C4E5"></path> <path d="M223.169 169.367C218.222 162.13 207.101 161.03 202.825 169.798C197.257 181.18 211.33 193.838 217.472 202.001C218.733 203.675 221.573 202.033 220.312 200.343C217.185 196.182 213.946 192.085 210.851 187.892C208.713 185.006 206.224 181.914 205.346 178.359C202.969 168.746 214.265 162.13 220.344 171.025C221.509 172.747 224.365 171.121 223.169 169.367Z" fill="#B6D1ED"></path> <path d="M240.211 326.468C257.828 325.957 271.863 317.053 271.559 306.58C271.255 296.106 256.727 288.03 239.11 288.541C221.493 289.051 207.458 297.956 207.763 308.429C208.067 318.902 222.595 326.978 240.211 326.468Z" fill="#7794C7"></path> <path d="M239.923 316.457C257.54 315.946 271.575 307.042 271.271 296.568C270.967 286.095 256.439 278.019 238.822 278.529C221.205 279.04 207.17 287.944 207.474 298.418C207.779 308.891 222.306 316.967 239.923 316.457Z" fill="#A2BFE8"></path> <path d="M245.459 282.397L249.352 292.138C249.703 293.03 249.368 294.035 248.554 294.545L236.604 301.91C235.311 302.707 233.636 301.798 233.604 300.268L233.365 288.28C233.349 287.578 233.7 286.924 234.306 286.558L242.603 281.44C243.64 280.803 245.012 281.249 245.459 282.397Z" fill="#C4DDFF"></path> <path d="M242.299 279.033L238.023 276.817L228.083 283.05L226.535 296.41C226.455 297.127 226.727 297.845 227.285 298.307L229.104 299.837C230.875 301.336 233.603 300.045 233.556 297.717L233.348 287.131L242.411 281.552C243.368 280.978 243.32 279.543 242.299 279.033Z" fill="#C4DDFF"></path> <path d="M235.518 282.237L204.852 230.68L234.848 183.667L239.028 186.345L210.691 230.76L239.794 279.702L235.518 282.237Z" fill="#2C1F9C"></path> <path d="M217.632 199.322C221.015 205.173 218.653 210.705 214.058 215.057C208.857 219.983 202.092 221.051 196.587 225.053C190.508 229.485 196.555 234.825 201.054 237.153C202.921 238.125 204.597 235.288 202.714 234.315C199.858 233.454 198.31 231.366 198.039 228.05C199.076 227.556 200.113 227.093 201.166 226.663C204.086 225.356 206.974 224.064 209.702 222.375C213.133 220.254 216.436 217.751 218.941 214.547C222.993 209.35 223.775 203.403 220.456 197.664C219.403 195.847 216.563 197.489 217.632 199.322Z" fill="#B6D1ED"></path> <path d="M229.471 286.095L196.507 231.669L227.157 179.889L231.449 182.423L202.315 231.637L233.715 283.512L229.471 286.095Z" fill="#2C1F9C"></path> <path d="M214.792 180.255L233.332 196.724C238.327 201.156 246.049 200.709 250.485 195.719L250.931 195.209C255.367 190.219 254.92 182.503 249.926 178.071L231.386 161.603C226.392 157.171 218.669 157.618 214.234 162.608L213.787 163.118C209.351 168.108 209.798 175.808 214.792 180.255Z" fill="#7794C7"></path> <path d="M226.392 164.537L237.497 173.751C238.055 174.214 238.885 174.134 239.332 173.576C239.794 173.018 239.715 172.189 239.156 171.742L228.051 162.528C227.493 162.066 226.663 162.145 226.216 162.703C225.753 163.245 225.833 164.074 226.392 164.537Z" fill="#B5CFEA"></path> <path d="M219.228 168.06L230.333 177.274C230.891 177.736 231.721 177.657 232.168 177.099C232.63 176.541 232.55 175.712 231.992 175.265L220.887 166.051C220.329 165.589 219.499 165.668 219.052 166.226C218.589 166.784 218.669 167.597 219.228 168.06Z" fill="#B5CFEA"></path> <path d="M215.271 175.377L226.376 184.592C226.934 185.054 227.764 184.974 228.211 184.416C228.673 183.858 228.594 183.029 228.035 182.583L216.946 173.368C216.388 172.906 215.558 172.986 215.111 173.544C214.648 174.086 214.728 174.915 215.271 175.377Z" fill="#B5CFEA"></path> <path d="M252.798 200.741C241.15 212.873 234.609 225.467 238.167 228.879C241.725 232.291 254.042 225.212 265.69 213.08C277.337 200.948 283.879 188.354 280.321 184.943C276.763 181.531 264.445 188.609 252.798 200.741Z" fill="#9DBEE3"></path> <path d="M235.598 226.073L229.774 216.699C222.594 205.141 224.589 190.14 234.529 180.846C243.64 172.333 257.218 170.722 268.068 176.86L278.088 182.52L235.598 226.073Z" fill="#A2BFE8"></path> <path d="M267.812 186.728L260.807 182.758C254.042 178.932 245.777 179.426 239.555 183.778C240.209 182.918 240.943 182.105 241.757 181.355C248.123 175.409 257.632 174.277 265.211 178.565L272.216 182.535L267.812 186.728Z" fill="#B6D1ED"></path> <path d="M236.827 179.235C237.609 178.502 238.422 177.848 239.268 177.227C231.099 186.569 229.838 200.263 236.508 210.992L242.156 220.079L237.896 224.447L232.072 215.073C224.892 203.531 226.87 188.514 236.827 179.235Z" fill="#7794C7"></path> <path d="M263.447 210.675C275.088 198.542 281.642 185.944 278.086 182.538C274.53 179.133 262.211 186.208 250.57 198.342C238.929 210.475 232.375 223.073 235.931 226.478C239.487 229.884 251.806 222.809 263.447 210.675Z" fill="#2C1F9C"></path> <path d="M267.174 198.94C266.265 203.977 263.217 211.103 253.309 212.825C249.017 213.574 245.586 209.286 247.373 205.316C249.751 200.024 255.112 194.476 260.281 192.818C264.127 191.59 267.892 194.97 267.174 198.94Z" fill="white"></path> <path d="M250.564 198.334C262.212 186.202 274.529 179.124 278.087 182.535C278.758 183.173 279.061 184.13 279.061 185.357C273.763 185.628 263.855 192.148 254.393 202.001C244.932 211.869 238.837 222.04 238.789 227.333C237.576 227.397 236.603 227.125 235.933 226.488C232.375 223.076 238.933 210.466 250.564 198.334Z" fill="#E9F5FF"></path> <path d="M209.638 227.364L198.597 232.673C197.289 233.311 196.794 234.937 197.544 236.18L202.57 244.518C203.033 245.283 203.99 245.554 204.788 245.156L216.037 239.401C216.978 238.922 217.313 237.759 216.771 236.85L211.378 227.891C211.011 227.285 210.261 227.062 209.638 227.364Z" fill="#C4DDFF"></path> <path d="M199.283 232.338L197.991 233.056C197.034 233.582 196.714 234.809 197.273 235.75L202.506 244.423C203.001 245.236 204.022 245.523 204.868 245.092L206.974 244.008L199.283 232.338Z" fill="#A2BFE8"></path> <path d="M459.22 198.709C457.624 212.34 449.04 216.214 438.142 211.256C429.909 207.509 423.527 186.37 425.107 172.755C426.702 159.125 435.095 153.944 444.7 161.102C454.321 168.244 460.815 185.079 459.22 198.709Z" fill="#FFC2B0"></path> <path d="M470.34 189.223C468.744 202.854 451.13 219.226 441.524 212.084C431.919 204.942 431.776 181.826 433.371 168.196C434.967 154.565 444.045 149.32 453.651 156.462C463.256 163.604 471.936 175.593 470.34 189.223Z" fill="#FFC2B0"></path> <path d="M452.949 160.289C452.949 160.289 453.443 180.36 464.517 188.363C467.197 190.292 472.367 185.381 471.633 195.297C471.633 195.297 493.093 173.234 470.851 153.912C451.242 136.87 432.701 158.615 432.701 158.615L452.949 160.289Z" fill="#875963"></path> <path d="M426.127 189.925C426.127 189.925 425.967 178.765 437.567 170.985L425.935 167.622C425.92 167.622 416.25 172.659 426.127 189.925Z" fill="#875963"></path> <path d="M463.99 177.729C458.23 173.122 452.039 163.046 440.344 171.097C438.557 172.325 427.659 184.552 425.505 184.664C415.373 185.206 416.761 174.859 416.761 174.859C426.175 165.852 416.921 162.456 424.356 158.296L443.694 147.455C454.624 141.253 468.537 147.917 472.702 155.33L473.595 156.494C477.744 163.923 471.409 173.568 463.99 177.729Z" fill="#875963"></path> <path d="M471.521 187.693C471.138 191.009 468.138 193.384 464.819 192.986C461.501 192.603 459.123 189.606 459.522 186.29C459.905 182.974 462.905 180.599 466.224 180.997C469.526 181.38 471.904 184.377 471.521 187.693Z" fill="#FFC2B0"></path> <path d="M446.869 193.4C446.996 194.532 446.629 195.505 446.039 195.568C445.449 195.632 444.858 194.771 444.715 193.639C444.571 192.508 444.954 191.535 445.544 191.471C446.151 191.392 446.741 192.268 446.869 193.4Z" fill="#2C1F9C"></path> <path d="M433.753 192.173C433.945 193.305 433.642 194.293 433.051 194.389C432.461 194.484 431.839 193.671 431.631 192.539C431.44 191.407 431.743 190.419 432.333 190.323C432.924 190.228 433.562 191.057 433.753 192.173Z" fill="#2C1F9C"></path> <path d="M437.216 193.034C437.216 193.034 437.232 198.613 437.216 199.634C437.2 200.686 439.529 201.515 440.311 199.171" stroke="#F09A82" stroke-width="1.0709" stroke-miterlimit="10" stroke-linecap="round" stroke-linejoin="round"></path> <path d="M444.428 206.313C444.428 206.313 448.991 205.851 449.135 202.296" stroke="#CC3A4A" stroke-width="1.0522" stroke-miterlimit="10" stroke-linecap="round" stroke-linejoin="round"></path> <path opacity="0.44" d="M545.891 361.088C545.922 355.453 538.024 350.842 528.252 350.79C518.479 350.737 510.532 355.262 510.502 360.897C510.471 366.532 518.368 371.143 528.141 371.195C537.913 371.248 545.86 366.723 545.891 361.088Z" fill="#4A79DB"></path> <path d="M532.262 366.834C525.369 370.803 514.168 370.787 507.228 366.786C500.287 362.784 500.255 356.328 507.148 352.342C514.041 348.373 525.241 348.389 532.182 352.39C539.123 356.392 539.155 362.864 532.262 366.834Z" fill="#4A65DB"></path> <path d="M537.415 331.219H502.01V359.596H537.415V331.219Z" fill="#4A65DB"></path> <path d="M526.98 331.06V359.437C527.012 362.067 525.289 364.682 521.843 366.674C519.769 367.87 517.295 368.699 514.679 369.177C520.758 370.277 527.635 369.448 532.421 366.674C535.884 364.682 537.591 362.051 537.559 359.437L537.399 331.41L526.98 331.06Z" fill="#4432DB"></path> <path d="M532.262 338.457C525.369 342.426 514.168 342.41 507.228 338.409C500.287 334.407 500.255 327.951 507.148 323.965C514.041 319.996 525.241 320.012 532.182 324.013C539.123 328.015 539.155 334.487 532.262 338.457Z" fill="#BFCCFF"></path> <path d="M530.172 337.038C524.475 340.322 515.221 340.306 509.477 337.006C503.749 333.706 503.717 328.35 509.413 325.065C515.109 321.781 524.364 321.797 530.108 325.097C535.836 328.413 535.868 333.754 530.172 337.038Z" fill="#1F309C"></path> <path d="M530.108 330.246C524.38 326.946 515.109 326.93 509.413 330.214C507.722 331.187 506.541 332.351 505.871 333.578C506.557 334.822 507.754 336.017 509.477 337.006C515.205 340.306 524.475 340.322 530.171 337.038C531.863 336.065 533.043 334.901 533.714 333.674C533.027 332.414 531.831 331.235 530.108 330.246Z" fill="#4066DB"></path> <path d="M511.584 337.756C509.797 336.974 508.504 335.954 507.69 334.806C508.01 334.057 508.488 333.308 509.142 332.574C513.977 331.203 519.561 331.283 523.662 333.084C525.449 333.866 526.741 334.886 527.555 336.034C527.938 336.544 528.209 337.054 528.353 337.548C527.523 337.851 526.757 338.106 526.103 338.266C521.269 339.637 515.684 339.541 511.584 337.756Z" fill="#758CEB"></path> <path d="M530.715 344.26C532.725 345.312 535.757 346.237 536.459 348.676C537.033 350.716 536.618 353.618 536.618 355.722C536.618 356.774 536.506 357.89 536.586 358.927C536.57 359.325 536.57 359.724 536.554 360.122C537.304 361.047 537.32 361.318 536.586 360.919C535.725 361.031 533.634 359.516 532.853 359.102C530.268 357.763 527.97 361.669 530.555 363.024C532.454 364.012 535.15 365.925 537.4 365.67C540.607 365.303 541.022 362.099 541.102 359.516C541.213 355.563 541.74 350.828 540.846 346.954C540.017 343.367 535.916 341.868 532.996 340.338C530.411 338.983 528.13 342.889 530.715 344.26Z" fill="#1F309C"></path> <path d="M517.12 357.396H513.45C511.663 357.396 510.195 355.929 510.195 354.144V352.645C510.195 350.86 511.663 349.393 513.45 349.393H517.12C518.907 349.393 520.375 350.86 520.375 352.645V354.144C520.391 355.929 518.923 357.396 517.12 357.396Z" fill="#FFC331"></path> <path d="M514.934 351.816C514.934 351.816 514.663 339.493 519.082 339.206" stroke="white" stroke-width="0.8667" stroke-miterlimit="10" stroke-linecap="round" stroke-linejoin="round"></path> <path d="M434.041 188.968L430.674 188.633C430.1 188.569 429.621 188.043 429.621 187.454C429.621 186.864 430.1 186.433 430.674 186.497L434.041 186.832C434.615 186.896 435.094 187.422 435.094 188.011C435.094 188.585 434.615 189.032 434.041 188.968Z" fill="#875963"></path> <path d="M447.492 190.212L444.125 189.877C443.551 189.813 443.072 189.287 443.072 188.697C443.072 188.107 443.551 187.677 444.125 187.741L447.492 188.075C448.066 188.139 448.545 188.665 448.545 189.255C448.529 189.829 448.066 190.259 447.492 190.212Z" fill="#875963"></path> </g> <defs> <linearGradient id="paint0_linear" x1="260.796" y1="234.403" x2="335.202" y2="313.82" gradientUnits="userSpaceOnUse"> <stop stop-color="white"></stop> <stop offset="0.0137" stop-color="#FEFEFF"></stop> <stop offset="0.1733" stop-color="#F2F9FF"></stop> <stop offset="0.3961" stop-color="#EBF6FF"></stop> <stop offset="1" stop-color="#E9F5FF"></stop> </linearGradient> <clipPath id="clip0"> <rect width="488" height="509" fill="white" transform="translate(156 145)"></rect> </clipPath> <clipPath id="clip1"> <rect width="192" height="116" fill="white" transform="translate(288 265)"></rect> </clipPath> </defs> </svg> 