<?xml version="1.0" encoding="UTF-8"?> <svg xmlns="http://www.w3.org/2000/svg" width="300" height="300" viewBox="0 0 300 300" fill="none"> <g clip-path="url(#clip0)"> <path d="M167.397 65.7894L188.033 63.9868L188.541 73.0852L185.305 114.998L175.754 115.827L167.904 74.8878L167.397 65.7894Z" fill="white"></path> <path d="M175.754 116.485C175.445 116.485 175.168 116.261 175.108 115.952L167.259 75.0128C167.252 74.9865 167.252 74.9536 167.245 74.9272L166.738 65.8289C166.718 65.4736 166.982 65.171 167.338 65.1381L187.974 63.3289C188.152 63.3092 188.33 63.3684 188.462 63.4868C188.593 63.6052 188.679 63.7697 188.686 63.9473L189.193 73.0457C189.193 73.072 189.193 73.1049 189.193 73.1312L185.964 115.044C185.937 115.367 185.687 115.623 185.364 115.65L175.814 116.485C175.794 116.485 175.774 116.485 175.754 116.485ZM168.564 74.8088L176.295 115.123L184.698 114.393L187.882 73.0852L187.414 64.7105L168.096 66.4012L168.564 74.8088Z" fill="black"></path> <path d="M167.397 65.7894L188.033 63.9868L172.966 63L152.33 64.8026L152.838 73.901L160.687 114.84L175.754 115.827L167.905 74.8878L167.397 65.7894Z" fill="black"></path> <path d="M172.432 140.642L171.424 122.445L190.334 120.794L191.349 138.991L172.432 140.642Z" fill="white"></path> <path d="M172.432 141.3C172.274 141.3 172.123 141.241 171.997 141.142C171.866 141.024 171.78 140.859 171.773 140.682L170.758 122.485C170.739 122.13 171.002 121.827 171.358 121.794L190.268 120.143C190.446 120.13 190.624 120.182 190.755 120.301C190.887 120.419 190.973 120.584 190.979 120.761L191.994 138.958C192.014 139.313 191.751 139.616 191.395 139.649L172.479 141.3C172.472 141.3 172.452 141.3 172.432 141.3ZM172.116 123.044L173.059 139.925L190.656 138.386L189.714 121.505L172.116 123.044Z" fill="black"></path> <path d="M190.333 120.794L175.266 119.807L156.35 121.459L157.365 139.655L172.432 140.642L171.424 122.445L190.333 120.794Z" fill="black"></path> <path d="M124.431 128.11C124.075 128.11 123.725 128.096 123.376 128.077L108.309 127.09C107.947 127.064 107.67 126.754 107.696 126.393C107.722 126.031 108.032 125.754 108.395 125.781H108.408C109.159 125.827 109.93 125.82 110.695 125.754C110.728 125.748 110.761 125.754 110.794 125.754L125.861 126.741C126.203 126.761 126.474 127.044 126.474 127.392C126.474 127.741 126.217 128.024 125.874 128.057C125.393 128.09 124.912 128.11 124.431 128.11Z" fill="black"></path> <path d="M123.416 127.426L108.349 126.439C109.133 126.492 109.93 126.485 110.754 126.413L125.821 127.399C125.004 127.465 124.2 127.472 123.416 127.426Z" fill="#949494"></path> <path d="M124.431 128.11C124.075 128.11 123.725 128.096 123.376 128.077L108.309 127.09C107.947 127.064 107.67 126.754 107.696 126.393C107.722 126.031 108.032 125.754 108.395 125.781H108.408C109.159 125.827 109.93 125.82 110.695 125.754C110.728 125.748 110.761 125.754 110.794 125.754L125.861 126.741C126.203 126.761 126.474 127.044 126.474 127.392C126.474 127.741 126.217 128.024 125.874 128.057C125.393 128.09 124.912 128.11 124.431 128.11Z" fill="black"></path> <path d="M141.692 105.676C141.139 95.7486 134.772 87.5054 125.821 86.9199L110.754 85.9331C119.705 86.5186 126.072 94.7618 126.625 104.689C126.856 108.84 126.111 112.82 124.549 116.215C123.739 117.978 122.704 119.583 121.465 120.978C120.067 122.55 118.42 123.846 116.548 124.787C114.801 125.662 112.864 126.228 110.754 126.412L125.821 127.399C127.93 127.215 129.868 126.649 131.615 125.774C133.487 124.833 135.141 123.537 136.532 121.965C137.764 120.577 138.799 118.972 139.616 117.202C141.178 113.807 141.923 109.834 141.692 105.676Z" fill="black"></path> <path d="M125.821 128.05C125.808 128.05 125.795 128.05 125.775 128.05L110.708 127.063C110.365 127.044 110.095 126.761 110.095 126.412C110.095 126.063 110.352 125.78 110.695 125.748C112.666 125.577 114.538 125.05 116.251 124.195C118.018 123.313 119.606 122.083 120.97 120.537C122.15 119.208 123.152 117.656 123.949 115.939C125.492 112.59 126.19 108.715 125.966 104.722C125.413 94.7617 119 87.1304 110.715 86.5909H110.708C110.346 86.5646 110.069 86.2554 110.095 85.8936C110.122 85.5318 110.431 85.262 110.794 85.2818L125.861 86.2686C134.825 86.8541 141.758 95.0051 142.351 105.643C142.589 109.847 141.844 113.939 140.216 117.485C139.372 119.32 138.298 120.978 137.032 122.406C135.55 124.077 133.829 125.405 131.918 126.366C130.053 127.3 128.023 127.872 125.887 128.057C125.861 128.05 125.841 128.05 125.821 128.05ZM115.309 126.044L125.815 126.734C127.766 126.557 129.618 126.037 131.325 125.182C133.091 124.3 134.68 123.07 136.044 121.524C137.224 120.189 138.225 118.643 139.023 116.925C140.565 113.577 141.264 109.702 141.04 105.709C140.486 95.742 134.067 88.1172 125.782 87.5778L116.963 86.9988C122.776 90.0119 126.836 96.6235 127.284 104.65C127.522 108.853 126.777 112.945 125.149 116.491C124.299 118.327 123.231 119.985 121.959 121.412C120.483 123.083 118.762 124.412 116.844 125.373C116.343 125.623 115.829 125.846 115.309 126.044Z" fill="black"></path> <path d="M122.526 68.8614C122.513 68.8614 122.499 68.8614 122.48 68.8614L107.413 67.8746C107.07 67.8549 106.8 67.572 106.8 67.2233C106.8 66.8747 107.057 66.5918 107.4 66.5589C109.265 66.3944 111.143 66.3747 112.969 66.4931L128.036 67.4799C128.398 67.5062 128.675 67.8154 128.649 68.1773C128.622 68.5391 128.313 68.8088 127.95 68.7891H127.937C126.184 68.6772 124.384 68.697 122.585 68.8549C122.565 68.8614 122.546 68.8614 122.526 68.8614Z" fill="black"></path> <path d="M122.526 68.2037L107.459 67.2168C109.317 67.0524 111.143 67.0326 112.929 67.1511L127.996 68.1379C126.21 68.0194 124.384 68.0392 122.526 68.2037Z" fill="#949494"></path> <path d="M122.526 68.8614C122.513 68.8614 122.499 68.8614 122.48 68.8614L107.413 67.8746C107.07 67.8549 106.8 67.572 106.8 67.2233C106.8 66.8747 107.057 66.5918 107.4 66.5589C109.265 66.3944 111.143 66.3747 112.969 66.4931L128.036 67.4799C128.398 67.5062 128.675 67.8154 128.649 68.1773C128.622 68.5391 128.313 68.8088 127.95 68.7891H127.937C126.184 68.6772 124.384 68.697 122.585 68.8549C122.565 68.8614 122.546 68.8614 122.526 68.8614Z" fill="black"></path> <path d="M122.526 68.2037C143.162 66.4011 159.402 82.3019 160.608 104.025C161.808 125.544 147.301 144.339 126.678 146.142C106.042 147.945 89.8018 132.044 88.5956 110.314C87.3895 88.8017 101.896 70.0063 122.526 68.2037ZM125.821 127.393C136.044 126.498 142.312 116.702 141.699 105.676C141.099 94.8673 133.599 86.0584 123.383 86.9531C113.259 87.8347 106.991 97.637 107.604 108.656C108.197 119.472 115.698 128.281 125.821 127.393Z" fill="#FFFDFD"></path> <path d="M123.554 146.938C115.236 146.938 107.373 144.056 101.132 138.662C93.2554 131.846 88.5626 121.794 87.9233 110.354C86.6842 88.1503 101.857 69.3483 122.46 67.5457C131.938 66.7102 141.027 69.6114 148.053 75.6836C155.929 82.4992 160.622 92.5449 161.254 103.985C162.493 126.189 147.321 144.997 126.718 146.793C125.67 146.892 124.609 146.938 123.554 146.938ZM122.579 68.8549C102.694 70.5916 88.0485 88.7884 89.2481 110.275C89.8676 121.353 94.3956 131.083 102.002 137.662C108.757 143.504 117.497 146.28 126.619 145.484C146.504 143.747 161.149 125.55 159.949 104.058C159.33 92.9791 154.802 83.2557 147.196 76.677C140.447 70.8416 131.707 68.0588 122.579 68.8549ZM124.417 128.116C120.588 128.116 117.022 126.774 114.037 124.189C109.878 120.59 107.294 114.945 106.945 108.689C106.279 96.7947 113.325 87.1701 123.323 86.2951C127.759 85.9069 131.892 87.249 135.279 90.1765C139.432 93.7685 142.009 99.3999 142.358 105.637C143.024 117.531 135.938 127.169 125.881 128.044C125.386 128.09 124.899 128.116 124.417 128.116ZM124.8 87.545C124.352 87.545 123.897 87.5648 123.435 87.6043C114.162 88.4134 107.637 97.446 108.256 108.617C108.586 114.511 111.005 119.827 114.9 123.195C117.991 125.866 121.742 127.09 125.769 126.741C135.095 125.925 141.666 116.886 141.04 105.716C140.71 99.8341 138.298 94.5317 134.416 91.1765C131.654 88.7884 128.352 87.545 124.8 87.545Z" fill="black"></path> <path d="M88.5889 110.314C88.1869 103.038 89.571 96.0777 92.3919 89.9726C94.0331 86.407 96.1685 83.1373 98.7061 80.2756C101.804 76.7889 105.508 73.8942 109.7 71.8088C113.595 69.8614 117.906 68.6049 122.526 68.2036L107.459 67.2168C102.839 67.6181 98.5281 68.8746 94.6328 70.8219C90.4476 72.914 86.7369 75.802 83.6391 79.2888C81.095 82.1505 78.9661 85.4202 77.325 88.9858C74.5107 95.0909 73.12 102.051 73.522 109.327C74.6227 129.096 88.1671 144.043 106.141 145.221L121.208 146.208C103.234 145.03 89.6896 130.083 88.5889 110.314Z" fill="black"></path> <path d="M121.208 146.865C121.194 146.865 121.181 146.865 121.161 146.865L106.094 145.879C97.2362 145.3 89.0371 141.326 83.0129 134.688C77.0086 128.077 73.4033 119.083 72.8629 109.367C72.4608 102.196 73.7988 95.0513 76.7252 88.716C78.3993 85.0911 80.5545 81.7754 83.1448 78.8545C86.3546 75.2362 90.118 72.3415 94.3362 70.2298C98.4094 68.1969 102.806 66.9601 107.399 66.5588C107.432 66.5588 107.465 66.5588 107.498 66.5588L122.565 67.5456C122.908 67.5654 123.178 67.8483 123.178 68.1969C123.178 68.5456 122.921 68.8285 122.578 68.8614C118.149 69.2495 113.918 70.4403 109.99 72.4008C105.923 74.4336 102.291 77.2295 99.1937 80.7163C96.6892 83.5385 94.5998 86.749 92.9785 90.2554C90.1444 96.4 88.8525 103.327 89.2348 110.288C89.7621 119.702 93.2421 128.412 99.0487 134.8C104.842 141.181 112.718 144.997 121.234 145.556H121.24C121.603 145.583 121.88 145.892 121.853 146.254C121.84 146.602 121.55 146.865 121.208 146.865ZM107.465 67.8746C103.056 68.2627 98.8378 69.4535 94.9294 71.4074C90.8628 73.4402 87.2312 76.2362 84.1334 79.7229C81.6288 82.5452 79.5395 85.7556 77.9247 89.262C75.0906 95.4066 73.7988 102.334 74.1811 109.294C74.7083 118.708 78.1884 127.419 83.995 133.807C89.7884 140.188 97.6712 144.01 106.187 144.563L111.888 144.938C106.668 143.063 101.936 139.912 98.0865 135.675C92.0821 129.063 88.4768 120.07 87.9364 110.353C87.5343 103.183 88.8723 96.0381 91.7987 89.7028C93.4728 86.0779 95.6346 82.7623 98.2249 79.8413C101.435 76.2296 105.198 73.3284 109.416 71.2166C111.782 70.0324 114.261 69.118 116.825 68.4864L107.465 67.8746Z" fill="black"></path> <path d="M38.4976 92.0977C43.4342 92.42 47.4679 94.4726 51.574 97.8014L66.6409 98.7882C62.5348 95.4528 58.5011 93.4068 53.5645 93.0845L38.4976 92.0977Z" fill="black"></path> <path d="M62.8118 131.445C62.9041 131.379 62.9898 131.32 63.082 131.254C63.3984 131.024 63.7082 130.787 64.0048 130.531L63.4973 121.432L50.1967 120.564L49.4651 107.387L80.2251 104.703L65.1582 103.716L34.3982 106.4L35.2418 121.597L48.5358 122.465L48.9313 129.544C48.6347 129.8 48.3249 130.037 48.0085 130.268C47.9228 130.333 47.8306 130.393 47.7383 130.458C47.4812 130.636 47.2176 130.807 46.954 130.978C46.8749 131.024 46.8024 131.077 46.7233 131.123C46.3806 131.327 46.0312 131.511 45.6687 131.689C45.6028 131.721 45.5369 131.748 45.471 131.781C45.1546 131.932 44.8251 132.077 44.4889 132.208C44.4164 132.235 44.3505 132.268 44.278 132.294C43.8958 132.439 43.5069 132.577 43.1048 132.695C43.0192 132.721 42.9269 132.748 42.8346 132.774C42.4589 132.886 42.0767 132.985 41.6812 133.07C41.6285 133.083 41.5757 133.096 41.5164 133.11C41.0814 133.202 40.6332 133.287 40.1719 133.36C40.0664 133.379 39.9544 133.392 39.8489 133.406C39.3744 133.471 38.8932 133.531 38.3923 133.577C37.9112 133.616 37.43 133.642 36.9621 133.649C36.4875 133.656 36.0262 133.642 35.5648 133.61L50.6317 134.596C51.5545 134.656 52.497 134.649 53.4592 134.563C53.9602 134.517 54.4413 134.458 54.9158 134.392C55.0279 134.379 55.1333 134.36 55.2388 134.346C55.7002 134.274 56.1483 134.195 56.5834 134.096C56.6361 134.083 56.6888 134.07 56.7481 134.057C57.1436 133.965 57.5259 133.866 57.9015 133.761C57.9938 133.735 58.0795 133.708 58.1718 133.682C58.5738 133.557 58.9693 133.425 59.345 133.281C59.4175 133.254 59.4834 133.221 59.5559 133.195C59.892 133.064 60.2216 132.919 60.5379 132.768C60.6038 132.735 60.6697 132.708 60.7357 132.675C60.7686 132.656 60.8082 132.643 60.8411 132.623C61.1641 132.458 61.4804 132.287 61.7836 132.103C61.8627 132.057 61.9352 132.011 62.0143 131.958C62.2911 131.8 62.5548 131.629 62.8118 131.445Z" fill="black"></path> <path d="M55.7726 74.5258L40.7057 73.539C38.5636 73.4008 36.3029 73.4272 33.9104 73.6377L48.9773 74.6245C51.3698 74.414 53.6305 74.3877 55.7726 74.5258Z" fill="black"></path> <path d="M15.1393 116.728C14.724 109.301 16.1147 102.255 18.9422 96.1304C20.557 92.6239 22.6464 89.4201 25.1443 86.611C28.196 83.1703 31.8539 80.3283 35.9931 78.2625C39.9213 76.3021 44.2911 75.039 48.9838 74.6245L33.9169 73.6377C29.2241 74.0456 24.8609 75.3087 20.9261 77.2757C16.787 79.3415 13.129 82.19 10.0774 85.6241C7.58603 88.4333 5.4967 91.6371 3.87532 95.1436C1.0478 101.268 -0.336301 108.308 0.0723384 115.742C1.22576 136.432 14.7636 150.425 32.7173 151.602L47.7843 152.589C29.8305 151.411 16.2927 137.419 15.1393 116.728Z" fill="black"></path> <path d="M48.9774 74.6247C60.7291 73.5984 69.2643 76.9404 76.7121 83.1705L66.6411 98.7884C61.6122 94.7096 56.6954 92.5518 50.1044 93.1307C40.4553 93.9728 33.515 103.722 34.1675 115.393C34.8398 127.491 42.8676 135.498 53.4724 134.57C57.9609 134.175 61.342 132.807 63.9982 130.531L63.4907 121.432L50.3088 122.584L49.4651 107.387L80.2251 104.703L82.1035 138.419C75.3939 145.57 65.8436 151.458 53.7097 152.517C32.8889 154.333 16.4247 139.636 15.146 116.729C13.9267 94.9004 28.2554 76.4339 48.9774 74.6247Z" fill="white"></path> <path d="M50.3154 153.319C41.668 153.319 33.6337 150.438 27.3854 145.037C19.707 138.399 15.1263 128.36 14.4803 116.761C13.2215 94.1897 28.0313 75.789 48.9181 73.9667C59.925 73.0062 68.8953 75.7693 77.134 82.6638C77.391 82.8743 77.4437 83.2427 77.2658 83.5256L67.1948 99.1435C67.0959 99.3014 66.9312 99.4067 66.7466 99.4395C66.5621 99.4724 66.3709 99.4198 66.2259 99.3014C60.8345 94.9265 56.0363 93.2753 50.1638 93.7884C40.9364 94.5976 34.1939 104.071 34.8266 115.36C35.1694 121.551 37.5025 126.807 41.3912 130.175C44.6867 133.024 48.839 134.32 53.4131 133.919C57.4995 133.563 60.7423 132.36 63.3193 130.241L62.8711 122.149L50.3615 123.241C50.1836 123.261 50.0056 123.202 49.8738 123.084C49.742 122.965 49.6563 122.801 49.6497 122.623L48.806 107.426C48.7863 107.071 49.0499 106.768 49.4058 106.735L80.1658 104.051C80.3438 104.038 80.5217 104.091 80.6535 104.209C80.7854 104.328 80.871 104.492 80.8776 104.67L82.7561 138.386C82.7692 138.563 82.7033 138.741 82.5781 138.872C77.0812 144.734 67.6232 151.971 53.7624 153.181C52.6024 153.273 51.4556 153.319 50.3154 153.319ZM49.0367 75.2824C28.8684 77.0455 14.5792 94.8476 15.7985 116.696C16.4247 127.932 20.8472 137.642 28.2488 144.05C35.0441 149.925 44.0606 152.708 53.6438 151.865C66.9246 150.708 76.0531 143.826 81.4181 138.175L79.5924 105.42L50.144 107.992L50.9151 121.88L63.4248 120.788C63.6027 120.774 63.7807 120.827 63.9125 120.945C64.0443 121.064 64.13 121.228 64.1366 121.406L64.6441 130.504C64.6573 130.708 64.5716 130.906 64.4134 131.037C61.5793 133.465 58.0136 134.84 53.512 135.234C48.5754 135.669 44.0803 134.261 40.508 131.175C36.3491 127.577 33.8512 121.985 33.4887 115.439C32.823 103.433 40.0862 93.3542 50.0254 92.4858C56.0495 91.9595 61.0059 93.5582 66.4632 97.8278L75.8224 83.3151C68.0121 76.9205 59.4768 74.3746 49.0367 75.2824Z" fill="black"></path> </g> <path d="M275.482 149.161L296.051 147.358L296.557 156.457L293.331 198.37L283.812 199.199L275.988 158.259L275.482 149.161Z" fill="white"></path> <path d="M283.812 199.857C283.504 199.857 283.228 199.633 283.168 199.324L275.344 158.385C275.338 158.358 275.338 158.325 275.331 158.299L274.826 149.201C274.806 148.845 275.069 148.543 275.423 148.51L295.992 146.701C296.169 146.681 296.346 146.74 296.478 146.859C296.609 146.977 296.695 147.142 296.701 147.319L297.207 156.418C297.207 156.444 297.207 156.477 297.207 156.503L293.988 198.416C293.962 198.739 293.712 198.995 293.39 199.021L283.871 199.857C283.852 199.857 283.832 199.857 283.812 199.857ZM276.645 158.181L284.351 198.495L292.727 197.765L295.9 156.457L295.433 148.082L276.179 149.773L276.645 158.181Z" fill="black"></path> <path d="M275.482 149.161L296.051 147.359L281.033 146.372L260.465 148.174L260.971 157.273L268.795 198.212L283.812 199.199L275.988 158.26L275.482 149.161Z" fill="black"></path> <path d="M280.501 224.014L279.496 205.817L298.343 204.166L299.355 222.363L280.501 224.014Z" fill="white"></path> <path d="M280.501 224.672C280.344 224.672 280.193 224.612 280.068 224.514C279.936 224.395 279.851 224.231 279.845 224.053L278.833 205.856C278.813 205.501 279.076 205.199 279.431 205.166L298.278 203.514C298.455 203.501 298.633 203.554 298.764 203.672C298.895 203.791 298.981 203.955 298.987 204.133L299.999 222.33C300.019 222.685 299.756 222.987 299.401 223.02L280.547 224.672C280.541 224.672 280.521 224.672 280.501 224.672ZM280.186 206.416L281.126 223.297L298.665 221.757L297.726 204.876L280.186 206.416Z" fill="black"></path> <path d="M298.343 204.166L283.326 203.179L264.472 204.83L265.484 223.027L280.501 224.014L279.496 205.817L298.343 204.166Z" fill="black"></path> <path d="M232.657 211.481C232.302 211.481 231.954 211.468 231.606 211.449L216.589 210.462C216.227 210.435 215.952 210.126 215.978 209.764C216.004 209.403 216.313 209.126 216.674 209.153H216.687C217.436 209.199 218.205 209.192 218.967 209.126C219 209.12 219.033 209.126 219.065 209.126L234.083 210.113C234.424 210.133 234.694 210.416 234.694 210.764C234.694 211.113 234.437 211.396 234.096 211.429C233.616 211.462 233.137 211.481 232.657 211.481Z" fill="black"></path> <path d="M231.646 210.798L216.628 209.811C217.41 209.863 218.205 209.857 219.026 209.784L234.043 210.771C233.229 210.837 232.427 210.844 231.646 210.798Z" fill="#949494"></path> <path d="M232.657 211.481C232.302 211.481 231.954 211.468 231.606 211.449L216.589 210.462C216.227 210.435 215.952 210.126 215.978 209.764C216.004 209.403 216.313 209.126 216.674 209.153H216.687C217.436 209.199 218.205 209.192 218.967 209.126C219 209.12 219.033 209.126 219.065 209.126L234.083 210.113C234.424 210.133 234.694 210.416 234.694 210.764C234.694 211.113 234.437 211.396 234.096 211.429C233.616 211.462 233.137 211.481 232.657 211.481Z" fill="black"></path> <path d="M249.862 189.048C249.311 179.12 242.965 170.877 234.043 170.292L219.026 169.305C227.947 169.89 234.293 178.134 234.845 188.061C235.075 192.212 234.333 196.192 232.776 199.587C231.968 201.35 230.936 202.955 229.701 204.35C228.309 205.922 226.666 207.218 224.801 208.159C223.06 209.034 221.128 209.6 219.026 209.784L234.043 210.771C236.146 210.586 238.077 210.021 239.818 209.146C241.684 208.205 243.332 206.909 244.719 205.337C245.947 203.949 246.978 202.343 247.793 200.574C249.35 197.179 250.092 193.205 249.862 189.048Z" fill="black"></path> <path d="M234.043 211.422C234.03 211.422 234.017 211.422 233.997 211.422L218.98 210.435C218.639 210.415 218.369 210.133 218.369 209.784C218.369 209.435 218.625 209.152 218.967 209.119C220.931 208.948 222.797 208.422 224.505 207.567C226.265 206.685 227.849 205.455 229.208 203.909C230.384 202.58 231.383 201.028 232.178 199.311C233.715 195.962 234.411 192.087 234.188 188.094C233.636 178.134 227.244 170.502 218.987 169.963H218.98C218.619 169.936 218.343 169.627 218.369 169.265C218.395 168.904 218.704 168.634 219.066 168.654L234.083 169.64C243.017 170.226 249.928 178.377 250.519 189.015C250.756 193.219 250.013 197.311 248.391 200.857C247.55 202.692 246.479 204.35 245.218 205.777C243.74 207.448 242.025 208.777 240.12 209.738C238.261 210.672 236.238 211.244 234.109 211.429C234.083 211.422 234.063 211.422 234.043 211.422ZM223.565 209.415L234.037 210.106C235.981 209.929 237.827 209.409 239.529 208.554C241.289 207.672 242.873 206.442 244.232 204.896C245.408 203.56 246.407 202.014 247.202 200.297C248.739 196.949 249.435 193.074 249.212 189.081C248.66 179.114 242.262 171.489 234.004 170.95L225.214 170.371C231.008 173.384 235.055 179.995 235.502 188.021C235.738 192.225 234.996 196.317 233.373 199.863C232.526 201.699 231.462 203.356 230.194 204.784C228.722 206.455 227.008 207.784 225.096 208.744C224.597 208.994 224.084 209.218 223.565 209.415Z" fill="black"></path> <path d="M230.759 152.233C230.746 152.233 230.732 152.233 230.713 152.233L215.695 151.246C215.354 151.227 215.084 150.944 215.084 150.595C215.084 150.246 215.341 149.964 215.682 149.931C217.541 149.766 219.414 149.747 221.233 149.865L236.251 150.852C236.612 150.878 236.888 151.187 236.862 151.549C236.835 151.911 236.527 152.181 236.165 152.161H236.152C234.405 152.049 232.611 152.069 230.818 152.227C230.798 152.233 230.778 152.233 230.759 152.233Z" fill="black"></path> <path d="M230.759 151.575L215.741 150.589C217.594 150.424 219.414 150.404 221.194 150.523L236.211 151.51C234.431 151.391 232.611 151.411 230.759 151.575Z" fill="#949494"></path> <path d="M230.759 152.233C230.746 152.233 230.732 152.233 230.713 152.233L215.695 151.246C215.354 151.227 215.084 150.944 215.084 150.595C215.084 150.246 215.341 149.964 215.682 149.931C217.541 149.766 219.414 149.747 221.233 149.865L236.251 150.852C236.612 150.878 236.888 151.187 236.862 151.549C236.835 151.911 236.527 152.181 236.165 152.161H236.152C234.405 152.049 232.611 152.069 230.818 152.227C230.798 152.233 230.778 152.233 230.759 152.233Z" fill="black"></path> <path d="M230.759 151.576C251.327 149.773 267.514 165.674 268.716 187.397C269.912 208.916 255.453 227.711 234.897 229.514C214.329 231.316 198.142 215.416 196.94 193.686C195.738 172.174 210.197 153.378 230.759 151.576ZM234.043 210.764C244.232 209.87 250.48 200.074 249.869 189.048C249.271 178.239 241.795 169.43 231.613 170.325C221.522 171.206 215.275 181.009 215.886 192.028C216.477 202.844 223.953 211.653 234.043 210.764Z" fill="#FFFDFD"></path> <path d="M231.784 230.31C223.493 230.31 215.656 227.428 209.435 222.034C201.585 215.218 196.907 205.166 196.27 193.725C195.035 171.522 210.157 152.72 230.693 150.918C240.14 150.082 249.199 152.983 256.201 159.055C264.052 165.871 268.729 175.917 269.36 187.357C270.595 209.56 255.472 228.369 234.937 230.165C233.892 230.264 232.835 230.31 231.784 230.31ZM230.811 152.227C210.992 153.963 196.395 172.16 197.59 193.646C198.208 204.725 202.721 214.455 210.302 221.034C217.035 226.876 225.746 229.652 234.838 228.856C254.658 227.119 269.255 208.922 268.059 187.429C267.442 176.351 262.928 166.628 255.347 160.049C248.621 154.213 239.91 151.431 230.811 152.227ZM232.644 211.488C228.827 211.488 225.273 210.146 222.297 207.56C218.152 203.962 215.577 198.317 215.229 192.061C214.565 180.167 221.588 170.542 231.554 169.667C235.975 169.279 240.094 170.621 243.47 173.548C247.609 177.14 250.177 182.772 250.526 189.008C251.189 200.903 244.127 210.541 234.102 211.416C233.61 211.462 233.124 211.488 232.644 211.488ZM233.025 170.917C232.578 170.917 232.125 170.937 231.665 170.976C222.422 171.785 215.919 180.818 216.536 191.989C216.865 197.883 219.276 203.199 223.158 206.567C226.239 209.238 229.977 210.462 233.991 210.113C243.286 209.297 249.836 200.258 249.212 189.087C248.883 183.206 246.479 177.903 242.61 174.548C239.857 172.16 236.566 170.917 233.025 170.917Z" fill="black"></path> <path d="M196.934 193.686C196.533 186.41 197.912 179.45 200.724 173.344C202.36 169.779 204.488 166.509 207.018 163.647C210.105 160.161 213.797 157.266 217.975 155.181C221.858 153.233 226.154 151.977 230.759 151.575L215.742 150.589C211.136 150.99 206.84 152.246 202.958 154.194C198.786 156.286 195.088 159.174 192 162.661C189.464 165.522 187.343 168.792 185.707 172.358C182.902 178.463 181.516 185.423 181.916 192.699C183.013 212.468 196.513 227.415 214.428 228.593L229.445 229.579C211.531 228.402 198.031 213.455 196.934 193.686Z" fill="black"></path> <path d="M229.445 230.237C229.432 230.237 229.419 230.237 229.399 230.237L214.382 229.25C205.553 228.672 197.38 224.698 191.376 218.06C185.391 211.448 181.798 202.455 181.259 192.738C180.859 185.568 182.192 178.423 185.109 172.088C186.778 168.463 188.926 165.147 191.507 162.226C194.707 158.608 198.458 155.713 202.662 153.602C206.722 151.569 211.104 150.332 215.682 149.931C215.715 149.931 215.748 149.931 215.781 149.931L230.798 150.917C231.14 150.937 231.409 151.22 231.409 151.569C231.409 151.917 231.153 152.2 230.811 152.233C226.397 152.621 222.179 153.812 218.264 155.773C214.211 157.805 210.591 160.601 207.504 164.088C205.007 166.91 202.925 170.121 201.309 173.627C198.484 179.772 197.196 186.699 197.577 193.66C198.103 203.074 201.572 211.784 207.359 218.172C213.133 224.553 220.984 228.369 229.471 228.928H229.478C229.839 228.954 230.115 229.264 230.089 229.625C230.076 229.974 229.787 230.237 229.445 230.237ZM215.748 151.246C211.353 151.635 207.149 152.825 203.253 154.779C199.2 156.812 195.58 159.608 192.493 163.095C189.997 165.917 187.914 169.127 186.305 172.634C183.48 178.778 182.192 185.706 182.573 192.666C183.099 202.08 186.567 210.791 192.355 217.178C198.129 223.56 205.986 227.382 214.474 227.935L220.156 228.31C214.953 226.435 210.236 223.284 206.4 219.047C200.415 212.435 196.822 203.442 196.283 193.725C195.883 186.554 197.216 179.41 200.133 173.075C201.801 169.45 203.956 166.134 206.538 163.213C209.737 159.601 213.488 156.7 217.693 154.588C220.051 153.404 222.521 152.49 225.076 151.858L215.748 151.246Z" fill="black"></path> <path d="M147.007 175.469C151.927 175.792 155.948 177.844 160.041 181.173L175.058 182.16C170.965 178.825 166.945 176.779 162.024 176.456L147.007 175.469Z" fill="black"></path> <path d="M171.241 214.817C171.333 214.751 171.419 214.692 171.511 214.626C171.826 214.396 172.135 214.159 172.43 213.903L171.924 204.804L158.668 203.936L157.939 190.759L188.597 188.074L173.58 187.088L142.921 189.772L143.762 204.969L157.012 205.837L157.406 212.916C157.111 213.172 156.802 213.409 156.487 213.639C156.401 213.705 156.309 213.764 156.217 213.83C155.961 214.008 155.698 214.179 155.436 214.35C155.357 214.396 155.285 214.449 155.206 214.495C154.864 214.699 154.516 214.883 154.155 215.06C154.089 215.093 154.023 215.12 153.958 215.153C153.642 215.304 153.314 215.449 152.979 215.58C152.906 215.606 152.841 215.639 152.768 215.666C152.387 215.81 152 215.949 151.599 216.067C151.514 216.093 151.422 216.12 151.33 216.146C150.955 216.258 150.574 216.356 150.18 216.442C150.128 216.455 150.075 216.468 150.016 216.481C149.582 216.574 149.136 216.659 148.676 216.731C148.571 216.751 148.459 216.764 148.354 216.777C147.881 216.843 147.401 216.902 146.902 216.949C146.423 216.988 145.943 217.014 145.477 217.021C145.004 217.027 144.544 217.014 144.084 216.981L159.101 217.968C160.021 218.027 160.96 218.021 161.919 217.935C162.419 217.889 162.898 217.83 163.371 217.764C163.483 217.751 163.588 217.731 163.693 217.718C164.153 217.646 164.6 217.567 165.033 217.468C165.086 217.455 165.138 217.442 165.198 217.429C165.592 217.337 165.973 217.238 166.347 217.133C166.439 217.106 166.525 217.08 166.617 217.054C167.017 216.929 167.411 216.797 167.786 216.652C167.858 216.626 167.924 216.593 167.996 216.567C168.331 216.435 168.66 216.291 168.975 216.139C169.041 216.106 169.106 216.08 169.172 216.047C169.205 216.027 169.244 216.014 169.277 215.995C169.599 215.83 169.914 215.659 170.216 215.475C170.295 215.429 170.368 215.383 170.446 215.33C170.722 215.172 170.985 215.001 171.241 214.817Z" fill="black"></path> <path d="M164.225 157.898L149.208 156.911C147.073 156.773 144.82 156.799 142.435 157.01L157.452 157.996C159.837 157.786 162.09 157.759 164.225 157.898Z" fill="black"></path> <path d="M123.726 200.1C123.312 192.673 124.698 185.627 127.516 179.502C129.126 175.996 131.208 172.792 133.698 169.983C136.739 166.542 140.385 163.7 144.511 161.634C148.426 159.674 152.782 158.411 157.459 157.996L142.442 157.01C137.764 157.417 133.415 158.681 129.494 160.648C125.368 162.713 121.722 165.562 118.68 168.996C116.197 171.805 114.115 175.009 112.499 178.515C109.681 184.64 108.301 191.679 108.708 199.113C109.858 219.804 123.351 233.797 141.246 234.974L156.263 235.961C138.369 234.783 124.875 220.79 123.726 200.1Z" fill="black"></path> <path d="M157.453 157.997C169.166 156.97 177.673 160.312 185.096 166.542L175.058 182.16C170.046 178.081 165.145 175.924 158.576 176.503C148.958 177.345 142.041 187.094 142.691 198.765C143.361 210.863 151.363 218.87 161.933 217.942C166.406 217.547 169.776 216.179 172.424 213.903L171.918 204.804L158.78 205.956L157.939 190.759L188.597 188.075L190.47 221.791C183.782 228.942 174.263 234.83 162.169 235.889C141.417 237.704 125.007 223.008 123.732 200.1C122.517 178.272 136.799 159.806 157.453 157.997Z" fill="white"></path> <path d="M158.786 236.691C150.167 236.691 142.159 233.81 135.931 228.409C128.278 221.771 123.713 211.731 123.069 200.133C121.814 177.562 136.575 159.161 157.393 157.339C168.364 156.378 177.305 159.141 185.516 166.036C185.772 166.246 185.825 166.615 185.648 166.897L175.61 182.515C175.511 182.673 175.347 182.778 175.163 182.811C174.979 182.844 174.789 182.792 174.644 182.673C169.27 178.298 164.488 176.647 158.635 177.16C149.438 177.969 142.717 187.443 143.348 198.732C143.69 204.922 146.015 210.179 149.891 213.547C153.176 216.396 157.314 217.692 161.873 217.291C165.946 216.935 169.178 215.731 171.747 213.613L171.3 205.521L158.832 206.613C158.654 206.633 158.477 206.574 158.346 206.455C158.214 206.337 158.129 206.172 158.122 205.995L157.282 190.798C157.262 190.443 157.525 190.14 157.879 190.107L188.538 187.423C188.715 187.41 188.893 187.463 189.024 187.581C189.156 187.699 189.241 187.864 189.248 188.041L191.12 221.757C191.133 221.935 191.067 222.113 190.942 222.244C185.464 228.106 176.037 235.343 162.222 236.553C161.065 236.645 159.922 236.691 158.786 236.691ZM157.511 158.654C137.409 160.417 123.167 178.219 124.383 200.067C125.007 211.304 129.415 221.014 136.792 227.422C143.565 233.297 152.552 236.079 162.103 235.237C175.34 234.079 184.439 227.198 189.786 221.547L187.967 188.791L158.615 191.364L159.384 205.251L171.852 204.159C172.03 204.146 172.207 204.199 172.338 204.317C172.47 204.436 172.555 204.6 172.562 204.778L173.067 213.876C173.081 214.08 172.995 214.277 172.838 214.409C170.013 216.837 166.459 218.212 161.972 218.606C157.052 219.04 152.571 217.633 149.011 214.547C144.866 210.949 142.376 205.357 142.015 198.811C141.351 186.805 148.59 176.726 158.497 175.858C164.501 175.331 169.441 176.93 174.881 181.2L184.209 166.687C176.424 160.292 167.917 157.746 157.511 158.654Z" fill="black"></path> <defs> <clipPath id="clip0"> <rect width="192.008" height="90.3194" fill="white" transform="translate(0 63)"></rect> </clipPath> </defs> </svg> 