<?xml version="1.0" encoding="UTF-8"?> <svg xmlns="http://www.w3.org/2000/svg" width="300" height="300" viewBox="0 0 300 300" fill="none"> <path d="M225 112C225 70.5774 191.423 37 150 37C108.577 37 75 70.5774 75 112C33.5774 112 0 145.577 0 187C0 228.423 33.5774 262 75 262H225C266.423 262 300 228.423 300 187C300 145.577 266.423 112 225 112Z" fill="#196CD3"></path> <path d="M55.6692 124.528H62.3094V156.26H82.1671V162.31H55.6692V124.528Z" fill="#68BFFF"></path> <path d="M89.071 124.528H117.088V130.465H95.7112V140.293H114.653V146.231H95.7112V156.373H117.351V162.31H89.071V124.528Z" fill="#68BFFF"></path> <path d="M138.627 124.251H144.778L161.397 162.297H154.381L150.552 153.171H132.69L128.799 162.297H121.996L138.627 124.251ZM148.117 147.297L141.59 132.184L135.113 147.297H148.117Z" fill="#68BFFF"></path> <path d="M167.874 124.528H184.719C193.569 124.528 198.753 129.272 198.753 136.565C198.753 142.766 195.025 146.494 189.74 148.013L199.945 162.323H192.125L182.736 149.155H174.527V162.323H167.887V124.528H167.874ZM184.23 143.256C188.974 143.256 192 140.77 192 136.829C192 132.774 189.087 130.565 184.167 130.565H174.502V143.243H184.23V143.256Z" fill="#68BFFF"></path> <path d="M206.899 124.528H213.05L233.284 150.649V124.528H239.811V162.31H234.251L213.414 135.436V162.31H206.887V124.528H206.899Z" fill="#68BFFF"></path> <path d="M55.6692 164.067H62.3094V195.799H82.1671V201.85H55.6692V164.067Z" fill="#68BFFF"></path> <path d="M89.071 164.067H117.088V170.004H95.7112V179.833H114.653V185.77H95.7112V195.912H117.351V201.85H89.071V164.067Z" fill="#68BFFF"></path> <path d="M138.627 163.791H144.778L161.397 201.837H154.381L150.552 192.711H132.69L128.799 201.837H121.996L138.627 163.791ZM148.117 186.837L141.59 171.724L135.113 186.837H148.117Z" fill="#68BFFF"></path> <path d="M167.874 164.067H184.719C193.569 164.067 198.753 168.812 198.753 176.105C198.753 182.306 195.025 186.034 189.74 187.553L199.945 201.862H192.125L182.736 188.695H174.527V201.862H167.887V164.067H167.874ZM184.23 182.795C188.974 182.795 192 180.31 192 176.368C192 172.314 189.087 170.105 184.167 170.105H174.502V182.783H184.23V182.795Z" fill="#68BFFF"></path> <path d="M206.899 164.067H213.05L233.284 190.188V164.067H239.811V201.85H234.251L213.414 174.975V201.85H206.887V164.067H206.899Z" fill="#68BFFF"></path> <path d="M55.6692 203.607H62.3094V235.339H82.1671V241.39H55.6692V203.607Z" fill="#68BFFF"></path> <path d="M89.071 203.607H117.088V209.544H95.7112V219.373H114.653V225.31H95.7112V235.452H117.351V241.39H89.071V203.607Z" fill="#68BFFF"></path> <path d="M138.627 203.331H144.778L161.397 241.377H154.381L150.552 232.251H132.69L128.799 241.377H121.996L138.627 203.331ZM148.117 226.377L141.59 211.264L135.113 226.377H148.117Z" fill="#68BFFF"></path> <path d="M167.874 203.607H184.719C193.569 203.607 198.753 208.352 198.753 215.645C198.753 221.846 195.025 225.574 189.74 227.093L199.945 241.402H192.125L182.736 228.235H174.527V241.402H167.887V203.607H167.874ZM184.23 222.335C188.974 222.335 192 219.85 192 215.908C192 211.854 189.087 209.645 184.167 209.645H174.502V222.323H184.23V222.335Z" fill="#68BFFF"></path> <path d="M206.899 203.607H213.05L233.284 229.729V203.607H239.811V241.39H234.251L213.414 214.515V241.39H206.887V203.607H206.899Z" fill="#68BFFF"></path> </svg> 