<?xml version="1.0" encoding="UTF-8"?> <svg xmlns="http://www.w3.org/2000/svg" xmlns:xlink="http://www.w3.org/1999/xlink" width="64px" height="65px" viewBox="0 0 64 65"> <!-- Generator: Sketch 53.2 (72643) - https://sketchapp.com --> <title>Group</title> <desc>Created with Sketch.</desc> <g id="Page-1" stroke="none" stroke-width="1" fill="none" fill-rule="evenodd"> <g id="Group" fill="#FFFFFF" fill-rule="nonzero"> <path d="M23.98,5.03900006 L23.88,4.98900006 C21.181,2.24000006 17.882,0.841000059 13.983,0.841000059 C13.534,0.841000059 13.134,0.891000059 12.784,0.940000059 C9.436,1.19000006 6.586,2.54000006 4.237,4.98900006 C4.188,4.98900006 4.188,4.98900006 4.188,5.03900006 C1.439,7.68800006 0.039,10.9870001 0.039,14.8350001 C0.039,18.7330001 1.439,22.0320001 4.188,24.7310001 L4.237,24.7810001 C6.686,27.2300001 9.585,28.5800001 12.934,28.8300001 C12.984,28.8300001 13.084,28.8300001 13.184,28.8300001 C13.434,28.8300001 13.684,28.8300001 13.983,28.8300001 C17.882,28.8300001 21.181,27.4800001 23.88,24.7310001 L23.98,24.7310001 C26.628,22.0320001 27.978,18.7330001 27.978,14.8350001 C27.978,10.9870001 26.628,7.68800006 23.98,5.03900006 Z M9.686,10.4370001 C10.735,9.33700006 11.935,8.73700006 13.384,8.63800006 C13.584,8.63800006 13.784,8.58700006 13.983,8.53800006 C15.733,8.53800006 17.232,9.18800006 18.432,10.4370001 C19.681,11.6870001 20.281,13.1360001 20.281,14.8350001 C20.281,16.5850001 19.681,18.0340001 18.432,19.2830001 L18.432,19.3340001 C17.232,20.5330001 15.733,21.1320001 13.983,21.1320001 C13.784,21.1320001 13.634,21.1320001 13.484,21.1320001 C12.034,20.9820001 10.735,20.3830001 9.686,19.3340001 L9.635,19.2830001 C8.386,18.0340001 7.736,16.5850001 7.736,14.8350001 C7.736,13.1360001 8.386,11.6870001 9.635,10.5370001 C9.635,10.4870001 9.635,10.4370001 9.686,10.4370001 L9.686,10.4370001 Z" id="Fill-20"></path> <path d="M55.617,0.741000059 C54.518,0.791000059 53.618,1.29100006 52.918,2.14000006 L6.337,57.0680001 C5.637,57.8180001 5.337,58.7680001 5.437,59.8670001 C5.537,60.8670001 5.987,61.7160001 6.836,62.4160001 C7.636,63.1160001 8.586,63.4160001 9.635,63.3660001 C10.685,63.2660001 11.535,62.8160001 12.234,62.0160001 L58.815,7.08800006 C59.516,6.23900006 59.815,5.33900006 59.715,4.29000006 C59.615,3.24000006 59.166,2.34000006 58.416,1.64000006 C57.566,0.940000059 56.617,0.641000059 55.617,0.741000059" id="Fill-21"></path> <path d="M59.815,41.3250001 L59.715,41.2250001 C57.017,38.4760001 53.718,37.1260001 49.77,37.1260001 C46.021,37.1260001 42.772,38.4760001 40.073,41.2250001 C40.023,41.2250001 39.973,41.2740001 39.973,41.3250001 C37.224,43.9730001 35.875,47.2220001 35.875,51.1210001 C35.875,54.9690001 37.224,58.2680001 39.973,60.9170001 L40.073,60.9670001 C42.772,63.6650001 46.021,65.0150001 49.77,65.0150001 C53.668,65.0150001 56.966,63.6650001 59.666,60.9670001 C59.715,60.9170001 59.765,60.9170001 59.815,60.9170001 C62.514,58.2680001 63.864,54.9690001 63.864,51.1210001 C63.864,47.2220001 62.514,43.9730001 59.815,41.3250001 Z M49.77,44.8230001 C51.568,44.8230001 53.068,45.4230001 54.268,46.6720001 L54.317,46.7730001 C55.567,47.9220001 56.167,49.3710001 56.167,51.1210001 C56.167,52.7700001 55.567,54.2190001 54.317,55.3690001 C54.268,55.4190001 54.268,55.4690001 54.268,55.5190001 C53.068,56.7180001 51.568,57.3180001 49.77,57.3180001 C48.12,57.3180001 46.67,56.7180001 45.521,55.5190001 C45.471,55.4690001 45.421,55.4190001 45.371,55.3690001 C44.171,54.2190001 43.572,52.7700001 43.572,51.1210001 C43.572,49.3710001 44.222,47.9220001 45.471,46.7730001 C45.471,46.7220001 45.471,46.6720001 45.521,46.6720001 C46.67,45.4230001 48.12,44.8230001 49.77,44.8230001 L49.77,44.8230001 Z" id="Fill-22"></path> </g> </g> </svg> 