<?xml version="1.0" encoding="UTF-8"?> <svg xmlns="http://www.w3.org/2000/svg" xmlns:xlink="http://www.w3.org/1999/xlink" width="88px" height="68px" viewBox="0 0 88 68"> <!-- Generator: Sketch 53.2 (72643) - https://sketchapp.com --> <title>Fill 25</title> <desc>Created with Sketch.</desc> <g id="Page-1" stroke="none" stroke-width="1" fill="none" fill-rule="evenodd"> <g id="shutterstock_62064928" transform="translate(0.000000, -24.000000)" fill="#515DC8"> <path d="M52.417,32.188 L83.254,32.188 C84.304,32.188 85.253,31.837 86.003,31.088 C86.753,30.338 87.102,29.388 87.102,28.339 C87.102,27.29 86.753,26.39 86.003,25.64 C85.253,24.89 84.304,24.49 83.254,24.49 L49.868,24.49 C49.118,24.49 48.468,24.69 47.869,25.14 C47.219,25.49 46.719,26.04 46.369,26.74 L21.529,80.068 L6.835,62.126 C6.135,61.376 5.286,60.926 4.236,60.826 C3.187,60.676 2.237,60.976 1.387,61.675 C0.587,62.325 0.138,63.175 0.038,64.225 C-0.112,65.274 0.187,66.174 0.887,67.023 L19.53,89.665 C20.08,90.364 20.779,90.814 21.679,90.964 C22.529,91.164 23.328,91.064 24.178,90.714 C24.978,90.264 25.577,89.665 25.927,88.865 L52.417,32.188" id="Fill-25"></path> </g> </g> </svg> 