<?xml version="1.0" encoding="UTF-8"?> <svg xmlns="http://www.w3.org/2000/svg" width="370" height="450" viewBox="0 0 370 450" fill="none"> <g clip-path="url(#clip0_239_995)"> <path d="M160.371 53.2533L75.5341 125.773C45.0088 151.866 29.7462 164.913 19.4637 181.262C13.6246 190.546 9.01487 200.548 5.74975 211.016C0 229.45 0 249.517 0 289.651V397.209C0 452.584 0 480.272 12.4772 500.611C19.4588 511.993 29.0378 521.561 40.4308 528.536C60.7917 541 88.5083 541 143.942 541H364.058C419.501 541 447.223 541 467.586 528.533C478.98 521.557 488.559 511.985 495.54 500.602C508.017 480.258 508.011 452.565 507.999 397.179L507.977 289.641C507.969 249.511 507.965 229.446 502.212 211.015C498.945 200.548 494.334 190.548 488.494 181.266C478.21 164.92 462.947 151.876 432.421 125.789L347.527 53.2405C310.99 22.0166 292.721 6.40436 271.788 1.89812C260.028 -0.633525 247.862 -0.632695 236.103 1.90054C215.17 6.40964 196.904 22.0243 160.371 53.2533Z" fill="#96B2FF"></path> </g> <defs> <clipPath id="clip0_239_995"> <path d="M0 0H370V420C370 436.569 356.569 450 340 450H0V0Z" fill="white"></path> </clipPath> </defs> </svg> 