<?xml version="1.0" encoding="UTF-8"?> <svg xmlns="http://www.w3.org/2000/svg" width="187" height="43" viewBox="0 0 187 43" fill="none"> <path d="M14.8077 42.7678C11.4797 42.7678 8.66368 42.2345 6.35968 41.1678C4.05568 40.0585 2.09301 38.6931 0.47168 37.0718L4.69568 31.1198C5.93301 32.2291 7.25568 33.1891 8.66368 33.9998C10.1143 34.7678 11.7143 35.1518 13.4637 35.1518C15.5543 35.1518 17.2183 34.6185 18.4557 33.5518C19.693 32.4851 20.3117 30.9065 20.3117 28.8158C20.3117 26.7678 19.7143 25.2105 18.5197 24.1438C17.3677 23.0771 15.8317 22.5438 13.9117 22.5438C13.3143 22.5438 12.781 22.5865 12.3117 22.6718C11.8423 22.7145 11.373 22.8211 10.9037 22.9918C10.477 23.1625 10.0077 23.3758 9.49568 23.6318C9.02635 23.8878 8.49301 24.2078 7.89568 24.5918L3.67168 21.9038L4.82368 1.35979H27.8637V9.2958H12.9517L12.2477 16.9118C13.0157 16.5705 13.741 16.3358 14.4237 16.2078C15.149 16.0371 15.9383 15.9518 16.7917 15.9518C18.541 15.9518 20.1837 16.2078 21.7197 16.7198C23.2983 17.2318 24.685 17.9998 25.8797 19.0238C27.0743 20.0478 28.013 21.3491 28.6957 22.9278C29.3783 24.5065 29.7197 26.3838 29.7197 28.5598C29.7197 30.8211 29.3143 32.8265 28.5037 34.5758C27.693 36.3251 26.605 37.8185 25.2397 39.0558C23.8743 40.2505 22.2743 41.1678 20.4397 41.8078C18.6477 42.4478 16.7703 42.7678 14.8077 42.7678Z" fill="url(#paint0_linear_239_994)"></path> <path d="M51.3722 42.7678C49.0682 42.7678 46.9775 42.2985 45.1002 41.3598C43.2655 40.3785 41.6868 38.9705 40.3642 37.1358C39.0415 35.3011 38.0175 33.0825 37.2922 30.4798C36.5668 27.8345 36.2042 24.8478 36.2042 21.5198C36.2042 18.1918 36.5668 15.2265 37.2922 12.6238C38.0175 10.0211 39.0415 7.8238 40.3642 6.0318C41.6868 4.2398 43.2655 2.8958 45.1002 1.9998C46.9775 1.06113 49.0682 0.591797 51.3722 0.591797C53.6335 0.591797 55.7028 1.06113 57.5802 1.9998C59.4575 2.93846 61.0575 4.30379 62.3802 6.09579C63.7028 7.84513 64.7268 10.0211 65.4522 12.6238C66.1775 15.2265 66.5402 18.1918 66.5402 21.5198C66.5402 24.8478 66.1775 27.8345 65.4522 30.4798C64.7268 33.0825 63.7028 35.3011 62.3802 37.1358C61.0575 38.9705 59.4575 40.3785 57.5802 41.3598C55.7028 42.2985 53.6335 42.7678 51.3722 42.7678ZM51.3722 35.1518C52.2255 35.1518 52.9935 34.9385 53.6762 34.5118C54.4015 34.0851 55.0202 33.3598 55.5322 32.3358C56.0442 31.2691 56.4282 29.8611 56.6842 28.1118C56.9828 26.3625 57.1322 24.1651 57.1322 21.5198C57.1322 18.8318 56.9828 16.6345 56.6842 14.9278C56.4282 13.2211 56.0442 11.8771 55.5322 10.8958C55.0202 9.8718 54.4015 9.16779 53.6762 8.78379C52.9935 8.3998 52.2255 8.2078 51.3722 8.2078C50.5188 8.2078 49.7295 8.3998 49.0042 8.78379C48.3215 9.16779 47.7242 9.8718 47.2122 10.8958C46.7002 11.8771 46.2948 13.2211 45.9962 14.9278C45.7402 16.6345 45.6122 18.8318 45.6122 21.5198C45.6122 24.1651 45.7402 26.3625 45.9962 28.1118C46.2948 29.8611 46.7002 31.2691 47.2122 32.3358C47.7242 33.3598 48.3215 34.0851 49.0042 34.5118C49.7295 34.9385 50.5188 35.1518 51.3722 35.1518Z" fill="url(#paint1_linear_239_994)"></path> <path d="M88.4972 42.7678C86.1932 42.7678 84.1025 42.2985 82.2252 41.3598C80.3905 40.3785 78.8118 38.9705 77.4892 37.1358C76.1665 35.3011 75.1425 33.0825 74.4172 30.4798C73.6918 27.8345 73.3292 24.8478 73.3292 21.5198C73.3292 18.1918 73.6918 15.2265 74.4172 12.6238C75.1425 10.0211 76.1665 7.8238 77.4892 6.0318C78.8118 4.2398 80.3905 2.8958 82.2252 1.9998C84.1025 1.06113 86.1932 0.591797 88.4972 0.591797C90.7585 0.591797 92.8279 1.06113 94.7052 1.9998C96.5825 2.93846 98.1825 4.30379 99.5052 6.09579C100.828 7.84513 101.852 10.0211 102.577 12.6238C103.303 15.2265 103.665 18.1918 103.665 21.5198C103.665 24.8478 103.303 27.8345 102.577 30.4798C101.852 33.0825 100.828 35.3011 99.5052 37.1358C98.1825 38.9705 96.5825 40.3785 94.7052 41.3598C92.8279 42.2985 90.7585 42.7678 88.4972 42.7678ZM88.4972 35.1518C89.3505 35.1518 90.1185 34.9385 90.8012 34.5118C91.5265 34.0851 92.1452 33.3598 92.6572 32.3358C93.1692 31.2691 93.5532 29.8611 93.8092 28.1118C94.1078 26.3625 94.2572 24.1651 94.2572 21.5198C94.2572 18.8318 94.1078 16.6345 93.8092 14.9278C93.5532 13.2211 93.1692 11.8771 92.6572 10.8958C92.1452 9.8718 91.5265 9.16779 90.8012 8.78379C90.1185 8.3998 89.3505 8.2078 88.4972 8.2078C87.6438 8.2078 86.8545 8.3998 86.1292 8.78379C85.4465 9.16779 84.8492 9.8718 84.3372 10.8958C83.8252 11.8771 83.4198 13.2211 83.1212 14.9278C82.8652 16.6345 82.7372 18.8318 82.7372 21.5198C82.7372 24.1651 82.8652 26.3625 83.1212 28.1118C83.4198 29.8611 83.8252 31.2691 84.3372 32.3358C84.8492 33.3598 85.4465 34.0851 86.1292 34.5118C86.8545 34.9385 87.6438 35.1518 88.4972 35.1518Z" fill="url(#paint2_linear_239_994)"></path> <path d="M125.622 42.7678C123.318 42.7678 121.228 42.2985 119.35 41.3598C117.516 40.3785 115.937 38.9705 114.614 37.1358C113.292 35.3011 112.268 33.0825 111.542 30.4798C110.817 27.8345 110.454 24.8478 110.454 21.5198C110.454 18.1918 110.817 15.2265 111.542 12.6238C112.268 10.0211 113.292 7.8238 114.614 6.0318C115.937 4.2398 117.516 2.8958 119.35 1.9998C121.228 1.06113 123.318 0.591797 125.622 0.591797C127.884 0.591797 129.953 1.06113 131.83 1.9998C133.708 2.93846 135.308 4.30379 136.63 6.09579C137.953 7.84513 138.977 10.0211 139.702 12.6238C140.428 15.2265 140.79 18.1918 140.79 21.5198C140.79 24.8478 140.428 27.8345 139.702 30.4798C138.977 33.0825 137.953 35.3011 136.63 37.1358C135.308 38.9705 133.708 40.3785 131.83 41.3598C129.953 42.2985 127.884 42.7678 125.622 42.7678ZM125.622 35.1518C126.476 35.1518 127.244 34.9385 127.926 34.5118C128.652 34.0851 129.27 33.3598 129.782 32.3358C130.294 31.2691 130.678 29.8611 130.934 28.1118C131.233 26.3625 131.382 24.1651 131.382 21.5198C131.382 18.8318 131.233 16.6345 130.934 14.9278C130.678 13.2211 130.294 11.8771 129.782 10.8958C129.27 9.8718 128.652 9.16779 127.926 8.78379C127.244 8.3998 126.476 8.2078 125.622 8.2078C124.769 8.2078 123.98 8.3998 123.254 8.78379C122.572 9.16779 121.974 9.8718 121.462 10.8958C120.95 11.8771 120.545 13.2211 120.246 14.9278C119.99 16.6345 119.862 18.8318 119.862 21.5198C119.862 24.1651 119.99 26.3625 120.246 28.1118C120.545 29.8611 120.95 31.2691 121.462 32.3358C121.974 33.3598 122.572 34.0851 123.254 34.5118C123.98 34.9385 124.769 35.1518 125.622 35.1518Z" fill="url(#paint3_linear_239_994)"></path> <path d="M161.16 41.9998V32.8478H157.192V28.4958L161.16 28.1758V24.9758H157.192V20.6238L161.16 20.3038V1.35979H171.976C173.981 1.35979 175.88 1.59446 177.672 2.0638C179.464 2.49046 181.021 3.19446 182.344 4.1758C183.709 5.11446 184.776 6.33046 185.544 7.8238C186.312 9.31713 186.696 11.1091 186.696 13.1998C186.696 15.2905 186.29 17.0825 185.48 18.5758C184.669 20.0691 183.581 21.2851 182.216 22.2238C180.893 23.1625 179.336 23.8665 177.544 24.3358C175.752 24.7625 173.896 24.9758 171.976 24.9758H170.056V28.1118H182.536V32.8478H170.056V41.9998H161.16ZM170.056 20.2398H171.656C173.618 20.2398 175.154 19.6638 176.264 18.5118C177.416 17.3171 177.992 15.7171 177.992 13.7118C177.992 11.4078 177.416 9.76513 176.264 8.78379C175.154 7.75979 173.618 7.2478 171.656 7.2478H170.056V20.2398Z" fill="url(#paint4_linear_239_994)"></path> <defs> <linearGradient id="paint0_linear_239_994" x1="0.471678" y1="42.7678" x2="27.947" y2="-47.6482" gradientUnits="userSpaceOnUse"> <stop stop-color="#515DC8"></stop> <stop offset="1" stop-color="#6666CC"></stop> </linearGradient> <linearGradient id="paint1_linear_239_994" x1="0.471678" y1="42.7678" x2="27.947" y2="-47.6482" gradientUnits="userSpaceOnUse"> <stop stop-color="#515DC8"></stop> <stop offset="1" stop-color="#6666CC"></stop> </linearGradient> <linearGradient id="paint2_linear_239_994" x1="0.471678" y1="42.7678" x2="27.947" y2="-47.6482" gradientUnits="userSpaceOnUse"> <stop stop-color="#515DC8"></stop> <stop offset="1" stop-color="#6666CC"></stop> </linearGradient> <linearGradient id="paint3_linear_239_994" x1="0.471678" y1="42.7678" x2="27.947" y2="-47.6482" gradientUnits="userSpaceOnUse"> <stop stop-color="#515DC8"></stop> <stop offset="1" stop-color="#6666CC"></stop> </linearGradient> <linearGradient id="paint4_linear_239_994" x1="0.471678" y1="42.7678" x2="27.947" y2="-47.6482" gradientUnits="userSpaceOnUse"> <stop stop-color="#515DC8"></stop> <stop offset="1" stop-color="#6666CC"></stop> </linearGradient> </defs> </svg> 