<?xml version="1.0" encoding="UTF-8"?> <svg xmlns="http://www.w3.org/2000/svg" width="142" height="43" viewBox="0 0 142 43" fill="none"> <path d="M8.11209 41.9998V10.8958H0.496094V5.0718C2.67209 4.64513 4.52809 4.13313 6.06409 3.5358C7.64276 2.93846 9.13609 2.21313 10.5441 1.35979H17.5201V41.9998H8.11209Z" fill="url(#paint0_linear_239_993)"></path> <path d="M42.8101 42.7678C40.5061 42.7678 38.4154 42.2985 36.5381 41.3598C34.7034 40.3785 33.1248 38.9705 31.8021 37.1358C30.4794 35.3011 29.4554 33.0825 28.7301 30.4798C28.0048 27.8345 27.6421 24.8478 27.6421 21.5198C27.6421 18.1918 28.0048 15.2265 28.7301 12.6238C29.4554 10.0211 30.4794 7.8238 31.8021 6.0318C33.1248 4.2398 34.7034 2.8958 36.5381 1.9998C38.4154 1.06113 40.5061 0.591797 42.8101 0.591797C45.0714 0.591797 47.1408 1.06113 49.0181 1.9998C50.8954 2.93846 52.4954 4.30379 53.8181 6.09579C55.1408 7.84513 56.1648 10.0211 56.8901 12.6238C57.6154 15.2265 57.9781 18.1918 57.9781 21.5198C57.9781 24.8478 57.6154 27.8345 56.8901 30.4798C56.1648 33.0825 55.1408 35.3011 53.8181 37.1358C52.4954 38.9705 50.8954 40.3785 49.0181 41.3598C47.1408 42.2985 45.0714 42.7678 42.8101 42.7678ZM42.8101 35.1518C43.6634 35.1518 44.4314 34.9385 45.1141 34.5118C45.8394 34.0851 46.4581 33.3598 46.9701 32.3358C47.4821 31.2691 47.8661 29.8611 48.1221 28.1118C48.4208 26.3625 48.5701 24.1651 48.5701 21.5198C48.5701 18.8318 48.4208 16.6345 48.1221 14.9278C47.8661 13.2211 47.4821 11.8771 46.9701 10.8958C46.4581 9.8718 45.8394 9.16779 45.1141 8.78379C44.4314 8.3998 43.6634 8.2078 42.8101 8.2078C41.9568 8.2078 41.1674 8.3998 40.4421 8.78379C39.7594 9.16779 39.1621 9.8718 38.6501 10.8958C38.1381 11.8771 37.7328 13.2211 37.4341 14.9278C37.1781 16.6345 37.0501 18.8318 37.0501 21.5198C37.0501 24.1651 37.1781 26.3625 37.4341 28.1118C37.7328 29.8611 38.1381 31.2691 38.6501 32.3358C39.1621 33.3598 39.7594 34.0851 40.4421 34.5118C41.1674 34.9385 41.9568 35.1518 42.8101 35.1518Z" fill="url(#paint1_linear_239_993)"></path> <path d="M79.9351 42.7678C77.6311 42.7678 75.5404 42.2985 73.6631 41.3598C71.8284 40.3785 70.2498 38.9705 68.9271 37.1358C67.6044 35.3011 66.5804 33.0825 65.8551 30.4798C65.1298 27.8345 64.7671 24.8478 64.7671 21.5198C64.7671 18.1918 65.1298 15.2265 65.8551 12.6238C66.5804 10.0211 67.6044 7.8238 68.9271 6.0318C70.2498 4.2398 71.8284 2.8958 73.6631 1.9998C75.5404 1.06113 77.6311 0.591797 79.9351 0.591797C82.1964 0.591797 84.2658 1.06113 86.1431 1.9998C88.0204 2.93846 89.6204 4.30379 90.9431 6.09579C92.2658 7.84513 93.2898 10.0211 94.0151 12.6238C94.7404 15.2265 95.1031 18.1918 95.1031 21.5198C95.1031 24.8478 94.7404 27.8345 94.0151 30.4798C93.2898 33.0825 92.2658 35.3011 90.9431 37.1358C89.6204 38.9705 88.0204 40.3785 86.1431 41.3598C84.2658 42.2985 82.1964 42.7678 79.9351 42.7678ZM79.9351 35.1518C80.7884 35.1518 81.5564 34.9385 82.2391 34.5118C82.9644 34.0851 83.5831 33.3598 84.0951 32.3358C84.6071 31.2691 84.9911 29.8611 85.2471 28.1118C85.5458 26.3625 85.6951 24.1651 85.6951 21.5198C85.6951 18.8318 85.5458 16.6345 85.2471 14.9278C84.9911 13.2211 84.6071 11.8771 84.0951 10.8958C83.5831 9.8718 82.9644 9.16779 82.2391 8.78379C81.5564 8.3998 80.7884 8.2078 79.9351 8.2078C79.0818 8.2078 78.2924 8.3998 77.5671 8.78379C76.8844 9.16779 76.2871 9.8718 75.7751 10.8958C75.2631 11.8771 74.8578 13.2211 74.5591 14.9278C74.3031 16.6345 74.1751 18.8318 74.1751 21.5198C74.1751 24.1651 74.3031 26.3625 74.5591 28.1118C74.8578 29.8611 75.2631 31.2691 75.7751 32.3358C76.2871 33.3598 76.8844 34.0851 77.5671 34.5118C78.2924 34.9385 79.0818 35.1518 79.9351 35.1518Z" fill="url(#paint2_linear_239_993)"></path> <path d="M115.473 41.9998V32.8478H111.505V28.4958L115.473 28.1758V24.9758H111.505V20.6238L115.473 20.3038V1.35979H126.289C128.294 1.35979 130.193 1.59446 131.985 2.0638C133.777 2.49046 135.334 3.19446 136.657 4.1758C138.022 5.11446 139.089 6.33046 139.857 7.8238C140.625 9.31713 141.009 11.1091 141.009 13.1998C141.009 15.2905 140.603 17.0825 139.793 18.5758C138.982 20.0691 137.894 21.2851 136.529 22.2238C135.206 23.1625 133.649 23.8665 131.857 24.3358C130.065 24.7625 128.209 24.9758 126.289 24.9758H124.369V28.1118H136.849V32.8478H124.369V41.9998H115.473ZM124.369 20.2398H125.969C127.931 20.2398 129.467 19.6638 130.577 18.5118C131.729 17.3171 132.305 15.7171 132.305 13.7118C132.305 11.4078 131.729 9.76513 130.577 8.78379C129.467 7.75979 127.931 7.2478 125.969 7.2478H124.369V20.2398Z" fill="url(#paint3_linear_239_993)"></path> <defs> <linearGradient id="paint0_linear_239_993" x1="-2" y1="51" x2="63.056" y2="-61.1249" gradientUnits="userSpaceOnUse"> <stop stop-color="#515DC8"></stop> <stop offset="1" stop-color="#6666CC"></stop> </linearGradient> <linearGradient id="paint1_linear_239_993" x1="-2" y1="51" x2="63.056" y2="-61.1249" gradientUnits="userSpaceOnUse"> <stop stop-color="#515DC8"></stop> <stop offset="1" stop-color="#6666CC"></stop> </linearGradient> <linearGradient id="paint2_linear_239_993" x1="-2" y1="51" x2="63.056" y2="-61.1249" gradientUnits="userSpaceOnUse"> <stop stop-color="#515DC8"></stop> <stop offset="1" stop-color="#6666CC"></stop> </linearGradient> <linearGradient id="paint3_linear_239_993" x1="-2" y1="51" x2="63.056" y2="-61.1249" gradientUnits="userSpaceOnUse"> <stop stop-color="#515DC8"></stop> <stop offset="1" stop-color="#6666CC"></stop> </linearGradient> </defs> </svg> 