<?xml version="1.0" encoding="UTF-8"?> <svg xmlns="http://www.w3.org/2000/svg" width="282" height="28" viewBox="0 0 282 28" fill="none"> <path d="M7.34961 17.2969H0.898438V13.4473H7.34961V6.96094H11.1992V13.4473H17.6328V17.2969H11.1992V23.6953H7.34961V17.2969ZM23.1699 27L32.3105 5.90625H20.498V1.33594H38.2168V4.74609L28.8477 27H23.1699ZM67.7832 21.6738H64.6895V27H59.3984V21.6738H48.7812V17.8945L59.6973 1.30078H64.6895V17.4551H67.7832V21.6738ZM59.3984 17.4551V13.0957C59.3984 12.9434 59.3984 12.7266 59.3984 12.4453C59.4102 12.1523 59.4219 11.8242 59.4336 11.4609C59.4453 11.0977 59.457 10.7227 59.4688 10.3359C59.4922 9.94922 59.5098 9.58008 59.5215 9.22852C59.5449 8.87695 59.5625 8.57227 59.5742 8.31445C59.5977 8.04492 59.6152 7.85156 59.627 7.73438H59.4688C59.2578 8.22656 59.0176 8.74805 58.748 9.29883C58.4902 9.84961 58.1914 10.4004 57.8516 10.9512L53.5625 17.4551H59.3984ZM87.084 12.2695C87.084 13.5 87.0137 14.7305 86.873 15.9609C86.7441 17.1797 86.5039 18.3457 86.1523 19.459C85.8125 20.5723 85.3438 21.6152 84.7461 22.5879C84.1602 23.5488 83.4102 24.3809 82.4961 25.084C81.5938 25.7871 80.5039 26.3438 79.2266 26.7539C77.9609 27.1523 76.4727 27.3516 74.7617 27.3516C74.5156 27.3516 74.2461 27.3457 73.9531 27.334C73.6602 27.3223 73.3613 27.3047 73.0566 27.2812C72.7637 27.2695 72.4766 27.2461 72.1953 27.2109C71.9141 27.1875 71.668 27.1523 71.457 27.1055V22.7461C71.8906 22.8633 72.3535 22.957 72.8457 23.0273C73.3496 23.0859 73.8594 23.1152 74.375 23.1152C75.957 23.1152 77.2578 22.9219 78.2773 22.5352C79.2969 22.1367 80.1055 21.5859 80.7031 20.8828C81.3008 20.168 81.7227 19.3184 81.9688 18.334C82.2266 17.3496 82.3848 16.2656 82.4434 15.082H82.2148C81.9805 15.5039 81.6992 15.8965 81.3711 16.2598C81.043 16.623 80.6562 16.9395 80.2109 17.209C79.7656 17.4785 79.2617 17.6895 78.6992 17.8418C78.1367 17.9941 77.5098 18.0703 76.8184 18.0703C75.7051 18.0703 74.7031 17.8887 73.8125 17.5254C72.9219 17.1621 72.166 16.6348 71.5449 15.9434C70.9355 15.252 70.4668 14.4023 70.1387 13.3945C69.8105 12.3867 69.6465 11.2324 69.6465 9.93164C69.6465 8.53711 69.8398 7.28906 70.2266 6.1875C70.625 5.08594 71.1875 4.1543 71.9141 3.39258C72.6406 2.61914 73.5195 2.02734 74.5508 1.61719C75.5938 1.20703 76.7598 1.00195 78.0488 1.00195C79.3145 1.00195 80.498 1.23047 81.5996 1.6875C82.7012 2.13281 83.6562 2.81836 84.4648 3.74414C85.2734 4.66992 85.9121 5.8418 86.3809 7.25977C86.8496 8.67773 87.084 10.3477 87.084 12.2695ZM78.1543 5.36133C77.6738 5.36133 77.2344 5.44922 76.8359 5.625C76.4375 5.80078 76.0918 6.07617 75.7988 6.45117C75.5176 6.81445 75.2949 7.2832 75.1309 7.85742C74.9785 8.41992 74.9023 9.08789 74.9023 9.86133C74.9023 11.1035 75.166 12.0879 75.6934 12.8145C76.2207 13.541 77.0176 13.9043 78.084 13.9043C78.623 13.9043 79.1152 13.7988 79.5605 13.5879C80.0059 13.377 80.3867 13.1016 80.7031 12.7617C81.0195 12.4219 81.2598 12.041 81.4238 11.6191C81.5996 11.1973 81.6875 10.7695 81.6875 10.3359C81.6875 9.73828 81.6113 9.14648 81.459 8.56055C81.3184 7.96289 81.0957 7.42969 80.791 6.96094C80.498 6.48047 80.1289 6.09375 79.6836 5.80078C79.25 5.50781 78.7402 5.36133 78.1543 5.36133ZM106.912 12.2695C106.912 13.5 106.842 14.7305 106.701 15.9609C106.572 17.1797 106.332 18.3457 105.98 19.459C105.641 20.5723 105.172 21.6152 104.574 22.5879C103.988 23.5488 103.238 24.3809 102.324 25.084C101.422 25.7871 100.332 26.3438 99.0547 26.7539C97.7891 27.1523 96.3008 27.3516 94.5898 27.3516C94.3438 27.3516 94.0742 27.3457 93.7812 27.334C93.4883 27.3223 93.1895 27.3047 92.8848 27.2812C92.5918 27.2695 92.3047 27.2461 92.0234 27.2109C91.7422 27.1875 91.4961 27.1523 91.2852 27.1055V22.7461C91.7188 22.8633 92.1816 22.957 92.6738 23.0273C93.1777 23.0859 93.6875 23.1152 94.2031 23.1152C95.7852 23.1152 97.0859 22.9219 98.1055 22.5352C99.125 22.1367 99.9336 21.5859 100.531 20.8828C101.129 20.168 101.551 19.3184 101.797 18.334C102.055 17.3496 102.213 16.2656 102.271 15.082H102.043C101.809 15.5039 101.527 15.8965 101.199 16.2598C100.871 16.623 100.484 16.9395 100.039 17.209C99.5938 17.4785 99.0898 17.6895 98.5273 17.8418C97.9648 17.9941 97.3379 18.0703 96.6465 18.0703C95.5332 18.0703 94.5312 17.8887 93.6406 17.5254C92.75 17.1621 91.9941 16.6348 91.373 15.9434C90.7637 15.252 90.2949 14.4023 89.9668 13.3945C89.6387 12.3867 89.4746 11.2324 89.4746 9.93164C89.4746 8.53711 89.668 7.28906 90.0547 6.1875C90.4531 5.08594 91.0156 4.1543 91.7422 3.39258C92.4688 2.61914 93.3477 2.02734 94.3789 1.61719C95.4219 1.20703 96.5879 1.00195 97.877 1.00195C99.1426 1.00195 100.326 1.23047 101.428 1.6875C102.529 2.13281 103.484 2.81836 104.293 3.74414C105.102 4.66992 105.74 5.8418 106.209 7.25977C106.678 8.67773 106.912 10.3477 106.912 12.2695ZM97.9824 5.36133C97.502 5.36133 97.0625 5.44922 96.6641 5.625C96.2656 5.80078 95.9199 6.07617 95.627 6.45117C95.3457 6.81445 95.123 7.2832 94.959 7.85742C94.8066 8.41992 94.7305 9.08789 94.7305 9.86133C94.7305 11.1035 94.9941 12.0879 95.5215 12.8145C96.0488 13.541 96.8457 13.9043 97.9121 13.9043C98.4512 13.9043 98.9434 13.7988 99.3887 13.5879C99.834 13.377 100.215 13.1016 100.531 12.7617C100.848 12.4219 101.088 12.041 101.252 11.6191C101.428 11.1973 101.516 10.7695 101.516 10.3359C101.516 9.73828 101.439 9.14648 101.287 8.56055C101.146 7.96289 100.924 7.42969 100.619 6.96094C100.326 6.48047 99.957 6.09375 99.5117 5.80078C99.0781 5.50781 98.5684 5.36133 97.9824 5.36133ZM136.619 21.6738H133.525V27H128.234V21.6738H117.617V17.8945L128.533 1.30078H133.525V17.4551H136.619V21.6738ZM128.234 17.4551V13.0957C128.234 12.9434 128.234 12.7266 128.234 12.4453C128.246 12.1523 128.258 11.8242 128.27 11.4609C128.281 11.0977 128.293 10.7227 128.305 10.3359C128.328 9.94922 128.346 9.58008 128.357 9.22852C128.381 8.87695 128.398 8.57227 128.41 8.31445C128.434 8.04492 128.451 7.85156 128.463 7.73438H128.305C128.094 8.22656 127.854 8.74805 127.584 9.29883C127.326 9.84961 127.027 10.4004 126.688 10.9512L122.398 17.4551H128.234ZM147.887 10.582C148.988 10.582 150.014 10.752 150.963 11.0918C151.912 11.4316 152.738 11.9297 153.441 12.5859C154.145 13.2422 154.695 14.0625 155.094 15.0469C155.492 16.0195 155.691 17.1387 155.691 18.4043C155.691 19.7988 155.475 21.0527 155.041 22.166C154.607 23.2676 153.969 24.2051 153.125 24.9785C152.281 25.7402 151.232 26.3262 149.979 26.7363C148.736 27.1465 147.307 27.3516 145.689 27.3516C145.045 27.3516 144.406 27.3223 143.773 27.2637C143.141 27.2051 142.531 27.1172 141.945 27C141.371 26.8945 140.82 26.7539 140.293 26.5781C139.777 26.4023 139.309 26.1973 138.887 25.9629V21.2695C139.297 21.5039 139.771 21.7266 140.311 21.9375C140.85 22.1367 141.406 22.3125 141.98 22.4648C142.566 22.6055 143.152 22.7227 143.738 22.8164C144.324 22.8984 144.881 22.9395 145.408 22.9395C146.979 22.9395 148.174 22.6172 148.994 21.9727C149.814 21.3164 150.225 20.2793 150.225 18.8613C150.225 17.5957 149.82 16.6348 149.012 15.9785C148.215 15.3105 146.979 14.9766 145.303 14.9766C144.998 14.9766 144.67 14.9941 144.318 15.0293C143.979 15.0645 143.639 15.1113 143.299 15.1699C142.971 15.2285 142.654 15.293 142.35 15.3633C142.045 15.4219 141.781 15.4863 141.559 15.5566L139.396 14.3965L140.363 1.30078H153.934V5.90625H145.074L144.652 10.9512C145.027 10.8691 145.461 10.7871 145.953 10.7051C146.457 10.623 147.102 10.582 147.887 10.582ZM175.924 14.1504C175.924 16.2246 175.76 18.0762 175.432 19.7051C175.115 21.334 174.6 22.7168 173.885 23.8535C173.182 24.9902 172.268 25.8574 171.143 26.4551C170.029 27.0527 168.682 27.3516 167.1 27.3516C165.611 27.3516 164.316 27.0527 163.215 26.4551C162.113 25.8574 161.199 24.9902 160.473 23.8535C159.746 22.7168 159.201 21.334 158.838 19.7051C158.486 18.0762 158.311 16.2246 158.311 14.1504C158.311 12.0762 158.469 10.2188 158.785 8.57812C159.113 6.9375 159.629 5.54883 160.332 4.41211C161.035 3.27539 161.943 2.4082 163.057 1.81055C164.17 1.20117 165.518 0.896484 167.1 0.896484C168.576 0.896484 169.865 1.19531 170.967 1.79297C172.068 2.39062 172.988 3.25781 173.727 4.39453C174.465 5.53125 175.016 6.91992 175.379 8.56055C175.742 10.2012 175.924 12.0645 175.924 14.1504ZM163.725 14.1504C163.725 17.0801 163.977 19.2832 164.48 20.7598C164.984 22.2363 165.857 22.9746 167.1 22.9746C168.318 22.9746 169.191 22.2422 169.719 20.7773C170.258 19.3125 170.527 17.1035 170.527 14.1504C170.527 11.209 170.258 9 169.719 7.52344C169.191 6.03516 168.318 5.29102 167.1 5.29102C166.479 5.29102 165.951 5.47852 165.518 5.85352C165.096 6.22852 164.75 6.78516 164.48 7.52344C164.211 8.26172 164.018 9.1875 163.9 10.3008C163.783 11.4023 163.725 12.6855 163.725 14.1504ZM178.895 18.4922V14.0977H188.334V18.4922H178.895ZM200.727 10.582C201.828 10.582 202.854 10.752 203.803 11.0918C204.752 11.4316 205.578 11.9297 206.281 12.5859C206.984 13.2422 207.535 14.0625 207.934 15.0469C208.332 16.0195 208.531 17.1387 208.531 18.4043C208.531 19.7988 208.314 21.0527 207.881 22.166C207.447 23.2676 206.809 24.2051 205.965 24.9785C205.121 25.7402 204.072 26.3262 202.818 26.7363C201.576 27.1465 200.146 27.3516 198.529 27.3516C197.885 27.3516 197.246 27.3223 196.613 27.2637C195.98 27.2051 195.371 27.1172 194.785 27C194.211 26.8945 193.66 26.7539 193.133 26.5781C192.617 26.4023 192.148 26.1973 191.727 25.9629V21.2695C192.137 21.5039 192.611 21.7266 193.15 21.9375C193.689 22.1367 194.246 22.3125 194.82 22.4648C195.406 22.6055 195.992 22.7227 196.578 22.8164C197.164 22.8984 197.721 22.9395 198.248 22.9395C199.818 22.9395 201.014 22.6172 201.834 21.9727C202.654 21.3164 203.064 20.2793 203.064 18.8613C203.064 17.5957 202.66 16.6348 201.852 15.9785C201.055 15.3105 199.818 14.9766 198.143 14.9766C197.838 14.9766 197.51 14.9941 197.158 15.0293C196.818 15.0645 196.479 15.1113 196.139 15.1699C195.811 15.2285 195.494 15.293 195.189 15.3633C194.885 15.4219 194.621 15.4863 194.398 15.5566L192.236 14.3965L193.203 1.30078H206.773V5.90625H197.914L197.492 10.9512C197.867 10.8691 198.301 10.7871 198.793 10.7051C199.297 10.623 199.941 10.582 200.727 10.582ZM228.764 14.1504C228.764 16.2246 228.6 18.0762 228.271 19.7051C227.955 21.334 227.439 22.7168 226.725 23.8535C226.021 24.9902 225.107 25.8574 223.982 26.4551C222.869 27.0527 221.521 27.3516 219.939 27.3516C218.451 27.3516 217.156 27.0527 216.055 26.4551C214.953 25.8574 214.039 24.9902 213.312 23.8535C212.586 22.7168 212.041 21.334 211.678 19.7051C211.326 18.0762 211.15 16.2246 211.15 14.1504C211.15 12.0762 211.309 10.2188 211.625 8.57812C211.953 6.9375 212.469 5.54883 213.172 4.41211C213.875 3.27539 214.783 2.4082 215.896 1.81055C217.01 1.20117 218.357 0.896484 219.939 0.896484C221.416 0.896484 222.705 1.19531 223.807 1.79297C224.908 2.39062 225.828 3.25781 226.566 4.39453C227.305 5.53125 227.855 6.91992 228.219 8.56055C228.582 10.2012 228.764 12.0645 228.764 14.1504ZM216.564 14.1504C216.564 17.0801 216.816 19.2832 217.32 20.7598C217.824 22.2363 218.697 22.9746 219.939 22.9746C221.158 22.9746 222.031 22.2422 222.559 20.7773C223.098 19.3125 223.367 17.1035 223.367 14.1504C223.367 11.209 223.098 9 222.559 7.52344C222.031 6.03516 221.158 5.29102 219.939 5.29102C219.318 5.29102 218.791 5.47852 218.357 5.85352C217.936 6.22852 217.59 6.78516 217.32 7.52344C217.051 8.26172 216.857 9.1875 216.74 10.3008C216.623 11.4023 216.564 12.6855 216.564 14.1504ZM231.734 18.4922V14.0977H241.174V18.4922H231.734ZM261.6 12.2695C261.6 13.5 261.529 14.7305 261.389 15.9609C261.26 17.1797 261.02 18.3457 260.668 19.459C260.328 20.5723 259.859 21.6152 259.262 22.5879C258.676 23.5488 257.926 24.3809 257.012 25.084C256.109 25.7871 255.02 26.3438 253.742 26.7539C252.477 27.1523 250.988 27.3516 249.277 27.3516C249.031 27.3516 248.762 27.3457 248.469 27.334C248.176 27.3223 247.877 27.3047 247.572 27.2812C247.279 27.2695 246.992 27.2461 246.711 27.2109C246.43 27.1875 246.184 27.1523 245.973 27.1055V22.7461C246.406 22.8633 246.869 22.957 247.361 23.0273C247.865 23.0859 248.375 23.1152 248.891 23.1152C250.473 23.1152 251.773 22.9219 252.793 22.5352C253.812 22.1367 254.621 21.5859 255.219 20.8828C255.816 20.168 256.238 19.3184 256.484 18.334C256.742 17.3496 256.9 16.2656 256.959 15.082H256.73C256.496 15.5039 256.215 15.8965 255.887 16.2598C255.559 16.623 255.172 16.9395 254.727 17.209C254.281 17.4785 253.777 17.6895 253.215 17.8418C252.652 17.9941 252.025 18.0703 251.334 18.0703C250.221 18.0703 249.219 17.8887 248.328 17.5254C247.438 17.1621 246.682 16.6348 246.061 15.9434C245.451 15.252 244.982 14.4023 244.654 13.3945C244.326 12.3867 244.162 11.2324 244.162 9.93164C244.162 8.53711 244.355 7.28906 244.742 6.1875C245.141 5.08594 245.703 4.1543 246.43 3.39258C247.156 2.61914 248.035 2.02734 249.066 1.61719C250.109 1.20703 251.275 1.00195 252.564 1.00195C253.83 1.00195 255.014 1.23047 256.115 1.6875C257.217 2.13281 258.172 2.81836 258.98 3.74414C259.789 4.66992 260.428 5.8418 260.896 7.25977C261.365 8.67773 261.6 10.3477 261.6 12.2695ZM252.67 5.36133C252.189 5.36133 251.75 5.44922 251.352 5.625C250.953 5.80078 250.607 6.07617 250.314 6.45117C250.033 6.81445 249.811 7.2832 249.646 7.85742C249.494 8.41992 249.418 9.08789 249.418 9.86133C249.418 11.1035 249.682 12.0879 250.209 12.8145C250.736 13.541 251.533 13.9043 252.6 13.9043C253.139 13.9043 253.631 13.7988 254.076 13.5879C254.521 13.377 254.902 13.1016 255.219 12.7617C255.535 12.4219 255.775 12.041 255.939 11.6191C256.115 11.1973 256.203 10.7695 256.203 10.3359C256.203 9.73828 256.127 9.14648 255.975 8.56055C255.834 7.96289 255.611 7.42969 255.307 6.96094C255.014 6.48047 254.645 6.09375 254.199 5.80078C253.766 5.50781 253.256 5.36133 252.67 5.36133ZM272.814 0.966797C273.881 0.966797 274.889 1.0957 275.838 1.35352C276.787 1.61133 277.619 1.99805 278.334 2.51367C279.049 3.0293 279.617 3.67383 280.039 4.44727C280.461 5.2207 280.672 6.12891 280.672 7.17188C280.672 7.94531 280.555 8.64844 280.32 9.28125C280.086 9.90234 279.764 10.4707 279.354 10.9863C278.943 11.4902 278.457 11.9414 277.895 12.3398C277.332 12.7383 276.723 13.1016 276.066 13.4297C276.746 13.793 277.408 14.1973 278.053 14.6426C278.709 15.0879 279.289 15.5918 279.793 16.1543C280.297 16.7051 280.701 17.3262 281.006 18.0176C281.311 18.709 281.463 19.4824 281.463 20.3379C281.463 21.4043 281.252 22.3711 280.83 23.2383C280.408 24.1055 279.816 24.8438 279.055 25.4531C278.293 26.0625 277.379 26.5312 276.312 26.8594C275.258 27.1875 274.092 27.3516 272.814 27.3516C271.432 27.3516 270.201 27.1934 269.123 26.877C268.045 26.5605 267.137 26.1094 266.398 25.5234C265.66 24.9375 265.098 24.2168 264.711 23.3613C264.336 22.5059 264.148 21.5449 264.148 20.4785C264.148 19.5996 264.277 18.8086 264.535 18.1055C264.793 17.4023 265.145 16.7695 265.59 16.207C266.035 15.6445 266.557 15.1465 267.154 14.7129C267.752 14.2793 268.391 13.8984 269.07 13.5703C268.496 13.207 267.957 12.8145 267.453 12.3926C266.949 11.959 266.51 11.4844 266.135 10.9688C265.771 10.4414 265.479 9.86133 265.256 9.22852C265.045 8.5957 264.939 7.89844 264.939 7.13672C264.939 6.11719 265.15 5.22656 265.572 4.46484C266.006 3.69141 266.586 3.04687 267.312 2.53125C268.039 2.00391 268.877 1.61133 269.826 1.35352C270.775 1.0957 271.771 0.966797 272.814 0.966797ZM269.176 20.1621C269.176 20.6309 269.252 21.0645 269.404 21.4629C269.557 21.8496 269.779 22.1836 270.072 22.4648C270.377 22.7461 270.752 22.9688 271.197 23.1328C271.643 23.2852 272.158 23.3613 272.744 23.3613C273.975 23.3613 274.895 23.0742 275.504 22.5C276.113 21.9141 276.418 21.1465 276.418 20.1973C276.418 19.7051 276.312 19.2656 276.102 18.8789C275.902 18.4805 275.639 18.1172 275.311 17.7891C274.994 17.4492 274.631 17.1387 274.221 16.8574C273.811 16.5762 273.4 16.3066 272.99 16.0488L272.604 15.8027C272.088 16.0605 271.619 16.3418 271.197 16.6465C270.775 16.9395 270.412 17.2676 270.107 17.6309C269.814 17.9824 269.586 18.3691 269.422 18.791C269.258 19.2129 269.176 19.6699 269.176 20.1621ZM272.779 4.93945C272.393 4.93945 272.029 4.99805 271.689 5.11523C271.361 5.23242 271.074 5.40234 270.828 5.625C270.594 5.84766 270.406 6.12305 270.266 6.45117C270.125 6.7793 270.055 7.14844 270.055 7.55859C270.055 8.05078 270.125 8.47852 270.266 8.8418C270.418 9.19336 270.617 9.50977 270.863 9.79102C271.121 10.0605 271.414 10.3066 271.742 10.5293C272.082 10.7402 272.439 10.9512 272.814 11.1621C273.178 10.9746 273.523 10.7695 273.852 10.5469C274.18 10.3242 274.467 10.0723 274.713 9.79102C274.971 9.49805 275.176 9.16992 275.328 8.80664C275.48 8.44336 275.557 8.02734 275.557 7.55859C275.557 7.14844 275.486 6.7793 275.346 6.45117C275.205 6.12305 275.012 5.84766 274.766 5.625C274.52 5.40234 274.227 5.23242 273.887 5.11523C273.547 4.99805 273.178 4.93945 272.779 4.93945Z" fill="#423783"></path> </svg> 