<?xml version="1.0" encoding="UTF-8"?> <svg xmlns="http://www.w3.org/2000/svg" width="50" height="52" viewBox="0 0 50 52" fill="none"> <path fill-rule="evenodd" clip-rule="evenodd" d="M0 15.24C0 15.24 0.0162411 8.50456 0.0162411 6.43512C0.0162411 2.64924 0.859351 0.26526 5.94779 0.26526C11.0362 0.26526 41.2312 0 44.8067 0C49.207 0 49.931 3.05422 49.931 6.43579C49.931 8.2096 50 14.7689 50 14.7689L0 15.24ZM12.646 21.3937C17.7865 21.3937 17.9158 29.4656 13.0019 29.4656C7.17456 29.4656 7.60356 21.3937 12.646 21.3937ZM13.0019 41.5218C7.17456 41.5218 7.60289 33.4499 12.646 33.4499C17.7865 33.4499 17.9158 41.5218 13.0019 41.5218ZM25.2047 21.3937C30.3452 21.3937 30.4745 29.4656 25.5606 29.4656C19.7339 29.4656 20.1623 21.3937 25.2047 21.3937ZM25.5613 41.5218C19.7339 41.5218 20.1623 33.4499 25.2054 33.4499C30.3452 33.4499 30.4751 41.5218 25.5613 41.5218ZM37.7674 21.3937C42.908 21.3937 43.0365 29.4656 38.1234 29.4656C32.296 29.4656 32.725 21.3937 37.7674 21.3937ZM4.64185 19.0894L4.93349 46.1832C4.93349 46.1832 23.4596 45.6007 28.5447 45.6007C38.394 45.6007 35.2192 35.4391 35.2192 35.4391L45.8332 35.136L45.9319 19.0914H49.5006L49.841 51.5296L0.567713 52L0.719962 19.09H4.64185V19.0894Z" fill="#FF6170"></path> </svg> 