<?xml version="1.0" encoding="UTF-8"?> <svg xmlns="http://www.w3.org/2000/svg" width="304" height="652" viewBox="0 0 304 652" fill="none"> <g clip-path="url(#clip0)"> <path d="M0 36C0 21.0011 0 13.5016 3.81966 8.24429C5.05325 6.5464 6.5464 5.05325 8.24429 3.81966C13.5016 0 21.0011 0 36 0H268C282.999 0 290.498 0 295.756 3.81966C297.454 5.05325 298.947 6.5464 300.18 8.24429C304 13.5016 304 21.0011 304 36V616C304 630.999 304 638.498 300.18 643.756C298.947 645.454 297.454 646.947 295.756 648.18C290.498 652 282.999 652 268 652H36C21.0011 652 13.5016 652 8.24429 648.18C6.5464 646.947 5.05325 645.454 3.81966 643.756C0 638.498 0 630.999 0 616V36Z" fill="white"></path> </g> <defs> <clipPath id="clip0"> <path d="M0 36C0 21.0011 0 13.5016 3.81966 8.24429C5.05325 6.5464 6.5464 5.05325 8.24429 3.81966C13.5016 0 21.0011 0 36 0H268C282.999 0 290.498 0 295.756 3.81966C297.454 5.05325 298.947 6.5464 300.18 8.24429C304 13.5016 304 21.0011 304 36V616C304 630.999 304 638.498 300.18 643.756C298.947 645.454 297.454 646.947 295.756 648.18C290.498 652 282.999 652 268 652H36C21.0011 652 13.5016 652 8.24429 648.18C6.5464 646.947 5.05325 645.454 3.81966 643.756C0 638.498 0 630.999 0 616V36Z" fill="white"></path> </clipPath> </defs> </svg> 