<?xml version="1.0" encoding="UTF-8"?> <svg xmlns="http://www.w3.org/2000/svg" width="48" height="62" viewBox="0 0 48 62" fill="none"> <path fill-rule="evenodd" clip-rule="evenodd" d="M0.0146147 10.3916C-0.185078 3.87669 1.64174 0.419348 6.72281 0.219459C11.8039 0.0195695 37.4237 0.219457 40.6779 0.0121643C43.9322 -0.195128 48 2.23315 48 8.35569V50.6507L0.828176 50.2806C0.828176 50.2806 0.221703 16.8991 0.0146147 10.3916ZM26.8252 44.7577L41.0995 45.387L40.996 40.945L26.8252 40.8192V44.7577ZM6.85593 29.7142C6.85593 32.2535 8.91942 34.6374 11.1456 34.6374C13.3718 34.6374 32.2465 34.4745 35.7374 34.4745C39.2283 34.4745 41.4471 33.364 41.4471 30.3435C41.4471 27.3229 41.2918 15.1963 41.1365 11.8352C40.9812 8.47414 38.755 7.07492 35.7374 7.07492C32.7198 7.07492 14.7919 7.39326 11.1456 7.39326C7.49939 7.39326 6.85593 8.65922 6.85593 10.8876V29.7142ZM18.4011 11.4947V17.0027H14.0375L14.5848 11.3244L18.4011 11.4947ZM18.8227 27.3377H28.4819L28.8147 24.4801H32.8751V28.7444H29.7762V31.2541L17.9426 31.4244L17.3435 29.0405H14.496L14.3333 25.1464L18.7709 24.8132L18.8227 27.3377ZM29.5026 11.9759L33.5556 12.1536L33.4298 17.173L29.5026 17.5062V11.9759ZM19.7028 22.8217L19.8581 19.2163L22.5207 18.9498V11.665L26.3297 11.8278L26.1669 22.8217H19.7028ZM46.0844 53.8564V62L2.61801 61.4744L2.88427 54.3968L46.0844 53.8564Z" fill="#FF6170"></path> </svg> 