<?xml version="1.0" encoding="UTF-8"?> <svg xmlns="http://www.w3.org/2000/svg" width="608" height="699" viewBox="0 0 608 699" fill="none"> <g clip-path="url(#clip0)"> <path d="M0 54C0 31.5016 0 20.2524 5.72949 12.3664C7.57988 9.8196 9.8196 7.57988 12.3664 5.72949C20.2524 0 31.5016 0 54 0H554C576.498 0 587.748 0 595.634 5.72949C598.18 7.57988 600.42 9.8196 602.271 12.3664C608 20.2524 608 31.5016 608 54V645C608 667.498 608 678.748 602.271 686.634C600.42 689.18 598.18 691.42 595.634 693.271C587.748 699 576.498 699 554 699H54C31.5016 699 20.2524 699 12.3664 693.271C9.8196 691.42 7.57988 689.18 5.72949 686.634C0 678.748 0 667.498 0 645V54Z" fill="white"></path> </g> <defs> <clipPath id="clip0"> <path d="M0 54C0 31.5016 0 20.2524 5.72949 12.3664C7.57988 9.8196 9.8196 7.57988 12.3664 5.72949C20.2524 0 31.5016 0 54 0H554C576.498 0 587.748 0 595.634 5.72949C598.18 7.57988 600.42 9.8196 602.271 12.3664C608 20.2524 608 31.5016 608 54V645C608 667.498 608 678.748 602.271 686.634C600.42 689.18 598.18 691.42 595.634 693.271C587.748 699 576.498 699 554 699H54C31.5016 699 20.2524 699 12.3664 693.271C9.8196 691.42 7.57988 689.18 5.72949 686.634C0 678.748 0 667.498 0 645V54Z" fill="white"></path> </clipPath> </defs> </svg> 