<?xml version="1.0" encoding="UTF-8"?> <svg xmlns="http://www.w3.org/2000/svg" width="544" height="225" viewBox="0 0 544 225" fill="none"> <path d="M0 54C0 31.5016 0 20.2524 5.72949 12.3664C7.57988 9.8196 9.8196 7.57988 12.3664 5.72949C20.2524 0 31.5016 0 54 0H490C512.498 0 523.748 0 531.634 5.72949C534.18 7.57988 536.42 9.8196 538.271 12.3664C544 20.2524 544 31.5016 544 54V171C544 193.498 544 204.748 538.271 212.634C536.42 215.18 534.18 217.42 531.634 219.271C523.748 225 512.498 225 490 225H54C31.5016 225 20.2524 225 12.3664 219.271C9.8196 217.42 7.57988 215.18 5.72949 212.634C0 204.748 0 193.498 0 171V54Z" fill="white"></path> </svg> 