<?xml version="1.0" encoding="UTF-8"?> <svg xmlns="http://www.w3.org/2000/svg" width="64" height="48" viewBox="0 0 64 48" fill="none"> <path fill-rule="evenodd" clip-rule="evenodd" d="M54.0515 34.5561C54.5512 33.2234 54.9193 31.8462 55.1508 30.4436L63.9947 31.3343C64.0317 33.4987 63.8737 35.662 63.5226 37.7988L54.0515 34.5561ZM55.4609 23.1023L62.5712 21.7872C63.0838 23.5118 63.4607 25.2729 63.6988 27.0548L55.5314 26.9922C55.5763 25.6948 55.5434 24.3959 55.4327 23.1023H55.4609ZM54.6576 17.96C54.4743 17.626 54.2841 17.2641 54.0797 16.9649L58.6391 13.263C59.5361 14.6287 60.3231 16.0619 60.9927 17.5494L54.9958 19.7483C54.8901 19.1221 54.7703 18.5306 54.6294 17.96H54.6576ZM36.9204 20.1311L48.2096 10.3265C44.1083 7.13946 38.809 5.1354 32.3118 5.1354C10.5861 5.1354 0.290524 25.1203 4.99082 40.6239L10.7341 39.5106L12.3971 43.136L3.85627 47.7634C-6.34063 28.9266 3.85627 0 32.4104 0C40.7822 0 47.4838 2.51899 52.5223 6.54102L56.1233 3.41664L57.5327 6.43665L43.2204 26.2198L36.9204 20.1311ZM32.1356 23.5616C43.0724 23.5616 43.0019 40.0603 32.3258 40.0603C20.5998 40.0603 21.1283 23.5616 32.1074 23.5616H32.1356ZM62.536 42.2105C61.9384 44.2084 61.1527 46.1466 60.1894 48L48.5338 41.8347C50.1887 40.7141 51.5821 39.2574 52.621 37.5622L62.536 42.2105Z" fill="#FF6170"></path> </svg> 