<?xml version="1.0" encoding="UTF-8"?> <svg xmlns="http://www.w3.org/2000/svg" width="1224" height="532" viewBox="0 0 1224 532" fill="none"> <g clip-path="url(#clip0)"> <path d="M0 54C0 31.5016 0 20.2524 5.72949 12.3664C7.57988 9.8196 9.8196 7.57988 12.3664 5.72949C20.2524 0 31.5016 0 54 0H1170C1192.5 0 1203.75 0 1211.63 5.72949C1214.18 7.57988 1216.42 9.8196 1218.27 12.3664C1224 20.2524 1224 31.5016 1224 54V478C1224 500.498 1224 511.748 1218.27 519.634C1216.42 522.18 1214.18 524.42 1211.63 526.271C1203.75 532 1192.5 532 1170 532H54C31.5016 532 20.2524 532 12.3664 526.271C9.8196 524.42 7.57988 522.18 5.72949 519.634C0 511.748 0 500.498 0 478V54Z" fill="white"></path> </g> <defs> <clipPath id="clip0"> <path d="M0 54C0 31.5016 0 20.2524 5.72949 12.3664C7.57988 9.8196 9.8196 7.57988 12.3664 5.72949C20.2524 0 31.5016 0 54 0H1170C1192.5 0 1203.75 0 1211.63 5.72949C1214.18 7.57988 1216.42 9.8196 1218.27 12.3664C1224 20.2524 1224 31.5016 1224 54V478C1224 500.498 1224 511.748 1218.27 519.634C1216.42 522.18 1214.18 524.42 1211.63 526.271C1203.75 532 1192.5 532 1170 532H54C31.5016 532 20.2524 532 12.3664 526.271C9.8196 524.42 7.57988 522.18 5.72949 519.634C0 511.748 0 500.498 0 478V54Z" fill="white"></path> </clipPath> </defs> </svg> 