<?xml version="1.0" encoding="UTF-8"?> <svg xmlns="http://www.w3.org/2000/svg" width="919" height="478" viewBox="0 0 919 478" fill="none"> <g clip-path="url(#clip0)"> <path d="M0 54C0 31.5016 0 20.2524 5.72949 12.3664C7.57988 9.8196 9.8196 7.57988 12.3664 5.72949C20.2524 0 31.5016 0 54 0H865C887.498 0 898.748 0 906.634 5.72949C909.18 7.57988 911.42 9.8196 913.271 12.3664C919 20.2524 919 31.5016 919 54V424C919 446.498 919 457.748 913.271 465.634C911.42 468.18 909.18 470.42 906.634 472.271C898.748 478 887.498 478 865 478H54C31.5016 478 20.2524 478 12.3664 472.271C9.8196 470.42 7.57988 468.18 5.72949 465.634C0 457.748 0 446.498 0 424V54Z" fill="white"></path> </g> <defs> <clipPath id="clip0"> <path d="M0 54C0 31.5016 0 20.2524 5.72949 12.3664C7.57988 9.8196 9.8196 7.57988 12.3664 5.72949C20.2524 0 31.5016 0 54 0H865C887.498 0 898.748 0 906.634 5.72949C909.18 7.57988 911.42 9.8196 913.271 12.3664C919 20.2524 919 31.5016 919 54V424C919 446.498 919 457.748 913.271 465.634C911.42 468.18 909.18 470.42 906.634 472.271C898.748 478 887.498 478 865 478H54C31.5016 478 20.2524 478 12.3664 472.271C9.8196 470.42 7.57988 468.18 5.72949 465.634C0 457.748 0 446.498 0 424V54Z" fill="white"></path> </clipPath> </defs> </svg> 