<?xml version="1.0" encoding="UTF-8"?> <svg xmlns="http://www.w3.org/2000/svg" width="100" height="15" viewBox="0 0 100 15" fill="none"> <path fill-rule="evenodd" clip-rule="evenodd" d="M12.34 1.92463C12.34 1.39903 12.4842 0.966188 12.7721 0.625578C13.0605 0.285145 13.4827 0.114929 14.0389 0.114929C14.5955 0.114929 15.0226 0.285145 15.3206 0.625578C15.6188 0.966188 15.7678 1.39903 15.7678 1.92463V6.50676C15.7678 7.71287 15.6385 8.80272 15.3803 9.77559C15.1219 10.7486 14.7046 11.6387 14.1284 12.4463C13.5523 13.2538 12.7375 13.8814 11.6844 14.3289C10.6312 14.7763 9.37927 14.9999 7.92861 14.9999C5.12676 14.9999 3.10497 14.2267 1.86269 12.6798C0.620775 11.1327 0 9.09455 0 6.56516V1.92463C0 1.39903 0.15383 0.966188 0.461854 0.625578C0.770241 0.285145 1.20227 0.114929 1.75868 0.114929C2.33491 0.114929 2.78185 0.285145 3.09987 0.625578C3.4179 0.966188 3.57682 1.39903 3.57682 1.92463V6.71116C3.57682 10.155 5.03711 11.8769 7.95825 11.8769C10.8794 11.8769 12.34 10.1356 12.34 6.65258V1.92463Z" fill="#FF6170"></path> <path fill-rule="evenodd" clip-rule="evenodd" d="M77.6025 6.5751C78.2464 6.25728 78.5686 5.74574 78.5686 5.04066C78.5686 3.79252 77.3239 3.16846 74.8352 3.16846C74.3828 3.16846 72.0204 3.203 71.15 3.27244V6.98265C71.6899 7.02877 73.9822 7.05192 74.6263 7.05192C75.9665 7.05192 76.9586 6.89292 77.6025 6.5751ZM67.7061 1.97554C67.7061 1.10594 68.2263 0.579801 69.2664 0.396765C70.3624 0.198417 73.1717 0.0992432 74.8622 0.0992432C79.6735 0.0992432 82.0792 1.68585 82.0792 4.85889C82.0792 5.94197 81.7635 6.85733 81.1316 7.60478C80.5003 8.35224 79.6239 8.93215 78.3587 9.22558L81.3993 12.1926C81.9451 12.8005 82.1803 13.8365 80.986 14.4084C80.0072 14.8773 78.9287 14.5471 78.1405 13.6343L74.5373 9.6869C74.296 9.71753 71.5969 9.70239 71.095 9.64132V13.1997C71.095 13.6115 70.9468 13.9471 70.6496 14.2064C70.3523 14.4656 70.0391 14.5954 69.5189 14.5954C68.9803 14.5954 68.4259 14.4656 68.1381 14.2064C67.8501 13.9471 67.7061 13.6115 67.7061 13.1997V1.97554Z" fill="#FF6170"></path> <path fill-rule="evenodd" clip-rule="evenodd" d="M96.5725 1.92457C96.5725 1.39897 96.7167 0.966127 97.0045 0.625517C97.2929 0.285084 97.7151 0.114868 98.2713 0.114868C98.8279 0.114868 99.255 0.285084 99.5531 0.625517C99.8513 0.966127 100 1.39897 100 1.92457V6.5067C100 7.71281 99.8711 8.80266 99.6129 9.77553C99.3543 10.7486 98.937 11.6386 98.3608 12.4463C97.7847 13.2537 96.9699 13.8814 95.9168 14.3288C94.8636 14.7763 93.6117 14.9999 92.161 14.9999C89.3592 14.9999 87.3374 14.2266 86.0951 12.6797C84.8532 11.1326 84.2324 9.09449 84.2324 6.5651V1.92457C84.2324 1.39897 84.3863 0.966127 84.6943 0.625517C85.0027 0.285084 85.4347 0.114868 85.9911 0.114868C86.5673 0.114868 87.0143 0.285084 87.3323 0.625517C87.6503 0.966127 87.8092 1.39897 87.8092 1.92457V6.7111C87.8092 10.155 89.2695 11.8769 92.1907 11.8769C95.1118 11.8769 96.5725 10.1355 96.5725 6.65252V1.92457Z" fill="#FF6170"></path> <path fill-rule="evenodd" clip-rule="evenodd" d="M26.0342 14.9998C23.3867 14.9998 21.3158 14.3578 19.8204 13.0737C18.325 11.7896 17.5771 9.98966 17.5771 7.67429C17.5771 5.33916 18.3558 3.49562 19.9121 2.14315C21.4689 0.790681 23.5952 0.114624 26.2916 0.114624C28.3754 0.114624 29.9565 0.386863 31.0349 0.931697C32.0888 1.45712 32.3954 2.10932 31.9541 2.8874C31.5375 3.58803 30.7287 3.88484 29.5275 3.5932C28.2774 3.30137 26.8813 3.06243 26.0482 3.06243C24.6262 3.06243 23.5112 3.47123 22.7019 4.2883C21.8929 5.10556 21.4887 6.23404 21.4887 7.67429C21.4887 9.0362 21.9113 10.1065 22.7574 10.8845C23.6029 11.663 24.7122 12.0522 26.0849 12.0522C27.0655 12.0522 28.596 11.7798 29.9685 11.2348C31.1453 10.7873 31.9788 10.8845 32.4688 11.5266C33.0329 12.266 32.7878 12.9761 31.7337 13.6575C30.3118 14.5524 28.4122 14.9998 26.0342 14.9998Z" fill="#FF6170"></path> <path fill-rule="evenodd" clip-rule="evenodd" d="M55.0537 0.481626C55.4014 0.16078 55.8736 0 56.4695 0C57.0657 0 57.5428 0.16078 57.9005 0.481626C58.258 0.802829 58.4369 1.23567 58.4369 1.78068C58.4369 2.34492 58.258 2.78239 57.9005 3.0938C57.5428 3.40521 57.0657 3.56101 56.4695 3.56101C55.8736 3.56101 55.4014 3.41002 55.0537 3.1084C54.7061 2.80679 54.5322 2.36415 54.5322 1.78068C54.5322 1.23567 54.7061 0.802829 55.0537 0.481626Z" fill="#FF6170"></path> <path fill-rule="evenodd" clip-rule="evenodd" d="M51.4219 0.596251C51.1238 0.275047 50.7067 0.114624 50.1699 0.114624C49.6335 0.114624 49.2211 0.275047 48.9331 0.596251C48.6449 0.917097 48.5007 1.32127 48.5007 1.80753V5.76221H38.4192V1.80753C38.4192 1.32127 38.2703 0.917097 37.9719 0.596251C37.6741 0.275047 37.2568 0.114624 36.72 0.114624C36.1836 0.114624 35.7712 0.275047 35.4832 0.596251C35.195 0.917097 35.0508 1.32127 35.0508 1.80753V13.0151C35.0508 13.5017 35.195 13.9055 35.4832 14.2264C35.7712 14.5476 36.1836 14.708 36.72 14.708C37.2568 14.708 37.6741 14.5476 37.9719 14.2264C38.2703 13.9055 38.4192 13.5017 38.4192 13.0151V9.06041H48.5007V13.0151C48.5007 13.5017 48.6449 13.9055 48.9331 14.2264C49.2211 14.5476 49.6335 14.708 50.1699 14.708C50.7067 14.708 51.1238 14.5476 51.4219 14.2264C51.7202 13.9055 51.8692 13.5017 51.8692 13.0151V1.80753C51.8692 1.32127 51.7202 0.917097 51.4219 0.596251Z" fill="#FF6170"></path> <path fill-rule="evenodd" clip-rule="evenodd" d="M54.8008 6.94705C54.8008 6.46062 54.945 6.05662 55.2332 5.73578C55.5212 5.41457 55.9334 5.25415 56.47 5.25415C57.0068 5.25415 57.4239 5.41457 57.7219 5.73578C58.0201 6.05662 58.169 6.46062 58.169 6.94705V13.015C58.169 13.5016 58.0201 13.9054 57.7219 14.2263C57.4239 14.5475 57.0068 14.7079 56.47 14.7079C55.9334 14.7079 55.5212 14.5475 55.2332 14.2263C54.945 13.9054 54.8008 13.5016 54.8008 13.015V6.94705Z" fill="#FF6170"></path> <path fill-rule="evenodd" clip-rule="evenodd" d="M61.4019 11.2487C61.7697 10.85 62.2712 10.6503 62.9073 10.6503C63.5432 10.6503 64.0499 10.85 64.4274 11.2487C64.8049 11.6477 64.9938 12.1293 64.9938 12.6936C64.9938 13.2774 64.81 13.7587 64.4421 14.1381C64.0748 14.5175 63.563 14.7073 62.9073 14.7073C62.2514 14.7073 61.7448 14.5175 61.387 14.1381C61.0293 13.7587 60.8506 13.2774 60.8506 12.6936C60.8506 12.1293 61.0344 11.6477 61.4019 11.2487Z" fill="#FF6170"></path> </svg> 