<?xml version="1.0" encoding="UTF-8"?> <svg xmlns="http://www.w3.org/2000/svg" width="439" height="748" viewBox="0 0 439 748" fill="none"> <g clip-path="url(#clip0)"> <path d="M0 54C0 31.5016 0 20.2524 5.72949 12.3664C7.57988 9.8196 9.8196 7.57988 12.3664 5.72949C20.2524 0 31.5016 0 54 0H385C407.498 0 418.748 0 426.634 5.72949C429.18 7.57988 431.42 9.8196 433.271 12.3664C439 20.2524 439 31.5016 439 54V694C439 716.498 439 727.748 433.271 735.634C431.42 738.18 429.18 740.42 426.634 742.271C418.748 748 407.498 748 385 748H54C31.5016 748 20.2524 748 12.3664 742.271C9.8196 740.42 7.57988 738.18 5.72949 735.634C0 727.748 0 716.498 0 694V54Z" fill="white"></path> </g> <defs> <clipPath id="clip0"> <path d="M0 54C0 31.5016 0 20.2524 5.72949 12.3664C7.57988 9.8196 9.8196 7.57988 12.3664 5.72949C20.2524 0 31.5016 0 54 0H385C407.498 0 418.748 0 426.634 5.72949C429.18 7.57988 431.42 9.8196 433.271 12.3664C439 20.2524 439 31.5016 439 54V694C439 716.498 439 727.748 433.271 735.634C431.42 738.18 429.18 740.42 426.634 742.271C418.748 748 407.498 748 385 748H54C31.5016 748 20.2524 748 12.3664 742.271C9.8196 740.42 7.57988 738.18 5.72949 735.634C0 727.748 0 716.498 0 694V54Z" fill="white"></path> </clipPath> </defs> </svg> 