<?xml version="1.0" encoding="UTF-8"?> <svg xmlns="http://www.w3.org/2000/svg" width="82" height="63" viewBox="0 0 82 63" fill="none"> <path fill-rule="evenodd" clip-rule="evenodd" d="M73.2964 16.2334C70.7185 18.3963 70.1159 25.9776 70.1159 25.9776H68.3152C68.3152 25.9776 68.4545 19.7608 65.3512 16.6757C62.2472 13.5894 56.6938 13.1357 56.6938 13.1357L56.8738 11.2422C56.8738 11.2422 63.3054 10.4947 65.4339 8.37913C68.3657 5.4646 68.1911 0.151411 68.1911 0.151411L70.0259 0C70.0259 0 70.35 6.00322 72.8811 8.49284C75.3653 10.937 81.9118 11.2224 81.9118 11.2224L82 13.2213C81.9994 13.2213 76.4697 13.572 73.2964 16.2334ZM59.5855 40.4318L58.5382 63L46.3111 62.9402L46.1214 40.062L57.2788 39.9363L48.5685 24.7269L23.0738 24.9986L26.019 30.2519L21.6933 30.8863L18.3796 25.0895C18.3796 25.0895 19.5764 16.9372 26.295 16.9372C33.0137 16.9372 48.5679 17.2095 54.5507 17.4806C60.4314 17.7481 67.8111 30.7001 59.5855 40.4318ZM15.2775 20.3227H14.2157C14.2157 20.3227 14.2273 16.626 12.3968 14.8085C10.5657 12.9909 7.36145 12.7587 7.36145 12.7587L7.46787 11.6426C7.46787 11.6426 11.3319 11.2374 12.5877 9.9914C14.3167 8.2744 14.1433 5.11031 14.1433 5.11031L15.2258 5.02114C15.2258 5.02114 15.4593 8.51558 16.9517 9.98243C18.4173 11.4223 22.2364 11.6318 22.2364 11.6318L22.2881 12.809C22.2881 12.809 19.026 13.0155 17.1548 14.5828C15.6333 15.8564 15.2775 20.3227 15.2775 20.3227ZM7.86255 21.5544C7.86255 21.5544 8.03404 25.1099 9.5264 26.5767C10.992 28.0166 14.8725 28.165 14.8725 28.165L14.9248 29.3428C14.9248 29.3428 11.6634 29.5487 9.79215 31.1173C8.27121 32.3908 7.91606 36.856 7.91606 36.856H6.85426C6.85426 36.856 6.86582 33.1599 5.03534 31.3423C3.20425 29.5242 0 29.2926 0 29.2926L0.105815 28.177C0.105815 28.177 3.9705 27.7719 5.22568 26.5252C6.95521 24.8082 6.78129 21.6442 6.78129 21.6442L7.86255 21.5544ZM19.3927 33.5129L27.0321 33.1509L31.7263 29.7995L35.9601 32.0641L43.3234 30.5242L45.1642 32.9695L48.0169 33.1509L50.7785 37.1361L16.6318 37.8608L19.3927 33.5129ZM43.532 62.9276L15.3626 62.7905L12.8985 40.4378L42.2068 40.1068L43.532 62.9276ZM28.4941 46.0837C24.9566 46.0837 24.2049 50.4478 26.6119 51.978L26.264 56.1841L30.9831 56.354L30.3251 52.0038C32.6148 50.4992 32.0401 46.0837 28.4941 46.0837Z" fill="#FF6170"></path> </svg> 