<?xml version="1.0" encoding="UTF-8"?> <svg xmlns="http://www.w3.org/2000/svg" width="340" height="520" viewBox="0 0 340 520" fill="none"> <path d="M182.092 180.757C204.379 180.757 225.126 184.195 244.331 191.07C263.536 197.944 280.251 208.02 294.477 221.296C308.703 234.571 319.847 251.166 327.908 271.08C335.969 290.756 340 313.396 340 338.999C340 367.21 335.614 392.576 326.841 415.098C318.068 437.382 305.146 456.347 288.075 471.994C271.004 487.403 249.784 499.257 224.414 507.554C199.282 515.851 170.356 520 137.636 520C124.596 520 111.674 519.407 98.8703 518.222C86.0669 517.037 73.7378 515.259 61.8828 512.888C50.265 510.754 39.1213 507.91 28.4519 504.354C18.0195 500.798 8.53557 496.649 0 491.908V396.962C8.29847 401.704 17.901 406.208 28.8075 410.475C39.7141 414.505 50.9763 418.061 62.5941 421.143C74.4491 423.988 86.304 426.358 98.159 428.255C110.014 429.914 121.276 430.744 131.946 430.744C163.717 430.744 187.901 424.225 204.498 411.186C221.095 397.91 229.393 376.93 229.393 348.245C229.393 322.642 221.213 303.202 204.854 289.926C188.731 276.414 163.717 269.657 129.812 269.657C123.647 269.657 117.008 270.013 109.895 270.724C103.02 271.435 96.1437 272.383 89.2678 273.569C82.629 274.754 76.2273 276.058 70.0628 277.48C63.8982 278.666 58.5635 279.97 54.0586 281.392L10.3138 257.922L29.8745 -7H304.435V86.1673H125.188L116.653 188.225C124.24 186.565 133.013 184.906 142.971 183.246C153.166 181.587 166.206 180.757 182.092 180.757Z" fill="#4F3793"></path> </svg> 