<?xml version="1.0" encoding="UTF-8"?> <svg xmlns="http://www.w3.org/2000/svg" width="304" height="374" viewBox="0 0 304 374" fill="none"> <path d="M0 54C0 31.5016 0 20.2524 5.72949 12.3664C7.57988 9.8196 9.8196 7.57988 12.3664 5.72949C20.2524 0 31.5016 0 54 0H250C272.498 0 283.748 0 291.634 5.72949C294.18 7.57988 296.42 9.8196 298.271 12.3664C304 20.2524 304 31.5016 304 54V320C304 342.498 304 353.748 298.271 361.634C296.42 364.18 294.18 366.42 291.634 368.271C283.748 374 272.498 374 250 374H54C31.5016 374 20.2524 374 12.3664 368.271C9.8196 366.42 7.57988 364.18 5.72949 361.634C0 353.748 0 342.498 0 320V54Z" fill="white"></path> </svg> 