<?xml version="1.0" encoding="UTF-8"?> <svg xmlns="http://www.w3.org/2000/svg" width="28" height="28" viewBox="0 0 28 28" fill="none"> <g clip-path="url(#clip0)"> <path d="M14 27.5001C21.4558 27.5001 27.5 21.456 27.5 14.0001C27.5 6.54428 21.4558 0.500122 14 0.500122C6.54416 0.500122 0.5 6.54428 0.5 14.0001C0.5 21.456 6.54416 27.5001 14 27.5001Z" fill="#423783" stroke="#423783"></path> <path d="M12.192 15.9041C12.192 15.3494 12.2933 14.8854 12.496 14.5121C12.7093 14.1388 13.0827 13.7441 13.616 13.3281C13.9787 13.0614 14.2613 12.8268 14.464 12.6241C14.6773 12.4214 14.832 12.2241 14.928 12.0321C15.024 11.8294 15.072 11.5948 15.072 11.3281C15.072 10.9228 14.928 10.6134 14.64 10.4001C14.3627 10.1868 13.9627 10.0801 13.44 10.0801C12.9707 10.0801 12.5227 10.1494 12.096 10.2881C11.6693 10.4268 11.2427 10.6028 10.816 10.8161L10.096 9.31211C10.5867 9.05611 11.1147 8.84277 11.68 8.67211C12.256 8.50144 12.896 8.41611 13.6 8.41611C14.6667 8.41611 15.4933 8.67744 16.08 9.20011C16.6773 9.72277 16.976 10.4001 16.976 11.2321C16.976 11.6908 16.9013 12.0854 16.752 12.4161C16.6133 12.7361 16.4053 13.0348 16.128 13.3121C15.8507 13.5894 15.5093 13.8828 15.104 14.1921C14.7733 14.4481 14.5173 14.6668 14.336 14.8481C14.1653 15.0294 14.048 15.2108 13.984 15.3921C13.9307 15.5734 13.904 15.7868 13.904 16.0321V16.4321H12.192V15.9041ZM11.888 18.9761C11.888 18.5281 12.0053 18.2134 12.24 18.0321C12.4853 17.8401 12.7787 17.7441 13.12 17.7441C13.4507 17.7441 13.7333 17.8401 13.968 18.0321C14.2133 18.2134 14.336 18.5281 14.336 18.9761C14.336 19.4134 14.2133 19.7281 13.968 19.9201C13.7333 20.1121 13.4507 20.2081 13.12 20.2081C12.7787 20.2081 12.4853 20.1121 12.24 19.9201C12.0053 19.7281 11.888 19.4134 11.888 18.9761Z" fill="white"></path> </g> <defs> <clipPath id="clip0"> <rect width="28" height="28" fill="white" transform="translate(0 0.00012207)"></rect> </clipPath> </defs> </svg> 