<svg width="160" height="18" viewBox="0 0 160 18" fill="none" xmlns="http://www.w3.org/2000/svg">
<g clip-path="url(#clip0)">
<path d="M7.0543 16C5.99236 16 5.02145 15.8368 4.14156 15.5104C3.27684 15.1692 2.53348 14.6871 1.91149 14.064C1.30467 13.4261 0.83438 12.6472 0.500628 11.7274C0.166876 10.8076 0 9.76171 0 8.58971V7.43255C0 6.27538 0.166876 5.2369 0.500628 4.31711C0.84955 3.39731 1.32742 2.62587 1.93424 2.00278C2.55624 1.36486 3.29959 0.875289 4.16431 0.534075C5.0442 0.19286 6.00753 0.0222528 7.0543 0.0222528C8.11624 0.0222528 9.07957 0.19286 9.94429 0.534075C10.8242 0.860454 11.5675 1.34261 12.1744 1.98053C12.7964 2.61845 13.2742 3.39731 13.608 4.31711C13.9417 5.22207 14.1086 6.26055 14.1086 7.43255V8.58971C14.1086 9.74687 13.9341 10.7854 13.5852 11.7051C13.2515 12.6249 12.7736 13.4038 12.1516 14.0417C11.5448 14.6796 10.8014 15.1692 9.92153 15.5104C9.05681 15.8368 8.10107 16 7.0543 16ZM7.0543 13.5076C8.29829 13.5076 9.30713 13.0997 10.0808 12.2837C10.8545 11.4529 11.2414 10.2216 11.2414 8.58971V7.43255C11.2414 6.63143 11.1352 5.92675 10.9228 5.3185C10.7256 4.69541 10.4373 4.18359 10.0581 3.78303C9.69398 3.36764 9.25403 3.0561 8.73823 2.8484C8.22243 2.62587 7.66112 2.5146 7.0543 2.5146C5.79515 2.5146 4.77872 2.93 4.00502 3.76078C3.2465 4.57673 2.86723 5.80065 2.86723 7.43255V8.58971C2.86723 10.2068 3.25408 11.4307 4.02778 12.2615C4.81665 13.0923 5.82549 13.5076 7.0543 13.5076Z" fill="white"/>
<path d="M16.6109 4.67316H18.6816L18.8864 5.91933C19.736 4.95503 20.9117 4.47288 22.4136 4.47288C23.8093 4.47288 24.894 4.88085 25.6677 5.6968C26.4565 6.49791 26.851 7.71442 26.851 9.34631V15.7997H24.2113V9.34631C24.2113 8.53037 24.0065 7.9147 23.5969 7.4993C23.2025 7.08391 22.6563 6.87622 21.9585 6.87622C21.1393 6.87622 20.4869 7.09133 20.0015 7.52156C19.5312 7.95178 19.2809 8.52295 19.2505 9.23505V15.7997H16.6109V4.67316Z" fill="white"/>
<path d="M33.4318 15.7997C32.2334 15.7997 31.308 15.4882 30.6556 14.8651C30.0185 14.2272 29.6999 13.3148 29.6999 12.128V0.222531H32.3396V11.8609C32.3396 12.4395 32.4685 12.8623 32.7264 13.1293C32.9843 13.3964 33.3787 13.5299 33.9097 13.5299H34.4786V15.7997H33.4318Z" fill="white"/>
<path d="M36.3026 4.67316H38.9423V15.7997H36.3026V4.67316ZM37.6225 3.33797C37.137 3.33797 36.7274 3.1822 36.3936 2.87065C36.0751 2.54427 35.9158 2.14372 35.9158 1.66898C35.9158 1.19425 36.0751 0.801112 36.3936 0.489569C36.7274 0.16319 37.137 0 37.6225 0C38.0927 0 38.4948 0.16319 38.8285 0.489569C39.1623 0.801112 39.3291 1.19425 39.3291 1.66898C39.3291 2.14372 39.1623 2.54427 38.8285 2.87065C38.4948 3.1822 38.0927 3.33797 37.6225 3.33797Z" fill="white"/>
<path d="M42.0111 4.67316H44.0819L44.2867 5.91933C45.1363 4.95503 46.312 4.47288 47.8139 4.47288C49.2096 4.47288 50.2942 4.88085 51.0679 5.6968C51.8568 6.49791 52.2512 7.71442 52.2512 9.34631V15.7997H49.6116V9.34631C49.6116 8.53037 49.4068 7.9147 48.9972 7.4993C48.6027 7.08391 48.0566 6.87622 47.3587 6.87622C46.5395 6.87622 45.8872 7.09133 45.4017 7.52156C44.9315 7.95178 44.6811 8.52295 44.6508 9.23505V15.7997H42.0111V4.67316Z" fill="white"/>
<path d="M59.7651 16C58.9459 16 58.2101 15.8813 57.5578 15.644C56.9055 15.3917 56.3441 15.0357 55.8739 14.5758C55.4036 14.1011 55.0395 13.5299 54.7816 12.8623C54.5389 12.1947 54.4175 11.4381 54.4175 10.5925V9.88039C54.4175 9.03477 54.5389 8.27816 54.7816 7.61057C55.0395 6.94298 55.4036 6.37923 55.8739 5.91933C56.3441 5.4446 56.9055 5.08855 57.5578 4.85118C58.2101 4.59898 58.9459 4.47288 59.7651 4.47288C61.4187 4.47288 62.7234 4.96987 63.6791 5.96384C64.6349 6.95781 65.1127 8.38201 65.1127 10.2364V11.1043H57.0572C57.133 12.0389 57.3985 12.714 57.8536 13.1293C58.3087 13.5299 58.9459 13.7302 59.7651 13.7302C60.5691 13.7302 61.1532 13.5967 61.5173 13.3296C61.8966 13.0478 62.1469 12.7214 62.2682 12.3505H64.9989C64.8776 12.8697 64.6879 13.3519 64.43 13.7969C64.1721 14.242 63.8308 14.6277 63.406 14.9541C62.9813 15.2805 62.4655 15.5401 61.8586 15.733C61.2518 15.911 60.554 16 59.7651 16ZM59.7651 6.7427C58.9914 6.7427 58.3846 6.92814 57.9446 7.29903C57.5047 7.66991 57.224 8.25591 57.1027 9.05702H62.4275C62.3213 8.22624 62.0407 7.63282 61.5856 7.27677C61.1456 6.92072 60.5388 6.7427 59.7651 6.7427Z" fill="white"/>
<path d="M71.4852 16C69.9227 16 68.7621 15.6662 68.0036 14.9986C67.2602 14.3162 66.8279 13.3593 66.7065 12.128H69.4827C69.6041 12.7659 69.8013 13.2184 70.0744 13.4854C70.3626 13.7376 70.8329 13.8637 71.4852 13.8637C72.2589 13.8637 72.7823 13.7599 73.0554 13.5522C73.3436 13.3296 73.4877 13.0403 73.4877 12.6843C73.4877 12.2837 73.3209 11.9796 72.9871 11.7719C72.6685 11.5642 72.2665 11.401 71.7811 11.2823C71.2956 11.1488 70.7722 11.0301 70.2109 10.9263C69.6496 10.8076 69.1262 10.637 68.6408 10.4145C68.1553 10.1771 67.7457 9.85814 67.4119 9.45758C67.0934 9.04219 66.9341 8.47102 66.9341 7.74409C66.9341 7.28419 67.0251 6.85396 67.2071 6.45341C67.3892 6.05285 67.6698 5.71164 68.0491 5.42976C68.4284 5.13306 68.8987 4.90311 69.46 4.73992C70.0365 4.56189 70.7115 4.47288 71.4852 4.47288C72.9416 4.47288 74.0339 4.80668 74.7621 5.47427C75.4903 6.12703 75.915 7.04682 76.0364 8.23366H73.2602C73.1388 7.62541 72.9492 7.2026 72.6913 6.96523C72.4486 6.72786 72.0465 6.60918 71.4852 6.60918C70.8329 6.60918 70.3702 6.71303 70.0971 6.92072C69.8392 7.12842 69.7103 7.38062 69.7103 7.67733C69.7103 8.04822 69.8696 8.32267 70.1882 8.5007C70.5219 8.66389 70.9315 8.80482 71.417 8.9235C71.9024 9.02735 72.4258 9.13862 72.9871 9.2573C73.5484 9.36115 74.0718 9.53918 74.5573 9.79138C75.0427 10.0287 75.4447 10.37 75.7633 10.815C76.0971 11.2601 76.264 11.8609 76.264 12.6175C76.264 13.1071 76.1653 13.5596 75.9681 13.975C75.7861 14.3904 75.4978 14.7464 75.1034 15.0431C74.7241 15.3398 74.2311 15.5772 73.6243 15.7552C73.0326 15.9184 72.3196 16 71.4852 16Z" fill="white"/>
<path d="M83.2098 16C82.3906 16 81.6472 15.8813 80.9797 15.644C80.3274 15.3917 79.7661 15.0357 79.2958 14.5758C78.8407 14.1011 78.4842 13.5299 78.2263 12.8623C77.9836 12.1947 77.8622 11.4381 77.8622 10.5925V9.88039C77.8622 9.04961 77.9836 8.30042 78.2263 7.63282C78.4842 6.96523 78.8483 6.40148 79.3186 5.94159C79.7889 5.46685 80.3502 5.10338 81.0025 4.85118C81.67 4.59898 82.4058 4.47288 83.2098 4.47288C84.651 4.47288 85.7661 4.82151 86.5549 5.51878C87.359 6.21604 87.8748 7.121 88.1023 8.23366H85.2806C85.1592 7.8331 84.9089 7.50672 84.5296 7.25452C84.1504 7.00232 83.6725 6.87622 83.096 6.87622C82.7623 6.87622 82.4437 6.93556 82.1403 7.05424C81.852 7.15809 81.5942 7.33611 81.3666 7.58832C81.139 7.82568 80.957 8.13723 80.8205 8.52295C80.6991 8.89383 80.6384 9.34631 80.6384 9.88039V10.5925C80.6384 11.1117 80.7067 11.5642 80.8432 11.9499C80.9797 12.3208 81.1618 12.6324 81.3893 12.8846C81.6169 13.1219 81.8748 13.3 82.163 13.4186C82.4665 13.5373 82.7775 13.5967 83.096 13.5967C83.7484 13.5967 84.2414 13.4557 84.5752 13.1739C84.9241 12.892 85.1592 12.5433 85.2806 12.128H88.1023C87.8748 13.3 87.359 14.242 86.5549 14.9541C85.7661 15.6514 84.651 16 83.2098 16Z" fill="white"/>
<path d="M90.0339 0.222531H92.6736V5.63004C93.4321 4.8586 94.4864 4.47288 95.8366 4.47288C97.2323 4.47288 98.317 4.88085 99.0907 5.6968C99.8796 6.49791 100.274 7.71442 100.274 9.34631V15.7997H97.6343V9.34631C97.6343 8.53037 97.4295 7.9147 97.0199 7.4993C96.6255 7.08391 96.0793 6.87622 95.3815 6.87622C94.5623 6.87622 93.91 7.09133 93.4245 7.52156C92.9542 7.95178 92.7039 8.52295 92.6736 9.23505V15.7997H90.0339V0.222531Z" fill="white"/>
<path d="M107.902 16C106.187 16 104.845 15.5253 103.874 14.5758C102.918 13.6263 102.44 12.2986 102.44 10.5925V9.88039C102.44 9.03477 102.562 8.27816 102.804 7.61057C103.062 6.94298 103.426 6.37923 103.897 5.91933C104.382 5.4446 104.959 5.08855 105.626 4.85118C106.294 4.59898 107.052 4.47288 107.902 4.47288C109.616 4.47288 110.951 4.94761 111.907 5.89708C112.878 6.84655 113.363 8.17432 113.363 9.88039V10.5925C113.363 11.4381 113.234 12.1947 112.976 12.8623C112.733 13.5299 112.369 14.1011 111.884 14.5758C111.414 15.0357 110.837 15.3917 110.154 15.644C109.487 15.8813 108.736 16 107.902 16ZM107.902 13.5967C108.766 13.5967 109.426 13.3519 109.881 12.8623C110.352 12.3727 110.587 11.6161 110.587 10.5925V9.88039C110.587 8.87158 110.344 8.12239 109.859 7.63282C109.388 7.12842 108.736 6.87622 107.902 6.87622C107.037 6.87622 106.369 7.121 105.899 7.61057C105.444 8.10014 105.216 8.85675 105.216 9.88039V10.5925C105.216 11.6013 105.452 12.3579 105.922 12.8623C106.407 13.3519 107.067 13.5967 107.902 13.5967Z" fill="white"/>
<path d="M120.413 16C118.699 16 117.356 15.5253 116.385 14.5758C115.429 13.6263 114.951 12.2986 114.951 10.5925V9.88039C114.951 9.03477 115.073 8.27816 115.316 7.61057C115.573 6.94298 115.938 6.37923 116.408 5.91933C116.893 5.4446 117.47 5.08855 118.137 4.85118C118.805 4.59898 119.563 4.47288 120.413 4.47288C122.127 4.47288 123.462 4.94761 124.418 5.89708C125.389 6.84655 125.874 8.17432 125.874 9.88039V10.5925C125.874 11.4381 125.745 12.1947 125.487 12.8623C125.245 13.5299 124.881 14.1011 124.395 14.5758C123.925 15.0357 123.348 15.3917 122.666 15.644C121.998 15.8813 121.247 16 120.413 16ZM120.413 13.5967C121.278 13.5967 121.938 13.3519 122.393 12.8623C122.863 12.3727 123.098 11.6161 123.098 10.5925V9.88039C123.098 8.87158 122.855 8.12239 122.37 7.63282C121.9 7.12842 121.247 6.87622 120.413 6.87622C119.548 6.87622 118.881 7.121 118.41 7.61057C117.955 8.10014 117.728 8.85675 117.728 9.88039V10.5925C117.728 11.6013 117.963 12.3579 118.433 12.8623C118.919 13.3519 119.579 13.5967 120.413 13.5967Z" fill="white"/>
<path d="M131.877 15.7997C130.679 15.7997 129.753 15.4882 129.101 14.8651C128.464 14.2272 128.145 13.3148 128.145 12.128V0.222531H130.785V11.8609C130.785 12.4395 130.914 12.8623 131.172 13.1293C131.43 13.3964 131.824 13.5299 132.355 13.5299H132.924V15.7997H131.877Z" fill="white"/>
<path d="M137.133 16C136.602 16 136.162 15.8294 135.813 15.4882C135.479 15.1321 135.313 14.7093 135.313 14.2197C135.313 13.7302 135.479 13.3148 135.813 12.9736C136.162 12.6175 136.602 12.4395 137.133 12.4395C137.664 12.4395 138.096 12.6175 138.43 12.9736C138.779 13.3148 138.954 13.7302 138.954 14.2197C138.954 14.7093 138.779 15.1321 138.43 15.4882C138.096 15.8294 137.664 16 137.133 16Z" fill="white"/>
<path d="M141.457 4.67316H143.527L143.732 5.91933C144.127 5.4446 144.612 5.08855 145.189 4.85118C145.78 4.59898 146.433 4.47288 147.146 4.47288H148.283V6.87622H147.146C146.099 6.87622 145.325 7.09875 144.825 7.54381C144.339 7.98887 144.096 8.58971 144.096 9.34631V15.7997H141.457V4.67316Z" fill="white"/>
<path d="M154.311 16C152.976 16 151.922 15.5994 151.148 14.7983C150.374 13.9824 149.987 12.7585 149.987 11.1266V4.67316H152.627V11.1266C152.627 11.9425 152.824 12.5582 153.219 12.9736C153.613 13.389 154.129 13.5967 154.766 13.5967C155.54 13.5967 156.154 13.3815 156.609 12.9513C157.08 12.5211 157.33 11.9499 157.36 11.2378V4.67316H160V15.7997H157.929L157.724 14.5758C157.315 15.0357 156.822 15.3917 156.245 15.644C155.669 15.8813 155.024 16 154.311 16Z" fill="white"/>
</g>
<defs>
<clipPath id="clip0">
<rect width="160" height="18" fill="white"/>
</clipPath>
</defs>
</svg>
