<?xml version="1.0" encoding="UTF-8"?> <svg xmlns="http://www.w3.org/2000/svg" xmlns:xlink="http://www.w3.org/1999/xlink" viewBox="0 0 48 48"> <g id="surface1"> <path style=" fill:#2196F3;" d="M 38 44 L 12 44 L 12 4 L 38 4 C 40.210938 4 42 5.789063 42 8 L 42 40 C 42 42.210938 40.210938 44 38 44 "></path> <path style=" fill:#0D47A1;" d="M 10 4 L 12 4 L 12 44 L 10 44 C 7.789063 44 6 42.210938 6 40 L 6 8 C 6 5.789063 7.789063 4 10 4 "></path> <path style=" fill:#E3F2FD;" d="M 30 28 L 30 20 L 24 20 L 24 28 L 19 28 L 27 38 L 35 28 Z "></path> <path style=" fill:#E3F2FD;" d="M 24 15 L 30 15 L 30 18 L 24 18 Z "></path> <path style=" fill:#E3F2FD;" d="M 24 10 L 30 10 L 30 13 L 24 13 Z "></path> </g> </svg> 