<?xml version="1.0" encoding="UTF-8"?> <svg xmlns="http://www.w3.org/2000/svg" width="800" height="800" viewBox="0 0 800 800" fill="none"> <path opacity="0.4" d="M491.77 517.903L383.189 455.059L273.198 518.719L280.384 522.878C270.552 524.809 261.299 527.995 253.47 532.531C226.054 548.399 226.195 574.202 253.783 590.165C281.371 606.127 325.946 606.205 353.362 590.337C361.175 585.817 366.749 580.481 370.084 574.799L382.453 581.956L491.77 517.903Z" fill="#A8C4E5"></path> <path d="M277.519 520.022L276.063 519.802C274.34 519.551 273.166 517.95 273.416 516.224L292.722 385.763C292.972 384.037 294.569 382.86 296.291 383.111L297.748 383.331C299.47 383.582 300.644 385.183 300.394 386.909L281.088 517.369C280.838 519.08 279.241 520.273 277.519 520.022Z" fill="#2C1F9C"></path> <path d="M371.257 356.696L302.945 409.605C291.781 416.449 283.405 409.652 283.421 397.897L282.121 378.732C282.137 366.961 291.265 351.736 302.428 344.893L371.304 302.61C382.467 295.766 391.58 299.784 391.564 311.556L391.548 322.857C391.548 334.628 382.405 349.853 371.257 356.696Z" fill="#F2C94C"></path> <path d="M368.689 351.407L403.198 259.887C408.881 244.835 424.663 238.243 437.393 245.635L488.294 275.142C497.469 280.463 502.588 291.748 501.117 303.379L486.008 422.507L368.689 351.407Z" fill="#F2C94C"></path> <path d="M488.245 522.126C490.516 521.796 492.066 519.677 491.737 517.417L475.328 406.498C475 404.222 472.886 402.668 470.631 402.998C468.361 403.327 466.811 405.446 467.14 407.706L483.548 518.626C483.877 520.902 485.975 522.471 488.245 522.126Z" fill="#2C1F9C"></path> <path d="M385.582 580.952L384.706 580.874C382.451 580.685 380.791 578.708 380.979 576.463L393.004 430.119C393.192 427.859 395.165 426.195 397.403 426.384L398.28 426.462C400.535 426.651 402.194 428.628 402.007 430.873L389.982 577.217C389.794 579.477 387.821 581.14 385.582 580.952Z" fill="#2C1F9C"></path> <path d="M395.136 462.656L297.389 406.09C288.324 400.848 300.489 395.511 314.017 386.69L361.144 353.149C374.688 344.344 372.699 345.929 381.765 351.172L479.512 407.754C488.577 412.996 484.898 424.501 471.37 433.306L436.22 456.174C422.692 464.979 404.201 467.898 395.136 462.656Z" fill="#E7B10E"></path> <path d="M389.874 476.405L303.463 426.384C294.178 421 289.043 410.296 289.043 410.296C285.567 402.291 293.865 396.5 303.15 401.883L394.008 455.514C403.292 460.898 406.799 466.501 405.296 473.172C405.296 473.172 401.648 482.495 389.874 476.405Z" fill="#F2C94C"></path> <path d="M477.883 433.023L409.007 475.306C397.844 482.15 389.232 478.948 389.843 468.165L390.438 457.806C391.049 447.023 400.693 432.615 411.841 425.772L480.717 383.488C491.88 376.645 500.491 379.847 499.881 390.63L499.286 400.989C498.675 411.756 489.046 426.18 477.883 433.023Z" fill="#F2C94C"></path> <path d="M431.848 220.851C431.848 220.851 429.468 250.923 414.938 252.791C400.408 254.659 371.756 227.255 371.756 227.255C371.756 227.255 403.759 188.251 431.848 220.851Z" fill="#57383F"></path> <path d="M279.019 549.905L304.822 525.672C308.251 523.82 315.845 523.208 320.98 524.024C323.282 524.4 324.973 526.394 325.082 528.717L325.317 533.755C325.897 541.022 325.223 542.042 320.714 544.491L293.894 559.04C289.369 561.489 282.574 561.583 278.785 559.244L277.704 558.585C273.9 556.278 274.495 552.354 279.019 549.905Z" fill="#2C1F9C"></path> <path d="M307.893 563.687L329.296 535.482C332.365 533.08 339.755 531.197 344.954 531.166C347.286 531.15 349.291 532.829 349.776 535.121L350.841 540.049C352.626 547.112 352.124 548.242 348.085 551.413L324.051 570.247C320.012 573.418 313.326 574.642 309.193 572.978L308.019 572.507C303.901 570.828 303.838 566.857 307.893 563.687Z" fill="#2C1F9C"></path> <path d="M321.466 525.907C321.466 532.923 307.375 532.923 307.375 525.907V502.505H321.466V525.907Z" fill="#FFC2B0"></path> <path d="M344.669 540.237C344.669 547.253 330.578 547.253 330.578 540.237V516.835H344.669V540.237Z" fill="#FFC2B0"></path> <path d="M356.616 363.978C356.616 363.978 303.899 382.734 298.654 397.126C293.409 411.503 305.105 512.284 305.105 512.284C305.919 523.663 322.875 522.721 325.537 514.324L326.555 424.609C326.555 424.609 402.084 406.497 395.915 374.274C389.746 342.051 356.616 363.978 356.616 363.978Z" fill="#7A81EB"></path> <path d="M380.869 374.446C380.869 374.446 328.152 393.202 322.907 407.595C317.662 421.972 328.355 520.006 328.355 520.006C327.964 529.25 347.661 530.082 348.036 520.837L350.792 435.078C350.792 435.078 448.664 412.774 442.48 380.567C436.326 348.345 380.869 374.446 380.869 374.446Z" fill="#858CFF"></path> <path d="M367.262 344.108C365.9 320.22 367.935 310.331 366.275 280.855C368.467 245.651 369.062 235.951 396.447 235.041L403.633 237.442C407.062 238.588 410.366 240.11 413.466 241.962C446.596 261.785 453.407 266.023 450.62 286.412C450.009 296.99 442.259 285.156 442.697 292.25C443.245 301.212 448.71 321.193 442.322 355.597C441.414 360.463 440.098 367.62 435.996 370.366C418.194 382.279 373.086 358.909 367.262 344.108Z" fill="#E68429"></path> <path d="M396.621 251.002C395.697 256.574 398.108 262.994 407.424 264.987C418.963 267.467 426.98 252.792 422.956 248.836C419.261 245.211 419.825 246.513 411.949 244.112C404.058 241.711 398.202 241.444 396.621 251.002Z" fill="white"></path> <path d="M411.855 259.588L410.665 259.855C406.657 260.765 402.649 258.238 401.725 254.236L396.574 231.619C395.666 227.601 398.187 223.583 402.179 222.657L403.369 222.39C407.377 221.479 411.385 224.006 412.309 228.009L420.451 249.009C421.375 253.011 415.863 258.662 411.855 259.588Z" fill="#FFC2B0"></path> <path d="M371.759 286.788L359.797 319.544C357.041 326.623 334.996 338.441 325.523 349.569C315.973 360.776 326.275 328.522 313.139 333.701C313.139 333.701 344.797 316.279 346.191 311.288C349.338 300.019 354.927 280.007 355.209 279.552C355.82 278.516 371.759 286.788 371.759 286.788Z" fill="#FFC2B0"></path> <path d="M382.75 284.621L374.483 300.678C372.714 303.377 346.222 293.097 348.383 289.001C348.759 288.279 361.958 247.282 376.847 239.78C388.966 233.674 389.201 269.052 382.75 284.621Z" fill="#E68429"></path> <path d="M424.71 322.73L424.913 294.29L412.012 351.939L424.913 346.885L424.71 322.73Z" fill="#C76408"></path> <path d="M431.817 280.698L421.155 343.637C421.233 347.168 394.726 358.673 394.726 358.673L394.084 373.427L421.954 364.449C438.957 356.695 443.811 333.733 444.28 324.473L448.226 277.041L431.817 280.698Z" fill="#FFC2B0"></path> <path d="M452.03 294.479L447.349 330.327C446.19 333.341 418.117 328.946 419.354 324.473C419.573 323.688 423.754 280.824 436.718 270.308C447.255 261.77 455.021 277.889 452.03 294.479Z" fill="#E68429"></path> <path d="M366.042 220.836C366.042 220.836 350.338 271.375 366.464 284.544C382.591 297.712 387.46 239.058 387.46 239.058L366.042 220.836Z" fill="#57383F"></path> <path d="M365.26 215.813C365.26 215.813 365.636 233.972 382.138 234.632C398.641 235.291 386.882 195.048 386.882 195.048L365.26 215.813Z" fill="#57383F"></path> <path d="M402.224 191.815C396.133 186.73 389.98 187.295 385.988 192.365C379.944 191.706 374.824 196.681 373.211 206.082C370.957 219.172 375.92 237.458 384.798 244.866C388.681 248.099 392.814 247.848 396.462 246.891C399.875 245.996 403.054 244.348 405.856 242.213C415.924 234.554 416.754 236.186 418.257 227.46C420.511 214.385 411.102 199.224 402.224 191.815Z" fill="#FFC2B0"></path> <path d="M394.727 203.712C397.482 213.349 402.258 220.208 410.274 222.593C410.274 222.593 414.079 238.618 417.711 239.874C417.711 239.874 442.214 226.423 427.481 201.483C409.757 171.442 398.108 194.012 398.108 194.012L394.727 203.712Z" fill="#57383F"></path> <path d="M408.583 207.605C393.928 206.663 377.911 193.447 361.627 239.074C359.075 236.83 363.193 217.901 366.34 208.154C369.691 197.795 375.703 190.089 384.189 185.035L386.334 184.046C399.33 178.082 408.552 180.828 416.537 192.71C417.241 193.761 424.24 196.022 424.678 196.948L417.132 199.082C420.78 206.475 415.957 203.979 408.583 207.605Z" fill="#57383F"></path> <path d="M416.88 223.096C417.037 226.313 414.563 229.06 411.338 229.217C408.128 229.374 405.388 226.894 405.232 223.661C405.075 220.443 407.549 217.697 410.774 217.54C413.984 217.383 416.724 219.878 416.88 223.096Z" fill="#FFC2B0"></path> <path d="M393.065 205.988C393.488 206.334 394.13 206.255 394.459 205.816L403.258 194.578C403.602 194.154 403.524 193.51 403.086 193.181C402.663 192.835 402.021 192.914 401.692 193.353L392.893 204.591C392.564 205.015 392.642 205.643 393.065 205.988Z" fill="#FFC2B0"></path> <path d="M312.855 299.266L324.974 296.299L340.506 327.894L336.858 342.648L322.97 327.156L312.855 299.266Z" fill="#E1E8F0"></path> <path d="M385.082 335.993L381.402 324.033L339.003 327.188L335.637 337.563L356.007 341.581L385.082 335.993Z" fill="#E1E8F0"></path> <path d="M374.026 330.389L372.899 318.884L331.878 330.091L330.531 340.921L351.292 340.968L374.026 330.389Z" fill="#E1E8F0"></path> <path d="M328.811 319.544L348.241 328.899L342.37 333.702L322.971 327.157L328.811 319.544Z" fill="#64731E"></path> <path d="M309.835 295.593L329.579 319.528C329.829 319.827 330.221 320.831 330.315 321.333L339.396 377.868C339.427 378.104 339.38 378.167 339.27 378.025L319.527 354.09C319.37 353.572 319.104 352.818 318.791 352.285L307.299 296.362C307.299 296.378 309.71 295.467 309.835 295.593Z" fill="#64731E"></path> <path d="M307.297 296.378L327.041 320.314C327.291 320.612 327.683 321.617 327.777 322.119L336.858 378.654C336.889 378.889 336.842 378.952 336.733 378.811L316.989 354.875C316.833 354.357 316.566 353.604 316.253 353.07L307.172 296.535C307.125 296.3 307.172 296.237 307.297 296.378Z" fill="#8BA125"></path> <path d="M344.515 328.601L384.472 327.894C384.957 327.879 385.677 328.506 385.756 329.024L394.696 385.716C394.727 385.952 394.618 386.109 394.383 386.109L354.426 386.815C354.348 386.25 353.815 385.418 353.142 385.685L344.202 328.993C344.171 328.758 344.296 328.601 344.515 328.601Z" fill="#64731E"></path> <path d="M347.582 343.512L387.664 342.633C388.165 342.617 388.853 343.088 388.916 343.48L396.244 386.8C396.275 386.988 396.15 387.098 395.915 387.098L355.833 387.977C355.332 387.992 354.643 387.522 354.58 387.129L347.253 343.81C347.221 343.637 347.347 343.527 347.582 343.512Z" fill="#A2BA30"></path> <path d="M345.408 330.139L385.49 329.26C385.991 329.244 386.68 329.715 386.743 330.107L394.07 373.427C394.102 373.615 393.977 373.725 393.742 373.725L353.66 374.604C353.159 374.619 352.47 374.149 352.407 373.756L345.08 330.437C345.064 330.264 345.174 330.139 345.408 330.139Z" fill="#A2BA30"></path> <path d="M345.563 330.28L339.002 327.188L333.836 324.756L327.275 321.664L336.294 378.167C336.388 378.748 337.327 379.329 337.938 379.611L343.355 382.044L347.175 383.849L355.051 387.678L345.563 330.28Z" fill="#A9C232"></path> <path d="M314.357 339.838C311.32 340.184 308.548 337.986 308.204 334.941L307.045 324.849C306.701 321.804 308.893 319.026 311.93 318.681C314.968 318.335 317.739 320.533 318.084 323.578L319.242 333.654C319.587 336.715 317.379 339.493 314.357 339.838Z" fill="#FFC2B0"></path> <path d="M398.907 360.462L400.927 363.115C403.338 366.285 402.743 370.853 399.58 373.27L394.194 377.398C391.032 379.815 386.475 379.218 384.064 376.048L382.045 373.395C379.633 370.225 380.228 365.658 383.391 363.241L388.777 359.113C391.924 356.696 396.48 357.292 398.907 360.462Z" fill="#FFC2B0"></path> <path d="M375.153 346.933L360.107 347.247C357.148 347.31 354.564 345.065 354.345 342.256C354.141 339.446 356.38 337.092 359.339 337.029L374.386 336.715C377.345 336.652 379.929 338.897 380.148 341.706C380.351 344.516 378.112 346.87 375.153 346.933Z" fill="white"></path> <path d="M393.771 226.455C393.959 227.522 393.677 228.48 393.113 228.574C392.565 228.668 391.955 227.883 391.751 226.816C391.563 225.749 391.845 224.791 392.409 224.697C392.973 224.603 393.583 225.388 393.771 226.455Z" fill="#1F309C"></path> <path d="M382.355 224.508C382.543 225.575 382.261 226.533 381.697 226.627C381.149 226.721 380.539 225.936 380.335 224.869C380.147 223.802 380.429 222.845 380.993 222.75C381.557 222.656 382.167 223.441 382.355 224.508Z" fill="#1F309C"></path> <path d="M385.755 225.184C385.755 225.184 384.957 230.364 384.534 231.243C384.111 232.121 385.646 233.377 387.118 232.671" stroke="#F09A82" stroke-width="1.0362" stroke-miterlimit="10" stroke-linecap="round" stroke-linejoin="round"></path> <path d="M393.047 238.368C393.313 238.054 393.079 237.583 392.671 237.568C391.419 237.568 389.509 239.796 386.753 237.96C383.997 236.124 384.577 239.404 387.223 240.205C390.198 241.115 392.155 239.435 393.047 238.368Z" fill="#E68429"></path> <path d="M383.037 220.316C381.873 220.253 380.693 220.192 379.529 220.128C378.042 220.051 378.171 217.732 379.658 217.81C380.822 217.874 382.002 217.934 383.166 217.998C384.653 218.075 384.539 220.391 383.037 220.316Z" fill="#57383F"></path> <path d="M394.332 223.262C393.255 222.805 392.174 222.364 391.081 221.905C389.708 221.329 390.614 219.199 391.988 219.775C393.066 220.231 394.146 220.672 395.239 221.132C396.613 221.707 395.706 223.837 394.332 223.262Z" fill="#57383F"></path> <path d="M399.83 245.744C399.83 245.744 407.846 243.468 412.105 229.138C412.105 229.138 409.882 249.417 401.036 251.159L399.83 245.744Z" fill="#F09A82"></path> <path d="M559.374 493.993L530.937 479.033L508.996 502.951L539.173 501.948L559.374 493.993Z" fill="#6771EB"></path> <path d="M460.689 577.369L466.02 530.371C466.938 522.266 476.051 512.608 486.371 508.775L487.44 508.377C488.851 507.854 490.208 507.47 491.51 507.209C488.344 505.725 483.685 505.794 478.34 507.786C467.733 511.715 458.359 521.661 457.413 530L451.671 580.597C450.725 588.936 458.564 592.495 469.172 588.565C470.94 587.906 472.666 587.082 474.338 586.134C465.787 588.098 459.88 584.568 460.689 577.369Z" fill="#2C1F9C"></path> <path d="M531.982 570.926L478.411 601.933C474.642 604.117 471.545 601.782 471.545 596.726V536.045C471.545 519.752 481.522 500.642 493.705 493.594L516.674 480.296C529.049 473.303 543.48 483.25 538.834 497.098V557.792C538.847 562.834 535.764 568.742 531.982 570.926Z" fill="#6771EB"></path> <path d="M471.545 587.041V598.993C471.545 603.265 475.19 604.653 479.644 602.07L530.734 572.506C535.188 569.923 538.834 564.318 538.834 560.045L528.405 579.444L471.545 587.041Z" fill="#E2493B"></path> <path d="M558.468 586.972L506.774 616.893C501.992 619.668 497.346 617.498 497.346 613.39L498.072 543.958C498.25 531.044 499.607 519.559 523.919 506.824L541.337 496.741C555.549 488.512 565.525 493.746 565.799 506.192L567.184 574.47C567.184 578.578 563.264 584.211 558.468 586.972Z" fill="#4D58EB"></path> <path d="M554.549 559.166L514.737 582.205C514.066 582.589 513.518 582.177 513.518 581.284C513.518 580.391 514.066 579.347 514.737 578.962L554.549 555.924C555.22 555.539 555.768 555.951 555.768 556.844C555.755 557.737 555.22 558.781 554.549 559.166Z" fill="#2C1F9C"></path> <path d="M502.047 541.802C501.088 555.1 510.05 561.213 521.137 558.892C532.005 556.611 545.463 546.953 553.247 532.913C557.591 525.082 559.523 516.551 558.509 510.218C558.345 509.187 558.783 507.827 559.893 506.852C560.839 506.028 562.182 505.877 562.333 506.893C563.374 513.405 562.072 521.483 558.317 529.74C554.658 537.79 548.971 545.25 542.571 551.047C529.538 562.862 513.915 567.588 505.144 561.543C500.43 558.301 497.47 552.284 498.059 544.11C498.264 541.334 502.239 539.013 502.047 541.802Z" fill="#2C1F9C"></path> <path d="M505.818 574.484C504.941 574.993 504.215 574.649 504.215 573.729V558.754C504.215 557.834 504.941 556.652 505.818 556.144C506.695 555.636 507.422 555.979 507.422 556.9V571.874C507.422 572.795 506.695 573.976 505.818 574.484Z" fill="#2C1F9C"></path> <path d="M546.42 527.157L524.987 539.562C524.041 540.112 523.26 539.521 523.26 538.257V531.319C523.26 530.056 524.041 528.572 524.987 528.022L546.42 515.617C547.366 515.067 548.147 515.658 548.147 516.922V523.86C548.147 525.137 547.366 526.621 546.42 527.157Z" fill="white"></path> <path d="M544.41 526.154L528.567 535.317C527.937 535.688 527.416 535.29 527.416 534.452V530.468C527.416 529.63 527.937 528.627 528.567 528.27L544.41 519.106C545.04 518.736 545.561 519.134 545.561 519.972V523.956C545.561 524.808 545.04 525.797 544.41 526.154Z" fill="#2C1F9C"></path> <path d="M498.145 602.18L471.545 587.041L474.08 603.142L499.845 618.034L507.423 611.961L498.145 602.18Z" fill="#E68429"></path> <path d="M498.061 602.331V614.572C498.061 618.679 501.98 619.778 506.763 617.003L558.456 587.082C563.239 584.307 567.158 578.674 567.158 574.567L566.583 562.656L498.061 602.331Z" fill="#C76408"></path> <path d="M567.049 564.937L497.979 604.914V601.947L567.049 561.983V564.937Z" fill="white"></path> <path d="M497.897 601.836L470.406 586.326V589.39L497.897 604.914V601.836Z" fill="white"></path> <path d="M487.727 575.748L488.549 536.031C488.7 528.736 490.659 521.538 494.579 515.397C496.045 513.102 497.758 510.973 499.718 509.091C518.425 491.204 541.366 485.159 541.366 485.159" stroke="white" stroke-width="2.0812" stroke-miterlimit="10" stroke-linecap="round" stroke-linejoin="round"></path> <path d="M474.011 566.461L498.062 581.559L497.897 601.974L470.406 586.312V568.453C470.406 566.612 472.448 565.485 474.011 566.461Z" fill="#525EFA"></path> <path d="M496.662 585.214L471.651 571.352C470.075 570.473 468.773 568.385 468.773 566.723C468.773 565.047 470.062 564.401 471.651 565.28L496.662 579.142C498.238 580.021 499.54 582.109 499.54 583.771C499.526 585.434 498.238 586.093 496.662 585.214Z" fill="#7D85EB"></path> </svg> 