<?xml version="1.0" encoding="UTF-8"?> <svg xmlns="http://www.w3.org/2000/svg" xmlns:xlink="http://www.w3.org/1999/xlink" id="Layer_1" x="0px" y="0px" viewBox="0 0 48 48" style="enable-background:new 0 0 48 48;" xml:space="preserve"> <polygon style="fill:#90CAF9;" points="35,41 13,41 13,5 35,5 "></polygon> <polygon style="fill:#42A5F5;" points="37,41 11,41 11,8 37,8 "></polygon> <polygon style="fill:#90CAF9;" points="39,41 9,41 9,11 39,11 "></polygon> <rect x="12" y="16" style="fill:#1976D2;" width="8" height="2"></rect> <rect x="22" y="16" style="fill:#1976D2;" width="7" height="2"></rect> <rect x="12" y="20" style="fill:#1976D2;" width="12" height="2"></rect> <path style="fill:#64B5F6;" d="M28,29v2c0,2.209-1.791,4-4,4s-4-1.791-4-4v-2H9v12h30V29H28z"></path> <path style="fill:#FFC107;" d="M24,37c-3.313,0-6-2.687-6-6H7c-0.552,0-1,0.448-1,1v8c0,1.657,1.343,3,3,3h30c1.657,0,3-1.343,3-3 v-8c0-0.552-0.448-1-1-1H30C30,34.313,27.313,37,24,37z"></path> </svg> 