<?xml version="1.0" encoding="UTF-8"?> <svg xmlns="http://www.w3.org/2000/svg" width="900" height="900" viewBox="0 0 900 900" fill="none"> <g clip-path="url(#clip0)"> <path d="M343.77 654.63L267.04 610.33C264.76 609.01 265.05 606.69 267.68 605.17L342.59 561.92C345.23 560.4 349.25 560.23 351.53 561.55L428.26 605.85C430.54 607.17 430.25 609.49 427.62 611.01L352.71 654.26C350.08 655.78 346.05 655.95 343.77 654.63Z" stroke="#40CBC6" stroke-miterlimit="10" stroke-linecap="round" stroke-linejoin="round"></path> <path d="M564.6 272.27C587.88 285.71 606.7 318.3 606.62 345.05C606.62 345.6 606.6 346.14 606.58 346.68C607.73 347.16 608.89 347.73 610.08 348.42C624.03 356.48 635.3 375.99 635.26 392.03C635.22 407.52 624.61 414.08 611.3 407.23L517.59 352.79C501.85 343.78 489.17 321.77 489.23 303.69C489.28 285.44 502.05 277.99 517.93 287.16C519.55 288.1 521.14 289.17 522.68 290.36C525.41 268.07 543.15 259.89 564.6 272.27Z" fill="#EBF3FF"></path> <g opacity="0.46"> <path d="M361.019 303.33C377.019 312.57 389.949 334.96 389.899 353.34C389.899 353.72 389.879 354.09 389.869 354.46C390.659 354.79 391.459 355.18 392.279 355.66C401.869 361.2 409.609 374.61 409.579 385.62C409.549 396.27 402.269 400.77 393.119 396.06L328.729 358.65C317.909 352.46 309.199 337.33 309.239 324.91C309.279 312.37 318.049 307.25 328.959 313.55C330.069 314.19 331.159 314.93 332.219 315.75C334.089 300.45 346.279 294.83 361.019 303.33Z" fill="#D3E4FE"></path> </g> <path d="M318.95 413.99L313.75 429.72C309.15 443.65 309.8 458.77 315.57 472.26L322.94 489.47L329.86 484.1L324.86 463.83C323.37 457.8 323.75 451.49 325.77 445.62C328.63 437.33 330.52 424 318.95 413.99Z" fill="#B98370"></path> <path d="M336.249 414.35L333.469 445.6C332.449 448.1 309.759 441.5 310.889 437.75C311.089 437.09 315.609 400.33 326.419 392.51C335.199 386.14 339.119 400.26 336.249 414.35Z" fill="#EDBC25"></path> <path opacity="0.4" d="M536.319 590.34L589.829 558.2C594.389 555.38 594.329 548.73 589.729 545.99L431.049 451.65L410.189 517.62L536.319 590.34Z" fill="#A8C4E5"></path> <path d="M528.57 594.83L417.04 520.86C410.06 516.83 404.41 506.03 404.41 496.73V253.3C404.41 244 410.06 239.72 417.04 243.75L533.49 310.98C540.47 315.01 546.12 325.81 546.12 335.11V577.39C546.12 583.51 543.83 586.06 539.98 588.28L528.57 594.83Z" fill="#A6B5E0"></path> <path d="M464.07 366.15C464.07 366.15 404.36 505.79 404.36 496.49L394.55 250.34L409.19 242.61C411.34 241.6 414.05 241.82 416.99 243.52L533.44 310.75C536.85 312.72 539.94 316.3 542.21 320.53L464.07 366.15Z" fill="#CCD9FF"></path> <path d="M521.76 594.04L405.6 526.81C398.62 522.78 393.26 511.98 393.26 502.68V259.25C393.26 249.95 398.77 245.67 405.74 249.7L521.84 316.93C528.82 320.96 534.12 331.76 534.12 341.06V584.49C534.11 593.79 528.74 598.07 521.76 594.04Z" fill="#E6F0FF"></path> <path d="M519.43 594.9L403.27 527.67C396.29 523.64 390.93 512.84 390.93 503.54V260.11C390.93 250.81 396.44 246.53 403.41 250.56L519.51 317.79C526.49 321.82 531.79 332.62 531.79 341.92V585.35C531.79 594.66 526.41 598.93 519.43 594.9Z" fill="#25319C"></path> <path d="M516.21 553.3L402.95 487.91C401.77 487.23 401.05 485.97 401.05 484.61V279.04C401.05 276.11 404.22 274.28 406.76 275.74L520.02 341.13C521.2 341.81 521.92 343.07 521.92 344.43V550.01C521.92 552.94 518.75 554.77 516.21 553.3Z" fill="#515DC8"></path> <path d="M481.159 311.49L445.239 290.75C443.979 290.02 442.949 288.05 442.949 286.37C442.949 284.69 443.979 283.91 445.239 284.64L481.159 305.38C482.419 306.11 483.449 308.08 483.449 309.76C483.449 311.44 482.419 312.22 481.159 311.49Z" fill="#2C1F9C"></path> <path d="M481.709 403.22C475.979 393.92 468.289 386.33 460.059 381.85C451.369 377.13 442.989 376.32 436.449 379.6C429.649 383.01 425.909 390.24 425.909 399.97C425.909 408.81 429.059 418.78 434.769 428.05C440.499 437.35 448.189 444.94 456.419 449.42C461.589 452.23 466.649 453.65 471.289 453.65C474.439 453.65 477.389 452.99 480.039 451.67C486.839 448.26 490.579 441.03 490.579 431.29C490.569 422.47 487.419 412.49 481.709 403.22ZM476.789 446.31C474.539 447.44 472.029 448 469.349 448C465.409 448 461.099 446.79 456.699 444.4C449.699 440.59 443.149 434.13 438.279 426.22C433.419 418.33 430.739 409.84 430.739 402.32C430.739 394.04 433.919 387.88 439.709 384.98C445.269 382.19 452.409 382.87 459.799 386.9C466.799 390.71 473.349 397.17 478.219 405.08C483.079 412.97 485.759 421.46 485.759 428.98C485.759 437.25 482.579 443.41 476.789 446.31Z" fill="white"></path> <path opacity="0.44" d="M487.069 400.82C479.989 389.32 470.489 379.95 460.319 374.41C449.579 368.57 439.219 367.58 431.139 371.63C422.729 375.84 418.109 384.78 418.109 396.81C418.109 407.73 421.999 420.06 429.059 431.52C436.139 443.02 445.639 452.39 455.809 457.93C462.199 461.41 468.459 463.16 474.179 463.16C478.069 463.16 481.719 462.35 484.989 460.71C493.389 456.5 498.019 447.56 498.009 435.53C498.009 424.61 494.129 412.28 487.069 400.82Z" stroke="white" stroke-width="1.3421" stroke-miterlimit="10"></path> <path d="M453.469 399.87L471.059 423.83C472.149 425.32 471.899 427.06 470.599 426.99L451.949 426.08C450.699 426.02 449.329 424.31 449.399 422.89L450.459 399.83C450.529 398.25 452.289 398.26 453.469 399.87Z" fill="#EB5757"></path> <path opacity="0.4" d="M347.994 624.893C367.359 624.55 382.919 616.475 382.749 606.856C382.578 597.237 366.742 589.717 347.377 590.06C328.013 590.403 312.452 598.478 312.623 608.097C312.793 617.716 328.629 625.236 347.994 624.893Z" fill="#A8C4E5"></path> <path d="M323.44 593.08L331.65 592.05C337.15 589.56 339.72 587.69 342.16 589.1L342.85 589.5C345.3 590.91 344.99 593.41 342.16 595.04L330.08 604.63C327.25 606.26 323.44 605.75 321.19 603.77C321.19 603.77 319.84 602.55 320.8 597.42C321.37 594.49 321.18 594.38 323.44 593.08Z" fill="#2C1F9C"></path> <path d="M359.549 609.46L367.689 610.99C373.689 610.3 376.699 609.31 378.599 611.4L379.139 611.99C381.039 614.08 379.979 616.36 376.789 617.05L362.359 622.49C359.169 623.18 355.699 621.52 354.159 618.95C354.159 618.95 353.249 617.38 355.739 612.79C357.149 610.17 356.989 610.01 359.549 609.46Z" fill="#2C1F9C"></path> <path d="M366.48 612.03C363.19 616.69 356.04 616.72 354.02 613.35L336.64 474.32H372.73L366.48 612.03Z" fill="#515DC8"></path> <path d="M333.14 595.34C329.15 599.45 321.29 597.7 319.77 594.73L325.07 474.2L350.2 477.92L333.14 595.34Z" fill="#515DC8"></path> <path d="M352.097 393.112C357.931 392.358 361.581 383.409 360.252 373.123C358.922 362.837 353.115 355.11 347.282 355.864C341.449 356.618 337.799 365.568 339.128 375.854C340.458 386.139 346.264 393.866 352.097 393.112Z" fill="#FBDDD3"></path> <path d="M368.66 381.95C366.18 390.59 356.92 393.71 351.48 388.07C346.04 382.43 343.63 370.86 346.11 362.22C348.59 353.58 355.01 351.15 360.45 356.79C365.89 362.44 371.13 373.32 368.66 381.95Z" fill="#B98370"></path> <path d="M347.71 406.88L346.78 406.67C343.65 405.97 341.67 402.84 342.36 399.72L346.29 382.09C346.99 378.96 350.12 376.98 353.24 377.67L354.17 377.88C357.3 378.58 359.28 381.71 358.59 384.83L357.3 402.33C356.61 405.45 350.83 407.58 347.71 406.88Z" fill="#B98370"></path> <path d="M337.199 383.25C337.199 383.25 338.139 391.39 349.699 389.76C357.989 388.59 355.579 375.1 363.869 373.75C372.989 372.26 374.639 360.99 371.049 356.67C367.459 352.35 357.409 350.08 350.129 353.29C342.849 356.5 331.639 356.31 337.199 383.25Z" fill="#45312B"></path> <path d="M363.9 378.43C363.3 380.53 361.11 381.74 359.01 381.14C356.91 380.54 355.7 378.35 356.3 376.25C356.9 374.15 359.09 372.94 361.19 373.54C363.29 374.14 364.5 376.33 363.9 378.43Z" fill="#B98370"></path> <path d="M335.471 438.516C335.471 438.516 323.701 439.669 313 429.279" stroke="white" stroke-width="4.3341" stroke-miterlimit="10" stroke-linecap="round" stroke-linejoin="round"></path> <path d="M324.01 472.63C326.96 456.45 323.79 443.66 324.04 426.45C324.04 395.52 322.56 387.97 338.91 392.67L343.52 393.89C345.73 394.48 347.88 395.31 349.92 396.36C371.48 407.47 377.23 410.89 376.29 423.78C376.39 445 373.26 468.8 372.81 479.25C368.37 493.93 328.94 483.13 324.01 472.63Z" fill="#F2C94C"></path> <path d="M358.15 390.92L357.21 388.75C357.21 388.75 358.88 390.42 362.06 390.01C362.06 390.01 360.18 391.09 358.15 390.92Z" fill="#A06A56"></path> <path d="M358.92 414.25C358.92 414.25 363.63 435.75 390.46 464.15C397.84 471.96 428.85 442.95 428.85 442.95L426.46 432.15C426.46 432.15 400.79 456.79 393.88 447.46C386.1 436.93 380.78 404.61 358.92 414.25Z" fill="#B98370"></path> <path d="M363.87 429.99L377.18 458.39C378.99 460.39 398.05 446.42 395.71 443.28C395.3 442.73 378.47 409.74 365.63 406.09C355.21 403.13 356.36 417.74 363.87 429.99Z" fill="#F2C94C"></path> <path d="M434.759 439.52L431.329 442.05C428.689 444 424.939 443.43 422.989 440.79C421.039 438.15 421.609 434.4 424.249 432.45L427.679 429.92C430.319 427.97 434.069 428.54 436.019 431.18C437.959 433.82 437.389 437.57 434.759 439.52Z" fill="#B98370"></path> <path d="M374.92 453.55L367.41 437.53L372.81 469.42L374.92 453.55Z" fill="#C29817"></path> <path d="M540.06 376.46C538.17 377.21 536.63 376.13 536.63 374.06V361.59C536.63 359.53 538.18 357.23 540.06 356.48C541.95 355.73 543.49 356.81 543.49 358.88V371.35C543.49 373.41 541.94 375.71 540.06 376.46Z" fill="#3F5FC2"></path> <path d="M390.178 437.058C390.178 437.058 387.015 446.561 375.289 451.26" stroke="white" stroke-width="4.3341" stroke-miterlimit="10" stroke-linecap="round" stroke-linejoin="round"></path> <path d="M540.06 399.71C538.17 400.46 536.63 399.38 536.63 397.31V384.84C536.63 382.78 538.18 380.48 540.06 379.73C541.95 378.98 543.49 380.06 543.49 382.13V394.6C543.49 396.66 541.94 398.96 540.06 399.71Z" fill="#3F5FC2"></path> </g> <defs> <clipPath id="clip0"> <rect width="369.758" height="414.515" fill="white" transform="translate(265.502 242.004)"></rect> </clipPath> </defs> </svg> 