<?xml version="1.0" encoding="UTF-8"?> <!-- Generator: Adobe Illustrator 21.1.0, SVG Export Plug-In . SVG Version: 6.00 Build 0) --> <svg xmlns="http://www.w3.org/2000/svg" xmlns:xlink="http://www.w3.org/1999/xlink" id="Layer_1" x="0px" y="0px" viewBox="0 0 128 128" style="enable-background:new 0 0 128 128;" xml:space="preserve"> <style type="text/css"> .st0{fill:#FFFFFF;} .st1{fill:#444B54;} .st2{fill:#FFF0B3;} .st3{opacity:0.2;} .st4{fill:#FCCA3D;} .st5{fill:#FF5576;} .st6{fill:#ADF9D2;} .st7{fill:#3F4A54;} .st8{fill:#FF6144;} .st9{fill:#D3D8DD;} .st10{fill:#C0E7FF;} .st11{fill:none;stroke:#444B54;stroke-width:6;stroke-linecap:round;stroke-linejoin:round;stroke-miterlimit:10;} .st12{opacity:0.5;} .st13{fill:#F8DB59;} .st14{fill:#1AB792;} .st15{fill:#E9EEF4;} .st16{fill:#009F96;} .st17{fill:#FCE0E2;} .st18{fill:#3C71A6;} .st19{fill:#D32F56;} </style> <g> <g> <g> <g> <path class="st6" d="M127,86h-12.9c-4.5,0-8.9-1.8-12.1-5l0,0l0,0c-3.2,3.2-7.5,5-12.1,5H47c-5.5,0-10-4.5-10-10V21 c0-5.5,4.5-10,10-10h55c5.5,0,10,4.5,10,10v44.2C112,74.6,118,83,127,86L127,86z"></path> </g> </g> </g> <g> <g> <g> <circle class="st7" cx="107" cy="114" r="3"></circle> </g> </g> </g> <g> <g> <g> <path class="st0" d="M94,114H81.1c-4.5,0-8.9-1.8-12.1-5l0,0l0,0c-3.2,3.2-7.5,5-12.1,5H14c-5.5,0-10-4.5-10-10V49 c0-5.5,4.5-10,10-10h55c5.5,0,10,4.5,10,10v44.2C79,102.6,85,111,94,114L94,114z"></path> </g> </g> </g> <g> <g> <g> <path class="st1" d="M94,117H81.1c-5.4,0-10.4-2.1-14.2-5.9c-1.2-1.2-1.2-3.1,0-4.2c1.2-1.2,3.1-1.2,4.2,0 c2.7,2.7,6.2,4.1,10,4.1h2.4c-4.7-4.6-7.5-10.9-7.5-17.8V49c0-3.9-3.1-7-7-7H14c-3.9,0-7,3.1-7,7v55c0,3.9,3.1,7,7,7h42.9 c1.7,0,3,1.3,3,3s-1.3,3-3,3H14c-7.2,0-13-5.8-13-13V49c0-7.2,5.8-13,13-13h55c7.2,0,13,5.8,13,13v44.2c0,8.2,5.2,15.4,12.9,18 c1.4,0.5,2.2,1.9,2,3.3C96.7,115.9,95.5,117,94,117z"></path> </g> </g> </g> <g> <g> <g> <g> <path class="st1" d="M51.4,81.2h-20c0,5.5,4.5,10,10,10S51.4,86.8,51.4,81.2z"></path> </g> </g> </g> <g> <g> <g> <circle class="st1" cx="31" cy="69.8" r="5"></circle> </g> </g> </g> <g> <g> <g> <circle class="st1" cx="51" cy="69.8" r="5"></circle> </g> </g> </g> </g> </g> </svg> 