<?xml version="1.0" encoding="UTF-8"?> <svg xmlns="http://www.w3.org/2000/svg" width="90" height="85" viewBox="0 0 90 85" fill="none"> <path fill-rule="evenodd" clip-rule="evenodd" d="M83.0826 32.8253C82.949 24.6458 71.7137 17.111 64.3804 20.6699L67.9629 27.4617L61.679 28.8987C62.4133 31.1653 63.5232 33.2925 64.9623 35.1914L60.7193 39.6724L47.7852 36.5735L51.7425 29.8816L39.7161 26.4478L48.2835 19.1467L37.0575 10.7452L57.3911 8.12157L51.8606 2.26685C63.2274 -5.16557 94.6666 8.161 88.8131 35.2057L83.0826 32.8253ZM66.6563 59.3399L7.61771 84.3655L1.47472 80.5163L0.193766 70.4995L60.3119 46.5364C88.5483 16.277 105.901 61.1235 66.6563 59.3399ZM5.94423 73.4318L6.53009 76.234L64.1151 53.5785L62.1572 50.9958L5.94423 73.4318Z" fill="#1F1F1F"></path> </svg> 