<?xml version="1.0" encoding="UTF-8"?> <svg xmlns="http://www.w3.org/2000/svg" width="233" height="65" viewBox="0 0 233 65" fill="none"> <g clip-path="url(#clip0)"> <path d="M232.604 17.0597C232.604 13.8064 229.051 5.22766 218.989 5.22766C208.926 5.22766 205.374 13.8064 205.374 17.0597V28.6404C205.374 30.5544 207.475 31.7466 209.103 30.7375C212.882 28.3891 217.441 23.5916 218.989 14.9914C220.537 23.5916 225.096 28.3891 228.875 30.7375C230.499 31.7466 232.604 30.5544 232.604 28.6404V17.0597Z" fill="#1CC1BB"></path> <path d="M151.494 4.9296H150.944C147.032 4.9296 143.881 6.17564 141.431 8.73956C138.981 11.2352 137.753 14.406 137.753 18.1837C137.753 22.1624 138.978 25.3655 141.46 27.7965C143.943 30.1917 147.093 31.4054 150.944 31.4054H151.494C155.345 31.4054 158.499 30.1917 160.978 27.7965C163.46 25.3691 164.685 22.166 164.685 18.1837C164.685 14.406 163.46 11.2352 161.007 8.73956C158.557 6.17564 155.402 4.9296 151.494 4.9296ZM155.884 22.3958C154.67 23.491 153.146 23.904 151.454 23.904H150.98C149.288 23.904 147.765 23.4946 146.551 22.3958C145.336 21.3006 144.859 19.9648 144.859 18.1478C144.859 16.2661 145.34 15.0308 146.522 13.9715C147.679 12.9086 149.173 12.3951 150.951 12.3951H151.483C153.261 12.3951 154.756 12.9086 155.913 13.9715C157.098 15.0344 157.576 16.2661 157.576 18.1478C157.576 19.9648 157.095 21.3006 155.884 22.3958Z" fill="#1CC1BB"></path> <path d="M63.0837 6.11462C62.5808 6.7143 62.3185 7.48635 62.3509 8.26917L62.3437 28.1485C62.3437 28.9241 62.5916 29.6782 63.0873 30.2707C63.3568 30.558 63.6837 30.7842 64.0501 30.9278C64.4165 31.0751 64.7147 31.1002 65.1925 31.1002C65.9936 31.1002 66.6259 30.9566 67.1684 30.4682L83.0398 14.6035V28.1449C83.0111 28.9205 83.2769 29.6782 83.7799 30.2671C84.0493 30.5544 84.3762 30.7806 84.7427 30.9278C85.1055 31.0751 85.4109 31.111 85.8923 31.111C86.3736 31.111 86.7257 31.0715 87.0957 30.9243C87.4658 30.777 87.7963 30.5544 88.0729 30.2671C88.5902 29.6854 88.8632 28.9241 88.8309 28.1449V8.26917C88.8345 7.4253 88.5866 6.72507 88.0657 6.13975C87.5196 5.62625 86.9017 5.22766 86.0862 5.22766C85.2708 5.22766 84.5199 5.40362 83.9595 5.9638L68.1311 21.7854V8.26917C68.1311 7.38939 67.8976 6.72866 67.3911 6.13975C67.1145 5.8453 66.7768 5.61548 66.4032 5.46466C66.0296 5.31384 65.6703 5.23125 65.1817 5.23125C64.6932 5.23125 64.4058 5.31384 64.0429 5.45748C63.6801 5.60112 63.3532 5.82734 63.0837 6.11462Z" fill="#423783"></path> <path d="M169.643 30.2707C169.92 30.558 170.25 30.7842 170.62 30.9278C170.99 31.0751 171.342 31.1146 171.824 31.1146C172.305 31.1146 172.61 31.0787 172.973 30.9314C173.34 30.7842 173.666 30.5616 173.936 30.2707C174.439 29.6818 174.705 28.9241 174.676 28.1485V14.6071L183.151 23.0781C184.189 24.1159 185.877 24.1159 186.915 23.0781L195.39 14.6071V28.1485C195.361 28.9241 195.624 29.6818 196.127 30.2707C196.396 30.5616 196.726 30.7842 197.089 30.9314C197.456 31.0787 197.761 31.1146 198.242 31.1146C198.72 31.1146 199.076 31.0751 199.446 30.9278C199.812 30.7842 200.146 30.558 200.42 30.2707C200.937 29.689 201.21 28.9277 201.181 28.1485V8.26917C201.181 7.4253 200.933 6.72507 200.416 6.13975C199.87 5.62984 199.252 5.22766 198.436 5.22766C197.617 5.22766 196.867 5.40721 196.31 5.9638L185.033 17.2357L173.756 5.9638C173.196 5.40721 172.445 5.22766 171.63 5.22766C170.814 5.22766 170.193 5.62984 169.65 6.13975C169.129 6.72507 168.881 7.4253 168.885 8.26917V28.1485C168.856 28.9277 169.126 29.689 169.643 30.2707Z" fill="#423783"></path> <path d="M97.255 24.0189C96.188 24.0189 95.3187 24.3529 94.6828 25.0603C94.0828 25.7318 93.7487 26.5721 93.7487 27.5775C93.7487 28.583 94.0505 29.4232 94.6505 30.0947C95.2504 30.7663 96.1198 31.1002 97.255 31.1002C98.3902 31.1002 99.2596 30.7663 99.8919 30.0947C100.528 29.4232 100.826 28.583 100.826 27.5775C100.826 26.6044 100.492 25.7641 99.8559 25.0603C99.2272 24.3565 98.3579 24.0189 97.255 24.0189Z" fill="#423783"></path> <path d="M31.9335 6.11822C31.4234 6.69995 31.1504 7.54022 31.1504 8.36254V12.5172C31.1504 16.8299 32.0341 19.8068 33.8052 21.5161C36.2229 23.9112 39.819 24.9705 44.4497 24.9705C48.2613 24.9705 50.1689 24.1159 52.3136 23.2289V28.188C52.3136 29.0426 52.5471 29.75 53.0572 30.2959C53.5673 30.8417 54.2894 31.1038 55.2091 31.1038C56.1611 31.1038 56.9586 30.8453 57.4328 30.2959C57.9429 29.75 58.1441 28.8487 58.1441 28.188V8.36254C58.1441 7.64436 57.8567 6.63172 57.343 6.0859C56.8329 5.54008 56.118 5.23126 55.1983 5.23126C54.2463 5.23126 53.5314 5.50417 53.0536 6.0859C52.5758 6.66763 52.3064 7.47559 52.3064 8.36254V17.2393C50.7401 18.7798 48.5307 19.7027 44.8879 19.7027C43.221 19.7027 40.1351 19.2574 38.2635 17.5122C37.2755 16.5893 36.9809 14.7436 36.9809 12.212V8.36254C36.9809 7.54022 36.7295 6.69995 36.2193 6.11822C35.7092 5.53649 34.9871 5.23126 34.0711 5.23126C33.1514 5.22767 32.4437 5.53649 31.9335 6.11822Z" fill="#423783"></path> <path d="M0.747231 6.05716C0.240695 6.63171 0 7.33194 0 8.19376V8.22608C0 12.4023 1.05259 15.4007 3.15777 18.0831C5.29528 20.7691 8.73686 22.1121 13.5436 22.1121C16.0152 22.1121 18.1527 21.71 19.9561 20.9379C20.1573 20.8374 20.6243 20.6363 20.8255 20.5681C19.622 24.6294 16.2487 25.6348 12.8107 25.6707C9.3368 25.7031 7.60164 24.9669 5.56472 23.4551C3.82956 22.1804 2.45724 22.7154 1.62379 23.825C0.653827 25.1357 0.855005 26.6116 2.5255 27.9869C4.92885 30.0014 8.80152 31.1074 12.843 31.1074C15.3146 31.1074 18.1886 30.7088 19.9597 29.9368C21.7631 29.1647 23.1678 28.0587 24.1341 26.6475C25.1041 25.2362 25.837 23.6922 26.2716 22.0152C26.7063 20.3382 26.9614 18.4171 26.9614 16.338V8.36253C26.9614 7.45762 26.7063 6.70712 26.171 6.10025C25.6717 5.49698 24.9352 5.22766 23.9653 5.22766C23.0312 5.22766 22.2948 5.5293 21.7954 6.10025C21.2961 6.70353 21.1488 7.44326 21.1488 8.34817V8.51694C21.1488 14.5928 18.3108 16.6719 13.3352 16.6719C8.35965 16.6719 5.79104 14.1224 5.79104 8.44871V8.19376C5.79104 7.33194 5.53598 6.59939 5.02944 6.05716C4.49057 5.48262 3.79004 5.22766 2.83804 5.22766C1.9543 5.22766 1.22144 5.48262 0.747231 6.05716Z" fill="#423783"></path> <path d="M135.673 35.8043C136.172 35.3411 136.449 34.6839 136.431 34.0053V29.3766C136.431 27.8468 135.321 25.6887 132.734 25.6241V9.45416C132.734 7.14161 131.031 5.26715 128.718 5.26715H115.972C113.637 5.26715 111.826 7.14879 111.769 9.37516C111.646 13.8494 110.874 18.0149 109.947 21.3365C109.466 23.0673 108.956 24.5109 108.503 25.6205C108.359 25.6205 108.23 25.6205 108.122 25.6205C105.446 25.6205 104.314 27.8289 104.314 29.3766V34.0053C104.293 34.6875 104.569 35.3411 105.072 35.8043C105.776 36.3034 106.29 36.4973 107.199 36.4973C108.108 36.4973 108.79 36.2927 109.329 35.8043C109.843 35.3483 110.127 34.6911 110.105 34.0053V31.1074H130.643V34.0053C130.622 34.6911 130.906 35.3518 131.419 35.8043C131.958 36.2927 132.659 36.4973 133.571 36.4973C134.484 36.4973 134.965 36.3034 135.673 35.8043ZM126.932 10.7074V25.6169C123.236 25.6169 118.53 25.6169 114.689 25.6169C114.98 24.7658 115.264 23.8537 115.533 22.8914C116.46 19.5734 117.251 15.1386 117.502 10.7074H126.932V10.7074Z" fill="#423783"></path> </g> <defs> <clipPath id="clip0"> <rect width="232.604" height="31.5677" fill="white" transform="translate(0 4.9296)"></rect> </clipPath> </defs> </svg> 