<?xml version="1.0" encoding="UTF-8"?> <svg xmlns="http://www.w3.org/2000/svg" width="32" height="32" viewBox="0 0 32 32" fill="none"> <path d="M16 18.6667C17.4727 18.6667 18.6666 17.4728 18.6666 16C18.6666 14.5273 17.4727 13.3334 16 13.3334C14.5272 13.3334 13.3333 14.5273 13.3333 16C13.3333 17.4728 14.5272 18.6667 16 18.6667Z" stroke="#219653" stroke-width="1.3" stroke-linecap="round" stroke-linejoin="round"></path> <path d="M23.32 13.9561C22.5563 12.9699 21.7316 12.0325 20.8507 11.1494C15.2 5.49473 8.43869 3.0814 5.76002 5.76006C4.17202 7.34806 4.38535 10.3694 5.98802 13.7427" stroke="#219653" stroke-width="1.3" stroke-linecap="round" stroke-linejoin="round"></path> <path d="M8.68939 18.028C9.44808 19.0206 10.2698 19.9634 11.1494 20.8506C16.8054 26.5053 23.5614 28.9186 26.2401 26.24C27.8267 24.6533 27.6147 21.6333 26.0094 18.26" stroke="#219653" stroke-width="1.3" stroke-linecap="round" stroke-linejoin="round"></path> <path d="M18.044 23.3201C19.0302 22.5564 19.9676 21.7317 20.8507 20.8507C26.5053 15.2001 28.9187 8.43875 26.24 5.76008C24.652 4.17208 21.6307 4.38541 18.2573 5.98808" stroke="#219653" stroke-width="1.3" stroke-linecap="round" stroke-linejoin="round"></path> <path d="M13.9719 8.68933C12.9793 9.44802 12.0365 10.2697 11.1493 11.1493C5.49461 16.8 3.08128 23.5613 5.75994 26.24C7.34661 27.8267 10.3666 27.6147 13.7399 26.0093" stroke="#219653" stroke-width="1.3" stroke-linecap="round" stroke-linejoin="round"></path> </svg> 