<?xml version="1.0" encoding="UTF-8"?> <svg xmlns="http://www.w3.org/2000/svg" width="167" height="24" viewBox="0 0 167 24" fill="none"> <g clip-path="url(#clip0)"> <path d="M154.737 11.0694C154.737 8.9051 152.373 3.19824 145.68 3.19824C138.986 3.19824 136.622 8.9051 136.622 11.0694V18.7733C136.622 20.0465 138.02 20.8396 139.103 20.1683C141.617 18.606 144.65 15.4146 145.68 9.69341C146.71 15.4146 149.742 18.606 152.256 20.1683C153.337 20.8396 154.737 20.0465 154.737 18.7733V11.0694Z" fill="white"></path> <path d="M100.779 3H100.414C97.8111 3 95.7152 3.82892 94.0854 5.53452C92.4555 7.19474 91.6382 9.30406 91.6382 11.8171C91.6382 14.4639 92.4531 16.5947 94.1045 18.2119C95.7559 19.8053 97.8517 20.6127 100.414 20.6127H100.779C103.341 20.6127 105.439 19.8053 107.088 18.2119C108.74 16.5971 109.555 14.4663 109.555 11.8171C109.555 9.30406 108.74 7.19474 107.108 5.53452C105.478 3.82892 103.379 3 100.779 3ZM103.7 14.6192C102.892 15.3477 101.879 15.6225 100.753 15.6225H100.438C99.3119 15.6225 98.2986 15.3501 97.4909 14.6192C96.6831 13.8906 96.3653 13.0019 96.3653 11.7932C96.3653 10.5415 96.6855 9.71971 97.4718 9.01502C98.2413 8.30793 99.2355 7.96633 100.418 7.96633H100.772C101.955 7.96633 102.949 8.30793 103.719 9.01502C104.507 9.7221 104.825 10.5415 104.825 11.7932C104.825 13.0019 104.505 13.8906 103.7 14.6192Z" fill="white"></path> <path d="M41.9657 3.78828C41.6311 4.18721 41.4567 4.7008 41.4782 5.22156L41.4734 18.446C41.4734 18.962 41.6383 19.4636 41.9681 19.8578C42.1473 20.0489 42.3648 20.1994 42.6086 20.2949C42.8523 20.3929 43.0507 20.4096 43.3685 20.4096C43.9015 20.4096 44.3221 20.314 44.6829 19.9892L55.2412 9.43542V18.4436C55.2221 18.9596 55.3989 19.4636 55.7335 19.8554C55.9128 20.0465 56.1302 20.197 56.374 20.2949C56.6154 20.3929 56.8185 20.4168 57.1387 20.4168C57.459 20.4168 57.6932 20.3905 57.9393 20.2925C58.1855 20.1946 58.4054 20.0465 58.5894 19.8554C58.9335 19.4684 59.1151 18.962 59.0936 18.4436V5.22156C59.096 4.66019 58.9311 4.19437 58.5846 3.805C58.2213 3.4634 57.8103 3.19824 57.2678 3.19824C56.7253 3.19824 56.2258 3.31529 55.853 3.68795L45.3234 14.213V5.22156C45.3234 4.6363 45.1681 4.19676 44.8311 3.805C44.6471 3.60912 44.4224 3.45623 44.1739 3.3559C43.9254 3.25557 43.6864 3.20063 43.3614 3.20063C43.0363 3.20063 42.8452 3.25557 42.6038 3.35113C42.3624 3.44668 42.1449 3.59717 41.9657 3.78828Z" fill="white"></path> <path d="M112.853 19.8578C113.037 20.0489 113.256 20.1994 113.503 20.2949C113.749 20.3929 113.983 20.4191 114.303 20.4191C114.623 20.4191 114.827 20.3953 115.068 20.2973C115.312 20.1994 115.529 20.0513 115.708 19.8578C116.043 19.466 116.22 18.962 116.201 18.446V9.43781L121.838 15.073C122.529 15.7634 123.652 15.7634 124.343 15.073L129.981 9.43781V18.446C129.961 18.962 130.136 19.466 130.47 19.8578C130.65 20.0513 130.87 20.1994 131.111 20.2973C131.355 20.3953 131.558 20.4191 131.878 20.4191C132.196 20.4191 132.432 20.3929 132.679 20.2949C132.922 20.1994 133.145 20.0489 133.326 19.8578C133.67 19.4708 133.852 18.9644 133.833 18.446V5.22156C133.833 4.66019 133.668 4.19437 133.324 3.805C132.961 3.46579 132.55 3.19824 132.007 3.19824C131.462 3.19824 130.963 3.31768 130.592 3.68795L123.091 11.1864L115.589 3.68795C115.216 3.31768 114.717 3.19824 114.174 3.19824C113.632 3.19824 113.218 3.46579 112.857 3.805C112.511 4.19437 112.346 4.66019 112.348 5.22156V18.446C112.329 18.9644 112.508 19.4708 112.853 19.8578Z" fill="white"></path> <path d="M64.6975 15.699C63.9877 15.699 63.4093 15.9211 62.9863 16.3917C62.5872 16.8384 62.365 17.3974 62.365 18.0663C62.365 18.7351 62.5657 19.2941 62.9648 19.7408C63.3639 20.1875 63.9423 20.4097 64.6975 20.4097C65.4527 20.4097 66.031 20.1875 66.4516 19.7408C66.8746 19.2941 67.073 18.7351 67.073 18.0663C67.073 17.4189 66.8507 16.8599 66.4277 16.3917C66.0095 15.9235 65.4311 15.699 64.6975 15.699Z" fill="white"></path> <path d="M21.2434 3.79074C20.904 4.17773 20.7224 4.73671 20.7224 5.28374V8.04759C20.7224 10.9165 21.3103 12.8969 22.4885 14.0339C24.0969 15.6273 26.4891 16.332 29.5696 16.332C32.1052 16.332 33.3742 15.7634 34.8009 15.1734V18.4723C34.8009 19.0409 34.9563 19.5115 35.2956 19.8746C35.635 20.2377 36.1153 20.4121 36.7271 20.4121C37.3604 20.4121 37.891 20.2401 38.2064 19.8746C38.5458 19.5115 38.6796 18.9119 38.6796 18.4723V5.28374C38.6796 4.80598 38.4884 4.13234 38.1467 3.76924C37.8073 3.40614 37.3317 3.2007 36.7199 3.2007C36.0866 3.2007 35.6111 3.38225 35.2932 3.76924C34.9754 4.15623 34.7961 4.69371 34.7961 5.28374V11.1889C33.7542 12.2137 32.2844 12.8276 29.8611 12.8276C28.7522 12.8276 26.6994 12.5314 25.4543 11.3704C24.7971 10.7565 24.6011 9.52865 24.6011 7.84454V5.28374C24.6011 4.73671 24.4338 4.17773 24.0945 3.79074C23.7551 3.40375 23.2748 3.2007 22.6653 3.2007C22.0535 3.19832 21.5828 3.40375 21.2434 3.79074Z" fill="white"></path> <path d="M0.497085 3.75006C0.160119 4.13227 0 4.59808 0 5.1714V5.1929C0 7.97108 0.700221 9.96573 2.10066 11.7502C3.52261 13.537 5.81207 14.4304 9.00967 14.4304C10.6539 14.4304 12.0758 14.1629 13.2755 13.6493C13.4093 13.5824 13.72 13.4486 13.8539 13.4032C13.0533 16.105 10.8092 16.7738 8.52214 16.7977C6.21117 16.8192 5.05688 16.3295 3.70185 15.3238C2.54756 14.4758 1.63465 14.8317 1.0802 15.5699C0.434949 16.4418 0.56878 17.4236 1.68005 18.3385C3.27885 19.6786 5.85509 20.4144 8.54365 20.4144C10.1879 20.4144 12.0997 20.1492 13.2779 19.6356C14.4776 19.122 15.412 18.3863 16.0549 17.4475C16.7001 16.5087 17.1877 15.4815 17.4768 14.3659C17.766 13.2503 17.9357 11.9723 17.9357 10.5892V5.28367C17.9357 4.68169 17.766 4.18243 17.4099 3.77872C17.0777 3.3774 16.5878 3.19824 15.9426 3.19824C15.3212 3.19824 14.8313 3.3989 14.4991 3.77872C14.1669 4.18004 14.0689 4.67214 14.0689 5.27412V5.38639C14.0689 9.42825 12.181 10.8114 8.87106 10.8114C5.56114 10.8114 3.85241 9.11532 3.85241 5.341V5.1714C3.85241 4.59808 3.68273 4.11077 3.34576 3.75006C2.98729 3.36785 2.52127 3.19824 1.88797 3.19824C1.30007 3.19824 0.812543 3.36785 0.497085 3.75006Z" fill="white"></path> <path d="M90.2544 23.539C90.5866 23.2309 90.7706 22.7937 90.7587 22.3422V19.2631C90.7587 18.2454 90.0202 16.8098 88.2996 16.7668V6.00996C88.2996 4.47157 87.1668 3.22461 85.6277 3.22461H77.1486C75.5952 3.22461 74.3907 4.47634 74.3525 5.9574C74.2712 8.93386 73.7574 11.7049 73.1409 13.9145C72.8206 15.0659 72.4813 16.0262 72.1801 16.7644C72.0846 16.7644 71.9985 16.7644 71.9268 16.7644C70.1464 16.7644 69.3936 18.2335 69.3936 19.2631V22.3422C69.3793 22.7961 69.5633 23.2309 69.8979 23.539C70.3663 23.8711 70.708 24.0001 71.3126 24.0001C71.9173 24.0001 72.3713 23.8639 72.7298 23.539C73.0716 23.2356 73.2603 22.7985 73.246 22.3422V20.4145H86.9087V22.3422C86.8943 22.7985 87.0831 23.238 87.4249 23.539C87.7834 23.8639 88.2494 24.0001 88.8564 24.0001C89.4634 24.0001 89.7836 23.8711 90.2544 23.539ZM84.44 6.84365V16.762C81.9808 16.762 78.8502 16.762 76.2954 16.762C76.489 16.1958 76.6778 15.5891 76.857 14.9489C77.4736 12.7416 77.9994 9.79144 78.1667 6.84365H84.44Z" fill="white"></path> </g> <defs> <clipPath id="clip0"> <rect width="154.737" height="21" fill="white" transform="translate(0 3)"></rect> </clipPath> </defs> </svg> 