<?xml version="1.0" encoding="UTF-8"?> <svg xmlns="http://www.w3.org/2000/svg" width="57" height="65" viewBox="0 0 57 65" fill="none"> <path d="M28.3778 29.8238L31.3309 35.7914C31.4232 36.0068 31.6385 36.1298 31.8538 36.1606L38.4366 37.1142C39.0211 37.2064 39.2364 37.8832 38.8365 38.2831L34.0686 42.928C33.9148 43.0818 33.8225 43.3278 33.884 43.5432L35.0222 50.126C35.1145 50.6797 34.53 51.1103 34.0071 50.8642L28.101 47.7574C27.8857 47.6651 27.6703 47.6651 27.455 47.7574L21.5489 50.8642C21.026 51.1411 20.4415 50.7104 20.5338 50.126L21.672 43.5432C21.7027 43.3278 21.6412 43.0818 21.4874 42.928L16.7195 38.2831C16.3196 37.8832 16.5349 37.1757 17.1194 37.1142L23.7022 36.1606C23.9175 36.1298 24.1328 35.976 24.2251 35.7914L27.1166 29.8238C27.3935 29.3009 28.101 29.3009 28.3778 29.8238Z" stroke="white" stroke-width="5" stroke-miterlimit="10" stroke-linecap="round" stroke-linejoin="round"></path> <path d="M8.62971 22.872L2.5083 11.7365L9.92166 2.5083L17.7042 16.7813" stroke="white" stroke-width="5" stroke-miterlimit="10" stroke-linecap="round" stroke-linejoin="round"></path> <path d="M46.8655 22.872L52.9869 11.7365L45.5735 2.5083L37.791 16.7813" stroke="white" stroke-width="5" stroke-miterlimit="10" stroke-linecap="round" stroke-linejoin="round"></path> <path d="M9.92139 2.5083H44.6811" stroke="white" stroke-width="5" stroke-miterlimit="10" stroke-linecap="round" stroke-linejoin="round"></path> <path d="M14.9666 11.7363H40.5288" stroke="white" stroke-width="5" stroke-miterlimit="10" stroke-linecap="round" stroke-linejoin="round"></path> <path d="M27.7628 62.4919C39.6549 62.4919 49.2954 52.8515 49.2954 40.9593C49.2954 29.0672 39.6549 19.4268 27.7628 19.4268C15.8707 19.4268 6.23022 29.0672 6.23022 40.9593C6.23022 52.8515 15.8707 62.4919 27.7628 62.4919Z" stroke="white" stroke-width="5" stroke-miterlimit="10" stroke-linecap="round" stroke-linejoin="round"></path> </svg> 