<?xml version="1.0" encoding="UTF-8"?> <svg xmlns="http://www.w3.org/2000/svg" width="184" height="233" viewBox="0 0 184 233" fill="none"> <g clip-path="url(#clip0)"> <path d="M161.938 233H9.90095C5.60189 233 2.08447 229.473 2.08447 225.163V72.7183C2.08447 68.4077 5.60189 64.8809 9.90095 64.8809H161.938C166.237 64.8809 169.755 68.4077 169.755 72.7183V225.163C169.755 229.473 166.237 233 161.938 233Z" fill="#D0E216"></path> <path d="M118.524 64.822V230.982" stroke="white" stroke-width="5.5031" stroke-miterlimit="10" stroke-linecap="round" stroke-linejoin="round" stroke-dasharray="13.76 13.76"></path> <path d="M181.062 0.372278C181.062 0.248185 181.049 0.124093 181.043 0C146.038 0.822929 118.322 29.9389 119.143 65.0441C119.143 65.1682 119.156 65.2923 119.162 65.4164C154.161 64.5934 181.877 35.4709 181.062 0.372278Z" fill="#20BDB7"></path> <path d="M119.143 65.0442C119.143 64.9201 119.13 64.796 119.123 64.6719C84.1183 65.4948 56.4024 94.6108 57.2231 129.716C57.2231 129.84 57.2361 129.964 57.2426 130.088C92.2409 129.259 119.957 100.143 119.143 65.0442Z" fill="#20BDB7"></path> <path d="M184 126.744C184 126.868 184 126.993 184 127.117C148.995 127.933 119.957 100.136 119.143 65.0377C119.143 64.9136 119.143 64.7895 119.143 64.6655C154.147 63.8556 183.186 91.6458 184 126.744Z" fill="#20BDB7"></path> <path d="M119.143 65.0442C119.143 65.1683 119.143 65.2924 119.143 65.4165C84.1378 66.2329 55.0996 38.4362 54.2854 3.33757C54.2854 3.21348 54.2854 3.08938 54.2854 2.96529C89.2902 2.14889 118.322 29.9391 119.143 65.0442Z" fill="#20BDB7"></path> <path d="M3 172H170.8" stroke="white" stroke-width="5.5031" stroke-miterlimit="10" stroke-linecap="round" stroke-linejoin="round" stroke-dasharray="13.76 13.76"></path> </g> <defs> <clipPath id="clip0"> <rect width="184" height="233" fill="white"></rect> </clipPath> </defs> </svg> 