<?xml version="1.0" encoding="UTF-8"?> <svg xmlns="http://www.w3.org/2000/svg" width="223" height="282" viewBox="0 0 223 282" fill="none"> <g clip-path="url(#clip0)"> <path d="M196.262 282H11.9994C6.78908 282 2.52612 277.732 2.52612 272.515V88.011C2.52612 82.7939 6.78908 78.5254 11.9994 78.5254H196.262C201.472 78.5254 205.735 82.7939 205.735 88.011V272.515C205.735 277.732 201.472 282 196.262 282Z" fill="#20BDB7"></path> <path d="M2.1709 203.665H205.538" stroke="white" stroke-width="5.5031" stroke-miterlimit="10" stroke-linecap="round" stroke-linejoin="round" stroke-dasharray="13.76 13.76"></path> <path d="M143.646 78.4541V279.557" stroke="white" stroke-width="5.5031" stroke-miterlimit="10" stroke-linecap="round" stroke-linejoin="round" stroke-dasharray="13.76 13.76"></path> <path d="M219.44 0.450568C219.44 0.300378 219.424 0.150189 219.416 0C176.992 0.995992 143.401 36.2351 144.396 78.7229C144.396 78.873 144.412 79.0232 144.419 79.1734C186.836 78.1774 220.426 42.9304 219.44 0.450568Z" fill="#FD4F28"></path> <path d="M144.396 78.7228C144.396 78.5726 144.38 78.4224 144.372 78.2722C101.948 79.2682 68.3572 114.507 69.3519 156.995C69.3519 157.145 69.3676 157.295 69.3755 157.446C111.792 156.442 145.382 121.203 144.396 78.7228Z" fill="#FD4F28"></path> <path d="M223 153.399C223 153.549 223 153.699 223 153.849C180.576 154.837 145.383 121.195 144.396 78.7151C144.396 78.5649 144.396 78.4147 144.396 78.2645C186.82 77.2844 222.013 110.919 223 153.399Z" fill="#FD4F28"></path> <path d="M144.396 78.7227C144.396 78.8729 144.396 79.0231 144.396 79.1733C101.971 80.1614 66.7783 46.519 65.7915 4.03918C65.7915 3.88899 65.7915 3.7388 65.7915 3.58861C108.216 2.60052 143.401 36.235 144.396 78.7227Z" fill="#FD4F28"></path> </g> <defs> <clipPath id="clip0"> <rect width="223" height="282" fill="white"></rect> </clipPath> </defs> </svg> 