<?xml version="1.0" encoding="UTF-8"?> <svg xmlns="http://www.w3.org/2000/svg" width="559" height="558" viewBox="0 0 559 558" fill="none"> <path d="M380.813 60.9651C375.883 38.9405 355.334 24.1053 333.532 27.4598C311.73 30.8142 296.602 51.1322 298.536 73.6179L298.399 73.6375C293.081 52.1621 272.821 37.8272 251.348 41.1277C229.876 44.4282 214.87 64.1921 216.269 86.2707L216.196 86.2805C211.673 63.7017 190.829 48.3712 168.698 51.7747C149.391 54.7466 135.313 71.0236 133.693 90.3264C133.605 91.3759 132.205 91.528 131.861 90.5324C125.193 71.2492 106.117 58.8171 85.9698 61.9165C63.1861 65.423 47.6744 87.4526 51.3228 111.125C51.3473 111.292 51.3866 111.459 51.4112 111.625H51.4013L59.9895 167.337C62.587 184.192 77.8433 195.83 94.0669 193.339L364.86 151.692C381.074 149.196 392.117 133.518 389.519 116.672L380.926 60.9504L380.813 60.9651Z" fill="white"></path> <path d="M88.2731 260.02C88.2142 260.079 88.1553 260.128 88.0963 260.186C72.02 243.708 72.2754 217.417 88.6659 201.464C88.7249 201.405 88.7838 201.356 88.8427 201.297C104.914 217.775 104.659 244.066 88.2731 260.02Z" fill="#4A2CFF"></path> <path d="M89.3043 326.927C89.2453 326.986 89.1864 327.04 89.1324 327.099C72.3736 311.298 71.6125 284.918 87.4334 268.175C87.4924 268.116 87.5513 268.063 87.6053 268.004C104.364 283.805 105.125 310.184 89.3043 326.927Z" fill="#4A2CFF"></path> <path d="M128.258 274.958C128.199 275.017 128.14 275.066 128.081 275.124C111.906 258.725 112.103 232.336 128.523 216.176C128.582 216.117 128.641 216.068 128.699 216.01C144.874 232.409 144.678 258.798 128.258 274.958Z" fill="#4A2CFF"></path> <path d="M553.857 398.528L389.107 435.756C385.945 436.472 382.773 434.471 382.061 431.312L367.649 367.696C366.932 364.537 368.936 361.369 372.098 360.658L536.848 323.43C540.01 322.714 543.182 324.715 543.894 327.874L558.306 391.491C559.018 394.649 557.02 397.817 553.857 398.528Z" fill="white"></path> <path d="M453.756 398.307C450.844 398.964 448.149 399.116 445.669 398.758C443.189 398.4 441.112 397.655 439.433 396.522L442.551 389.156C443.867 389.857 445.369 390.279 447.044 390.436C448.723 390.588 450.221 390.514 451.537 390.215C452.976 389.892 454.036 389.44 454.714 388.871C455.391 388.303 455.661 387.724 455.529 387.14C455.396 386.562 454.989 386.209 454.301 386.091C453.614 385.973 452.322 386.13 450.422 386.557C448.06 387.091 446.582 387.459 445.983 387.655L444.122 379.436C444.525 379.377 446.018 379.053 448.591 378.475C451.409 377.837 452.705 377.013 452.48 376.003C452.18 374.689 450.515 374.37 447.481 375.056C444.628 375.699 442.335 377.155 440.592 379.411L434.916 374.615C437.218 370.554 441.127 367.901 446.646 366.656C450.786 365.719 454.12 365.773 456.658 366.808C459.197 367.842 460.758 369.662 461.348 372.266C461.716 373.889 461.411 375.493 460.434 377.082C459.457 378.671 458.023 379.838 456.128 380.588C458.048 380.382 459.894 380.75 461.672 381.702C463.449 382.653 464.564 384.124 465.016 386.11C465.634 388.837 464.908 391.324 462.84 393.575C460.768 395.831 457.743 397.405 453.756 398.307Z" fill="#FD4E28"></path> <path d="M489.818 387.768C488.06 389.759 485.713 391.083 482.771 391.75C479.83 392.417 477.134 392.226 474.694 391.186C472.254 390.147 470.28 388.563 468.787 386.439C467.289 384.316 466.219 381.829 465.575 378.985C464.569 374.547 464.903 370.535 466.572 366.955C468.242 363.375 471.252 361.094 475.607 360.109C479.963 359.123 483.66 359.888 486.709 362.404C489.759 364.915 491.787 368.392 492.793 372.83C493.437 375.679 493.545 378.382 493.108 380.942C492.666 383.506 491.571 385.782 489.818 387.768ZM480.915 383.58C483.768 382.938 484.613 380.059 483.454 374.944C482.305 369.863 480.302 367.641 477.449 368.289C474.601 368.931 473.746 371.795 474.9 376.876C476.059 381.986 478.067 384.222 480.915 383.58Z" fill="#FD4E28"></path> <path d="M502.633 370.221C500.183 370.775 498.037 370.486 496.201 369.358C494.365 368.23 493.201 366.577 492.71 364.405C492.209 362.203 492.543 360.187 493.711 358.363C494.875 356.538 496.687 355.352 499.137 354.798C501.622 354.238 503.787 354.528 505.643 355.67C507.495 356.813 508.673 358.485 509.174 360.687C509.665 362.86 509.321 364.856 508.138 366.666C506.95 368.475 505.118 369.662 502.633 370.221ZM507.563 385.571L503.105 386.576L515.754 351.522L520.261 350.501L507.563 385.571ZM501.534 365.356C502.329 365.175 502.923 364.802 503.311 364.233C503.699 363.664 503.782 362.904 503.566 361.953C503.345 360.972 502.933 360.3 502.339 359.937C501.74 359.574 501.043 359.481 500.247 359.662C499.481 359.834 498.911 360.212 498.548 360.795C498.18 361.379 498.106 362.159 498.327 363.139C498.543 364.091 498.941 364.738 499.52 365.091C500.095 365.44 500.768 365.528 501.534 365.356ZM529.557 378.862C528.373 380.677 526.551 381.859 524.101 382.413C521.651 382.967 519.505 382.678 517.669 381.55C515.832 380.422 514.669 378.769 514.178 376.596C513.677 374.395 514.011 372.379 515.179 370.555C516.343 368.73 518.155 367.543 520.605 366.989C523.055 366.435 525.211 366.729 527.062 367.872C528.918 369.015 530.092 370.687 530.593 372.889C531.084 375.057 530.74 377.048 529.557 378.862ZM522.996 377.543C524.774 377.141 525.452 376.008 525.029 374.139C524.808 373.159 524.396 372.487 523.802 372.124C523.203 371.761 522.505 371.668 521.71 371.849C519.962 372.246 519.309 373.404 519.746 375.336C520.163 377.205 521.248 377.94 522.996 377.543Z" fill="#FD4E28"></path> <path d="M397.632 394.227L396.335 387.66C396.802 387.567 397.136 387.346 397.342 386.988C397.548 386.63 397.622 385.924 397.563 384.87L397.283 379.152L407.737 377.092L409.289 384.958L410.565 384.708L411.891 391.422L407.555 392.275L406.971 389.318L401.383 390.416L401.968 393.374L397.632 394.227ZM401.732 382.173L401.825 384.031C401.874 385.037 401.722 385.865 401.364 386.523L404.953 385.816L404.143 381.702L401.732 382.173Z" fill="#FD4E28"></path> <path d="M423.028 384.6C422.075 386.022 420.602 386.925 418.608 387.317C416.615 387.709 414.916 387.43 413.502 386.473C412.088 385.517 411.209 384.193 410.875 382.491C410.541 380.789 410.845 379.235 411.793 377.822C412.741 376.41 414.209 375.508 416.202 375.115C418.191 374.723 419.9 374.998 421.319 375.944C422.738 376.891 423.617 378.21 423.956 379.912C424.295 381.618 423.985 383.178 423.028 384.6ZM417.857 383.497C418.515 383.369 418.987 383.055 419.271 382.555C419.556 382.06 419.635 381.471 419.502 380.799C419.37 380.142 419.08 379.637 418.628 379.284C418.176 378.931 417.617 378.823 416.959 378.95C416.315 379.078 415.854 379.392 415.569 379.887C415.284 380.382 415.206 380.961 415.338 381.618C415.471 382.29 415.765 382.805 416.217 383.158C416.664 383.511 417.214 383.624 417.857 383.497Z" fill="#FD4E28"></path> <path d="M398.673 400.941L427.501 394.423" stroke="#FD4E28" stroke-width="13.5773" stroke-miterlimit="10"></path> <path d="M413.118 197.04C401.412 211.939 381.211 218.702 362.154 212.454C343.097 206.206 330.836 188.801 330.247 169.876L243.885 141.564L201.175 271.534L289.556 300.503C301.532 288.449 319.715 283.432 336.969 289.087C354.224 294.741 365.896 309.547 368.39 326.344L456.771 355.313L499.48 225.342L413.118 197.04Z" fill="#2AB5AF"></path> <path d="M247.931 252.502L236.402 248.755L256.269 187.791L282.991 196.476L279.686 206.623L264.494 201.685L259.696 216.402L274.246 221.134L270.941 231.281L256.392 226.549L247.931 252.502Z" fill="white"></path> <path d="M305.033 271.069L292.679 267.052L293.386 242.517L289.634 241.296L282.338 263.688L270.808 259.941L290.675 198.978L307.699 204.509C312.58 206.093 316.003 209.164 317.962 213.71C319.921 218.256 320 223.302 318.193 228.844C315.433 237.313 310.98 242.066 304.842 243.105L305.033 271.069ZM296.695 232.37C298.831 233.066 300.746 232.777 302.441 231.507C304.135 230.237 305.441 228.202 306.354 225.401C307.267 222.601 307.41 220.183 306.791 218.163C306.167 216.142 304.788 214.784 302.652 214.087L298.9 212.866L292.944 231.149L296.695 232.37Z" fill="white"></path> <path d="M324.434 277.376L312.904 273.629L332.771 212.665L344.301 216.412L324.434 277.376Z" fill="white"></path> <path d="M349.235 285.438L333.955 280.47L353.822 219.506L369.014 224.445C376.031 226.725 380.342 231.193 381.953 237.848C383.563 244.503 382.856 252.462 379.841 261.726C376.802 271.049 372.697 277.905 367.526 282.285C362.346 286.664 356.252 287.714 349.235 285.438ZM352.452 275.262C358.432 277.204 363.623 271.412 368.032 257.886C372.461 244.297 371.685 236.534 365.705 234.587L362.041 233.395L348.789 274.07L352.452 275.262Z" fill="white"></path> <path d="M410.825 305.457L398.928 301.587L400.759 289.749L389.412 286.061L383.922 296.713L372.024 292.843L404.614 236.014L417.882 240.329L410.825 305.457ZM402.787 279.19L407.094 251.074L394.003 276.336L402.787 279.19Z" fill="white"></path> <path d="M433.796 312.926L422.355 309.209L430.575 283.982L427.854 243.571L440.12 247.558L439.884 274.674L455.858 252.673L467.937 256.602L442.015 287.699L433.796 312.926Z" fill="white"></path> <path d="M139.099 116.999C142.267 116.524 144.643 116.641 146.229 117.347C148.591 118.407 150.064 120.893 150.653 124.797C150.914 126.518 150.806 128.014 150.339 129.279C149.868 130.545 149.19 131.467 148.301 132.035C151.547 132.933 153.462 135.302 154.041 139.146C154.542 142.467 154.11 144.938 152.75 146.557C151.39 148.175 148.896 149.259 145.267 149.803L114.592 154.408L109.633 121.418L139.099 116.999ZM121.643 132.339L139.635 129.642C140.435 129.524 141.029 129.25 141.422 128.833C141.815 128.411 141.952 127.818 141.839 127.053C141.722 126.253 141.417 125.719 140.936 125.444C140.455 125.17 139.797 125.096 138.967 125.219L120.976 127.916L121.643 132.339ZM123.544 144.963L141.118 142.324C143.087 142.03 143.946 141.054 143.696 139.392C143.538 138.347 143.175 137.67 142.61 137.361C142.046 137.052 141.285 136.969 140.332 137.116L122.758 139.755L123.544 144.963Z" fill="black"></path> <path d="M156.781 114.439L166.931 112.919L170.599 137.292L193.618 133.84L194.9 142.363L161.731 147.341L156.781 114.439Z" fill="black"></path> <path d="M210.063 106.445L227.499 103.827L248.776 134.272L236.922 136.052L232.955 130.996L212.842 134.012L210.539 140.01L198.686 141.79L210.063 106.445ZM220.679 112.438L219.113 112.674L215.341 124.924L227.843 123.051L220.679 112.438Z" fill="black"></path> <path d="M268.294 97.1912C277.702 95.7788 283.619 95.6905 286.04 96.9313C288.151 97.9955 289.644 101.448 290.523 107.284L280.329 108.814C280.044 106.911 279.352 105.774 278.257 105.401C276.897 104.945 274.005 105.048 269.576 105.715C264.626 106.46 261.778 107.279 261.032 108.177C260.285 109.074 260.222 111.565 260.835 115.651C261.444 119.706 262.24 122.05 263.217 122.688C264.194 123.326 267.155 123.277 272.109 122.531C276.597 121.859 279.367 121.168 280.408 120.462C281.449 119.755 281.822 118.407 281.522 116.406L291.672 114.881C292.556 120.746 292.173 124.478 290.528 126.077C288.578 127.97 282.868 129.627 273.396 131.05C263.924 132.472 258.066 132.472 255.822 131.05C253.578 129.627 251.869 124.983 250.686 117.122C249.507 109.29 249.748 104.4 251.403 102.458C253.19 100.369 258.822 98.6134 268.294 97.1912Z" fill="black"></path> <path d="M295.723 93.5914L305.872 92.0662L307.606 103.586L312.909 102.792L322.661 89.5504L336.64 87.4514L322.528 105.587L343.711 120.03L328.995 122.237L314.191 111.315L308.887 112.11L310.822 124.963L300.672 126.489L295.723 93.5914Z" fill="black"></path> <path d="M501.042 87.3826C501.023 87.3042 500.998 87.2257 500.978 87.1472C478.617 92.7331 465.025 115.361 470.613 137.695C470.633 137.773 470.657 137.852 470.677 137.93C493.038 132.349 506.63 109.716 501.042 87.3826Z" fill="#4A2CFF"></path> <path d="M470.613 137.694C470.593 137.616 470.569 137.537 470.549 137.459C448.188 143.045 434.596 165.673 440.184 188.006C440.204 188.085 440.228 188.163 440.248 188.242C462.604 182.656 476.201 160.028 470.613 137.694Z" fill="#4A2CFF"></path> <path d="M521.165 167.791C521.184 167.87 521.199 167.953 521.219 168.032C498.857 173.613 476.201 160.028 470.613 137.694C470.593 137.616 470.579 137.533 470.559 137.454C492.921 131.878 515.577 145.458 521.165 167.791Z" fill="#4A2CFF"></path> <path d="M470.613 137.695C470.633 137.773 470.647 137.857 470.667 137.935C448.306 143.516 425.65 129.931 420.062 107.598C420.042 107.519 420.027 107.436 420.008 107.357C442.369 101.781 465.025 115.361 470.613 137.695Z" fill="#4A2CFF"></path> <path d="M441.52 134.384C447.554 134.384 452.445 129.499 452.445 123.472C452.445 117.446 447.554 112.561 441.52 112.561C435.486 112.561 430.594 117.446 430.594 123.472C430.594 129.499 435.486 134.384 441.52 134.384Z" fill="white" stroke="white" stroke-width="1.1711" stroke-miterlimit="10"></path> <path d="M439.188 133.894C442.713 133.894 445.571 131.04 445.571 127.518C445.571 123.997 442.713 121.143 439.188 121.143C435.662 121.143 432.804 123.997 432.804 127.518C432.804 131.04 435.662 133.894 439.188 133.894Z" fill="black" stroke="white" stroke-width="0.6842" stroke-miterlimit="10"></path> <path d="M481.293 124.576C487.327 124.576 492.218 119.69 492.218 113.664C492.218 107.638 487.327 102.752 481.293 102.752C475.259 102.752 470.367 107.638 470.367 113.664C470.367 119.69 475.259 124.576 481.293 124.576Z" fill="white" stroke="white" stroke-width="1.1711" stroke-miterlimit="10"></path> <path d="M478.96 124.086C482.486 124.086 485.344 121.231 485.344 117.71C485.344 114.189 482.486 111.335 478.96 111.335C475.435 111.335 472.577 114.189 472.577 117.71C472.577 121.231 475.435 124.086 478.96 124.086Z" fill="black" stroke="white" stroke-width="0.6842" stroke-miterlimit="10"></path> <path d="M428.101 102.863C427.351 102.975 426.647 102.407 426.546 101.608L425.414 92.8714C425.308 92.0727 425.841 91.323 426.592 91.2152C427.342 91.1025 428.046 91.6709 428.147 92.4696L429.279 101.206C429.385 102.005 428.851 102.75 428.101 102.863Z" fill="white"></path> <path d="M437.28 103.816C436.48 103.643 435.963 102.851 436.137 102.054L438.021 93.3455C438.195 92.5488 438.991 92.0342 439.791 92.2074C440.592 92.3806 441.109 93.1723 440.935 93.969L439.05 102.678C438.881 103.48 438.086 103.989 437.28 103.816Z" fill="white"></path> <path d="M444.664 105.596C443.922 105.189 443.668 104.272 444.093 103.563L448.766 95.8352C449.196 95.1263 450.152 94.8834 450.894 95.2899C451.636 95.6964 451.891 96.6135 451.465 97.3223L446.793 105.051C446.362 105.764 445.407 106.007 444.664 105.596Z" fill="white"></path> <path d="M452.035 109.18C451.498 108.565 451.563 107.629 452.184 107.097L458.938 101.291C459.559 100.759 460.502 100.823 461.038 101.439C461.575 102.055 461.51 102.99 460.889 103.522L454.135 109.328C453.52 109.86 452.571 109.796 452.035 109.18Z" fill="white"></path> <path d="M163.273 446.898C143.524 404.693 161.771 354.489 204.029 334.764C246.287 315.04 296.553 333.263 316.302 375.469" fill="#FD4F28"></path> <path d="M200.164 387.847C200.306 387.773 200.439 387.695 200.576 387.621C180.218 348.285 131.793 332.876 92.4027 353.204C92.2603 353.277 92.1277 353.356 91.9902 353.429C112.348 392.761 160.779 408.17 200.164 387.847Z" fill="#D0E216"></path> <path d="M238.233 373.218C244.267 373.218 249.159 368.333 249.159 362.306C249.159 356.28 244.267 351.394 238.233 351.394C232.2 351.394 227.308 356.28 227.308 362.306C227.308 368.333 232.2 373.218 238.233 373.218Z" fill="white" stroke="white" stroke-width="1.1711" stroke-miterlimit="10"></path> <path d="M244.249 367.823C246.961 367.823 249.159 365.628 249.159 362.919C249.159 360.211 246.961 358.015 244.249 358.015C241.537 358.015 239.338 360.211 239.338 362.919C239.338 365.628 241.537 367.823 244.249 367.823Z" fill="black"></path> <path d="M260.821 363.9C266.855 363.9 271.746 359.015 271.746 352.988C271.746 346.962 266.855 342.076 260.821 342.076C254.787 342.076 249.896 346.962 249.896 352.988C249.896 359.015 254.787 363.9 260.821 363.9Z" fill="white" stroke="white" stroke-width="1.1711" stroke-miterlimit="10"></path> <path d="M266.836 358.996C269.548 358.996 271.746 356.8 271.746 354.092C271.746 351.383 269.548 349.188 266.836 349.188C264.124 349.188 261.926 351.383 261.926 354.092C261.926 356.8 264.124 358.996 266.836 358.996Z" fill="black"></path> <path d="M246.252 338.722C246.056 337.937 246.542 337.133 247.327 336.942L255.906 334.813C256.691 334.617 257.497 335.103 257.688 335.887C257.885 336.672 257.398 337.476 256.613 337.668L248.035 339.796C247.249 339.987 246.444 339.507 246.252 338.722Z" fill="white"></path> <path d="M226.243 349.075C225.84 348.373 226.081 347.471 226.783 347.064L234.438 342.65C235.14 342.243 236.044 342.488 236.451 343.19C236.854 343.891 236.613 344.793 235.911 345.2L228.256 349.614C227.554 350.016 226.65 349.771 226.243 349.075Z" fill="white"></path> <path d="M245.967 380.329C245.967 380.329 244.003 389.647 249.895 390.137C255.788 390.628 259.225 378.367 259.225 378.367" stroke="white" stroke-width="5" stroke-miterlimit="10" stroke-linecap="round" stroke-linejoin="round"></path> </svg> 