<?xml version="1.0" encoding="UTF-8"?> <svg xmlns="http://www.w3.org/2000/svg" width="151" height="192" viewBox="0 0 151 192" fill="none"> <g clip-path="url(#clip0)"> <path d="M132.895 192H8.12531C4.59727 192 1.71069 189.094 1.71069 185.542V59.9224C1.71069 56.3703 4.59727 53.4641 8.12531 53.4641H132.895C136.423 53.4641 139.309 56.3703 139.309 59.9224V185.542C139.309 189.094 136.423 192 132.895 192Z" fill="#F6AE01"></path> <path d="M1.46997 138.665H139.176" stroke="white" stroke-width="5.5031" stroke-miterlimit="10" stroke-linecap="round" stroke-linejoin="round" stroke-dasharray="13.76 13.76"></path> <path d="M97.2671 53.4155V190.337" stroke="white" stroke-width="5.5031" stroke-miterlimit="10" stroke-linecap="round" stroke-linejoin="round" stroke-dasharray="13.76 13.76"></path> <path d="M148.589 0.306769C148.589 0.204513 148.578 0.102256 148.573 0C119.846 0.678122 97.1011 24.6707 97.7746 53.5985C97.7746 53.7008 97.7853 53.8031 97.7906 53.9053C126.512 53.2272 149.257 29.2292 148.589 0.306769Z" fill="white"></path> <path d="M97.7746 53.5985C97.7746 53.4963 97.7639 53.394 97.7585 53.2917C69.0318 53.9699 46.2866 77.9625 46.9601 106.89C46.9601 106.993 46.9708 107.095 46.9762 107.197C75.6976 106.514 98.4427 82.5209 97.7746 53.5985Z" fill="white"></path> <path d="M151 104.442C151 104.544 151 104.646 151 104.749C122.273 105.421 98.4428 82.5159 97.7747 53.5935C97.7747 53.4912 97.7747 53.3889 97.7747 53.2867C126.501 52.6193 150.332 75.5194 151 104.442Z" fill="white"></path> <path d="M97.7746 53.5986C97.7746 53.7008 97.7746 53.8031 97.7746 53.9053C69.0478 54.5781 45.2175 31.6726 44.5493 2.75018C44.5493 2.64792 44.5493 2.54566 44.5493 2.44341C73.2761 1.77067 97.101 24.6707 97.7746 53.5986Z" fill="white"></path> </g> <defs> <clipPath id="clip0"> <rect width="151" height="192" fill="white"></rect> </clipPath> </defs> </svg> 