<?xml version="1.0" encoding="UTF-8"?> <svg xmlns="http://www.w3.org/2000/svg" width="68" height="65" viewBox="0 0 68 65" fill="none"> <g clip-path="url(#clip0)"> <path d="M21.7239 30.1325C21.7239 30.1325 25.9779 26.9911 30.2646 30.0998" stroke="white" stroke-width="5" stroke-miterlimit="10" stroke-linecap="round"></path> <path d="M40.5398 42.3711C40.5398 42.3711 33.7334 49.7011 26.8943 42.4365" stroke="white" stroke-width="5" stroke-miterlimit="10" stroke-linecap="round"></path> <path d="M37.0708 30.0676C37.0708 30.0676 41.3248 26.9261 45.6115 30.0348" stroke="white" stroke-width="5" stroke-miterlimit="10" stroke-linecap="round"></path> <path d="M35.3694 3.66016L43.4847 20.1199C43.7792 20.6762 44.3028 21.0689 44.9245 21.167L63.1186 23.7849C64.6893 24.0139 65.3111 25.9446 64.1657 27.0572L51.011 39.8847C50.5529 40.3101 50.3566 40.9645 50.4548 41.5863L53.5634 59.6822C53.8252 61.2529 52.1891 62.4309 50.782 61.711L34.5186 53.1702C33.9623 52.8757 33.3078 52.8757 32.7515 53.1702L16.4882 61.711C15.0811 62.4636 13.4449 61.2529 13.7067 59.6822L16.8154 41.5863C16.9136 40.9645 16.7172 40.3428 16.2591 39.8847L3.16984 27.0572C2.02453 25.9446 2.64627 24.0139 4.21698 23.7849L22.3783 21.1343C23.0001 21.0361 23.5236 20.6435 23.8181 20.0872L31.9335 3.62744C32.6534 2.22034 34.6822 2.22034 35.3694 3.66016Z" stroke="white" stroke-width="5" stroke-miterlimit="10" stroke-linecap="round" stroke-linejoin="round"></path> </g> <defs> <clipPath id="clip0"> <rect width="67.8676" height="65" fill="white"></rect> </clipPath> </defs> </svg> 