<?xml version="1.0" encoding="UTF-8"?> <svg xmlns="http://www.w3.org/2000/svg" width="72" height="65" viewBox="0 0 72 65" fill="none"> <g clip-path="url(#clip0)"> <path d="M52.408 23.6396C61.8866 25.6018 68.8899 32.3937 68.8899 40.4536C68.8899 45.3438 66.324 49.7208 62.2187 52.8904L61.6753 62.5199L53.2834 57.0864C51.2307 57.5693 49.0271 57.841 46.7631 57.841C36.1375 57.841 27.2324 51.9546 25.1194 44.0759" stroke="white" stroke-width="5" stroke-miterlimit="10" stroke-linecap="round" stroke-linejoin="round"></path> <path d="M54.129 48.8457L46.9748 33.7524L39.8206 48.8457" stroke="white" stroke-width="5" stroke-miterlimit="10" stroke-linecap="round" stroke-linejoin="round"></path> <path d="M41.4507 45.4043H52.499" stroke="white" stroke-width="5" stroke-miterlimit="10" stroke-linecap="round" stroke-linejoin="round"></path> <path d="M24.9989 27.5949C28.9501 27.5949 32.1532 24.0405 32.1532 19.6559C32.1532 15.2712 28.9501 11.7168 24.9989 11.7168C21.0478 11.7168 17.8447 15.2712 17.8447 19.6559C17.8447 24.0405 21.0478 27.5949 24.9989 27.5949Z" stroke="white" stroke-width="5" stroke-miterlimit="10" stroke-linecap="round" stroke-linejoin="round"></path> <path d="M26.146 24.0024C27.9874 25.0892 28.41 29.104 30.0099 29.8284" stroke="white" stroke-width="5" stroke-miterlimit="10" stroke-linecap="round" stroke-linejoin="round"></path> <path d="M24.6062 2.47949C12.3807 2.47949 2.47949 10.2676 2.47949 19.8669C2.47949 24.7572 5.04535 29.1342 9.15072 32.3038L9.69408 41.9333L18.0859 36.4997C20.1386 36.9827 22.3422 37.2544 24.6062 37.2544C36.8318 37.2544 46.733 29.4663 46.733 19.8669C46.7632 10.2676 36.8318 2.47949 24.6062 2.47949Z" stroke="white" stroke-width="5" stroke-miterlimit="10" stroke-linecap="round" stroke-linejoin="round"></path> </g> <defs> <clipPath id="clip0"> <rect width="71.791" height="65" fill="white"></rect> </clipPath> </defs> </svg> 