<?xml version="1.0" encoding="UTF-8"?> <svg xmlns="http://www.w3.org/2000/svg" width="88" height="65" viewBox="0 0 88 65" fill="none"> <path d="M80.7655 39.7798C82.0862 40.2867 83.0417 41.751 83.0417 43.4688C83.0417 45.609 81.5804 47.355 79.7538 47.355C79.1356 47.355 78.5454 47.1297 78.0396 46.7636C75.6229 54.7331 69.3001 62.7307 62.6682 62.7307C56.0362 62.7307 49.7415 54.7049 47.2967 46.7636C46.7909 47.1297 46.2289 47.355 45.5825 47.355C43.7559 47.355 42.2947 45.609 42.2947 43.4688C42.2947 41.751 43.2501 40.2867 44.5428 39.7798" stroke="white" stroke-width="3" stroke-miterlimit="10" stroke-linecap="round" stroke-linejoin="round"></path> <path d="M57.4412 51.9736C58.3685 53.4943 60.3637 54.5644 62.6961 54.5644C65.0285 54.5644 66.9956 53.4943 67.9511 51.9736" stroke="white" stroke-width="3" stroke-miterlimit="10" stroke-linecap="round" stroke-linejoin="round"></path> <path d="M85.2616 33.2475C65.675 36.7394 53.9286 21.9551 53.6195 21.7861C53.6195 21.7861 52.4111 34.3458 47.2405 34.3458" stroke="white" stroke-width="3" stroke-miterlimit="10" stroke-linecap="round" stroke-linejoin="round"></path> <path d="M42.5194 35.8943C40.2713 22.1237 50.2473 10.1836 62.8367 10.1836C73.2904 10.1836 81.9456 18.4065 83.2945 29.0512" stroke="white" stroke-width="3" stroke-miterlimit="10" stroke-linecap="round" stroke-linejoin="round"></path> <path d="M52.7202 9.11323C52.7202 5.31154 57.2445 2.21387 62.8367 2.21387C68.4289 2.21387 72.9532 5.31154 72.9532 9.11323" stroke="white" stroke-width="3" stroke-miterlimit="10" stroke-linecap="round" stroke-linejoin="round"></path> <path d="M47.8586 34.5146L62.9491 38.0911C62.9491 38.0911 50.7531 55.7478 47.8586 34.5146Z" stroke="white" stroke-width="3" stroke-miterlimit="10" stroke-linecap="round" stroke-linejoin="round"></path> <path d="M77.7586 34.5146L62.6682 38.0911C62.6682 38.0911 74.8642 55.7478 77.7586 34.5146Z" stroke="white" stroke-width="3" stroke-miterlimit="10" stroke-linecap="round" stroke-linejoin="round"></path> <g clip-path="url(#clip0)"> <path d="M31.9497 47.4854C33.3911 47.1756 34.5442 48.531 34.5442 50.0799C34.5442 52.1129 32.6608 53.4102 31.1809 52.3259C29.5473 57.7279 25.2807 63.1686 20.8027 63.1686C16.3248 63.1686 12.0774 57.7279 10.4246 52.3259C8.92551 53.4295 7.06128 52.1129 7.06128 50.0799C7.06128 48.531 8.23363 47.195 9.65582 47.4854" stroke="white" stroke-width="3" stroke-miterlimit="10" stroke-linecap="round" stroke-linejoin="round"></path> <path d="M17.2666 55.8301C17.9008 56.8756 19.2461 57.592 20.8029 57.592C22.3788 57.592 23.7049 56.8756 24.3391 55.8301" stroke="white" stroke-width="3" stroke-miterlimit="10" stroke-linecap="round" stroke-linejoin="round"></path> <path d="M34.4869 44.9294C18.2662 46.5171 14.8837 35.4614 14.6915 35.3452C14.6915 35.3452 13.8843 43.8645 10.3865 43.8645" stroke="white" stroke-width="3" stroke-miterlimit="10" stroke-linecap="round" stroke-linejoin="round"></path> <path d="M15.9983 47.7373V49.6735" stroke="white" stroke-width="3" stroke-miterlimit="10" stroke-linecap="round"></path> <path d="M25.6077 47.7373V49.6735" stroke="white" stroke-width="3" stroke-miterlimit="10" stroke-linecap="round"></path> <path d="M6.98462 42.2968C6.98462 34.1067 13.2307 27.4849 20.9183 27.4849C28.6058 27.4849 34.8519 34.126 34.8519 42.2968" stroke="white" stroke-width="3" stroke-miterlimit="10" stroke-linecap="round" stroke-linejoin="round"></path> <path d="M24.4161 24.9481C20.9375 20.4755 12.5196 20.3594 6.06211 28.2784C-3.16293 39.6052 5.69696 60.671 5.69696 60.671" stroke="white" stroke-width="3" stroke-miterlimit="10" stroke-linecap="round" stroke-linejoin="round"></path> </g> <defs> <clipPath id="clip0"> <rect width="36.6667" height="45" fill="white" transform="translate(0 20)"></rect> </clipPath> </defs> </svg> 