<?xml version="1.0" encoding="UTF-8"?> <svg xmlns="http://www.w3.org/2000/svg" xmlns:xlink="http://www.w3.org/1999/xlink" viewBox="0 0 48 48"> <g id="surface1"> <path style=" fill:#455A64;" d="M 40 32 L 8 32 L 8 10 C 8 9.398438 8.398438 9 9 9 L 39 9 C 39.601563 9 40 9.398438 40 10 Z "></path> <path style=" fill:#BBDEFB;" d="M 10 11 L 38 11 L 38 29 L 10 29 Z "></path> <path style=" fill:#CFD8DC;" d="M 40 31 L 8 31 L 3 37 L 3 39 L 45 39 L 45 37 Z "></path> <path style=" fill:#546E7A;" d="M 10 32 L 38 32 L 40 35 L 8 35 Z "></path> <path style=" fill:#90A4AE;" d="M 28 35 L 20 35 L 19 37 L 29 37 Z "></path> <path style=" fill:#42A5F5;" d="M 12 15 L 22 15 L 22 17 L 12 17 Z M 22 19 L 12 19 L 12 21 L 22 21 Z M 12 25 L 22 25 L 22 23 L 12 23 Z M 26 17 L 36 17 L 36 15 L 26 15 Z M 36 19 L 26 19 L 26 21 L 36 21 Z M 26 25 L 33 25 L 33 23 L 26 23 Z "></path> </g> </svg> 