<?xml version="1.0" encoding="UTF-8"?> <svg xmlns="http://www.w3.org/2000/svg" width="98" height="98" viewBox="0 0 98 98" fill="none"> <path fill-rule="evenodd" clip-rule="evenodd" d="M64.3101 68.9752L74.9579 35.8273C68.303 35.1389 63.3118 29.9627 54.9433 27.5234L56.0663 37.6377L52.9551 40.9865L53.4376 65.8559L56.4989 68.5417L57.938 77.1092C61.0991 79.1915 64.9839 80.5599 70.1747 82.0134L70.2995 85.1666H31.8341L32.1586 82.1068C37.3327 80.8659 41.1676 79.5995 44.179 77.5851L44.6448 68.7287L47.8059 66.0599L47.7061 41.1565L44.6615 37.2042L45.9009 26.2484C37.5241 26.2484 32.3249 29.5462 25.7698 29.0618L36.792 61.8102C27.0676 68.5247 17.8755 68.5332 8.10107 61.8102L19.9135 27.6934C17.3851 26.6104 14.9919 25.2237 12.7845 23.5626L14.9889 20.6133C29.455 29.2148 29.8626 17.1285 50.8755 19.7634C71.8883 22.3982 71.5972 35.5808 84.8737 29.5122L86.5375 32.6995C84.8917 33.6865 83.1455 34.4873 81.33 35.0879L92.9761 68.9327C83.2266 75.6983 74.0346 75.6898 64.3101 68.9752ZM22.6753 29.5972L13.2087 57.6454L31.8258 57.7474L22.6753 29.5972ZM78.4517 36.8388L69.3013 64.9295L87.9183 64.8275L78.4517 36.8388ZM50.3431 16.5846C44.1623 16.5846 44.4369 7.56665 50.2433 7.56665C56.0497 7.56665 55.9914 16.5846 50.3431 16.5846Z" fill="#515DC8"></path> </svg> 