<?xml version="1.0" encoding="UTF-8"?> <svg xmlns="http://www.w3.org/2000/svg" width="1200" height="364" viewBox="0 0 1200 364" fill="none"> <g clip-path="url(#clip0_105:65)"> <path fill-rule="evenodd" clip-rule="evenodd" d="M1200 0H0V728H1200V0ZM38.5396 64.7606C32 77.5953 32 94.3969 32 128V600C32 633.603 32 650.405 38.5396 663.239C44.292 674.529 53.4708 683.708 64.7606 689.46C77.5953 696 94.3969 696 128 696H1072C1105.6 696 1122.4 696 1135.24 689.46C1146.53 683.708 1155.71 674.529 1161.46 663.239C1168 650.405 1168 633.603 1168 600V128C1168 94.3969 1168 77.5953 1161.46 64.7606C1155.71 53.4708 1146.53 44.292 1135.24 38.5396C1122.4 32 1105.6 32 1072 32H128C94.3969 32 77.5953 32 64.7606 38.5396C53.4708 44.292 44.292 53.4708 38.5396 64.7606Z" fill="white"></path> </g> <defs> <clipPath id="clip0_105:65"> <rect width="1200" height="364" fill="white"></rect> </clipPath> </defs> </svg> 