<?xml version="1.0" encoding="UTF-8"?> <svg xmlns="http://www.w3.org/2000/svg" width="64" height="71" viewBox="0 0 64 71" fill="none"> <path fill-rule="evenodd" clip-rule="evenodd" d="M56.2377 44.7393C54.4204 44.3361 52.2257 44.0425 49.7811 43.8297C49.8038 42.798 49.848 40.7576 49.8554 39.8368C49.8855 35.7461 43.9579 35.7237 43.9254 40.1168C43.918 41.0854 43.918 42.6005 43.9192 43.4718C42.55 43.4164 41.1439 43.3751 39.712 43.3439C39.7323 41.5765 39.7544 39.6546 39.7593 39.0274C39.7838 35.6329 35.711 35.0422 34.3031 37.4475L31.2025 30.9025C43.8965 30.9638 53.1665 32.3934 58.1765 35.0174L56.1818 37.8914L56.2377 44.7393ZM25.5401 40.5943C25.5413 39.2862 25.5413 37.1391 25.5339 36.1823C25.5014 31.7898 19.5745 31.8116 19.6046 35.9023C19.6113 36.7383 19.6475 39.1364 19.6715 40.6574C17.802 40.691 16.0148 40.7394 14.3141 40.8084C14.3147 39.5155 14.3135 37.8135 14.3073 36.9912C14.2748 32.5986 8.34727 32.6204 8.37735 36.7123C8.38349 37.494 8.41601 39.6476 8.43995 41.1674C5.60016 41.415 3.11081 41.7663 1.02838 42.268L1.08975 34.7274L-1.21424 31.4077C4.57459 28.3746 11.2165 26.724 25.8838 26.6526L32.2833 40.5826C29.9523 40.5814 27.706 40.5837 25.5401 40.5943ZM1.03636 27.1343L1.08975 20.7521L-1.32349 17.7054C1.00015 15.4086 7.89556 11.5248 14.8063 10.9924L20.5387 23.9656C13.5297 24.1937 6.04144 25.1399 1.03636 27.1343ZM37.4307 43.3693L43.9137 58.2424L36.7661 58.2159C36.7667 56.3542 36.7679 53.1395 36.7599 52.1467C36.7268 47.7553 30.7999 47.776 30.8299 51.8679C30.8367 52.7221 30.8747 56.1054 30.8987 58.1929L25.5395 58.1735C25.5407 56.3736 25.5419 52.8677 25.5333 51.8237C25.5008 47.4311 19.5739 47.4529 19.6039 51.5436C19.6107 52.4385 19.6524 56.1001 19.6764 58.1505L14.3135 58.1298C14.3147 56.2428 14.3147 53.5298 14.3073 52.6331C14.2748 48.2405 8.34727 48.2623 8.37735 52.3542C8.38349 53.1336 8.4154 56.0217 8.43995 58.108L1.04863 58.0803L1.16524 48.5087L-0.636706 45.6961C7.27752 43.246 20.7719 43.361 37.4307 43.3693ZM57.6659 47.4004L56.1174 49.8175L56.2193 58.1009L49.7879 58.2023C49.8124 56.5605 49.8505 53.9112 49.8566 53.0634C49.8818 49.6347 45.7237 49.067 44.3568 51.5584L41.7521 45.5493C47.9202 45.7757 53.8165 46.2809 57.6659 47.4004Z" fill="#515DC8"></path> </svg> 