<?xml version="1.0" encoding="UTF-8"?> <svg xmlns="http://www.w3.org/2000/svg" width="137" height="146" viewBox="0 0 137 146" fill="none"> <path d="M25.271 23.7559C20.867 23.8261 18.665 23.8611 17.1318 25.004C16.6365 25.3733 16.202 25.8178 15.8441 26.3213C14.7363 27.88 14.7513 30.0823 14.7812 34.4867L15.2897 109.422C15.3197 113.836 15.3346 116.043 16.4667 117.588C16.8325 118.087 17.2741 118.525 17.7757 118.888C19.3283 120.009 21.5353 120.009 25.9493 120.009H115.605C120.008 120.009 122.21 120.009 123.761 118.891C124.262 118.53 124.704 118.093 125.07 117.595C126.202 116.055 126.223 113.853 126.264 109.45L126.982 33.067C127.024 28.5228 127.046 26.2507 125.894 24.6679C125.523 24.1573 125.072 23.7094 124.559 23.3412C122.968 22.1998 120.697 22.236 116.153 22.3084L25.271 23.7559ZM23.0418 50.7469C22.999 48.0665 22.9776 46.7263 23.6467 45.7791C23.8627 45.4732 24.1257 45.2035 24.426 44.9798C25.3559 44.2869 26.6963 44.2743 29.3769 44.2492L111.896 43.4759C114.617 43.4504 115.977 43.4377 116.926 44.1267C117.232 44.349 117.501 44.6188 117.722 44.9259C118.407 45.8776 118.388 47.2378 118.351 49.9584L117.606 104.803C117.571 107.434 117.553 108.75 116.873 109.67C116.653 109.967 116.388 110.229 116.088 110.444C115.159 111.112 113.843 111.112 111.211 111.112H30.3003C27.674 111.112 26.3608 111.112 25.4326 110.446C25.1327 110.231 24.868 109.971 24.6482 109.674C23.9682 108.757 23.9472 107.444 23.9053 104.818L23.0418 50.7469Z" fill="#515DC8"></path> <path d="M56.3762 98.9447L76.48 52.4836L84.6662 53.4717L65.011 99.46L56.3762 98.9447Z" fill="#515DC8"></path> <path d="M30.5395 73.5724L46.9912 56.546L53.1291 62.5991L41.8727 74.2487L51.6638 87.1545L44.8495 92.4346L30.5395 73.5724Z" fill="#515DC8"></path> <path d="M89.8273 64.7891L96.6416 59.5089L110.952 78.3711L94.4999 95.3976L88.3619 89.3445L99.6183 77.6948L89.8273 64.7891Z" fill="#515DC8"></path> </svg> 