<?xml version="1.0" encoding="UTF-8"?> <svg xmlns="http://www.w3.org/2000/svg" width="320" height="638" viewBox="0 0 320 638" fill="none"> <g clip-path="url(#clip0_139_1290)"> <rect width="320" height="638" rx="12" fill="white"></rect> <g clip-path="url(#clip1_139_1290)"> <rect width="320" height="48" fill="white"></rect> <rect y="47" width="320" height="1" fill="#0A0A0A" fill-opacity="0.08"></rect> <g clip-path="url(#clip2_139_1290)"> <path d="M211.823 23.3796C211.823 21.9368 210.238 18.1322 205.746 18.1322C201.255 18.1322 199.669 21.9368 199.669 23.3796V28.5155C199.669 29.3644 200.607 29.8931 201.333 29.4456C203.02 28.4041 205.055 26.2764 205.746 22.4623C206.437 26.2764 208.472 28.4041 210.159 29.4456C210.884 29.8931 211.823 29.3644 211.823 28.5155V23.3796Z" fill="#1CC1BB"></path> <path d="M175.62 18H175.374C173.628 18 172.222 18.5526 171.128 19.6897C170.035 20.7965 169.486 22.2027 169.486 23.8781C169.486 25.6426 170.033 27.0631 171.141 28.1413C172.249 29.2035 173.655 29.7418 175.374 29.7418H175.62C177.339 29.7418 178.747 29.2035 179.853 28.1413C180.961 27.0647 181.508 25.6442 181.508 23.8781C181.508 22.2027 180.961 20.7965 179.866 19.6897C178.772 18.5526 177.364 18 175.62 18ZM177.579 25.7461C177.037 26.2318 176.357 26.415 175.602 26.415H175.39C174.635 26.415 173.955 26.2334 173.413 25.7461C172.871 25.2604 172.658 24.668 172.658 23.8621C172.658 23.0276 172.873 22.4798 173.4 22.01C173.917 21.5386 174.584 21.3109 175.378 21.3109H175.615C176.409 21.3109 177.076 21.5386 177.592 22.01C178.121 22.4814 178.334 23.0276 178.334 23.8621C178.334 24.668 178.12 25.2604 177.579 25.7461Z" fill="#1CC1BB"></path> <path d="M136.157 18.5256C135.933 18.7915 135.816 19.1339 135.83 19.4811L135.827 28.2974C135.827 28.6414 135.938 28.9758 136.159 29.2386C136.279 29.366 136.425 29.4663 136.589 29.53C136.752 29.5953 136.885 29.6064 137.099 29.6064C137.456 29.6064 137.739 29.5427 137.981 29.3261L145.065 22.2903V28.2958C145.052 28.6398 145.171 28.9758 145.395 29.237C145.516 29.3644 145.661 29.4647 145.825 29.53C145.987 29.5953 146.123 29.6112 146.338 29.6112C146.553 29.6112 146.71 29.5937 146.875 29.5284C147.04 29.4631 147.188 29.3644 147.311 29.237C147.542 28.979 147.664 28.6414 147.65 28.2958V19.4811C147.651 19.1068 147.541 18.7963 147.308 18.5367C147.064 18.309 146.789 18.1322 146.425 18.1322C146.061 18.1322 145.726 18.2102 145.475 18.4587L138.41 25.4754V19.4811C138.41 19.0909 138.306 18.7979 138.08 18.5367C137.957 18.4061 137.806 18.3042 137.639 18.2373C137.472 18.1704 137.312 18.1338 137.094 18.1338C136.876 18.1338 136.748 18.1704 136.586 18.2341C136.424 18.2978 136.278 18.3982 136.157 18.5256Z" fill="#423783"></path> <path d="M183.72 29.2386C183.844 29.366 183.991 29.4663 184.156 29.53C184.321 29.5953 184.479 29.6128 184.693 29.6128C184.908 29.6128 185.045 29.5969 185.207 29.5316C185.37 29.4663 185.516 29.3676 185.636 29.2386C185.861 28.9774 185.979 28.6414 185.967 28.2974V22.2919L189.749 26.0487C190.213 26.509 190.966 26.509 191.43 26.0487L195.212 22.2919V28.2974C195.2 28.6414 195.317 28.9774 195.541 29.2386C195.661 29.3676 195.809 29.4663 195.971 29.5316C196.134 29.5969 196.271 29.6128 196.486 29.6128C196.699 29.6128 196.858 29.5953 197.023 29.53C197.186 29.4663 197.335 29.366 197.457 29.2386C197.688 28.9806 197.81 28.643 197.797 28.2974V19.4811C197.797 19.1068 197.687 18.7963 197.456 18.5367C197.212 18.3106 196.936 18.1322 196.572 18.1322C196.207 18.1322 195.871 18.2118 195.623 18.4587L190.59 23.4576L185.556 18.4587C185.306 18.2118 184.971 18.1322 184.607 18.1322C184.243 18.1322 183.965 18.3106 183.723 18.5367C183.491 18.7963 183.38 19.1068 183.382 19.4811V28.2974C183.369 28.643 183.489 28.9806 183.72 29.2386Z" fill="#423783"></path> <path d="M151.41 26.4659C150.934 26.4659 150.545 26.614 150.262 26.9278C149.994 27.2256 149.845 27.5982 149.845 28.0441C149.845 28.4901 149.979 28.8627 150.247 29.1605C150.515 29.4583 150.903 29.6064 151.41 29.6064C151.916 29.6064 152.304 29.4583 152.587 29.1605C152.871 28.8627 153.004 28.4901 153.004 28.0441C153.004 27.6126 152.854 27.2399 152.571 26.9278C152.29 26.6156 151.902 26.4659 151.41 26.4659Z" fill="#423783"></path> <path d="M122.254 18.5272C122.026 18.7852 121.904 19.1578 121.904 19.5225V21.3651C121.904 23.2777 122.299 24.5979 123.089 25.356C124.168 26.4182 125.774 26.888 127.84 26.888C129.542 26.888 130.393 26.509 131.351 26.1156V28.3149C131.351 28.6939 131.455 29.0077 131.682 29.2497C131.91 29.4918 132.232 29.608 132.643 29.608C133.068 29.608 133.424 29.4934 133.636 29.2497C133.863 29.0077 133.953 28.6079 133.953 28.3149V19.5225C133.953 19.204 133.825 18.7549 133.595 18.5128C133.368 18.2708 133.049 18.1338 132.638 18.1338C132.213 18.1338 131.894 18.2548 131.681 18.5128C131.468 18.7708 131.347 19.1291 131.347 19.5225V23.4592C130.648 24.1424 129.662 24.5517 128.036 24.5517C127.292 24.5517 125.915 24.3543 125.079 23.5803C124.638 23.171 124.507 22.3524 124.507 21.2297V19.5225C124.507 19.1578 124.395 18.7852 124.167 18.5272C123.939 18.2692 123.617 18.1338 123.208 18.1338C122.797 18.1322 122.482 18.2692 122.254 18.5272Z" fill="#423783"></path> <path d="M108.334 18.5001C108.107 18.7549 108 19.0654 108 19.4476V19.462C108 21.3141 108.47 22.6439 109.409 23.8335C110.364 25.0247 111.9 25.6203 114.045 25.6203C115.148 25.6203 116.102 25.4419 116.907 25.0996C116.997 25.055 117.206 24.9658 117.295 24.9355C116.758 26.7367 115.253 27.1826 113.718 27.1985C112.167 27.2129 111.393 26.8864 110.484 26.2159C109.709 25.6506 109.097 25.8879 108.725 26.38C108.292 26.9612 108.382 27.6158 109.127 28.2257C110.2 29.1191 111.929 29.6096 113.733 29.6096C114.836 29.6096 116.119 29.4328 116.909 29.0905C117.714 28.7481 118.341 28.2576 118.772 27.6317C119.205 27.0058 119.532 26.321 119.726 25.5773C119.92 24.8336 120.034 23.9816 120.034 23.0595V19.5225C120.034 19.1212 119.92 18.7883 119.681 18.5192C119.459 18.2516 119.13 18.1322 118.697 18.1322C118.28 18.1322 117.951 18.266 117.728 18.5192C117.506 18.7867 117.44 19.1148 117.44 19.5161V19.591C117.44 22.2855 116.173 23.2076 113.952 23.2076C111.731 23.2076 110.585 22.0769 110.585 19.5607V19.4476C110.585 19.0654 110.471 18.7406 110.245 18.5001C110.004 18.2453 109.692 18.1322 109.267 18.1322C108.872 18.1322 108.545 18.2453 108.334 18.5001Z" fill="#423783"></path> <path d="M168.558 31.6926C168.781 31.4872 168.904 31.1957 168.896 30.8947V28.842C168.896 28.1635 168.401 27.2064 167.246 27.1778V20.0066C167.246 18.981 166.486 18.1497 165.454 18.1497H159.764C158.722 18.1497 157.914 18.9841 157.888 19.9715C157.834 21.9558 157.489 23.8032 157.075 25.2763C156.86 26.0439 156.633 26.6841 156.431 27.1762C156.367 27.1762 156.309 27.1762 156.261 27.1762C155.066 27.1762 154.561 28.1556 154.561 28.842V30.8947C154.551 31.1973 154.675 31.4872 154.899 31.6926C155.214 31.914 155.443 32 155.849 32C156.254 32 156.559 31.9092 156.8 31.6926C157.029 31.4903 157.156 31.1989 157.146 30.8947V29.6096H166.313V30.8947C166.303 31.1989 166.43 31.4919 166.659 31.6926C166.9 31.9092 167.213 32 167.62 32C168.027 32 168.242 31.914 168.558 31.6926ZM164.657 20.5624V27.1746C163.007 27.1746 160.906 27.1746 159.192 27.1746C159.322 26.7971 159.449 26.3926 159.569 25.9658C159.983 24.4943 160.335 22.5275 160.448 20.5624H164.657Z" fill="#423783"></path> </g> <path fill-rule="evenodd" clip-rule="evenodd" d="M37.5003 19.8333C37.9606 19.8333 38.3337 19.4602 38.3337 19C38.3337 18.5397 37.9606 18.1666 37.5003 18.1666H22.5003C22.0401 18.1666 21.667 18.5397 21.667 19C21.667 19.4602 22.0401 19.8333 22.5003 19.8333H37.5003ZM37.5003 23.1666C37.9606 23.1666 38.3337 23.5397 38.3337 24C38.3337 24.4602 37.9606 24.8333 37.5003 24.8333H22.5003C22.0401 24.8333 21.667 24.4602 21.667 24C21.667 23.5397 22.0401 23.1666 22.5003 23.1666H37.5003ZM37.5003 28.1666C37.9606 28.1666 38.3337 28.5397 38.3337 29C38.3337 29.4602 37.9606 29.8333 37.5003 29.8333H22.5003C22.0401 29.8333 21.667 29.4602 21.667 29C21.667 28.5397 22.0401 28.1666 22.5003 28.1666H37.5003Z" fill="#31397D"></path> <path d="M38 11C34.688 11 32 13.688 32 17C32 20.312 34.688 23 38 23C41.312 23 44 20.312 44 17C44 13.688 41.312 11 38 11Z" fill="white"></path> <path d="M38 13C35.792 13 34 14.792 34 17C34 19.208 35.792 21 38 21C40.208 21 42 19.208 42 17C42 14.792 40.208 13 38 13Z" fill="#5656FF"></path> <path fill-rule="evenodd" clip-rule="evenodd" d="M284.5 15H295.333C295.794 15 296.167 15.3731 296.167 15.8333C296.167 16.2936 295.794 16.6667 295.333 16.6667H284.5C284.04 16.6667 283.667 17.0398 283.667 17.5C283.667 17.9602 284.04 18.3333 284.5 18.3333H297.833C298.294 18.3333 298.667 18.7064 298.667 19.1667V29.1667C298.667 29.6269 298.294 30 297.833 30H294.772C293.836 31.9708 291.827 33.3333 289.5 33.3333C287.173 33.3333 285.164 31.9708 284.228 30H283.667C282.746 30 282 29.2538 282 28.3333V17.5C282 16.1193 283.119 15 284.5 15ZM294.5 20C293.58 20 292.833 20.7462 292.833 21.6667C292.833 22.5871 293.58 23.3333 294.5 23.3333H297V20H294.5ZM293.667 27.5C293.667 29.8012 291.801 31.6667 289.5 31.6667C287.199 31.6667 285.333 29.8012 285.333 27.5C285.333 25.1988 287.199 23.3333 289.5 23.3333C291.801 23.3333 293.667 25.1988 293.667 27.5ZM289.5 25C289.04 25 288.667 25.3731 288.667 25.8333V26.6667H287.833C287.373 26.6667 287 27.0398 287 27.5C287 27.9602 287.373 28.3333 287.833 28.3333H288.667V29.1667C288.667 29.6269 289.04 30 289.5 30C289.96 30 290.333 29.6269 290.333 29.1667V28.3333H291.167C291.627 28.3333 292 27.9602 292 27.5C292 27.0398 291.627 26.6667 291.167 26.6667H290.333V25.8333C290.333 25.3731 289.96 25 289.5 25ZM294.5 22.5C294.96 22.5 295.333 22.1269 295.333 21.6667C295.333 21.2064 294.96 20.8333 294.5 20.8333C294.04 20.8333 293.667 21.2064 293.667 21.6667C293.667 22.1269 294.04 22.5 294.5 22.5Z" fill="#31397D"></path> </g> <rect width="320" height="56" transform="translate(0 48)" fill="white"></rect> <rect x="21" y="68" width="22" height="22" rx="6" fill="#515DC8"></rect> <path d="M33.7815 74.205C34.0115 73.875 34.2415 73.65 34.4715 73.53C34.7115 73.4 35.0715 73.335 35.5515 73.335C35.9615 73.335 36.2765 73.445 36.4965 73.665C36.7165 73.875 36.8265 74.185 36.8265 74.595V82.725C36.8265 83.135 36.7015 83.465 36.4515 83.715C36.2115 83.965 35.8865 84.09 35.4765 84.09C35.0665 84.09 34.7365 83.97 34.4865 83.73C34.2465 83.48 34.1265 83.145 34.1265 82.725V77.355L30.4515 82.89C30.2115 83.23 29.9915 83.49 29.7915 83.67C29.6015 83.84 29.4015 83.95 29.1915 84C28.9915 84.06 28.7415 84.09 28.4415 84.09C28.0315 84.09 27.7165 83.985 27.4965 83.775C27.2765 83.555 27.1665 83.24 27.1665 82.83V74.7C27.1665 74.29 27.2865 73.96 27.5265 73.71C27.7765 73.46 28.1065 73.335 28.5165 73.335C28.9265 73.335 29.2515 73.46 29.4915 73.71C29.7415 73.95 29.8665 74.28 29.8665 74.7V80.055L33.7815 74.205Z" fill="white"></path> <path d="M60.576 74.512L59.744 76.16L55.328 84H53.28V72.8H54.784V82.288L55.616 80.64L60.032 72.8H62.08V84H60.576V74.512ZM63.5994 82.752H63.8394C64.01 82.752 64.17 82.7093 64.3194 82.624C64.4794 82.5387 64.618 82.3893 64.7354 82.176C64.8527 81.9627 64.9434 81.6747 65.0074 81.312C65.082 80.9493 65.1194 80.4907 65.1194 79.936V76H70.8794V84H69.4394V77.312H66.5594V79.936C66.5594 80.7253 66.4954 81.3867 66.3674 81.92C66.2394 82.4533 66.058 82.8853 65.8234 83.216C65.5887 83.5467 65.3007 83.7813 64.9594 83.92C64.6287 84.0587 64.2554 84.128 63.8394 84.128H63.5994V82.752ZM73.2781 76H74.7181V78.56H76.2381C77.4435 78.56 78.3181 78.8053 78.8621 79.296C79.4061 79.776 79.6781 80.4373 79.6781 81.28C79.6781 82.1333 79.4061 82.8 78.8621 83.28C78.3181 83.76 77.4435 84 76.2381 84H73.2781V76ZM74.7181 79.872V82.688H76.3181C77.0221 82.688 77.5128 82.5707 77.7901 82.336C78.0675 82.0907 78.2061 81.7387 78.2061 81.28C78.2061 80.8213 78.0675 80.4747 77.7901 80.24C77.5128 79.9947 77.0221 79.872 76.3181 79.872H74.7181ZM80.7981 78.624C80.7981 77.7813 81.0595 77.136 81.5821 76.688C82.1048 76.2293 82.9901 76 84.2381 76H87.0381V84H85.5981V81.216H84.2381C84.1208 81.216 84.0035 81.216 83.8861 81.216C83.7795 81.216 83.6728 81.2107 83.5661 81.2L82.0781 84H80.4781L82.2061 80.912C81.6941 80.6987 81.3315 80.4 81.1181 80.016C80.9048 79.632 80.7981 79.168 80.7981 78.624ZM82.3021 78.624C82.3021 79.04 82.4355 79.36 82.7021 79.584C82.9795 79.7973 83.4915 79.904 84.2381 79.904H85.5981V77.312H84.2381C83.4915 77.312 82.9795 77.424 82.7021 77.648C82.4355 77.8613 82.3021 78.1867 82.3021 78.624Z" fill="#4752B8"></path> <path d="M94.5 77.5L99.5 82.5L104.5 77.5" stroke="#4752B8" stroke-width="1.5"></path> <rect x="126" y="64" width="178" height="30" rx="15" fill="white"></rect> <path d="M143 80.18V82.99C143 83.72 143.4 84.4 144.04 84.75L149.04 87.48C149.64 87.81 150.36 87.81 150.96 87.48L155.96 84.75C156.6 84.4 157 83.72 157 82.99V80.18L150.96 83.48C150.36 83.81 149.64 83.81 149.04 83.48L143 80.18ZM149.04 70.52L140.61 75.12C139.92 75.5 139.92 76.5 140.61 76.88L149.04 81.48C149.64 81.81 150.36 81.81 150.96 81.48L159 77.09V83C159 83.55 159.45 84 160 84C160.55 84 161 83.55 161 83V76.59C161 76.22 160.8 75.89 160.48 75.71L150.96 70.52C150.36 70.2 149.64 70.2 149.04 70.52Z" fill="#515DC8"></path> <path d="M280 77.5L285 82.5L290 77.5" stroke="#4752B8" stroke-width="1.5"></path> <path d="M171.28 72.8H174.88C176.277 72.8 177.28 73.0667 177.888 73.6C178.496 74.1227 178.8 74.8533 178.8 75.792C178.8 76.304 178.683 76.768 178.448 77.184C178.213 77.5893 177.851 77.92 177.36 78.176C177.968 78.4213 178.411 78.7733 178.688 79.232C178.976 79.6907 179.12 80.2293 179.12 80.848C179.12 81.8613 178.816 82.64 178.208 83.184C177.6 83.728 176.597 84 175.2 84H171.28V72.8ZM172.784 78.912V82.624H175.2C176.064 82.624 176.672 82.4693 177.024 82.16C177.376 81.8507 177.552 81.3867 177.552 80.768C177.552 80.1493 177.376 79.6853 177.024 79.376C176.672 79.0667 176.064 78.912 175.2 78.912H172.784ZM172.784 74.176V77.568H174.88C175.744 77.568 176.352 77.424 176.704 77.136C177.056 76.8373 177.232 76.416 177.232 75.872C177.232 75.328 177.056 74.912 176.704 74.624C176.352 74.3253 175.744 74.176 174.88 74.176H172.784ZM184.242 84.128C183.133 84.128 182.253 83.7973 181.602 83.136C180.962 82.4747 180.642 81.5307 180.642 80.304V79.696C180.642 79.088 180.727 78.5493 180.898 78.08C181.069 77.6107 181.309 77.2107 181.618 76.88C181.927 76.5493 182.306 76.2987 182.754 76.128C183.202 75.9573 183.698 75.872 184.242 75.872C184.711 75.872 185.127 75.936 185.49 76.064C185.863 76.192 186.183 76.368 186.45 76.592C186.727 76.8053 186.951 77.0613 187.122 77.36C187.303 77.6587 187.437 77.9787 187.522 78.32H185.986C185.869 78.0427 185.666 77.7973 185.378 77.584C185.101 77.36 184.695 77.248 184.162 77.248C183.554 77.248 183.063 77.4507 182.69 77.856C182.327 78.2613 182.146 78.8747 182.146 79.696V80.304C182.146 81.1147 182.333 81.728 182.706 82.144C183.079 82.5493 183.565 82.752 184.162 82.752C184.706 82.752 185.117 82.64 185.394 82.416C185.671 82.192 185.869 81.8933 185.986 81.52H187.522C187.362 82.288 187.01 82.9173 186.466 83.408C185.922 83.888 185.181 84.128 184.242 84.128ZM192.32 84.128C191.787 84.128 191.296 84.0427 190.848 83.872C190.411 83.6907 190.032 83.4347 189.712 83.104C189.403 82.7733 189.157 82.3733 188.976 81.904C188.805 81.4347 188.72 80.9013 188.72 80.304V79.696C188.72 79.1093 188.805 78.5813 188.976 78.112C189.157 77.6427 189.408 77.2427 189.728 76.912C190.048 76.5813 190.427 76.3253 190.864 76.144C191.301 75.9627 191.787 75.872 192.32 75.872C192.853 75.872 193.339 75.9627 193.776 76.144C194.224 76.3147 194.603 76.5653 194.912 76.896C195.232 77.2267 195.477 77.632 195.648 78.112C195.829 78.5813 195.92 79.1093 195.92 79.696V80.464H190.224C190.245 81.2427 190.448 81.8293 190.832 82.224C191.216 82.6187 191.712 82.816 192.32 82.816C192.949 82.816 193.408 82.704 193.696 82.48C193.984 82.256 194.208 81.936 194.368 81.52H195.84C195.68 82.3093 195.323 82.944 194.768 83.424C194.213 83.8933 193.397 84.128 192.32 84.128ZM192.32 77.184C191.744 77.184 191.269 77.3547 190.896 77.696C190.533 78.0267 190.315 78.5333 190.24 79.216H194.384C194.32 78.512 194.112 78 193.76 77.68C193.408 77.3493 192.928 77.184 192.32 77.184ZM206.961 77.312H203.281V84H201.841V76H208.401V84H206.961V77.312ZM214.666 84.128C213.61 84.128 212.799 83.7813 212.234 83.088V87.2H210.794V76H211.914L212.058 77.152C212.335 76.7253 212.698 76.4053 213.146 76.192C213.594 75.9787 214.106 75.872 214.682 75.872C215.13 75.872 215.546 75.9573 215.93 76.128C216.324 76.288 216.66 76.5333 216.938 76.864C217.215 77.184 217.434 77.584 217.594 78.064C217.754 78.5333 217.834 79.0773 217.834 79.696V80.304C217.834 80.9227 217.754 81.472 217.594 81.952C217.434 82.4213 217.21 82.8213 216.922 83.152C216.644 83.472 216.308 83.7173 215.914 83.888C215.53 84.048 215.114 84.128 214.666 84.128ZM214.282 82.752C214.922 82.752 215.423 82.5547 215.786 82.16C216.148 81.7653 216.33 81.1467 216.33 80.304V79.696C216.33 78.864 216.148 78.2507 215.786 77.856C215.423 77.4507 214.922 77.248 214.282 77.248C213.706 77.248 213.226 77.4453 212.842 77.84C212.458 78.2347 212.255 78.816 212.234 79.584V80.304C212.234 81.0933 212.426 81.7013 212.81 82.128C213.194 82.544 213.684 82.752 214.282 82.752ZM222.867 84.128C222.334 84.128 221.843 84.0427 221.395 83.872C220.958 83.6907 220.579 83.4347 220.259 83.104C219.95 82.7733 219.704 82.3733 219.523 81.904C219.352 81.4347 219.267 80.9013 219.267 80.304V79.696C219.267 79.1093 219.352 78.5813 219.523 78.112C219.704 77.6427 219.955 77.2427 220.275 76.912C220.595 76.5813 220.974 76.3253 221.411 76.144C221.848 75.9627 222.334 75.872 222.867 75.872C223.4 75.872 223.886 75.9627 224.323 76.144C224.771 76.3147 225.15 76.5653 225.459 76.896C225.779 77.2267 226.024 77.632 226.195 78.112C226.376 78.5813 226.467 79.1093 226.467 79.696V80.464H220.771C220.792 81.2427 220.995 81.8293 221.379 82.224C221.763 82.6187 222.259 82.816 222.867 82.816C223.496 82.816 223.955 82.704 224.243 82.48C224.531 82.256 224.755 81.936 224.915 81.52H226.387C226.227 82.3093 225.87 82.944 225.315 83.424C224.76 83.8933 223.944 84.128 222.867 84.128ZM222.867 77.184C222.291 77.184 221.816 77.3547 221.443 77.696C221.08 78.0267 220.862 78.5333 220.787 79.216H224.931C224.867 78.512 224.659 78 224.307 77.68C223.955 77.3493 223.475 77.184 222.867 77.184ZM234.151 84H228.631V86.08H227.191V82.688H228.055C228.226 82.4533 228.365 82.2133 228.471 81.968C228.589 81.712 228.679 81.4187 228.743 81.088C228.807 80.7573 228.85 80.3787 228.871 79.952C228.903 79.5147 228.919 78.9973 228.919 78.4V76H234.551V82.688H235.591V86.08H234.151V84ZM230.327 78.4C230.327 79.04 230.311 79.5893 230.279 80.048C230.247 80.5067 230.199 80.9013 230.135 81.232C230.071 81.5627 229.991 81.8453 229.895 82.08C229.81 82.304 229.714 82.5067 229.607 82.688H233.111V77.312H230.327V78.4ZM239.252 79.36L238.468 77.632V84H237.028V76H239.14L241.3 80.544L243.46 76H245.508V84H244.068V77.616L243.268 79.36L241.988 82.08H240.548L239.252 79.36ZM251.023 84.128C250.49 84.128 249.999 84.0427 249.551 83.872C249.114 83.6907 248.735 83.4347 248.415 83.104C248.106 82.7733 247.86 82.3733 247.679 81.904C247.508 81.4347 247.423 80.9013 247.423 80.304V79.696C247.423 79.1093 247.508 78.5813 247.679 78.112C247.86 77.6427 248.111 77.2427 248.431 76.912C248.751 76.5813 249.13 76.3253 249.567 76.144C250.004 75.9627 250.49 75.872 251.023 75.872C251.556 75.872 252.042 75.9627 252.479 76.144C252.927 76.3147 253.306 76.5653 253.615 76.896C253.935 77.2267 254.18 77.632 254.351 78.112C254.532 78.5813 254.623 79.1093 254.623 79.696V80.464H248.927C248.948 81.2427 249.151 81.8293 249.535 82.224C249.919 82.6187 250.415 82.816 251.023 82.816C251.652 82.816 252.111 82.704 252.399 82.48C252.687 82.256 252.911 81.936 253.071 81.52H254.543C254.383 82.3093 254.026 82.944 253.471 83.424C252.916 83.8933 252.1 84.128 251.023 84.128ZM251.023 77.184C250.447 77.184 249.972 77.3547 249.599 77.696C249.236 78.0267 249.018 78.5333 248.943 79.216H253.087C253.023 78.512 252.815 78 252.463 77.68C252.111 77.3493 251.631 77.184 251.023 77.184ZM255.351 76H261.911V77.312H259.351V84H257.911V77.312H255.351V76ZM263.434 76H264.874V78.56H266.394C267.6 78.56 268.474 78.8053 269.018 79.296C269.562 79.776 269.834 80.4373 269.834 81.28C269.834 82.1333 269.562 82.8 269.018 83.28C268.474 83.76 267.6 84 266.394 84H263.434V76ZM270.954 76H272.394V84H270.954V76ZM264.874 79.872V82.688H266.474C267.178 82.688 267.669 82.5707 267.946 82.336C268.224 82.0907 268.362 81.7387 268.362 81.28C268.362 80.8213 268.224 80.4747 267.946 80.24C267.669 79.9947 267.178 79.872 266.474 79.872H264.874Z" fill="#4752B8"></path> <path d="M22.324 138V119.688H28.176C29.128 119.688 29.996 119.772 30.78 119.94C31.5827 120.089 32.2733 120.341 32.852 120.696C33.4493 121.032 33.9067 121.489 34.224 122.068C34.56 122.647 34.728 123.356 34.728 124.196C34.728 125.073 34.504 125.885 34.056 126.632C33.608 127.379 32.9827 127.892 32.18 128.172V128.284C33.188 128.508 34.0187 128.984 34.672 129.712C35.344 130.421 35.68 131.392 35.68 132.624C35.68 133.539 35.5027 134.332 35.148 135.004C34.7933 135.676 34.2987 136.236 33.664 136.684C33.048 137.132 32.3107 137.468 31.452 137.692C30.5933 137.897 29.66 138 28.652 138H22.324ZM25.572 127.248H27.896C29.184 127.248 30.108 127.015 30.668 126.548C31.2467 126.081 31.536 125.456 31.536 124.672C31.536 123.776 31.2373 123.141 30.64 122.768C30.0427 122.395 29.1467 122.208 27.952 122.208H25.572V127.248ZM25.572 135.48H28.316C29.66 135.48 30.696 135.237 31.424 134.752C32.152 134.248 32.516 133.483 32.516 132.456C32.516 131.485 32.1613 130.785 31.452 130.356C30.7427 129.908 29.6973 129.684 28.316 129.684H25.572V135.48ZM38.751 138V124.252H41.971V128.956H43.427C44.2484 128.956 45.0044 129.04 45.695 129.208C46.4044 129.376 47.011 129.637 47.515 129.992C48.019 130.347 48.411 130.813 48.691 131.392C48.9897 131.952 49.139 132.633 49.139 133.436C49.139 134.257 48.9897 134.957 48.691 135.536C48.411 136.115 48.019 136.591 47.515 136.964C47.011 137.319 46.4044 137.58 45.695 137.748C45.0044 137.916 44.2484 138 43.427 138H38.751ZM41.971 135.508H43.231C45.079 135.508 46.003 134.808 46.003 133.408C46.003 132.064 45.079 131.392 43.231 131.392H41.971V135.508ZM51.239 138V124.252H54.459V138H51.239ZM64.4839 138.336C62.3559 138.336 60.7132 137.571 59.5559 136.04C58.4172 134.509 57.8479 132.344 57.8479 129.544C57.8479 127.341 58.0532 125.559 58.4639 124.196C58.8746 122.815 59.4532 121.723 60.1999 120.92C60.9652 120.117 61.8799 119.539 62.9439 119.184C64.0079 118.811 65.1839 118.531 66.4719 118.344C66.8826 118.288 67.2279 118.232 67.5079 118.176C67.8066 118.12 68.0679 118.064 68.2919 118.008C68.5346 117.952 68.7492 117.887 68.9359 117.812C69.1412 117.737 69.3466 117.653 69.5519 117.56L70.1959 120.416C69.8226 120.677 69.3652 120.883 68.8239 121.032C68.3012 121.163 67.7412 121.275 67.1439 121.368C66.0986 121.517 65.2119 121.667 64.4839 121.816C63.7746 121.965 63.1772 122.227 62.6919 122.6C62.2252 122.955 61.8612 123.459 61.5999 124.112C61.3386 124.765 61.1519 125.671 61.0399 126.828C61.5812 126.175 62.2252 125.68 62.9719 125.344C63.7186 125.008 64.5026 124.84 65.3239 124.84C66.0892 124.84 66.7986 124.98 67.4519 125.26C68.1239 125.54 68.7026 125.96 69.1879 126.52C69.6732 127.061 70.0466 127.733 70.3079 128.536C70.5879 129.32 70.7279 130.225 70.7279 131.252C70.7279 132.316 70.5692 133.287 70.2519 134.164C69.9346 135.041 69.4959 135.788 68.9359 136.404C68.3759 137.02 67.7132 137.496 66.9479 137.832C66.1826 138.168 65.3612 138.336 64.4839 138.336ZM64.4559 135.704C65.3519 135.704 66.0706 135.303 66.6119 134.5C67.1532 133.679 67.4239 132.596 67.4239 131.252C67.4239 129.908 67.1626 128.909 66.6399 128.256C66.1172 127.603 65.3799 127.276 64.4279 127.276C63.8492 127.276 63.2519 127.425 62.6359 127.724C62.0386 128.004 61.4692 128.536 60.9279 129.32V130.244C60.9279 132.036 61.2266 133.399 61.8239 134.332C62.4212 135.247 63.2986 135.704 64.4559 135.704ZM79.9045 138.336C78.9525 138.336 78.0658 138.177 77.2445 137.86C76.4231 137.524 75.7045 137.048 75.0885 136.432C74.4725 135.816 73.9871 135.069 73.6325 134.192C73.2965 133.296 73.1285 132.279 73.1285 131.14C73.1285 130.02 73.3058 129.012 73.6605 128.116C74.0151 127.22 74.4818 126.464 75.0605 125.848C75.6578 125.232 76.3391 124.756 77.1045 124.42C77.8698 124.084 78.6538 123.916 79.4565 123.916C80.3898 123.916 81.2111 124.075 81.9205 124.392C82.6298 124.709 83.2178 125.157 83.6845 125.736C84.1698 126.315 84.5338 127.005 84.7765 127.808C85.0191 128.611 85.1405 129.488 85.1405 130.44C85.1405 130.757 85.1218 131.056 85.0845 131.336C85.0658 131.616 85.0378 131.84 85.0005 132.008H76.2645C76.4138 133.24 76.8431 134.192 77.5525 134.864C78.2805 135.517 79.2045 135.844 80.3245 135.844C80.9218 135.844 81.4725 135.76 81.9765 135.592C82.4991 135.405 83.0125 135.153 83.5165 134.836L84.6085 136.852C83.9551 137.281 83.2271 137.636 82.4245 137.916C81.6218 138.196 80.7818 138.336 79.9045 138.336ZM76.2365 129.824H82.3405C82.3405 128.76 82.1071 127.929 81.6405 127.332C81.1925 126.716 80.4925 126.408 79.5405 126.408C78.7191 126.408 78.0005 126.697 77.3845 127.276C76.7685 127.855 76.3858 128.704 76.2365 129.824ZM88.2159 143.432V124.252H90.8759L91.0999 125.708H91.2119C91.7905 125.223 92.4345 124.803 93.1439 124.448C93.8532 124.093 94.5905 123.916 95.3559 123.916C96.2145 123.916 96.9705 124.084 97.6239 124.42C98.2959 124.737 98.8652 125.204 99.3319 125.82C99.7985 126.436 100.153 127.173 100.396 128.032C100.639 128.891 100.76 129.852 100.76 130.916C100.76 132.092 100.592 133.147 100.256 134.08C99.9385 134.995 99.5092 135.769 98.9679 136.404C98.4265 137.02 97.8012 137.496 97.0919 137.832C96.3825 138.168 95.6452 138.336 94.8799 138.336C94.2825 138.336 93.6852 138.205 93.0879 137.944C92.4905 137.683 91.9119 137.309 91.3519 136.824L91.4359 139.12V143.432H88.2159ZM94.2079 135.676C95.1225 135.676 95.8879 135.284 96.5039 134.5C97.1199 133.697 97.4279 132.512 97.4279 130.944C97.4279 129.563 97.1945 128.489 96.7279 127.724C96.2612 126.959 95.5052 126.576 94.4599 126.576C93.4892 126.576 92.4812 127.089 91.4359 128.116V134.528C91.9399 134.957 92.4252 135.256 92.8919 135.424C93.3585 135.592 93.7972 135.676 94.2079 135.676ZM104.021 138V124.252H107.157V128.984C107.157 129.693 107.119 130.487 107.045 131.364C106.989 132.223 106.933 133.091 106.877 133.968H106.961C107.203 133.539 107.493 133.053 107.829 132.512C108.165 131.952 108.445 131.467 108.669 131.056L113.037 124.252H116.005V138H112.869V133.268C112.869 132.559 112.897 131.775 112.953 130.916C113.027 130.039 113.102 129.161 113.177 128.284H113.065C112.822 128.713 112.533 129.208 112.197 129.768C111.879 130.309 111.599 130.785 111.357 131.196L106.989 138H104.021ZM123.095 138V126.8H118.783V124.252H130.655V126.8H126.343V138H123.095ZM138.858 138.336C137.906 138.336 137.019 138.177 136.198 137.86C135.376 137.524 134.658 137.048 134.042 136.432C133.426 135.816 132.94 135.069 132.586 134.192C132.25 133.296 132.082 132.279 132.082 131.14C132.082 130.02 132.259 129.012 132.614 128.116C132.968 127.22 133.435 126.464 134.014 125.848C134.611 125.232 135.292 124.756 136.058 124.42C136.823 124.084 137.607 123.916 138.41 123.916C139.343 123.916 140.164 124.075 140.874 124.392C141.583 124.709 142.171 125.157 142.638 125.736C143.123 126.315 143.487 127.005 143.73 127.808C143.972 128.611 144.094 129.488 144.094 130.44C144.094 130.757 144.075 131.056 144.038 131.336C144.019 131.616 143.991 131.84 143.954 132.008H135.218C135.367 133.24 135.796 134.192 136.506 134.864C137.234 135.517 138.158 135.844 139.278 135.844C139.875 135.844 140.426 135.76 140.93 135.592C141.452 135.405 141.966 135.153 142.47 134.836L143.562 136.852C142.908 137.281 142.18 137.636 141.378 137.916C140.575 138.196 139.735 138.336 138.858 138.336ZM135.19 129.824H141.294C141.294 128.76 141.06 127.929 140.594 127.332C140.146 126.716 139.446 126.408 138.494 126.408C137.672 126.408 136.954 126.697 136.338 127.276C135.722 127.855 135.339 128.704 135.19 129.824ZM152.774 138V124.252H164.45V138H161.23V126.8H155.994V138H152.774ZM168.579 143.432V124.252H171.239L171.463 125.708H171.575C172.154 125.223 172.798 124.803 173.507 124.448C174.216 124.093 174.954 123.916 175.719 123.916C176.578 123.916 177.334 124.084 177.987 124.42C178.659 124.737 179.228 125.204 179.695 125.82C180.162 126.436 180.516 127.173 180.759 128.032C181.002 128.891 181.123 129.852 181.123 130.916C181.123 132.092 180.955 133.147 180.619 134.08C180.302 134.995 179.872 135.769 179.331 136.404C178.79 137.02 178.164 137.496 177.455 137.832C176.746 138.168 176.008 138.336 175.243 138.336C174.646 138.336 174.048 138.205 173.451 137.944C172.854 137.683 172.275 137.309 171.715 136.824L171.799 139.12V143.432H168.579ZM174.571 135.676C175.486 135.676 176.251 135.284 176.867 134.5C177.483 133.697 177.791 132.512 177.791 130.944C177.791 129.563 177.558 128.489 177.091 127.724C176.624 126.959 175.868 126.576 174.823 126.576C173.852 126.576 172.844 127.089 171.799 128.116V134.528C172.303 134.957 172.788 135.256 173.255 135.424C173.722 135.592 174.16 135.676 174.571 135.676ZM190.264 138.336C189.312 138.336 188.425 138.177 187.604 137.86C186.783 137.524 186.064 137.048 185.448 136.432C184.832 135.816 184.347 135.069 183.992 134.192C183.656 133.296 183.488 132.279 183.488 131.14C183.488 130.02 183.665 129.012 184.02 128.116C184.375 127.22 184.841 126.464 185.42 125.848C186.017 125.232 186.699 124.756 187.464 124.42C188.229 124.084 189.013 123.916 189.816 123.916C190.749 123.916 191.571 124.075 192.28 124.392C192.989 124.709 193.577 125.157 194.044 125.736C194.529 126.315 194.893 127.005 195.136 127.808C195.379 128.611 195.5 129.488 195.5 130.44C195.5 130.757 195.481 131.056 195.444 131.336C195.425 131.616 195.397 131.84 195.36 132.008H186.624C186.773 133.24 187.203 134.192 187.912 134.864C188.64 135.517 189.564 135.844 190.684 135.844C191.281 135.844 191.832 135.76 192.336 135.592C192.859 135.405 193.372 135.153 193.876 134.836L194.968 136.852C194.315 137.281 193.587 137.636 192.784 137.916C191.981 138.196 191.141 138.336 190.264 138.336ZM186.596 129.824H192.7C192.7 128.76 192.467 127.929 192 127.332C191.552 126.716 190.852 126.408 189.9 126.408C189.079 126.408 188.36 126.697 187.744 127.276C187.128 127.855 186.745 128.704 186.596 129.824ZM200.059 138V142.816H197.259L196.951 137.524V135.424H197.735C197.903 135.331 198.062 135.191 198.211 135.004C198.379 134.817 198.538 134.528 198.687 134.136C198.837 133.744 198.977 133.221 199.107 132.568C199.238 131.915 199.369 131.065 199.499 130.02L200.171 124.252H209.607V135.424H211.707V137.524L211.371 142.816H208.599V138H200.059ZM202.299 130.72C202.169 131.803 201.991 132.727 201.767 133.492C201.562 134.257 201.301 134.901 200.983 135.424H206.387V126.8H202.719L202.299 130.72ZM214.189 138V124.252H217.885L220.097 129.796C220.302 130.375 220.489 130.925 220.657 131.448C220.843 131.971 221.021 132.493 221.189 133.016H221.301C221.487 132.493 221.674 131.971 221.861 131.448C222.066 130.925 222.253 130.375 222.421 129.796L224.521 124.252H228.217V138H225.305V133.184C225.305 132.848 225.314 132.456 225.333 132.008C225.37 131.541 225.407 131.065 225.445 130.58C225.482 130.076 225.519 129.591 225.557 129.124C225.594 128.639 225.631 128.209 225.669 127.836H225.557C225.351 128.415 225.127 129.021 224.885 129.656C224.661 130.272 224.446 130.851 224.241 131.392L222.169 136.768H220.265L218.137 131.392C217.931 130.851 217.707 130.263 217.465 129.628C217.241 128.993 217.026 128.396 216.821 127.836H216.709C216.727 128.209 216.755 128.639 216.793 129.124C216.849 129.591 216.886 130.076 216.905 130.58C216.942 131.065 216.97 131.541 216.989 132.008C217.026 132.456 217.045 132.848 217.045 133.184V138H214.189ZM238.197 138.336C237.245 138.336 236.359 138.177 235.537 137.86C234.716 137.524 233.997 137.048 233.381 136.432C232.765 135.816 232.28 135.069 231.925 134.192C231.589 133.296 231.421 132.279 231.421 131.14C231.421 130.02 231.599 129.012 231.953 128.116C232.308 127.22 232.775 126.464 233.353 125.848C233.951 125.232 234.632 124.756 235.397 124.42C236.163 124.084 236.947 123.916 237.749 123.916C238.683 123.916 239.504 124.075 240.213 124.392C240.923 124.709 241.511 125.157 241.977 125.736C242.463 126.315 242.827 127.005 243.069 127.808C243.312 128.611 243.433 129.488 243.433 130.44C243.433 130.757 243.415 131.056 243.377 131.336C243.359 131.616 243.331 131.84 243.293 132.008H234.557C234.707 133.24 235.136 134.192 235.845 134.864C236.573 135.517 237.497 135.844 238.617 135.844C239.215 135.844 239.765 135.76 240.269 135.592C240.792 135.405 241.305 135.153 241.809 134.836L242.901 136.852C242.248 137.281 241.52 137.636 240.717 137.916C239.915 138.196 239.075 138.336 238.197 138.336ZM234.529 129.824H240.633C240.633 128.76 240.4 127.929 239.933 127.332C239.485 126.716 238.785 126.408 237.833 126.408C237.012 126.408 236.293 126.697 235.677 127.276C235.061 127.855 234.679 128.704 234.529 129.824ZM249.231 138V126.8H244.919V124.252H256.791V126.8H252.479V138H249.231Z" fill="#1F1F1F"></path> <path d="M20 175.2C20 168.479 20 165.119 21.3079 162.552C22.4584 160.294 24.2942 158.458 26.5521 157.308C29.1191 156 32.4794 156 39.2 156H184.8C191.521 156 194.881 156 197.448 157.308C199.706 158.458 201.542 160.294 202.692 162.552C204 165.119 204 168.479 204 175.2V184.8C204 191.521 204 194.881 202.692 197.448C201.542 199.706 199.706 201.542 197.448 202.692C194.881 204 191.521 204 184.8 204H39.2C32.4794 204 29.1191 204 26.5521 202.692C24.2942 201.542 22.4584 199.706 21.3079 197.448C20 194.881 20 191.521 20 184.8V175.2Z" fill="#515DC8" fill-opacity="0.08"></path> <path d="M49.594 185H51.43L46.84 172.4H44.86L40.27 185H42.034L43.258 181.544H48.37L49.594 185ZM44.896 176.972L45.832 174.29L46.75 176.972L47.812 179.996H43.816L44.896 176.972ZM59.177 185H60.797V176H59.177V179.672H54.677V176H53.057V185H54.677V181.148H59.177V185ZM63.4984 185H65.1184V177.476H69.5284V176H63.4984V185ZM69.4321 185.144H69.7021C71.5741 185.144 72.7621 183.974 72.7621 180.428V177.476H76.0021V185H77.6221V176H71.1421V180.428C71.1421 182.93 70.4761 183.596 69.7021 183.596H69.4321V185.144ZM86.4407 185H88.0607V176H85.9727L82.9307 181.22L81.9407 183.074V176H80.3207V185H82.4087L85.4507 179.78L86.4407 177.926V185ZM96.8821 185H98.5021V176H96.4141L93.3721 181.22L92.3821 183.074V176H90.7621V185H92.8501L95.8921 179.78L96.8821 177.926V185ZM94.6321 174.884C96.2161 174.884 97.1521 173.948 97.1521 172.4H95.7841C95.7841 173.336 95.3521 173.768 94.6321 173.768C93.9481 173.768 93.5161 173.336 93.5161 172.4H92.1121C92.1121 173.948 93.0481 174.884 94.6321 174.884ZM104.714 185.144C106.82 185.144 108.044 183.938 108.404 182.21H106.676C106.406 183.038 105.848 183.596 104.624 183.596C103.292 183.596 102.356 182.66 102.356 180.842V180.158C102.356 178.322 103.274 177.404 104.624 177.404C105.83 177.404 106.406 177.98 106.676 178.61H108.404C108.044 177.08 106.82 175.856 104.714 175.856C102.248 175.856 100.664 177.44 100.664 180.158V180.842C100.664 183.578 102.23 185.144 104.714 185.144ZM115.871 185H117.851L114.503 180.284L117.491 176H115.583L113.171 179.582H111.911V176H110.291V185H111.911V181.058H113.153L115.871 185ZM125.587 185H127.207V176H125.119L122.077 181.22L121.087 183.074V176H119.467V185H121.555L124.597 179.78L125.587 177.926V185ZM136.029 185H137.649V176H135.561L132.519 181.22L131.529 183.074V176H129.909V185H131.997L135.039 179.78L136.029 177.926V185ZM133.779 174.884C135.363 174.884 136.299 173.948 136.299 172.4H134.931C134.931 173.336 134.499 173.768 133.779 173.768C133.095 173.768 132.663 173.336 132.663 172.4H131.259C131.259 173.948 132.195 174.884 133.779 174.884ZM144.31 178.952C144.31 180.176 144.76 181.058 145.894 181.526L143.95 185H145.75L147.424 181.85C147.658 181.868 147.91 181.868 148.18 181.868H149.71V185H151.33V176H148.18C145.372 176 144.31 177.062 144.31 178.952ZM146.002 178.952C146.002 177.98 146.506 177.476 148.18 177.476H149.71V180.392H148.18C146.506 180.392 146.002 179.888 146.002 178.952ZM156.996 175.856C154.746 175.856 153.666 176.936 153.486 178.61H155.142C155.322 177.836 155.79 177.368 156.996 177.368C158.202 177.368 158.67 177.836 158.67 178.52C158.67 179.24 158.202 179.672 156.996 179.672H156.006V181.148H156.996C158.418 181.148 158.94 181.634 158.94 182.39C158.94 183.11 158.418 183.632 156.996 183.632C155.574 183.632 155.052 183.11 154.872 182.21H153.216C153.396 184.028 154.512 185.144 156.996 185.144C159.48 185.144 160.596 184.028 160.596 182.48C160.596 181.58 160.146 180.842 159.174 180.41C159.948 179.996 160.326 179.294 160.326 178.43C160.326 176.936 159.246 175.856 156.996 175.856ZM162.762 185H166.092C168.81 185 169.962 183.848 169.962 181.94C169.962 180.032 168.81 178.88 166.092 178.88H164.382V176H162.762V185ZM171.222 185H172.842V176H171.222V185ZM166.182 180.356C167.748 180.356 168.306 180.914 168.306 181.94C168.306 182.966 167.748 183.524 166.182 183.524H164.382V180.356H166.182ZM181.121 185H183.101L179.753 180.284L182.741 176H180.833L178.421 179.582H177.161V176H175.541V185H177.161V181.058H178.403L181.121 185Z" fill="#515DC8"></path> <rect x="20" y="212" width="153" height="48" rx="12" fill="#515DC8"></rect> <path d="M41.44 228.4H45.58C47.2 228.4 48.382 228.748 49.126 229.444C49.882 230.14 50.26 231.136 50.26 232.432C50.26 233.692 49.876 234.682 49.108 235.402C48.34 236.11 47.164 236.464 45.58 236.464H43.132V241H41.44V228.4ZM43.132 229.948V234.916H45.58C46.624 234.916 47.374 234.706 47.83 234.286C48.286 233.866 48.514 233.248 48.514 232.432C48.514 231.604 48.286 230.986 47.83 230.578C47.386 230.158 46.636 229.948 45.58 229.948H43.132ZM55.0505 241L51.4145 232H53.1785L55.9145 238.966L58.5065 232H60.2345L55.3925 244.6H53.6645L55.0505 241ZM65.0045 241.144C63.7565 241.144 62.7665 240.772 62.0345 240.028C61.3145 239.284 60.9545 238.222 60.9545 236.842V236.158C60.9545 235.474 61.0505 234.868 61.2425 234.34C61.4345 233.812 61.7045 233.362 62.0525 232.99C62.4005 232.618 62.8265 232.336 63.3305 232.144C63.8345 231.952 64.3925 231.856 65.0045 231.856C65.5325 231.856 66.0005 231.928 66.4085 232.072C66.8285 232.216 67.1885 232.414 67.4885 232.666C67.8005 232.906 68.0525 233.194 68.2445 233.53C68.4485 233.866 68.5985 234.226 68.6945 234.61H66.9665C66.8345 234.298 66.6065 234.022 66.2825 233.782C65.9705 233.53 65.5145 233.404 64.9145 233.404C64.2305 233.404 63.6785 233.632 63.2585 234.088C62.8505 234.544 62.6465 235.234 62.6465 236.158V236.842C62.6465 237.754 62.8565 238.444 63.2765 238.912C63.6965 239.368 64.2425 239.596 64.9145 239.596C65.5265 239.596 65.9885 239.47 66.3005 239.218C66.6125 238.966 66.8345 238.63 66.9665 238.21H68.6945C68.5145 239.074 68.1185 239.782 67.5065 240.334C66.8945 240.874 66.0605 241.144 65.0045 241.144ZM74.0924 241.144C72.8444 241.144 71.8544 240.772 71.1224 240.028C70.4024 239.284 70.0424 238.222 70.0424 236.842V236.158C70.0424 235.474 70.1384 234.868 70.3304 234.34C70.5224 233.812 70.7924 233.362 71.1404 232.99C71.4884 232.618 71.9144 232.336 72.4184 232.144C72.9224 231.952 73.4804 231.856 74.0924 231.856C74.6204 231.856 75.0884 231.928 75.4964 232.072C75.9164 232.216 76.2764 232.414 76.5764 232.666C76.8884 232.906 77.1404 233.194 77.3324 233.53C77.5364 233.866 77.6864 234.226 77.7824 234.61H76.0544C75.9224 234.298 75.6944 234.022 75.3704 233.782C75.0584 233.53 74.6024 233.404 74.0024 233.404C73.3184 233.404 72.7664 233.632 72.3464 234.088C71.9384 234.544 71.7344 235.234 71.7344 236.158V236.842C71.7344 237.754 71.9444 238.444 72.3644 238.912C72.7844 239.368 73.3304 239.596 74.0024 239.596C74.6144 239.596 75.0764 239.47 75.3884 239.218C75.7004 238.966 75.9224 238.63 76.0544 238.21H77.7824C77.6024 239.074 77.2064 239.782 76.5944 240.334C75.9824 240.874 75.1484 241.144 74.0924 241.144ZM82.5323 237.058H81.2903V241H79.6703V232H81.2903V235.582H82.5503L84.9623 232H86.8703L83.8823 236.284L87.2303 241H85.2503L82.5323 237.058ZM94.9661 233.926L93.9761 235.78L90.9341 241H88.8461V232H90.4661V239.074L91.4561 237.22L94.4981 232H96.5861V241H94.9661V233.926ZM105.408 233.926L104.418 235.78L101.376 241H99.2875V232H100.908V239.074L101.898 237.22L104.94 232H107.027V241H105.408V233.926ZM103.158 230.884C102.366 230.884 101.748 230.668 101.304 230.236C100.86 229.792 100.638 229.18 100.638 228.4H102.042C102.042 228.868 102.138 229.216 102.33 229.444C102.534 229.66 102.81 229.768 103.158 229.768C103.518 229.768 103.8 229.66 104.004 229.444C104.208 229.216 104.31 228.868 104.31 228.4H105.678C105.678 229.18 105.456 229.792 105.012 230.236C104.568 230.668 103.95 230.884 103.158 230.884ZM113.689 234.952C113.689 234.004 113.983 233.278 114.571 232.774C115.159 232.258 116.155 232 117.559 232H120.709V241H119.089V237.868H117.559C117.427 237.868 117.295 237.868 117.163 237.868C117.043 237.868 116.923 237.862 116.803 237.85L115.129 241H113.329L115.273 237.526C114.697 237.286 114.289 236.95 114.049 236.518C113.809 236.086 113.689 235.564 113.689 234.952ZM115.381 234.952C115.381 235.42 115.531 235.78 115.831 236.032C116.143 236.272 116.719 236.392 117.559 236.392H119.089V233.476H117.559C116.719 233.476 116.143 233.602 115.831 233.854C115.531 234.094 115.381 234.46 115.381 234.952ZM126.375 231.856C127.503 231.856 128.337 232.096 128.877 232.576C129.429 233.056 129.705 233.674 129.705 234.43C129.705 234.862 129.609 235.252 129.417 235.6C129.225 235.936 128.937 236.206 128.553 236.41C129.045 236.626 129.405 236.914 129.633 237.274C129.861 237.622 129.975 238.024 129.975 238.48C129.975 239.26 129.681 239.902 129.093 240.406C128.517 240.898 127.611 241.144 126.375 241.144C125.127 241.144 124.209 240.886 123.621 240.37C123.033 239.842 122.691 239.122 122.595 238.21H124.251C124.335 238.666 124.533 239.02 124.845 239.272C125.157 239.512 125.667 239.632 126.375 239.632C127.095 239.632 127.599 239.518 127.887 239.29C128.175 239.05 128.319 238.75 128.319 238.39C128.319 238.006 128.175 237.706 127.887 237.49C127.599 237.262 127.095 237.148 126.375 237.148H125.385V235.672H126.375C126.987 235.672 127.419 235.57 127.671 235.366C127.923 235.162 128.049 234.88 128.049 234.52C128.049 234.172 127.923 233.896 127.671 233.692C127.419 233.476 126.987 233.368 126.375 233.368C125.763 233.368 125.325 233.482 125.061 233.71C124.797 233.926 124.617 234.226 124.521 234.61H122.865C122.961 233.77 123.285 233.104 123.837 232.612C124.401 232.108 125.247 231.856 126.375 231.856ZM132.141 232H133.761V234.88H135.471C136.827 234.88 137.811 235.156 138.423 235.708C139.035 236.248 139.341 236.992 139.341 237.94C139.341 238.9 139.035 239.65 138.423 240.19C137.811 240.73 136.827 241 135.471 241H132.141V232ZM140.601 232H142.221V241H140.601V232ZM133.761 236.356V239.524H135.561C136.353 239.524 136.905 239.392 137.217 239.128C137.529 238.852 137.685 238.456 137.685 237.94C137.685 237.424 137.529 237.034 137.217 236.77C136.905 236.494 136.353 236.356 135.561 236.356H133.761ZM147.782 237.058H146.54V241H144.92V232H146.54V235.582H147.8L150.212 232H152.12L149.132 236.284L152.48 241H150.5L147.782 237.058Z" fill="white"></path> <path d="M20 287.2C20 280.479 20 277.119 21.3079 274.552C22.4584 272.294 24.2942 270.458 26.5521 269.308C29.1191 268 32.4794 268 39.2 268H140.8C147.521 268 150.881 268 153.448 269.308C155.706 270.458 157.542 272.294 158.692 274.552C160 277.119 160 280.479 160 287.2V296.8C160 303.521 160 306.881 158.692 309.448C157.542 311.706 155.706 313.542 153.448 314.692C150.881 316 147.521 316 140.8 316H39.2C32.4794 316 29.1191 316 26.5521 314.692C24.2942 313.542 22.4584 311.706 21.3079 309.448C20 306.881 20 303.521 20 296.8V287.2Z" fill="#515DC8" fill-opacity="0.08"></path> <path d="M46.444 293.49H48.136L50.638 288.18L51.448 286.272V297H53.14V284.4H50.764L47.326 291.69L43.852 284.4H41.44V297H43.132V286.29L43.924 288.18L46.444 293.49ZM58.1723 297.144C59.4863 297.144 60.5663 296.55 61.2143 295.524L61.4123 297H62.6723V290.88C62.6723 289.026 61.5023 287.856 59.2523 287.856C56.8763 287.856 55.7423 288.99 55.6523 290.52H57.4523C57.5423 289.8 58.0463 289.296 59.2523 289.296C60.4763 289.296 61.0523 289.872 61.0523 290.88V291.546H59.2523C56.3903 291.546 55.2923 292.644 55.2923 294.48C55.2923 296.136 56.3003 297.144 58.1723 297.144ZM58.3523 295.704C57.4883 295.704 56.9843 295.2 56.9843 294.444C56.9843 293.526 57.5963 292.914 59.2523 292.914H61.0523V293.238C61.0523 294.57 59.9183 295.704 58.3523 295.704ZM64.108 289.476H66.988V297H68.608V289.476H71.488V288H64.108V289.476ZM76.36 297.144C78.79 297.144 79.96 295.974 80.32 294.21H78.664C78.304 295.146 77.782 295.668 76.36 295.668C75.01 295.668 74.056 294.768 74.002 293.022H80.41V292.158C80.41 289.512 78.754 287.856 76.36 287.856C73.984 287.856 72.31 289.53 72.31 292.158V292.842C72.31 295.506 73.948 297.144 76.36 297.144ZM76.36 289.332C77.71 289.332 78.538 290.034 78.682 291.618H74.02C74.182 290.088 75.082 289.332 76.36 289.332ZM86.5307 294.84H88.1507L89.5907 291.78L90.4907 289.818V297H92.1107V288H89.8067L87.3767 293.112L84.9467 288H82.5707V297H84.1907V289.836L85.0727 291.78L86.5307 294.84ZM97.0551 297.144C98.3691 297.144 99.4491 296.55 100.097 295.524L100.295 297H101.555V290.88C101.555 289.026 100.385 287.856 98.1351 287.856C95.7591 287.856 94.6251 288.99 94.5351 290.52H96.3351C96.4251 289.8 96.9291 289.296 98.1351 289.296C99.3591 289.296 99.9351 289.872 99.9351 290.88V291.546H98.1351C95.2731 291.546 94.1751 292.644 94.1751 294.48C94.1751 296.136 95.1831 297.144 97.0551 297.144ZM97.2351 295.704C96.3711 295.704 95.8671 295.2 95.8671 294.444C95.8671 293.526 96.4791 292.914 98.1351 292.914H99.9351V293.238C99.9351 294.57 98.8011 295.704 97.2351 295.704ZM102.991 289.476H105.871V297H107.491V289.476H110.371V288H102.991V289.476ZM118.204 297H119.824V288H117.736L114.694 293.22L113.704 295.074V288H112.084V297H114.172L117.214 291.78L118.204 289.926V297ZM128.106 297H130.086L126.738 292.284L129.726 288H127.818L125.406 291.582H124.146V288H122.526V297H124.146V293.058H125.388L128.106 297ZM133.776 297.144C135.09 297.144 136.17 296.55 136.818 295.524L137.016 297H138.276V290.88C138.276 289.026 137.106 287.856 134.856 287.856C132.48 287.856 131.346 288.99 131.256 290.52H133.056C133.146 289.8 133.65 289.296 134.856 289.296C136.08 289.296 136.656 289.872 136.656 290.88V291.546H134.856C131.994 291.546 130.896 292.644 130.896 294.48C130.896 296.136 131.904 297.144 133.776 297.144ZM133.956 295.704C133.092 295.704 132.588 295.2 132.588 294.444C132.588 293.526 133.2 292.914 134.856 292.914H136.656V293.238C136.656 294.57 135.522 295.704 133.956 295.704Z" fill="#515DC8"></path> <path d="M168 287.2C168 280.479 168 277.119 169.308 274.552C170.458 272.294 172.294 270.458 174.552 269.308C177.119 268 180.479 268 187.2 268H252.8C259.521 268 262.881 268 265.448 269.308C267.706 270.458 269.542 272.294 270.692 274.552C272 277.119 272 280.479 272 287.2V296.8C272 303.521 272 306.881 270.692 309.448C269.542 311.706 267.706 313.542 265.448 314.692C262.881 316 259.521 316 252.8 316H187.2C180.479 316 177.119 316 174.552 314.692C172.294 313.542 170.458 311.706 169.308 309.448C168 306.881 168 303.521 168 296.8V287.2Z" fill="#515DC8" fill-opacity="0.08"></path> <path d="M202.31 291.042V290.358C202.31 287.316 200.24 285.21 196.496 285.21H196.406V284.256H194.714V285.21H194.606C190.916 285.21 188.81 287.316 188.81 290.358V291.042C188.81 294.102 190.88 296.19 194.606 296.19H194.714V297.144H196.406V296.19H196.496C200.204 296.19 202.31 294.084 202.31 291.042ZM190.574 291.042V290.358C190.574 288.216 191.96 286.83 194.606 286.83H194.714V294.57H194.606C191.96 294.57 190.574 293.184 190.574 291.042ZM196.496 286.83C199.16 286.83 200.546 288.216 200.546 290.358V291.042C200.546 293.184 199.16 294.57 196.496 294.57H196.406V286.83H196.496ZM210.587 297H212.207V288H210.119L207.077 293.22L206.087 295.074V288H204.467V297H206.555L209.597 291.78L210.587 289.926V297ZM217.879 287.856C215.629 287.856 214.549 288.936 214.369 290.61H216.025C216.205 289.836 216.673 289.368 217.879 289.368C219.085 289.368 219.553 289.836 219.553 290.52C219.553 291.24 219.085 291.672 217.879 291.672H216.889V293.148H217.879C219.301 293.148 219.823 293.634 219.823 294.39C219.823 295.11 219.301 295.632 217.879 295.632C216.457 295.632 215.935 295.11 215.755 294.21H214.099C214.279 296.028 215.395 297.144 217.879 297.144C220.363 297.144 221.479 296.028 221.479 294.48C221.479 293.58 221.029 292.842 220.057 292.41C220.831 291.996 221.209 291.294 221.209 290.43C221.209 288.936 220.129 287.856 217.879 287.856ZM229.765 297H231.385V288H229.297L226.255 293.22L225.265 295.074V288H223.645V297H225.733L228.775 291.78L229.765 289.926V297ZM239.666 297H241.646L238.298 292.284L241.286 288H239.378L236.966 291.582H235.706V288H234.086V297H235.706V293.058H236.948L239.666 297ZM245.336 297.144C246.65 297.144 247.73 296.55 248.378 295.524L248.576 297H249.836V290.88C249.836 289.026 248.666 287.856 246.416 287.856C244.04 287.856 242.906 288.99 242.816 290.52H244.616C244.706 289.8 245.21 289.296 246.416 289.296C247.64 289.296 248.216 289.872 248.216 290.88V291.546H246.416C243.554 291.546 242.456 292.644 242.456 294.48C242.456 296.136 243.464 297.144 245.336 297.144ZM245.516 295.704C244.652 295.704 244.148 295.2 244.148 294.444C244.148 293.526 244.76 292.914 246.416 292.914H248.216V293.238C248.216 294.57 247.082 295.704 245.516 295.704Z" fill="#515DC8"></path> <path d="M20 343.2C20 336.479 20 333.119 21.3079 330.552C22.4584 328.294 24.2942 326.458 26.5521 325.308C29.1191 324 32.4794 324 39.2 324H94.8C101.521 324 104.881 324 107.448 325.308C109.706 326.458 111.542 328.294 112.692 330.552C114 333.119 114 336.479 114 343.2V352.8C114 359.521 114 362.881 112.692 365.448C111.542 367.706 109.706 369.542 107.448 370.692C104.881 372 101.521 372 94.8 372H39.2C32.4794 372 29.1191 372 26.5521 370.692C24.2942 369.542 22.4584 367.706 21.3079 365.448C20 362.881 20 359.521 20 352.8V343.2Z" fill="#515DC8" fill-opacity="0.08"></path> <path d="M49.162 353H51.25L46.948 346.394L50.89 340.4H48.874L45.868 345.026L42.844 340.4H40.81L44.752 346.466L40.45 353H42.502L45.832 347.852L49.162 353ZM59.177 353H60.797V344H58.709L55.667 349.22L54.677 351.074V344H53.057V353H55.145L58.187 347.78L59.177 345.926V353ZM67.4584 350.84H69.0784L70.5184 347.78L71.4184 345.818V353H73.0384V344H70.7344L68.3044 349.112L65.8744 344H63.4984V353H65.1184V345.836L66.0004 347.78L67.4584 350.84ZM81.8528 353H83.4728V344H81.3848L78.3428 349.22L77.3528 351.074V344H75.7328V353H77.8208L80.8628 347.78L81.8528 345.926V353ZM85.6342 346.952C85.6342 348.176 86.0842 349.058 87.2182 349.526L85.2742 353H87.0742L88.7482 349.85C88.9822 349.868 89.2342 349.868 89.5042 349.868H91.0342V353H92.6542V344H89.5042C86.6962 344 85.6342 345.062 85.6342 346.952ZM87.3262 346.952C87.3262 345.98 87.8302 345.476 89.5042 345.476H91.0342V348.392H89.5042C87.8302 348.392 87.3262 347.888 87.3262 346.952Z" fill="#515DC8"></path> <path d="M122 343.2C122 336.479 122 333.119 123.308 330.552C124.458 328.294 126.294 326.458 128.552 325.308C131.119 324 134.479 324 141.2 324H221.8C228.521 324 231.881 324 234.448 325.308C236.706 326.458 238.542 328.294 239.692 330.552C241 333.119 241 336.479 241 343.2V352.8C241 359.521 241 362.881 239.692 365.448C238.542 367.706 236.706 369.542 234.448 370.692C231.881 372 228.521 372 221.8 372H141.2C134.479 372 131.119 372 128.552 370.692C126.294 369.542 124.458 367.706 123.308 365.448C122 362.881 122 359.521 122 352.8V343.2Z" fill="#515DC8" fill-opacity="0.08"></path> <path d="M143.44 353H147.742C150.802 353 152.26 351.542 152.26 349.166C152.26 346.826 150.73 345.296 147.742 345.296H145.132V341.948H151.36V340.4H143.44V353ZM147.742 346.844C149.65 346.844 150.514 347.708 150.514 349.166C150.514 350.624 149.686 351.452 147.742 351.452H145.132V346.844H147.742ZM160.456 353H162.076V344H159.988L156.946 349.22L155.956 351.074V344H154.336V353H156.424L159.466 347.78L160.456 345.926V353ZM168.378 353.144C170.88 353.144 172.518 351.506 172.518 348.842V348.158C172.518 345.476 170.898 343.856 168.378 343.856C165.876 343.856 164.238 345.494 164.238 348.158V348.842C164.238 351.524 165.858 353.144 168.378 353.144ZM168.378 351.596C166.884 351.596 165.93 350.642 165.93 348.842V348.158C165.93 346.34 166.866 345.404 168.378 345.404C169.872 345.404 170.826 346.358 170.826 348.158V348.842C170.826 350.66 169.89 351.596 168.378 351.596ZM173.418 353.144H173.688C175.56 353.144 176.748 351.974 176.748 348.428V345.476H179.988V353H181.608V344H175.128V348.428C175.128 350.93 174.462 351.596 173.688 351.596H173.418V353.144ZM187.907 353.144C190.409 353.144 192.047 351.506 192.047 348.842V348.158C192.047 345.476 190.427 343.856 187.907 343.856C185.405 343.856 183.767 345.494 183.767 348.158V348.842C183.767 351.524 185.387 353.144 187.907 353.144ZM187.907 351.596C186.413 351.596 185.459 350.642 185.459 348.842V348.158C185.459 346.34 186.395 345.404 187.907 345.404C189.401 345.404 190.355 346.358 190.355 348.158V348.842C190.355 350.66 189.419 351.596 187.907 351.596ZM194.204 353H195.824V345.476H200.234V344H194.204V353ZM208.058 353H209.678V344H207.59L204.548 349.22L203.558 351.074V344H201.938V353H204.026L207.068 347.78L208.058 345.926V353ZM211.839 346.952C211.839 348.176 212.289 349.058 213.423 349.526L211.479 353H213.279L214.953 349.85C215.187 349.868 215.439 349.868 215.709 349.868H217.239V353H218.859V344H215.709C212.901 344 211.839 345.062 211.839 346.952ZM213.531 346.952C213.531 345.98 214.035 345.476 215.709 345.476H217.239V348.392H215.709C214.035 348.392 213.531 347.888 213.531 346.952Z" fill="#515DC8"></path> <path d="M20 399.2C20 392.479 20 389.119 21.3079 386.552C22.4584 384.294 24.2942 382.458 26.5521 381.308C29.1191 380 32.4794 380 39.2 380H155.8C162.521 380 165.881 380 168.448 381.308C170.706 382.458 172.542 384.294 173.692 386.552C175 389.119 175 392.479 175 399.2V408.8C175 415.521 175 418.881 173.692 421.448C172.542 423.706 170.706 425.542 168.448 426.692C165.881 428 162.521 428 155.8 428H39.2C32.4794 428 29.1191 428 26.5521 426.692C24.2942 425.542 22.4584 423.706 21.3079 421.448C20 418.881 20 415.521 20 408.8V399.2Z" fill="#515DC8" fill-opacity="0.08"></path> <path d="M49.648 409H51.34V396.4H49.036L44.068 405.22L43.132 407.074V396.4H41.44V409H43.744L48.712 400.18L49.648 398.326V409ZM60.2493 409H61.8693V400H60.2493V403.672H55.7493V400H54.1293V409H55.7493V405.148H60.2493V409ZM68.0807 409.144H68.7107V412.6H70.3307V409.144H70.9607C73.3547 409.144 75.0107 407.506 75.0107 404.842V404.158C75.0107 401.476 73.3907 399.856 70.9607 399.856H70.3307V396.4H68.7107V399.856H68.0807C65.6687 399.856 64.0307 401.494 64.0307 404.158V404.842C64.0307 407.524 65.6507 409.144 68.0807 409.144ZM65.7227 404.842V404.158C65.7227 402.322 66.6407 401.404 68.0807 401.404H68.7107V407.596H68.0807C66.6587 407.596 65.7227 406.66 65.7227 404.842ZM70.9607 401.404C72.3827 401.404 73.3187 402.34 73.3187 404.158V404.842C73.3187 406.678 72.4007 407.596 70.9607 407.596H70.3307V401.404H70.9607ZM80.7742 409.144C83.2762 409.144 84.9142 407.506 84.9142 404.842V404.158C84.9142 401.476 83.2942 399.856 80.7742 399.856C78.2722 399.856 76.6342 401.494 76.6342 404.158V404.842C76.6342 407.524 78.2542 409.144 80.7742 409.144ZM80.7742 407.596C79.2802 407.596 78.3262 406.642 78.3262 404.842V404.158C78.3262 402.34 79.2622 401.404 80.7742 401.404C82.2682 401.404 83.2222 402.358 83.2222 404.158V404.842C83.2222 406.66 82.2862 407.596 80.7742 407.596ZM91.4267 409.144C93.4607 409.144 94.9907 407.614 94.9907 404.842V404.158C94.9907 401.368 93.4787 399.856 91.4447 399.856C90.1487 399.856 89.1227 400.342 88.4927 401.296L88.3307 400H87.0707V412.6H88.6907V407.974C89.3207 408.748 90.2567 409.144 91.4267 409.144ZM90.9947 407.596C89.6627 407.596 88.6907 406.606 88.6907 404.842V404.032C88.7267 402.322 89.6987 401.404 90.9947 401.404C92.4167 401.404 93.2987 402.304 93.2987 404.158V404.842C93.2987 406.732 92.4347 407.596 90.9947 407.596ZM101.103 406.84H102.723L104.163 403.78L105.063 401.818V409H106.683V400H104.379L101.949 405.112L99.519 400H97.143V409H98.763V401.836L99.645 403.78L101.103 406.84ZM111.627 409.144C112.941 409.144 114.021 408.55 114.669 407.524L114.867 409H116.127V402.88C116.127 401.026 114.957 399.856 112.707 399.856C110.331 399.856 109.197 400.99 109.107 402.52H110.907C110.997 401.8 111.501 401.296 112.707 401.296C113.931 401.296 114.507 401.872 114.507 402.88V403.546H112.707C109.845 403.546 108.747 404.644 108.747 406.48C108.747 408.136 109.755 409.144 111.627 409.144ZM111.807 407.704C110.943 407.704 110.439 407.2 110.439 406.444C110.439 405.526 111.051 404.914 112.707 404.914H114.507V405.238C114.507 406.57 113.373 407.704 111.807 407.704ZM117.563 401.476H120.443V409H122.063V401.476H124.943V400H117.563V401.476ZM132.777 409H134.397V400H132.309L129.267 405.22L128.277 407.074V400H126.657V409H128.745L131.787 403.78L132.777 401.926V409ZM142.678 409H144.658L141.31 404.284L144.298 400H142.39L139.978 403.582H138.718V400H137.098V409H138.718V405.058H139.96L142.678 409ZM148.348 409.144C149.662 409.144 150.742 408.55 151.39 407.524L151.588 409H152.848V402.88C152.848 401.026 151.678 399.856 149.428 399.856C147.052 399.856 145.918 400.99 145.828 402.52H147.628C147.718 401.8 148.222 401.296 149.428 401.296C150.652 401.296 151.228 401.872 151.228 402.88V403.546H149.428C146.566 403.546 145.468 404.644 145.468 406.48C145.468 408.136 146.476 409.144 148.348 409.144ZM148.528 407.704C147.664 407.704 147.16 407.2 147.16 406.444C147.16 405.526 147.772 404.914 149.428 404.914H151.228V405.238C151.228 406.57 150.094 407.704 148.528 407.704Z" fill="#515DC8"></path> <path d="M183 399.2C183 392.479 183 389.119 184.308 386.552C185.458 384.294 187.294 382.458 189.552 381.308C192.119 380 195.479 380 202.2 380H272.8C279.521 380 282.881 380 285.448 381.308C287.706 382.458 289.542 384.294 290.692 386.552C292 389.119 292 392.479 292 399.2V408.8C292 415.521 292 418.881 290.692 421.448C289.542 423.706 287.706 425.542 285.448 426.692C282.881 428 279.521 428 272.8 428H202.2C195.479 428 192.119 428 189.552 426.692C187.294 425.542 185.458 423.706 184.308 421.448C183 418.881 183 415.521 183 408.8V399.2Z" fill="#515DC8" fill-opacity="0.08"></path> <path d="M212.648 409H214.34V396.4H212.036L207.068 405.22L206.132 407.074V396.4H204.44V409H206.744L211.712 400.18L212.648 398.326V409ZM220.639 409.144C222.745 409.144 223.969 407.938 224.329 406.21H222.601C222.331 407.038 221.773 407.596 220.549 407.596C219.217 407.596 218.281 406.66 218.281 404.842V404.158C218.281 402.322 219.199 401.404 220.549 401.404C221.755 401.404 222.331 401.98 222.601 402.61H224.329C223.969 401.08 222.745 399.856 220.639 399.856C218.173 399.856 216.589 401.44 216.589 404.158V404.842C216.589 407.578 218.155 409.144 220.639 409.144ZM224.876 401.476H227.756V409H229.376V401.476H232.256V400H224.876V401.476ZM237.218 409.144C239.72 409.144 241.358 407.506 241.358 404.842V404.158C241.358 401.476 239.738 399.856 237.218 399.856C234.716 399.856 233.078 401.494 233.078 404.158V404.842C233.078 407.524 234.698 409.144 237.218 409.144ZM237.218 407.596C235.724 407.596 234.77 406.642 234.77 404.842V404.158C234.77 402.34 235.706 401.404 237.218 401.404C238.712 401.404 239.666 402.358 239.666 404.158V404.842C239.666 406.66 238.73 407.596 237.218 407.596ZM247.87 409.144C249.904 409.144 251.434 407.614 251.434 404.842V404.158C251.434 401.368 249.922 399.856 247.888 399.856C246.592 399.856 245.566 400.342 244.936 401.296L244.774 400H243.514V412.6H245.134V407.974C245.764 408.748 246.7 409.144 247.87 409.144ZM247.438 407.596C246.106 407.596 245.134 406.606 245.134 404.842V404.032C245.17 402.322 246.142 401.404 247.438 401.404C248.86 401.404 249.742 402.304 249.742 404.158V404.842C249.742 406.732 248.878 407.596 247.438 407.596ZM259.706 409H261.326V400H259.238L256.196 405.22L255.206 407.074V400H253.586V409H255.674L258.716 403.78L259.706 401.926V409ZM263.488 402.952C263.488 404.176 263.938 405.058 265.072 405.526L263.128 409H264.928L266.602 405.85C266.836 405.868 267.088 405.868 267.358 405.868H268.888V409H270.508V400H267.358C264.55 400 263.488 401.062 263.488 402.952ZM265.18 402.952C265.18 401.98 265.684 401.476 267.358 401.476H268.888V404.392H267.358C265.684 404.392 265.18 403.888 265.18 402.952Z" fill="#515DC8"></path> <path d="M20 455.2C20 448.479 20 445.119 21.3079 442.552C22.4584 440.294 24.2942 438.458 26.5521 437.308C29.1191 436 32.4794 436 39.2 436H182.8C189.521 436 192.881 436 195.448 437.308C197.706 438.458 199.542 440.294 200.692 442.552C202 445.119 202 448.479 202 455.2V464.8C202 471.521 202 474.881 200.692 477.448C199.542 479.706 197.706 481.542 195.448 482.692C192.881 484 189.521 484 182.8 484H39.2C32.4794 484 29.1191 484 26.5521 482.692C24.2942 481.542 22.4584 479.706 21.3079 477.448C20 474.881 20 471.521 20 464.8V455.2Z" fill="#515DC8" fill-opacity="0.08"></path> <path d="M46.39 465.144C49.558 465.144 51.79 462.912 51.79 459.222V458.178C51.79 454.452 49.594 452.256 46.39 452.256C43.222 452.256 40.99 454.488 40.99 458.178V459.222C40.99 462.948 43.186 465.144 46.39 465.144ZM46.39 463.524C44.302 463.524 42.754 461.994 42.754 459.222V458.178C42.754 455.37 44.266 453.876 46.39 453.876C48.496 453.876 50.026 455.406 50.026 458.178V459.222C50.026 462.03 48.514 463.524 46.39 463.524ZM57.7293 465.144C60.2493 465.144 61.8693 463.524 61.8693 460.932V460.248C61.8693 457.602 60.3033 456.036 57.9993 456.036C56.8113 456.036 55.8213 456.45 55.1553 457.278C55.3353 455.892 55.7493 455.1 56.5053 454.596C57.6393 453.876 59.3313 454.362 61.1313 453.714V452.256C58.7013 452.976 57.3333 452.418 55.7853 453.318C54.0753 454.326 53.5893 456.594 53.5893 459.078V460.122C53.5893 463.56 55.1733 465.144 57.7293 465.144ZM57.7293 457.584C59.2053 457.584 60.1773 458.556 60.1773 460.248V460.932C60.1773 462.66 59.2413 463.596 57.7293 463.596C56.2713 463.596 55.2813 462.624 55.2813 460.86V460.05C55.3173 458.484 56.2713 457.584 57.7293 457.584ZM64.0258 465H74.6458V467.34H76.2658V463.524H75.0058V456H73.3858V463.524H70.3258V456H68.7058V463.524H65.6458V456H64.0258V465ZM81.3873 465.144C83.8173 465.144 84.9873 463.974 85.3473 462.21H83.6913C83.3313 463.146 82.8093 463.668 81.3873 463.668C80.0373 463.668 79.0833 462.768 79.0293 461.022H85.4373V460.158C85.4373 457.512 83.7813 455.856 81.3873 455.856C79.0113 455.856 77.3373 457.53 77.3373 460.158V460.842C77.3373 463.506 78.9753 465.144 81.3873 465.144ZM81.3873 457.332C82.7373 457.332 83.5653 458.034 83.7093 459.618H79.0473C79.2093 458.088 80.1093 457.332 81.3873 457.332ZM91.108 465.144C93.214 465.144 94.438 463.938 94.798 462.21H93.07C92.8 463.038 92.242 463.596 91.018 463.596C89.686 463.596 88.75 462.66 88.75 460.842V460.158C88.75 458.322 89.668 457.404 91.018 457.404C92.224 457.404 92.8 457.98 93.07 458.61H94.798C94.438 457.08 93.214 455.856 91.108 455.856C88.642 455.856 87.058 457.44 87.058 460.158V460.842C87.058 463.578 88.624 465.144 91.108 465.144ZM95.3444 457.476H98.2244V465H99.8444V457.476H102.724V456H95.3444V457.476ZM104.438 465H108.218C110.648 465 111.638 464.01 111.638 462.39C111.638 461.508 111.17 460.734 110.162 460.32C110.918 459.888 111.278 459.24 111.278 458.502C111.278 456.99 110.288 456 107.858 456H104.438V465ZM108.218 461.112C109.514 461.112 109.946 461.544 109.946 462.3C109.946 463.092 109.514 463.524 108.218 463.524H106.058V461.112H108.218ZM107.858 457.476C109.172 457.476 109.586 457.89 109.586 458.592C109.586 459.294 109.172 459.708 107.858 459.708H106.058V457.476H107.858ZM117.389 465.144C119.891 465.144 121.529 463.506 121.529 460.842V460.158C121.529 457.476 119.909 455.856 117.389 455.856C114.887 455.856 113.249 457.494 113.249 460.158V460.842C113.249 463.524 114.869 465.144 117.389 465.144ZM117.389 463.596C115.895 463.596 114.941 462.642 114.941 460.842V460.158C114.941 458.34 115.877 457.404 117.389 457.404C118.883 457.404 119.837 458.358 119.837 460.158V460.842C119.837 462.66 118.901 463.596 117.389 463.596ZM126.656 455.856C124.406 455.856 123.326 456.936 123.146 458.61H124.802C124.982 457.836 125.45 457.368 126.656 457.368C127.862 457.368 128.33 457.836 128.33 458.52C128.33 459.24 127.862 459.672 126.656 459.672H125.666V461.148H126.656C128.078 461.148 128.6 461.634 128.6 462.39C128.6 463.11 128.078 463.632 126.656 463.632C125.234 463.632 124.712 463.11 124.532 462.21H122.876C123.056 464.028 124.172 465.144 126.656 465.144C129.14 465.144 130.256 464.028 130.256 462.48C130.256 461.58 129.806 460.842 128.834 460.41C129.608 459.996 129.986 459.294 129.986 458.43C129.986 456.936 128.906 455.856 126.656 455.856ZM138.542 465H140.162V456H138.542V459.672H134.042V456H132.422V465H134.042V461.148H138.542V465ZM145.114 465.144C146.428 465.144 147.508 464.55 148.156 463.524L148.354 465H149.614V458.88C149.614 457.026 148.444 455.856 146.194 455.856C143.818 455.856 142.684 456.99 142.594 458.52H144.394C144.484 457.8 144.988 457.296 146.194 457.296C147.418 457.296 147.994 457.872 147.994 458.88V459.546H146.194C143.332 459.546 142.234 460.644 142.234 462.48C142.234 464.136 143.242 465.144 145.114 465.144ZM145.294 463.704C144.43 463.704 143.926 463.2 143.926 462.444C143.926 461.526 144.538 460.914 146.194 460.914H147.994V461.238C147.994 462.57 146.86 463.704 145.294 463.704ZM158.335 465H159.955V456H158.335V459.672H153.835V456H152.215V465H153.835V461.148H158.335V465ZM168.777 465H170.397V456H168.309L165.267 461.22L164.277 463.074V456H162.657V465H164.745L167.787 459.78L168.777 457.926V465ZM176.608 465.144C179.038 465.144 180.208 463.974 180.568 462.21H178.912C178.552 463.146 178.03 463.668 176.608 463.668C175.258 463.668 174.304 462.768 174.25 461.022H180.658V460.158C180.658 457.512 179.002 455.856 176.608 455.856C174.232 455.856 172.558 457.53 172.558 460.158V460.842C172.558 463.506 174.196 465.144 176.608 465.144ZM176.608 457.332C177.958 457.332 178.786 458.034 178.93 459.618H174.268C174.43 458.088 175.33 457.332 176.608 457.332Z" fill="#515DC8"></path> <path d="M22.324 542V523.688H28.176C29.128 523.688 29.996 523.772 30.78 523.94C31.5827 524.089 32.2733 524.341 32.852 524.696C33.4493 525.032 33.9067 525.489 34.224 526.068C34.56 526.647 34.728 527.356 34.728 528.196C34.728 529.073 34.504 529.885 34.056 530.632C33.608 531.379 32.9827 531.892 32.18 532.172V532.284C33.188 532.508 34.0187 532.984 34.672 533.712C35.344 534.421 35.68 535.392 35.68 536.624C35.68 537.539 35.5027 538.332 35.148 539.004C34.7933 539.676 34.2987 540.236 33.664 540.684C33.048 541.132 32.3107 541.468 31.452 541.692C30.5933 541.897 29.66 542 28.652 542H22.324ZM25.572 531.248H27.896C29.184 531.248 30.108 531.015 30.668 530.548C31.2467 530.081 31.536 529.456 31.536 528.672C31.536 527.776 31.2373 527.141 30.64 526.768C30.0427 526.395 29.1467 526.208 27.952 526.208H25.572V531.248ZM25.572 539.48H28.316C29.66 539.48 30.696 539.237 31.424 538.752C32.152 538.248 32.516 537.483 32.516 536.456C32.516 535.485 32.1613 534.785 31.452 534.356C30.7427 533.908 29.6973 533.684 28.316 533.684H25.572V539.48ZM38.751 542V528.252H41.971V532.956H43.427C44.2484 532.956 45.0044 533.04 45.695 533.208C46.4044 533.376 47.011 533.637 47.515 533.992C48.019 534.347 48.411 534.813 48.691 535.392C48.9897 535.952 49.139 536.633 49.139 537.436C49.139 538.257 48.9897 538.957 48.691 539.536C48.411 540.115 48.019 540.591 47.515 540.964C47.011 541.319 46.4044 541.58 45.695 541.748C45.0044 541.916 44.2484 542 43.427 542H38.751ZM41.971 539.508H43.231C45.079 539.508 46.003 538.808 46.003 537.408C46.003 536.064 45.079 535.392 43.231 535.392H41.971V539.508ZM51.239 542V528.252H54.459V542H51.239ZM64.4839 542.336C62.3559 542.336 60.7132 541.571 59.5559 540.04C58.4172 538.509 57.8479 536.344 57.8479 533.544C57.8479 531.341 58.0532 529.559 58.4639 528.196C58.8746 526.815 59.4532 525.723 60.1999 524.92C60.9652 524.117 61.8799 523.539 62.9439 523.184C64.0079 522.811 65.1839 522.531 66.4719 522.344C66.8826 522.288 67.2279 522.232 67.5079 522.176C67.8066 522.12 68.0679 522.064 68.2919 522.008C68.5346 521.952 68.7492 521.887 68.9359 521.812C69.1412 521.737 69.3466 521.653 69.5519 521.56L70.1959 524.416C69.8226 524.677 69.3652 524.883 68.8239 525.032C68.3012 525.163 67.7412 525.275 67.1439 525.368C66.0986 525.517 65.2119 525.667 64.4839 525.816C63.7746 525.965 63.1772 526.227 62.6919 526.6C62.2252 526.955 61.8612 527.459 61.5999 528.112C61.3386 528.765 61.1519 529.671 61.0399 530.828C61.5812 530.175 62.2252 529.68 62.9719 529.344C63.7186 529.008 64.5026 528.84 65.3239 528.84C66.0892 528.84 66.7986 528.98 67.4519 529.26C68.1239 529.54 68.7026 529.96 69.1879 530.52C69.6732 531.061 70.0466 531.733 70.3079 532.536C70.5879 533.32 70.7279 534.225 70.7279 535.252C70.7279 536.316 70.5692 537.287 70.2519 538.164C69.9346 539.041 69.4959 539.788 68.9359 540.404C68.3759 541.02 67.7132 541.496 66.9479 541.832C66.1826 542.168 65.3612 542.336 64.4839 542.336ZM64.4559 539.704C65.3519 539.704 66.0706 539.303 66.6119 538.5C67.1532 537.679 67.4239 536.596 67.4239 535.252C67.4239 533.908 67.1626 532.909 66.6399 532.256C66.1172 531.603 65.3799 531.276 64.4279 531.276C63.8492 531.276 63.2519 531.425 62.6359 531.724C62.0386 532.004 61.4692 532.536 60.9279 533.32V534.244C60.9279 536.036 61.2266 537.399 61.8239 538.332C62.4212 539.247 63.2986 539.704 64.4559 539.704ZM79.9045 542.336C78.9525 542.336 78.0658 542.177 77.2445 541.86C76.4231 541.524 75.7045 541.048 75.0885 540.432C74.4725 539.816 73.9871 539.069 73.6325 538.192C73.2965 537.296 73.1285 536.279 73.1285 535.14C73.1285 534.02 73.3058 533.012 73.6605 532.116C74.0151 531.22 74.4818 530.464 75.0605 529.848C75.6578 529.232 76.3391 528.756 77.1045 528.42C77.8698 528.084 78.6538 527.916 79.4565 527.916C80.3898 527.916 81.2111 528.075 81.9205 528.392C82.6298 528.709 83.2178 529.157 83.6845 529.736C84.1698 530.315 84.5338 531.005 84.7765 531.808C85.0191 532.611 85.1405 533.488 85.1405 534.44C85.1405 534.757 85.1218 535.056 85.0845 535.336C85.0658 535.616 85.0378 535.84 85.0005 536.008H76.2645C76.4138 537.24 76.8431 538.192 77.5525 538.864C78.2805 539.517 79.2045 539.844 80.3245 539.844C80.9218 539.844 81.4725 539.76 81.9765 539.592C82.4991 539.405 83.0125 539.153 83.5165 538.836L84.6085 540.852C83.9551 541.281 83.2271 541.636 82.4245 541.916C81.6218 542.196 80.7818 542.336 79.9045 542.336ZM76.2365 533.824H82.3405C82.3405 532.76 82.1071 531.929 81.6405 531.332C81.1925 530.716 80.4925 530.408 79.5405 530.408C78.7191 530.408 78.0005 530.697 77.3845 531.276C76.7685 531.855 76.3858 532.704 76.2365 533.824ZM88.2159 547.432V528.252H90.8759L91.0999 529.708H91.2119C91.7905 529.223 92.4345 528.803 93.1439 528.448C93.8532 528.093 94.5905 527.916 95.3559 527.916C96.2145 527.916 96.9705 528.084 97.6239 528.42C98.2959 528.737 98.8652 529.204 99.3319 529.82C99.7985 530.436 100.153 531.173 100.396 532.032C100.639 532.891 100.76 533.852 100.76 534.916C100.76 536.092 100.592 537.147 100.256 538.08C99.9385 538.995 99.5092 539.769 98.9679 540.404C98.4265 541.02 97.8012 541.496 97.0919 541.832C96.3825 542.168 95.6452 542.336 94.8799 542.336C94.2825 542.336 93.6852 542.205 93.0879 541.944C92.4905 541.683 91.9119 541.309 91.3519 540.824L91.4359 543.12V547.432H88.2159ZM94.2079 539.676C95.1225 539.676 95.8879 539.284 96.5039 538.5C97.1199 537.697 97.4279 536.512 97.4279 534.944C97.4279 533.563 97.1945 532.489 96.7279 531.724C96.2612 530.959 95.5052 530.576 94.4599 530.576C93.4892 530.576 92.4812 531.089 91.4359 532.116V538.528C91.9399 538.957 92.4252 539.256 92.8919 539.424C93.3585 539.592 93.7972 539.676 94.2079 539.676ZM104.021 542V528.252H107.157V532.984C107.157 533.693 107.119 534.487 107.045 535.364C106.989 536.223 106.933 537.091 106.877 537.968H106.961C107.203 537.539 107.493 537.053 107.829 536.512C108.165 535.952 108.445 535.467 108.669 535.056L113.037 528.252H116.005V542H112.869V537.268C112.869 536.559 112.897 535.775 112.953 534.916C113.027 534.039 113.102 533.161 113.177 532.284H113.065C112.822 532.713 112.533 533.208 112.197 533.768C111.879 534.309 111.599 534.785 111.357 535.196L106.989 542H104.021ZM123.095 542V530.8H118.783V528.252H130.655V530.8H126.343V542H123.095ZM138.858 542.336C137.906 542.336 137.019 542.177 136.198 541.86C135.376 541.524 134.658 541.048 134.042 540.432C133.426 539.816 132.94 539.069 132.586 538.192C132.25 537.296 132.082 536.279 132.082 535.14C132.082 534.02 132.259 533.012 132.614 532.116C132.968 531.22 133.435 530.464 134.014 529.848C134.611 529.232 135.292 528.756 136.058 528.42C136.823 528.084 137.607 527.916 138.41 527.916C139.343 527.916 140.164 528.075 140.874 528.392C141.583 528.709 142.171 529.157 142.638 529.736C143.123 530.315 143.487 531.005 143.73 531.808C143.972 532.611 144.094 533.488 144.094 534.44C144.094 534.757 144.075 535.056 144.038 535.336C144.019 535.616 143.991 535.84 143.954 536.008H135.218C135.367 537.24 135.796 538.192 136.506 538.864C137.234 539.517 138.158 539.844 139.278 539.844C139.875 539.844 140.426 539.76 140.93 539.592C141.452 539.405 141.966 539.153 142.47 538.836L143.562 540.852C142.908 541.281 142.18 541.636 141.378 541.916C140.575 542.196 139.735 542.336 138.858 542.336ZM135.19 533.824H141.294C141.294 532.76 141.06 531.929 140.594 531.332C140.146 530.716 139.446 530.408 138.494 530.408C137.672 530.408 136.954 530.697 136.338 531.276C135.722 531.855 135.339 532.704 135.19 533.824ZM152.774 542V528.252H158.346C159.112 528.252 159.812 528.317 160.446 528.448C161.1 528.56 161.66 528.756 162.126 529.036C162.612 529.316 162.985 529.689 163.246 530.156C163.526 530.604 163.666 531.155 163.666 531.808C163.666 532.48 163.47 533.077 163.078 533.6C162.705 534.104 162.136 534.468 161.37 534.692V534.804C162.192 535.009 162.873 535.364 163.414 535.868C163.956 536.372 164.226 537.1 164.226 538.052C164.226 538.743 164.077 539.34 163.778 539.844C163.498 540.329 163.106 540.74 162.602 541.076C162.098 541.393 161.501 541.627 160.81 541.776C160.138 541.925 159.41 542 158.626 542H152.774ZM155.938 533.824H158.038C158.934 533.824 159.578 533.675 159.97 533.376C160.362 533.077 160.558 532.667 160.558 532.144C160.558 531.603 160.372 531.183 159.998 530.884C159.625 530.585 159 530.436 158.122 530.436H155.938V533.824ZM155.938 539.816H158.402C159.336 539.816 160.008 539.639 160.418 539.284C160.848 538.929 161.062 538.453 161.062 537.856C161.062 537.296 160.838 536.848 160.39 536.512C159.942 536.176 159.242 536.008 158.29 536.008H155.938V539.816ZM170.599 542.336C169.385 542.336 168.405 541.972 167.659 541.244C166.912 540.497 166.539 539.517 166.539 538.304C166.539 537.576 166.688 536.932 166.987 536.372C167.304 535.793 167.789 535.299 168.443 534.888C169.115 534.477 169.955 534.132 170.963 533.852C171.989 533.572 173.212 533.357 174.631 533.208C174.612 532.853 174.556 532.517 174.463 532.2C174.388 531.864 174.248 531.575 174.043 531.332C173.856 531.071 173.604 530.875 173.287 530.744C172.969 530.595 172.577 530.52 172.111 530.52C171.439 530.52 170.776 530.651 170.123 530.912C169.488 531.173 168.863 531.491 168.247 531.864L167.071 529.708C167.836 529.223 168.695 528.803 169.647 528.448C170.599 528.093 171.625 527.916 172.727 527.916C174.444 527.916 175.723 528.429 176.563 529.456C177.421 530.464 177.851 531.929 177.851 533.852V542H175.191L174.967 540.488H174.855C174.239 541.011 173.576 541.449 172.867 541.804C172.176 542.159 171.42 542.336 170.599 542.336ZM171.635 539.816C172.195 539.816 172.699 539.685 173.147 539.424C173.613 539.163 174.108 538.789 174.631 538.304V535.224C173.697 535.336 172.913 535.485 172.279 535.672C171.644 535.859 171.131 536.073 170.739 536.316C170.347 536.54 170.067 536.801 169.899 537.1C169.731 537.399 169.647 537.716 169.647 538.052C169.647 538.668 169.833 539.116 170.207 539.396C170.58 539.676 171.056 539.816 171.635 539.816ZM181.704 547.432V528.252H184.364L184.588 529.708H184.7C185.279 529.223 185.923 528.803 186.632 528.448C187.341 528.093 188.079 527.916 188.844 527.916C189.703 527.916 190.459 528.084 191.112 528.42C191.784 528.737 192.353 529.204 192.82 529.82C193.287 530.436 193.641 531.173 193.884 532.032C194.127 532.891 194.248 533.852 194.248 534.916C194.248 536.092 194.08 537.147 193.744 538.08C193.427 538.995 192.997 539.769 192.456 540.404C191.915 541.02 191.289 541.496 190.58 541.832C189.871 542.168 189.133 542.336 188.368 542.336C187.771 542.336 187.173 542.205 186.576 541.944C185.979 541.683 185.4 541.309 184.84 540.824L184.924 543.12V547.432H181.704ZM187.696 539.676C188.611 539.676 189.376 539.284 189.992 538.5C190.608 537.697 190.916 536.512 190.916 534.944C190.916 533.563 190.683 532.489 190.216 531.724C189.749 530.959 188.993 530.576 187.948 530.576C186.977 530.576 185.969 531.089 184.924 532.116V538.528C185.428 538.957 185.913 539.256 186.38 539.424C186.847 539.592 187.285 539.676 187.696 539.676ZM197.509 542V528.252H200.645V532.984C200.645 533.693 200.608 534.487 200.533 535.364C200.477 536.223 200.421 537.091 200.365 537.968H200.449C200.692 537.539 200.981 537.053 201.317 536.512C201.653 535.952 201.933 535.467 202.157 535.056L206.525 528.252H209.493V542H206.357V537.268C206.357 536.559 206.385 535.775 206.441 534.916C206.516 534.039 206.59 533.161 206.665 532.284H206.553C206.31 532.713 206.021 533.208 205.685 533.768C205.368 534.309 205.088 534.785 204.845 535.196L200.477 542H197.509ZM216.919 542.336C215.706 542.336 214.726 541.972 213.979 541.244C213.232 540.497 212.859 539.517 212.859 538.304C212.859 537.576 213.008 536.932 213.307 536.372C213.624 535.793 214.11 535.299 214.763 534.888C215.435 534.477 216.275 534.132 217.283 533.852C218.31 533.572 219.532 533.357 220.951 533.208C220.932 532.853 220.876 532.517 220.783 532.2C220.708 531.864 220.568 531.575 220.363 531.332C220.176 531.071 219.924 530.875 219.607 530.744C219.29 530.595 218.898 530.52 218.431 530.52C217.759 530.52 217.096 530.651 216.443 530.912C215.808 531.173 215.183 531.491 214.567 531.864L213.391 529.708C214.156 529.223 215.015 528.803 215.967 528.448C216.919 528.093 217.946 527.916 219.047 527.916C220.764 527.916 222.043 528.429 222.883 529.456C223.742 530.464 224.171 531.929 224.171 533.852V542H221.511L221.287 540.488H221.175C220.559 541.011 219.896 541.449 219.187 541.804C218.496 542.159 217.74 542.336 216.919 542.336ZM217.955 539.816C218.515 539.816 219.019 539.685 219.467 539.424C219.934 539.163 220.428 538.789 220.951 538.304V535.224C220.018 535.336 219.234 535.485 218.599 535.672C217.964 535.859 217.451 536.073 217.059 536.316C216.667 536.54 216.387 536.801 216.219 537.1C216.051 537.399 215.967 537.716 215.967 538.052C215.967 538.668 216.154 539.116 216.527 539.396C216.9 539.676 217.376 539.816 217.955 539.816ZM228.024 542V528.252H231.244V533.516H236.732V528.252H239.952V542H236.732V536.344H231.244V542H228.024ZM247.044 542V530.8H242.732V528.252H254.604V530.8H250.292V542H247.044Z" fill="#1F1F1F"></path> <rect x="20" y="560" width="280" height="160" rx="12" fill="#515DC8" fill-opacity="0.08"></rect> <path d="M39.848 614V609.112H47.232V587.376H41.148V583.632C42.812 583.32 44.2333 582.956 45.412 582.54C46.6253 582.089 47.752 581.552 48.792 580.928H53.264V609.112H59.764V614H39.848Z" fill="#515DC8"></path> </g> <rect x="0.5" y="0.5" width="319" height="637" rx="11.5" stroke="#0A0A0A" stroke-opacity="0.16"></rect> <defs> <clipPath id="clip0_139_1290"> <rect width="320" height="638" rx="12" fill="white"></rect> </clipPath> <clipPath id="clip1_139_1290"> <rect width="320" height="48" fill="white"></rect> </clipPath> <clipPath id="clip2_139_1290"> <rect width="103.823" height="14" fill="white" transform="translate(108 18)"></rect> </clipPath> </defs> </svg> 