<?xml version="1.0" encoding="UTF-8"?> <svg xmlns="http://www.w3.org/2000/svg" width="111" height="111" viewBox="0 0 111 111" fill="none"> <g clip-path="url(#clip0_101:9)"> <g clip-path="url(#clip1_101:9)"> <path fill-rule="evenodd" clip-rule="evenodd" d="M26.1335 43.8846C26.4342 43.6631 26.866 43.6616 27.7296 43.6587L84.6242 43.4673C85.4988 43.4644 85.9361 43.4629 86.2399 43.6862C86.3379 43.7582 86.4237 43.8454 86.4943 43.9446C86.7128 44.2518 86.7045 44.689 86.6879 45.5634L85.8649 88.9514C85.8489 89.7937 85.8409 90.2148 85.6221 90.5089C85.5514 90.6039 85.4663 90.6874 85.3699 90.7563C85.0718 90.9695 84.6505 90.9695 83.8081 90.9695H28.2429C27.3949 90.9695 26.9709 90.9695 26.6719 90.7544C26.5753 90.6849 26.4901 90.6007 26.4195 90.5049C26.2009 90.2084 26.1959 89.7844 26.1859 88.9365L25.6795 45.74C25.6694 44.8764 25.6643 44.4447 25.8813 44.1407C25.9513 44.0426 26.0365 43.9561 26.1335 43.8846ZM57.236 83.6464C33.7868 83.6464 34.8456 50.4534 56.8565 50.4534C78.7914 50.4534 78.6624 83.6464 57.236 83.6464Z" fill="#515DC8"></path> <path d="M38.4718 17.71L55.8884 0.293335L73.3051 17.71V30.4269L82.0134 39.4808L29.8325 39.6882L38.4718 30.7725V17.71Z" fill="#515DC8"></path> <path d="M29.9017 104.793L29.7634 96.085H82.0134L81.8752 104.793H29.9017Z" fill="#515DC8"></path> <path d="M65.0114 74.9528L62.2469 77.7174L52.8474 69.4237L57.5126 56.8969L61.0503 58.1215L57.2016 68.3352L65.0114 74.9528Z" fill="#515DC8"></path> </g> </g> <defs> <clipPath id="clip0_101:9"> <rect width="110" height="110" fill="white" transform="translate(0.887207 0.292847)"></rect> </clipPath> <clipPath id="clip1_101:9"> <rect width="104.5" height="104.5" fill="white" transform="translate(3.63818 0.293213)"></rect> </clipPath> </defs> </svg> 