<?xml version="1.0" encoding="UTF-8"?> <svg xmlns="http://www.w3.org/2000/svg" width="48" height="48" viewBox="0 0 48 48" fill="none"> <path d="M13.415 31.9055L13.88 33.9995H28.12L28.585 31.9055C28.9 30.4885 29.573 29.1535 30.626 28.1545C33.395 25.5295 35 21.8635 35 17.9995C35 10.2815 28.717 4.02448 21 4.02148C13.283 4.02448 7 10.2815 7 17.9995C7 21.8635 8.605 25.5295 11.373 28.1545C12.427 29.1535 13.1 30.4885 13.415 31.9055ZM14.547 36.9995L15.493 41.2585C15.849 42.8605 17.27 43.9995 18.91 43.9995H23.09C24.73 43.9995 26.151 42.8605 26.507 41.2585L27.453 36.9995H14.547Z" fill="#FD4F28"></path> </svg> 