<?xml version="1.0" encoding="UTF-8"?> <svg xmlns="http://www.w3.org/2000/svg" width="480" height="168" viewBox="0 0 480 168" fill="none"> <g clip-path="url(#clip0_142_288)"> <path fill-rule="evenodd" clip-rule="evenodd" d="M480 0L0 0L0 253H16L16 269.8C16 287.722 16 296.683 19.4878 303.528C22.5557 309.549 27.4511 314.444 33.4723 317.512C40.3175 321 49.2783 321 67.2 321L412.8 321C430.722 321 439.683 321 446.528 317.512C452.549 314.444 457.444 309.549 460.512 303.528C464 296.683 464 287.722 464 269.8V253H480L480 0ZM464 253L464 67.2C464 49.2783 464 40.3175 460.512 33.4723C457.444 27.4511 452.549 22.5557 446.528 19.4878C439.683 16 430.722 16 412.8 16L67.2 16C49.2783 16 40.3175 16 33.4723 19.4878C27.4511 22.5557 22.5557 27.4511 19.4878 33.4723C16 40.3175 16 49.2783 16 67.2L16 253L464 253Z" fill="white"></path> </g> <defs> <clipPath id="clip0_142_288"> <rect width="480" height="168" fill="white"></rect> </clipPath> </defs> </svg> 