<?xml version="1.0" encoding="UTF-8"?> <svg xmlns="http://www.w3.org/2000/svg" width="107" height="107" viewBox="0 0 107 107" fill="none"> <path fill-rule="evenodd" clip-rule="evenodd" d="M55.481 42.4432C70.4371 42.4432 70.343 65.1719 55.7368 65.1719C39.7429 65.1709 40.4662 42.4432 55.481 42.4432ZM84.3944 86.0369C83.6006 86.7475 82.7538 87.3265 81.8697 87.8109L81.0112 82.4975C81.0455 82.4682 81.0837 82.4429 81.118 82.4127C84.9854 78.9522 85.1011 73.0822 82.8714 66.3884C76.0951 70.0896 67.8065 72.933 59.5425 74.674C57.8499 75.0307 56.1367 75.3339 54.4176 75.6039C57.648 78.1266 60.9048 80.2643 64.0371 81.8356C65.1946 79.8432 67.3145 78.383 70.3547 78.383C79.9135 78.383 79.8527 92.908 70.5174 92.908C65.814 92.908 63.3785 89.8316 63.0492 86.5106C58.0018 84.1702 52.8034 80.6181 47.9021 76.4042C43.5142 76.7892 39.1901 76.8604 35.1532 76.5416C36.1509 84.3222 39.542 88.967 43.8769 90.3717C47.6247 91.5862 51.6734 90.0159 55.6045 86.4336L59.6287 89.0733C54.3216 94.3214 48.3882 96.9591 42.3587 95.0057C34.6268 92.5015 31.1299 85.0982 30.3625 75.9529C21.1948 74.3913 14.2441 70.4318 12.7054 63.2117C12.4829 62.1677 12.379 61.1452 12.3712 60.1441C5.66151 57.4137 7.04245 46.2166 15.4682 46.2166C24.4056 46.2166 24.9319 58.911 17.3333 60.5622C17.3509 61.1169 17.3853 61.6686 17.4989 62.2018C18.4869 66.8378 23.2354 69.8196 30.1939 71.1862C30.2439 67.0561 30.7594 62.7038 31.6033 58.3749C22.0553 44.694 17.1324 29.5587 25.7659 21.8376C30.6448 17.4765 36.9202 17.0807 43.5456 19.1423L41.5766 23.5483C36.1323 22.1388 31.8072 22.9907 29.0433 25.4618C23.6539 30.281 25.9355 40.6721 33.0832 52.0301C33.5125 50.4422 33.9702 48.8689 34.473 47.3346C38.1052 36.2447 44.2209 24.643 51.5842 17.8069C50.2964 13.593 52.7446 8.19958 58.5928 8.19958C68.1505 8.19958 68.0908 22.7246 58.7555 22.7246C57.0188 22.7246 55.5977 22.2986 54.4706 21.6027C48.2118 27.5605 42.5724 38.0655 39.0519 48.8182C38.0748 51.802 37.3034 54.6132 36.6831 57.2851C38.5217 59.762 40.5642 62.2505 42.7851 64.707C44.9314 67.0815 47.1964 69.3566 49.5172 71.4689C52.4428 71.1258 55.4634 70.6375 58.5428 69.9883C66.7873 68.2512 74.8563 65.48 81.1445 62.0137C80.627 60.8751 80.0585 59.7239 79.4362 58.5659L82.3353 53.9884C83.3947 55.8102 84.3464 57.6457 85.1981 59.4744C90.8865 55.4798 94.1864 50.8028 93.1269 45.8247C92.0557 40.7978 87.0691 37.7643 80.2007 36.3246C80.0174 43.8908 78.3875 52.2894 75.8363 60.1509L70.2048 61.7407C70.539 60.8098 70.8664 59.8702 71.18 58.9129C73.7723 50.9968 75.3845 42.7249 75.5286 35.6111C68.1927 34.8663 59.5003 35.5341 51.2726 37.2682C50.6855 37.392 50.1494 37.5333 49.579 37.663L51.2167 32.3943C59.1044 30.8162 67.7115 30.1348 75.3826 30.8464C74.9141 25.5154 73.3763 21.203 70.4871 18.7593L71.3633 13.4585C76.9203 16.5397 79.5558 23.2617 80.1075 31.4956C89.2439 33.1771 96.3142 37.2711 97.9215 44.8158C99.4857 52.1597 94.7656 58.679 87.021 63.8774C90.1818 72.6465 90.1936 80.8511 84.3944 86.0369ZM39.2068 67.9091C37.9307 66.4986 36.6889 65.0413 35.4903 63.5519C35.0542 66.5522 34.8464 69.3215 34.8591 71.8335C37.425 72.0587 40.1957 72.1103 43.1144 71.9904C41.7716 70.6638 40.4642 69.301 39.2068 67.9091Z" fill="#515DC8"></path> </svg> 