<?xml version="1.0" encoding="UTF-8"?> <svg xmlns="http://www.w3.org/2000/svg" width="48" height="48" viewBox="0 0 48 48" fill="none"> <path fill-rule="evenodd" clip-rule="evenodd" d="M44.8963 27.0803C44.751 28.0563 44.3845 28.9848 43.8247 29.7926C43.265 30.6004 42.5277 31.2653 41.6713 31.7349C41.4337 31.8681 41.1854 31.9801 40.9289 32.0693C41.255 36.4492 34.3885 38.0419 30.6882 36.9987L32.063 41.8725L28.5277 41.9999L22.3409 33.021C20.2551 33.6182 17.7921 33.9049 16.2012 31.3168C16.0567 31.079 15.9256 30.833 15.8084 30.5802C15.4038 30.6637 14.9919 30.7064 14.5789 30.7076C13.4005 30.7076 11.4364 30.3492 10.4387 29.6484C9.64767 29.1168 9.02015 28.3703 8.62781 27.4944C6.50269 27.789 4.69968 27.2833 3.52125 26.033C2.02856 24.4762 1.60433 21.904 2.3821 19.1447C3.40734 15.4616 6.52626 11.3126 12.7248 9.75572C13.2626 9.07815 13.9061 8.49439 14.63 8.02769C18.5228 5.49929 24.8431 5.28026 29.6394 7.68128C31.4988 7.33013 33.4181 7.51644 35.178 8.21877C38.6269 9.52876 41.1332 12.2682 41.6046 15.0515C42.5379 15.5418 43.3023 16.3084 43.7965 17.2493C44.8296 19.2163 44.9749 21.1873 44.2796 22.78C44.9344 24.1093 45.1505 25.6169 44.8963 27.0803ZM42.3509 25.0097C41.8018 25.3037 41.1901 25.4573 40.5695 25.4573C39.9485 25.4573 39.3369 25.3037 38.788 25.0097L39.0747 23.0786C40.2847 23.198 41.2707 22.8158 41.7853 22.0314C42.3627 21.1594 42.2723 19.8654 41.5417 18.4757C40.7247 16.9189 38.9608 16.672 37.9827 16.66H37.9199C35.4687 16.66 32.9704 18.0736 31.9609 19.9171L30.4918 19.2044C30.7806 18.2547 31.2713 17.3807 31.9295 16.6441C31.3629 16.1565 30.9346 15.5247 30.6888 14.8137C30.4431 14.1027 30.3886 13.3381 30.5311 12.5987L31.9805 12.4633C32.0469 13.0613 32.2909 13.6248 32.6802 14.0792C33.0695 14.5336 33.5858 14.8573 34.1606 15.0077C35.3698 14.4606 36.6824 14.1888 38.0063 14.2113C38.1948 14.2113 38.3755 14.2312 38.5601 14.2431C37.6209 12.5554 36.1324 11.2507 34.3492 10.5521C29.9968 8.83992 27.0625 11.4957 26.3908 12.4115C24.7724 14.6094 25.8094 16.6879 26.599 18.0378L25.3027 19.2323C24.1738 18.2424 23.4163 16.8881 23.158 15.3978C21.4964 15.9035 19.2652 15.796 18.016 13.6339L19.1945 12.8137C20.5183 13.8171 22.6198 13.7295 23.6175 12.4912C23.8553 11.9436 24.1559 11.4264 24.5132 10.9502C25.0804 10.1909 25.7648 9.5294 26.5401 8.99127C23.2837 8.0914 18.6838 8.23872 15.9027 10.0464C15.1512 10.4888 14.5326 11.1301 14.1132 11.9017C13.6939 12.6733 13.4896 13.546 13.5223 14.4263C13.5223 15.8478 14.6221 18.0935 16.103 18.4439L15.2428 20.1361C14.2979 19.9143 13.4401 19.4109 12.7798 18.6908L11.5032 20.3392L10.2266 19.7101L11.4757 16.3972C11.2716 15.7538 11.167 15.0823 11.1654 14.4064C11.1686 13.8713 11.2238 13.3378 11.3304 12.8137C7.40223 14.4581 5.46174 17.1936 4.75075 19.6941C4.20474 21.6173 4.41686 23.3533 5.31247 24.285C6.02346 25.0256 7.11155 25.2009 8.13679 25.1332L10.8865 22.9631L11.79 23.7356L10.9729 26.4511C11.4011 27.8328 12.8034 28.5455 15.3606 28.0438C15.4932 26.9444 15.9212 25.9032 16.598 25.0337C17.0942 24.3099 17.7507 23.714 18.5149 23.2936L19.8583 19.6265L21.2017 19.5667L21.0564 22.5729C23.3151 22.338 25.8409 22.8039 28.1938 22.4455L28.6259 24.0382C25.177 25.6548 21.6456 23.0189 18.4442 26.4949C17.2933 27.7452 17.7332 28.8322 18.4442 29.9272C19.4694 31.492 21.3942 30.5523 23.3622 29.9272C26.3437 29.0034 28.5081 28.3345 32.5894 28.673C31.6152 26.7976 31.7095 24.5319 33.0136 22.0394L34.9345 22.8078C33.5871 25.9574 34.8481 27.781 35.7201 28.5854C37.0675 29.8277 39.0944 30.2019 40.434 29.4534C40.947 29.1661 41.3881 28.7633 41.7232 28.2759C42.0583 27.7885 42.2782 27.2296 42.3666 26.6423C42.455 26.1012 42.4483 25.5485 42.347 25.0097H42.3509Z" fill="#515DC8"></path> </svg> 