<?xml version="1.0" encoding="UTF-8"?> <svg xmlns="http://www.w3.org/2000/svg" width="320" height="168" viewBox="0 0 320 168" fill="none"> <g clip-path="url(#clip0_142_288)"> <path fill-rule="evenodd" clip-rule="evenodd" d="M320 0L0 0L0 253H12L12 269.8C12 287.722 12 296.683 15.4878 303.528C18.5557 309.549 23.4511 314.444 29.4723 317.512C36.3175 321 45.2783 321 63.2 321L256.8 321C274.722 321 283.683 321 290.528 317.512C296.549 314.444 301.444 309.549 304.512 303.528C308 296.683 308 287.722 308 269.8V253H320L320 0ZM308 253L308 63.2C308 45.2783 308 36.3175 304.512 29.4723C301.444 23.4511 296.549 18.5557 290.528 15.4878C283.683 12 274.722 12 256.8 12L63.2 12C45.2783 12 36.3175 12 29.4723 15.4878C23.4511 18.5557 18.5557 23.4511 15.4878 29.4723C12 36.3175 12 45.2783 12 63.2L12 253L308 253Z" fill="white"></path> </g> <defs> <clipPath id="clip0_142_288"> <rect width="320" height="168" fill="white"></rect> </clipPath> </defs> </svg> 