<?xml version="1.0" encoding="UTF-8"?> <svg xmlns="http://www.w3.org/2000/svg" width="960" height="168" viewBox="0 0 960 168" fill="none"> <g clip-path="url(#clip0_118_17)"> <path fill-rule="evenodd" clip-rule="evenodd" d="M960 0L0 0L0 336L960 336V0ZM38.5396 64.7606C32 77.5953 32 94.3969 32 128L32 225C32 258.603 32 275.405 38.5396 288.239C44.292 299.529 53.4708 308.708 64.7606 314.46C77.5953 321 94.3969 321 128 321L832 321C865.603 321 882.405 321 895.239 314.46C906.529 308.708 915.708 299.529 921.46 288.239C928 275.405 928 258.603 928 225V128C928 94.3969 928 77.5953 921.46 64.7606C915.708 53.4708 906.529 44.292 895.239 38.5396C882.405 32 865.603 32 832 32L128 32C94.3969 32 77.5953 32 64.7606 38.5396C53.4708 44.292 44.292 53.4708 38.5396 64.7606Z" fill="white"></path> </g> <defs> <clipPath id="clip0_118_17"> <rect width="960" height="168" fill="white"></rect> </clipPath> </defs> </svg> 