<?xml version="1.0" encoding="UTF-8"?> <svg xmlns="http://www.w3.org/2000/svg" width="80" height="80" viewBox="0 0 80 80" fill="none"> <path fill-rule="evenodd" clip-rule="evenodd" d="M68.899 19.8085C68.6204 22.5057 64.3768 53.772 63.1218 67.9956C62.705 72.7161 58.5568 74.5173 52.7032 73.8741C46.8503 73.2317 25.6589 70.2196 20.0771 69.6063C14.4968 68.9931 12.6189 65.4488 13.0624 60.7976C14.4647 46.0647 18.5412 16.1564 18.9213 13.1112C19.5763 7.86094 21.8771 5.57865 26.291 6.06361C29.8506 6.45567 58.3675 9.92909 62.918 10.5314C68.1089 11.2186 69.4036 14.9314 68.899 19.8085ZM24.6459 12.9191L23.8482 19.7471L26.1887 20.0597C26.7933 17.6892 28.0185 16.1162 30.6896 16.454C34.095 16.8854 34.4844 19.851 34.0706 23.326C33.6569 26.801 32.6614 29.4777 29.1911 29.0384C26.5101 28.6983 25.7108 26.8546 25.675 24.4321L23.3306 24.1676L21.9741 35.7751L24.2818 36.0829C24.8871 33.7156 26.1124 32.145 28.7819 32.4835C32.1873 32.9149 32.5767 35.8798 32.1629 39.3548C31.7492 42.8306 30.7545 45.5065 27.2842 45.0672C24.7078 44.7413 23.8673 43.0266 23.7734 40.7451L21.4229 40.4955L20.1008 51.8086L22.3749 52.1125C22.9802 49.7459 24.2047 48.1753 26.875 48.5131C30.2804 48.9437 30.6697 51.9094 30.256 55.3844C29.8422 58.8601 28.8476 61.5361 25.3765 61.0968C22.8001 60.7701 21.9596 59.0562 21.8657 56.7739L19.5496 56.5283L18.7374 63.4822L57.1407 68.2743L58.0461 60.6118L54.0826 60.1914L54.4597 56.3984L58.4804 56.9353L59.9408 44.5815L45.4633 43.0463L45.8686 38.9675L60.3751 40.9041L61.8385 28.5173L57.3674 28.0126L57.756 24.2755L62.2683 24.8785L63.1332 17.5624L24.6459 12.9191ZM50.7016 31.7057C47.9336 31.3554 47.1702 29.4014 47.1832 26.8624L36.4348 25.6485L36.8676 21.4862L47.6473 22.9261C48.2344 20.4446 49.4535 18.7748 52.2001 19.122C55.6055 19.5534 55.9941 22.5183 55.5811 25.9933C55.1674 29.4691 54.1727 32.1458 50.7016 31.7057ZM39.5288 33.9014C42.9342 34.3328 43.3235 37.2977 42.909 40.7735C42.4953 44.2485 41.5013 46.9252 38.0303 46.4859C34.5599 46.0466 34.2363 43.0896 34.65 39.6146C35.0638 36.1396 36.1233 33.47 39.5288 33.9014ZM37.5333 49.9199C40.9387 50.3506 41.3281 53.3162 40.9143 56.7912C40.5006 60.2662 39.5059 62.9429 36.0355 62.5036C32.5652 62.0643 32.2408 59.1073 32.6545 55.6323C33.0683 52.1573 34.1279 49.4877 37.5333 49.9199ZM48.1924 51.3252C51.5978 51.7566 51.9871 54.7215 51.5734 58.1973C51.1596 61.6723 50.1657 64.349 46.6939 63.9097C43.2235 63.4704 42.8999 60.5142 43.3136 57.0384C43.7274 53.5626 44.7877 50.8938 48.1924 51.3252Z" fill="#515DC8"></path> </svg> 