<?xml version="1.0" encoding="UTF-8"?> <svg xmlns="http://www.w3.org/2000/svg" width="640" height="168" viewBox="0 0 640 168" fill="none"> <g clip-path="url(#clip0_118_17)"> <path fill-rule="evenodd" clip-rule="evenodd" d="M640 0L0 0L0 336L640 336V0ZM30.5396 56.7606C24 69.5953 24 86.3968 24 120L24 225C24 258.603 24 275.405 30.5396 288.239C36.292 299.529 45.4708 308.708 56.7606 314.46C69.5953 321 86.3969 321 120 321L520 321C553.603 321 570.405 321 583.239 314.46C594.529 308.708 603.708 299.529 609.46 288.239C616 275.405 616 258.603 616 225V120C616 86.3969 616 69.5953 609.46 56.7606C603.708 45.4708 594.529 36.292 583.239 30.5396C570.405 24 553.603 24 520 24L120 24C86.3969 24 69.5953 24 56.7606 30.5396C45.4708 36.292 36.292 45.4708 30.5396 56.7606Z" fill="white"></path> </g> <defs> <clipPath id="clip0_118_17"> <rect width="640" height="168" fill="white"></rect> </clipPath> </defs> </svg> 