<?xml version="1.0" encoding="UTF-8"?> <svg xmlns="http://www.w3.org/2000/svg" width="71" height="71" viewBox="0 0 71 71" fill="none"> <path fill-rule="evenodd" clip-rule="evenodd" d="M54.0501 61.2868L15.6597 61.3246C15.6597 61.3246 12.7523 58.8368 14.8129 54.4098C16.6209 50.5252 26.4378 24.3176 26.4378 24.3176L26.1414 12.0466L24.13 12.0567L23.6826 5.51595L47.0289 5.32458L46.5191 11.9422L44.3362 11.9536L43.8151 24.5049C43.8151 24.5049 53.8261 50.9295 55.5723 54.6895C57.2906 58.3908 54.0501 61.2868 54.0501 61.2868ZM38.988 24.9126L39.454 11.9793L30.993 12.0224L31.0794 24.9651L19.6286 55.5277L20.3897 56.9218L49.8306 56.9939L50.8809 55.4637L38.988 24.9126ZM28.2551 41.6719C33.4517 43.2533 36.5346 37.5784 41.4773 40.3189L46.2313 53.1659L23.4566 53.9301L28.2551 41.6719Z" fill="#515DC8"></path> </svg> 