<?xml version="1.0" encoding="UTF-8"?> <svg xmlns="http://www.w3.org/2000/svg" width="69" height="69" viewBox="0 0 69 69" fill="none"> <g clip-path="url(#clip0_101:43)"> <path fill-rule="evenodd" clip-rule="evenodd" d="M39.4583 0.890137L49.5503 5.93112L48.2172 8.358H45.1705L43.247 12.6536L36.2635 9.54598L38.6967 6.67791L37.935 3.1305L39.4583 0.890137ZM43.1017 20.639C44.8869 21.8993 46.4138 23.2497 47.716 24.6648L49.9582 23.1788L48.6546 20.2391L51.0807 18.7669L56.703 26.6168L54.8778 27.7669L52.4012 26.2334L50.2214 27.8846C55.881 36.6079 54.1779 46.9459 49.0259 54.1921L49.5419 62.0901H21.777V56.0463L11.6239 52.3131L13.6183 47.5137L23.0462 51.6021L37.0968 51.4225C46.8174 43.1046 44.4924 33.5065 39.5068 28.3326L35.7272 36.4213L10.5674 24.83L14.3372 18.6237L24.5218 23.4307L32.0382 10.1427L44.6047 17.4234L43.1017 20.639ZM22.731 33.6813L31.0182 38.2969L26.7914 46.0573L24.7591 45.3993L23.1101 48.4904L18.7977 46.7077L20.1027 43.8926L18.4165 43.3468L22.731 33.6813ZM13.3551 28.5322L20.4656 32.4265L16.3007 38.9212L14.2234 38.3478L12.6194 41.3549L9.48351 40.2936L10.8215 37.4083L9.10303 36.9334L13.3551 28.5322Z" fill="#515DC8"></path> </g> <defs> <clipPath id="clip0_101:43"> <rect width="68" height="68" fill="white" transform="translate(0.603027 0.890137)"></rect> </clipPath> </defs> </svg> 