<?xml version="1.0" encoding="UTF-8"?> <svg xmlns="http://www.w3.org/2000/svg" width="65" height="65" viewBox="0 0 65 65" fill="none"> <path d="M16.6379 9C12.4265 9 9 12.4262 9 16.6373V43.6617C9 47.8728 12.4265 51.299 16.6379 51.299H28.4734C28.6884 50.4554 29.0071 49.3231 29.4396 47.8062L16.6379 47.7741C14.37 47.7741 12.5252 45.9294 12.5252 43.6617V21.8903H47.7769V28.4972C48.3115 28.2598 48.8606 28.0647 49.4293 27.9625C49.884 27.8814 50.3382 27.8163 50.827 27.8363C50.9868 27.8363 51.1434 27.8486 51.302 27.8592V16.6373C51.302 12.4262 47.8756 9 43.6642 9H16.6379ZM16.6379 12.5249H43.6642C45.932 12.5249 47.7769 14.3696 47.7769 16.6373V18.3654H12.5252V16.6373C12.5252 14.3696 14.37 12.5249 16.6379 12.5249ZM20.163 26.6246C19.3839 26.6246 18.6367 26.9341 18.0858 27.4849C17.5349 28.0358 17.2254 28.783 17.2254 29.562C17.2254 30.3411 17.5349 31.0882 18.0858 31.6391C18.6367 32.19 19.3839 32.4994 20.163 32.4994C20.9422 32.4994 21.6894 32.19 22.2403 31.6391C22.7912 31.0882 23.1007 30.3411 23.1007 29.562C23.1007 28.783 22.7912 28.0358 22.2403 27.4849C21.6894 26.9341 20.9422 26.6246 20.163 26.6246ZM30.151 26.6246C29.3719 26.6246 28.6247 26.9341 28.0738 27.4849C27.5229 28.0358 27.2134 28.783 27.2134 29.562C27.2134 30.3411 27.5229 31.0882 28.0738 31.6391C28.6247 32.19 29.3719 32.4994 30.151 32.4994C30.9301 32.4994 31.6773 32.19 32.2283 31.6391C32.7792 31.0882 33.0887 30.3411 33.0887 29.562C33.0887 28.783 32.7792 28.0358 32.2283 27.4849C31.6773 26.9341 30.9301 26.6246 30.151 26.6246ZM40.139 26.6246C39.3599 26.6246 38.6127 26.9341 38.0618 27.4849C37.5109 28.0358 37.2014 28.783 37.2014 29.562C37.2014 30.3411 37.5109 31.0882 38.0618 31.6391C38.6127 32.19 39.3599 32.4994 40.139 32.4994C40.9181 32.4994 41.6653 32.19 42.2162 31.6391C42.7672 31.0882 43.0767 30.3411 43.0767 29.562C43.0767 28.783 42.7672 28.0358 42.2162 27.4849C41.6653 26.9341 40.9181 26.6246 40.139 26.6246ZM50.7122 30.1495C50.3903 30.1507 50.0647 30.1791 49.7368 30.239C48.6981 30.4258 47.7059 30.9675 46.868 31.8064L33.0038 45.6697C32.5843 46.0891 32.2755 46.6122 32.111 47.1797L30.2658 53.6191C30.1812 53.8424 30.1428 54.0783 30.151 54.3144C30.1663 54.741 30.3339 55.1628 30.6605 55.4894C30.986 55.8149 31.4056 55.9824 31.831 55.9989C32.0672 56.0071 32.3065 55.9699 32.531 55.8841L38.9708 54.0391C39.5384 53.8746 40.058 53.567 40.4787 53.1464L54.3453 39.2831C55.1843 38.4453 55.7259 37.4532 55.9128 36.4145C55.9715 36.0867 55.9988 35.7611 56 35.4392C56.0035 34.0362 55.4626 32.7101 54.4508 31.7008C53.4415 30.6904 52.1152 30.1471 50.7122 30.1495ZM20.163 37.1993C19.3839 37.1993 18.6367 37.5088 18.0858 38.0597C17.5349 38.6106 17.2254 39.3577 17.2254 40.1368C17.2254 40.9158 17.5349 41.663 18.0858 42.2138C18.6367 42.7647 19.3839 43.0742 20.163 43.0742C20.9422 43.0742 21.6894 42.7647 22.2403 42.2138C22.7912 41.663 23.1007 40.9158 23.1007 40.1368C23.1007 39.3577 22.7912 38.6106 22.2403 38.0597C21.6894 37.5088 20.9422 37.1993 20.163 37.1993ZM30.151 37.2338C29.3719 37.2338 28.6247 37.5432 28.0738 38.0941C27.5229 38.645 27.2134 39.3921 27.2134 40.1712C27.2134 40.9502 27.5229 41.6974 28.0738 42.2483C28.6247 42.7991 29.3719 43.1086 30.151 43.1086C30.9301 43.1086 31.6773 42.7991 32.2283 42.2483C32.7792 41.6974 33.0887 40.9502 33.0887 40.1712C33.0887 39.3921 32.7792 38.645 32.2283 38.0941C31.6773 37.5432 30.9301 37.2338 30.151 37.2338Z" fill="#4D4D4D" fill-opacity="0.8"></path> </svg> 