<?xml version="1.0" encoding="UTF-8"?> <svg xmlns="http://www.w3.org/2000/svg" width="65" height="65" viewBox="0 0 65 65" fill="none"> <path d="M21.6663 5.41669C20.2297 5.41669 18.852 5.98737 17.8362 7.00319C16.8204 8.01901 16.2497 9.39676 16.2497 10.8334C16.2497 12.2699 16.8204 13.6477 17.8362 14.6635C18.852 15.6793 20.2297 16.25 21.6663 16.25C23.1029 16.25 24.4807 15.6793 25.4965 14.6635C26.5123 13.6477 27.083 12.2699 27.083 10.8334C27.083 9.39676 26.5123 8.01901 25.4965 7.00319C24.4807 5.98737 23.1029 5.41669 21.6663 5.41669ZM49.4268 16.25C48.8043 16.25 48.188 16.3726 47.613 16.6108C47.038 16.849 46.5155 17.1981 46.0754 17.6382C45.6353 18.0783 45.2861 18.6008 45.048 19.1758C44.8098 19.7509 44.6872 20.3672 44.6872 20.9896C44.6872 21.612 44.8098 22.2283 45.048 22.8034C45.2861 23.3784 45.6353 23.9009 46.0754 24.341C46.5155 24.7811 47.038 25.1302 47.613 25.3684C48.188 25.6066 48.8043 25.7292 49.4268 25.7292C50.0492 25.7292 50.6655 25.6066 51.2405 25.3684C51.8156 25.1302 52.338 24.7811 52.7781 24.341C53.2183 23.9009 53.5674 23.3784 53.8056 22.8034C54.0437 22.2283 54.1663 21.612 54.1663 20.9896C54.1663 20.3672 54.0437 19.7509 53.8056 19.1758C53.5674 18.6008 53.2183 18.0783 52.7781 17.6382C52.338 17.1981 51.8156 16.849 51.2405 16.6108C50.6655 16.3726 50.0492 16.25 49.4268 16.25ZM11.5233 18.9293C11.0549 18.9275 10.6002 19.0876 10.2363 19.3826C9.87241 19.6776 9.62163 20.0892 9.52644 20.5479L6.81811 32.7354C6.76011 32.9959 6.75398 33.2653 6.80008 33.5281C6.84618 33.791 6.9436 34.0422 7.08678 34.2674C7.22997 34.4926 7.41611 34.6874 7.63458 34.8407C7.85305 34.994 8.09957 35.1027 8.36006 35.1607C8.62056 35.2188 8.88993 35.2249 9.15279 35.1788C9.41566 35.1327 9.66687 35.0353 9.89208 34.8921C10.1173 34.7489 10.3121 34.5627 10.4654 34.3443C10.6186 34.1258 10.7274 33.8793 10.7854 33.6188L13.4937 21.4313C13.5647 21.1333 13.5673 20.8232 13.5015 20.524C13.4357 20.2249 13.303 19.9445 13.1135 19.7038C12.924 19.4632 12.6825 19.2685 12.4071 19.1344C12.1318 19.0003 11.8296 18.9301 11.5233 18.9293ZM20.8385 18.9584C18.1911 18.9584 15.9319 20.8729 15.4959 23.4837L12.7717 35.9304C12.383 37.7016 12.1872 39.5087 12.1872 41.3206V43.3334V48.1761L7.07202 56.4862C6.93204 56.7134 6.83818 56.9659 6.79579 57.2293C6.7534 57.4927 6.76331 57.7619 6.82496 58.0215C6.8866 58.2811 6.99878 58.526 7.15507 58.7423C7.31137 58.9585 7.50873 59.1419 7.73588 59.2818C7.96303 59.4218 8.21553 59.5157 8.47895 59.5581C8.74238 59.6005 9.01158 59.5905 9.27117 59.5289C9.53077 59.4673 9.77568 59.3551 9.99193 59.1988C10.2082 59.0425 10.3915 58.8451 10.5315 58.618L15.9482 49.8159C16.1455 49.4954 16.2498 49.1264 16.2497 48.75V43.3334H20.0794L23.7584 58.044C23.8179 58.3082 23.9295 58.5578 24.0868 58.7782C24.2441 58.9986 24.4439 59.1853 24.6743 59.3274C24.9048 59.4695 25.1614 59.564 25.429 59.6055C25.6965 59.647 25.9697 59.6346 26.2324 59.569C26.4951 59.5035 26.742 59.386 26.9587 59.2236C27.1754 59.0612 27.3574 58.8572 27.494 58.6234C27.6307 58.3897 27.7192 58.131 27.7545 57.8625C27.7897 57.5941 27.771 57.3213 27.6993 57.0602L23.6368 40.8128L24.1393 38.3161L21.8938 34.9439C21.4781 34.3223 21.6465 33.4804 22.2694 33.066C22.8847 32.654 23.7092 32.8199 24.1287 33.4231L27.4242 38.3663C27.5701 38.5928 27.7597 38.788 27.9818 38.9406C28.2039 39.0932 28.4541 39.2 28.7179 39.2549C28.9817 39.3098 29.2538 39.3117 29.5183 39.2605C29.7829 39.2092 30.0346 39.1058 30.2588 38.9564C30.483 38.8069 30.6752 38.6143 30.8242 38.3899C30.9733 38.1654 31.0762 37.9135 31.127 37.6489C31.1778 37.3842 31.1754 37.1122 31.12 36.8485C31.0646 36.5848 30.9573 36.3347 30.8043 36.1129L27.083 30.5296V23.6874C27.1522 23.2726 27.1361 22.8715 27.083 22.4787V22.3438C27.0886 21.8358 26.9036 21.3441 26.5646 20.9658C25.8634 19.7797 24.584 18.9584 23.076 18.9584H20.8385ZM38.3051 28.4084C37.8372 28.4072 37.3831 28.5677 37.0198 28.8626C36.6564 29.1575 36.406 29.5689 36.3109 30.0271L33.9014 40.8604C33.7843 41.3865 33.8809 41.9376 34.1701 42.3924C34.4593 42.8473 34.9173 43.1686 35.4434 43.2857C35.9695 43.4029 36.5206 43.3062 36.9754 43.0171C37.4303 42.7279 37.7516 42.2699 37.8687 41.7438L40.2756 30.9105C40.3465 30.6125 40.3492 30.3023 40.2833 30.0032C40.2175 29.704 40.0848 29.4237 39.8953 29.183C39.7058 28.9424 39.4643 28.7477 39.189 28.6136C38.9136 28.4794 38.6114 28.4093 38.3051 28.4084ZM47.8663 28.4375C45.2189 28.4375 42.9571 30.352 42.521 32.9629L41.2065 39.9929C40.895 41.4178 40.715 42.8649 40.6538 44.3199C40.6329 44.4413 40.6232 44.5643 40.6247 44.6875V45.3831V47.3959V50.6861L35.7211 56.2032C35.5361 56.4013 35.3926 56.6344 35.299 56.8887C35.2055 57.1431 35.1638 57.4136 35.1764 57.6844C35.189 57.9551 35.2557 58.2206 35.3724 58.4652C35.4892 58.7098 35.6538 58.9285 35.8564 59.1085C36.059 59.2886 36.2956 59.4262 36.5522 59.5134C36.8088 59.6006 37.0803 59.6355 37.3506 59.6162C37.621 59.5968 37.8847 59.5236 38.1263 59.4008C38.3679 59.2779 38.5825 59.108 38.7574 58.901L44.1741 52.8072C44.5044 52.4356 44.687 51.9556 44.6872 51.4584V47.3959H47.7341L50.8629 58.1207C51.1216 59.0077 51.9307 59.5834 52.8095 59.5834C52.9991 59.5834 53.1912 59.5569 53.3808 59.5014C54.4574 59.1872 55.0769 58.0587 54.7641 56.9808L51.7198 46.5521L52.0028 44.9626L49.358 41.437C48.9084 40.8384 49.0319 39.9889 49.6304 39.5406C50.2262 39.0897 51.0745 39.2145 51.5241 39.813L52.6535 41.3153V41.318L54.5736 43.8755C54.7307 44.0968 54.9305 44.2844 55.1612 44.4272C55.392 44.57 55.649 44.6652 55.9171 44.707C56.1852 44.7489 56.459 44.7366 56.7223 44.6708C56.9856 44.6051 57.233 44.4873 57.45 44.3244C57.667 44.1614 57.8492 43.9567 57.9858 43.7222C58.1223 43.4877 58.2105 43.2282 58.2452 42.9591C58.2798 42.6899 58.2601 42.4166 58.1874 42.1552C58.1146 41.8937 57.9902 41.6495 57.8215 41.437L54.1663 36.5625V33.1771C54.1681 33.0387 54.1557 32.9004 54.1293 32.7645C54.2828 30.4542 52.4736 28.4375 50.1012 28.4375H47.8663Z" fill="#5C5C5C" fill-opacity="0.8"></path> </svg> 