<?xml version="1.0" encoding="UTF-8"?> <svg xmlns="http://www.w3.org/2000/svg" width="122" height="18" viewBox="0 0 122 18" fill="none"> <g clip-path="url(#clip0)"> <path fill-rule="evenodd" clip-rule="evenodd" d="M15.3758 2.29252C15.3758 1.66628 15.5498 1.15057 15.8971 0.744741C16.2451 0.339128 16.7545 0.136322 17.4256 0.136322C18.0972 0.136322 18.6126 0.339128 18.9722 0.744741C19.332 1.15057 19.5117 1.66628 19.5117 2.29252V7.75195C19.5117 9.18899 19.3557 10.4875 19.0441 11.6466C18.7324 12.806 18.2289 13.8665 17.5336 14.8287C16.8385 15.7908 15.8554 16.5386 14.5846 17.0717C13.3139 17.6048 11.8033 17.8713 10.053 17.8713C6.67226 17.8713 4.23277 16.9499 2.73384 15.1069C1.23535 13.2636 0.486328 10.8352 0.486328 7.82153V2.29252C0.486328 1.66628 0.671939 1.15057 1.0436 0.744741C1.4157 0.339128 1.93699 0.136322 2.60835 0.136322C3.30362 0.136322 3.8429 0.339128 4.22663 0.744741C4.61036 1.15057 4.80211 1.66628 4.80211 2.29252V7.99549C4.80211 12.0987 6.5641 14.1503 10.0887 14.1503C13.6134 14.1503 15.3758 12.0756 15.3758 7.92569V2.29252Z" fill="black" fill-opacity="0.15"></path> <path fill-rule="evenodd" clip-rule="evenodd" d="M94.1214 7.83418C94.8983 7.45551 95.2871 6.84603 95.2871 6.00595C95.2871 4.51885 93.7853 3.7753 90.7824 3.7753C90.2365 3.7753 87.3861 3.81645 86.3358 3.89919V8.31977C86.9872 8.37471 89.7532 8.40229 90.5303 8.40229C92.1475 8.40229 93.3445 8.21285 94.1214 7.83418ZM82.1807 2.35353C82.1807 1.31744 82.8084 0.690563 84.0633 0.472483C85.3859 0.236158 88.7756 0.117996 90.8153 0.117996C96.6206 0.117996 99.5232 2.00838 99.5232 5.78893C99.5232 7.07938 99.1424 8.17 98.3799 9.06056C97.6182 9.95113 96.5607 10.6421 95.0341 10.9917L98.7029 14.5268C99.3615 15.251 99.6452 16.4855 98.2042 17.1669C97.0232 17.7254 95.7219 17.3321 94.7708 16.2445L90.4232 11.5413C90.1321 11.5778 86.8754 11.5598 86.2698 11.487V15.7266C86.2698 16.2173 86.091 16.6172 85.7323 16.9261C85.3736 17.235 84.9958 17.3896 84.3681 17.3896C83.7182 17.3896 83.0493 17.235 82.702 16.9261C82.3544 16.6172 82.1807 16.2173 82.1807 15.7266V2.35353Z" fill="black" fill-opacity="0.15"></path> <path fill-rule="evenodd" clip-rule="evenodd" d="M117.011 2.29252C117.011 1.66628 117.185 1.15057 117.532 0.744741C117.88 0.339128 118.389 0.136322 119.06 0.136322C119.732 0.136322 120.247 0.339128 120.607 0.744741C120.967 1.15057 121.146 1.66628 121.146 2.29252V7.75195C121.146 9.18899 120.991 10.4875 120.679 11.6466C120.367 12.806 119.864 13.8665 119.168 14.8287C118.473 15.7908 117.49 16.5386 116.219 17.0717C114.949 17.6048 113.438 17.8713 111.688 17.8713C108.307 17.8713 105.868 16.9499 104.369 15.1069C102.87 13.2636 102.121 10.8352 102.121 7.82153V2.29252C102.121 1.66628 102.307 1.15057 102.678 0.744741C103.05 0.339128 103.572 0.136322 104.243 0.136322C104.938 0.136322 105.478 0.339128 105.861 0.744741C106.245 1.15057 106.437 1.66628 106.437 2.29252V7.99549C106.437 12.0987 108.199 14.1503 111.723 14.1503C115.248 14.1503 117.011 12.0756 117.011 7.92569V2.29252Z" fill="black" fill-opacity="0.15"></path> <path fill-rule="evenodd" clip-rule="evenodd" d="M31.8986 17.8713C28.7041 17.8713 26.2054 17.1063 24.4011 15.5764C22.5967 14.0464 21.6943 11.9019 21.6943 9.14321C21.6943 6.36099 22.6338 4.16449 24.5116 2.55307C26.3901 0.941651 28.9558 0.136154 32.2092 0.136154C34.7235 0.136154 36.6312 0.460517 37.9324 1.10967C39.2041 1.73569 39.574 2.51276 39.0415 3.43982C38.5389 4.27459 37.563 4.62823 36.1136 4.28074C34.6053 3.93304 32.9207 3.64835 31.9154 3.64835C30.1997 3.64835 28.8544 4.13542 27.8779 5.10894C26.9018 6.08266 26.414 7.42721 26.414 9.14321C26.414 10.7659 26.9239 12.041 27.9448 12.9681C28.965 13.8956 30.3035 14.3593 31.9598 14.3593C33.143 14.3593 34.9897 14.0347 36.6457 13.3854C38.0656 12.8523 39.0713 12.9681 39.6626 13.7331C40.3432 14.6141 40.0474 15.4601 38.7756 16.272C37.0599 17.3382 34.7678 17.8713 31.8986 17.8713Z" fill="black" fill-opacity="0.15"></path> <path fill-rule="evenodd" clip-rule="evenodd" d="M66.9144 0.57384C67.3339 0.191563 67.9037 0 68.6226 0C69.342 0 69.9177 0.191563 70.3493 0.57384C70.7806 0.956541 70.9965 1.47225 70.9965 2.12162C70.9965 2.79389 70.7806 3.31512 70.3493 3.68615C69.9177 4.05718 69.342 4.24281 68.6226 4.24281C67.9037 4.24281 67.3339 4.06291 66.9144 3.70355C66.4949 3.34418 66.2852 2.8168 66.2852 2.12162C66.2852 1.47225 66.4949 0.956541 66.9144 0.57384Z" fill="black" fill-opacity="0.15"></path> <path fill-rule="evenodd" clip-rule="evenodd" d="M62.5316 0.710101C62.172 0.327399 61.6687 0.136261 61.0211 0.136261C60.3738 0.136261 59.8763 0.327399 59.5287 0.710101C59.181 1.09238 59.007 1.57394 59.007 2.15329V6.86514H46.8427V2.15329C46.8427 1.57394 46.663 1.09238 46.303 0.710101C45.9436 0.327399 45.4401 0.136261 44.7924 0.136261C44.1452 0.136261 43.6476 0.327399 43.3001 0.710101C42.9523 1.09238 42.7783 1.57394 42.7783 2.15329V15.5067C42.7783 16.0865 42.9523 16.5676 43.3001 16.9499C43.6476 17.3326 44.1452 17.5237 44.7924 17.5237C45.4401 17.5237 45.9436 17.3326 46.303 16.9499C46.663 16.5676 46.8427 16.0865 46.8427 15.5067V10.7948H59.007V15.5067C59.007 16.0865 59.181 16.5676 59.5287 16.9499C59.8763 17.3326 60.3738 17.5237 61.0211 17.5237C61.6687 17.5237 62.172 17.3326 62.5316 16.9499C62.8917 16.5676 63.0714 16.0865 63.0714 15.5067V2.15329C63.0714 1.57394 62.8917 1.09238 62.5316 0.710101Z" fill="black" fill-opacity="0.15"></path> <path fill-rule="evenodd" clip-rule="evenodd" d="M66.6084 8.27693C66.6084 7.69737 66.7824 7.21602 67.1301 6.83374C67.4777 6.45104 67.975 6.2599 68.6225 6.2599C69.2701 6.2599 69.7734 6.45104 70.133 6.83374C70.4928 7.21602 70.6725 7.69737 70.6725 8.27693V15.5067C70.6725 16.0865 70.4928 16.5676 70.133 16.9499C69.7734 17.3326 69.2701 17.5237 68.6225 17.5237C67.975 17.5237 67.4777 17.3326 67.1301 16.9499C66.7824 16.5676 66.6084 16.0865 66.6084 15.5067V8.27693Z" fill="black" fill-opacity="0.15"></path> <path fill-rule="evenodd" clip-rule="evenodd" d="M74.5744 13.4027C75.0182 12.9278 75.6233 12.6897 76.3908 12.6897C77.158 12.6897 77.7695 12.9278 78.225 13.4027C78.6804 13.8782 78.9084 14.452 78.9084 15.1243C78.9084 15.8199 78.6866 16.3933 78.2427 16.8454C77.7996 17.2974 77.182 17.5236 76.3908 17.5236C75.5994 17.5236 74.9882 17.2974 74.5564 16.8454C74.1249 16.3933 73.9092 15.8199 73.9092 15.1243C73.9092 14.452 74.131 13.8782 74.5744 13.4027Z" fill="black" fill-opacity="0.15"></path> </g> <defs> <clipPath id="clip0"> <rect width="121.027" height="18" fill="white" transform="translate(0.486328)"></rect> </clipPath> </defs> </svg> 