<?xml version="1.0" encoding="UTF-8"?> <svg xmlns="http://www.w3.org/2000/svg" width="53" height="53" viewBox="0 0 53 53" fill="none"> <path d="M19.349 7.33847C18.3481 7.33847 17.3881 7.74189 16.6803 8.45997C15.9726 9.17806 15.575 10.152 15.575 11.1675C15.575 12.183 15.9726 13.157 16.6803 13.8751C17.3881 14.5931 18.3481 14.9966 19.349 14.9966C20.3499 14.9966 21.3099 14.5931 22.0176 13.8751C22.7254 13.157 23.123 12.183 23.123 11.1675C23.123 10.152 22.7254 9.17806 22.0176 8.45997C21.3099 7.74189 20.3499 7.33847 19.349 7.33847ZM38.6909 14.9966C38.2572 14.9966 37.8278 15.0832 37.4272 15.2516C37.0265 15.42 36.6625 15.6668 36.3558 15.9779C36.0492 16.289 35.806 16.6583 35.64 17.0648C35.474 17.4713 35.3886 17.907 35.3886 18.347C35.3886 18.787 35.474 19.2226 35.64 19.6291C35.806 20.0356 36.0492 20.405 36.3558 20.7161C36.6625 21.0272 37.0265 21.274 37.4272 21.4423C37.8278 21.6107 38.2572 21.6974 38.6909 21.6974C39.1246 21.6974 39.554 21.6107 39.9546 21.4423C40.3553 21.274 40.7193 21.0272 41.026 20.7161C41.3326 20.405 41.5759 20.0356 41.7418 19.6291C41.9078 19.2226 41.9932 18.787 41.9932 18.347C41.9932 17.907 41.9078 17.4713 41.7418 17.0648C41.5759 16.6583 41.3326 16.289 41.026 15.9779C40.7193 15.6668 40.3553 15.42 39.9546 15.2516C39.554 15.0832 39.1246 14.9966 38.6909 14.9966ZM12.2819 16.8905C11.9555 16.8892 11.6387 17.0024 11.3852 17.211C11.1316 17.4195 10.9569 17.7105 10.8906 18.0347L9.00357 26.6501C8.96316 26.8342 8.95889 27.0246 8.99101 27.2105C9.02313 27.3963 9.09101 27.5739 9.19077 27.7331C9.29053 27.8923 9.42023 28.03 9.57244 28.1383C9.72466 28.2467 9.89642 28.3235 10.0779 28.3645C10.2594 28.4056 10.4471 28.4099 10.6302 28.3773C10.8134 28.3447 10.9884 28.2758 11.1453 28.1746C11.3023 28.0734 11.438 27.9418 11.5448 27.7874C11.6516 27.633 11.7273 27.4587 11.7678 27.2745L13.6548 18.6592C13.7042 18.4486 13.7061 18.2293 13.6602 18.0178C13.6143 17.8064 13.5219 17.6082 13.3898 17.4381C13.2578 17.268 13.0896 17.1303 12.8977 17.0355C12.7058 16.9407 12.4953 16.8911 12.2819 16.8905ZM18.7722 16.9111C16.9276 16.9111 15.3536 18.2644 15.0498 20.11L13.1517 28.9086C12.8809 30.1607 12.7444 31.4381 12.7444 32.719V34.1418V37.5651L9.18048 43.4395C9.08296 43.6001 9.01756 43.7786 8.98802 43.9648C8.95849 44.151 8.96539 44.3413 9.00834 44.5248C9.05129 44.7083 9.12945 44.8815 9.23835 45.0343C9.34725 45.1872 9.48476 45.3168 9.64302 45.4158C9.80129 45.5147 9.97722 45.5811 10.1608 45.611C10.3443 45.641 10.5319 45.634 10.7127 45.5904C10.8936 45.5468 11.0642 45.4675 11.2149 45.357C11.3656 45.2466 11.4933 45.107 11.5909 44.9465L15.3649 38.7243C15.5024 38.4977 15.5751 38.2369 15.575 37.9708V34.1418H18.2433L20.8066 44.5408C20.8481 44.7275 20.9258 44.9039 21.0354 45.0597C21.145 45.2155 21.2842 45.3475 21.4448 45.448C21.6054 45.5484 21.7842 45.6152 21.9706 45.6446C22.157 45.6739 22.3473 45.6651 22.5304 45.6188C22.7134 45.5724 22.8855 45.4894 23.0364 45.3746C23.1874 45.2598 23.3142 45.1156 23.4094 44.9503C23.5046 44.7851 23.5663 44.6022 23.5909 44.4124C23.6154 44.2227 23.6023 44.0298 23.5524 43.8452L20.7219 32.36L21.072 30.595L19.5075 28.2112C19.2178 27.7719 19.3351 27.1767 19.7691 26.8838C20.1979 26.5925 20.7724 26.7098 21.0646 27.1362L23.3607 30.6306C23.4624 30.7907 23.5945 30.9287 23.7492 31.0365C23.904 31.1444 24.0783 31.2199 24.2621 31.2587C24.4459 31.2975 24.6355 31.2989 24.8198 31.2626C25.0041 31.2264 25.1795 31.1533 25.3357 31.0477C25.4919 30.942 25.6259 30.8059 25.7297 30.6472C25.8336 30.4885 25.9053 30.3105 25.9406 30.1234C25.976 29.9363 25.9744 29.744 25.9358 29.5576C25.8972 29.3712 25.8224 29.1944 25.7158 29.0376L23.123 25.0908V20.254C23.1712 19.9608 23.16 19.6772 23.123 19.3996V19.3042C23.1269 18.9451 22.998 18.5976 22.7618 18.3301C22.2733 17.4917 21.3819 16.9111 20.3312 16.9111H18.7722ZM30.942 23.5913C30.6159 23.5905 30.2996 23.7039 30.0464 23.9124C29.7932 24.1209 29.6188 24.4116 29.5525 24.7356L27.8737 32.3936C27.7921 32.7655 27.8595 33.1551 28.0609 33.4766C28.2624 33.7982 28.5815 34.0253 28.9481 34.1081C29.3146 34.1909 29.6986 34.1226 30.0155 33.9182C30.3324 33.7138 30.5563 33.39 30.6379 33.0181L32.3149 25.36C32.3643 25.1494 32.3661 24.9301 32.3203 24.7187C32.2744 24.5072 32.182 24.309 32.0499 24.1389C31.9179 23.9688 31.7496 23.8312 31.5578 23.7363C31.3659 23.6415 31.1554 23.5919 30.942 23.5913ZM37.6037 23.6119C35.7591 23.6119 34.1832 24.9653 33.8794 26.8109L32.9635 31.7804C32.7464 32.7877 32.6211 33.8106 32.5784 34.8391C32.5639 34.925 32.5571 35.012 32.5581 35.099V35.5907V37.0135V39.3394L29.1416 43.2395C29.0127 43.3795 28.9127 43.5443 28.8475 43.7241C28.7823 43.9039 28.7533 44.0951 28.7621 44.2865C28.7708 44.4779 28.8173 44.6656 28.8986 44.8385C28.98 45.0114 29.0946 45.166 29.2358 45.2932C29.377 45.4205 29.5418 45.5178 29.7206 45.5794C29.8994 45.6411 30.0886 45.6658 30.2769 45.6521C30.4653 45.6384 30.649 45.5867 30.8174 45.4998C30.9857 45.413 31.1352 45.2929 31.2571 45.1465L35.0311 40.8389C35.2613 40.5761 35.3885 40.2369 35.3886 39.8853V37.0135H37.5115L39.6915 44.595C39.8717 45.222 40.4355 45.6289 41.0478 45.6289C41.1799 45.6289 41.3138 45.6102 41.4459 45.5709C42.196 45.3489 42.6276 44.5511 42.4097 43.7892L40.2886 36.4171L40.4858 35.2935L38.643 32.8012C38.3298 32.3781 38.4158 31.7775 38.8328 31.4607C39.2479 31.1419 39.839 31.2302 40.1522 31.6533L40.9391 32.7152V32.7171L42.277 34.525C42.3864 34.6815 42.5256 34.8141 42.6864 34.915C42.8471 35.016 43.0262 35.0832 43.213 35.1128C43.3998 35.1424 43.5906 35.1337 43.774 35.0872C43.9575 35.0408 44.1299 34.9575 44.2811 34.8423C44.4323 34.7271 44.5592 34.5824 44.6543 34.4166C44.7495 34.2509 44.811 34.0675 44.8351 33.8772C44.8592 33.6869 44.8455 33.4937 44.7948 33.3089C44.7441 33.1241 44.6575 32.9515 44.5399 32.8012L41.9932 29.3555V26.9623C41.9944 26.8645 41.9858 26.7667 41.9674 26.6706C42.0744 25.0375 40.8138 23.6119 39.1608 23.6119H37.6037Z" fill="#4D4D4D" fill-opacity="0.8"></path> </svg> 