<?xml version="1.0" encoding="UTF-8"?> <svg xmlns="http://www.w3.org/2000/svg" width="36" height="39" viewBox="0 0 36 39" fill="none"> <g clip-path="url(#clip0)"> <path d="M1.50818 8.87801C1.76415 7.61283 2.17411 6.42396 2.74052 5.31407C3.30693 4.20418 4.21117 3.322 5.45322 2.66752C6.79556 1.92431 8.16673 1.58074 9.56672 1.63682C10.9641 1.69277 12.2347 2.0542 13.381 2.72125C14.5247 3.38817 15.4566 4.30046 16.1792 5.46077C16.8991 6.62095 17.2714 7.9511 17.2884 9.44829C17.2878 10.729 16.9636 11.9121 16.3205 13.0029C15.6748 14.0935 14.8347 14.9866 13.7951 15.6818C12.7554 16.377 11.6037 16.8332 10.3348 17.0501C9.06582 17.267 7.82136 17.1554 6.60113 16.7205C4.91401 16.102 3.69141 15.1039 2.93345 13.7236C2.17549 12.3434 1.71117 10.8387 1.54062 9.20683L1.50818 8.87801ZM27.2499 3.26268C27.9166 2.67274 28.5916 2.37994 29.2773 2.3819C29.9604 2.38625 30.5563 2.57891 31.062 2.9648C31.5678 3.35069 31.9134 3.88313 32.104 4.56238C32.2919 5.24403 32.1905 5.9642 31.8024 6.72304C31.6616 6.99738 31.489 7.23713 31.2868 7.44495C31.0847 7.65276 30.8817 7.87829 30.6806 8.11659C30.1356 8.80657 29.6765 9.38426 29.3035 9.84713C28.9278 10.3124 28.5634 10.7605 28.2073 11.1963C27.8513 11.6296 27.4752 12.1025 27.0843 12.6127C26.6908 13.1227 26.1894 13.7692 25.5776 14.5496C23.4326 17.2809 21.3044 19.9876 19.1928 22.6724C17.0813 25.3572 14.9538 28.0488 12.8105 30.7471C12.3673 31.318 11.9322 31.8817 11.5054 32.4357C11.0785 32.9922 10.6288 33.5374 10.1562 34.0763C9.81649 34.4953 9.46041 34.9311 9.08561 35.3787C8.71326 35.8289 8.30373 36.1961 7.85935 36.4854C7.41496 36.7747 6.94255 36.9535 6.44728 37.0221C5.94943 37.0906 5.39296 36.938 4.77541 36.5617C4.00244 36.0861 3.5772 35.542 3.49711 34.9292C3.41702 34.3165 3.52874 33.6983 3.82968 33.0745C4.13063 32.4507 4.5289 31.8471 5.01934 31.2634C5.50978 30.6797 5.92614 30.1784 6.26583 29.7595C6.74155 29.1598 7.21766 28.5526 7.69674 27.9379C8.17323 27.323 8.64934 26.7158 9.12765 26.1162C12.1574 22.2761 15.1596 18.4675 18.1396 14.6882C21.1224 10.9065 24.1582 7.09967 27.2499 3.26268ZM8.24885 6.88041C7.82626 7.04657 7.49327 7.33395 7.24987 7.74255C7.00647 8.15116 6.82387 8.58569 6.70452 9.0488C6.84802 9.99195 7.17673 10.7036 7.69335 11.1813C8.20997 11.6591 8.76155 11.9078 9.35105 11.9201C9.93784 11.9347 10.4846 11.7191 10.9833 11.2779C11.482 10.8366 11.7717 10.1793 11.8472 9.30815C11.8693 8.87306 11.7708 8.46987 11.5516 8.09857C11.3322 7.7298 11.0367 7.43324 10.665 7.21142C10.2932 6.98959 9.89718 6.83755 9.46927 6.75235C9.04627 6.67248 8.64033 6.71521 8.24885 6.88041ZM18.5833 29.9658C18.7946 28.9164 19.111 27.8876 19.5273 26.8792C19.9436 25.8707 20.6481 25.0493 21.6356 24.4123C22.9842 23.5452 24.3853 23.0713 25.839 22.988C27.2925 22.9074 28.6311 23.1531 29.8622 23.7306C31.0907 24.308 32.1049 25.1788 32.905 26.3431C33.705 27.5073 34.1129 28.9002 34.126 30.524C34.1191 31.9286 33.7684 33.1738 33.0763 34.2621C32.3842 35.3503 31.4884 36.2177 30.3893 36.8617C29.29 37.5083 28.0751 37.8826 26.7498 37.9876C25.4219 38.0899 24.1368 37.8621 22.892 37.2991C21.4903 36.6672 20.458 35.694 19.7924 34.3794C19.1268 33.0673 18.7354 31.7057 18.6157 30.2946L18.5833 29.9658ZM24.6175 28.7286C24.3381 29.1835 24.1406 29.6553 24.0197 30.1488C23.8988 30.6423 24.0016 31.1141 24.3304 31.5696C24.5286 32.0489 24.8369 32.3994 25.2551 32.6236C25.6734 32.8478 26.1049 32.9636 26.5497 32.971C26.9945 32.9785 27.4229 32.8506 27.8346 32.5926C28.2465 32.3321 28.5269 31.9583 28.6788 31.4665C28.9046 30.7932 28.9123 30.1849 28.6993 29.6415C28.4887 29.1007 28.1578 28.6857 27.7118 28.3967C27.2657 28.1102 26.7545 27.9827 26.1783 28.0142C25.6073 28.046 25.0853 28.2832 24.6175 28.7286Z" fill="white"></path> </g> <defs> <clipPath id="clip0"> <rect width="33.6842" height="35.7895" fill="white" transform="translate(1.91016 0.986694) rotate(2.91528)"></rect> </clipPath> </defs> </svg> 