<?xml version="1.0" encoding="UTF-8"?> <svg xmlns="http://www.w3.org/2000/svg" width="80" height="80" viewBox="0 0 80 80" fill="none"> <path d="M56.8435 49.6479C64.3466 50.5075 69.5891 47.4542 70.2302 41.858C70.6932 37.8163 68.125 34.9392 63.6588 33.9656L63.6754 33.8205C67.1737 33.5283 70.2313 31.4007 70.6705 27.5662C71.2523 22.4881 66.9076 18.9876 60.3993 18.242C54.5129 17.5677 50.6664 19.9829 49.1526 22.7493C48.8095 23.3609 48.6465 23.8672 48.5729 24.5098C48.3735 26.2508 49.2881 27.6155 51.3608 27.853C53.0396 28.0453 54.0205 27.5487 55.0531 26.0501C56.1693 24.372 57.6577 23.6606 59.7926 23.9052C62.3834 24.202 63.7214 25.7202 63.4792 27.8343C63.2299 30.0106 61.2836 31.2366 58.3611 30.9018L57.6771 30.8234C55.8739 30.6169 54.7993 31.5647 54.626 33.0778C54.4479 34.6323 55.2826 35.7778 57.0859 35.9844L57.8113 36.0675C61.1276 36.4474 62.8387 38.0084 62.5514 40.5163C62.3044 42.6719 60.3047 43.9968 57.6932 43.6976C54.8536 43.3723 53.6322 42.1194 52.7474 40.1282C52.1389 38.8405 51.2656 38.2155 49.8147 38.0493C47.742 37.8118 46.34 38.8692 46.1215 40.776C46.0598 41.3149 46.1129 41.951 46.2951 42.5598C47.1649 45.5993 50.4804 48.9189 56.8435 49.6479Z" fill="black"></path> <path d="M17.6325 40.634C19.8523 41.1275 21.6604 40.0122 22.1585 37.772L27.1529 15.3093C27.7234 12.7433 26.513 10.7858 23.8248 10.1881C22.3585 9.86209 21.0597 9.74427 19.2561 10.4546L12.8542 13.0064C11.6322 13.5041 11.0189 14.2439 10.7789 15.3233C10.4439 16.8303 11.2832 18.1496 12.7291 18.4711C13.4419 18.6296 13.9262 18.5663 14.7024 18.2473L18.9341 16.5167L19.0766 16.5484L14.7252 36.1193C14.2272 38.3594 15.4127 40.1404 17.6325 40.634Z" fill="black"></path> <rect x="7.51953" y="32.8438" width="36.1529" height="5.7516" rx="2.8758" transform="rotate(12.5353 7.51953 32.8438)" fill="black"></rect> <path d="M21.9735 58.951L37.9311 63.8405C39.7862 64.4089 41.2117 63.6019 41.7251 61.9264C42.2507 60.2109 41.5098 58.7838 39.6547 58.2154L29.7011 55.1656L29.7439 55.026L37.07 51.5539C42.903 48.8245 45.4259 47.2846 46.5566 43.5944C48.1151 38.5079 44.8761 33.697 38.3135 31.6862C33.0675 30.0788 28.4614 31.4386 26.1902 34.3648C25.8119 34.8162 25.5732 35.3104 25.402 35.8689C24.852 37.6641 25.6528 39.1096 27.5478 39.6902C29.0239 40.1425 30.0588 39.8268 31.4103 38.6917C33.0543 37.1007 34.632 36.5804 36.5269 37.1611C38.8208 37.8639 39.9643 39.829 39.3287 41.9035C38.7542 43.7785 37.4332 44.8138 33.121 46.8528L22.6169 51.7949C20.8018 52.5916 19.9239 53.3917 19.5022 54.7681C18.946 56.5833 19.6197 58.2298 21.9735 58.951Z" fill="black"></path> <path fill-rule="evenodd" clip-rule="evenodd" d="M39.6545 58.2154C41.5096 58.7838 42.2506 60.2109 41.725 61.9264C41.2116 63.6019 39.786 64.4088 37.931 63.8404L21.9733 58.951C19.6196 58.2298 18.9458 56.5832 19.502 54.768C19.9237 53.3917 20.8017 52.5915 22.6168 51.7949L33.1208 46.8528C37.4331 44.8138 38.754 43.7784 39.3285 41.9034C39.9642 39.8289 38.8207 37.8639 36.5268 37.161C34.6318 36.5804 33.0541 37.1007 31.4102 38.6917C30.0587 39.8268 29.0237 40.1424 27.5476 39.6902C25.6526 39.1095 24.8518 37.6641 25.4019 35.8688C25.573 35.3103 25.8117 34.8161 26.19 34.3648C28.4613 31.4386 33.0673 30.0788 38.3134 31.6862C44.876 33.697 48.1149 38.5079 46.5564 43.5944C45.4257 47.2846 42.9028 48.8245 37.0698 51.5539L29.7437 55.0259L29.7009 55.1656L39.6545 58.2154ZM42.8136 54.2218C44.0365 54.8919 45.1474 55.8855 45.9073 57.2743C47.0205 59.3086 47.0081 61.5118 46.4386 63.3706C45.8678 65.2335 44.6365 67.04 42.6101 68.0964C40.5856 69.1519 38.3875 69.1365 36.4867 68.5541L20.529 63.6646C18.4843 63.0381 16.4789 61.7814 15.3077 59.6106C14.1379 57.4423 14.2278 55.1533 14.7884 53.3238C15.2258 51.8962 15.9759 50.5912 17.1507 49.481C18.215 48.4752 19.4406 47.8096 20.5724 47.3084L26.5036 44.5178C26.3685 44.4823 26.2351 44.4442 26.1033 44.4038C24.2576 43.8383 22.3884 42.667 21.2555 40.642C20.1048 38.5853 20.1014 36.3398 20.6882 34.4246C20.9978 33.4141 21.4924 32.3196 22.3478 31.2751C26.2097 26.367 33.1434 24.9459 39.7577 26.9726C43.8348 28.2218 47.3352 30.4794 49.5442 33.696C51.8192 37.0087 52.4953 41.0399 51.2701 45.0387C50.4033 47.8674 48.8985 50.0105 46.6349 51.801C45.5212 52.682 44.2293 53.4685 42.8136 54.2218Z" fill="white"></path> </svg> 