<?xml version="1.0" encoding="UTF-8"?> <svg xmlns="http://www.w3.org/2000/svg" width="300" height="289" viewBox="0 0 300 289" fill="none"> <g clip-path="url(#clip0)"> <path fill-rule="evenodd" clip-rule="evenodd" d="M149.985 38.2681C149.942 37.5502 149.92 36.8266 149.92 36.0979C149.92 16.574 165.74 0.740723 185.27 0.740723C204.79 0.740723 220.62 16.584 220.62 36.1079C220.62 42.6239 218.856 48.7288 215.781 53.9713C222.246 46.8914 231.55 42.4493 241.889 42.4493C261.409 42.4493 277.239 58.2826 277.239 77.8065C277.239 91.9075 268.987 104.083 257.045 109.759C259.266 109.322 261.561 109.093 263.909 109.093C283.429 109.093 299.259 124.926 299.259 144.45C299.259 163.974 283.429 179.807 263.909 179.807C261.563 179.807 259.27 179.579 257.051 179.143C268.987 184.819 277.239 196.988 277.239 211.092C277.239 230.616 261.419 246.449 241.889 246.449C231.554 246.449 222.253 242.011 215.789 234.935C218.859 240.175 220.62 246.277 220.62 252.791C220.62 272.315 204.79 288.148 185.27 288.148C165.842 288.148 150.086 272.481 149.921 253.098C149.92 253.186 149.92 253.274 149.92 253.362C149.92 253.056 149.916 252.751 149.908 252.447C149.91 252.562 149.91 252.676 149.91 252.791C149.91 272.315 134.09 288.148 114.56 288.148C95.0401 288.148 79.2101 272.315 79.2101 252.791C79.2101 246.275 80.9733 240.17 84.0484 234.927C77.5836 242.007 68.2797 246.449 57.9404 246.449C38.4104 246.449 22.5904 230.616 22.5904 211.092C22.5904 197.038 30.7928 184.897 42.6696 179.196C40.5382 179.597 38.339 179.807 36.0907 179.807C16.5707 179.807 0.740723 163.964 0.740723 144.44C0.740723 124.916 16.5707 109.083 36.0907 109.093C38.3412 109.093 40.5427 109.303 42.6765 109.706C30.7928 104.005 22.5904 91.8548 22.5904 77.7964C22.5904 58.2724 38.4204 42.4392 57.9404 42.4392C67.778 42.4392 76.6783 46.4632 83.0875 52.9544C80.6088 48.1207 79.2101 42.6423 79.2101 36.8387C79.2101 17.3147 95.0401 1.48149 114.56 1.48149C134.09 1.48149 149.91 17.3247 149.91 36.8487C149.91 38.2469 149.829 39.6261 149.671 40.9819C149.81 40.0879 149.915 39.1828 149.985 38.2681Z" fill="#F08860"></path> <g clip-path="url(#clip1)"> <path d="M68.8743 164.453L67.8558 162.737C67.5793 164.439 66.6452 166.173 64.5281 167.429C61.889 168.995 58.6619 168.869 56.9686 166.016C55.1352 162.926 56.6599 160.019 59.9141 158.088C61.602 157.087 62.8292 156.678 64.1129 156.38L63.9559 156.116C62.81 154.185 60.9703 153.855 58.7531 155.17C57.194 156.095 56.2319 157.13 55.28 158.411L52.8881 156.368C54.0112 154.773 55.236 153.399 57.5104 152.049C61.6301 149.605 64.9257 150.579 67.1368 154.306L72.0427 162.573L68.8743 164.453ZM65.49 158.571C64.4807 158.744 63.2064 159.171 61.9619 159.91C59.9522 161.102 59.2487 162.622 60.0805 164.024C60.8656 165.347 62.49 165.379 63.9991 164.484C66.1162 163.228 66.9923 161.102 65.9568 159.357L65.49 158.571Z" fill="white"></path> <path d="M67.5792 146.365L70.7762 144.468L74.1331 150.125L80.2911 146.471L76.9342 140.814L80.1241 138.921L88.3997 152.868L85.2027 154.765L81.8627 149.136L75.7047 152.79L79.0446 158.419L75.8476 160.316L67.572 146.369L67.5792 146.365Z" fill="white"></path> <path d="M84.1438 136.536L94.0281 130.671L95.6578 133.417L88.9705 137.385L95.6164 148.585L92.4194 150.482L84.1438 136.536Z" fill="white"></path> <path d="M102.044 144.733L100.726 141.975C100.971 141.898 101.505 141.658 101.713 141.535C103.322 140.58 103.967 139.124 97.6644 128.503L108.207 122.248L116.482 136.195L113.285 138.092L106.644 126.899L102.281 129.487C108.286 139.608 107.118 141.974 104.028 143.807C103.527 144.104 102.57 144.527 102.044 144.733Z" fill="white"></path> <path d="M112.23 119.87L115.349 118.02L120.9 127.375C121.245 122.953 121.583 118.536 121.957 114.098L124.968 112.311L133.244 126.258L130.154 128.092L124.637 118.794L123.524 132.026L120.513 133.812L112.237 119.866L112.23 119.87Z" fill="white"></path> <path d="M128.981 109.931L132.099 108.08L137.65 117.436C137.995 113.014 138.334 108.597 138.708 104.159L141.719 102.372L149.994 116.319L146.905 118.153L141.388 108.855L140.275 122.087L137.263 123.873L128.988 109.927L128.981 109.931ZM128.09 103.313L129.822 101.782C130.823 102.687 131.889 102.983 133.083 102.275C134.27 101.57 134.528 100.489 134.214 99.1765L136.365 98.4026C137.355 100.852 136.669 103.184 134.423 104.516C132.17 105.853 129.766 105.355 128.09 103.313Z" fill="white"></path> <path d="M149.15 107.498L149.121 107.448C146.769 103.485 147.86 98.3317 152.03 95.8575C154.669 94.2915 156.888 94.2995 159.027 94.9547L158.315 98.2687C156.724 97.8202 155.27 97.7161 153.661 98.671C151.336 100.05 150.834 103.066 152.276 105.498L152.306 105.548C153.779 108.029 156.688 109.021 159.148 107.561C160.657 106.665 161.341 105.292 161.732 103.668L164.792 104.425C164.327 106.77 163.362 108.812 160.637 110.429C156.489 112.891 151.501 111.46 149.15 107.498Z" fill="white"></path> <path d="M160.687 91.1177L163.855 89.2376L167.823 95.9249L169.934 85.6303L173.689 83.4023L171.755 92.4797L182.415 97.0816L178.639 99.3224L170.996 96.0731L170.147 99.8258L172.138 103.18L168.969 105.06L160.694 91.1134L160.687 91.1177Z" fill="white"></path> <path d="M176.357 81.8193L179.475 79.969L185.026 89.324C185.372 84.9028 185.71 80.4858 186.084 76.0476L189.095 74.261L197.371 88.2077L194.281 90.0411L188.764 80.7432L187.651 93.9751L184.64 95.7618L176.364 81.8151L176.357 81.8193Z" fill="white"></path> <path d="M193.107 71.88L196.225 70.0297L201.776 79.3847C202.122 74.9635 202.46 70.5465 202.834 66.1083L205.845 64.3216L214.121 78.2684L211.031 80.1017L205.514 70.8039L204.401 84.0358L201.39 85.8225L193.114 71.8758L193.107 71.88ZM192.216 65.262L193.948 63.7315C194.949 64.6364 196.015 64.9325 197.209 64.2238C198.397 63.5193 198.654 62.438 198.34 61.1257L200.492 60.3518C201.481 62.8013 200.795 65.1328 198.549 66.4653C196.296 67.8022 193.892 67.3041 192.216 65.262Z" fill="white"></path> <path d="M56.1285 191.376L59.2469 189.526L64.7936 198.874C65.139 194.453 65.4772 190.036 65.8512 185.597L68.8623 183.811L77.1379 197.757L74.0481 199.591L68.5311 190.293L67.4181 203.525L64.3999 205.316L56.1285 191.376Z" fill="white"></path> <path d="M80.8037 176.735L83.9721 174.855L92.1757 178.739L92.7192 169.665L95.8876 167.784L104.163 181.731L100.938 183.645L95.4205 174.347L94.7497 183.207L86.7103 179.584L92.1977 188.831L89.0793 190.682L80.8037 176.735Z" fill="white"></path> <path d="M116.715 174.283L115.697 172.567C115.42 174.268 114.486 176.002 112.369 177.259C109.73 178.825 106.503 178.699 104.81 175.845C102.976 172.756 104.501 169.849 107.755 167.918C109.443 166.917 110.67 166.508 111.954 166.21L111.797 165.945C110.651 164.014 108.811 163.684 106.594 165C105.035 165.925 104.073 166.96 103.121 168.241L100.729 166.198C101.852 164.603 103.077 163.229 105.351 161.879C109.471 159.435 112.767 160.409 114.978 164.135L119.884 172.403L116.715 174.283ZM113.338 168.396C112.329 168.57 111.055 168.997 109.81 169.735C107.8 170.928 107.097 172.448 107.929 173.85C108.714 175.173 110.338 175.205 111.847 174.309C113.964 173.053 114.841 170.928 113.805 169.183L113.338 168.396Z" fill="white"></path> <path d="M120.032 157.171L115.541 159.837L113.911 157.09L126.12 149.846L127.75 152.592L123.258 155.257L129.904 166.458L126.678 168.372L120.032 157.171Z" fill="white"></path> <path d="M131.502 156.081C129.134 152.09 130.016 147.138 134.006 144.77C138.448 142.134 142.765 144.292 145.146 148.304C145.269 148.512 145.554 149.058 145.63 149.235L135.381 155.317C137.074 157.387 139.434 157.698 141.501 156.472C143.061 155.547 143.825 154.309 144.289 152.565L147.152 153.119C146.771 155.492 145.558 157.604 142.997 159.123C138.945 161.518 134.087 160.436 131.502 156.081ZM141.249 148.973C139.812 147.04 137.641 146.152 135.531 147.404C133.579 148.563 133.094 150.891 134.089 153.221L141.249 148.973Z" fill="white"></path> <path d="M144.086 139.185L147.254 137.305L155.458 141.189L156.001 132.115L159.17 130.235L167.445 144.181L164.22 146.095L158.703 136.798L158.032 145.657L149.993 142.034L155.48 151.281L152.362 153.132L144.086 139.185Z" fill="white"></path> <path d="M179.998 136.733L178.979 135.017C178.703 136.718 177.768 138.452 175.651 139.709C173.012 141.275 169.785 141.149 168.092 138.295C166.259 135.206 167.783 132.299 171.037 130.368C172.725 129.367 173.952 128.958 175.236 128.66L175.079 128.395C173.933 126.464 172.094 126.134 169.876 127.45C168.317 128.375 167.355 129.41 166.403 130.691L164.011 128.648C165.135 127.053 166.359 125.679 168.634 124.329C172.753 121.884 176.049 122.859 178.26 126.585L183.166 134.853L179.998 136.733ZM176.613 130.85C175.604 131.024 174.33 131.451 173.085 132.19C171.075 133.382 170.372 134.902 171.204 136.304C171.989 137.627 173.613 137.659 175.122 136.764C177.239 135.507 178.116 133.382 177.08 131.637L176.613 130.85Z" fill="white"></path> <path d="M183.315 119.621L178.823 122.286L177.193 119.54L189.402 112.296L191.032 115.042L186.54 117.707L193.186 128.908L189.961 130.822L183.315 119.621Z" fill="white"></path> <path d="M191.934 110.793L195.053 108.943L200.599 118.291C200.945 113.87 201.283 109.453 201.657 105.014L204.668 103.228L212.944 117.174L209.854 119.008L204.337 109.71L203.224 122.942L200.213 124.729L191.941 110.789L191.934 110.793Z" fill="white"></path> <path d="M208.685 100.854L211.853 98.9742L215.821 105.661L217.932 95.3669L221.687 93.1389L219.753 102.216L230.413 106.818L226.637 109.059L218.994 105.81L218.145 109.562L220.136 112.917L216.967 114.797L208.692 100.85L208.685 100.854Z" fill="white"></path> <path d="M240.634 100.754L239.615 99.037C239.339 100.739 238.405 102.473 236.288 103.729C233.649 105.295 230.421 105.169 228.728 102.316C226.895 99.2259 228.419 96.3194 231.674 94.3884C233.362 93.3869 234.589 92.9778 235.872 92.6803L235.715 92.4157C234.57 90.4846 232.73 90.1547 230.513 91.4703C228.953 92.3955 227.991 93.4305 227.039 94.7109L224.648 92.6682C225.771 91.0734 226.996 89.6988 229.27 88.3492C233.39 85.9047 236.685 86.8793 238.896 90.6056L243.802 98.8735L240.634 100.754ZM237.257 94.8664C236.247 95.0398 234.973 95.4671 233.729 96.2056C231.719 97.3981 231.015 98.918 231.847 100.32C232.632 101.643 234.257 101.675 235.766 100.78C237.883 99.5235 238.759 97.3983 237.723 95.6532L237.257 94.8664Z" fill="white"></path> <path d="M97.5396 205.021L104.699 200.773C107.474 199.127 110.096 199.389 111.369 201.535C112.421 203.309 111.893 204.831 111.02 206.064C112.992 205.542 114.798 205.863 115.973 207.844C117.37 210.197 116.233 212.796 113.065 214.676L105.819 218.975L97.5396 205.021ZM107.371 206.972C108.716 206.174 109.035 205.018 108.441 204.016C107.907 203.115 106.891 202.789 105.468 203.634L102.135 205.612L104.096 208.916L107.371 206.972ZM111.075 212.414C112.634 211.489 113.025 210.29 112.384 209.21C111.79 208.209 110.567 208.006 108.843 209.029L105.382 211.083L107.453 214.573L111.079 212.422L111.075 212.414Z" fill="white"></path> <path d="M121.056 191.068L124.253 189.171L125.632 191.495C125.801 189.432 126.561 187.405 128.807 186.072C132.111 184.111 136.861 184.832 139.637 189.51C142.378 194.13 140.763 198.628 137.43 200.605C135.134 201.968 132.988 201.675 131.243 200.95L135.037 207.344L131.84 209.241L121.056 191.068ZM136.349 191.383C134.749 188.687 131.877 188.003 129.709 189.289C127.542 190.574 126.705 193.499 128.322 196.224C129.922 198.92 132.873 199.558 135.04 198.272C137.236 196.969 138.012 194.187 136.349 191.383Z" fill="white"></path> <path d="M155.566 189.448L154.547 187.731C154.271 189.433 153.337 191.167 151.22 192.423C148.581 193.989 145.354 193.863 143.66 191.01C141.827 187.92 143.352 185.013 146.606 183.083C148.294 182.081 149.521 181.672 150.805 181.374L150.648 181.11C149.502 179.179 147.662 178.849 145.445 180.164C143.886 181.09 142.924 182.125 141.972 183.405L139.58 181.362C140.703 179.768 141.928 178.393 144.202 177.043C148.322 174.599 151.617 175.573 153.828 179.3L158.734 187.568L155.566 189.448ZM152.182 183.565C151.172 183.738 149.898 184.165 148.654 184.904C146.644 186.096 145.94 187.616 146.772 189.018C147.557 190.341 149.182 190.373 150.691 189.478C152.808 188.222 153.684 186.097 152.648 184.352L152.182 183.565Z" fill="white"></path> <path d="M159.3 183.518L160.809 182.623C160.589 179.611 159.063 176.126 156.741 172.214L155.723 170.497L166.53 164.085L173.175 175.285L175.157 174.11L178.355 180.461L175.687 182.044L173.697 178.689L163.919 184.491L165.595 188.032L162.927 189.615L159.307 183.514L159.3 183.518ZM169.971 177.187L164.955 168.733L160.356 171.461L161.455 173.314C162.962 175.853 163.875 178.483 164.082 180.691L169.976 177.194L169.971 177.187Z" fill="white"></path> <path d="M174.564 168.775C172.196 164.784 173.403 159.6 177.687 157.058C181.972 154.516 187.038 155.9 189.44 159.948C191.791 163.91 190.584 169.095 186.278 171.649C182.015 174.179 176.949 172.795 174.564 168.775ZM186.236 161.849C184.776 159.389 181.797 158.41 179.294 159.895C176.733 161.415 176.288 164.396 177.761 166.878C179.204 169.31 182.2 170.317 184.681 168.845C187.263 167.313 187.696 164.31 186.236 161.849Z" fill="white"></path> <path d="M191.956 158.533L191.926 158.482C189.575 154.52 190.666 149.367 194.836 146.892C197.475 145.326 199.694 145.334 201.833 145.99L201.121 149.304C199.53 148.855 198.076 148.751 196.466 149.706C194.142 151.085 193.639 154.101 195.082 156.532L195.112 156.583C196.585 159.064 199.494 160.056 201.954 158.596C203.463 157.7 204.147 156.327 204.538 154.703L207.598 155.46C207.133 157.805 206.168 159.847 203.443 161.464C199.295 163.926 194.307 162.495 191.956 158.533Z" fill="white"></path> <path d="M208.104 143.129L203.613 145.794L201.983 143.048L214.192 135.804L215.821 138.55L211.33 141.215L217.976 152.415L214.75 154.329L208.104 143.129Z" fill="white"></path> <path d="M216.731 134.297L219.928 132.4L222.826 137.285L226.023 135.388C229.17 133.521 232.388 133.468 234.192 136.508C235.902 139.39 234.919 142.362 231.644 144.306L225.013 148.24L216.738 134.293L216.731 134.297ZM229.678 141.971C231.287 141.016 231.793 139.749 230.995 138.405C230.256 137.16 228.898 137.038 227.26 138.01L224.299 139.767L226.667 143.758L229.678 141.971Z" fill="white"></path> </g> </g> <defs> <clipPath id="clip0"> <rect width="300" height="288.889" fill="white"></rect> </clipPath> <clipPath id="clip1"> <rect width="208.611" height="93.4442" fill="white" transform="translate(36 157.454) rotate(-30.6837)"></rect> </clipPath> </defs> </svg> 