<?xml version="1.0" encoding="UTF-8"?> <svg xmlns="http://www.w3.org/2000/svg" width="300" height="294" viewBox="0 0 300 294" fill="none"> <g clip-path="url(#clip0)"> <path d="M122.67 293.494C137.77 293.494 150 281.268 150 266.195C150 251.112 137.76 238.896 122.67 238.896C107.58 238.896 95.3301 251.112 95.3301 266.195C95.3301 281.268 107.57 293.494 122.67 293.494Z" fill="#3275B9"></path> <path d="M177.33 293.494C192.42 293.494 204.66 281.268 204.66 266.195C204.66 251.112 192.42 238.896 177.33 238.896C162.23 238.896 150 251.122 150 266.195C150 281.268 162.24 293.494 177.33 293.494Z" fill="#3275B9"></path> <path d="M226.5 269.861C241.6 269.861 253.83 257.635 253.83 242.562C253.83 227.479 241.59 215.263 226.5 215.263C211.4 215.263 199.17 227.489 199.17 242.562C199.17 257.635 211.4 269.861 226.5 269.861Z" fill="#3275B9"></path> <path d="M260.5 227.24C275.6 227.24 287.83 215.014 287.83 199.941C287.83 184.858 275.59 172.642 260.5 172.642C245.4 172.642 233.17 184.868 233.17 199.941C233.17 215.014 245.4 227.24 260.5 227.24Z" fill="#3275B9"></path> <path d="M272.67 173.971C287.77 173.971 300 161.745 300 146.672C300 131.589 287.76 119.373 272.67 119.373C257.57 119.373 245.34 131.599 245.34 146.672C245.33 161.745 257.57 173.971 272.67 173.971Z" fill="#3275B9"></path> <path d="M260.5 120.862C275.6 120.862 287.83 108.636 287.83 93.5629C287.83 78.4802 275.59 66.2642 260.5 66.2642C245.4 66.2642 233.17 78.4902 233.17 93.5629C233.17 108.636 245.4 120.862 260.5 120.862Z" fill="#3275B9"></path> <path d="M226.5 78.2403C241.6 78.2403 253.83 66.0143 253.83 50.9416C253.83 35.8688 241.6 23.6428 226.5 23.6428C211.4 23.6428 199.17 35.8688 199.17 50.9416C199.17 66.0143 211.4 78.2403 226.5 78.2403Z" fill="#3275B9"></path> <path d="M177.33 54.6075C192.42 54.6075 204.66 42.3815 204.66 27.3088C204.66 12.226 192.42 0.0100159 177.33 0.0100159C162.24 2.73177e-05 150 12.226 150 27.2988C150 42.3815 162.24 54.6075 177.33 54.6075Z" fill="#3275B9"></path> <path d="M122.67 54.6075C137.77 54.6075 150 42.3815 150 27.3087C150 12.226 137.76 0 122.67 0C107.58 0 95.3301 12.226 95.3301 27.2987C95.3301 42.3815 107.57 54.6075 122.67 54.6075Z" fill="#3275B9"></path> <path d="M73.4999 78.2403C88.5999 78.2403 100.83 66.0143 100.83 50.9416C100.83 35.8688 88.5999 23.6428 73.4999 23.6428C58.3999 23.6428 46.1699 35.8588 46.1699 50.9416C46.1699 66.0243 58.3999 78.2403 73.4999 78.2403Z" fill="#3275B9"></path> <path d="M39.4999 120.862C54.5999 120.862 66.8299 108.636 66.8299 93.5629C66.8299 78.4802 54.5899 66.2642 39.4999 66.2642C24.4099 66.2642 12.1699 78.4802 12.1699 93.5629C12.1699 108.636 24.3999 120.862 39.4999 120.862Z" fill="#3275B9"></path> <path d="M27.33 173.971C42.43 173.971 54.66 161.745 54.66 146.672C54.66 131.589 42.42 119.373 27.33 119.373C12.24 119.363 0 131.589 0 146.662C0 161.745 12.24 173.971 27.33 173.971Z" fill="#3275B9"></path> <path d="M39.4999 227.24C54.5999 227.24 66.8299 215.014 66.8299 199.941C66.8299 184.858 54.5899 172.642 39.4999 172.642C24.4099 172.642 12.1699 184.868 12.1699 199.941C12.1699 215.014 24.3999 227.24 39.4999 227.24Z" fill="#3275B9"></path> <path d="M73.4999 269.861C88.5999 269.861 100.83 257.635 100.83 242.562C100.83 227.479 88.5899 215.263 73.4999 215.263C58.4099 215.263 46.1699 227.489 46.1699 242.562C46.1699 257.635 58.3999 269.861 73.4999 269.861Z" fill="#3275B9"></path> <path d="M149.79 265.986C215.88 265.986 269.46 212.467 269.46 146.453C269.46 80.4382 215.88 26.9294 149.79 26.9294C83.6999 26.9294 30.1299 80.4382 30.1299 146.453C30.1299 212.467 83.6999 265.986 149.79 265.986Z" fill="#F7CE54"></path> <path d="M117.07 63.7067L117.58 62.4382C119.2 63.1474 120.58 63.3172 122.24 62.7578C123.84 62.2184 124.62 61.0198 124.22 59.8112C123.85 58.7025 123.04 58.273 120.36 58.5826C117.41 58.9022 115.85 58.4328 115.19 56.4351C114.56 54.5572 115.76 52.6294 118.03 51.8703C119.77 51.2909 121.18 51.3709 122.72 51.9402L122.28 53.2387C120.87 52.6993 119.63 52.6794 118.4 53.0889C116.85 53.6083 116.14 54.7869 116.51 55.8957C116.89 57.0244 117.71 57.4439 120.53 57.1343C123.39 56.8246 124.94 57.394 125.56 59.2518C126.24 61.2995 124.98 63.1973 122.61 63.9864C120.69 64.6257 118.93 64.5058 117.07 63.7067Z" fill="black"></path> <path d="M129.41 56.3053L128.21 49.0835L129.61 48.8538L130.79 55.9856C131.23 58.6626 132.91 59.9411 135.29 59.5416C137.58 59.162 138.81 57.5339 138.36 54.827L137.16 47.6052L138.56 47.3755L139.74 54.4874C140.34 58.1032 138.57 60.3307 135.47 60.8501C132.4 61.3495 129.99 59.8212 129.41 56.3053Z" fill="black"></path> <path d="M145.19 46.8062L146.52 46.8261L154.29 57.0344L154.45 46.956L155.84 46.976L155.64 59.5515L154.51 59.5316L146.54 49.0835L146.37 59.4017L144.98 59.3817L145.19 46.8062Z" fill="black"></path> <path d="M162.49 47.5454L163.8 47.7851L169.81 59.1321L171.62 49.2035L172.98 49.4532L170.73 61.839L169.61 61.6393L163.45 50.0326L161.6 60.1909L160.23 59.9312L162.49 47.5454Z" fill="black"></path> <path d="M180.57 59.7513L178.25 50.8115L179.87 51.4008L181.71 58.7624L187.89 54.3075L189.45 54.8769L181.93 60.2207L180.22 64.9154L178.87 64.4259L180.57 59.7513Z" fill="black"></path> <path d="M194.34 69.4203L195.65 69.0307C196.1 70.7388 196.83 71.9274 198.29 72.8763C199.71 73.7953 201.13 73.6554 201.83 72.5867C202.47 71.6078 202.31 70.7088 200.4 68.791C198.32 66.6834 197.71 65.1751 198.86 63.4072C199.94 61.7491 202.2 61.4894 204.21 62.7879C205.75 63.7867 206.56 64.9454 207.07 66.5036L205.78 66.9731C205.32 65.5347 204.57 64.5459 203.48 63.8467C202.11 62.9477 200.74 63.1375 200.1 64.1164C199.45 65.1152 199.63 66.0242 201.63 68.0319C203.65 70.0795 204.17 71.6477 203.1 73.2859C201.92 75.0938 199.64 75.2836 197.55 73.9151C195.88 72.8264 194.87 71.378 194.34 69.4203Z" fill="black"></path> <path d="M207.82 74.4941L212.73 69.0703L213.79 70.0192L208.94 75.3831C207.12 77.4008 207.16 79.4984 208.95 81.1065C210.67 82.6647 212.71 82.6148 214.55 80.5672L219.46 75.1434L220.51 76.0923L215.67 81.4362C213.21 84.153 210.37 84.163 208.03 82.0554C205.73 79.9678 205.43 77.1311 207.82 74.4941Z" fill="black"></path> <path d="M224.99 80.877L225.81 81.9257L222.76 94.3915L230.7 88.1686L231.55 89.2574L221.64 97.0285L220.94 96.1395L224.05 83.3741L215.92 89.7468L215.06 88.6581L224.99 80.877Z" fill="black"></path> <path d="M235.27 94.9211L235.9 96.0998L230.73 107.846L239.64 103.092L240.29 104.31L229.17 110.244L228.64 109.245L233.92 97.2085L224.8 102.073L224.15 100.854L235.27 94.9211Z" fill="black"></path> <path d="M236.92 116.646L242.49 109.274L243.04 110.913L238.41 116.926L245.74 118.993L246.26 120.561L237.4 117.994L232.65 119.573L232.19 118.204L236.92 116.646Z" fill="black"></path> <path d="M237.89 133.437L239.01 134.216C237.95 135.635 237.47 136.943 237.63 138.681C237.78 140.369 238.78 141.388 240.06 141.278C241.23 141.168 241.83 140.479 242.14 137.802C242.5 134.866 243.31 133.447 245.41 133.257C247.38 133.078 248.99 134.676 249.21 137.063C249.38 138.891 248.98 140.239 248.07 141.608L246.9 140.889C247.74 139.64 248.05 138.431 247.93 137.143C247.78 135.515 246.79 134.556 245.62 134.666C244.44 134.776 243.83 135.485 243.49 138.292C243.14 141.138 242.23 142.527 240.28 142.707C238.13 142.906 236.57 141.238 236.34 138.751C236.17 136.753 236.69 135.065 237.89 133.437Z" fill="black"></path> <path d="M242.29 147.111L249.6 147.571L249.51 148.989L242.29 148.54C239.58 148.37 237.96 149.708 237.81 152.116C237.66 154.433 238.97 155.991 241.72 156.161L249.03 156.621L248.94 158.039L241.74 157.589C238.08 157.36 236.3 155.142 236.5 152.006C236.7 148.879 238.74 146.882 242.29 147.111Z" fill="black"></path> <path d="M247.98 164.501L247.67 165.79L236.01 171.154L245.83 173.501L245.51 174.849L233.26 171.923L233.52 170.824L245.46 165.32L235.41 162.923L235.73 161.575L247.98 164.501Z" fill="black"></path> <path d="M243.34 181.312L242.81 182.531L230.39 185.767L239.64 189.793L239.09 191.061L227.54 186.037L227.99 184.998L240.71 181.672L231.24 177.557L231.79 176.288L243.34 181.312Z" fill="black"></path> <path d="M227.32 196.095L236.56 195.876L235.62 197.324L228.02 197.434L230.95 204.456L230.04 205.844L226.54 197.314L222.35 194.577L223.14 193.368L227.32 196.095Z" fill="black"></path> <path d="M214.76 207.292L214.84 208.651C213.07 208.701 211.75 209.14 210.49 210.349C209.27 211.518 209.08 212.936 209.97 213.855C210.78 214.704 211.7 214.744 213.99 213.316C216.52 211.767 218.13 211.528 219.59 213.046C220.96 214.474 220.71 216.732 218.98 218.39C217.65 219.658 216.34 220.188 214.71 220.338L214.55 218.969C216.05 218.849 217.19 218.34 218.12 217.441C219.3 216.312 219.43 214.944 218.63 214.095C217.81 213.236 216.88 213.206 214.47 214.694C212.02 216.192 210.37 216.352 209.02 214.934C207.53 213.376 207.85 211.118 209.66 209.39C211.09 208.012 212.73 207.362 214.76 207.292Z" fill="black"></path> <path d="M206.77 219.249L210.96 225.252L209.79 226.061L205.66 220.128C204.11 217.9 202.05 217.471 200.07 218.839C198.16 220.168 197.76 222.155 199.33 224.413L203.52 230.416L202.35 231.225L198.23 225.312C196.13 222.305 196.77 219.538 199.35 217.74C201.91 215.982 204.74 216.332 206.77 219.249Z" fill="black"></path> <path d="M196.65 234.521L195.44 235.081L183.98 229.287L188.24 238.427L186.98 239.006L181.66 227.599L182.69 227.12L194.42 233.043L190.06 223.694L191.32 223.114L196.65 234.521Z" fill="black"></path> <path d="M180.59 241.324L179.3 241.663L169.03 233.952L171.62 243.701L170.28 244.06L167.04 231.894L168.14 231.605L178.66 239.496L176.01 229.517L177.35 229.157L180.59 241.324Z" fill="black"></path> <path d="M159.04 237.967L164.95 245.059L163.23 245.219L158.42 239.336L154.73 245.998L153.08 246.148L157.6 238.117L157.14 233.143L158.57 233.013L159.04 237.967Z" fill="black"></path> <path d="M142.47 235.111L141.46 236.03C140.32 234.681 139.15 233.922 137.42 233.682C135.74 233.452 134.52 234.192 134.34 235.46C134.18 236.619 134.72 237.358 137.26 238.267C140.05 239.276 141.24 240.385 140.96 242.472C140.69 244.43 138.77 245.639 136.39 245.319C134.57 245.069 133.34 244.38 132.21 243.191L133.18 242.212C134.21 243.311 135.31 243.881 136.6 244.06C138.22 244.28 139.38 243.531 139.54 242.372C139.7 241.194 139.15 240.454 136.48 239.486C133.78 238.497 132.63 237.308 132.9 235.37C133.19 233.233 135.16 232.084 137.64 232.424C139.62 232.683 141.15 233.572 142.47 235.111Z" fill="black"></path> <path d="M128.12 236.299L126 243.301L124.64 242.892L126.73 235.97C127.52 233.373 126.58 231.495 124.27 230.796C122.05 230.126 120.23 231.045 119.43 233.672L117.31 240.674L115.95 240.265L118.04 233.363C119.1 229.857 121.67 228.638 124.68 229.547C127.66 230.456 129.15 232.893 128.12 236.299Z" fill="black"></path> <path d="M109.83 237.858L108.64 237.258L106.08 224.683L101.54 233.692L100.3 233.073L105.96 221.826L106.97 222.335L109.6 235.211L114.24 225.991L115.48 226.61L109.83 237.858Z" fill="black"></path> <path d="M94.55 229.517L93.48 228.718L93.15 215.892L87.12 223.983L86 223.154L93.53 213.066L94.44 213.745L94.79 226.88L100.96 218.599L102.07 219.428L94.55 229.517Z" fill="black"></path> <path d="M83.7902 210.579L81.9102 219.618L80.7102 218.37L82.3202 210.948L74.8102 212.207L73.6602 211.008L82.7701 209.54L86.3801 206.084L87.3801 207.123L83.7902 210.579Z" fill="black"></path> <path d="M75.6999 195.815L74.3499 195.585C74.6999 193.847 74.5699 192.469 73.6799 190.961C72.8199 189.502 71.4699 189.003 70.3699 189.662C69.3599 190.262 69.1099 191.141 69.9799 193.698C70.9199 196.514 70.7899 198.133 68.9799 199.201C67.2799 200.21 65.1299 199.451 63.9099 197.393C62.9699 195.815 62.7499 194.417 62.9799 192.799L64.3499 192.948C64.1299 194.437 64.3699 195.655 65.0299 196.774C65.8699 198.182 67.1699 198.622 68.1799 198.023C69.1999 197.413 69.4399 196.524 68.5399 193.837C67.6299 191.111 67.8499 189.472 69.5399 188.474C71.3999 187.375 73.5299 188.204 74.7999 190.351C75.8199 192.079 76.0899 193.827 75.6999 195.815Z" fill="black"></path> <path d="M65.8602 185.348L59.0502 188.045L58.5302 186.726L65.2502 184.059C67.7802 183.06 68.6702 181.163 67.7802 178.915C66.9202 176.758 65.0802 175.909 62.5202 176.917L55.7102 179.614L55.1902 178.296L61.9002 175.639C65.3102 174.29 67.8602 175.539 69.0202 178.466C70.1602 181.362 69.1702 184.039 65.8602 185.348Z" fill="black"></path> <path d="M53.2801 172.022L53.0101 170.724L61.2801 160.905L51.3901 162.953L51.1101 161.594L63.4501 159.037L63.6801 160.146L55.2201 170.205L65.3401 168.107L65.6201 169.465L53.2801 172.022Z" fill="black"></path> <path d="M50.32 154.863L50.28 153.534L60.13 145.304L50.04 145.613L50 144.225L62.59 143.835L62.62 144.964L52.54 153.404L62.87 153.085L62.91 154.463L50.32 154.863Z" fill="black"></path> <path d="M58.47 134.675L50.22 138.841L50.45 137.133L57.27 133.776L51.6 128.692L51.82 127.054L58.64 133.257L63.6 133.926L63.41 135.355L58.47 134.675Z" fill="black"></path> <path d="M65.0099 119.163L64.3499 117.964C65.9299 117.165 66.9399 116.197 67.5599 114.568C68.1699 112.99 67.7199 111.622 66.5299 111.172C65.4399 110.753 64.5899 111.102 63.1199 113.37C61.4999 115.847 60.1399 116.756 58.1799 116.007C56.3299 115.298 55.5899 113.15 56.4499 110.913C57.1099 109.205 58.0599 108.156 59.4799 107.337L60.2099 108.505C58.8999 109.254 58.0899 110.203 57.6299 111.412C57.0399 112.94 57.5099 114.239 58.5999 114.658C59.7099 115.078 60.5599 114.718 62.1099 112.341C63.6899 109.944 65.1099 109.095 66.9399 109.794C68.9599 110.563 69.6299 112.75 68.7299 115.078C68.0199 116.936 66.8099 118.234 65.0099 119.163Z" fill="black"></path> <path d="M67.1198 104.95L60.7698 101.294L61.4798 100.065L67.7498 103.681C70.0998 105.04 72.1498 104.56 73.3598 102.473C74.5198 100.465 74.0398 98.4872 71.6598 97.1088L65.3098 93.453L66.0198 92.2244L72.2698 95.8302C75.4498 97.6681 76.0498 100.445 74.4798 103.162C72.9198 105.849 70.2098 106.728 67.1198 104.95Z" fill="black"></path> <path d="M69.78 86.8303L70.63 85.8115L83.47 86.1811L75.71 79.7285L76.6 78.6697L86.28 86.7205L85.55 87.5895L72.41 87.2299L80.35 93.8323L79.45 94.8911L69.78 86.8303Z" fill="black"></path> <path d="M81.3701 73.855L82.3901 72.996L94.9801 75.573L88.4601 67.8719L89.5201 66.9729L97.6601 76.5819L96.7901 77.3111L83.9001 74.6741L90.5701 82.555L89.5101 83.444L81.3701 73.855Z" fill="black"></path> <path d="M102.26 67.6722L93.8701 63.7967L95.3601 62.9177L102.23 66.164L102.7 58.5627L104.12 57.7236L103.49 66.9231L106.04 71.2282L104.8 71.9673L102.26 67.6722Z" fill="black"></path> <g clip-path="url(#clip1)"> <path d="M125.171 105.191C125.653 106.108 126.595 106.615 127.56 106.615C127.994 106.615 128.429 106.518 128.815 106.301C130.142 105.601 130.625 103.96 129.925 102.657L125.436 94.21C124.736 92.8826 123.095 92.3999 121.792 93.0998C120.465 93.7997 119.982 95.4408 120.682 96.7682L125.171 105.191Z" fill="#F08860"></path> <path d="M197.814 120.323C199.141 119.624 199.624 117.982 198.924 116.679C198.224 115.328 196.583 114.845 195.28 115.545L186.833 120.034C185.506 120.734 185.023 122.375 185.723 123.702C186.206 124.619 187.147 125.126 188.112 125.126C188.547 125.126 188.981 125.03 189.391 124.812L197.814 120.323Z" fill="#F08860"></path> <path d="M107.795 162.075L99.3479 166.563C98.0205 167.287 97.5379 168.904 98.2377 170.232C98.7204 171.149 99.6616 171.656 100.627 171.656C101.061 171.656 101.496 171.559 101.906 171.342L110.353 166.853C111.68 166.153 112.163 164.512 111.463 163.185C110.739 161.881 109.098 161.375 107.795 162.075Z" fill="#F08860"></path> <path d="M160.866 103.212C161.131 103.285 161.397 103.333 161.662 103.333C162.82 103.333 163.882 102.585 164.244 101.426L167.044 92.2798C167.478 90.8559 166.682 89.3354 165.258 88.901C163.834 88.4666 162.314 89.263 161.879 90.6869L159.08 99.8337C158.645 101.282 159.442 102.778 160.866 103.212Z" fill="#F08860"></path> <path d="M136.297 183.674C134.873 183.24 133.353 184.036 132.919 185.46L130.119 194.607C129.685 196.031 130.481 197.551 131.905 197.986C132.17 198.058 132.436 198.106 132.701 198.106C133.86 198.106 134.922 197.358 135.284 196.2L138.083 187.053C138.518 185.629 137.721 184.109 136.297 183.674Z" fill="#F08860"></path> <path d="M201.337 156.74L192.19 153.941C190.767 153.506 189.246 154.303 188.812 155.726C188.377 157.15 189.174 158.671 190.598 159.105L199.744 161.905C200.01 161.977 200.275 162.025 200.541 162.025C201.699 162.025 202.761 161.277 203.123 160.119C203.557 158.671 202.761 157.174 201.337 156.74Z" fill="#F08860"></path> <path d="M105.768 133.065C106.926 133.065 107.988 132.317 108.35 131.158C108.785 129.734 107.988 128.214 106.564 127.779L97.4175 124.98C95.9936 124.545 94.4731 125.342 94.0387 126.766C93.6043 128.19 94.4007 129.71 95.8246 130.145L104.971 132.944C105.237 133.041 105.502 133.065 105.768 133.065Z" fill="#F08860"></path> <path d="M156.065 152.386L151.825 154.642L163.116 175.862L167.355 173.606L156.065 152.386Z" fill="#F08860"></path> <path d="M160.648 146.582C162.506 145.592 163.206 143.275 162.217 141.441C161.493 140.066 160.02 139.293 158.476 139.438C157.969 139.486 157.511 139.631 157.052 139.873C156.159 140.355 155.483 141.152 155.194 142.117C154.904 143.082 155.001 144.12 155.483 145.013L157.269 148.368L160.648 146.582Z" fill="#F08860"></path> <path d="M149.208 156.042L145.854 157.828C144.261 158.672 142.427 158.841 140.689 158.334C138.951 157.803 137.527 156.621 136.683 155.028C135.838 153.435 135.645 151.601 136.176 149.863C136.707 148.126 137.889 146.702 139.482 145.857C141.075 145.013 142.909 144.844 144.647 145.35C146.385 145.881 147.809 147.04 148.653 148.657L150.439 152.011L154.663 149.767L152.877 146.412C152.032 144.819 151.839 142.985 152.37 141.248C152.901 139.51 154.083 138.086 155.676 137.241C158.982 135.48 163.085 136.735 164.847 140.041C166.609 143.347 165.354 147.45 162.048 149.212L158.693 150.998L169.988 172.236L175.273 169.436C173.053 164.657 173.077 159.203 175.08 154.28C178.169 146.678 178.024 137.821 173.849 130.025C166.174 115.617 147.953 110.453 133.787 118.972C121.72 126.236 116.7 141.658 122.227 154.618C126.209 163.982 134.414 169.967 143.513 171.608C148.605 172.525 153.118 175.421 155.797 179.789L160.479 177.304L149.208 156.042Z" fill="#F08860"></path> <path d="M180.052 178.56L176.481 171.851L157.125 182.156L161.059 189.589C162.314 191.954 165.282 192.871 167.648 191.592L167.913 191.447L167.985 191.592C169.482 194.416 172.981 195.478 175.805 193.981C178.629 192.485 179.69 188.986 178.194 186.162L178.122 186.017L178.387 185.872C180.752 184.617 181.669 181.649 180.39 179.284L180.052 178.56Z" fill="#F08860"></path> <path d="M142.644 148.029C142.523 148.029 142.402 148.029 142.282 148.053C141.775 148.101 141.316 148.246 140.858 148.487C139.965 148.97 139.289 149.766 139 150.732C138.71 151.697 138.807 152.735 139.289 153.628C139.772 154.521 140.568 155.172 141.534 155.486C142.499 155.776 143.537 155.679 144.43 155.196L147.784 153.41L145.998 150.056C145.347 148.801 144.044 148.029 142.644 148.029Z" fill="#F08860"></path> </g> </g> <defs> <clipPath id="clip0"> <rect width="300" height="293.494" fill="white"></rect> </clipPath> <clipPath id="clip1"> <rect width="109.326" height="109.327" fill="white" transform="translate(93.918 88.782)"></rect> </clipPath> </defs> </svg> 