<?xml version="1.0" encoding="UTF-8"?> <svg xmlns="http://www.w3.org/2000/svg" width="683" height="62" viewBox="0 0 683 62" fill="none"> <path d="M396.122 16.082C396.122 18.0327 395.623 19.5433 394.626 20.614C393.643 21.6847 392.309 22.22 390.622 22.22C389.581 22.22 388.649 21.9853 387.828 21.516C387.021 21.032 386.383 20.3353 385.914 19.426C385.445 18.502 385.21 17.3873 385.21 16.082C385.21 14.1313 385.701 12.628 386.684 11.572C387.667 10.516 389.001 9.988 390.688 9.988C391.759 9.988 392.697 10.23 393.504 10.714C394.325 11.1833 394.963 11.8727 395.418 12.782C395.887 13.6767 396.122 14.7767 396.122 16.082ZM387.212 16.082C387.212 17.4753 387.483 18.5827 388.026 19.404C388.583 20.2107 389.463 20.614 390.666 20.614C391.854 20.614 392.727 20.2107 393.284 19.404C393.841 18.5827 394.12 17.4753 394.12 16.082C394.12 14.6887 393.841 13.596 393.284 12.804C392.727 12.012 391.847 11.616 390.644 11.616C389.441 11.616 388.569 12.012 388.026 12.804C387.483 13.596 387.212 14.6887 387.212 16.082ZM401.126 10.208V15.114H407.528V10.208H409.464V22H407.528V16.742H401.126V22H399.19V10.208H401.126ZM422.174 22H420.216V11.814H416.74C416.549 14.2927 416.285 16.2947 415.948 17.82C415.611 19.3307 415.163 20.4307 414.606 21.12C414.049 21.8093 413.345 22.154 412.494 22.154C412.303 22.154 412.113 22.1393 411.922 22.11C411.746 22.0953 411.599 22.0587 411.482 22V20.548C411.57 20.5773 411.665 20.5993 411.768 20.614C411.871 20.6287 411.973 20.636 412.076 20.636C412.868 20.636 413.499 19.7927 413.968 18.106C414.452 16.4193 414.819 13.7867 415.068 10.208H422.174V22ZM430.383 10.01C431.82 10.01 432.884 10.3253 433.573 10.956C434.262 11.5867 434.607 12.5913 434.607 13.97V22H433.199L432.825 20.328H432.737C432.224 20.9733 431.681 21.45 431.109 21.758C430.552 22.066 429.774 22.22 428.777 22.22C427.706 22.22 426.819 21.9413 426.115 21.384C425.411 20.812 425.059 19.9247 425.059 18.722C425.059 17.5487 425.521 16.6467 426.445 16.016C427.369 15.3707 428.792 15.0187 430.713 14.96L432.715 14.894V14.19C432.715 13.2073 432.502 12.5253 432.077 12.144C431.652 11.7627 431.05 11.572 430.273 11.572C429.657 11.572 429.07 11.6673 428.513 11.858C427.956 12.034 427.435 12.2393 426.951 12.474L426.357 11.022C426.87 10.7433 427.479 10.5087 428.183 10.318C428.887 10.1127 429.62 10.01 430.383 10.01ZM430.955 16.302C429.488 16.3607 428.469 16.5953 427.897 17.006C427.34 17.4167 427.061 17.996 427.061 18.744C427.061 19.404 427.259 19.888 427.655 20.196C428.066 20.504 428.586 20.658 429.217 20.658C430.214 20.658 431.043 20.3867 431.703 19.844C432.363 19.2867 432.693 18.436 432.693 17.292V16.236L430.955 16.302ZM447.797 5.324C447.694 6.424 447.32 7.26 446.675 7.832C446.044 8.38933 445.032 8.668 443.639 8.668C442.202 8.668 441.182 8.38933 440.581 7.832C439.994 7.27467 439.664 6.43867 439.591 5.324H441.395C441.468 6.116 441.674 6.65133 442.011 6.93C442.363 7.194 442.92 7.326 443.683 7.326C444.358 7.326 444.886 7.18667 445.267 6.908C445.663 6.61467 445.898 6.08667 445.971 5.324H447.797ZM440.075 17.402C440.075 17.578 440.068 17.842 440.053 18.194C440.038 18.546 440.016 18.898 439.987 19.25C439.972 19.602 439.958 19.8807 439.943 20.086L446.257 10.208H448.633V22H446.829V15.048C446.829 14.8133 446.829 14.5053 446.829 14.124C446.844 13.7427 446.858 13.3687 446.873 13.002C446.888 12.6207 446.902 12.3347 446.917 12.144L440.647 22H438.249V10.208H440.075V17.402ZM454.322 10.208V15.114H460.724V10.208H462.66V22H460.724V16.742H454.322V22H452.386V10.208H454.322ZM465.403 16.962V15.246H470.727V16.962H465.403ZM489.477 10.208V22H473.483V10.208H475.419V20.372H480.501V10.208H482.437V20.372H487.541V10.208H489.477ZM500.223 10.208H502.335L497.297 15.884L502.753 22H500.509L495.185 16.016V22H493.249V10.208H495.185V15.928L500.223 10.208ZM514.716 16.082C514.716 18.0327 514.217 19.5433 513.22 20.614C512.237 21.6847 510.902 22.22 509.216 22.22C508.174 22.22 507.243 21.9853 506.422 21.516C505.615 21.032 504.977 20.3353 504.508 19.426C504.038 18.502 503.804 17.3873 503.804 16.082C503.804 14.1313 504.295 12.628 505.278 11.572C506.26 10.516 507.595 9.988 509.282 9.988C510.352 9.988 511.291 10.23 512.098 10.714C512.919 11.1833 513.557 11.8727 514.012 12.782C514.481 13.6767 514.716 14.7767 514.716 16.082ZM505.806 16.082C505.806 17.4753 506.077 18.5827 506.62 19.404C507.177 20.2107 508.057 20.614 509.26 20.614C510.448 20.614 511.32 20.2107 511.878 19.404C512.435 18.5827 512.714 17.4753 512.714 16.082C512.714 14.6887 512.435 13.596 511.878 12.804C511.32 12.012 510.44 11.616 509.238 11.616C508.035 11.616 507.162 12.012 506.62 12.804C506.077 13.596 505.806 14.6887 505.806 16.082ZM526.76 22H524.802V11.814H521.326C521.135 14.2927 520.871 16.2947 520.534 17.82C520.197 19.3307 519.749 20.4307 519.192 21.12C518.635 21.8093 517.931 22.154 517.08 22.154C516.889 22.154 516.699 22.1393 516.508 22.11C516.332 22.0953 516.185 22.0587 516.068 22V20.548C516.156 20.5773 516.251 20.5993 516.354 20.614C516.457 20.6287 516.559 20.636 516.662 20.636C517.454 20.636 518.085 19.7927 518.554 18.106C519.038 16.4193 519.405 13.7867 519.654 10.208H526.76V22ZM534.969 10.01C536.406 10.01 537.469 10.3253 538.159 10.956C538.848 11.5867 539.193 12.5913 539.193 13.97V22H537.785L537.411 20.328H537.323C536.809 20.9733 536.267 21.45 535.695 21.758C535.137 22.066 534.36 22.22 533.363 22.22C532.292 22.22 531.405 21.9413 530.701 21.384C529.997 20.812 529.645 19.9247 529.645 18.722C529.645 17.5487 530.107 16.6467 531.031 16.016C531.955 15.3707 533.377 15.0187 535.299 14.96L537.301 14.894V14.19C537.301 13.2073 537.088 12.5253 536.663 12.144C536.237 11.7627 535.636 11.572 534.859 11.572C534.243 11.572 533.656 11.6673 533.099 11.858C532.541 12.034 532.021 12.2393 531.537 12.474L530.943 11.022C531.456 10.7433 532.065 10.5087 532.769 10.318C533.473 10.1127 534.206 10.01 534.969 10.01ZM535.541 16.302C534.074 16.3607 533.055 16.5953 532.483 17.006C531.925 17.4167 531.647 17.996 531.647 18.744C531.647 19.404 531.845 19.888 532.241 20.196C532.651 20.504 533.172 20.658 533.803 20.658C534.8 20.658 535.629 20.3867 536.289 19.844C536.949 19.2867 537.279 18.436 537.279 17.292V16.236L535.541 16.302ZM390.6 48.22C389.559 48.22 388.627 48.0073 387.806 47.582C386.999 47.1567 386.361 46.4967 385.892 45.602C385.437 44.7073 385.21 43.5633 385.21 42.17C385.21 40.718 385.452 39.5373 385.936 38.628C386.42 37.7187 387.073 37.0513 387.894 36.626C388.73 36.2007 389.676 35.988 390.732 35.988C391.333 35.988 391.913 36.054 392.47 36.186C393.027 36.3033 393.482 36.45 393.834 36.626L393.24 38.232C392.888 38.1 392.477 37.9753 392.008 37.858C391.539 37.7407 391.099 37.682 390.688 37.682C388.371 37.682 387.212 39.1707 387.212 42.148C387.212 43.5707 387.491 44.6633 388.048 45.426C388.62 46.174 389.463 46.548 390.578 46.548C391.223 46.548 391.788 46.482 392.272 46.35C392.771 46.218 393.225 46.0567 393.636 45.866V47.582C393.24 47.7873 392.8 47.9413 392.316 48.044C391.847 48.1613 391.275 48.22 390.6 48.22ZM407.765 35.988C409.217 35.988 410.383 36.494 411.263 37.506C412.158 38.518 412.605 40.0433 412.605 42.082C412.605 44.0913 412.158 45.6167 411.263 46.658C410.383 47.6993 409.21 48.22 407.743 48.22C406.834 48.22 406.078 48.0513 405.477 47.714C404.89 47.362 404.428 46.9587 404.091 46.504H403.959C403.988 46.7533 404.018 47.0687 404.047 47.45C404.076 47.8313 404.091 48.1613 404.091 48.44V53.28H402.155V36.208H403.739L404.003 37.814H404.091C404.443 37.3007 404.905 36.868 405.477 36.516C406.049 36.164 406.812 35.988 407.765 35.988ZM407.413 37.616C406.21 37.616 405.36 37.9533 404.861 38.628C404.377 39.3027 404.12 40.3293 404.091 41.708V42.082C404.091 43.534 404.326 44.656 404.795 45.448C405.279 46.2253 406.166 46.614 407.457 46.614C408.176 46.614 408.762 46.416 409.217 46.02C409.686 45.624 410.031 45.0887 410.251 44.414C410.486 43.7247 410.603 42.94 410.603 42.06C410.603 40.7107 410.339 39.6327 409.811 38.826C409.298 38.0193 408.498 37.616 407.413 37.616ZM420.244 35.988C421.256 35.988 422.122 36.208 422.84 36.648C423.574 37.088 424.131 37.7113 424.512 38.518C424.908 39.31 425.106 40.2413 425.106 41.312V42.478H417.032C417.062 43.8127 417.399 44.832 418.044 45.536C418.704 46.2253 419.621 46.57 420.794 46.57C421.542 46.57 422.202 46.504 422.774 46.372C423.361 46.2253 423.962 46.02 424.578 45.756V47.45C423.977 47.714 423.383 47.9047 422.796 48.022C422.21 48.154 421.513 48.22 420.706 48.22C419.592 48.22 418.602 47.9927 417.736 47.538C416.886 47.0833 416.218 46.4087 415.734 45.514C415.265 44.6047 415.03 43.4973 415.03 42.192C415.03 40.9013 415.243 39.794 415.668 38.87C416.108 37.946 416.717 37.2347 417.494 36.736C418.286 36.2373 419.203 35.988 420.244 35.988ZM420.222 37.572C419.298 37.572 418.565 37.8727 418.022 38.474C417.494 39.0607 417.179 39.882 417.076 40.938H423.082C423.068 39.9407 422.833 39.134 422.378 38.518C421.924 37.8873 421.205 37.572 420.222 37.572ZM438.074 36.208V48H436.138V37.858H430.044V48H428.108V36.208H438.074ZM446.391 35.988C447.403 35.988 448.268 36.208 448.987 36.648C449.72 37.088 450.277 37.7113 450.659 38.518C451.055 39.31 451.253 40.2413 451.253 41.312V42.478H443.179C443.208 43.8127 443.545 44.832 444.191 45.536C444.851 46.2253 445.767 46.57 446.941 46.57C447.689 46.57 448.349 46.504 448.921 46.372C449.507 46.2253 450.109 46.02 450.725 45.756V47.45C450.123 47.714 449.529 47.9047 448.943 48.022C448.356 48.154 447.659 48.22 446.853 48.22C445.738 48.22 444.748 47.9927 443.883 47.538C443.032 47.0833 442.365 46.4087 441.881 45.514C441.411 44.6047 441.177 43.4973 441.177 42.192C441.177 40.9013 441.389 39.794 441.815 38.87C442.255 37.946 442.863 37.2347 443.641 36.736C444.433 36.2373 445.349 35.988 446.391 35.988ZM446.369 37.572C445.445 37.572 444.711 37.8727 444.169 38.474C443.641 39.0607 443.325 39.882 443.223 40.938H449.229C449.214 39.9407 448.979 39.134 448.525 38.518C448.07 37.8873 447.351 37.572 446.369 37.572ZM462.395 37.836H458.545V48H456.631V37.836H452.825V36.208H462.395V37.836ZM466.544 43.402C466.544 43.578 466.536 43.842 466.522 44.194C466.507 44.546 466.485 44.898 466.456 45.25C466.441 45.602 466.426 45.8807 466.412 46.086L472.726 36.208H475.102V48H473.298V41.048C473.298 40.8133 473.298 40.5053 473.298 40.124C473.312 39.7427 473.327 39.3687 473.342 39.002C473.356 38.6207 473.371 38.3347 473.386 38.144L467.116 48H464.718V36.208H466.544V43.402ZM486.994 37.836H483.144V48H481.23V37.836H477.424V36.208H486.994V37.836ZM499.354 42.082C499.354 44.0327 498.856 45.5433 497.858 46.614C496.876 47.6847 495.541 48.22 493.854 48.22C492.813 48.22 491.882 47.9853 491.06 47.516C490.254 47.032 489.616 46.3353 489.146 45.426C488.677 44.502 488.442 43.3873 488.442 42.082C488.442 40.1313 488.934 38.628 489.916 37.572C490.899 36.516 492.234 35.988 493.92 35.988C494.991 35.988 495.93 36.23 496.736 36.714C497.558 37.1833 498.196 37.8727 498.65 38.782C499.12 39.6767 499.354 40.7767 499.354 42.082ZM490.444 42.082C490.444 43.4753 490.716 44.5827 491.258 45.404C491.816 46.2107 492.696 46.614 493.898 46.614C495.086 46.614 495.959 46.2107 496.516 45.404C497.074 44.5827 497.352 43.4753 497.352 42.082C497.352 40.6887 497.074 39.596 496.516 38.804C495.959 38.012 495.079 37.616 493.876 37.616C492.674 37.616 491.801 38.012 491.258 38.804C490.716 39.596 490.444 40.6887 490.444 42.082ZM508.033 35.988C509.485 35.988 510.651 36.494 511.531 37.506C512.425 38.518 512.873 40.0433 512.873 42.082C512.873 44.0913 512.425 45.6167 511.531 46.658C510.651 47.6993 509.477 48.22 508.011 48.22C507.101 48.22 506.346 48.0513 505.745 47.714C505.158 47.362 504.696 46.9587 504.359 46.504H504.227C504.256 46.7533 504.285 47.0687 504.315 47.45C504.344 47.8313 504.359 48.1613 504.359 48.44V53.28H502.423V36.208H504.007L504.271 37.814H504.359C504.711 37.3007 505.173 36.868 505.745 36.516C506.317 36.164 507.079 35.988 508.033 35.988ZM507.681 37.616C506.478 37.616 505.627 37.9533 505.129 38.628C504.645 39.3027 504.388 40.3293 504.359 41.708V42.082C504.359 43.534 504.593 44.656 505.063 45.448C505.547 46.2253 506.434 46.614 507.725 46.614C508.443 46.614 509.03 46.416 509.485 46.02C509.954 45.624 510.299 45.0887 510.519 44.414C510.753 43.7247 510.871 42.94 510.871 42.06C510.871 40.7107 510.607 39.6327 510.079 38.826C509.565 38.0193 508.766 37.616 507.681 37.616ZM520.424 36.01C521.861 36.01 522.925 36.3253 523.614 36.956C524.303 37.5867 524.648 38.5913 524.648 39.97V48H523.24L522.866 46.328H522.778C522.265 46.9733 521.722 47.45 521.15 47.758C520.593 48.066 519.815 48.22 518.818 48.22C517.747 48.22 516.86 47.9413 516.156 47.384C515.452 46.812 515.1 45.9247 515.1 44.722C515.1 43.5487 515.562 42.6467 516.486 42.016C517.41 41.3707 518.833 41.0187 520.754 40.96L522.756 40.894V40.19C522.756 39.2073 522.543 38.5253 522.118 38.144C521.693 37.7627 521.091 37.572 520.314 37.572C519.698 37.572 519.111 37.6673 518.554 37.858C517.997 38.034 517.476 38.2393 516.992 38.474L516.398 37.022C516.911 36.7433 517.52 36.5087 518.224 36.318C518.928 36.1127 519.661 36.01 520.424 36.01ZM520.996 42.302C519.529 42.3607 518.51 42.5953 517.938 43.006C517.381 43.4167 517.102 43.996 517.102 44.744C517.102 45.404 517.3 45.888 517.696 46.196C518.107 46.504 518.627 46.658 519.258 46.658C520.255 46.658 521.084 46.3867 521.744 45.844C522.404 45.2867 522.734 44.436 522.734 43.292V42.236L520.996 42.302ZM540.94 36.208V48H539.202V40.476C539.202 40.168 539.209 39.8453 539.224 39.508C539.253 39.1707 539.283 38.8407 539.312 38.518H539.246L535.396 48H533.768L530.028 38.518H529.962C530.006 39.178 530.028 39.8527 530.028 40.542V48H528.29V36.208H530.864L534.582 45.69L538.366 36.208H540.94ZM546.53 43.402C546.53 43.578 546.523 43.842 546.508 44.194C546.493 44.546 546.471 44.898 546.442 45.25C546.427 45.602 546.413 45.8807 546.398 46.086L552.712 36.208H555.088V48H553.284V41.048C553.284 40.8133 553.284 40.5053 553.284 40.124C553.299 39.7427 553.313 39.3687 553.328 39.002C553.343 38.6207 553.357 38.3347 553.372 38.144L547.102 48H544.704V36.208H546.53V43.402Z" fill="#19436D"></path> <g clip-path="url(#clip0)"> <path d="M353.83 25.8969C353.83 20.95 348.426 7.90576 333.119 7.90576C317.812 7.90576 312.408 20.95 312.408 25.8969V43.5058C312.408 46.416 315.605 48.2288 318.08 46.6945C323.829 43.1236 330.764 35.8289 333.119 22.7519C335.474 35.8289 342.409 43.1236 348.158 46.6945C350.628 48.2288 353.83 46.416 353.83 43.5058V25.8969Z" fill="#1CC1BB"></path> <path d="M230.448 7.45264H229.612C223.661 7.45264 218.868 9.3473 215.141 13.2458C211.414 17.0406 209.545 21.8619 209.545 27.606C209.545 33.6558 211.409 38.5262 215.185 42.2227C218.961 45.8647 223.754 47.7102 229.612 47.7102H230.448C236.306 47.7102 241.104 45.8647 244.875 42.2227C248.651 38.5317 250.514 33.6613 250.514 27.606C250.514 21.8619 248.651 17.0406 244.918 13.2458C241.191 9.3473 236.393 7.45264 230.448 7.45264ZM237.126 34.0107C235.279 35.676 232.962 36.304 230.388 36.304H229.666C227.092 36.304 224.775 35.6815 222.928 34.0107C221.081 32.3454 220.354 30.3142 220.354 27.5514C220.354 24.6903 221.087 22.812 222.885 21.2012C224.644 19.585 226.918 18.8042 229.623 18.8042H230.431C233.136 18.8042 235.41 19.585 237.169 21.2012C238.973 22.8174 239.7 24.6903 239.7 27.5514C239.7 30.3142 238.967 32.3454 237.126 34.0107Z" fill="#1CC1BB"></path> <path d="M95.9601 9.25417C95.195 10.166 94.7961 11.3399 94.8453 12.5302L94.8344 42.7575C94.8344 43.9369 95.2114 45.0835 95.9655 45.9845C96.3754 46.4213 96.8727 46.7653 97.4301 46.9837C97.9875 47.2075 98.4411 47.2458 99.1679 47.2458C100.386 47.2458 101.348 47.0273 102.173 46.2848L126.316 22.1619V42.7521C126.273 43.9315 126.677 45.0835 127.442 45.979C127.852 46.4158 128.349 46.7598 128.907 46.9837C129.459 47.2075 129.923 47.2621 130.655 47.2621C131.388 47.2621 131.923 47.2021 132.486 46.9782C133.049 46.7543 133.552 46.4158 133.973 45.979C134.759 45.0945 135.175 43.9369 135.126 42.7521V12.5302C135.131 11.2471 134.754 10.1824 133.962 9.29239C133.131 8.51159 132.191 7.90552 130.951 7.90552C129.71 7.90552 128.568 8.17306 127.715 9.02484L103.638 33.0822V12.5302C103.638 11.1925 103.283 10.1879 102.512 9.29239C102.091 8.84466 101.578 8.49521 101.009 8.26589C100.441 8.03656 99.8947 7.91098 99.1515 7.91098C98.4083 7.91098 97.9711 8.03656 97.4192 8.25497C96.8672 8.47337 96.3699 8.81736 95.9601 9.25417Z" fill="#423783"></path> <path d="M258.055 45.9845C258.475 46.4213 258.978 46.7653 259.541 46.9837C260.104 47.2075 260.639 47.2676 261.372 47.2676C262.104 47.2676 262.569 47.213 263.12 46.9891C263.678 46.7653 264.175 46.4267 264.585 45.9845C265.35 45.089 265.754 43.9369 265.711 42.7575V22.1674L278.602 35.0478C280.181 36.6258 282.75 36.6258 284.329 35.0478L297.22 22.1674V42.7575C297.177 43.9369 297.575 45.089 298.341 45.9845C298.75 46.4267 299.253 46.7653 299.805 46.9891C300.362 47.213 300.827 47.2676 301.559 47.2676C302.286 47.2676 302.827 47.2075 303.39 46.9837C303.947 46.7653 304.456 46.4213 304.871 45.9845C305.658 45.0999 306.073 43.9424 306.029 42.7575V12.5302C306.029 11.2471 305.652 10.1824 304.865 9.29239C304.035 8.51705 303.095 7.90552 301.854 7.90552C300.608 7.90552 299.466 8.17852 298.619 9.02484L281.465 26.1642L264.312 9.02484C263.459 8.17852 262.317 7.90552 261.077 7.90552C259.836 7.90552 258.891 8.51705 258.066 9.29239C257.273 10.1824 256.896 11.2471 256.902 12.5302V42.7575C256.858 43.9424 257.268 45.0999 258.055 45.9845Z" fill="#423783"></path> <path d="M147.941 36.4777C146.318 36.4777 144.996 36.9855 144.029 38.0611C143.116 39.0821 142.608 40.3598 142.608 41.8886C142.608 43.4175 143.067 44.6952 143.979 45.7162C144.892 46.7372 146.215 47.245 147.941 47.245C149.668 47.245 150.991 46.7372 151.952 45.7162C152.92 44.6952 153.373 43.4175 153.373 41.8886C153.373 40.409 152.865 39.1313 151.898 38.0611C150.941 36.9909 149.619 36.4777 147.941 36.4777Z" fill="#423783"></path> <path d="M48.5772 9.26008C47.8012 10.1446 47.3859 11.4223 47.3859 12.6727V18.99C47.3859 25.5476 48.7302 30.0741 51.4243 32.6731C55.1021 36.315 60.5723 37.9258 67.6163 37.9258C73.4143 37.9258 76.3161 36.6262 79.5785 35.2776V42.818C79.5785 44.1175 79.9337 45.1932 80.7097 46.0231C81.4857 46.8531 82.5841 47.2517 83.983 47.2517C85.4312 47.2517 86.6444 46.8585 87.3657 46.0231C88.1417 45.1932 88.4477 43.8227 88.4477 42.818V12.6727C88.4477 11.5806 88.0105 10.0409 87.2291 9.21093C86.4531 8.381 85.3656 7.91142 83.9666 7.91142C82.5185 7.91142 81.431 8.32639 80.7042 9.21093C79.9774 10.0955 79.5676 11.324 79.5676 12.6727V26.1701C77.185 28.5125 73.8242 29.9157 68.2829 29.9157C65.7473 29.9157 61.0532 29.2387 58.206 26.5851C56.7032 25.1818 56.2551 22.3753 56.2551 18.5259V12.6727C56.2551 11.4223 55.8726 10.1446 55.0966 9.26008C54.3206 8.37554 53.2222 7.91142 51.8287 7.91142C50.4298 7.90596 49.3532 8.37554 48.5772 9.26008Z" fill="#423783"></path> <path d="M1.13666 9.16693C0.366135 10.0406 0 11.1053 0 12.4157V12.4648C0 18.815 1.60116 23.3742 4.80347 27.4529C8.05497 31.5371 13.2902 33.5792 20.6019 33.5792C24.3616 33.5792 27.6131 32.9676 30.3564 31.7937C30.6624 31.6408 31.3729 31.3351 31.6789 31.2313C29.8482 37.4067 24.7168 38.9356 19.4871 38.9902C14.2028 39.0393 11.5633 37.92 8.46482 35.6213C5.82537 33.6829 3.73786 34.4965 2.47005 36.1837C0.994576 38.1766 1.3006 40.4207 3.84169 42.5119C7.49757 45.5751 13.3885 47.2568 19.5363 47.2568C23.296 47.2568 27.6678 46.6507 30.3619 45.4768C33.1052 44.3029 35.2419 42.6211 36.7119 40.4753C38.1873 38.3295 39.3021 35.9816 39.9634 33.4317C40.6246 30.8819 41.0126 27.9607 41.0126 24.7993V12.6723C41.0126 11.2964 40.6246 10.1552 39.8104 9.23245C39.0508 8.31515 37.9305 7.90564 36.455 7.90564C35.0342 7.90564 33.9139 8.36429 33.1543 9.23245C32.3947 10.1498 32.1707 11.2745 32.1707 12.6505V12.9071C32.1707 22.1457 27.8536 25.3071 20.285 25.3071C12.7164 25.3071 8.8091 21.4304 8.8091 12.8034V12.4157C8.8091 11.1053 8.42111 9.99141 7.65058 9.16693C6.83088 8.29331 5.76526 7.90564 4.31711 7.90564C2.9728 7.90564 1.858 8.29331 1.13666 9.16693Z" fill="#423783"></path> <path d="M206.38 54.3984C207.139 53.694 207.56 52.6948 207.533 51.6629V44.6248C207.533 42.2987 205.844 39.0172 201.91 38.9189V14.332C201.91 10.8156 199.319 7.96545 195.8 7.96545H176.411C172.859 7.96545 170.105 10.8266 170.018 14.2118C169.832 21.0152 168.657 27.3489 167.247 32.3995C166.515 35.0313 165.739 37.2263 165.05 38.9135C164.832 38.9135 164.635 38.9135 164.471 38.9135C160.4 38.9135 158.678 42.2714 158.678 44.6248V51.6629C158.646 52.7003 159.066 53.694 159.831 54.3984C160.902 55.1574 161.684 55.4522 163.067 55.4522C164.449 55.4522 165.487 55.141 166.307 54.3984C167.089 53.705 167.52 52.7058 167.487 51.6629V47.2565H198.729V51.6629C198.696 52.7058 199.128 53.7104 199.91 54.3984C200.729 55.141 201.795 55.4522 203.183 55.4522C204.571 55.4522 205.303 55.1574 206.38 54.3984ZM193.084 16.2376V38.908C187.461 38.908 180.302 38.908 174.46 38.908C174.903 37.614 175.335 36.2271 175.745 34.7638C177.155 29.7186 178.357 22.9754 178.739 16.2376H193.084Z" fill="#423783"></path> </g> <defs> <clipPath id="clip0"> <rect width="353.829" height="48" fill="white" transform="translate(0 7.45264)"></rect> </clipPath> </defs> </svg> 