<?xml version="1.0" encoding="UTF-8"?> <svg xmlns="http://www.w3.org/2000/svg" width="360" height="240" viewBox="0 0 360 240" fill="none"> <rect width="360" height="240" rx="16" fill="#3275B9"></rect> <path d="M43.992 29.872C43.992 31.024 43.584 31.952 42.768 32.656C41.952 33.36 40.912 33.8 39.648 33.976V34.048C41.216 34.208 42.416 34.648 43.248 35.368C44.096 36.072 44.52 36.992 44.52 38.128C44.52 39.632 43.904 40.864 42.672 41.824C41.456 42.768 39.664 43.24 37.296 43.24C36 43.24 34.848 43.16 33.84 43C32.848 42.84 31.984 42.608 31.248 42.304V39.256C31.744 39.496 32.304 39.704 32.928 39.88C33.552 40.04 34.184 40.168 34.824 40.264C35.464 40.344 36.056 40.384 36.6 40.384C38.12 40.384 39.216 40.168 39.888 39.736C40.576 39.288 40.92 38.664 40.92 37.864C40.92 37.048 40.424 36.456 39.432 36.088C38.44 35.704 37.104 35.512 35.424 35.512H33.816V32.68H35.256C36.616 32.68 37.672 32.592 38.424 32.416C39.176 32.24 39.704 31.984 40.008 31.648C40.312 31.312 40.464 30.912 40.464 30.448C40.464 29.856 40.2 29.392 39.672 29.056C39.16 28.704 38.384 28.528 37.344 28.528C36.464 28.528 35.632 28.656 34.848 28.912C34.08 29.168 33.36 29.504 32.688 29.92L31.104 27.496C31.984 26.92 32.96 26.464 34.032 26.128C35.104 25.792 36.376 25.624 37.848 25.624C39.784 25.624 41.288 26.024 42.36 26.824C43.448 27.624 43.992 28.64 43.992 29.872ZM52.8105 29.632C54.5705 29.632 55.9145 30.016 56.8425 30.784C57.7865 31.536 58.2585 32.696 58.2585 34.264V43H55.7625L55.0665 41.224H54.9705C54.4105 41.928 53.8185 42.44 53.1945 42.76C52.5705 43.08 51.7145 43.24 50.6265 43.24C49.4585 43.24 48.4905 42.904 47.7225 42.232C46.9545 41.544 46.5705 40.496 46.5705 39.088C46.5705 37.696 47.0585 36.672 48.0345 36.016C49.0105 35.344 50.4745 34.976 52.4265 34.912L54.7065 34.84V34.264C54.7065 33.576 54.5225 33.072 54.1545 32.752C53.8025 32.432 53.3065 32.272 52.6665 32.272C52.0265 32.272 51.4025 32.368 50.7945 32.56C50.1865 32.736 49.5785 32.96 48.9705 33.232L47.7945 30.808C48.4985 30.44 49.2745 30.152 50.1225 29.944C50.9865 29.736 51.8825 29.632 52.8105 29.632ZM53.3145 36.976C52.1625 37.008 51.3625 37.216 50.9145 37.6C50.4665 37.984 50.2425 38.488 50.2425 39.112C50.2425 39.656 50.4025 40.048 50.7225 40.288C51.0425 40.512 51.4585 40.624 51.9705 40.624C52.7385 40.624 53.3865 40.4 53.9145 39.952C54.4425 39.488 54.7065 38.84 54.7065 38.008V36.928L53.3145 36.976ZM65.4949 29.896V34.936H70.4869V29.896H74.0629V43H70.4869V37.6H65.4949V43H61.9189V29.896H65.4949ZM79.8015 43H75.9375L79.4655 37.816C78.7935 37.544 78.1935 37.104 77.6655 36.496C77.1535 35.872 76.8975 35.024 76.8975 33.952C76.8975 32.64 77.3935 31.64 78.3855 30.952C79.3775 30.248 80.6495 29.896 82.2015 29.896H88.2975V43H84.7215V38.128H82.7535L79.8015 43ZM80.4015 33.976C80.4015 34.52 80.6175 34.952 81.0495 35.272C81.4815 35.576 82.0415 35.728 82.7295 35.728H84.7215V32.416H82.2735C81.6335 32.416 81.1615 32.576 80.8575 32.896C80.5535 33.2 80.4015 33.56 80.4015 33.976ZM102.884 32.584H98.5881V43H95.0121V32.584H90.7161V29.896H102.884V32.584ZM108.758 35.08C108.758 35.352 108.742 35.688 108.71 36.088C108.694 36.488 108.67 36.896 108.638 37.312C108.622 37.728 108.598 38.096 108.566 38.416C108.534 38.736 108.51 38.96 108.494 39.088L114.542 29.896H118.838V43H115.382V37.768C115.382 37.336 115.398 36.864 115.43 36.352C115.462 35.824 115.494 35.336 115.526 34.888C115.574 34.424 115.606 34.072 115.622 33.832L109.598 43H105.302V29.896H108.758V35.08ZM127.975 29.656C129.783 29.656 131.215 30.176 132.271 31.216C133.327 32.24 133.855 33.704 133.855 35.608V37.336H125.407C125.439 38.344 125.735 39.136 126.295 39.712C126.871 40.288 127.663 40.576 128.671 40.576C129.519 40.576 130.287 40.496 130.975 40.336C131.663 40.16 132.375 39.896 133.111 39.544V42.304C132.471 42.624 131.791 42.856 131.071 43C130.367 43.16 129.511 43.24 128.503 43.24C127.191 43.24 126.031 43 125.023 42.52C124.015 42.024 123.223 41.28 122.647 40.288C122.071 39.296 121.783 38.048 121.783 36.544C121.783 35.008 122.039 33.736 122.551 32.728C123.079 31.704 123.807 30.936 124.735 30.424C125.663 29.912 126.743 29.656 127.975 29.656ZM127.999 32.2C127.311 32.2 126.735 32.424 126.271 32.872C125.823 33.32 125.559 34.016 125.479 34.96H130.495C130.479 34.16 130.271 33.504 129.871 32.992C129.471 32.464 128.847 32.2 127.999 32.2ZM154.893 36.424C154.893 38.6 154.317 40.28 153.165 41.464C152.029 42.648 150.477 43.24 148.509 43.24C147.293 43.24 146.205 42.976 145.245 42.448C144.301 41.92 143.557 41.152 143.013 40.144C142.469 39.12 142.197 37.88 142.197 36.424C142.197 34.248 142.765 32.576 143.901 31.408C145.037 30.24 146.597 29.656 148.581 29.656C149.813 29.656 150.901 29.92 151.845 30.448C152.789 30.976 153.533 31.744 154.077 32.752C154.621 33.744 154.893 34.968 154.893 36.424ZM145.845 36.424C145.845 37.72 146.053 38.704 146.469 39.376C146.901 40.032 147.597 40.36 148.557 40.36C149.501 40.36 150.181 40.032 150.597 39.376C151.029 38.704 151.245 37.72 151.245 36.424C151.245 35.128 151.029 34.16 150.597 33.52C150.181 32.864 149.493 32.536 148.533 32.536C147.589 32.536 146.901 32.864 146.469 33.52C146.053 34.16 145.845 35.128 145.845 36.424ZM168.462 32.584H164.166V43H160.59V32.584H156.294V29.896H168.462V32.584Z" fill="white"></path> <path d="M296.616 118.471C267.164 114.567 240.027 135.352 236.123 164.804C232.373 193.096 251.407 219.248 279.018 224.725L343.293 175.495C345.197 147.41 324.908 122.221 296.616 118.471Z" fill="white"></path> <path d="M337.576 178.252C341.093 151.72 322.436 127.361 295.903 123.844C269.372 120.328 245.013 138.986 241.496 165.517C237.98 192.049 256.637 216.408 283.169 219.924C283.867 220.017 284.563 220.09 285.257 220.153L337.252 180.328C337.374 179.641 337.484 178.949 337.576 178.252Z" fill="#F7CE54"></path> <path d="M277.331 192H254.539V186.412L262.195 178.668C263.779 176.996 265.011 175.661 265.891 174.664C266.8 173.667 267.431 172.816 267.783 172.112C268.135 171.408 268.311 170.675 268.311 169.912C268.311 168.973 268.003 168.299 267.387 167.888C266.8 167.477 266.096 167.272 265.275 167.272C264.277 167.272 263.28 167.551 262.283 168.108C261.285 168.665 260.141 169.501 258.851 170.616L254.187 165.16C255.125 164.309 256.123 163.503 257.179 162.74C258.264 161.977 259.525 161.361 260.963 160.892C262.4 160.393 264.16 160.144 266.243 160.144C268.384 160.144 270.232 160.525 271.787 161.288C273.341 162.021 274.544 163.033 275.395 164.324C276.275 165.615 276.715 167.081 276.715 168.724C276.715 170.543 276.377 172.171 275.703 173.608C275.057 175.016 274.06 176.439 272.711 177.876C271.391 179.284 269.733 180.897 267.739 182.716L265.451 184.784V185.004H277.331V192ZM303.244 176.336C303.244 179.68 302.877 182.555 302.144 184.96C301.44 187.365 300.252 189.213 298.58 190.504C296.937 191.795 294.708 192.44 291.892 192.44C287.961 192.44 285.087 191.017 283.268 188.172C281.449 185.327 280.54 181.381 280.54 176.336C280.54 172.933 280.892 170.029 281.596 167.624C282.329 165.219 283.532 163.371 285.204 162.08C286.876 160.789 289.105 160.144 291.892 160.144C295.823 160.144 298.697 161.567 300.516 164.412C302.335 167.257 303.244 171.232 303.244 176.336ZM288.988 176.336C288.988 179.416 289.179 181.748 289.56 183.332C289.941 184.887 290.719 185.664 291.892 185.664C293.065 185.664 293.843 184.887 294.224 183.332C294.605 181.777 294.796 179.445 294.796 176.336C294.796 173.227 294.605 170.88 294.224 169.296C293.843 167.712 293.065 166.92 291.892 166.92C290.719 166.92 289.941 167.712 289.56 169.296C289.179 170.88 288.988 173.227 288.988 176.336Z" fill="#19436D"></path> <path d="M310.147 160.9C311.547 160.9 312.672 161.392 313.522 162.375C314.372 163.342 314.797 164.708 314.797 166.475C314.797 168.242 314.397 169.625 313.597 170.625C312.814 171.608 311.664 172.1 310.147 172.1C308.78 172.1 307.68 171.608 306.847 170.625C306.014 169.625 305.597 168.242 305.597 166.475C305.597 164.708 305.989 163.342 306.772 162.375C307.555 161.392 308.68 160.9 310.147 160.9ZM323.697 161.15L313.797 179H310.172L320.072 161.15H323.697ZM310.197 163.875C309.847 163.875 309.605 164.117 309.472 164.6C309.339 165.067 309.272 165.708 309.272 166.525C309.272 167.325 309.339 167.967 309.472 168.45C309.605 168.933 309.847 169.175 310.197 169.175C310.547 169.175 310.789 168.942 310.922 168.475C311.055 167.992 311.122 167.342 311.122 166.525C311.122 165.708 311.055 165.067 310.922 164.6C310.789 164.117 310.547 163.875 310.197 163.875ZM323.722 168C325.122 168 326.247 168.492 327.097 169.475C327.947 170.442 328.372 171.808 328.372 173.575C328.372 175.342 327.972 176.725 327.172 177.725C326.389 178.708 325.239 179.2 323.722 179.2C322.355 179.2 321.255 178.708 320.422 177.725C319.589 176.725 319.172 175.342 319.172 173.575C319.172 171.808 319.564 170.442 320.347 169.475C321.13 168.492 322.255 168 323.722 168ZM323.772 170.975C323.422 170.975 323.18 171.217 323.047 171.7C322.914 172.167 322.847 172.808 322.847 173.625C322.847 174.425 322.914 175.067 323.047 175.55C323.18 176.033 323.422 176.275 323.772 176.275C324.122 176.275 324.364 176.042 324.497 175.575C324.63 175.092 324.697 174.442 324.697 173.625C324.697 172.792 324.63 172.142 324.497 171.675C324.364 171.208 324.122 170.975 323.772 170.975Z" fill="#19436D"></path> <path d="M256.2 152.345C255.061 152.345 254.179 152.032 253.554 151.407C252.938 150.772 252.63 149.778 252.63 148.425C252.63 147.492 252.789 146.731 253.106 146.143C253.423 145.555 253.862 145.121 254.422 144.841C254.991 144.561 255.645 144.421 256.382 144.421C256.905 144.421 257.357 144.472 257.74 144.575C258.132 144.678 258.473 144.799 258.762 144.939L258.146 146.549C257.819 146.418 257.511 146.311 257.222 146.227C256.942 146.143 256.662 146.101 256.382 146.101C255.299 146.101 254.758 146.871 254.758 148.411C254.758 149.176 254.898 149.741 255.178 150.105C255.467 150.469 255.869 150.651 256.382 150.651C256.821 150.651 257.208 150.595 257.544 150.483C257.88 150.362 258.207 150.198 258.524 149.993V151.771C258.207 151.976 257.871 152.121 257.516 152.205C257.171 152.298 256.732 152.345 256.2 152.345ZM265.295 144.561H267.591L264.567 148.229L267.857 152.205H265.491L262.369 148.327V152.205H260.283V144.561H262.369V148.271L265.295 144.561ZM270.967 147.585C270.967 147.744 270.958 147.94 270.939 148.173C270.93 148.406 270.916 148.644 270.897 148.887C270.888 149.13 270.874 149.344 270.855 149.531C270.837 149.718 270.823 149.848 270.813 149.923L274.341 144.561H276.847V152.205H274.831V149.153C274.831 148.901 274.841 148.626 274.859 148.327C274.878 148.019 274.897 147.734 274.915 147.473C274.943 147.202 274.962 146.997 274.971 146.857L271.457 152.205H268.951V144.561H270.967V147.585ZM285.902 144.561V150.679H287.022V154.949H285.146V152.205H280.008V154.949H278.132V150.679H278.776C279.112 150.166 279.396 149.582 279.63 148.929C279.863 148.266 280.05 147.562 280.19 146.815C280.33 146.068 280.432 145.317 280.498 144.561H285.902ZM282.248 146.129C282.136 146.978 281.982 147.786 281.786 148.551C281.59 149.307 281.314 150.016 280.96 150.679H283.816V146.129H282.248ZM293.336 144.561H295.632L292.608 148.229L295.898 152.205H293.532L290.41 148.327V152.205H288.324V144.561H290.41V148.271L293.336 144.561ZM300.128 144.407C301.155 144.407 301.939 144.631 302.48 145.079C303.031 145.518 303.306 146.194 303.306 147.109V152.205H301.85L301.444 151.169H301.388C301.062 151.58 300.716 151.878 300.352 152.065C299.988 152.252 299.489 152.345 298.854 152.345C298.173 152.345 297.608 152.149 297.16 151.757C296.712 151.356 296.488 150.744 296.488 149.923C296.488 149.111 296.773 148.514 297.342 148.131C297.912 147.739 298.766 147.524 299.904 147.487L301.234 147.445V147.109C301.234 146.708 301.127 146.414 300.912 146.227C300.707 146.04 300.418 145.947 300.044 145.947C299.671 145.947 299.307 146.003 298.952 146.115C298.598 146.218 298.243 146.348 297.888 146.507L297.202 145.093C297.613 144.878 298.066 144.71 298.56 144.589C299.064 144.468 299.587 144.407 300.128 144.407ZM300.422 148.691C299.75 148.71 299.284 148.831 299.022 149.055C298.761 149.279 298.63 149.573 298.63 149.937C298.63 150.254 298.724 150.483 298.91 150.623C299.097 150.754 299.34 150.819 299.638 150.819C300.086 150.819 300.464 150.688 300.772 150.427C301.08 150.156 301.234 149.778 301.234 149.293V148.663L300.422 148.691ZM315.952 144.561V150.679H317.072V154.949H315.196V152.205H310.058V154.949H308.182V150.679H308.826C309.162 150.166 309.447 149.582 309.68 148.929C309.914 148.266 310.1 147.562 310.24 146.815C310.38 146.068 310.483 145.317 310.548 144.561H315.952ZM312.298 146.129C312.186 146.978 312.032 147.786 311.836 148.551C311.64 149.307 311.365 150.016 311.01 150.679H313.866V146.129H312.298ZM325.319 148.369C325.319 149.638 324.983 150.618 324.311 151.309C323.649 152 322.743 152.345 321.595 152.345C320.886 152.345 320.251 152.191 319.691 151.883C319.141 151.575 318.707 151.127 318.389 150.539C318.072 149.942 317.913 149.218 317.913 148.369C317.913 147.1 318.245 146.124 318.907 145.443C319.57 144.762 320.48 144.421 321.637 144.421C322.356 144.421 322.991 144.575 323.541 144.883C324.092 145.191 324.526 145.639 324.843 146.227C325.161 146.806 325.319 147.52 325.319 148.369ZM320.041 148.369C320.041 149.125 320.163 149.699 320.405 150.091C320.657 150.474 321.063 150.665 321.623 150.665C322.174 150.665 322.571 150.474 322.813 150.091C323.065 149.699 323.191 149.125 323.191 148.369C323.191 147.613 323.065 147.048 322.813 146.675C322.571 146.292 322.169 146.101 321.609 146.101C321.059 146.101 320.657 146.292 320.405 146.675C320.163 147.048 320.041 147.613 320.041 148.369Z" fill="#19436D"></path> <path d="M343.391 175.625C342.259 175.4 341.113 175.206 339.953 175.052C310.5 171.148 283.363 191.934 279.46 221.386C279.306 222.547 279.194 223.703 279.116 224.855L343.391 175.625Z" fill="white"></path> <path d="M188.664 43L195.096 28.912H186.648V25.864H198.936V28.144L192.456 43H188.664ZM212.67 43H200.694V40.48L204.99 36.136C205.854 35.24 206.55 34.496 207.078 33.904C207.606 33.296 207.99 32.752 208.23 32.272C208.47 31.776 208.59 31.248 208.59 30.688C208.59 30 208.398 29.488 208.014 29.152C207.646 28.816 207.142 28.648 206.502 28.648C205.846 28.648 205.206 28.8 204.582 29.104C203.958 29.408 203.302 29.84 202.614 30.4L200.646 28.072C201.142 27.64 201.662 27.24 202.206 26.872C202.766 26.504 203.406 26.208 204.126 25.984C204.862 25.744 205.742 25.624 206.766 25.624C207.886 25.624 208.846 25.832 209.646 26.248C210.462 26.648 211.086 27.2 211.518 27.904C211.966 28.592 212.19 29.376 212.19 30.256C212.19 31.2 211.998 32.064 211.614 32.848C211.246 33.632 210.702 34.408 209.982 35.176C209.278 35.944 208.422 36.792 207.414 37.72L205.206 39.784V39.952H212.67V43ZM226.309 34.432C226.309 36.272 226.109 37.848 225.709 39.16C225.325 40.472 224.693 41.48 223.813 42.184C222.949 42.888 221.781 43.24 220.309 43.24C218.245 43.24 216.733 42.464 215.773 40.912C214.813 39.344 214.333 37.184 214.333 34.432C214.333 32.576 214.525 30.992 214.909 29.68C215.293 28.368 215.925 27.36 216.805 26.656C217.685 25.952 218.853 25.6 220.309 25.6C222.357 25.6 223.869 26.376 224.845 27.928C225.821 29.48 226.309 31.648 226.309 34.432ZM217.933 34.432C217.933 36.384 218.101 37.856 218.437 38.848C218.773 39.824 219.397 40.312 220.309 40.312C221.205 40.312 221.829 39.824 222.181 38.848C222.533 37.872 222.709 36.4 222.709 34.432C222.709 32.48 222.533 31.008 222.181 30.016C221.829 29.024 221.205 28.528 220.309 28.528C219.397 28.528 218.773 29.024 218.437 30.016C218.101 31.008 217.933 32.48 217.933 34.432ZM229.363 43V40.432H227.443V38.104H229.363V36.232H227.443V33.256H229.363V25.864H234.835C237.043 25.864 238.651 26.312 239.659 27.208C240.683 28.104 241.195 29.336 241.195 30.904C241.195 31.832 240.987 32.704 240.571 33.52C240.155 34.336 239.459 34.992 238.483 35.488C237.523 35.984 236.211 36.232 234.547 36.232H232.987V38.104H236.683V40.432H232.987V43H229.363ZM234.187 33.256C235.211 33.256 236.019 33.08 236.611 32.728C237.219 32.376 237.523 31.808 237.523 31.024C237.523 29.568 236.563 28.84 234.643 28.84H232.987V33.256H234.187Z" fill="white"></path> <line x1="179.021" y1="33.5002" x2="249.021" y2="34.5002" stroke="#FFE148" stroke-width="3"></line> <path d="M45.5419 74.256C50.2459 74.256 53.7019 75.248 55.9099 77.232C58.1499 79.184 59.2699 81.76 59.2699 84.96C59.2699 87.072 58.7099 89.024 57.5899 90.816C56.5019 92.576 54.8059 94.016 52.5019 95.136C50.1979 96.224 47.3339 96.768 43.9099 96.768C41.5419 96.768 39.1739 96.512 36.8059 96C34.4699 95.488 32.4219 94.736 30.6619 93.744L34.5019 85.392C35.9099 86.192 37.3819 86.8 38.9179 87.216C40.4859 87.632 42.0059 87.84 43.4779 87.84C44.7899 87.84 45.8459 87.616 46.6459 87.168C47.4779 86.688 47.8939 86.032 47.8939 85.2C47.8939 84.4 47.5259 83.808 46.7899 83.424C46.0539 83.008 44.7259 82.8 42.8059 82.8H33.0619L34.7419 62.4H57.0619V70.944H44.0539L43.8139 74.256H45.5419ZM89.4319 62.4V69.36L78.2479 96H65.8639L76.5199 71.184H70.0399V76.08H60.6799V62.4H89.4319ZM106.28 96.768C103.304 96.768 100.664 96.08 98.3599 94.704C96.0879 93.296 94.2959 91.28 92.9839 88.656C91.7039 86 91.0639 82.848 91.0639 79.2C91.0639 75.552 91.7039 72.416 92.9839 69.792C94.2959 67.136 96.0879 65.12 98.3599 63.744C100.664 62.336 103.304 61.632 106.28 61.632C109.256 61.632 111.88 62.336 114.152 63.744C116.456 65.12 118.248 67.136 119.528 69.792C120.84 72.416 121.496 75.552 121.496 79.2C121.496 82.848 120.84 86 119.528 88.656C118.248 91.28 116.456 93.296 114.152 94.704C111.88 96.08 109.256 96.768 106.28 96.768ZM106.28 87.696C108.84 87.696 110.12 84.864 110.12 79.2C110.12 73.536 108.84 70.704 106.28 70.704C103.72 70.704 102.44 73.536 102.44 79.2C102.44 84.864 103.72 87.696 106.28 87.696ZM139.994 85.248V87.744H150.074V93.12H139.994V96H128.666V93.12H124.346V87.744H128.666V62.4H144.842C149.642 62.4 153.386 63.36 156.074 65.28C158.794 67.168 160.154 70.016 160.154 73.824C160.154 77.632 158.794 80.496 156.074 82.416C153.386 84.304 149.642 85.248 144.842 85.248H139.994ZM148.73 73.968C148.73 73.04 148.378 72.336 147.674 71.856C146.97 71.376 145.978 71.136 144.698 71.136H139.994V76.8H144.698C145.978 76.8 146.97 76.56 147.674 76.08C148.378 75.6 148.73 74.896 148.73 73.968Z" fill="white"></path> </svg> 