<?xml version="1.0" encoding="UTF-8"?> <svg xmlns="http://www.w3.org/2000/svg" width="296" height="616" viewBox="0 0 296 616" fill="none"> <g clip-path="url(#clip0_467_2158)"> <rect width="296" height="616" rx="24" fill="white"></rect> <rect x="16" y="475" width="264" height="101" rx="18" fill="#F9E6F4"></rect> <path d="M-51 601.866C-21.9067 608.331 14.8654 607.684 41.6049 592.828C49.5024 588.441 49.9325 576.862 43.2296 570.794C31.9686 560.6 15.1394 558 0.582581 558C-4.16236 558 -23.1318 558.826 -11.6023 568.357C-3.5629 575.003 7.83673 578.032 17.4383 581.151C46.4719 590.583 75.8116 597.62 106.185 601.053C125.484 603.235 145.496 605.352 164.672 601.866" stroke="#FEBF72" stroke-width="4" stroke-linecap="round"></path> <path d="M235.363 596.346C237.137 600.336 239.157 604.117 241.18 607.98" stroke="#ACE1FF" stroke-width="2" stroke-linecap="round"></path> <path d="M278.578 587.204C279.66 588.589 280.614 589.497 281.902 590.528" stroke="#ACE1FF" stroke-width="2" stroke-linecap="round"></path> <path d="M279.406 470.031H286.885" stroke="#ACE1FF" stroke-width="2" stroke-linecap="round"></path> <path d="M283.562 355.351C285.589 354.917 287.431 354.339 289.38 353.689" stroke="#ACE1FF" stroke-width="2" stroke-linecap="round"></path> <path d="M271.502 115.965L279.006 111.087" stroke="#ACE1FF" stroke-width="2" stroke-linecap="round"></path> <path d="M227.652 100.288L221.471 110.144" stroke="#ACE1FF" stroke-width="2" stroke-linecap="round"></path> <path d="M79.1345 125.992C77.4876 123.752 76.1181 121.313 74.1484 119.344" stroke="#ACE1FF" stroke-width="2" stroke-linecap="round"></path> <path d="M13.4851 246.489C11.5819 245.104 9.60647 244.134 7.66797 243.165" stroke="#ACE1FF" stroke-width="2" stroke-linecap="round"></path> <path d="M12.6529 471.693C9.38426 471.693 6.69437 472.524 3.51172 472.524" stroke="#ACE1FF" stroke-width="2" stroke-linecap="round"></path> <path d="M8.49609 357.013H14.3132" stroke="#ACE1FF" stroke-width="2" stroke-linecap="round"></path> </g> <defs> <clipPath id="clip0_467_2158"> <rect width="296" height="616" rx="24" fill="white"></rect> </clipPath> </defs> </svg> 