<?xml version="1.0" encoding="UTF-8"?> <svg xmlns="http://www.w3.org/2000/svg" width="336" height="56" viewBox="0 0 336 56" fill="none"> <path fill-rule="evenodd" clip-rule="evenodd" d="M30.1328 13.8417C30.1328 12.5194 30.4849 11.4305 31.1878 10.5736C31.892 9.71716 32.923 9.28894 34.2812 9.28894C35.6404 9.28894 36.6833 9.71716 37.4111 10.5736C38.1393 11.4305 38.5029 12.5194 38.5029 13.8417V25.3691C38.5029 28.4033 38.1872 31.1451 37.5567 33.5926C36.9258 36.0405 35.9068 38.2797 34.4997 40.3115C33.0931 42.3428 31.1034 43.9217 28.5317 45.0474C25.96 46.173 22.903 46.7356 19.3607 46.7356C12.5189 46.7356 7.58194 44.7903 4.54845 40.8987C1.51586 37.0067 0 31.8792 0 25.516L0 13.8417C0 12.5194 0.375634 11.4305 1.12779 10.5736C1.88083 9.71716 2.9358 9.28894 4.29448 9.28894C5.70155 9.28894 6.79293 9.71716 7.56951 10.5736C8.34608 11.4305 8.73415 12.5194 8.73415 13.8417V25.8833C8.73415 34.5471 12.3 38.879 19.4331 38.879C26.5661 38.879 30.1328 34.4983 30.1328 25.7359V13.8417Z" fill="black"></path> <path fill-rule="evenodd" clip-rule="evenodd" d="M63.5721 46.7349C57.1073 46.7349 52.0505 45.1196 48.3989 41.8892C44.7474 38.6587 42.9211 34.1306 42.9211 28.3058C42.9211 22.4312 44.8224 17.7934 48.6227 14.391C52.4243 10.9885 57.6166 9.28772 64.2008 9.28772C69.2892 9.28772 73.1499 9.9726 75.7833 11.3433C78.3568 12.6651 79.1054 14.3058 78.0278 16.2633C77.0106 18.0259 75.0356 18.7726 72.1024 18.0389C69.0499 17.3047 65.6408 16.7036 63.6063 16.7036C60.1341 16.7036 57.4115 17.732 55.4352 19.7876C53.4597 21.8436 52.4727 24.6825 52.4727 28.3058C52.4727 31.732 53.5046 34.4245 55.5706 36.3819C57.6352 38.3403 60.3441 39.3194 63.696 39.3194C66.0905 39.3194 69.8278 38.6341 73.1792 37.263C76.0528 36.1374 78.0882 36.3819 79.2848 37.9971C80.6621 39.8574 80.0636 41.6437 77.4896 43.3579C74.0175 45.6092 69.3789 46.7349 63.5721 46.7349Z" fill="black"></path> <path fill-rule="evenodd" clip-rule="evenodd" d="M134.435 10.2116C135.284 9.40448 136.437 9 137.892 9C139.348 9 140.513 9.40448 141.387 10.2116C142.26 11.0197 142.697 12.1086 142.697 13.4797C142.697 14.8992 142.26 15.9998 141.387 16.7832C140.513 17.5666 139.348 17.9585 137.892 17.9585C136.437 17.9585 135.284 17.5787 134.435 16.8199C133.586 16.0611 133.162 14.9476 133.162 13.4797C133.162 12.1086 133.586 11.0197 134.435 10.2116Z" fill="black"></path> <path fill-rule="evenodd" clip-rule="evenodd" d="M125.567 10.5006C124.839 9.69252 123.821 9.28894 122.51 9.28894C121.2 9.28894 120.193 9.69252 119.49 10.5006C118.786 11.3077 118.434 12.3245 118.434 13.5478V23.4967H93.8161V13.5478C93.8161 12.3245 93.4525 11.3077 92.7239 10.5006C91.9966 9.69252 90.9776 9.28894 89.6668 9.28894C88.357 9.28894 87.35 9.69252 86.6467 10.5006C85.9429 11.3077 85.5908 12.3245 85.5908 13.5478V41.7431C85.5908 42.9672 85.9429 43.9831 86.6467 44.7903C87.35 45.5984 88.357 46.0019 89.6668 46.0019C90.9776 46.0019 91.9966 45.5984 92.7239 44.7903C93.4525 43.9831 93.8161 42.9672 93.8161 41.7431V31.7941H118.434V41.7431C118.434 42.9672 118.786 43.9831 119.49 44.7903C120.193 45.5984 121.2 46.0019 122.51 46.0019C123.821 46.0019 124.839 45.5984 125.567 44.7903C126.296 43.9831 126.659 42.9672 126.659 41.7431V13.5478C126.659 12.3245 126.296 11.3077 125.567 10.5006Z" fill="black"></path> <path fill-rule="evenodd" clip-rule="evenodd" d="M133.821 26.4762C133.821 25.2524 134.173 24.2361 134.877 23.4289C135.58 22.6209 136.587 22.2173 137.897 22.2173C139.208 22.2173 140.227 22.6209 140.954 23.4289C141.682 24.2361 142.046 25.2524 142.046 26.4762V41.7415C142.046 42.9657 141.682 43.9816 140.954 44.7888C140.227 45.5968 139.208 46.0004 137.897 46.0004C136.587 46.0004 135.58 45.5968 134.877 44.7888C134.173 43.9816 133.821 42.9657 133.821 41.7415V26.4762Z" fill="black"></path> <path fill-rule="evenodd" clip-rule="evenodd" d="M158 28C158 16.7643 158 11.1465 160.696 7.11088C161.864 5.36383 163.364 3.86382 165.111 2.69649C169.146 0 174.764 0 186 0H308C319.236 0 324.854 0 328.889 2.69649C330.636 3.86382 332.136 5.36383 333.304 7.11088C336 11.1465 336 16.7643 336 28C336 39.2357 336 44.8535 333.304 48.8891C332.136 50.6362 330.636 52.1362 328.889 53.3035C324.854 56 319.236 56 308 56H186C174.764 56 169.146 56 165.111 53.3035C163.364 52.1362 161.864 50.6362 160.696 48.8891C158 44.8535 158 39.2357 158 28ZM321.174 38.0009L317.076 30.6391L308.806 15.1867C308.001 13.7289 306.684 13 305.074 13C303.391 13 302.074 13.7289 301.196 15.1867L292.926 30.6391L288.828 38.0009C288.17 39.4587 288.316 41.5724 291.024 41.9369C293.219 42.3013 295.122 41.0622 296.073 38.8755L298.122 34.8667H311.807L313.856 38.8755C314.807 41.0622 316.71 42.3013 318.905 41.9369C321.686 41.4995 321.833 39.4587 321.174 38.0009ZM300.83 29.0356L304.708 21.528C304.781 21.3822 305.001 21.3822 305.074 21.528L308.88 29.0356C308.953 29.1813 308.88 29.3271 308.66 29.3271H300.976C300.83 29.3271 300.757 29.1813 300.83 29.0356ZM258.214 38.9793V23.754L264.93 32.0916C265.607 32.9372 266.463 33.3809 267.5 33.3809C268.492 33.3809 269.348 32.9372 270.025 32.0916L276.786 23.6329V38.9793C276.786 40.6305 278.365 42 280.394 42C282.422 42 284 40.6305 284 38.9793V16.5036C284 14.4096 282.467 13 279.988 13C279.221 13 278.5 13.1613 277.824 13.5231C276.516 14.2083 276.11 14.7322 274.804 16.4635L267.5 25.5L260.783 16.4234C259.656 15.094 258.754 14.1682 258.078 13.6843C257.402 13.2415 256.455 13 255.238 13C252.668 13 251 14.5308 251 16.6248V38.9793C251 40.6305 252.578 42 254.607 42C256.636 42 258.214 40.6305 258.214 38.9793ZM216.799 38.0346C213.6 35.3913 212.001 31.8663 212.001 27.5004C212.001 23.3747 213.6 19.8896 216.754 17.1258C219.907 14.362 223.974 13 229.001 13C233.983 13 238.05 14.3221 241.248 16.9654C244.402 19.6095 246.001 23.1345 246.001 27.5004C246.001 31.706 244.402 35.191 241.203 37.915C237.958 40.6389 233.891 42 229.001 42C224.02 42 219.952 40.6788 216.799 38.0346ZM222.375 21.3321C220.639 22.8944 219.77 24.9768 219.77 27.5004C219.77 29.9036 220.684 31.9062 222.467 33.5491C224.249 35.191 226.442 35.9921 229.001 35.9921C231.926 35.9921 234.211 35.191 235.81 33.5889C237.41 32.0267 238.233 29.9842 238.233 27.5004C238.233 24.9768 237.364 22.9342 235.582 21.372C233.8 19.8098 231.606 19.0087 229.001 19.0087C226.305 19.0087 224.111 19.7699 222.375 21.3321ZM201.924 16.2302C203.517 17.3787 204.821 18.9579 205.69 21.0396C206.631 23.0495 207.066 24.7723 206.993 27.5718C206.993 33.0272 205.473 35.8267 202.359 38.2673C199.245 40.7079 195.118 41.9282 190.049 41.9282L179.332 42C178.246 42 177.449 41.7129 176.87 41.0668C176.291 40.4208 176.001 39.6312 176.001 38.6262V16.5173C176.001 15.5842 176.291 14.7228 176.87 14.0767C177.449 13.4307 178.246 13.1436 179.332 13.1436L189.976 13C192.438 13 194.611 13.2871 196.566 13.7896C198.521 14.2921 200.331 15.0817 201.924 16.2302ZM183.315 34.9653H190.339C197.29 34.9653 200.766 33.2426 200.693 27.5718C200.693 21.8292 197.218 19.7475 190.194 19.7475H182.88C182.735 19.7475 182.59 19.8911 182.59 20.0347V34.2475C182.59 34.6782 182.953 34.9653 183.315 34.9653Z" fill="black"></path> </svg> 