<?xml version="1.0" encoding="UTF-8"?> <svg xmlns="http://www.w3.org/2000/svg" width="199" height="43" viewBox="0 0 199 43" fill="none"> <path fill-rule="evenodd" clip-rule="evenodd" d="M130.191 17.2584C134.937 15.6943 139.527 13.7364 144.441 11.5595C145.132 11.2534 145.833 10.9415 146.542 10.6255C153.075 7.7164 160.4 4.45496 168.571 2.0824C168.724 2.03777 168.894 1.98766 169.079 1.93317C171.003 1.36646 174.533 0.326407 177.912 0.0630663C181.298 -0.200907 189.762 -0.0017445 194.094 8.18237C197.794 15.1721 197.903 23.0514 197.962 27.3479C197.971 27.9675 197.979 28.5126 197.996 28.9698C198.234 35.3167 193.281 40.6546 186.935 40.8925C180.588 41.1304 175.25 36.1782 175.012 29.8314C174.974 28.8217 174.944 27.9171 174.918 27.1017C174.881 25.9885 174.85 25.0416 174.811 24.2205C168.298 26.1274 162.443 28.7297 155.783 31.6889C155.116 31.9854 154.441 32.2856 153.756 32.589C146.382 35.8551 138.097 39.3973 128.384 41.6264C120.986 43.324 115.82 39.0129 113.504 36.105C111.328 33.3713 110.084 30.1824 109.372 28.0874C108.925 26.7718 108.55 25.4583 108.242 24.2826C107.36 24.5568 106.354 24.9077 105.2 25.3421C105.22 25.3344 105.203 25.3414 105.14 25.3681C105.015 25.42 104.713 25.5466 104.158 25.7852C103.435 26.096 102.489 26.5074 101.376 26.9928C100.991 27.1603 100.589 27.3359 100.171 27.5182C98.1875 28.3835 95.8634 29.3973 93.5709 30.3855C90.8119 31.5747 87.998 32.7702 85.8048 33.6521C84.7338 34.0827 83.6555 34.5015 82.7516 34.8136C82.3397 34.9558 81.6965 35.1699 81.0002 35.3414C80.6946 35.4167 79.9887 35.5834 79.1067 35.6666C78.6774 35.7071 77.8368 35.7658 76.7918 35.6594C76.0069 35.5795 73.5652 35.2784 71.1104 33.4766C68.5713 31.6129 67.0122 29.1523 66.2001 26.7255C65.9451 25.9632 65.7701 25.2259 65.6519 24.5342C64.6623 24.6954 63.5982 24.8831 62.4622 25.096C57.9273 25.9461 52.8457 27.0803 47.5099 28.2711C45.8022 28.6523 44.0685 29.0392 42.3183 29.4245C35.3849 30.9509 28.063 32.4815 22.1964 33.1262C19.3491 33.4392 16.067 33.6405 13.0513 33.2451C11.5428 33.0474 9.44008 32.6222 7.31198 31.5349C5.06114 30.3848 2.27725 28.2044 0.802748 24.458C-1.5233 18.5479 1.38208 11.8713 7.29208 9.54526C10.7848 8.17062 14.5452 8.62307 17.5172 10.443C18.1133 10.4147 18.8327 10.3574 19.6839 10.2639C24.1399 9.77418 30.2971 8.52021 37.3733 6.96238C38.9477 6.61577 40.5657 6.25455 42.203 5.88904C47.6274 4.67802 53.2631 3.41987 58.2244 2.4898C61.4816 1.87921 64.7053 1.35909 67.6121 1.07586C70.2719 0.816694 73.6626 0.642351 76.798 1.26582C78.8816 1.68014 81.2526 2.52733 83.4347 4.2124C84.9275 5.36515 86.0933 6.72688 86.9646 8.1832C88.3574 7.57847 89.7151 6.9862 90.9604 6.44295C91.3822 6.25895 91.7911 6.08057 92.1841 5.90923L92.3192 5.85036C94.278 4.99639 96.2713 4.12736 97.0971 3.81652C101.084 2.31591 106.456 0.501465 111.732 0.571201C114.609 0.609222 118.014 1.20133 121.279 3.146C124.644 5.14962 126.994 8.074 128.479 11.3265C128.871 12.1845 129.108 12.9607 129.208 13.2998C129.337 13.7315 129.446 14.1546 129.531 14.4949C129.648 14.9609 129.785 15.5426 129.908 16.0694C129.954 16.2628 129.997 16.4489 130.038 16.6191C130.089 16.8341 130.14 17.0473 130.191 17.2584ZM75.1433 13.1071C75.1433 13.107 75.1507 13.1046 75.1647 13.1002C75.1502 13.105 75.1432 13.1072 75.1433 13.1071ZM107.129 19.7408C107.129 19.7385 107.139 19.7705 107.159 19.8438C107.139 19.7797 107.129 19.7431 107.129 19.7408ZM179.769 22.9904C179.768 22.991 179.748 22.9925 179.709 22.9927C179.75 22.9898 179.769 22.9897 179.769 22.9904Z" fill="#CA7FFE"></path> </svg> 