<?xml version="1.0" encoding="UTF-8"?> <svg xmlns="http://www.w3.org/2000/svg" width="21" height="31" viewBox="0 0 21 31" fill="none"> <path fill-rule="evenodd" clip-rule="evenodd" d="M6.00371 3.71933C14.0695 -1.65785 23.7261 0.445232 31.3429 4.5801C33.8005 5.91422 35.4612 7.71656 36.3926 9.80122C37.3183 11.8731 37.4786 14.1216 37.1149 16.2955C36.3944 20.6016 33.5935 24.8085 30.0633 27.3846C25.5368 30.6877 20.5811 30.6804 15.8631 30.6733C15.6463 30.673 15.4301 30.6727 15.2145 30.6727C13.6091 30.6727 12.3648 30.4035 11.2312 29.6073C10.2262 28.9015 9.40667 27.832 8.48593 26.6305L8.43813 26.5681C8.08877 26.1123 7.70431 25.6231 7.29969 25.1083C6.25039 23.7731 5.06549 22.2654 4.00538 20.7195C2.53367 18.5734 1.16713 16.17 0.614486 13.7291C0.165623 11.7466 1.12085 9.8764 2.01901 8.52396C2.49295 7.81029 3.02362 7.13679 3.49426 6.55065C3.5728 6.45284 3.64896 6.3583 3.72268 6.26678C4.1096 5.78646 4.42961 5.3892 4.67695 5.03674C4.86609 4.76722 5.12783 4.57892 5.41716 4.47974C5.52019 4.17932 5.71906 3.9091 6.00371 3.71933ZM7.32365 6.38623C7.27892 6.5161 7.21547 6.64196 7.13262 6.76002C6.82258 7.20183 6.42651 7.69308 6.04241 8.16947C5.97217 8.2566 5.90233 8.34322 5.83348 8.42896C5.36809 9.00856 4.91124 9.59164 4.51812 10.1836C3.68212 11.4425 3.3849 12.3797 3.54043 13.0666C3.96562 14.9446 5.07161 16.9698 6.4795 19.0228C7.48087 20.483 8.56663 21.8645 9.59555 23.1736C10.0162 23.7087 10.4273 24.2318 10.8192 24.7432C11.8525 26.0914 12.3904 26.7555 12.9554 27.1523C13.409 27.4709 13.9709 27.6727 15.2145 27.6727C15.3353 27.6727 15.4555 27.6727 15.5752 27.6728C20.5311 27.6743 24.5751 27.6756 28.2949 24.9612C31.2595 22.7978 33.5783 19.2536 34.156 15.8004C34.4414 14.0947 34.2953 12.4614 33.6536 11.025C33.0175 9.60131 31.8496 8.26869 29.9116 7.21666C22.6875 3.29499 14.3609 1.75343 7.66781 6.21548C7.55825 6.28852 7.44257 6.34525 7.32365 6.38623Z" fill="#FF9B71"></path> </svg> 