<?xml version="1.0" encoding="UTF-8"?> <svg xmlns="http://www.w3.org/2000/svg" width="21" height="44" viewBox="0 0 21 44" fill="none"> <path fill-rule="evenodd" clip-rule="evenodd" d="M6.26528 2.99423C6.82072 1.14275 8.77191 0.0921104 10.6234 0.647553C18.9243 3.13784 27.9489 6.39113 33.7822 12.0004C36.7904 14.893 39.0242 18.4758 39.8351 22.9068C40.64 27.3049 39.9834 32.2102 37.7967 37.677C36.6979 40.424 34.1656 41.7933 32.0397 42.4912C29.822 43.2193 27.2535 43.4905 24.8378 43.5286C20.0982 43.6034 14.8432 42.7822 12.197 41.6745C9.46441 40.5306 7.07357 38.4955 5.2348 36.2649C3.3895 34.0264 1.91611 31.3689 1.17867 28.7352C-0.441364 22.9493 1.02084 18.0584 3.64322 14.0172C5.194 11.6274 7.19498 9.47019 9.21081 7.53311C9.01174 7.47264 8.81211 7.41238 8.61195 7.35234C6.76048 6.79689 5.70984 4.8457 6.26528 2.99423ZM16.7699 10.0882C13.881 12.681 11.2682 15.1262 9.51523 17.8276C7.71935 20.5951 6.96132 23.426 7.91942 26.8478C8.35424 28.4007 9.31007 30.2037 10.6362 31.8124C11.9688 33.429 13.4915 34.6278 14.8999 35.2174C16.3238 35.8134 20.5128 36.596 24.7274 36.5295C26.7888 36.4969 28.5749 36.2612 29.8563 35.8405C31.0491 35.4489 31.2899 35.0796 31.304 35.0606C33.1341 30.4789 33.4569 26.9397 32.9495 24.1669C32.4474 21.4237 31.0745 19.1078 28.9303 17.0461C25.9806 14.2096 21.729 11.9915 16.7699 10.0882Z" fill="#FF9B71"></path> </svg> 