<?xml version="1.0" encoding="UTF-8"?> <svg xmlns="http://www.w3.org/2000/svg" width="45" height="38" viewBox="0 0 45 38" fill="none"> <path fill-rule="evenodd" clip-rule="evenodd" d="M7.87187 4.0361C17.5391 -2.40872 28.7473 0.349463 36.8223 4.73306C39.8862 6.39628 42.1219 8.74664 43.3978 11.6025C44.6547 14.4157 44.8316 17.382 44.3765 20.1019C43.4896 25.4033 40.1262 30.3831 35.9361 33.4408C30.4564 37.4395 24.4255 37.419 19.8446 37.4035C19.5656 37.4026 19.2919 37.4016 19.0241 37.4016C16.9967 37.4016 14.9562 37.0538 13.0292 35.7005C11.5687 34.6748 10.4468 33.2054 9.6267 32.1314C9.57311 32.0612 9.52081 31.9928 9.46979 31.9262C9.16705 31.5312 8.81415 31.0821 8.43035 30.5938C7.36378 29.2366 6.05862 27.5759 4.92851 25.9279C3.38234 23.6733 1.71184 20.8286 1.0105 17.731C0.219406 14.237 1.94232 11.2783 2.91299 9.81664C3.48122 8.96099 4.098 8.182 4.57477 7.58825C4.66484 7.47607 4.74803 7.37269 4.82511 7.27692C5.21333 6.79452 5.44627 6.50506 5.62161 6.25519C5.92269 5.82615 6.27897 5.45886 6.6741 5.15617C7.00013 4.73037 7.40075 4.35018 7.87187 4.0361ZM13.6673 12.1952C13.3095 12.6876 12.8915 13.2055 12.5579 13.6188C12.4924 13.7 12.4301 13.7771 12.3722 13.8493C11.9129 14.4212 11.5422 14.8988 11.2433 15.3488C11.0654 15.6168 10.9514 15.8188 10.8806 15.9609C11.2327 17.1151 11.9963 18.5527 13.1756 20.2723C14.1098 21.6346 15.0843 22.8743 16.0833 24.1449C16.5202 24.7008 16.9618 25.2625 17.4068 25.8431C17.9211 26.5141 18.2394 26.923 18.508 27.2304C18.5654 27.2961 18.6135 27.3487 18.6528 27.3905C18.7408 27.3966 18.8623 27.4016 19.0241 27.4016C24.391 27.4016 27.3108 27.3555 30.0414 25.3629C32.3461 23.6811 34.1023 20.9098 34.5136 18.4518C34.7076 17.2922 34.5781 16.3767 34.2676 15.6816C33.9761 15.0291 33.3831 14.2445 32.0514 13.5216C25.3949 9.90806 18.7297 8.9916 13.6673 12.1952Z" fill="#FF9B71"></path> </svg> 