<?xml version="1.0" encoding="UTF-8"?> <svg xmlns="http://www.w3.org/2000/svg" width="228" height="60" viewBox="0 0 228 60" fill="none"> <path fill-rule="evenodd" clip-rule="evenodd" d="M43.3614 1.95724C48.3453 0.168199 55.2338 0 57.5839 0C72.5027 0 91.2746 2.59303 104.258 14.346C109.502 19.0937 111.816 26.5533 110.589 33.3367C128.11 37.715 145.812 41.0509 163.86 43.0911C183.284 45.2869 202.429 47.2662 220.6 43.9623C223.86 43.3695 226.984 45.5319 227.577 48.7922C228.169 52.0524 226.007 55.1759 222.747 55.7687C202.566 59.4379 181.687 57.1828 162.512 55.0152C142.732 52.7793 123.412 49.0419 104.364 44.1374C103.505 44.8479 102.557 45.497 101.52 46.0733C73.0257 61.9036 34.5925 62.3655 4.6997 55.7226C1.4649 55.0038 -0.574682 51.7987 0.144163 48.5639C0.863007 45.3291 4.06807 43.2895 7.30287 44.0084C32.6504 49.6412 63.4693 49.5599 87.577 39.5019C82.5657 38.0268 77.5699 36.4767 72.5859 34.8577C71.479 34.4982 70.3131 34.1314 69.1022 33.7506C60.4889 31.0415 49.6041 27.6181 41.5761 20.9816C39.8617 19.5644 38.3581 18.0264 37.3083 16.3211C36.236 14.5792 35.4333 12.3066 35.8498 9.75227C36.269 7.18195 37.7509 5.37497 39.1515 4.23617C40.5074 3.13382 42.0455 2.42961 43.3614 1.95724ZM98.8882 30.2535C99.1384 27.8521 98.3613 25.195 96.2042 23.2422C86.665 14.6068 71.7786 12 57.5839 12C56.5417 12 54.6725 12.0465 52.6534 12.2483C51.8168 12.3319 51.0144 12.4366 50.2722 12.5609C56.2475 17.0582 64.1921 19.5861 72.5674 22.2509C73.8016 22.6437 75.0452 23.0394 76.2933 23.4448C83.8068 25.8855 91.3339 28.1619 98.8882 30.2535Z" fill="#FEBF72"></path> </svg> 