<?xml version="1.0" encoding="UTF-8"?> <svg xmlns="http://www.w3.org/2000/svg" width="124" height="81" viewBox="0 0 124 81" fill="none"> <path fill-rule="evenodd" clip-rule="evenodd" d="M121.757 0.607188C123.907 1.85323 124.64 4.60654 123.394 6.7569C122.15 8.9043 120.928 12.148 119.388 16.2361L119.287 16.5042C117.779 20.5084 116.021 25.1248 113.822 29.1385C111.668 33.0718 108.734 37.113 104.513 39.2672C101.355 40.8793 97.9119 41.2288 94.2966 40.3198C94.1366 41.8736 93.887 43.442 93.4976 44.9584C92.3696 49.3504 89.9421 53.7951 84.8223 56.3678C82.1476 57.7118 78.5667 58.2363 75.1286 58.3215C71.5593 58.41 67.5858 58.0361 63.8105 57.1898C60.1886 56.3779 56.5006 55.0758 53.4866 53.1316C52.9473 56.0288 52.276 59.0125 51.4373 61.8785C50.1221 66.373 48.298 70.9314 45.6781 74.4546C43.0148 78.0362 39.1501 81.0007 33.9193 81.0007C23.7128 81.0007 16.8032 73.7173 12.034 66.5304C9.58317 62.8371 7.4737 58.8317 5.61972 55.1726C5.1881 54.3208 4.77381 53.4951 4.37339 52.6971C3.00479 49.9695 1.79816 47.5648 0.615236 45.54C-0.638455 43.3941 0.0848224 40.6382 2.23072 39.3845C4.37662 38.1308 7.13253 38.8541 8.38622 41C9.72858 43.2976 11.1123 46.0566 12.5051 48.8338C12.8856 49.5925 13.2668 50.3525 13.648 51.1049C15.4776 54.7158 17.3905 58.3253 19.5331 61.554C23.9508 68.2113 28.5124 72.0007 33.9193 72.0007C35.3232 72.0007 36.8049 71.3046 38.456 69.0842C40.1504 66.8056 41.6085 63.4209 42.7996 59.3508C45.1676 51.2585 46.0962 41.8493 46.5224 36.8851C46.5186 36.9288 46.5244 36.6883 46.5367 36.178C46.5451 35.8299 46.5565 35.3563 46.57 34.7618C46.5773 34.4386 46.585 34.0944 46.593 33.7377C46.6174 32.6537 46.6443 31.4539 46.6705 30.3745C46.7044 28.9762 46.7393 27.6771 46.7683 27.1258C46.7723 27.0512 46.7779 26.954 46.7859 26.8556C46.7897 26.8094 46.7969 26.7257 46.8092 26.6265C46.8153 26.5773 46.8263 26.4939 46.8441 26.3923C46.856 26.3237 46.8965 26.0929 46.9857 25.8089C47.0262 25.68 47.1299 25.3647 47.3321 24.995C47.3342 24.9911 47.3367 24.9866 47.3395 24.9814C47.4508 24.7763 48.088 23.6016 49.5684 22.9924C50.3026 22.7614 51.8692 22.6923 52.6544 22.8684C53.2701 23.1171 54.2218 23.7473 54.5678 24.0797C55.1712 24.7247 55.4228 25.3836 55.4847 25.5455L55.4863 25.5497C55.6483 25.9739 55.708 26.3328 55.7207 26.4089L55.7219 26.4158C55.744 26.5471 55.7559 26.6534 55.7617 26.7094C55.7812 26.896 55.7871 27.0665 55.7891 27.1235L55.7892 27.1276C55.7995 27.4262 55.8031 27.9688 55.8031 28.7315C55.8031 30.3429 55.7405 32.0668 55.6812 33.7012C55.6526 34.4888 55.6247 35.2557 55.605 35.9792C55.5411 38.3261 55.549 40.4713 55.7743 42.4543C55.8561 43.1744 56.3619 44.2314 58.202 45.4614C60.0307 46.6837 62.6816 47.7134 65.7791 48.4078C68.8387 49.0936 72.0762 49.3944 74.9055 49.3243C77.8661 49.2509 79.8711 48.7834 80.7813 48.326C82.8536 47.2847 84.0663 45.5001 84.7805 42.7196C85.3985 40.3133 85.5418 37.5468 85.5735 34.5451C85.313 34.0543 85.1052 33.561 84.9431 33.0818C84.3483 31.3243 84.268 29.4959 84.5546 28.0509C84.6304 27.669 84.7533 27.2028 84.9637 26.7185C85.1348 26.3246 85.5528 25.4672 86.4456 24.7549C86.9371 24.3627 87.6677 23.9416 88.6254 23.7872C89.6231 23.6262 90.5721 23.8036 91.361 24.1772C92.75 24.8349 93.3917 25.9585 93.611 26.3779C94.1184 27.349 94.309 28.4303 94.4083 29.2068C94.4726 29.7096 94.5191 30.2703 94.5477 30.8908C97.4061 32.2191 99.1628 31.8935 100.422 31.251C102.194 30.3464 104.04 28.264 105.929 24.8148C107.774 21.446 109.324 17.4211 110.865 13.3313C110.955 13.0938 111.044 12.855 111.134 12.6154C112.516 8.94104 113.976 5.06017 115.607 2.24459C116.853 0.0942421 119.607 -0.63885 121.757 0.607188ZM85.43 30.0417C85.4301 30.0415 85.4319 30.0481 85.435 30.0621C85.4314 30.049 85.4299 30.042 85.43 30.0417ZM46.7946 27.4393C46.7946 27.4408 46.7947 27.4424 46.7948 27.444C46.7938 27.4234 46.7939 27.4197 46.7946 27.4393Z" fill="#CA7FFE"></path> </svg> 