<?xml version="1.0" encoding="UTF-8"?> <svg xmlns="http://www.w3.org/2000/svg" width="587" height="436" viewBox="0 0 587 436" fill="none"> <rect width="587" height="436" rx="40" fill="white"></rect> <rect x="32" y="277" width="255" height="109" rx="20" fill="#E6ECF9"></rect> <g clip-path="url(#clip0_467_2205)"> <path fill-rule="evenodd" clip-rule="evenodd" d="M2.86786 369.369C7.57936 367.678 14.2279 367.5 16.5835 367.5C31.4119 367.5 49.6981 370.095 62.2506 381.458C67.5027 386.213 69.5488 393.831 67.8032 400.434C85.844 405.003 104.081 408.478 122.691 410.582C142.084 412.774 161.446 414.788 179.868 411.438C182.313 410.994 184.656 412.615 185.1 415.061C185.545 417.506 183.923 419.848 181.478 420.293C161.549 423.916 140.886 421.696 121.68 419.525C101.713 417.268 82.208 413.474 62.9707 408.487C62.0364 409.338 60.9776 410.103 59.7913 410.762C31.7356 426.349 -6.28231 426.857 -35.9752 420.258C-38.4013 419.719 -39.931 417.315 -39.3919 414.889C-38.8527 412.463 -36.4489 410.934 -34.0228 411.473C-7.17013 417.44 25.9286 417.086 50.9309 405.203C44.6145 403.397 38.3229 401.469 32.049 399.431C30.9218 399.065 29.7432 398.694 28.5266 398.31C19.8829 395.588 9.31344 392.259 1.53152 385.825C-0.114555 384.465 -1.48345 383.047 -2.41465 381.535C-3.36277 379.995 -4.01133 378.087 -3.67003 375.994C-3.32678 373.889 -2.11101 372.383 -0.902527 371.4C0.272335 370.445 1.63752 369.811 2.86786 369.369ZM59.0509 398.129C60.0003 394.846 59.2023 390.838 56.2105 388.13C46.2409 379.105 30.8688 376.5 16.5835 376.5C14.2315 376.5 9.14727 376.728 6.05394 377.789C6.35788 378.099 6.75391 378.466 7.26584 378.889C13.5846 384.112 22.2847 386.877 31.1234 389.685C32.3581 390.077 33.5955 390.471 34.8295 390.871C42.8802 393.487 50.9486 395.914 59.0509 398.129Z" fill="#FEBF72"></path> </g> <path d="M40 162.194C28.3041 163.076 27.682 170.516 27.682 183C24.8203 167.868 24.447 164.337 13 162.194C23.2135 160.9 25.0907 154.778 25.2969 142.703C25.2761 141.813 25.2847 140.911 25.318 140C25.318 140.932 25.3118 141.833 25.2969 142.703C25.5094 151.785 28.781 159.552 40 162.194Z" fill="#FFFF33"></path> <path d="M211.592 412.969C210.994 417.284 210.118 421.017 208.902 425.07" stroke="#ACE1FF" stroke-width="3" stroke-linecap="round"></path> <path d="M285.547 412.969C286.278 416.717 287.059 420.194 288.236 423.726" stroke="#ACE1FF" stroke-width="3" stroke-linecap="round"></path> <path d="M411.938 411.624C413.199 414.856 414.069 418.183 415.971 421.036" stroke="#ACE1FF" stroke-width="3" stroke-linecap="round"></path> <path d="M526.23 410.279C528.162 413.369 530.68 418.485 534.298 419.691" stroke="#ACE1FF" stroke-width="3" stroke-linecap="round"></path> <path d="M570.602 330.948C573.867 331.683 577.171 331.985 578.669 334.982" stroke="#ACE1FF" stroke-width="3" stroke-linecap="round"></path> <path d="M559.844 259.684C563.661 255.983 566.544 254.99 570.601 252.961" stroke="#ACE1FF" stroke-width="3" stroke-linecap="round"></path> <path d="M541.02 101.022C544.131 98.6643 547.229 96.4342 550.432 94.2988" stroke="#ACE1FF" stroke-width="3" stroke-linecap="round"></path> <path d="M503.371 43.2041C504.377 39.6208 505.256 36.0657 506.06 32.4473" stroke="#ACE1FF" stroke-width="3" stroke-linecap="round"></path> <path d="M378.324 20.3457V28.4133" stroke="#ACE1FF" stroke-width="3" stroke-linecap="round"></path> <path d="M219.661 29.7578C219.661 25.7106 219.542 22.6785 218.316 19.001" stroke="#ACE1FF" stroke-width="3" stroke-linecap="round"></path> <path d="M65.0307 27.0686C63.7361 23.9462 62.9986 20.1164 59.6523 19.001" stroke="#ACE1FF" stroke-width="3" stroke-linecap="round"></path> <path d="M22.0059 134.637C18.6371 134.552 15.7681 133.292 12.5938 133.292" stroke="#ACE1FF" stroke-width="3" stroke-linecap="round"></path> <path d="M24.6956 277.164H17.9727" stroke="#ACE1FF" stroke-width="3" stroke-linecap="round"></path> <defs> <clipPath id="clip0_467_2205"> <path d="M0 367H185V424H13C5.8203 424 0 418.18 0 411V367Z" fill="white"></path> </clipPath> </defs> </svg> 