<?xml version="1.0" encoding="UTF-8"?> <svg xmlns="http://www.w3.org/2000/svg" width="184" height="181" viewBox="0 0 184 181" fill="none"> <path d="M112.441 145.513C122.145 145.347 151.745 128.299 164.054 120.888C176.364 113.477 183.735 100.008 170.648 94.3417C157.561 88.6754 153.106 88.7769 153.106 88.7769L147.517 90.2071L139.64 91.795C140.197 91.1709 141.609 89.4294 144.667 85.4728C151.193 77.028 151.927 61.1051 143.564 46.1438C135.201 31.1825 120.602 28.3616 112.63 21.5502C104.659 14.7387 77.5671 23.3097 59.3885 34.8998C41.2098 46.4899 35.8334 63.2729 34.0364 65.645C32.2393 68.0171 25.2642 92.8582 24.1338 97.4091C23.0035 101.96 25.3085 121.859 45.4253 138.129C65.542 154.399 100.31 145.721 112.441 145.513Z" fill="url(#paint0_linear_464_1705)"></path> <path d="M111.101 75.5425C104.246 73.8962 101.446 73.0703 99.0548 79.2756C98.2234 81.4332 98.3093 83.4638 97.7466 85.7295C97.2422 87.7603 99.3434 90.663 100.399 92.4169C101.88 94.8757 105.79 94.7615 108.374 94.1832C115.199 92.6556 123.586 90.2373 128.023 83.8983C133.609 75.916 134.493 64.3447 129.386 55.8625C122.894 45.0789 110.099 42.8698 99.0995 46.6252C88.9201 50.1007 83.7874 58.8328 80.1177 68.356C76.624 77.4225 72.1076 86.4931 77.4914 95.4351C80.5707 100.55 84.6562 107.754 91.5246 108.191C97.9805 108.602 104.507 108.85 110.926 109.259C118.056 109.713 127.49 102.642 132.478 98.2142C139.33 92.1328 145.086 86.0983 148.049 77.1635C151.04 68.1458 149.47 57.1361 144.683 49.1854C139.728 40.9569 134.378 33.7111 125.763 29.0263C117.306 24.4273 109.764 19.1797 99.8593 19.7255C87.0117 20.4335 74.6159 25.6522 63.7215 32.2116C59.2172 34.9235 53.732 37.2917 50.2136 41.2888C45.3364 46.8295 40.5694 52.779 37.0095 59.2834C35.2839 62.4361 34.4789 65.7637 32.9311 68.9075C31.6028 71.6053 31.1578 74.7596 30.0306 77.5649C28.6878 80.9064 26.959 84.1345 25.713 87.5047C23.2906 94.0572 24.787 103.919 26.24 110.41C27.9494 118.047 33.2904 125.112 37.9331 131.186C42.9802 137.789 53.0595 142.536 60.7474 145.266C74.1313 150.018 90.6184 148.57 104.348 146.101C116.601 143.897 127.874 140.03 139.308 135.225C146.048 132.393 152.129 128.03 158.414 124.323C160.503 123.09 164.005 122.606 165.093 120.301" stroke="black" stroke-width="3" stroke-linecap="round"></path> <path d="M171.07 94.2952C165.282 92.7655 158.607 87.892 152.407 88.963C150.128 89.3567 142.355 92.5589 140.869 91.6169" stroke="black" stroke-width="3" stroke-linecap="round"></path> <path d="M89.7172 49.0108C85.0395 39.2362 76.2687 38.1485 66.3153 38.3755" stroke="black" stroke-width="3" stroke-linecap="round"></path> <path d="M76.9311 75.2541C69.365 70.658 60.0011 67.6761 52.0654 72.4541" stroke="black" stroke-width="3" stroke-linecap="round"></path> <path d="M79.9176 98.1812C72.378 101.103 62.9756 106.198 60.871 114.671C59.4925 120.221 59.1171 126.407 61.4647 131.699" stroke="black" stroke-width="3" stroke-linecap="round"></path> <path d="M106.047 109.493C103.524 119.651 100.673 137.391 109.734 145.134" stroke="black" stroke-width="3" stroke-linecap="round"></path> <path d="M140.867 91.6169C138.782 100.375 137.772 109.575 142.61 117.611C143.701 119.423 144.664 121.874 146.465 123.016C148.304 124.182 152.16 125.773 153.182 127.471" stroke="black" stroke-width="3" stroke-linecap="round"></path> <defs> <linearGradient id="paint0_linear_464_1705" x1="58.1614" y1="35.6012" x2="124.035" y2="145.01" gradientUnits="userSpaceOnUse"> <stop stop-color="#F9E6F4"></stop> <stop offset="0.703125" stop-color="#FEB7EC"></stop> <stop offset="1" stop-color="#FF75DB"></stop> </linearGradient> </defs> </svg> 