<?xml version="1.0" encoding="UTF-8"?> <svg xmlns="http://www.w3.org/2000/svg" width="1136" height="512" viewBox="0 0 1136 512" fill="none"> <rect width="1136" height="512" rx="30" fill="white"></rect> <path d="M999 442.677C1030.62 440.358 1032.3 420.806 1032.3 388C1040.04 427.765 1041.05 437.044 1072 442.677C1044.39 446.078 1039.31 462.165 1038.75 493.897C1038.81 496.235 1038.79 498.605 1038.7 501C1038.7 498.55 1038.71 496.183 1038.75 493.897C1038.18 470.031 1029.33 449.619 999 442.677Z" fill="#FFFF33"></path> <path d="M7 163.452C24.7604 162.117 25.7051 150.871 25.7051 132C30.0507 154.874 30.6175 160.211 48 163.452C32.4906 165.407 29.64 174.661 29.3269 192.914C29.3585 194.259 29.3455 195.623 29.2949 197C29.2949 195.591 29.3043 194.229 29.3269 192.914C29.0043 179.186 24.0363 167.445 7 163.452Z" fill="#FFFF33"></path> <path d="M937.5 148.519C946.352 163.151 956.369 192.384 977.71 192.384C995.847 192.384 999.897 153.726 1001.06 140.599C1001.12 139.997 1001.47 121.069 1001.47 129.328C1001.47 135.445 1000.75 142.029 1001.47 148.113C1003.04 161.465 1034.72 165.256 1044.52 160.5C1054.35 155.73 1054.47 144.055 1054.47 134.303C1054.47 121.911 1049.81 133.301 1056.3 136.74C1080.62 149.616 1086.46 111.053 1094.68 97.3423" stroke="#CA7FFE" stroke-width="12" stroke-linecap="round"></path> <path d="M27 461.866C56.0933 468.331 92.8654 467.684 119.605 452.828C127.502 448.441 127.933 436.862 121.23 430.794C109.969 420.6 93.1394 418 78.5826 418C73.8376 418 54.8682 418.826 66.3977 428.357C74.4371 435.003 85.8367 438.032 95.4383 441.151C124.472 450.583 153.812 457.62 184.185 461.053C203.484 463.235 223.496 465.352 242.672 461.866" stroke="#FEBF72" stroke-width="12" stroke-linecap="round"></path> <path d="M369.758 492.213C373.103 484.037 379.879 475.878 379.879 466.91" stroke="#ACE1FF" stroke-width="4" stroke-linecap="round"></path> <path d="M514.83 490.526C513.032 481.938 510.195 473.676 508.082 465.223" stroke="#ACE1FF" stroke-width="4" stroke-linecap="round"></path> <path d="M693.636 490.526C687.69 482.915 684.899 476.124 681.828 466.91" stroke="#ACE1FF" stroke-width="4" stroke-linecap="round"></path> <path d="M943.295 492.213C937.373 491.265 929.993 491.45 924.833 487.902C921.168 485.382 921.053 483.778 916.305 483.778" stroke="#ACE1FF" stroke-width="4" stroke-linecap="round"></path> <path d="M1128.85 306.657C1120.31 307.96 1112.19 310.031 1103.55 310.031" stroke="#ACE1FF" stroke-width="4" stroke-linecap="round"></path> <path d="M938.232 40.1318C935.458 43.946 933.228 47.5817 931.484 51.9399" stroke="#ACE1FF" stroke-width="4" stroke-linecap="round"></path> <path d="M636.283 28.3237C633.908 35.588 632.361 43.1894 629.535 50.253" stroke="#ACE1FF" stroke-width="4" stroke-linecap="round"></path> <path d="M170.707 40.1318C177.68 43.6182 184.258 49.2632 190.949 51.9399" stroke="#ACE1FF" stroke-width="4" stroke-linecap="round"></path> <path d="M25.6367 353.889C27.3174 346.42 29.4927 344.154 35.7579 340.395" stroke="#ACE1FF" stroke-width="4" stroke-linecap="round"></path> </svg> 