<?xml version="1.0" encoding="UTF-8"?> <svg xmlns="http://www.w3.org/2000/svg" width="188" height="112" viewBox="0 0 188 112" fill="none"> <path fill-rule="evenodd" clip-rule="evenodd" d="M77.4125 28.9285C57.8962 22.1091 37.3063 23.5588 12.9216 25.2757L12.8465 25.2809C6.51089 25.727 1.01326 20.9526 0.567196 14.617C0.121127 8.28143 4.89552 2.78381 11.2311 2.33774C12.0629 2.27918 12.8971 2.21993 13.7339 2.1605C39.7931 0.309761 68.2287 -1.70974 95.8718 11.7426C100.978 14.2275 102.675 18.9316 103.044 21.979C103.372 24.6908 102.871 27.0977 102.504 28.5157C101.725 31.5238 100.283 34.6637 99.0821 37.0793C97.8297 39.5982 96.4251 42.1343 95.3356 44.1015L95.2688 44.2222C94.6951 45.258 94.2322 46.0949 93.8645 46.7855C93.5865 47.3077 93.4544 47.5773 93.4103 47.6674C93.3885 47.7118 93.3882 47.7126 93.4023 47.6783C92.6684 49.4608 92.6381 50.3819 92.6485 50.64C92.6503 50.6851 92.6535 50.717 92.6563 50.7374C92.6563 50.7375 92.6563 50.7376 92.6564 50.7376C92.8611 51.0479 94.0806 52.3409 98.0507 53.7452C104.256 55.9403 111.809 56.7538 118.88 57.5154C121.068 57.7511 123.21 57.9819 125.252 58.247C125.239 58.2453 125.241 58.2456 125.262 58.248C125.3 58.2523 125.398 58.2634 125.582 58.2834C125.833 58.3104 126.167 58.3454 126.58 58.3883C127.349 58.4679 128.347 58.5696 129.513 58.6884L129.782 58.7158C132.334 58.976 135.601 59.3095 138.819 59.6513C142.02 59.9915 145.242 60.3474 147.688 60.6526C148.887 60.8022 150.03 60.9557 150.927 61.1023C151.33 61.1681 151.941 61.2732 152.554 61.4213C152.783 61.4766 153.502 61.651 154.339 61.9864C154.675 62.1212 155.738 62.5539 156.907 63.4108C156.914 63.4156 156.922 63.4212 156.931 63.4278C157.453 63.808 162.118 67.2026 161.586 73.6556C161.323 76.8406 160.327 79.537 159.496 81.4396C158.907 82.7892 158.128 84.3088 157.587 85.3657C157.43 85.6711 157.294 85.9378 157.187 86.1506C158.311 86.5705 159.703 86.9992 161.338 87.3981C164.21 88.0985 167.283 88.575 169.94 88.8149C171.26 88.9341 172.392 88.9871 173.273 88.9915C174.011 88.9951 174.393 88.9632 174.486 88.9555C174.514 88.9531 174.516 88.953 174.491 88.957C180.76 87.9397 186.667 92.1974 187.684 98.4666C188.702 104.736 184.444 110.643 178.175 111.66C175.134 112.153 171.277 112.029 167.872 111.722C164.197 111.39 159.985 110.742 155.889 109.743C151.91 108.773 147.434 107.327 143.597 105.147C140.276 103.261 134.438 99.1174 133.339 91.5927C132.832 88.1165 133.272 84.9412 134.021 82.2734C131.823 82.0442 129.618 81.8188 127.715 81.6244C124.945 81.3414 122.817 81.1239 122.289 81.0555C121.199 80.9138 119.79 80.7666 118.147 80.5949C111.014 79.8494 99.4666 78.6427 90.3805 75.4286C84.6982 73.4186 77.7743 69.9452 73.4586 63.4043C68.5953 56.0335 68.6532 47.377 72.1344 38.9217C72.7897 37.3301 74.0169 35.1184 74.9258 33.4803C75.0024 33.3423 75.0767 33.2083 75.1483 33.0792C75.9058 31.7114 76.6811 30.3104 77.4125 28.9285ZM80.2372 22.753C80.236 22.7578 80.2347 22.7626 80.2335 22.7675C80.2564 22.6467 80.2677 22.6352 80.2372 22.753ZM154.333 84.7343C154.34 84.7329 154.409 84.7792 154.515 84.8775C154.378 84.7848 154.325 84.7357 154.333 84.7343ZM92.6614 50.7667C92.6614 50.767 92.6609 50.7654 92.6602 50.7616C92.661 50.7647 92.6614 50.7664 92.6614 50.7667Z" fill="#CA7FFE"></path> </svg> 