<?xml version="1.0" encoding="UTF-8"?> <svg xmlns="http://www.w3.org/2000/svg" width="79" height="62" viewBox="0 0 79 62" fill="none"> <path fill-rule="evenodd" clip-rule="evenodd" d="M29.3796 4.98621C28.8577 5.05383 28.0492 5.26021 26.8527 5.6957C26.4761 5.83281 24.8779 6.59724 22.4954 7.78082C20.1873 8.92741 17.2951 10.3896 14.4563 11.8339C9.29978 14.4574 4.34778 17.0073 3.4001 17.4953C3.30369 17.545 3.24873 17.5733 3.2392 17.5782C2.25577 18.0811 1.05084 17.6916 0.547899 16.7082C0.0449598 15.7247 0.434471 14.5198 1.4179 14.0169C1.41789 14.0169 1.4231 14.0142 1.43746 14.0068L2.40646 13.508C3.01933 13.1927 3.88707 12.7465 4.92958 12.2115C7.01443 11.1414 9.79903 9.71543 12.6425 8.26877C15.4849 6.82263 18.3905 5.35364 20.7158 4.1985C22.9666 3.08036 24.8375 2.17251 25.4846 1.93697C26.9792 1.39291 28.3101 1.02457 29.4273 0.967997C30.5603 0.910622 31.9733 1.17095 32.8138 2.47804C33.5149 3.56843 33.4451 4.887 33.3014 5.85866C33.1431 6.9292 32.7891 8.18933 32.3534 9.55783C32.2232 9.96676 31.8759 10.7563 31.4688 11.6571C31.0344 12.6185 30.4562 13.8688 29.7939 15.2978C29.7087 15.4817 29.6221 15.6687 29.5341 15.8584C28.2513 18.6263 26.6878 21.9996 25.1994 25.3328C23.6048 28.904 22.1165 32.3846 21.1562 35.0023C20.8963 35.7106 20.6837 36.3328 20.5203 36.8615C20.538 36.8567 20.5559 36.8519 20.5738 36.847C21.6585 36.5504 22.9836 36.0619 24.3808 35.4971C25.5055 35.0425 26.6305 34.5577 27.6739 34.1081C27.9211 34.0015 28.1637 33.897 28.4006 33.7953C29.5781 33.2899 30.7204 32.8074 31.4678 32.5855C36.3868 31.1252 41.2848 29.6073 46.1991 28.0844C46.7417 27.9163 47.2846 27.748 47.8277 27.5798C48.3655 27.4133 48.8963 27.2443 49.4085 27.0813C50.3917 26.7684 51.3058 26.4775 52.0673 26.2676C52.6592 26.1044 53.2484 25.9638 53.7891 25.8916C54.2837 25.8256 54.978 25.7798 55.6559 26.0049C56.5067 26.2874 57.2008 26.9603 57.4215 27.9454C57.5946 28.7181 57.4229 29.4718 57.2457 30.0238C56.8766 31.1738 56.0565 32.6856 54.889 34.5758C54.4183 35.338 53.7046 36.2096 53.0444 37.0159L52.9777 37.0974C52.2926 37.9341 51.5995 38.7806 50.9922 39.6431C50.363 40.5369 49.9011 41.3454 49.6579 42.0499C49.4436 42.6705 49.4439 43.075 49.5215 43.3497C49.5942 43.4006 49.8487 43.5583 50.5318 43.7048C51.5291 43.9188 52.8961 43.9857 54.4495 43.9556C55.9794 43.926 57.5657 43.8063 58.9737 43.6954C59.0784 43.6872 59.1831 43.6789 59.2876 43.6706C60.5059 43.5741 61.6927 43.48 62.4307 43.5073C64.067 43.5679 65.4423 44.2048 66.2976 45.4806C67.0646 46.6246 67.2039 47.9857 67.1791 49.0911C67.1535 50.2347 66.9408 51.4211 66.7264 52.4343C66.6236 52.9206 66.5278 53.3379 66.4416 53.7134C66.3289 54.2044 66.2327 54.624 66.1583 55.033C65.9735 56.0491 66.2176 56.4413 66.4074 56.648C66.6942 56.9604 67.2947 57.2955 68.3929 57.529C70.1389 57.9001 72.2562 57.8644 74.3052 57.8298C74.8958 57.8199 75.4807 57.81 76.0495 57.81C77.154 57.81 78.0495 58.7054 78.0495 59.81C78.0495 60.9146 77.154 61.81 76.0495 61.81C75.6387 61.81 75.169 61.8188 74.658 61.8283C72.5745 61.8671 69.8059 61.9187 67.5612 61.4416C66.1372 61.1389 64.5726 60.5641 63.4608 59.3531C62.2519 58.0363 61.8639 56.2915 62.2228 54.3174C62.3073 53.8529 62.4434 53.2544 62.5774 52.6652C62.6612 52.2969 62.7441 51.9323 62.8131 51.6063C63.0155 50.6498 63.1631 49.76 63.1801 49.0015C63.198 48.2047 63.0622 47.8378 62.9753 47.7081C62.9488 47.6686 62.9237 47.6438 62.8682 47.616C62.8003 47.582 62.629 47.5174 62.2827 47.5046C61.7875 47.4862 60.8041 47.5637 59.3582 47.6775L59.2877 47.6831C57.8858 47.7935 56.1901 47.9226 54.5269 47.9548C52.8872 47.9866 51.1499 47.9284 49.6928 47.6158C48.4035 47.3392 46.5171 46.6936 45.8192 44.8791C45.2612 43.4283 45.4522 41.9745 45.8768 40.7446C46.2982 39.524 47.0035 38.3604 47.7214 37.3405C48.4145 36.356 49.1896 35.4097 49.8524 34.6004L49.9387 34.495C50.66 33.614 51.1829 32.9643 51.4858 32.4738C52.0542 31.5535 52.4824 30.8112 52.796 30.2183C52.1892 30.3939 51.511 30.6099 50.7346 30.8573C50.2081 31.025 49.6364 31.2071 49.0111 31.4007C48.468 31.569 47.9248 31.7373 47.3815 31.9057C42.4707 33.4275 37.5494 34.9526 32.6062 36.4201C32.1351 36.56 31.2411 36.929 29.9784 37.471C29.7519 37.5682 29.5166 37.6696 29.2741 37.7741C28.2287 38.2246 27.0512 38.7321 25.8799 39.2056C24.4431 39.7864 22.9442 40.3457 21.6288 40.7054C20.9721 40.8849 20.3085 41.0296 19.6894 41.0928C19.1134 41.1516 18.3619 41.1651 17.6509 40.9023C16.2734 40.3932 16.1567 39.0076 16.1397 38.6983C16.1116 38.19 16.1963 37.6521 16.2945 37.1905C16.4993 36.2274 16.9009 34.9874 17.4009 33.6246C18.4112 30.8705 19.9471 27.285 21.547 23.7019C23.0474 20.3419 24.6219 16.9447 25.9031 14.1804C25.9917 13.9892 26.079 13.801 26.1647 13.6161C26.8287 12.1831 27.3985 10.9508 27.8237 10.01C28.0364 9.5392 28.2088 9.15053 28.3367 8.85112C28.4007 8.7014 28.4507 8.58085 28.4876 8.48769C28.506 8.4414 28.5197 8.40555 28.5295 8.37892C28.5385 8.35453 28.5421 8.34374 28.5421 8.34374C28.9688 7.00333 29.2364 6.00375 29.3444 5.27348C29.3606 5.16412 29.3719 5.0688 29.3796 4.98621ZM29.8602 4.96575C29.8602 4.96576 29.8594 4.96563 29.8578 4.96533Z" fill="#FEBF72"></path> </svg> 