<?xml version="1.0" encoding="UTF-8"?> <svg xmlns="http://www.w3.org/2000/svg" width="118" height="71" viewBox="0 0 118 71" fill="none"> <path fill-rule="evenodd" clip-rule="evenodd" d="M53.234 15.912C48.9233 15.6132 44.1393 16.0757 38.8116 17.171C30.315 18.9177 21.2438 22.0846 11.3575 25.536C11.0625 25.639 10.7668 25.7422 10.4704 25.8457C6.5596 27.2106 2.28281 25.1467 0.917928 21.2359C-0.446955 17.3251 1.61692 13.0483 5.52772 11.6834C5.96111 11.5322 6.39538 11.3805 6.83046 11.2285C16.3645 7.89822 26.2882 4.43184 35.7911 2.47824C45.7633 0.428145 56.1206 -0.154561 65.8902 3.29265C68.5822 4.24253 70.1762 6.36243 70.8279 8.38737C71.3669 10.0619 71.247 11.5382 71.1499 12.281C70.9476 13.8294 70.3913 15.2774 69.9901 16.2288C69.1075 18.321 67.7485 20.7919 66.4474 23.0302C65.124 25.307 63.6775 27.6517 62.4858 29.5835L62.4413 29.6556C61.1468 31.7542 60.3279 33.0919 60.015 33.6868C58.6431 36.2952 58.1825 37.8788 58.0259 38.7139C58.2065 38.7562 58.4241 38.8 58.6842 38.8427C60.77 39.1848 63.7493 39.0822 67.2918 38.6792C68.9926 38.4856 70.6832 38.2413 72.3255 37.9962C72.5704 37.9596 72.817 37.9226 73.0641 37.8855C74.4127 37.6831 75.7766 37.4784 76.9523 37.3349C76.945 37.3358 76.9411 37.3363 76.9411 37.3363C76.941 37.3361 77.0027 37.3278 77.1668 37.3035C77.3414 37.2776 77.5751 37.2422 77.8657 37.1976C78.4055 37.1149 79.107 37.0059 79.9276 36.8785L80.1169 36.8492C81.9127 36.5704 84.2126 36.2137 86.475 35.874C88.7248 35.5363 90.9924 35.207 92.71 34.9869C93.5483 34.8795 94.3637 34.784 95.0102 34.7312C95.2875 34.7086 95.7707 34.6729 96.2755 34.681L96.2883 34.6812C96.4637 34.6838 97.1531 34.6943 97.9691 34.8816L97.9763 34.8833C98.2843 34.954 99.5358 35.2411 100.815 36.1981C101.54 36.74 102.59 37.7337 103.254 39.3309C103.973 41.0582 103.966 42.8339 103.528 44.3292C102.625 47.409 100.714 50.6197 99.4023 52.8222C99.1993 53.1631 99.0107 53.4799 98.8424 53.7683C98.5162 54.3274 98.2308 54.8326 97.9821 55.2898C99.671 55.2885 101.538 55.1111 103.247 54.8225C105.226 54.4882 106.46 54.0953 106.812 53.9385C110.596 52.2539 115.03 53.956 116.714 57.7401C118.399 61.5242 116.697 65.9574 112.913 67.642C109.248 69.2732 102.687 70.3864 97.2395 70.283C94.5252 70.2314 91.0659 69.8759 88.0733 68.45C86.5009 67.7008 84.6562 66.4654 83.2883 64.4295C81.8298 62.259 81.3006 59.7489 81.5723 57.2737C81.794 55.2543 82.3958 53.3154 83.1259 51.5619C82.9622 51.5873 82.801 51.6123 82.6427 51.6368C80.6705 51.9424 79.1464 52.1785 78.7695 52.2245C77.8174 52.3407 76.7001 52.5082 75.3417 52.7118C75.0833 52.7506 74.8162 52.7906 74.5398 52.8319C72.872 53.0808 70.9641 53.3581 68.9875 53.583C65.1751 54.0168 60.4834 54.3382 56.2564 53.6449C52.2132 52.9818 46.2896 50.9509 43.8749 44.6698C41.6852 38.9742 43.6202 32.6347 46.7391 26.7045C47.3307 25.5798 48.445 23.7738 49.5237 22.0255C49.5742 21.9436 49.6247 21.8618 49.675 21.7803C50.8132 19.9352 52.0752 17.8895 53.234 15.912ZM96.3221 49.675C96.3219 49.6751 96.3154 49.6755 96.3035 49.676C96.3164 49.6752 96.3224 49.6749 96.3221 49.675ZM57.2438 38.4452C57.2477 38.4433 57.2813 38.4588 57.3331 38.4974C57.2659 38.4664 57.24 38.4471 57.2438 38.4452Z" fill="#CA7FFE"></path> </svg> 