<?xml version="1.0" encoding="UTF-8"?> <svg xmlns="http://www.w3.org/2000/svg" width="44" height="47" viewBox="0 0 44 47" fill="none"> <path fill-rule="evenodd" clip-rule="evenodd" d="M6.71187 4.47986C7.50536 1.8349 10.2928 0.333979 12.9377 1.12747C21.2208 3.6124 30.5802 6.94595 36.7052 12.8358C39.8986 15.9065 42.3168 19.7608 43.1939 24.5534C44.0624 29.2991 43.3346 34.4961 41.0728 40.1507C39.7291 43.5098 36.6781 45.0822 34.3909 45.8331C31.9725 46.627 29.2364 46.9057 26.7448 46.9451C21.8927 47.0216 16.4092 46.1922 13.5011 44.9748C10.4848 43.7122 7.90793 41.4979 5.96069 39.1357C4.00414 36.7622 2.41985 33.9216 1.61755 31.0563C-0.144324 24.7638 1.46877 19.4314 4.26826 15.1173C5.48767 13.2382 6.96627 11.5031 8.49888 9.91671C6.87056 8.69437 6.09271 6.54375 6.71187 4.47986ZM18.9693 13.7396C16.3699 16.0939 14.1614 18.2423 12.6568 20.5608C11.0381 23.0554 10.4309 25.4448 11.2472 28.36C11.6172 29.6813 12.4621 31.3012 13.6769 32.7749C14.9011 34.26 16.2378 35.2796 17.3625 35.7504C18.5244 36.2368 22.485 37.011 26.5871 36.9463C28.5726 36.915 30.191 36.6868 31.2717 36.332C31.6002 36.2242 31.8097 36.1295 31.9349 36.0632C33.5626 31.8502 33.7891 28.7129 33.3573 26.3536C32.9214 23.9721 31.7329 21.9277 29.774 20.0439C27.1769 17.5466 23.4415 15.5206 18.9693 13.7396ZM32.0932 35.9638C32.0938 35.964 32.0872 35.9702 32.0715 35.9814C32.0848 35.9691 32.0926 35.9635 32.0932 35.9638Z" fill="#FF9B71"></path> </svg> 