<?xml version="1.0" encoding="UTF-8"?> <svg xmlns="http://www.w3.org/2000/svg" width="205" height="67" viewBox="0 0 205 67" fill="none"> <path fill-rule="evenodd" clip-rule="evenodd" d="M65.3796 23.4823C65.3853 23.4963 65.391 23.5108 65.3968 23.5257C65.3013 23.3309 65.3032 23.2936 65.3796 23.4823ZM67.8909 37.3041C67.9516 37.7949 68.0104 38.2794 68.0677 38.755C68.1169 39.1638 68.1661 39.5764 68.2147 39.984C68.3332 40.9773 68.4481 41.9403 68.5501 42.7432L68.551 42.7501C68.6641 43.6399 68.8645 45.2163 69.165 46.5105C70.0685 50.4028 71.6583 54.9134 74.8761 58.6843C78.5728 63.0166 83.6956 65.4976 89.3331 65.6442C94.1962 65.7707 98.3053 64.1313 101.002 62.7806C103.846 61.3566 106.501 59.5376 108.743 57.8771C109.412 57.3818 110.596 56.3899 111.861 55.312C113.609 58.5471 116.521 61.8326 121.346 63.7204C126.732 65.8281 132.147 65.0837 135.171 64.5038C138.726 63.8223 142.421 62.6262 145.819 61.3725C151.009 59.4581 156.937 56.853 162.382 54.4604C163.975 53.7608 165.525 53.0794 167.004 52.4387C172.943 49.8658 177.685 47.9673 181.144 46.9546C184.281 49.1663 188.284 50.1359 192.345 49.3238C200.198 47.7533 205.29 40.1143 203.72 32.2617C203.069 29.0082 201.538 25.6324 198.745 22.8241C196.01 20.0746 192.835 18.6407 190.09 17.9324C185.115 16.649 180.218 17.4 177.027 18.0901C170.263 19.553 162.257 22.8909 155.476 25.8285C153.627 26.6295 151.832 27.4176 150.092 28.182C146.02 29.97 142.243 31.6285 138.757 33.0198C138.759 32.9287 138.761 32.8384 138.762 32.749C138.786 31.2183 138.739 29.2291 138.381 27.1217C138.036 25.0907 137.257 22.0511 135.201 19.082C129.83 11.3231 121.31 12.9095 120.536 13.0537L120.522 13.0564C118.537 13.4249 117.071 14.1296 116.62 14.3481C115.456 14.9126 114.497 15.554 114.05 15.8572C112.973 16.5891 111.774 17.5103 110.693 18.3657C108.438 20.1498 105.582 22.5388 102.828 24.8747C100.542 26.8133 98.2244 28.8029 96.2528 30.4955C95.9927 28.5725 95.6914 26.528 95.3434 24.513C94.7272 20.9452 93.792 16.3851 92.2621 12.6043C91.5841 10.9288 90.1356 7.68657 87.2654 4.98065C85.6759 3.48213 83.1675 1.6934 79.6877 0.898385C76.0021 0.0563508 72.4657 0.615119 69.5515 1.93121C58.8407 6.76835 49.9907 14.2951 42.7713 20.5878C42.1177 21.1575 41.4772 21.7172 40.8481 22.2669C36.8282 25.7795 33.2777 28.8819 29.8132 31.5413C29.6674 28.4738 29.6219 25.2009 29.5725 21.6541C29.5511 20.1117 29.5289 18.5175 29.4974 16.8659C29.3449 8.85919 22.7306 2.49213 14.7239 2.64464C6.71724 2.79715 0.350176 9.41148 0.502683 17.4182C0.526487 18.6678 0.54006 20.0007 0.554327 21.4017C0.643427 30.1515 0.759618 41.5615 3.56389 51.9876C4.55871 55.6863 6.71098 60.3709 11.4221 63.6071C16.2852 66.9478 21.4219 67.0745 24.8751 66.5448C28.1331 66.0451 30.8723 64.8397 32.5529 64.0199C34.0744 63.2776 35.5789 62.4129 36.5198 61.8722C36.6507 61.7969 36.7708 61.7279 36.8784 61.6664C45.5802 56.694 53.2929 49.9295 59.72 44.2925C60.4383 43.6625 61.1406 43.0466 61.8263 42.4489C63.952 40.596 65.9589 38.8787 67.8909 37.3041ZM19.46 38.1257C19.4602 38.1253 19.4741 38.1196 19.5009 38.11C19.4732 38.1214 19.4597 38.1262 19.46 38.1257ZM87.7284 36.98C87.729 36.9781 87.7633 36.9628 87.8294 36.9398C87.7607 36.9704 87.7277 36.9819 87.7284 36.98ZM97.7187 41.0135C97.7252 41.0279 97.7283 41.0354 97.7281 41.0356C97.728 41.0358 97.7248 41.0286 97.7187 41.0135ZM128.9 36.1333C128.903 36.1295 128.974 36.1213 129.103 36.12C128.962 36.1365 128.897 36.1371 128.9 36.1333ZM184.401 46.2318C184.401 46.2319 184.394 46.2324 184.38 46.2328C184.394 46.2318 184.402 46.2316 184.401 46.2318ZM130.347 39.8447C130.406 39.8046 130.395 39.8147 130.325 39.8604C130.333 39.8547 130.34 39.8494 130.347 39.8447ZM109.764 31.8185C109.729 31.5919 109.726 31.4609 109.732 31.452C109.739 31.4432 109.756 31.5565 109.764 31.8185Z" fill="#FF8BC5"></path> </svg> 