<?xml version="1.0" encoding="UTF-8"?> <svg xmlns="http://www.w3.org/2000/svg" width="194" height="50" viewBox="0 0 194 50" fill="none"> <path fill-rule="evenodd" clip-rule="evenodd" d="M67.5729 14.7032C61.3616 18.0842 55.5464 22.7182 49.3509 27.885C48.6317 28.4848 47.906 29.093 47.1736 29.707C40.414 35.3729 33.0755 41.524 24.8494 46.0215C24.7176 46.0935 24.5793 46.1695 24.4351 46.2487C23.4344 46.7982 22.1526 47.5021 20.8614 48.1047C19.4044 48.7848 17.4909 49.5551 15.4063 49.8611C13.2553 50.1768 10.4036 50.0631 7.73464 48.3089C5.08846 46.5698 3.65396 43.8949 2.90435 41.2284C0.283463 31.9053 0.163877 21.6939 0.0612844 12.9335C0.0444783 11.4984 0.0281285 10.1023 0.001314 8.7554C-0.0701396 5.16626 2.78151 2.19876 6.37065 2.12731C9.95979 2.05585 12.9273 4.9075 12.9987 8.49664C13.0293 10.0328 13.0499 11.552 13.0702 13.0538C13.1836 21.4296 13.2896 29.2617 15.0854 36.4515C15.1741 36.412 15.2666 36.3697 15.3631 36.3247C16.24 35.9154 17.1184 35.434 18.1535 34.8667C18.3032 34.7846 18.4563 34.7007 18.6131 34.6149C25.6435 30.7713 31.982 25.4667 38.9179 19.6624C39.6137 19.08 40.3156 18.4926 41.0248 17.9012C48.5647 11.6132 56.8856 4.91704 66.6951 0.678442C68.1629 0.0442189 69.8723 -0.201183 71.635 0.184121C73.3212 0.552723 74.603 1.39787 75.4932 2.20082C77.1324 3.67946 78.0996 5.60616 78.6842 6.98856C79.9266 9.92616 80.7843 13.7609 81.4115 17.2354C82.0606 20.8309 82.5517 24.5731 82.9254 27.5442C82.9847 28.0156 83.0404 28.4626 83.0932 28.8857C83.2105 29.827 83.3131 30.6502 83.4077 31.3619C83.4753 31.871 83.5328 32.2767 83.582 32.5881C83.6283 32.8812 83.6525 32.9959 83.6521 32.996C83.652 32.996 83.6511 32.9921 83.6493 32.9848C84.0137 34.4868 84.3873 35.3402 84.6345 35.7866C84.64 35.7851 84.6456 35.7836 84.6512 35.782C85.016 35.6823 85.5139 35.4999 86.1617 35.1895C87.4855 34.5552 89.0879 33.557 91.0226 32.186C91.0009 32.2013 91.0868 32.1391 91.3512 31.9306C91.5875 31.7442 91.8968 31.4962 92.2772 31.1883C93.037 30.5734 94.0251 29.7642 95.1762 28.8194C95.5753 28.4918 95.993 28.1487 96.426 27.7931C98.4774 26.1081 100.87 24.1428 103.231 22.2267C106.079 19.9155 108.948 17.6211 111.165 15.9425C112.254 15.1187 113.299 14.3561 114.148 13.8038C114.533 13.5536 115.108 13.1939 115.731 12.9052C115.987 12.7864 116.669 12.478 117.56 12.3197L117.573 12.3174C117.925 12.2538 121.653 11.5801 124.078 14.9316C126.292 17.9921 126.367 21.8445 126.332 23.9959C126.303 25.7653 126.115 27.8402 125.954 29.6141C125.896 30.2621 125.841 30.87 125.798 31.4081C125.663 33.1296 125.626 34.3956 125.683 35.3095C126.062 35.2747 126.543 35.212 127.142 35.1022C129.157 34.7325 131.735 33.9805 134.823 32.8905C139.536 31.2269 144.824 29.0047 150.349 26.683C152.111 25.9424 153.898 25.1918 155.697 24.4459C162.856 21.4787 170.385 18.5158 176.423 17.2664C179.359 16.6588 182.786 16.262 185.911 17.0334C187.579 17.4451 189.389 18.2452 190.93 19.7279C192.512 21.2493 193.449 23.1428 193.863 25.1229C194.597 28.6368 192.344 32.0808 188.83 32.8154C185.974 33.4123 183.165 32.0359 181.818 29.6132C181.212 29.639 180.313 29.7368 179.057 29.9967C174.419 30.9565 168.007 33.4162 160.675 36.4551C159.037 37.1342 157.357 37.8403 155.66 38.5538C150.053 40.9102 144.258 43.3464 139.149 45.1493C135.802 46.331 132.485 47.3389 129.487 47.8888C126.721 48.3963 123.185 48.7271 120.008 47.5374C115.385 45.8066 113.643 41.7832 113.044 38.7745C112.539 36.2385 112.62 33.4818 112.776 31.2258C112.33 31.5863 111.878 31.952 111.423 32.321C109.095 34.2102 106.739 36.1457 104.688 37.8304C104.252 38.1885 103.829 38.5352 103.424 38.8678C101.273 40.6334 99.2879 42.2619 98.5404 42.7917C96.3675 44.3317 94.0737 45.8137 91.7792 46.9132C89.5443 47.984 86.7949 48.9464 83.8307 48.8727C80.552 48.7911 77.5231 47.448 75.1958 44.8386C73.0762 42.4619 71.8181 39.3566 71.0158 36.05C70.7384 34.9068 70.4548 32.6153 70.1763 30.3656C70.1263 29.9623 70.0766 29.5604 70.027 29.1666C69.6561 26.2176 69.2009 22.772 68.6183 19.5449C68.2827 17.6859 67.9302 16.0506 67.5729 14.7032ZM15.5621 38.1197C15.5621 38.1198 15.5606 38.117 15.5577 38.111C15.5607 38.1166 15.5622 38.1196 15.5621 38.1197Z" fill="#FF8BC5"></path> </svg> 