<?xml version="1.0" encoding="UTF-8"?> <svg xmlns="http://www.w3.org/2000/svg" width="896" height="468" viewBox="0 0 896 468" fill="none"> <rect width="896" height="468" rx="40" fill="white"></rect> <rect x="48" y="300" width="392" height="100" rx="20" fill="#E6ECF9"></rect> <path d="M42 184.29C28.5714 185.296 27.8571 193.774 27.8571 208C24.5714 190.757 24.1429 186.733 11 184.29C22.7266 182.816 24.882 175.84 25.1187 162.08C25.0948 161.066 25.1046 160.038 25.1429 159C25.1429 160.062 25.1358 161.089 25.1187 162.08C25.3626 172.429 29.1189 181.28 42 184.29Z" fill="#FFFF33"></path> <g clip-path="url(#clip0_467_2179)"> <path fill-rule="evenodd" clip-rule="evenodd" d="M33.8679 384.369C38.5794 382.678 45.2279 382.5 47.5835 382.5C62.4119 382.5 80.6981 385.095 93.2506 396.458C98.5027 401.213 100.549 408.831 98.8032 415.434C116.844 420.003 135.081 423.478 153.691 425.582C173.084 427.774 192.446 429.788 210.868 426.438C213.313 425.994 215.656 427.615 216.1 430.061C216.545 432.506 214.923 434.848 212.478 435.293C192.549 438.916 171.886 436.696 152.68 434.525C132.713 432.268 113.208 428.474 93.9707 423.487C93.0364 424.338 91.9776 425.103 90.7913 425.762C62.7356 441.349 24.7177 441.857 -4.97522 435.258C-7.40132 434.719 -8.93101 432.315 -8.39188 429.889C-7.85274 427.463 -5.44895 425.934 -3.02285 426.473C23.8299 432.44 56.9286 432.086 81.9309 420.203C75.6145 418.397 69.3229 416.469 63.049 414.431C61.9218 414.065 60.7432 413.694 59.5266 413.31C50.8829 410.588 40.3134 407.259 32.5315 400.825C30.8854 399.465 29.5166 398.047 28.5854 396.535C27.6372 394.995 26.9887 393.087 27.33 390.994C27.6732 388.889 28.889 387.383 30.0975 386.4C31.2723 385.445 32.6375 384.811 33.8679 384.369ZM90.0509 413.129C91.0003 409.846 90.2023 405.838 87.2105 403.13C77.2409 394.105 61.8688 391.5 47.5835 391.5C45.2315 391.5 40.1473 391.728 37.0539 392.789C37.3579 393.099 37.7539 393.466 38.2658 393.889C44.5846 399.112 53.2847 401.877 62.1234 404.685C63.3581 405.077 64.5955 405.471 65.8295 405.871C73.8802 408.487 81.9486 410.914 90.0509 413.129Z" fill="#FEBF72"></path> </g> <path d="M471.109 41.2159C473.61 36.9718 476.1 33.5148 479.162 29.9424" stroke="#ACE1FF" stroke-width="3" stroke-linecap="round"></path> <path d="M677.254 66.9838C679.989 62.1762 682.659 57.3436 685.306 52.4893" stroke="#ACE1FF" stroke-width="3" stroke-linecap="round"></path> <path d="M812.539 105.636C817.877 103.374 823.238 101.273 828.644 99.1938" stroke="#ACE1FF" stroke-width="3" stroke-linecap="round"></path> <path d="M868.906 295.675H881.79" stroke="#ACE1FF" stroke-width="3" stroke-linecap="round"></path> <path d="M723.961 432.568C726.175 435.613 728.792 438.341 728.792 442.231" stroke="#ACE1FF" stroke-width="3" stroke-linecap="round"></path> <path d="M517.816 430.958L512.984 442.232" stroke="#ACE1FF" stroke-width="3" stroke-linecap="round"></path> <path d="M335.83 432.568C329.83 439.334 323.375 444.497 316.504 450.284" stroke="#ACE1FF" stroke-width="3" stroke-linecap="round"></path> <path d="M18.5586 292.455H36.2741" stroke="#ACE1FF" stroke-width="3" stroke-linecap="round"></path> <path d="M55.6022 36.3844C53.5053 33.7004 51.6576 31.9403 49.1602 29.9424" stroke="#ACE1FF" stroke-width="3" stroke-linecap="round"></path> <path d="M252.082 33.1633C252.888 28.8291 253.295 24.6469 253.693 20.2793" stroke="#ACE1FF" stroke-width="3" stroke-linecap="round"></path> <path d="M106.307 444.491C99.5738 448.949 92.7905 453.236 85.9219 457.463" stroke="#ACE1FF" stroke-width="3" stroke-linecap="round"></path> <defs> <clipPath id="clip0_467_2179"> <path d="M0 382H216V439H4.99999C2.23857 439 0 436.761 0 434V382Z" fill="white"></path> </clipPath> </defs> </svg> 