<?xml version="1.0" encoding="UTF-8"?> <svg xmlns="http://www.w3.org/2000/svg" width="170" height="108" viewBox="0 0 170 108" fill="none"> <path fill-rule="evenodd" clip-rule="evenodd" d="M166.773 1.19726C169.614 2.90215 170.535 6.58771 168.831 9.42919C167.136 12.254 165.47 16.5247 163.362 21.9301L163.228 22.2734C161.166 27.5586 158.76 33.6629 155.749 38.9711C152.789 44.1889 148.779 49.5052 143.057 52.3258C138.749 54.4492 134.048 54.8927 129.085 53.6363C128.866 55.7034 128.522 57.7919 127.985 59.8117C126.425 65.6792 123.08 71.5325 116.144 74.8984C112.542 76.6464 107.704 77.3351 103.028 77.447C98.1789 77.5631 92.7765 77.0725 87.6428 75.9611C82.601 74.8696 77.4707 73.1047 73.326 70.4531C72.5832 74.3258 71.6559 78.3192 70.4939 82.154C68.6915 88.1025 66.1907 94.1376 62.6014 98.7991C58.9399 103.554 53.705 107.384 46.7109 107.384C32.9389 107.384 23.5339 97.8784 16.9774 88.3364C13.6244 83.4567 10.7386 78.1648 8.2038 73.3332C7.61309 72.2072 7.04634 71.1164 6.49874 70.0624C4.62857 66.4629 2.98185 63.2934 1.36715 60.6242C-0.348026 57.7889 0.560005 54.1001 3.39529 52.3849C6.23058 50.6697 9.91945 51.5778 11.6346 54.413C13.4715 57.4496 15.3654 61.0964 17.2695 64.763C17.7893 65.7639 18.3098 66.7663 18.8302 67.7582C21.33 72.5231 23.9422 77.2831 26.8676 81.5406C32.868 90.2733 39.1421 95.3841 46.7109 95.3841C48.7852 95.3841 50.8578 94.3815 53.0933 91.4782C55.401 88.4811 57.3864 84.0311 59.0096 78.6741C62.2388 68.0168 63.5065 55.6186 64.0888 49.0672C64.0829 49.1332 64.0911 48.8074 64.1086 48.1038C64.1199 47.6514 64.1351 47.0426 64.1529 46.2814C64.163 45.854 64.1735 45.3987 64.1845 44.9268C64.2177 43.4966 64.2545 41.9138 64.2903 40.4896C64.3366 38.6457 64.3845 36.9261 64.4243 36.1936C64.4298 36.0942 64.4376 35.9628 64.4489 35.8291C64.4542 35.7664 64.4645 35.6519 64.4819 35.5158C64.4906 35.4483 64.5062 35.3336 64.5315 35.1939C64.5486 35.0992 64.6062 34.7827 64.7326 34.3939C64.7904 34.2162 64.9364 33.7882 65.2192 33.2889C65.2218 33.2843 65.2246 33.2794 65.2277 33.2739C65.3895 32.987 66.2557 31.4517 68.2251 30.669C69.177 30.3795 71.2007 30.293 72.2153 30.513C73.0227 30.8283 74.2855 31.6376 74.7517 32.0704C75.5831 32.9287 75.9336 33.8149 76.0217 34.0376L76.0228 34.0403C76.2521 34.6199 76.3369 35.1119 76.355 35.2171L76.3567 35.2265C76.3881 35.407 76.4051 35.5533 76.4134 35.6302C76.441 35.8859 76.4494 36.1187 76.4521 36.195L76.4523 36.2008C76.4666 36.6007 76.4714 37.3219 76.4714 38.3275C76.4714 40.4593 76.3855 42.7445 76.3044 44.9047C76.2654 45.9429 76.2274 46.9523 76.2006 47.902C76.1133 50.9966 76.1246 53.813 76.4303 56.4114C76.5305 57.2633 77.1718 58.6529 79.7372 60.3089C82.2642 61.9402 85.9208 63.3103 90.1818 64.2328C94.3901 65.1438 98.8439 65.5438 102.741 65.4505C106.811 65.353 109.607 64.7323 110.905 64.1025C113.8 62.6977 115.43 60.3283 116.388 56.7277C117.221 53.5966 117.418 49.9937 117.463 46.0616C117.116 45.4239 116.836 44.7801 116.615 44.15C115.789 41.7938 115.675 39.3325 116.076 37.3776C116.182 36.8606 116.355 36.2299 116.649 35.5758C116.893 35.0339 117.471 33.8993 118.679 32.9688C119.341 32.4586 120.301 31.9296 121.54 31.7366C122.825 31.5365 124.053 31.755 125.087 32.2278C126.93 33.0708 127.808 34.5321 128.125 35.1164C128.833 36.4257 129.098 37.8843 129.236 38.9208C129.322 39.5698 129.384 40.2894 129.424 41.0816C133.409 42.8743 135.928 42.4611 137.751 41.5623C140.22 40.3452 142.743 37.5781 145.311 33.0509C147.827 28.6141 149.942 23.3116 152.048 17.9125C152.171 17.598 152.294 17.2818 152.418 16.9643C154.305 12.1175 156.305 6.98212 158.541 3.25524C160.246 0.413759 163.931 -0.507631 166.773 1.19726ZM117.274 40.1124C117.274 40.1119 117.277 40.1231 117.282 40.1471C117.276 40.1248 117.274 40.1128 117.274 40.1124ZM64.46 36.6311C64.4601 36.6336 64.4602 36.6362 64.4603 36.6389C64.4589 36.6112 64.4591 36.6059 64.46 36.6311Z" fill="#CA7FFE"></path> </svg> 