<?xml version="1.0" encoding="UTF-8"?> <svg xmlns="http://www.w3.org/2000/svg" width="448" height="520" viewBox="0 0 448 520" fill="none"> <g clip-path="url(#clip0_467_2135)"> <rect width="448" height="520" rx="32" fill="white"></rect> <rect x="28" y="400" width="392" height="80" rx="20" fill="#F9E6F4"></rect> <path d="M-33 510.866C-3.9067 517.331 32.8654 516.684 59.6049 501.828C67.5024 497.441 67.9325 485.862 61.2296 479.794C49.9686 469.6 33.1394 467 18.5826 467C13.8376 467 -5.13177 467.826 6.39772 477.357C14.4371 484.003 25.8367 487.032 35.4383 490.151C64.4719 499.583 93.8116 506.62 124.185 510.053C143.484 512.235 163.496 514.352 182.672 510.866" stroke="#FEBF72" stroke-width="6" stroke-linecap="round"></path> <path d="M260.891 97.7255C262.211 94.5407 263.312 91.6554 265.756 89.2112" stroke="#ACE1FF" stroke-width="2" stroke-linecap="round"></path> <path d="M322.926 100.158L331.44 94.0765" stroke="#ACE1FF" stroke-width="2" stroke-linecap="round"></path> <path d="M427.531 221.792C431.289 221.869 434.836 223.008 438.478 223.008" stroke="#ACE1FF" stroke-width="2" stroke-linecap="round"></path> <path d="M427.531 338.561C430.914 340.54 433.402 342.21 437.262 342.21" stroke="#ACE1FF" stroke-width="2" stroke-linecap="round"></path> <path d="M427.531 488.17C430.325 491.621 433.117 496.189 436.046 499.117" stroke="#ACE1FF" stroke-width="2" stroke-linecap="round"></path> <path d="M338.738 496.684V503.982" stroke="#ACE1FF" stroke-width="2" stroke-linecap="round"></path> <path d="M234.133 500.333C232.808 504.393 231.808 508.526 230.484 512.497" stroke="#ACE1FF" stroke-width="2" stroke-linecap="round"></path> <path d="M10.3281 395.728H20.0588" stroke="#ACE1FF" stroke-width="2" stroke-linecap="round"></path> <path d="M13.9766 299.638H21.2746" stroke="#ACE1FF" stroke-width="2" stroke-linecap="round"></path> <path d="M15.192 208.412L11.543 203.547" stroke="#ACE1FF" stroke-width="2" stroke-linecap="round"></path> <path d="M21.2746 122.052C19.4468 119.567 16.5926 112.413 13.9766 111.105" stroke="#ACE1FF" stroke-width="2" stroke-linecap="round"></path> <path d="M431.18 403.026C433.615 403.502 436.029 403.893 438.478 404.243" stroke="#ACE1FF" stroke-width="2" stroke-linecap="round"></path> </g> <defs> <clipPath id="clip0_467_2135"> <rect width="448" height="520" rx="32" fill="white"></rect> </clipPath> </defs> </svg> 