<?xml version="1.0" encoding="UTF-8"?> <svg xmlns="http://www.w3.org/2000/svg" width="138" height="185" viewBox="0 0 138 185" fill="none"> <path d="M11.5352 132.152C23.4488 133.74 44.33 139.413 55.9101 134.202C66.1943 129.574 80.6679 124.724 82.4039 112.138C84.6738 95.6811 93.7991 71.4793 72.0689 64.2358" stroke="#FFB0BA" stroke-width="4" stroke-linecap="round"></path> <path d="M13.0117 143.963C26.1626 159.822 42.6409 158.727 61.652 158.727C78.725 158.727 91.0597 159.488 100.121 143.307C110.315 125.103 113.796 97.51 105.371 77.8518C99.4971 64.1467 85.4112 53.955 75.1859 43.7298C71.095 39.6389 67.5923 36.1836 61.734 36.1836" stroke="#FFB0BA" stroke-width="4" stroke-linecap="round"></path> <path d="M2.67578 160.204C23.8741 175.578 42.7151 185.841 69.4433 182.022C90.3191 179.04 109.535 173.076 122.923 155.939C142.809 130.485 136.286 99.8394 123.743 71.6179C115.977 54.1429 108.664 35.9072 97.4955 20.2709C91.9806 12.5499 85.0943 8.15928 77.9738 2.22559" stroke="#FFB0BA" stroke-width="4" stroke-linecap="round"></path> </svg> 