<?xml version="1.0" encoding="UTF-8"?> <svg xmlns="http://www.w3.org/2000/svg" width="67" height="48" viewBox="0 0 67 48" fill="none"> <path d="M7.50219 39.8669C7.32448 39.2335 6.96885 38.0335 5.04885 38.0335C3.94667 38.0335 2.27552 38.7669 2.27552 41.7002C2.27552 43.5669 3.12885 45.2669 5.04885 45.2669C6.32885 45.2669 7.21781 44.5335 7.50219 43.2669H9.81333C9.35115 45.5335 7.78667 47.1002 5.01333 47.1002C2.09781 47.1002 0 45.2335 0 41.6669C0 38.0335 2.20448 36.2002 5.04885 36.2002C8.35552 36.2002 9.67115 38.3335 9.81333 39.8669H7.50219Z" fill="#5C5C5C"></path> <path d="M12.5865 42.067L15.2886 39.167H17.9198L15.0398 42.1337L17.9909 46.8337H15.4309L13.4753 43.5337L12.5865 44.4003V46.8337H10.4531V39.167H12.5865V42.067Z" fill="#5C5C5C"></path> <path d="M25.8487 43.0001C25.8487 45.7668 23.8576 47.0335 21.6887 47.0335C19.5198 47.0335 17.4932 45.7668 17.4932 43.0001C17.4932 40.2335 19.4843 38.9668 21.6887 38.9668C23.8576 38.9668 25.8487 40.2335 25.8487 43.0001ZM19.6976 43.0001C19.6976 43.9668 20.0176 45.3335 21.6887 45.3335C23.3598 45.3335 23.6443 43.9668 23.6443 43.0001C23.6443 42.0001 23.3243 40.6668 21.6887 40.6668C20.0176 40.6668 19.6976 42.0001 19.6976 43.0001Z" fill="#5C5C5C"></path> <path d="M33.9184 39.167V46.8337H31.7851V40.767H29.4739V43.1337C29.4739 46.067 28.5496 47.0003 27.0206 47.0003C26.6296 47.0003 26.0251 46.9337 25.7051 46.8337V45.3337C25.7406 45.367 26.0251 45.4003 26.3451 45.4003C26.9851 45.4003 27.3051 45.1003 27.3051 42.767V39.167H33.9184Z" fill="#5C5C5C"></path> <path d="M37.1558 42.067L39.858 39.167H42.4891L39.6091 42.1337L42.5603 46.8337H40.0003L38.0446 43.5337L37.1558 44.4003V46.8337H35.0225V39.167H37.1558V42.067Z" fill="#5C5C5C"></path> <path d="M50.3819 43.0001C50.3819 45.7668 48.3908 47.0335 46.2219 47.0335C44.053 47.0335 42.0264 45.7668 42.0264 43.0001C42.0264 40.2335 44.0175 38.9668 46.2219 38.9668C48.4264 38.9668 50.3819 40.2335 50.3819 43.0001ZM44.2664 43.0001C44.2664 43.9668 44.5864 45.3335 46.2575 45.3335C47.893 45.3335 48.213 43.9668 48.213 43.0001C48.213 42.0001 47.893 40.6668 46.2575 40.6668C44.5864 40.6668 44.2664 42.0001 44.2664 43.0001Z" fill="#5C5C5C"></path> <path d="M51.0928 39.167H54.7906C56.6039 39.167 57.955 39.867 57.955 41.1337C57.955 42.0003 57.2794 42.6003 56.4261 42.8003C57.2794 43.0003 58.2039 43.5003 58.2039 44.7337C58.2039 46.167 57.0661 46.8337 55.2173 46.8337H51.1283V39.167H51.0928ZM53.2261 42.267H54.6128C55.3239 42.267 55.8216 42.0003 55.8216 41.4003C55.8216 40.767 55.3239 40.5337 54.6128 40.5337H53.1906V42.267H53.2261ZM53.2261 45.467H54.7906C55.5728 45.467 56.0706 45.2337 56.0706 44.467C56.0706 43.8003 55.5373 43.5003 54.755 43.5003H53.1906V45.467H53.2261Z" fill="#5C5C5C"></path> <path d="M66.7735 43.0001C66.7735 45.7668 64.818 47.0335 62.6135 47.0335C60.4446 47.0335 58.418 45.7668 58.418 43.0001C58.418 40.2335 60.4091 38.9668 62.6135 38.9668C64.7823 38.9668 66.7735 40.2335 66.7735 43.0001ZM60.6224 43.0001C60.6224 43.9668 60.9424 45.3335 62.6135 45.3335C64.2846 45.3335 64.569 43.9668 64.569 43.0001C64.569 42.0001 64.2846 40.6668 62.6135 40.6668C60.9424 40.6668 60.6224 42.0001 60.6224 43.0001Z" fill="#5C5C5C"></path> <path d="M15.5375 34.5C17.3508 34.5 21.8663 34.2 25.2085 31.9V33.6333H31.9996V25.9667L34.8441 23.2333L40.9952 33.6667H49.1375L39.8218 18.7333L48.9241 9.3333H40.6041L32.0352 18.5333V0.8667H25.2441V3.6667C23.1818 1.6 19.8396 0 14.613 0C3.30631 0 1.17298 6.4667 1.17298 10.0667C1.17298 15.0333 4.01746 17.8 8.95965 18.9L15.9996 20.5333C19.6975 21.4 22.3641 22.0333 22.3641 24.6C22.3641 28.0333 18.5241 28.8333 15.0396 28.8333C8.67517 28.8333 7.64413 25.3667 7.64413 23.5H0.639648C0.639648 27.6 2.84413 34.5 15.5375 34.5ZM20.1596 14.9667L11.6263 13.0333C10.1685 12.7333 7.9285 12.1667 7.9285 9.6C7.9285 6.6667 11.2352 5.6667 14.0441 5.6667C20.4085 5.6667 20.9775 9.1333 21.1552 10.6333H25.2441V16.7333C23.7508 15.9 22.0085 15.3667 20.1596 14.9667Z" fill="#5C5C5C"></path> </svg> 