<?xml version="1.0" encoding="UTF-8"?> <svg xmlns="http://www.w3.org/2000/svg" width="61" height="61" viewBox="0 0 61 61" fill="none"> <path fill-rule="evenodd" clip-rule="evenodd" d="M45.4004 49.4152L41.7886 39.0613L20.1794 38.9872L16.9503 49.2239C5.63328 54.1261 -8.36333 50.2549 6.32477 10.4507L14.5486 10.1729L17.5554 12.1856L43.5482 11.8522L45.7832 10L54.8653 10.321C68.4976 50.0326 56.7484 54.2434 45.4004 49.4152ZM19.7534 26.4971L15.2154 26.6268L15.0364 21.7492L9.97982 21.9839V26.7811L5.4851 26.9108L5.31223 31.1894H9.85017L10.0663 36.32L15.5735 36.2089L15.4007 31.1647H19.8769L19.7534 26.4971ZM48.506 37.3635C52.2104 37.3635 52.1364 31.3993 48.2343 31.3993C44.3323 31.3993 44.0977 37.3635 48.506 37.3635ZM39.5474 16.2173L21.6426 16.1308C21.6426 16.1308 21.5747 19.4402 21.5747 21.6505C21.5747 24.1201 22.6305 25.466 24.7111 25.466C27.1808 25.466 32.7374 25.6019 36.1517 25.6327C38.2138 25.6327 39.7141 24.3485 39.7141 21.5579C39.7265 19.9217 39.5474 16.2173 39.5474 16.2173ZM42.6777 25.8427C38.8498 25.8427 38.5287 31.8068 42.9493 31.8068C46.6785 31.8068 46.5673 25.8427 42.6777 25.8427V25.8427ZM48.2343 20.286C44.4064 20.286 44.0854 26.2501 48.506 26.2501C52.2351 26.2501 52.124 20.286 48.2343 20.286V20.286ZM53.791 25.8427C49.9631 25.8427 49.642 31.8068 54.0627 31.8068C57.7918 31.8068 57.6807 25.8427 53.791 25.8427V25.8427Z" fill="#4A358F"></path> </svg> 