<?xml version="1.0" encoding="UTF-8"?> <svg xmlns="http://www.w3.org/2000/svg" width="73" height="60" viewBox="0 0 73 60" fill="none"> <path fill-rule="evenodd" clip-rule="evenodd" d="M66.2774 27.3968L63.4874 18.0219C60.1665 18.7846 56.8468 17.1832 55.2043 13.8128C43.6477 16.9453 28.756 14.6593 18.5787 20.121C19.6221 24.2624 17.9134 27.5354 15.5203 29.4984L18.0714 38.1932C21.8714 37.2036 24.1187 39.3646 25.3477 42.2385C29.045 40.9421 32.6908 40.1698 36.2192 39.6734C29.3063 34.7538 28.7965 19.9147 39.5325 18.8858C47.8516 18.0883 51.1038 25.426 51.0557 31.5008C45.7185 33.2195 43.3864 38.9668 44.5595 43.8728C35.4377 44.3731 26.0001 44.9436 17.0222 51.5206L8.65685 22.1994C21.3769 7.87923 34.4168 15.4084 53.4276 9.45353L52.5961 6.48544C36.9949 12.1089 16.5836 4.25938 4.83441 21.3343L11.8976 45.1389L8.02117 47.561L0 19.5311C16.6568 -3.41872 39.0406 9.4084 55.1728 0L57.6449 7.93725C59.7555 7.07983 61.9374 6.04319 64.1983 4.78156L72.667 34.3857C69.8924 37.2217 66.9555 39.1602 63.8971 40.505C61.8777 36.3385 62.6957 29.5197 66.2774 27.3968ZM42.0495 47.6777C49.8472 47.6777 50.0424 60 42.5908 60C33.7516 60 34.402 47.6777 42.0495 47.6777ZM54.2219 34.4824C62.95 34.4824 63.1696 48.2766 54.8267 48.2766C44.9326 48.2772 45.6607 34.4824 54.2219 34.4824Z" fill="#4A358F"></path> </svg> 