<?xml version="1.0" encoding="UTF-8"?> <svg xmlns="http://www.w3.org/2000/svg" width="56" height="65" viewBox="0 0 56 65" fill="none"> <g clip-path="url(#clip0)"> <path d="M28.2511 29.7412L31.295 35.8924C31.3902 36.1144 31.6121 36.2412 31.8341 36.2729L38.6194 37.2558C39.2219 37.3509 39.4438 38.0485 39.0316 38.4607L34.117 43.2485C33.9585 43.407 33.8633 43.6607 33.9268 43.8826L35.0999 50.668C35.195 51.2387 34.5926 51.6826 34.0536 51.429L27.9658 48.2265C27.7438 48.1314 27.5219 48.1314 27.2999 48.2265L21.2121 51.429C20.6731 51.7144 20.0707 51.2704 20.1658 50.668L21.3389 43.8826C21.3707 43.6607 21.3072 43.407 21.1487 43.2485L16.2341 38.4607C15.8219 38.0485 16.0438 37.3192 16.6463 37.2558L23.4316 36.2729C23.6536 36.2412 23.8755 36.0826 23.9707 35.8924L26.9511 29.7412C27.2365 29.2022 27.9658 29.2022 28.2511 29.7412Z" stroke="white" stroke-width="5" stroke-miterlimit="10" stroke-linecap="round" stroke-linejoin="round"></path> <path d="M7.89521 22.5757L1.58545 11.0976L9.22691 1.58545L17.2489 16.2976" stroke="white" stroke-width="5" stroke-miterlimit="10" stroke-linecap="round" stroke-linejoin="round"></path> <path d="M47.3073 22.5757L53.617 11.0976L45.9756 1.58545L37.9536 16.2976" stroke="white" stroke-width="5" stroke-miterlimit="10" stroke-linecap="round" stroke-linejoin="round"></path> <path d="M9.22681 1.58545H45.0561" stroke="white" stroke-width="5" stroke-miterlimit="10" stroke-linecap="round" stroke-linejoin="round"></path> <path d="M14.427 11.0977H40.7758" stroke="white" stroke-width="5" stroke-miterlimit="10" stroke-linecap="round" stroke-linejoin="round"></path> <path d="M27.617 63.4147C39.875 63.4147 49.8121 53.4776 49.8121 41.2195C49.8121 28.9615 39.875 19.0244 27.617 19.0244C15.359 19.0244 5.42188 28.9615 5.42188 41.2195C5.42188 53.4776 15.359 63.4147 27.617 63.4147Z" stroke="white" stroke-width="5" stroke-miterlimit="10" stroke-linecap="round" stroke-linejoin="round"></path> </g> <defs> <clipPath id="clip0"> <rect width="55.2024" height="65" fill="white"></rect> </clipPath> </defs> </svg> 