<?xml version="1.0" encoding="UTF-8"?> <svg xmlns="http://www.w3.org/2000/svg" width="61" height="61" viewBox="0 0 61 61" fill="none"> <g clip-path="url(#clip0)"> <path fill-rule="evenodd" clip-rule="evenodd" d="M55.6806 28.2626L53.358 20.489C50.5933 21.1214 47.8296 19.7936 46.4622 16.9989C36.8412 19.5963 24.4438 17.7008 15.971 22.2295C16.8397 25.6635 15.4172 28.3775 13.4249 30.0052L15.5487 37.2148C18.7122 36.3942 20.5832 38.1861 21.6063 40.5691C24.6843 39.4941 27.7195 38.8537 30.6569 38.4421C24.9019 34.3629 24.4774 22.0585 33.4153 21.2053C40.341 20.5441 43.0485 26.6284 43.0084 31.6656C38.5652 33.0907 36.6237 37.8563 37.6003 41.9242C30.0064 42.3391 22.1495 42.8121 14.6753 48.2657L7.71105 23.953C18.3006 12.0788 29.1564 18.3219 44.9831 13.3842L44.2908 10.9231C31.3027 15.5861 14.3102 9.07729 4.52883 23.2356L10.409 42.9741L7.18184 44.9824L0.50415 21.7404C14.3711 2.71071 33.0058 13.3468 46.436 5.54547L48.494 12.1269C50.2511 11.416 52.0676 10.5564 53.9497 9.51028L61 34.0577C58.6902 36.4092 56.2451 38.0166 53.699 39.1317C52.0178 35.6769 52.6989 30.0229 55.6806 28.2626ZM35.5107 45.0792C42.0024 45.0792 42.1649 55.2967 35.9613 55.2967C28.6026 55.2967 29.1441 45.0792 35.5107 45.0792ZM45.6443 34.1379C52.9106 34.1379 53.0934 45.5758 46.1479 45.5758C37.9109 45.5763 38.5171 34.1379 45.6443 34.1379Z" fill="#4A358F"></path> </g> <defs> <clipPath id="clip0"> <rect width="61" height="61" fill="white"></rect> </clipPath> </defs> </svg> 