<?xml version="1.0" encoding="UTF-8"?> <svg xmlns="http://www.w3.org/2000/svg" width="60" height="60" viewBox="0 0 60 60" fill="none"> <path fill-rule="evenodd" clip-rule="evenodd" d="M30.8677 60C-11.1253 60 -9.22468 0 30.1961 0C69.4662 0.000682446 69.2191 60 30.8677 60ZM30.1409 4.27825C-3.65865 4.27825 -5.28833 55.7231 30.7169 55.7231C63.6012 55.7231 63.8135 4.27825 30.1409 4.27825ZM51.7696 33.0386L44.4511 34.3919L43.7741 29.1405H51.7696V33.0386V33.0386ZM27.5599 36.2386L17.9073 25.9411L19.9506 23.4564L29.758 28.7945L46.7325 15.4124L48.1779 17.3382L32.0558 35.7145L27.5599 36.2386ZM29.9416 9.34542L34.372 8.98986L34.7003 17.2174L30.177 16.9977L29.9416 9.34542ZM24.6458 9.34542H27.4466L28.1236 17.2174L23.9695 16.5411L24.6458 9.34542ZM8.00026 30.4937L15.8743 29.1405L16.5506 34.4854H8.67725L8.00026 30.4937ZM33.1457 51.3227L29.1691 52.4303L27.8158 44.6504L33.1457 44.2205V51.3227Z" fill="#FEFEFF"></path> </svg> 