<?xml version="1.0" encoding="UTF-8"?> <svg xmlns="http://www.w3.org/2000/svg" width="90" height="65" viewBox="0 0 90 65" fill="none"> <g clip-path="url(#clip0)"> <path d="M44.9999 29.6972L26.5908 21.0034L44.9999 12.269L63.409 21.0034L44.9999 29.6972Z" stroke="white" stroke-width="5" stroke-miterlimit="10" stroke-linecap="round" stroke-linejoin="round"></path> <path d="M54.7773 27.0967L55.5137 34.2467C55.6773 35.7498 55.1046 37.2529 54.0818 38.1061C50.1955 41.3561 39.8455 41.3561 35.9182 38.1061C34.8955 37.2529 34.3637 35.7498 34.4864 34.2467L35.2228 27.0967" stroke="white" stroke-width="5" stroke-miterlimit="10" stroke-linecap="round" stroke-linejoin="round"></path> <path d="M10.2273 44.6875V10.1562C10.2273 5.6875 13.9091 2.03125 18.4091 2.03125H71.5909C76.0909 2.03125 79.7727 5.6875 79.7727 10.1562V44.6875" stroke="white" stroke-width="5" stroke-miterlimit="10" stroke-linecap="round" stroke-linejoin="round"></path> <path fill-rule="evenodd" clip-rule="evenodd" d="M59.4 50.7812H87.9545C87.9545 55.25 83.8636 62.9688 70.7318 62.9688H19.2681C6.13632 62.9688 2.04541 55.25 2.04541 50.7812H30.6C31.459 50.7812 32.2772 51.025 32.9727 51.5125L36.6545 54.0719C37.35 54.5594 38.1681 54.8031 39.0272 54.8031H51.0954C51.9545 54.8031 52.7727 54.5594 53.4681 54.0719L57.15 51.5125C57.7636 51.025 58.5818 50.7812 59.4 50.7812Z" stroke="white" stroke-width="5" stroke-miterlimit="10" stroke-linecap="round" stroke-linejoin="round"></path> </g> <defs> <clipPath id="clip0"> <rect width="90" height="65" fill="white"></rect> </clipPath> </defs> </svg> 