<?xml version="1.0" encoding="UTF-8"?> <svg xmlns="http://www.w3.org/2000/svg" width="72" height="49" viewBox="0 0 72 49" fill="none"> <path fill-rule="evenodd" clip-rule="evenodd" d="M53.5874 46.5229L49.3243 34.3019L23.8183 34.2145L20.007 46.297C6.64912 52.0832 -9.87147 47.514 7.46531 0.531984L17.1722 0.204047L20.7211 2.57975L51.4012 2.18623L54.0392 0L64.759 0.378944C80.8497 47.2516 66.9817 52.2217 53.5874 46.5229ZM23.3155 19.472L17.9592 19.625L17.7479 13.868L11.7795 14.1449V19.8072L6.47422 19.9603L6.27017 25.0104H11.6264L11.8815 31.0663L18.3819 30.9351L18.1778 24.9813H23.4612L23.3155 19.472ZM57.253 32.2979C61.6254 32.2979 61.538 25.2582 56.9323 25.2582C52.3267 25.2582 52.0498 32.2979 57.253 32.2979ZM46.6789 7.33843L25.5454 7.23641C25.5454 7.23641 25.4652 11.1425 25.4652 13.7514C25.4652 16.6663 26.7114 18.255 29.1673 18.255C32.0822 18.255 38.6409 18.4153 42.6708 18.4518C45.1048 18.4518 46.8757 16.936 46.8757 13.6421C46.8903 11.7109 46.6789 7.33843 46.6789 7.33843ZM50.3737 18.6995C45.8555 18.6995 45.4765 25.7392 50.6943 25.7392C55.0959 25.7392 54.9647 18.6995 50.3737 18.6995V18.6995ZM56.9323 12.1408C52.4141 12.1408 52.0352 19.1805 57.253 19.1805C61.6546 19.1805 61.5234 12.1408 56.9323 12.1408V12.1408ZM63.491 18.6995C58.9728 18.6995 58.5939 25.7392 63.8117 25.7392C68.2133 25.7392 68.0821 18.6995 63.491 18.6995V18.6995Z" fill="#4A358F"></path> </svg> 