<?xml version="1.0" encoding="UTF-8"?> <svg xmlns="http://www.w3.org/2000/svg" width="61" height="61" viewBox="0 0 61 61" fill="none"> <path fill-rule="evenodd" clip-rule="evenodd" d="M41.3703 31.8618L44.9867 44.8548L61 46.4622C58.4998 51.0475 51.895 54.4486 41.4224 53.113C31.7415 51.8785 30.7211 56.7293 24.1648 56.7293C3.90522 56.7293 0 40.3407 0 40.3407L14.1282 41.7585L13.6928 35.71C13.6928 35.71 20.6778 27.2826 22.336 12.5399C29.6534 0.211008 44.5457 2.37396 49.7627 11.7721L41.2041 11.9788C41.8063 14.1926 39.3723 16.2286 37.454 16.3623L39.8034 23.0806L43.0273 24.9332L36.0975 30.0551L36.7003 32.0133L41.3703 31.8618ZM25.6108 22.7549L24.7069 30.588L32.1684 31.8832L32.7706 29.9251L25.6108 22.7549ZM21.4339 40.1634L22.0834 41.5341C30.7812 41.5341 35.3334 39.6084 35.3334 39.6084L40.5816 41.8953L41.1746 40.9901C37.6711 34.6754 28.2055 35.0691 21.4339 40.1634Z" fill="#4A358F"></path> </svg> 