<?xml version="1.0" encoding="UTF-8"?> <svg xmlns="http://www.w3.org/2000/svg" width="61" height="61" viewBox="0 0 61 61" fill="none"> <path fill-rule="evenodd" clip-rule="evenodd" d="M7.01488 10.2246C6.81454 3.81655 8.61689 0.41219 13.6233 0.211848C18.6296 0.0115062 43.8618 0.211847 47.0658 0.0115051C50.2698 -0.188837 54.2752 2.21454 54.2752 8.22189C54.2752 14.2292 54.2752 49.8435 54.2752 49.8435L7.81625 49.4778C7.81552 49.4785 7.21523 16.6326 7.01488 10.2246ZM33.4171 44.046L47.4825 44.6645L47.3791 40.2555L33.4171 40.1324V44.046ZM13.7165 29.2374C13.7165 31.7384 15.7483 34.0828 17.9361 34.0828C20.1238 34.0828 38.7243 33.9269 42.1636 33.9269C45.6022 33.9269 47.7907 32.8326 47.7907 29.8625C47.7907 26.893 47.6341 14.9534 47.4781 11.6707C47.3222 8.38872 45.1338 6.98196 42.1644 6.98196C39.1942 6.98196 21.532 7.29448 17.9368 7.29448C14.3416 7.29448 13.7172 8.54462 13.7172 10.7331C13.7165 13.0774 13.7165 26.7371 13.7165 29.2374ZM25.12 11.3072V16.7324H20.8217L21.3616 11.144L25.12 11.3072ZM25.5046 26.8974H35.0548L35.3833 24.0919H39.3763V28.2495H36.326V30.7214L24.6814 30.886L24.0738 28.5788H21.2792L21.1146 24.7446L25.5039 24.4154V26.8974H25.5046ZM36.0543 11.7836L40.0495 11.957L39.9242 16.8971L36.0543 17.2264V11.7836ZM26.4022 22.4644L26.5588 18.9129L29.1807 18.6564L29.1574 11.4835L32.9129 11.6466L32.7745 22.4651H26.4022V22.4644ZM52.3884 53.0045V61L9.5778 60.4842L9.8357 53.521L52.3884 53.0045Z" fill="#4A358F"></path> </svg> 