<?xml version="1.0" encoding="UTF-8"?> <svg xmlns="http://www.w3.org/2000/svg" width="82" height="65" viewBox="0 0 82 65" fill="none"> <g clip-path="url(#clip0)"> <path d="M36.5625 62.9688H10.1562C5.6875 62.9688 2.03125 59.3125 2.03125 54.8438V10.1562C2.03125 5.6875 5.6875 2.03125 10.1562 2.03125H71.0938C75.5625 2.03125 79.2188 5.6875 79.2188 10.1562V54.8438C79.2188 58.7844 76.4156 62.075 72.6781 62.8063" stroke="white" stroke-width="5" stroke-miterlimit="10" stroke-linecap="round" stroke-linejoin="round"></path> <path d="M26.0407 28.3971C25.6344 27.3814 24.7407 26.7314 23.1969 26.7314C13.7313 26.7314 7.92194 44.6877 14.8282 44.6877C20.6782 44.6877 30.0219 26.7314 30.0219 26.7314C30.0219 26.7314 17.8344 44.6877 23.1969 44.6877C26.2844 44.6877 34.5719 35.2627 34.5719 35.2627" stroke="white" stroke-width="5" stroke-miterlimit="10" stroke-linecap="round" stroke-linejoin="round"></path> <path d="M50.7812 10.1562C50.7812 10.1562 24.375 42.7781 36.9281 44.7281C43.1844 45.7031 51.2687 34.8969 48.7906 30.2656C48.1406 29.0062 46.5969 27.4219 43.4281 29.575" stroke="white" stroke-width="5" stroke-miterlimit="10" stroke-linecap="round" stroke-linejoin="round"></path> <path d="M65.7717 42.1684C65.7717 42.1684 63.4967 44.7277 57.5248 44.7277C49.5623 44.7277 57.3216 26.7715 66.2185 26.7715C69.6717 26.7715 67.5998 30.0621 67.5998 30.0621" stroke="white" stroke-width="5" stroke-miterlimit="10" stroke-linecap="round" stroke-linejoin="round"></path> <path d="M65 62.9688H44.6875C43.55 62.9688 42.6562 62.075 42.6562 60.9375V56.875C42.6562 55.7375 43.55 54.8438 44.6875 54.8438H65C66.1375 54.8438 67.0313 55.7375 67.0313 56.875V60.9375C67.0313 62.075 66.1375 62.9688 65 62.9688Z" stroke="white" stroke-width="5" stroke-miterlimit="10" stroke-linecap="round" stroke-linejoin="round"></path> </g> <defs> <clipPath id="clip0"> <rect width="81.25" height="65" fill="white"></rect> </clipPath> </defs> </svg> 