<?xml version="1.0" encoding="UTF-8"?> <!-- Generator: Adobe Illustrator 21.1.0, SVG Export Plug-In . SVG Version: 6.00 Build 0) --> <svg xmlns="http://www.w3.org/2000/svg" xmlns:xlink="http://www.w3.org/1999/xlink" id="Layer_1" x="0px" y="0px" viewBox="0 0 128 128" style="enable-background:new 0 0 128 128;" xml:space="preserve"> <style type="text/css"> .st0{fill:#FFFFFF;} .st1{fill:#444B54;} .st2{fill:#FFF0B3;} .st3{opacity:0.2;} .st4{fill:#FCCA3D;} .st5{fill:#FF5576;} .st6{fill:#ADF9D2;} .st7{fill:#3F4A54;} .st8{fill:#FF6144;} .st9{fill:#D3D8DD;} .st10{fill:#C0E7FF;} .st11{fill:none;stroke:#444B54;stroke-width:6;stroke-linecap:round;stroke-linejoin:round;stroke-miterlimit:10;} .st12{opacity:0.5;} .st13{fill:#F8DB59;} .st14{fill:#1AB792;} .st15{fill:#E9EEF4;} .st16{fill:#009F96;} .st17{fill:#FCE0E2;} .st18{fill:#3C71A6;} .st19{fill:#D32F56;} </style> <g> <g> <g> <g> <path class="st0" d="M24,118L24,118c5.5,0,10-4.5,10-10V48H14v60C14,113.5,18.5,118,24,118z"></path> </g> </g> </g> <g> <g> <g> <g> <path class="st6" d="M34,48L34,48c-6.4,6.4-10,15.1-10,24.1V118h0c5.5,0,10-4.5,10-10L34,48L34,48z"></path> </g> </g> </g> </g> <g> <g> <g> <path class="st6" d="M34,48H14V38c0-5.5,4.5-10,10-10h10V48z"></path> </g> </g> </g> <g> <g> <g> <path class="st0" d="M104,28H24c-5.5,0-10,4.5-10,10v10V38c0-5.5,4.5-10,10-10h0c5.5,0,10,4.5,10,10v20h80V38 C114,32.5,109.5,28,104,28z"></path> </g> </g> </g> <g> <g> <g> <path class="st6" d="M114,108c0,5.5-4.5,10-10,10H24h0c5.5,0,10-4.5,10-10V58h80V108z"></path> </g> </g> </g> <path class="st1" d="M99,71c1.7,0,3-1.3,3-3v-7h12c1.7,0,3-1.3,3-3V38c0-7.2-5.8-13-13-13H24c-7.2,0-13,5.8-13,13v10v60 c0,7.2,5.8,13,13,13h80c7.2,0,13-5.8,13-13V68c0-1.7-1.3-3-3-3s-3,1.3-3,3v40c0,3.9-3.1,7-7,7H35c1.3-2,2-4.4,2-7V68 c0-1.7-1.3-3-3-3s-3,1.3-3,3v40c0,3.9-3.1,7-7,7s-7-3.1-7-7V48V38c0-3.9,3.1-7,7-7s7,3.1,7,7v20c0,1.7,1.3,3,3,3h12v7 c0,1.7,1.3,3,3,3s3-1.3,3-3v-7h44v7C96,69.7,97.3,71,99,71z M52,55v-7c0-1.7-1.3-3-3-3s-3,1.3-3,3v7h-9V38c0-2.6-0.8-5-2-7h69 c3.9,0,7,3.1,7,7v17h-9v-7c0-1.7-1.3-3-3-3s-3,1.3-3,3v7H52z"></path> <g> <g> <g> <rect x="49" y="83" class="st0" width="50" height="20"></rect> </g> </g> </g> <g> <g> <g> <path class="st1" d="M99,106H49c-1.7,0-3-1.3-3-3V83c0-1.7,1.3-3,3-3h50c1.7,0,3,1.3,3,3v20C102,104.7,100.7,106,99,106z M52,100h44V86H52V100z"></path> </g> </g> </g> <g> <g> <g> <path class="st1" d="M71,21c-1.7,0-3-1.3-3-3c0-3.9-3.1-7-7-7s-7,3.1-7,7c0,1.7-1.3,3-3,3s-3-1.3-3-3c0-7.2,5.8-13,13-13 s13,5.8,13,13C74,19.7,72.7,21,71,21z"></path> </g> </g> </g> </g> </svg> 