<?xml version="1.0" encoding="UTF-8"?> <svg xmlns="http://www.w3.org/2000/svg" width="1240" height="200" viewBox="0 0 1240 200" fill="none"> <path d="M149.196 38.8H155.036V39.824H150.22L149.916 43.536C150.193 43.248 150.529 43.024 150.924 42.864C151.318 42.704 151.756 42.624 152.236 42.624C152.748 42.624 153.217 42.7147 153.644 42.896C154.081 43.0667 154.454 43.3173 154.764 43.648C155.073 43.968 155.313 44.3627 155.484 44.832C155.665 45.2907 155.756 45.8027 155.756 46.368C155.756 46.9333 155.665 47.4453 155.484 47.904C155.313 48.3627 155.062 48.7573 154.732 49.088C154.412 49.4187 154.022 49.6747 153.564 49.856C153.116 50.0267 152.62 50.112 152.076 50.112C151.148 50.112 150.353 49.8827 149.692 49.424C149.041 48.9653 148.609 48.2933 148.396 47.408H149.58C149.772 47.9627 150.081 48.3787 150.508 48.656C150.934 48.9227 151.457 49.056 152.076 49.056C152.844 49.056 153.457 48.8213 153.916 48.352C154.374 47.872 154.604 47.2107 154.604 46.368C154.604 45.5147 154.374 44.8533 153.916 44.384C153.457 43.9147 152.844 43.68 152.076 43.68C151.532 43.68 151.068 43.8027 150.684 44.048C150.3 44.2933 150.012 44.5707 149.82 44.88H148.716L149.196 38.8ZM163.843 44.88L162.979 43.152V50H161.923V42H163.395L166.019 46.944L168.642 42H170.083V50H169.027V43.152L168.163 44.88L166.531 48H165.475L163.843 44.88ZM178.302 43.216L177.31 44.88L174.11 50H172.798V42H173.854V48.8L174.846 47.12L178.046 42H179.358V50H178.302V43.216ZM187.583 46.4H183.135V50H182.079V42H183.135V45.44H187.583V42H188.639V50H187.583V46.4Z" fill="#999999"></path> <path d="M93.3349 8.6H98.6149C100.683 8.6 102.186 9.04 103.125 9.92C104.078 10.7853 104.555 12.0393 104.555 13.682C104.555 15.222 104.056 16.454 103.059 17.378C102.062 18.302 100.58 18.764 98.6149 18.764H95.9749V24H93.3349V8.6ZM95.9749 10.932V16.432H98.6149C99.6709 16.432 100.463 16.1827 100.991 15.684C101.519 15.1853 101.783 14.518 101.783 13.682C101.783 12.802 101.526 12.1273 101.013 11.658C100.514 11.174 99.7149 10.932 98.6149 10.932H95.9749ZM109.276 24.198C108.088 24.198 107.186 23.9047 106.57 23.318C105.954 22.7313 105.646 21.9173 105.646 20.876C105.646 20.304 105.734 19.7907 105.91 19.336C106.101 18.8667 106.394 18.478 106.79 18.17C107.201 17.8473 107.722 17.6053 108.352 17.444C108.998 17.268 109.782 17.18 110.706 17.18H112.554V16.52C112.554 15.992 112.408 15.596 112.114 15.332C111.836 15.0533 111.366 14.914 110.706 14.914C110.09 14.914 109.643 15.0313 109.364 15.266C109.086 15.5007 108.917 15.8087 108.858 16.19H106.086C106.145 15.2073 106.541 14.4007 107.274 13.77C108.022 13.1247 109.166 12.802 110.706 12.802C112.173 12.802 113.273 13.1393 114.006 13.814C114.74 14.4887 115.106 15.3907 115.106 16.52V24H113.104L112.84 22.482C112.459 23.0393 111.96 23.4647 111.344 23.758C110.743 24.0513 110.054 24.198 109.276 24.198ZM109.716 22.086C110.127 22.086 110.501 22.02 110.838 21.888C111.19 21.7413 111.491 21.5507 111.74 21.316C111.99 21.0667 112.188 20.788 112.334 20.48C112.481 20.172 112.554 19.842 112.554 19.49V19.16H110.706C109.826 19.16 109.21 19.3067 108.858 19.6C108.506 19.8933 108.33 20.2893 108.33 20.788C108.33 21.184 108.448 21.4993 108.682 21.734C108.932 21.9687 109.276 22.086 109.716 22.086ZM121.696 12.802C123.163 12.802 124.241 13.11 124.93 13.726C125.634 14.3273 125.986 15.1047 125.986 16.058C125.986 16.5273 125.869 16.96 125.634 17.356C125.414 17.752 125.069 18.082 124.6 18.346C125.172 18.5953 125.597 18.9327 125.876 19.358C126.169 19.7833 126.316 20.2673 126.316 20.81C126.316 21.3087 126.228 21.7707 126.052 22.196C125.876 22.6067 125.597 22.9587 125.216 23.252C124.849 23.5453 124.373 23.78 123.786 23.956C123.199 24.1173 122.503 24.198 121.696 24.198C120.083 24.198 118.895 23.868 118.132 23.208C117.384 22.5333 116.959 21.5873 116.856 20.37H119.32C119.437 20.9127 119.665 21.3307 120.002 21.624C120.339 21.9027 120.904 22.042 121.696 22.042C122.503 22.042 123.06 21.9173 123.368 21.668C123.691 21.4187 123.852 21.1033 123.852 20.722C123.852 20.3407 123.691 20.0253 123.368 19.776C123.06 19.5267 122.503 19.402 121.696 19.402H120.486V17.378H121.696C122.371 17.378 122.84 17.268 123.104 17.048C123.383 16.828 123.522 16.5347 123.522 16.168C123.522 15.8013 123.383 15.508 123.104 15.288C122.84 15.068 122.371 14.958 121.696 14.958C121.036 14.958 120.559 15.09 120.266 15.354C119.973 15.618 119.767 16.0067 119.65 16.52H117.186C117.303 15.332 117.714 14.4153 118.418 13.77C119.122 13.1247 120.215 12.802 121.696 12.802ZM131.934 18.28L131.076 16.168V24H128.524V13H132.176L134.618 18.742L137.104 13H140.624V24H138.072V16.168L137.214 18.28L135.85 21.47H133.298L131.934 18.28ZM150.825 16.234L149.835 18.28L146.689 24H143.477V13H146.029V20.766L147.019 18.72L150.165 13H153.377V24H150.825V16.234ZM163.587 19.512H158.791V24H156.239V13H158.791V17.268H163.587V13H166.139V24H163.587V19.512ZM172.652 19.402H171.552V24H169V13H171.552V17.158H172.652L175.292 13H178.24L174.764 18.192L178.68 24H175.6L172.652 19.402ZM182.86 24.198C181.672 24.198 180.77 23.9047 180.154 23.318C179.538 22.7313 179.23 21.9173 179.23 20.876C179.23 20.304 179.318 19.7907 179.494 19.336C179.685 18.8667 179.978 18.478 180.374 18.17C180.785 17.8473 181.306 17.6053 181.936 17.444C182.582 17.268 183.366 17.18 184.29 17.18H186.138V16.52C186.138 15.992 185.992 15.596 185.698 15.332C185.42 15.0533 184.95 14.914 184.29 14.914C183.674 14.914 183.227 15.0313 182.948 15.266C182.67 15.5007 182.501 15.8087 182.442 16.19H179.67C179.729 15.2073 180.125 14.4007 180.858 13.77C181.606 13.1247 182.75 12.802 184.29 12.802C185.757 12.802 186.857 13.1393 187.59 13.814C188.324 14.4887 188.69 15.3907 188.69 16.52V24H186.688L186.424 22.482C186.043 23.0393 185.544 23.4647 184.928 23.758C184.327 24.0513 183.638 24.198 182.86 24.198ZM183.3 22.086C183.711 22.086 184.085 22.02 184.422 21.888C184.774 21.7413 185.075 21.5507 185.324 21.316C185.574 21.0667 185.772 20.788 185.918 20.48C186.065 20.172 186.138 19.842 186.138 19.49V19.16H184.29C183.41 19.16 182.794 19.3067 182.442 19.6C182.09 19.8933 181.914 20.2893 181.914 20.788C181.914 21.184 182.032 21.4993 182.266 21.734C182.516 21.9687 182.86 22.086 183.3 22.086Z" fill="#1F1F1F"></path> <path d="M565.845 50.112C565.258 50.112 564.736 50.0373 564.277 49.888C563.818 49.728 563.434 49.5093 563.125 49.232C562.816 48.944 562.576 48.608 562.405 48.224C562.245 47.84 562.165 47.4187 562.165 46.96C562.165 46.288 562.341 45.7173 562.693 45.248C563.045 44.768 563.525 44.4053 564.133 44.16C563.621 43.9253 563.216 43.6 562.917 43.184C562.629 42.768 562.485 42.256 562.485 41.648C562.485 41.232 562.565 40.848 562.725 40.496C562.896 40.1333 563.125 39.8187 563.413 39.552C563.712 39.2853 564.064 39.0773 564.469 38.928C564.885 38.768 565.344 38.688 565.845 38.688C566.357 38.688 566.816 38.7627 567.221 38.912C567.637 39.0613 567.989 39.2693 568.277 39.536C568.576 39.8027 568.805 40.1173 568.965 40.48C569.125 40.832 569.205 41.2213 569.205 41.648C569.205 42.2453 569.05 42.752 568.741 43.168C568.442 43.584 568.037 43.9093 567.525 44.144C568.133 44.4 568.618 44.768 568.981 45.248C569.344 45.7173 569.525 46.288 569.525 46.96C569.525 47.408 569.44 47.824 569.269 48.208C569.109 48.592 568.869 48.928 568.549 49.216C568.229 49.4933 567.84 49.712 567.381 49.872C566.933 50.032 566.421 50.112 565.845 50.112ZM565.845 49.056C566.24 49.056 566.592 49.0027 566.901 48.896C567.221 48.7787 567.488 48.624 567.701 48.432C567.914 48.24 568.08 48.0213 568.197 47.776C568.314 47.52 568.373 47.248 568.373 46.96C568.373 46.6187 568.304 46.3093 568.165 46.032C568.037 45.7547 567.856 45.52 567.621 45.328C567.397 45.1253 567.13 44.9653 566.821 44.848C566.512 44.7307 566.186 44.656 565.845 44.624C565.493 44.656 565.162 44.7307 564.853 44.848C564.544 44.9547 564.272 45.1093 564.037 45.312C563.813 45.504 563.637 45.7387 563.509 46.016C563.381 46.2933 563.317 46.608 563.317 46.96C563.317 47.248 563.376 47.52 563.493 47.776C563.61 48.0213 563.776 48.24 563.989 48.432C564.202 48.624 564.464 48.7787 564.773 48.896C565.093 49.0027 565.45 49.056 565.845 49.056ZM565.845 43.696C566.122 43.664 566.394 43.6053 566.661 43.52C566.928 43.424 567.162 43.296 567.365 43.136C567.578 42.9653 567.744 42.7573 567.861 42.512C567.989 42.2667 568.053 41.9787 568.053 41.648C568.053 41.4027 568 41.168 567.893 40.944C567.797 40.7093 567.653 40.5067 567.461 40.336C567.269 40.1547 567.034 40.0107 566.757 39.904C566.49 39.7973 566.186 39.744 565.845 39.744C565.504 39.744 565.194 39.7973 564.917 39.904C564.65 40.0107 564.421 40.1547 564.229 40.336C564.037 40.5067 563.888 40.7093 563.781 40.944C563.685 41.168 563.637 41.4027 563.637 41.648C563.637 41.968 563.701 42.2507 563.829 42.496C563.957 42.7307 564.122 42.9333 564.325 43.104C564.538 43.2747 564.778 43.408 565.045 43.504C565.312 43.6 565.578 43.664 565.845 43.696ZM577.843 44.88L576.979 43.152V50H575.923V42H577.395L580.019 46.944L582.642 42H584.083V50H583.027V43.152L582.163 44.88L580.531 48H579.475L577.843 44.88ZM592.302 43.216L591.31 44.88L588.11 50H586.798V42H587.854V48.8L588.846 47.12L592.046 42H593.358V50H592.302V43.216ZM601.583 46.4H597.135V50H596.079V42H597.135V45.44H601.583V42H602.639V50H601.583V46.4Z" fill="#999999"></path> <path d="M377.13 21.734H377.57C377.893 21.734 378.186 21.668 378.45 21.536C378.729 21.3893 378.963 21.1327 379.154 20.766C379.345 20.3993 379.491 19.8933 379.594 19.248C379.711 18.6027 379.77 17.7667 379.77 16.74V8.6H390.33V24H387.69V10.932H382.41V16.74C382.41 18.2067 382.307 19.424 382.102 20.392C381.911 21.3453 381.611 22.108 381.2 22.68C380.804 23.2373 380.298 23.6333 379.682 23.868C379.081 24.088 378.377 24.198 377.57 24.198H377.13V21.734ZM397.803 24.198C397.011 24.198 396.3 24.0807 395.669 23.846C395.039 23.5967 394.496 23.2447 394.041 22.79C393.587 22.3207 393.235 21.756 392.985 21.096C392.751 20.436 392.633 19.688 392.633 18.852V18.148C392.633 17.312 392.751 16.564 392.985 15.904C393.235 15.244 393.587 14.6867 394.041 14.232C394.496 13.7627 395.039 13.4107 395.669 13.176C396.3 12.9267 397.011 12.802 397.803 12.802C399.402 12.802 400.663 13.2933 401.587 14.276C402.511 15.2587 402.973 16.6667 402.973 18.5V19.358H395.185C395.259 20.282 395.515 20.9493 395.955 21.36C396.395 21.756 397.011 21.954 397.803 21.954C398.581 21.954 399.145 21.822 399.497 21.558C399.864 21.2793 400.106 20.9567 400.223 20.59H402.863C402.746 21.1033 402.563 21.58 402.313 22.02C402.064 22.46 401.734 22.8413 401.323 23.164C400.913 23.4867 400.414 23.7433 399.827 23.934C399.241 24.11 398.566 24.198 397.803 24.198ZM397.803 15.046C397.055 15.046 396.469 15.2293 396.043 15.596C395.618 15.9627 395.347 16.542 395.229 17.334H400.377C400.275 16.5127 400.003 15.926 399.563 15.574C399.138 15.222 398.551 15.046 397.803 15.046ZM408.826 19.402H407.726V24H405.174V13H407.726V17.158H408.826L411.466 13H414.414L410.938 18.192L414.854 24H411.774L408.826 19.402ZM420.469 24.198C419.677 24.198 418.959 24.0807 418.313 23.846C417.683 23.5967 417.14 23.2447 416.685 22.79C416.245 22.3207 415.901 21.756 415.651 21.096C415.417 20.436 415.299 19.688 415.299 18.852V18.148C415.299 17.3267 415.417 16.586 415.651 15.926C415.901 15.266 416.253 14.7087 416.707 14.254C417.162 13.7847 417.705 13.4253 418.335 13.176C418.981 12.9267 419.692 12.802 420.469 12.802C421.863 12.802 422.941 13.1467 423.703 13.836C424.481 14.5253 424.979 15.42 425.199 16.52H422.471C422.354 16.124 422.112 15.8013 421.745 15.552C421.379 15.3027 420.917 15.178 420.359 15.178C420.037 15.178 419.729 15.2367 419.435 15.354C419.157 15.4567 418.907 15.6327 418.687 15.882C418.467 16.1167 418.291 16.4247 418.159 16.806C418.042 17.1727 417.983 17.62 417.983 18.148V18.852C417.983 19.3653 418.049 19.8127 418.181 20.194C418.313 20.5607 418.489 20.8687 418.709 21.118C418.929 21.3527 419.179 21.5287 419.457 21.646C419.751 21.7633 420.051 21.822 420.359 21.822C420.99 21.822 421.467 21.6827 421.789 21.404C422.127 21.1253 422.354 20.7807 422.471 20.37H425.199C424.979 21.5287 424.481 22.46 423.703 23.164C422.941 23.8533 421.863 24.198 420.469 24.198ZM434.415 16.234L433.425 18.28L430.279 24H427.067V13H429.619V20.766L430.609 18.72L433.755 13H436.967V24H434.415V16.234ZM443.48 19.402H442.38V24H439.828V13H442.38V17.158H443.48L446.12 13H449.068L445.592 18.192L449.508 24H446.428L443.48 19.402ZM453.688 24.198C452.5 24.198 451.598 23.9047 450.982 23.318C450.366 22.7313 450.058 21.9173 450.058 20.876C450.058 20.304 450.146 19.7907 450.322 19.336C450.513 18.8667 450.806 18.478 451.202 18.17C451.613 17.8473 452.134 17.6053 452.764 17.444C453.41 17.268 454.194 17.18 455.118 17.18H456.966V16.52C456.966 15.992 456.82 15.596 456.526 15.332C456.248 15.0533 455.778 14.914 455.118 14.914C454.502 14.914 454.055 15.0313 453.776 15.266C453.498 15.5007 453.329 15.8087 453.27 16.19H450.498C450.557 15.2073 450.953 14.4007 451.686 13.77C452.434 13.1247 453.578 12.802 455.118 12.802C456.585 12.802 457.685 13.1393 458.418 13.814C459.152 14.4887 459.518 15.3907 459.518 16.52V24H457.516L457.252 22.482C456.871 23.0393 456.372 23.4647 455.756 23.758C455.155 24.0513 454.466 24.198 453.688 24.198ZM454.128 22.086C454.539 22.086 454.913 22.02 455.25 21.888C455.602 21.7413 455.903 21.5507 456.152 21.316C456.402 21.0667 456.6 20.788 456.746 20.48C456.893 20.172 456.966 19.842 456.966 19.49V19.16H455.118C454.238 19.16 453.622 19.3067 453.27 19.6C452.918 19.8933 452.742 20.2893 452.742 20.788C452.742 21.184 452.86 21.4993 453.094 21.734C453.344 21.9687 453.688 22.086 454.128 22.086ZM475.106 16.234L474.116 18.28L470.97 24H467.758V13H470.31V20.766L471.3 18.72L474.446 13H477.658V24H475.106V16.234ZM486.02 13H493.72V15.244H488.572V24H486.02V13ZM501.237 24.198C499.858 24.198 498.788 23.7653 498.025 22.9V28.4H495.473V13H497.475L497.717 14.496C498.098 13.924 498.582 13.4987 499.169 13.22C499.77 12.9413 500.46 12.802 501.237 12.802C501.868 12.802 502.447 12.9193 502.975 13.154C503.518 13.374 503.98 13.7113 504.361 14.166C504.742 14.606 505.043 15.1633 505.263 15.838C505.483 16.498 505.593 17.268 505.593 18.148V18.852C505.593 19.732 505.483 20.502 505.263 21.162C505.043 21.822 504.735 22.3793 504.339 22.834C503.958 23.2887 503.503 23.6333 502.975 23.868C502.447 24.088 501.868 24.198 501.237 24.198ZM500.467 21.822C501.244 21.822 501.846 21.5873 502.271 21.118C502.696 20.6487 502.909 19.8933 502.909 18.852V18.148C502.909 17.136 502.689 16.388 502.249 15.904C501.809 15.42 501.215 15.178 500.467 15.178C499.763 15.178 499.184 15.42 498.729 15.904C498.289 16.388 498.054 17.092 498.025 18.016V18.852C498.025 19.82 498.252 20.5607 498.707 21.074C499.176 21.5727 499.763 21.822 500.467 21.822ZM510.644 24.198C509.456 24.198 508.554 23.9047 507.938 23.318C507.322 22.7313 507.014 21.9173 507.014 20.876C507.014 20.304 507.102 19.7907 507.278 19.336C507.468 18.8667 507.762 18.478 508.158 18.17C508.568 17.8473 509.089 17.6053 509.72 17.444C510.365 17.268 511.15 17.18 512.074 17.18H513.922V16.52C513.922 15.992 513.775 15.596 513.482 15.332C513.203 15.0533 512.734 14.914 512.074 14.914C511.458 14.914 511.01 15.0313 510.732 15.266C510.453 15.5007 510.284 15.8087 510.226 16.19H507.454C507.512 15.2073 507.908 14.4007 508.642 13.77C509.39 13.1247 510.534 12.802 512.074 12.802C513.54 12.802 514.64 13.1393 515.374 13.814C516.107 14.4887 516.474 15.3907 516.474 16.52V24H514.472L514.208 22.482C513.826 23.0393 513.328 23.4647 512.712 23.758C512.11 24.0513 511.421 24.198 510.644 24.198ZM511.084 22.086C511.494 22.086 511.868 22.02 512.206 21.888C512.558 21.7413 512.858 21.5507 513.108 21.316C513.357 21.0667 513.555 20.788 513.702 20.48C513.848 20.172 513.922 19.842 513.922 19.49V19.16H512.074C511.194 19.16 510.578 19.3067 510.226 19.6C509.874 19.8933 509.698 20.2893 509.698 20.788C509.698 21.184 509.815 21.4993 510.05 21.734C510.299 21.9687 510.644 22.086 511.084 22.086ZM522.623 18.28L521.765 16.168V24H519.213V13H522.865L525.307 18.742L527.793 13H531.313V24H528.761V16.168L527.903 18.28L526.539 21.47H523.987L522.623 18.28ZM537.576 18.28L536.718 16.168V24H534.166V13H537.818L540.26 18.742L542.746 13H546.266V24H543.714V16.168L542.856 18.28L541.492 21.47H538.94L537.576 18.28ZM551.979 24.198C550.791 24.198 549.889 23.9047 549.273 23.318C548.657 22.7313 548.349 21.9173 548.349 20.876C548.349 20.304 548.437 19.7907 548.613 19.336C548.804 18.8667 549.097 18.478 549.493 18.17C549.904 17.8473 550.425 17.6053 551.055 17.444C551.701 17.268 552.485 17.18 553.409 17.18H555.257V16.52C555.257 15.992 555.111 15.596 554.817 15.332C554.539 15.0533 554.069 14.914 553.409 14.914C552.793 14.914 552.346 15.0313 552.067 15.266C551.789 15.5007 551.62 15.8087 551.561 16.19H548.789C548.848 15.2073 549.244 14.4007 549.977 13.77C550.725 13.1247 551.869 12.802 553.409 12.802C554.876 12.802 555.976 13.1393 556.709 13.814C557.443 14.4887 557.809 15.3907 557.809 16.52V24H555.807L555.543 22.482C555.162 23.0393 554.663 23.4647 554.047 23.758C553.446 24.0513 552.757 24.198 551.979 24.198ZM552.419 22.086C552.83 22.086 553.204 22.02 553.541 21.888C553.893 21.7413 554.194 21.5507 554.443 21.316C554.693 21.0667 554.891 20.788 555.037 20.48C555.184 20.172 555.257 19.842 555.257 19.49V19.16H553.409C552.529 19.16 551.913 19.3067 551.561 19.6C551.209 19.8933 551.033 20.2893 551.033 20.788C551.033 21.184 551.151 21.4993 551.385 21.734C551.635 21.9687 551.979 22.086 552.419 22.086ZM559.234 13H568.474V15.244H565.13V24H562.578V15.244H559.234V13ZM577.587 16.234L576.597 18.28L573.451 24H570.239V13H572.791V20.766L573.781 18.72L576.927 13H580.139V24H577.587V16.234ZM586.652 19.402H585.552V24H583V13H585.552V17.158H586.652L589.292 13H592.24L588.764 18.192L592.68 24H589.6L586.652 19.402ZM596.86 24.198C595.672 24.198 594.77 23.9047 594.154 23.318C593.538 22.7313 593.23 21.9173 593.23 20.876C593.23 20.304 593.318 19.7907 593.494 19.336C593.685 18.8667 593.978 18.478 594.374 18.17C594.785 17.8473 595.306 17.6053 595.936 17.444C596.582 17.268 597.366 17.18 598.29 17.18H600.138V16.52C600.138 15.992 599.992 15.596 599.698 15.332C599.42 15.0533 598.95 14.914 598.29 14.914C597.674 14.914 597.227 15.0313 596.948 15.266C596.67 15.5007 596.501 15.8087 596.442 16.19H593.67C593.729 15.2073 594.125 14.4007 594.858 13.77C595.606 13.1247 596.75 12.802 598.29 12.802C599.757 12.802 600.857 13.1393 601.59 13.814C602.324 14.4887 602.69 15.3907 602.69 16.52V24H600.688L600.424 22.482C600.043 23.0393 599.544 23.4647 598.928 23.758C598.327 24.0513 597.638 24.198 596.86 24.198ZM597.3 22.086C597.711 22.086 598.085 22.02 598.422 21.888C598.774 21.7413 599.075 21.5507 599.324 21.316C599.574 21.0667 599.772 20.788 599.918 20.48C600.065 20.172 600.138 19.842 600.138 19.49V19.16H598.29C597.41 19.16 596.794 19.3067 596.442 19.6C596.09 19.8933 595.914 20.2893 595.914 20.788C595.914 21.184 596.032 21.4993 596.266 21.734C596.516 21.9687 596.86 22.086 597.3 22.086Z" fill="#1F1F1F"></path> <path d="M1071.85 50.112C1071.26 50.112 1070.74 50.0373 1070.28 49.888C1069.82 49.728 1069.43 49.5093 1069.12 49.232C1068.82 48.944 1068.58 48.608 1068.41 48.224C1068.25 47.84 1068.17 47.4187 1068.17 46.96C1068.17 46.288 1068.34 45.7173 1068.69 45.248C1069.05 44.768 1069.53 44.4053 1070.13 44.16C1069.62 43.9253 1069.22 43.6 1068.92 43.184C1068.63 42.768 1068.49 42.256 1068.49 41.648C1068.49 41.232 1068.57 40.848 1068.73 40.496C1068.9 40.1333 1069.13 39.8187 1069.41 39.552C1069.71 39.2853 1070.06 39.0773 1070.47 38.928C1070.89 38.768 1071.34 38.688 1071.85 38.688C1072.36 38.688 1072.82 38.7627 1073.22 38.912C1073.64 39.0613 1073.99 39.2693 1074.28 39.536C1074.58 39.8027 1074.81 40.1173 1074.97 40.48C1075.12 40.832 1075.2 41.2213 1075.2 41.648C1075.2 42.2453 1075.05 42.752 1074.74 43.168C1074.44 43.584 1074.04 43.9093 1073.53 44.144C1074.13 44.4 1074.62 44.768 1074.98 45.248C1075.34 45.7173 1075.53 46.288 1075.53 46.96C1075.53 47.408 1075.44 47.824 1075.27 48.208C1075.11 48.592 1074.87 48.928 1074.55 49.216C1074.23 49.4933 1073.84 49.712 1073.38 49.872C1072.93 50.032 1072.42 50.112 1071.85 50.112ZM1071.85 49.056C1072.24 49.056 1072.59 49.0027 1072.9 48.896C1073.22 48.7787 1073.49 48.624 1073.7 48.432C1073.91 48.24 1074.08 48.0213 1074.2 47.776C1074.31 47.52 1074.37 47.248 1074.37 46.96C1074.37 46.6187 1074.3 46.3093 1074.17 46.032C1074.04 45.7547 1073.86 45.52 1073.62 45.328C1073.4 45.1253 1073.13 44.9653 1072.82 44.848C1072.51 44.7307 1072.19 44.656 1071.85 44.624C1071.49 44.656 1071.16 44.7307 1070.85 44.848C1070.54 44.9547 1070.27 45.1093 1070.04 45.312C1069.81 45.504 1069.64 45.7387 1069.51 46.016C1069.38 46.2933 1069.32 46.608 1069.32 46.96C1069.32 47.248 1069.38 47.52 1069.49 47.776C1069.61 48.0213 1069.78 48.24 1069.99 48.432C1070.2 48.624 1070.46 48.7787 1070.77 48.896C1071.09 49.0027 1071.45 49.056 1071.85 49.056ZM1071.85 43.696C1072.12 43.664 1072.39 43.6053 1072.66 43.52C1072.93 43.424 1073.16 43.296 1073.37 43.136C1073.58 42.9653 1073.74 42.7573 1073.86 42.512C1073.99 42.2667 1074.05 41.9787 1074.05 41.648C1074.05 41.4027 1074 41.168 1073.89 40.944C1073.8 40.7093 1073.65 40.5067 1073.46 40.336C1073.27 40.1547 1073.03 40.0107 1072.76 39.904C1072.49 39.7973 1072.19 39.744 1071.85 39.744C1071.5 39.744 1071.19 39.7973 1070.92 39.904C1070.65 40.0107 1070.42 40.1547 1070.23 40.336C1070.04 40.5067 1069.89 40.7093 1069.78 40.944C1069.69 41.168 1069.64 41.4027 1069.64 41.648C1069.64 41.968 1069.7 42.2507 1069.83 42.496C1069.96 42.7307 1070.12 42.9333 1070.33 43.104C1070.54 43.2747 1070.78 43.408 1071.05 43.504C1071.31 43.6 1071.58 43.664 1071.85 43.696ZM1083.84 44.88L1082.98 43.152V50H1081.92V42H1083.39L1086.02 46.944L1088.64 42H1090.08V50H1089.03V43.152L1088.16 44.88L1086.53 48H1085.47L1083.84 44.88ZM1098.3 43.216L1097.31 44.88L1094.11 50H1092.8V42H1093.85V48.8L1094.85 47.12L1098.05 42H1099.36V50H1098.3V43.216ZM1107.58 46.4H1103.13V50H1102.08V42H1103.13V45.44H1107.58V42H1108.64V50H1107.58V46.4Z" fill="#999999"></path> <path d="M1068.44 11.812L1067.47 13.88L1062.06 24H1058.54V8.6H1061.18V20.898L1062.19 18.72L1067.6 8.6H1071.08V24H1068.44V11.812ZM1074.05 13H1081.75V15.244H1076.6V24H1074.05V13ZM1089.26 24.198C1087.89 24.198 1086.81 23.7653 1086.05 22.9V28.4H1083.5V13H1085.5L1085.74 14.496C1086.13 13.924 1086.61 13.4987 1087.2 13.22C1087.8 12.9413 1088.49 12.802 1089.26 12.802C1089.89 12.802 1090.47 12.9193 1091 13.154C1091.54 13.374 1092.01 13.7113 1092.39 14.166C1092.77 14.606 1093.07 15.1633 1093.29 15.838C1093.51 16.498 1093.62 17.268 1093.62 18.148V18.852C1093.62 19.732 1093.51 20.502 1093.29 21.162C1093.07 21.822 1092.76 22.3793 1092.37 22.834C1091.98 23.2887 1091.53 23.6333 1091 23.868C1090.47 24.088 1089.89 24.198 1089.26 24.198ZM1088.49 21.822C1089.27 21.822 1089.87 21.5873 1090.3 21.118C1090.72 20.6487 1090.94 19.8933 1090.94 18.852V18.148C1090.94 17.136 1090.72 16.388 1090.28 15.904C1089.84 15.42 1089.24 15.178 1088.49 15.178C1087.79 15.178 1087.21 15.42 1086.76 15.904C1086.32 16.388 1086.08 17.092 1086.05 18.016V18.852C1086.05 19.82 1086.28 20.5607 1086.73 21.074C1087.2 21.5727 1087.79 21.822 1088.49 21.822ZM1095.81 13H1098.36V16.3H1099.99C1101.68 16.3 1102.9 16.6447 1103.66 17.334C1104.44 18.0233 1104.83 18.962 1104.83 20.15C1104.83 21.338 1104.44 22.2767 1103.66 22.966C1102.9 23.6553 1101.68 24 1099.99 24H1095.81V13ZM1106.02 13H1108.57V24H1106.02V13ZM1098.36 18.39V21.91H1100.1C1100.8 21.91 1101.32 21.756 1101.64 21.448C1101.98 21.14 1102.15 20.7073 1102.15 20.15C1102.15 19.5927 1101.98 19.16 1101.64 18.852C1101.32 18.544 1100.8 18.39 1100.1 18.39H1098.36Z" fill="#1F1F1F"></path> <path d="M1201.84 194.112C1200.71 194.112 1199.83 193.797 1199.19 193.168C1198.56 192.539 1198.21 191.669 1198.16 190.56H1199.31C1199.37 191.36 1199.61 191.979 1200.03 192.416C1200.46 192.843 1201.06 193.056 1201.84 193.056C1202.67 193.056 1203.3 192.859 1203.73 192.464C1204.16 192.059 1204.37 191.531 1204.37 190.88C1204.37 190.251 1204.16 189.739 1203.75 189.344C1203.33 188.949 1202.74 188.752 1201.99 188.752H1200.48V187.728H1201.99C1202.66 187.728 1203.18 187.547 1203.55 187.184C1203.94 186.811 1204.13 186.331 1204.13 185.744C1204.13 185.136 1203.93 184.651 1203.54 184.288C1203.15 183.925 1202.59 183.744 1201.84 183.744C1201.17 183.744 1200.64 183.941 1200.24 184.336C1199.86 184.72 1199.63 185.248 1199.55 185.92H1198.4C1198.42 185.429 1198.52 184.987 1198.69 184.592C1198.86 184.197 1199.09 183.861 1199.38 183.584C1199.68 183.296 1200.03 183.077 1200.45 182.928C1200.87 182.768 1201.33 182.688 1201.84 182.688C1202.39 182.688 1202.87 182.763 1203.3 182.912C1203.72 183.061 1204.08 183.269 1204.37 183.536C1204.67 183.803 1204.89 184.128 1205.04 184.512C1205.2 184.885 1205.28 185.296 1205.28 185.744C1205.28 186.288 1205.15 186.779 1204.88 187.216C1204.63 187.643 1204.25 187.979 1203.76 188.224C1204.34 188.469 1204.77 188.827 1205.07 189.296C1205.37 189.755 1205.52 190.283 1205.52 190.88C1205.52 191.36 1205.44 191.797 1205.27 192.192C1205.11 192.587 1204.87 192.928 1204.56 193.216C1204.25 193.493 1203.87 193.712 1203.41 193.872C1202.95 194.032 1202.43 194.112 1201.84 194.112ZM1213.84 188.88L1212.98 187.152V194H1211.92V186H1213.39L1216.02 190.944L1218.64 186H1220.08V194H1219.03V187.152L1218.16 188.88L1216.53 192H1215.47L1213.84 188.88ZM1228.3 187.216L1227.31 188.88L1224.11 194H1222.8V186H1223.85V192.8L1224.85 191.12L1228.05 186H1229.36V194H1228.3V187.216ZM1237.58 190.4H1233.13V194H1232.08V186H1233.13V189.44H1237.58V186H1238.64V194H1237.58V190.4Z" fill="#999999"></path> <path d="M1054.98 154.932H1047.94V168H1045.3V152.6H1057.62V168H1054.98V154.932ZM1065.22 168.198C1063.56 168.198 1062.26 167.729 1061.32 166.79C1060.4 165.851 1059.94 164.539 1059.94 162.852V162.148C1059.94 161.312 1060.05 160.564 1060.29 159.904C1060.54 159.244 1060.89 158.687 1061.34 158.232C1061.81 157.763 1062.37 157.411 1063.02 157.176C1063.66 156.927 1064.39 156.802 1065.22 156.802C1066.87 156.802 1068.16 157.271 1069.09 158.21C1070.03 159.149 1070.5 160.461 1070.5 162.148V162.852C1070.5 163.688 1070.37 164.436 1070.12 165.096C1069.89 165.756 1069.54 166.321 1069.07 166.79C1068.61 167.245 1068.05 167.597 1067.39 167.846C1066.75 168.081 1066.02 168.198 1065.22 168.198ZM1065.22 165.822C1066.05 165.822 1066.69 165.58 1067.13 165.096C1067.58 164.612 1067.81 163.864 1067.81 162.852V162.148C1067.81 161.151 1067.58 160.41 1067.11 159.926C1066.65 159.427 1066.02 159.178 1065.22 159.178C1064.38 159.178 1063.73 159.42 1063.28 159.904C1062.84 160.388 1062.62 161.136 1062.62 162.148V162.852C1062.62 163.849 1062.85 164.597 1063.3 165.096C1063.77 165.58 1064.41 165.822 1065.22 165.822ZM1080.46 168H1073.62V170.86H1071.16V165.8H1072.32C1072.48 165.536 1072.63 165.243 1072.76 164.92C1072.91 164.583 1073.03 164.201 1073.11 163.776C1073.22 163.336 1073.3 162.837 1073.36 162.28C1073.42 161.708 1073.44 161.048 1073.44 160.3V157H1081.61V165.8H1082.93V170.86H1080.46V168ZM1075.91 160.3C1075.91 161.077 1075.88 161.759 1075.82 162.346C1075.78 162.918 1075.71 163.424 1075.62 163.864C1075.53 164.289 1075.43 164.663 1075.31 164.986C1075.21 165.294 1075.1 165.565 1074.98 165.8H1079.05V159.244H1075.91V160.3ZM1084.57 157H1088.86C1089.68 157 1090.38 157.073 1090.95 157.22C1091.52 157.367 1091.99 157.579 1092.34 157.858C1092.71 158.122 1092.97 158.445 1093.13 158.826C1093.29 159.207 1093.37 159.633 1093.37 160.102C1093.37 160.542 1093.26 160.953 1093.04 161.334C1092.82 161.715 1092.48 162.038 1092.01 162.302C1092.64 162.551 1093.09 162.896 1093.37 163.336C1093.67 163.776 1093.81 164.26 1093.81 164.788C1093.81 165.287 1093.73 165.734 1093.57 166.13C1093.41 166.526 1093.15 166.863 1092.78 167.142C1092.43 167.421 1091.96 167.633 1091.39 167.78C1090.82 167.927 1090.12 168 1089.3 168H1084.57V157ZM1087.04 163.38V165.976H1089.3C1089.98 165.976 1090.45 165.866 1090.71 165.646C1090.99 165.411 1091.13 165.089 1091.13 164.678C1091.13 164.267 1090.99 163.952 1090.71 163.732C1090.45 163.497 1089.98 163.38 1089.3 163.38H1087.04ZM1087.04 159.024V161.4H1088.86C1089.57 161.4 1090.04 161.297 1090.29 161.092C1090.56 160.887 1090.69 160.593 1090.69 160.212C1090.69 159.831 1090.56 159.537 1090.29 159.332C1090.04 159.127 1089.57 159.024 1088.86 159.024H1087.04ZM1100.51 168.198C1099.72 168.198 1099.01 168.081 1098.38 167.846C1097.75 167.597 1097.2 167.245 1096.75 166.79C1096.3 166.321 1095.94 165.756 1095.69 165.096C1095.46 164.436 1095.34 163.688 1095.34 162.852V162.148C1095.34 161.312 1095.46 160.564 1095.69 159.904C1095.94 159.244 1096.3 158.687 1096.75 158.232C1097.2 157.763 1097.75 157.411 1098.38 157.176C1099.01 156.927 1099.72 156.802 1100.51 156.802C1102.11 156.802 1103.37 157.293 1104.3 158.276C1105.22 159.259 1105.68 160.667 1105.68 162.5V163.358H1097.89C1097.97 164.282 1098.22 164.949 1098.66 165.36C1099.1 165.756 1099.72 165.954 1100.51 165.954C1101.29 165.954 1101.85 165.822 1102.21 165.558C1102.57 165.279 1102.81 164.957 1102.93 164.59H1105.57C1105.45 165.103 1105.27 165.58 1105.02 166.02C1104.77 166.46 1104.44 166.841 1104.03 167.164C1103.62 167.487 1103.12 167.743 1102.54 167.934C1101.95 168.11 1101.27 168.198 1100.51 168.198ZM1100.51 159.046C1099.76 159.046 1099.18 159.229 1098.75 159.596C1098.33 159.963 1098.06 160.542 1097.94 161.334H1103.09C1102.98 160.513 1102.71 159.926 1102.27 159.574C1101.85 159.222 1101.26 159.046 1100.51 159.046ZM1115.65 168H1108.81V170.86H1106.35V165.8H1107.51C1107.68 165.536 1107.82 165.243 1107.95 164.92C1108.1 164.583 1108.22 164.201 1108.31 163.776C1108.41 163.336 1108.49 162.837 1108.55 162.28C1108.61 161.708 1108.64 161.048 1108.64 160.3V157H1116.8V165.8H1118.12V170.86H1115.65V168ZM1111.1 160.3C1111.1 161.077 1111.07 161.759 1111.01 162.346C1110.97 162.918 1110.9 163.424 1110.81 163.864C1110.73 164.289 1110.62 164.663 1110.51 164.986C1110.4 165.294 1110.29 165.565 1110.18 165.8H1114.25V159.244H1111.1V160.3ZM1124.27 168.198C1123.48 168.198 1122.77 168.081 1122.14 167.846C1121.51 167.597 1120.97 167.245 1120.51 166.79C1120.06 166.321 1119.71 165.756 1119.46 165.096C1119.22 164.436 1119.1 163.688 1119.1 162.852V162.148C1119.1 161.312 1119.22 160.564 1119.46 159.904C1119.71 159.244 1120.06 158.687 1120.51 158.232C1120.97 157.763 1121.51 157.411 1122.14 157.176C1122.77 156.927 1123.48 156.802 1124.27 156.802C1125.87 156.802 1127.13 157.293 1128.06 158.276C1128.98 159.259 1129.44 160.667 1129.44 162.5V163.358H1121.66C1121.73 164.282 1121.99 164.949 1122.43 165.36C1122.87 165.756 1123.48 165.954 1124.27 165.954C1125.05 165.954 1125.62 165.822 1125.97 165.558C1126.33 165.279 1126.58 164.957 1126.69 164.59H1129.33C1129.22 165.103 1129.03 165.58 1128.78 166.02C1128.53 166.46 1128.2 166.841 1127.79 167.164C1127.38 167.487 1126.88 167.743 1126.3 167.934C1125.71 168.11 1125.04 168.198 1124.27 168.198ZM1124.27 159.046C1123.53 159.046 1122.94 159.229 1122.51 159.596C1122.09 159.963 1121.82 160.542 1121.7 161.334H1126.85C1126.75 160.513 1126.47 159.926 1126.03 159.574C1125.61 159.222 1125.02 159.046 1124.27 159.046ZM1138.99 163.512H1134.2V168H1131.64V157H1134.2V161.268H1138.99V157H1141.54V168H1138.99V163.512ZM1151.75 160.234L1150.76 162.28L1147.62 168H1144.41V157H1146.96V164.766L1147.95 162.72L1151.09 157H1154.31V168H1151.75V160.234ZM1161.68 168.198C1160.89 168.198 1160.17 168.081 1159.54 167.846C1158.91 167.597 1158.37 167.245 1157.92 166.79C1157.46 166.321 1157.11 165.756 1156.86 165.096C1156.63 164.436 1156.51 163.688 1156.51 162.852V162.148C1156.51 161.312 1156.63 160.564 1156.86 159.904C1157.11 159.244 1157.46 158.687 1157.92 158.232C1158.37 157.763 1158.91 157.411 1159.54 157.176C1160.17 156.927 1160.89 156.802 1161.68 156.802C1163.28 156.802 1164.54 157.293 1165.46 158.276C1166.39 159.259 1166.85 160.667 1166.85 162.5V163.358H1159.06C1159.13 164.282 1159.39 164.949 1159.83 165.36C1160.27 165.756 1160.89 165.954 1161.68 165.954C1162.46 165.954 1163.02 165.822 1163.37 165.558C1163.74 165.279 1163.98 164.957 1164.1 164.59H1166.74C1166.62 165.103 1166.44 165.58 1166.19 166.02C1165.94 166.46 1165.61 166.841 1165.2 167.164C1164.79 167.487 1164.29 167.743 1163.7 167.934C1163.12 168.11 1162.44 168.198 1161.68 168.198ZM1161.68 159.046C1160.93 159.046 1160.34 159.229 1159.92 159.596C1159.49 159.963 1159.22 160.542 1159.1 161.334H1164.25C1164.15 160.513 1163.88 159.926 1163.44 159.574C1163.01 159.222 1162.43 159.046 1161.68 159.046ZM1181.9 160.234L1180.91 162.28L1177.76 168H1174.55V157H1177.1V164.766L1178.09 162.72L1181.24 157H1184.45V168H1181.9V160.234ZM1186.21 157H1195.45V159.244H1192.11V168H1189.55V159.244H1186.21V157ZM1201.41 168.198C1199.75 168.198 1198.45 167.729 1197.51 166.79C1196.59 165.851 1196.13 164.539 1196.13 162.852V162.148C1196.13 161.312 1196.24 160.564 1196.48 159.904C1196.73 159.244 1197.08 158.687 1197.53 158.232C1198 157.763 1198.56 157.411 1199.21 157.176C1199.85 156.927 1200.58 156.802 1201.41 156.802C1203.06 156.802 1204.35 157.271 1205.28 158.21C1206.22 159.149 1206.69 160.461 1206.69 162.148V162.852C1206.69 163.688 1206.56 164.436 1206.31 165.096C1206.08 165.756 1205.72 166.321 1205.26 166.79C1204.8 167.245 1204.24 167.597 1203.58 167.846C1202.94 168.081 1202.21 168.198 1201.41 168.198ZM1201.41 165.822C1202.24 165.822 1202.88 165.58 1203.32 165.096C1203.77 164.612 1204 163.864 1204 162.852V162.148C1204 161.151 1203.77 160.41 1203.3 159.926C1202.84 159.427 1202.21 159.178 1201.41 159.178C1200.57 159.178 1199.92 159.42 1199.47 159.904C1199.03 160.388 1198.81 161.136 1198.81 162.148V162.852C1198.81 163.849 1199.04 164.597 1199.49 165.096C1199.96 165.58 1200.6 165.822 1201.41 165.822ZM1208.88 157H1216.58V159.244H1211.43V168H1208.88V157ZM1222.52 168.198C1220.87 168.198 1219.57 167.729 1218.63 166.79C1217.71 165.851 1217.24 164.539 1217.24 162.852V162.148C1217.24 161.312 1217.36 160.564 1217.6 159.904C1217.85 159.244 1218.2 158.687 1218.65 158.232C1219.12 157.763 1219.68 157.411 1220.32 157.176C1220.97 156.927 1221.7 156.802 1222.52 156.802C1224.18 156.802 1225.47 157.271 1226.4 158.21C1227.34 159.149 1227.8 160.461 1227.8 162.148V162.852C1227.8 163.688 1227.68 164.436 1227.43 165.096C1227.2 165.756 1226.84 166.321 1226.37 166.79C1225.92 167.245 1225.36 167.597 1224.7 167.846C1224.06 168.081 1223.33 168.198 1222.52 168.198ZM1222.52 165.822C1223.36 165.822 1224 165.58 1224.44 165.096C1224.89 164.612 1225.12 163.864 1225.12 162.852V162.148C1225.12 161.151 1224.89 160.41 1224.42 159.926C1223.96 159.427 1223.33 159.178 1222.52 159.178C1221.69 159.178 1221.04 159.42 1220.59 159.904C1220.15 160.388 1219.93 161.136 1219.93 162.148V162.852C1219.93 163.849 1220.16 164.597 1220.61 165.096C1221.08 165.58 1221.72 165.822 1222.52 165.822ZM1230 157H1234.29C1235.11 157 1235.81 157.073 1236.38 157.22C1236.95 157.367 1237.41 157.579 1237.77 157.858C1238.13 158.122 1238.4 158.445 1238.56 158.826C1238.72 159.207 1238.8 159.633 1238.8 160.102C1238.8 160.542 1238.69 160.953 1238.47 161.334C1238.25 161.715 1237.91 162.038 1237.44 162.302C1238.07 162.551 1238.52 162.896 1238.8 163.336C1239.09 163.776 1239.24 164.26 1239.24 164.788C1239.24 165.287 1239.16 165.734 1239 166.13C1238.84 166.526 1238.57 166.863 1238.21 167.142C1237.85 167.421 1237.39 167.633 1236.82 167.78C1236.25 167.927 1235.55 168 1234.73 168H1230V157ZM1232.46 163.38V165.976H1234.73C1235.4 165.976 1235.87 165.866 1236.14 165.646C1236.42 165.411 1236.56 165.089 1236.56 164.678C1236.56 164.267 1236.42 163.952 1236.14 163.732C1235.87 163.497 1235.4 163.38 1234.73 163.38H1232.46ZM1232.46 159.024V161.4H1234.29C1234.99 161.4 1235.47 161.297 1235.72 161.092C1235.98 160.887 1236.12 160.593 1236.12 160.212C1236.12 159.831 1235.98 159.537 1235.72 159.332C1235.47 159.127 1234.99 159.024 1234.29 159.024H1232.46Z" fill="#1F1F1F"></path> <path d="M242.486 192.976L246.454 189.04C246.795 188.699 247.094 188.389 247.35 188.112C247.616 187.835 247.835 187.573 248.006 187.328C248.187 187.083 248.32 186.848 248.406 186.624C248.491 186.4 248.534 186.165 248.534 185.92C248.534 185.291 248.315 184.773 247.878 184.368C247.44 183.952 246.843 183.744 246.086 183.744C245.328 183.744 244.731 183.952 244.294 184.368C243.856 184.773 243.638 185.291 243.638 185.92H242.486C242.486 185.461 242.571 185.035 242.742 184.64C242.912 184.245 243.152 183.904 243.462 183.616C243.771 183.328 244.15 183.104 244.598 182.944C245.046 182.773 245.542 182.688 246.086 182.688C246.63 182.688 247.126 182.773 247.574 182.944C248.022 183.104 248.4 183.328 248.71 183.616C249.019 183.904 249.259 184.245 249.43 184.64C249.6 185.035 249.686 185.461 249.686 185.92C249.686 186.539 249.472 187.141 249.046 187.728C248.63 188.315 248.048 188.971 247.302 189.696L243.926 192.976H249.686V194H242.486V192.976ZM257.843 188.88L256.979 187.152V194H255.923V186H257.395L260.019 190.944L262.642 186H264.083V194H263.027V187.152L262.163 188.88L260.531 192H259.475L257.843 188.88ZM272.302 187.216L271.31 188.88L268.11 194H266.798V186H267.854V192.8L268.846 191.12L272.046 186H273.358V194H272.302V187.216ZM281.583 190.4H277.135V194H276.079V186H277.135V189.44H281.583V186H282.639V194H281.583V190.4Z" fill="#999999"></path> <path d="M100.855 168H91.3286V171.3H88.7766V165.668H90.0526C90.3166 165.301 90.5366 164.913 90.7126 164.502C90.9033 164.091 91.0573 163.593 91.1746 163.006C91.3066 162.405 91.3946 161.679 91.4386 160.828C91.4973 159.977 91.5266 158.921 91.5266 157.66V152.6H101.977V165.668H103.407V171.3H100.855V168ZM94.1666 157.66C94.1666 158.789 94.1446 159.772 94.1006 160.608C94.0566 161.444 93.9906 162.177 93.9026 162.808C93.8146 163.439 93.6973 163.981 93.5506 164.436C93.404 164.891 93.228 165.301 93.0226 165.668H99.3366V154.932H94.1666V157.66ZM109.581 168.198C107.924 168.198 106.626 167.729 105.687 166.79C104.763 165.851 104.301 164.539 104.301 162.852V162.148C104.301 161.312 104.419 160.564 104.653 159.904C104.903 159.244 105.255 158.687 105.709 158.232C106.179 157.763 106.736 157.411 107.381 157.176C108.027 156.927 108.76 156.802 109.581 156.802C111.239 156.802 112.529 157.271 113.453 158.21C114.392 159.149 114.861 160.461 114.861 162.148V162.852C114.861 163.688 114.737 164.436 114.487 165.096C114.253 165.756 113.901 166.321 113.431 166.79C112.977 167.245 112.419 167.597 111.759 167.846C111.114 168.081 110.388 168.198 109.581 168.198ZM109.581 165.822C110.417 165.822 111.055 165.58 111.495 165.096C111.95 164.612 112.177 163.864 112.177 162.852V162.148C112.177 161.151 111.943 160.41 111.473 159.926C111.019 159.427 110.388 159.178 109.581 159.178C108.745 159.178 108.1 159.42 107.645 159.904C107.205 160.388 106.985 161.136 106.985 162.148V162.852C106.985 163.849 107.213 164.597 107.667 165.096C108.137 165.58 108.775 165.822 109.581 165.822ZM120.467 162.28L119.609 160.168V168H117.057V157H120.709L123.151 162.742L125.637 157H129.157V168H126.605V160.168L125.747 162.28L124.383 165.47H121.831L120.467 162.28ZM134.87 168.198C133.682 168.198 132.78 167.905 132.164 167.318C131.548 166.731 131.24 165.917 131.24 164.876C131.24 164.304 131.328 163.791 131.504 163.336C131.695 162.867 131.988 162.478 132.384 162.17C132.795 161.847 133.315 161.605 133.946 161.444C134.591 161.268 135.376 161.18 136.3 161.18H138.148V160.52C138.148 159.992 138.001 159.596 137.708 159.332C137.429 159.053 136.96 158.914 136.3 158.914C135.684 158.914 135.237 159.031 134.958 159.266C134.679 159.501 134.511 159.809 134.452 160.19H131.68C131.739 159.207 132.135 158.401 132.868 157.77C133.616 157.125 134.76 156.802 136.3 156.802C137.767 156.802 138.867 157.139 139.6 157.814C140.333 158.489 140.7 159.391 140.7 160.52V168H138.698L138.434 166.482C138.053 167.039 137.554 167.465 136.938 167.758C136.337 168.051 135.647 168.198 134.87 168.198ZM135.31 166.086C135.721 166.086 136.095 166.02 136.432 165.888C136.784 165.741 137.085 165.551 137.334 165.316C137.583 165.067 137.781 164.788 137.928 164.48C138.075 164.172 138.148 163.842 138.148 163.49V163.16H136.3C135.42 163.16 134.804 163.307 134.452 163.6C134.1 163.893 133.924 164.289 133.924 164.788C133.924 165.184 134.041 165.499 134.276 165.734C134.525 165.969 134.87 166.086 135.31 166.086ZM143.44 157H145.992V165.756H149.094V157H151.646V165.756H154.748V157H157.3V168H143.44V157ZM167.503 163.512H162.707V168H160.155V157H162.707V161.268H167.503V157H170.055V168H167.503V163.512ZM177.426 168.198C176.634 168.198 175.923 168.081 175.292 167.846C174.662 167.597 174.119 167.245 173.664 166.79C173.21 166.321 172.858 165.756 172.608 165.096C172.374 164.436 172.256 163.688 172.256 162.852V162.148C172.256 161.312 172.374 160.564 172.608 159.904C172.858 159.244 173.21 158.687 173.664 158.232C174.119 157.763 174.662 157.411 175.292 157.176C175.923 156.927 176.634 156.802 177.426 156.802C179.025 156.802 180.286 157.293 181.21 158.276C182.134 159.259 182.596 160.667 182.596 162.5V163.358H174.808C174.882 164.282 175.138 164.949 175.578 165.36C176.018 165.756 176.634 165.954 177.426 165.954C178.204 165.954 178.768 165.822 179.12 165.558C179.487 165.279 179.729 164.957 179.846 164.59H182.486C182.369 165.103 182.186 165.58 181.936 166.02C181.687 166.46 181.357 166.841 180.946 167.164C180.536 167.487 180.037 167.743 179.45 167.934C178.864 168.11 178.189 168.198 177.426 168.198ZM177.426 159.046C176.678 159.046 176.092 159.229 175.666 159.596C175.241 159.963 174.97 160.542 174.852 161.334H180C179.898 160.513 179.626 159.926 179.186 159.574C178.761 159.222 178.174 159.046 177.426 159.046ZM189.307 168.198C188.515 168.198 187.804 168.081 187.173 167.846C186.543 167.597 186 167.245 185.545 166.79C185.091 166.321 184.739 165.756 184.489 165.096C184.255 164.436 184.137 163.688 184.137 162.852V162.148C184.137 161.312 184.255 160.564 184.489 159.904C184.739 159.244 185.091 158.687 185.545 158.232C186 157.763 186.543 157.411 187.173 157.176C187.804 156.927 188.515 156.802 189.307 156.802C190.906 156.802 192.167 157.293 193.091 158.276C194.015 159.259 194.477 160.667 194.477 162.5V163.358H186.689C186.763 164.282 187.019 164.949 187.459 165.36C187.899 165.756 188.515 165.954 189.307 165.954C190.085 165.954 190.649 165.822 191.001 165.558C191.368 165.279 191.61 164.957 191.727 164.59H194.367C194.25 165.103 194.067 165.58 193.817 166.02C193.568 166.46 193.238 166.841 192.827 167.164C192.417 167.487 191.918 167.743 191.331 167.934C190.745 168.11 190.07 168.198 189.307 168.198ZM189.307 159.046C188.559 159.046 187.973 159.229 187.547 159.596C187.122 159.963 186.851 160.542 186.733 161.334H191.881C191.779 160.513 191.507 159.926 191.067 159.574C190.642 159.222 190.055 159.046 189.307 159.046ZM206.028 156.802C207.495 156.802 208.573 157.11 209.262 157.726C209.966 158.327 210.318 159.105 210.318 160.058C210.318 160.527 210.201 160.96 209.966 161.356C209.746 161.752 209.401 162.082 208.932 162.346C209.504 162.595 209.929 162.933 210.208 163.358C210.501 163.783 210.648 164.267 210.648 164.81C210.648 165.309 210.56 165.771 210.384 166.196C210.208 166.607 209.929 166.959 209.548 167.252C209.181 167.545 208.705 167.78 208.118 167.956C207.531 168.117 206.835 168.198 206.028 168.198C204.415 168.198 203.227 167.868 202.464 167.208C201.716 166.533 201.291 165.587 201.188 164.37H203.652C203.769 164.913 203.997 165.331 204.334 165.624C204.671 165.903 205.236 166.042 206.028 166.042C206.835 166.042 207.392 165.917 207.7 165.668C208.023 165.419 208.184 165.103 208.184 164.722C208.184 164.341 208.023 164.025 207.7 163.776C207.392 163.527 206.835 163.402 206.028 163.402H204.818V161.378H206.028C206.703 161.378 207.172 161.268 207.436 161.048C207.715 160.828 207.854 160.535 207.854 160.168C207.854 159.801 207.715 159.508 207.436 159.288C207.172 159.068 206.703 158.958 206.028 158.958C205.368 158.958 204.891 159.09 204.598 159.354C204.305 159.618 204.099 160.007 203.982 160.52H201.518C201.635 159.332 202.046 158.415 202.75 157.77C203.454 157.125 204.547 156.802 206.028 156.802ZM215.716 168.198C214.528 168.198 213.626 167.905 213.01 167.318C212.394 166.731 212.086 165.917 212.086 164.876C212.086 164.304 212.174 163.791 212.35 163.336C212.54 162.867 212.834 162.478 213.23 162.17C213.64 161.847 214.161 161.605 214.792 161.444C215.437 161.268 216.222 161.18 217.146 161.18H218.994V160.52C218.994 159.992 218.847 159.596 218.554 159.332C218.275 159.053 217.806 158.914 217.146 158.914C216.53 158.914 216.082 159.031 215.804 159.266C215.525 159.501 215.356 159.809 215.298 160.19H212.526C212.584 159.207 212.98 158.401 213.714 157.77C214.462 157.125 215.606 156.802 217.146 156.802C218.612 156.802 219.712 157.139 220.446 157.814C221.179 158.489 221.546 159.391 221.546 160.52V168H219.544L219.28 166.482C218.898 167.039 218.4 167.465 217.784 167.758C217.182 168.051 216.493 168.198 215.716 168.198ZM216.156 166.086C216.566 166.086 216.94 166.02 217.278 165.888C217.63 165.741 217.93 165.551 218.18 165.316C218.429 165.067 218.627 164.788 218.774 164.48C218.92 164.172 218.994 163.842 218.994 163.49V163.16H217.146C216.266 163.16 215.65 163.307 215.298 163.6C214.946 163.893 214.77 164.289 214.77 164.788C214.77 165.184 214.887 165.499 215.122 165.734C215.371 165.969 215.716 166.086 216.156 166.086ZM232.271 168H225.429V170.86H222.965V165.8H224.131C224.293 165.536 224.439 165.243 224.571 164.92C224.718 164.583 224.835 164.201 224.923 163.776C225.026 163.336 225.107 162.837 225.165 162.28C225.224 161.708 225.253 161.048 225.253 160.3V157H233.415V165.8H234.735V170.86H232.271V168ZM227.717 160.3C227.717 161.077 227.688 161.759 227.629 162.346C227.585 162.918 227.519 163.424 227.431 163.864C227.343 164.289 227.241 164.663 227.123 164.986C227.021 165.294 226.911 165.565 226.793 165.8H230.863V159.244H227.717V160.3ZM239.456 168.198C238.268 168.198 237.366 167.905 236.75 167.318C236.134 166.731 235.826 165.917 235.826 164.876C235.826 164.304 235.914 163.791 236.09 163.336C236.281 162.867 236.574 162.478 236.97 162.17C237.381 161.847 237.901 161.605 238.532 161.444C239.177 161.268 239.962 161.18 240.886 161.18H242.734V160.52C242.734 159.992 242.587 159.596 242.294 159.332C242.015 159.053 241.546 158.914 240.886 158.914C240.27 158.914 239.823 159.031 239.544 159.266C239.265 159.501 239.097 159.809 239.038 160.19H236.266C236.325 159.207 236.721 158.401 237.454 157.77C238.202 157.125 239.346 156.802 240.886 156.802C242.353 156.802 243.453 157.139 244.186 157.814C244.919 158.489 245.286 159.391 245.286 160.52V168H243.284L243.02 166.482C242.639 167.039 242.14 167.465 241.524 167.758C240.923 168.051 240.233 168.198 239.456 168.198ZM239.896 166.086C240.307 166.086 240.681 166.02 241.018 165.888C241.37 165.741 241.671 165.551 241.92 165.316C242.169 165.067 242.367 164.788 242.514 164.48C242.661 164.172 242.734 163.842 242.734 163.49V163.16H240.886C240.006 163.16 239.39 163.307 239.038 163.6C238.686 163.893 238.51 164.289 238.51 164.788C238.51 165.184 238.627 165.499 238.862 165.734C239.111 165.969 239.456 166.086 239.896 166.086ZM255.374 163.512H250.578V168H248.026V157H250.578V161.268H255.374V157H257.926V168H255.374V163.512ZM268.135 160.234L267.145 162.28L263.999 168H260.787V157H263.339V164.766L264.329 162.72L267.475 157H270.687V168H268.135V160.234ZM278.059 168.198C277.267 168.198 276.556 168.081 275.925 167.846C275.294 167.597 274.752 167.245 274.297 166.79C273.842 166.321 273.49 165.756 273.241 165.096C273.006 164.436 272.889 163.688 272.889 162.852V162.148C272.889 161.312 273.006 160.564 273.241 159.904C273.49 159.244 273.842 158.687 274.297 158.232C274.752 157.763 275.294 157.411 275.925 157.176C276.556 156.927 277.267 156.802 278.059 156.802C279.658 156.802 280.919 157.293 281.843 158.276C282.767 159.259 283.229 160.667 283.229 162.5V163.358H275.441C275.514 164.282 275.771 164.949 276.211 165.36C276.651 165.756 277.267 165.954 278.059 165.954C278.836 165.954 279.401 165.822 279.753 165.558C280.12 165.279 280.362 164.957 280.479 164.59H283.119C283.002 165.103 282.818 165.58 282.569 166.02C282.32 166.46 281.99 166.841 281.579 167.164C281.168 167.487 280.67 167.743 280.083 167.934C279.496 168.11 278.822 168.198 278.059 168.198ZM278.059 159.046C277.311 159.046 276.724 159.229 276.299 159.596C275.874 159.963 275.602 160.542 275.485 161.334H280.633C280.53 160.513 280.259 159.926 279.819 159.574C279.394 159.222 278.807 159.046 278.059 159.046Z" fill="#1F1F1F"></path> <path d="M747.916 190.288L753.164 182.8H754.556V190.288H756.076V191.312H754.556V194H753.436V191.312H747.916V190.288ZM753.436 190.288V184.096L749.148 190.288H753.436ZM763.843 188.88L762.979 187.152V194H761.923V186H763.395L766.019 190.944L768.642 186H770.083V194H769.027V187.152L768.163 188.88L766.531 192H765.475L763.843 188.88ZM778.302 187.216L777.31 188.88L774.11 194H772.798V186H773.854V192.8L774.846 191.12L778.046 186H779.358V194H778.302V187.216ZM787.583 190.4H783.135V194H782.079V186H783.135V189.44H787.583V186H788.639V194H787.583V190.4Z" fill="#999999"></path> <path d="M703.88 168.198C702.854 168.198 701.915 168.037 701.064 167.714C700.228 167.377 699.51 166.9 698.908 166.284C698.322 165.653 697.867 164.883 697.544 163.974C697.222 163.065 697.06 162.031 697.06 160.872V159.728C697.06 158.584 697.222 157.557 697.544 156.648C697.882 155.739 698.344 154.976 698.93 154.36C699.532 153.729 700.25 153.245 701.086 152.908C701.937 152.571 702.868 152.402 703.88 152.402C704.907 152.402 705.838 152.571 706.674 152.908C707.525 153.231 708.244 153.707 708.83 154.338C709.432 154.969 709.894 155.739 710.216 156.648C710.539 157.543 710.7 158.569 710.7 159.728V160.872C710.7 162.016 710.532 163.043 710.194 163.952C709.872 164.861 709.41 165.631 708.808 166.262C708.222 166.893 707.503 167.377 706.652 167.714C705.816 168.037 704.892 168.198 703.88 168.198ZM703.88 165.734C705.083 165.734 706.058 165.331 706.806 164.524C707.554 163.703 707.928 162.485 707.928 160.872V159.728C707.928 158.936 707.826 158.239 707.62 157.638C707.43 157.022 707.151 156.516 706.784 156.12C706.432 155.709 706.007 155.401 705.508 155.196C705.01 154.976 704.467 154.866 703.88 154.866C702.663 154.866 701.68 155.277 700.932 156.098C700.199 156.905 699.832 158.115 699.832 159.728V160.872C699.832 162.471 700.206 163.681 700.954 164.502C701.717 165.323 702.692 165.734 703.88 165.734ZM717.739 168.198C716.097 168.198 714.806 167.692 713.867 166.68C712.929 165.653 712.459 164.084 712.459 161.972V160.828C712.459 160.021 712.511 159.251 712.613 158.518C712.716 157.77 712.885 157.088 713.119 156.472C713.354 155.856 713.662 155.313 714.043 154.844C714.439 154.36 714.916 153.964 715.473 153.656C715.972 153.392 716.456 153.216 716.925 153.128C717.409 153.04 717.908 152.981 718.421 152.952C718.949 152.908 719.514 152.857 720.115 152.798C720.717 152.739 721.391 152.607 722.139 152.402V154.602C721.582 154.778 721.047 154.895 720.533 154.954C720.035 154.998 719.551 155.042 719.081 155.086C718.612 155.115 718.165 155.159 717.739 155.218C717.329 155.277 716.94 155.409 716.573 155.614C716.104 155.878 715.737 156.237 715.473 156.692C715.209 157.147 715.019 157.77 714.901 158.562C715.312 158.049 715.803 157.667 716.375 157.418C716.947 157.154 717.585 157.022 718.289 157.022C718.993 157.022 719.631 157.139 720.203 157.374C720.79 157.609 721.289 157.953 721.699 158.408C722.125 158.848 722.447 159.391 722.667 160.036C722.902 160.681 723.019 161.422 723.019 162.258V162.962C723.019 163.769 722.895 164.495 722.645 165.14C722.411 165.785 722.059 166.335 721.589 166.79C721.135 167.245 720.577 167.597 719.917 167.846C719.272 168.081 718.546 168.198 717.739 168.198ZM717.739 159.398C716.962 159.398 716.339 159.633 715.869 160.102C715.415 160.571 715.173 161.246 715.143 162.126V162.962C715.143 163.886 715.378 164.597 715.847 165.096C716.317 165.58 716.947 165.822 717.739 165.822C718.531 165.822 719.162 165.58 719.631 165.096C720.101 164.597 720.335 163.886 720.335 162.962V162.258C720.335 161.334 720.101 160.63 719.631 160.146C719.162 159.647 718.531 159.398 717.739 159.398ZM725.215 157H727.767V165.756H730.869V157H733.421V165.756H736.523V157H739.075V165.756H740.505V170.86H738.041V168H725.215V157ZM746.655 168.198C745.863 168.198 745.152 168.081 744.521 167.846C743.89 167.597 743.348 167.245 742.893 166.79C742.438 166.321 742.086 165.756 741.837 165.096C741.602 164.436 741.485 163.688 741.485 162.852V162.148C741.485 161.312 741.602 160.564 741.837 159.904C742.086 159.244 742.438 158.687 742.893 158.232C743.348 157.763 743.89 157.411 744.521 157.176C745.152 156.927 745.863 156.802 746.655 156.802C748.254 156.802 749.515 157.293 750.439 158.276C751.363 159.259 751.825 160.667 751.825 162.5V163.358H744.037C744.11 164.282 744.367 164.949 744.807 165.36C745.247 165.756 745.863 165.954 746.655 165.954C747.432 165.954 747.997 165.822 748.349 165.558C748.716 165.279 748.958 164.957 749.075 164.59H751.715C751.598 165.103 751.414 165.58 751.165 166.02C750.916 166.46 750.586 166.841 750.175 167.164C749.764 167.487 749.266 167.743 748.679 167.934C748.092 168.11 747.418 168.198 746.655 168.198ZM746.655 159.046C745.907 159.046 745.32 159.229 744.895 159.596C744.47 159.963 744.198 160.542 744.081 161.334H749.229C749.126 160.513 748.855 159.926 748.415 159.574C747.99 159.222 747.403 159.046 746.655 159.046ZM761.374 163.512H756.578V168H754.026V157H756.578V161.268H761.374V157H763.926V168H761.374V163.512ZM774.135 160.234L773.145 162.28L769.999 168H766.787V157H769.339V164.766L770.329 162.72L773.475 157H776.687V168H774.135V160.234ZM784.059 168.198C783.267 168.198 782.556 168.081 781.925 167.846C781.294 167.597 780.752 167.245 780.297 166.79C779.842 166.321 779.49 165.756 779.241 165.096C779.006 164.436 778.889 163.688 778.889 162.852V162.148C778.889 161.312 779.006 160.564 779.241 159.904C779.49 159.244 779.842 158.687 780.297 158.232C780.752 157.763 781.294 157.411 781.925 157.176C782.556 156.927 783.267 156.802 784.059 156.802C785.658 156.802 786.919 157.293 787.843 158.276C788.767 159.259 789.229 160.667 789.229 162.5V163.358H781.441C781.514 164.282 781.771 164.949 782.211 165.36C782.651 165.756 783.267 165.954 784.059 165.954C784.836 165.954 785.401 165.822 785.753 165.558C786.12 165.279 786.362 164.957 786.479 164.59H789.119C789.002 165.103 788.818 165.58 788.569 166.02C788.32 166.46 787.99 166.841 787.579 167.164C787.168 167.487 786.67 167.743 786.083 167.934C785.496 168.11 784.822 168.198 784.059 168.198ZM784.059 159.046C783.311 159.046 782.724 159.229 782.299 159.596C781.874 159.963 781.602 160.542 781.485 161.334H786.633C786.53 160.513 786.259 159.926 785.819 159.574C785.394 159.222 784.807 159.046 784.059 159.046Z" fill="#1F1F1F"></path> <rect y="80" width="1240" height="40" rx="20" fill="#FEF7F1"></rect> <path d="M1126 80H1220C1231.05 80 1240 88.9543 1240 100V100C1240 111.046 1231.05 120 1220 120H1126V80Z" fill="#FF5A44"></path> <path d="M806 80H1126V120H806V80Z" fill="#A559F0"></path> <path d="M620 80H806V120H620V80Z" fill="#43B1EF"></path> <path d="M300 80H620V120H300V80Z" fill="#17E9B6"></path> <path d="M206 80H300V120H206V80Z" fill="#72E83B"></path> <path d="M0 100C0 88.9543 8.9543 80 20 80H206V120H20C8.95431 120 0 111.046 0 100V100Z" fill="#BBF121"></path> <line opacity="0.16" x1="206.5" y1="2.18557e-08" x2="206.5" y2="120" stroke="#0A0A0A"></line> <line opacity="0.16" x1="806.5" y1="80" x2="806.5" y2="200" stroke="#0A0A0A"></line> <line opacity="0.16" x1="300.5" y1="80" x2="300.5" y2="200" stroke="#0A0A0A"></line> <line opacity="0.16" x1="620.5" y1="2.18557e-08" x2="620.5" y2="120" stroke="#0A0A0A"></line> <line opacity="0.16" x1="1126.5" y1="2.18557e-08" x2="1126.5" y2="120" stroke="#0A0A0A"></line> </svg> 