<?xml version="1.0" encoding="UTF-8"?> <svg xmlns="http://www.w3.org/2000/svg" width="32" height="32" viewBox="0 0 32 32" fill="none"> <path d="M24.5333 19.4667C24.866 19.6173 25.1461 19.864 25.3376 20.175C25.5291 20.486 25.6232 20.8471 25.608 21.212C25.642 21.6613 25.4976 22.106 25.2061 22.4496C24.9146 22.7933 24.4995 23.0083 24.0506 23.048C23.7582 23.0444 23.4744 22.9483 23.24 22.7733C22.0906 26.5413 19.1066 30.3387 15.9533 30.3387C12.8 30.3387 9.81064 26.5333 8.66664 22.768C8.43223 22.9429 8.14843 23.0391 7.85598 23.0427C7.40615 23.0043 6.98967 22.7898 6.69706 22.446C6.40444 22.1023 6.25935 21.6569 6.29331 21.2067C6.27939 20.8429 6.37402 20.4832 6.56515 20.1733C6.75629 19.8635 7.03529 19.6175 7.36664 19.4667" stroke="#515DC8" stroke-width="1.3" stroke-linecap="round" stroke-linejoin="round"></path> <path d="M13.4667 25.2267C13.7455 25.6232 14.1194 25.9435 14.5541 26.158C14.9888 26.3726 15.4704 26.4746 15.9547 26.4547C16.4391 26.4748 16.9208 26.3729 17.3555 26.1584C17.7903 25.9438 18.1641 25.6234 18.4427 25.2267" stroke="#515DC8" stroke-width="1.3" stroke-linecap="round" stroke-linejoin="round"></path> <path d="M26.6667 16.3627C17.372 18.0201 11.7947 11.0187 11.6494 10.9414C11.6494 10.9414 11.0747 16.8881 8.62402 16.8881" stroke="#515DC8" stroke-width="1.3" stroke-linecap="round" stroke-linejoin="round"></path> <path d="M6.37866 17.6213C6.08993 16.1719 6.11985 14.677 6.46633 13.2402C6.81281 11.8035 7.46756 10.4593 8.38521 9.3008C9.30286 8.14229 10.4615 7.19718 11.7807 6.53098C13.0999 5.86477 14.5483 5.49341 16.0253 5.44263C18.4535 5.49827 20.7782 6.43654 22.5647 8.08195C24.3513 9.72737 25.4772 11.9672 25.732 14.3826" stroke="#515DC8" stroke-width="1.3" stroke-linecap="round" stroke-linejoin="round"></path> <path d="M11.2213 4.93326C11.2213 3.1266 13.372 1.6626 16.0213 1.6626C18.6706 1.6626 20.8213 3.12926 20.8213 4.93326" stroke="#515DC8" stroke-width="1.3" stroke-linecap="round" stroke-linejoin="round"></path> <path d="M8.9173 16.968L16.076 18.6574C16.076 18.6574 10.284 27.0227 8.9173 16.968Z" stroke="#515DC8" stroke-width="1.3" stroke-linecap="round" stroke-linejoin="round"></path> <path d="M23.0987 16.968L15.94 18.6574C15.94 18.6574 21.7333 27.0227 23.0987 16.968Z" stroke="#515DC8" stroke-width="1.3" stroke-linecap="round" stroke-linejoin="round"></path> </svg> 