<?xml version="1.0" encoding="UTF-8"?> <svg xmlns="http://www.w3.org/2000/svg" width="32" height="32" viewBox="0 0 32 32" fill="none"> <path d="M16 16.1534L10 13.2961L16 10.4387L22 13.2961L16 16.1534Z" stroke="#F2994A" stroke-width="1.3" stroke-linecap="round" stroke-linejoin="round"></path> <path d="M19.1854 15.296L19.42 17.644C19.4498 17.8768 19.4234 18.1133 19.3429 18.3337C19.2624 18.5541 19.1302 18.752 18.9574 18.9107C18.0592 19.4333 17.0385 19.7087 15.9994 19.7087C14.9602 19.7087 13.9395 19.4333 13.0414 18.9107C12.8692 18.7515 12.7376 18.5535 12.6573 18.3332C12.5771 18.1129 12.5506 17.8766 12.58 17.644L12.8147 15.296" stroke="#F2994A" stroke-width="1.3" stroke-linecap="round" stroke-linejoin="round"></path> <path d="M27.3333 6H4.66668C3.9303 6 3.33334 6.59695 3.33334 7.33333V22C3.33334 22.7364 3.9303 23.3333 4.66668 23.3333H27.3333C28.0697 23.3333 28.6667 22.7364 28.6667 22V7.33333C28.6667 6.59695 28.0697 6 27.3333 6Z" stroke="#F2994A" stroke-width="1.3" stroke-linecap="round" stroke-linejoin="round"></path> <path d="M20.068 27.3334C20.068 27.3334 18.808 27.3334 18.6214 25.3334" stroke="#F2994A" stroke-width="1.3" stroke-linecap="round" stroke-linejoin="round"></path> <path d="M11.932 27.3334C11.932 27.3334 13.192 27.3334 13.3786 25.3334" stroke="#F2994A" stroke-width="1.3" stroke-linecap="round" stroke-linejoin="round"></path> <path d="M10 27.3334H22" stroke="#F2994A" stroke-width="1.3" stroke-linecap="round" stroke-linejoin="round"></path> </svg> 