<?xml version="1.0" encoding="UTF-8"?> <svg xmlns="http://www.w3.org/2000/svg" width="108" height="108" viewBox="0 0 108 108" fill="none"> <circle cx="54" cy="54" r="54" fill="url(#paint0_linear)"></circle> <path d="M75.333 30H32.6663C31.2519 30 29.8953 30.5619 28.8951 31.5621C27.8949 32.5623 27.333 33.9188 27.333 35.3333V67.3333C27.333 68.7478 27.8949 70.1044 28.8951 71.1046C29.8953 72.1048 31.2519 72.6667 32.6663 72.6667H46.2397C46.9392 72.6696 47.6096 72.9474 48.1063 73.44L52.0797 77.4133C52.4544 77.7885 52.9628 77.9995 53.493 78H54.5063C55.0366 77.9995 55.545 77.7885 55.9197 77.4133L59.893 73.44C60.3897 72.9474 61.0601 72.6696 61.7597 72.6667H75.333C76.7475 72.6667 78.1041 72.1048 79.1042 71.1046C80.1044 70.1044 80.6663 68.7478 80.6663 67.3333V35.3333C80.6663 33.9188 80.1044 32.5623 79.1042 31.5621C78.1041 30.5619 76.7475 30 75.333 30ZM72.6663 60.6667C72.6663 61.0203 72.5259 61.3594 72.2758 61.6095C72.0258 61.8595 71.6866 62 71.333 62H71.093C70.3934 61.9971 69.723 61.7193 69.2263 61.2267L61.9997 54V60.6667C61.9997 61.7275 61.5782 62.7449 60.8281 63.4951C60.078 64.2452 59.0605 64.6667 57.9997 64.6667H39.333C38.2721 64.6667 37.2547 64.2452 36.5046 63.4951C35.7544 62.7449 35.333 61.7275 35.333 60.6667V42C35.333 40.9391 35.7544 39.9217 36.5046 39.1716C37.2547 38.4214 38.2721 38 39.333 38H57.9997C59.0605 38 60.078 38.4214 60.8281 39.1716C61.5782 39.9217 61.9997 40.9391 61.9997 42V48.6667L69.2263 41.44C69.723 40.9473 70.3934 40.6696 71.093 40.6667H71.333C71.6866 40.6667 72.0258 40.8071 72.2758 41.0572C72.5259 41.3072 72.6663 41.6464 72.6663 42V60.6667Z" fill="white"></path> <defs> <linearGradient id="paint0_linear" x1="1.59363e-06" y1="106.338" x2="121.535" y2="87.5497" gradientUnits="userSpaceOnUse"> <stop stop-color="#EB5757"></stop> <stop offset="1" stop-color="#F4795E"></stop> </linearGradient> </defs> </svg> 