<svg width="40" height="40" viewBox="0 0 40 40" fill="none" xmlns="http://www.w3.org/2000/svg">
<circle opacity="0.16" cx="20" cy="20" r="20" fill="#EB5757"/>
<path d="M14 10C13.4696 10 12.9609 10.2107 12.5858 10.5858C12.2107 10.9609 12 11.4696 12 12C12 12.5304 12.2107 13.0391 12.5858 13.4142C12.9609 13.7893 13.4696 14 14 14C14.5304 14 15.0391 13.7893 15.4142 13.4142C15.7893 13.0391 16 12.5304 16 12C16 11.4696 15.7893 10.9609 15.4142 10.5858C15.0391 10.2107 14.5304 10 14 10ZM19 11C18.448 11 18 11.448 18 12C18 12.552 18.448 13 19 13H27V21H20C19.448 21 19 21.448 19 22C19 22.552 19.448 23 20 23H27.5C28.328 23 29 22.328 29 21.5V12.5C29 11.672 28.328 11 27.5 11H19ZM13 15C11.895 15 11 15.895 11 17V22C11 22.552 11.448 23 12 23H16C16.552 23 17 22.552 17 22V17H22C22.552 17 23 16.552 23 16C23 15.448 22.552 15 22 15H17H16H13ZM14 25C13.4696 25 12.9609 25.2107 12.5858 25.5858C12.2107 25.9609 12 26.4696 12 27C12 27.5304 12.2107 28.0391 12.5858 28.4142C12.9609 28.7893 13.4696 29 14 29C14.5304 29 15.0391 28.7893 15.4142 28.4142C15.7893 28.0391 16 27.5304 16 27C16 26.4696 15.7893 25.9609 15.4142 25.5858C15.0391 25.2107 14.5304 25 14 25ZM20 25C19.4696 25 18.9609 25.2107 18.5858 25.5858C18.2107 25.9609 18 26.4696 18 27C18 27.5304 18.2107 28.0391 18.5858 28.4142C18.9609 28.7893 19.4696 29 20 29C20.5304 29 21.0391 28.7893 21.4142 28.4142C21.7893 28.0391 22 27.5304 22 27C22 26.4696 21.7893 25.9609 21.4142 25.5858C21.0391 25.2107 20.5304 25 20 25ZM26 25C25.4696 25 24.9609 25.2107 24.5858 25.5858C24.2107 25.9609 24 26.4696 24 27C24 27.5304 24.2107 28.0391 24.5858 28.4142C24.9609 28.7893 25.4696 29 26 29C26.5304 29 27.0391 28.7893 27.4142 28.4142C27.7893 28.0391 28 27.5304 28 27C28 26.4696 27.7893 25.9609 27.4142 25.5858C27.0391 25.2107 26.5304 25 26 25Z" fill="#EB5757"/>
</svg>
