<?xml version="1.0" encoding="UTF-8"?> <!-- Generator: Adobe Illustrator 21.1.0, SVG Export Plug-In . SVG Version: 6.00 Build 0) --> <svg xmlns="http://www.w3.org/2000/svg" xmlns:xlink="http://www.w3.org/1999/xlink" id="Layer_1" x="0px" y="0px" viewBox="0 0 128 128" style="enable-background:new 0 0 128 128;" xml:space="preserve"> <style type="text/css"> .st0{fill:#FFFFFF;} .st1{fill:#444B54;} .st2{fill:#FFF0B3;} .st3{opacity:0.2;} .st4{fill:#FCCA3D;} .st5{fill:#FF5576;} .st6{fill:#ADF9D2;} .st7{fill:#3F4A54;} .st8{fill:#FF6144;} .st9{fill:#D3D8DD;} .st10{fill:#C0E7FF;} .st11{fill:none;stroke:#444B54;stroke-width:6;stroke-linecap:round;stroke-linejoin:round;stroke-miterlimit:10;} .st12{opacity:0.5;} .st13{fill:#F8DB59;} .st14{fill:#1AB792;} .st15{fill:#E9EEF4;} .st16{fill:#009F96;} .st17{fill:#FCE0E2;} .st18{fill:#3C71A6;} .st19{fill:#D32F56;} </style> <g> <g> <g> <g> <polyline class="st5" points="54,92 54,124 35,112 16,124 16,92 "></polyline> </g> </g> </g> <g> <g> <g> <rect x="63" y="112" class="st0" width="37" height="12"></rect> </g> </g> </g> <g> <g> <g> <path class="st2" d="M81,94L81,94c-15.5,0-28-12.5-28-28V18h56v48C109,81.5,96.5,94,81,94z"></path> </g> </g> </g> <g class="st3"> <g> <g> <path class="st4" d="M81,94c15.5,0,28-12.5,28-28V18H81V94z"></path> </g> </g> </g> <g> <g> <g> <path class="st4" d="M81,91c-1.7,0-3-1.3-3-3s1.3-3,3-3c10.5,0,19-8.5,19-19V44c0-1.7,1.3-3,3-3s3,1.3,3,3v22 C106,79.8,94.8,91,81,91z"></path> </g> </g> </g> <path class="st1" d="M124,25h-12v-7c0-1.7-1.3-3-3-3H53c-1.7,0-3,1.3-3,3v7H38c-1.7,0-3,1.3-3,3s1.3,3,3,3h15c0,0,0,0,0,0 c1.7,0,3-1.3,3-3v-7h50v45c0,13.8-11.2,25-25,25c-3.2,0-6.3-0.6-9.2-1.8c-1.5-0.6-3.3,0.1-3.9,1.7c-0.6,1.5,0.1,3.3,1.7,3.9 c2.7,1.1,5.6,1.8,8.5,2V109H66c-1.7,0-3,1.3-3,3s1.3,3,3,3h31v6H66c-1.7,0-3,1.3-3,3s1.3,3,3,3h34c1.7,0,3-1.3,3-3v-12 c0-1.7-1.3-3-3-3H84V96.9c15-1.4,26.8-13.6,27.9-28.6c8.5-1.4,15.1-8.8,15.1-17.7V28C127,26.3,125.7,25,124,25z M121,50.5 c0,5.6-3.8,10.3-9,11.6V31h9V50.5z"></path> <g> <g> <g> <circle class="st0" cx="35" cy="68" r="30"></circle> </g> </g> </g> <path class="st1" d="M68,68c0-18.2-14.8-33-33-33S2,49.8,2,68s14.8,33,33,33c5.8,0,11.3-1.5,16-4.2v21.7l-14.4-9.1 c-1-0.6-2.2-0.6-3.2,0L19,118.6V102c0-1.7-1.3-3-3-3s-3,1.3-3,3v22c0,1.1,0.6,2.1,1.6,2.6c1,0.5,2.1,0.5,3-0.1l17.4-11l17.4,11 c0.5,0.3,1,0.5,1.6,0.5c0.5,0,1-0.1,1.4-0.4c1-0.5,1.6-1.5,1.6-2.6V92.6C63.7,86.5,68,77.8,68,68z M8,68c0-14.9,12.1-27,27-27 s27,12.1,27,27S49.9,95,35,95S8,82.9,8,68z"></path> </g> </svg> 