<?xml version="1.0" encoding="UTF-8"?> <svg xmlns="http://www.w3.org/2000/svg" width="157" height="24" viewBox="0 0 157 24" fill="none"> <g clip-path="url(#clip0)"> <g clip-path="url(#clip1)"> <path d="M106.085 3.15954C106.085 1.76923 106.9 0.925923 108.53 0.632476C110.248 0.316237 114.65 0.156693 117.299 0.156693C124.838 0.156693 128.607 2.69515 128.607 7.77208C128.607 9.50427 128.111 10.9687 127.123 12.1652C126.134 13.3618 124.761 14.2906 122.778 14.7578L127.541 19.5043C128.396 20.4758 128.766 22.1339 126.895 23.0484C125.362 23.7977 123.672 23.2707 122.436 21.8091L116.789 15.4986C116.41 15.547 112.182 15.5242 111.396 15.4245V21.1168C111.396 21.7749 111.162 22.3134 110.698 22.7265C110.234 23.1424 109.741 23.3476 108.926 23.3476C108.083 23.3476 107.214 23.1396 106.764 22.7265C106.313 22.3105 106.085 21.7749 106.085 21.1168V3.15954ZM121.59 10.5214C122.598 10.0114 123.103 9.19373 123.103 8.06553C123.103 6.06837 121.154 5.06837 117.254 5.06837C116.544 5.06837 112.843 5.12251 111.479 5.23362V11.1709C112.325 11.245 115.917 11.282 116.926 11.282C119.026 11.2849 120.581 11.0285 121.59 10.5214Z" fill="#FF5D6A"></path> <path d="M19.3333 3.07976C19.3333 2.23931 19.5584 1.547 20.0114 0.999991C20.4644 0.455832 21.1254 0.182327 21.9972 0.182327C22.8689 0.182327 23.5385 0.455832 24.0057 0.999991C24.4729 1.54415 24.7066 2.23646 24.7066 3.07976V10.4102C24.7066 12.339 24.5043 14.0855 24.0997 15.641C23.6952 17.1994 23.0399 18.6211 22.1368 19.9145C21.2336 21.208 19.9573 22.2108 18.3077 22.9259C16.6581 23.641 14.6952 24 12.4217 24C8.03134 24 4.86325 22.7635 2.91738 20.2877C0.97151 17.812 0 14.5527 0 10.5043V3.07976C0 2.23931 0.242165 1.547 0.723647 0.999991C1.20798 0.455832 1.88319 0.182327 2.75499 0.182327C3.65812 0.182327 4.35897 0.455832 4.85755 0.999991C5.35613 1.54415 5.60399 2.23646 5.60399 3.07976V10.7379C5.60399 16.2479 7.89174 19.0028 12.4701 19.0028C17.0484 19.0028 19.3362 16.2165 19.3362 10.6439V3.07976H19.3333Z" fill="#FF5D6A"></path> <path d="M151.313 3.07976C151.313 2.23931 151.539 1.547 151.991 0.999991C152.444 0.455832 153.105 0.182327 153.977 0.182327C154.849 0.182327 155.519 0.455832 155.986 0.999991C156.453 1.54415 156.687 2.23646 156.687 3.07976V10.4102C156.687 12.339 156.484 14.0855 156.08 15.641C155.675 17.1994 155.02 18.6211 154.117 19.9145C153.214 21.208 151.937 22.2108 150.288 22.9259C148.638 23.641 146.675 24 144.402 24C140.011 24 136.843 22.7635 134.897 20.2877C132.952 17.812 131.98 14.5498 131.98 10.5043V3.07976C131.98 2.23931 132.222 1.547 132.704 0.999991C133.188 0.455832 133.863 0.182327 134.735 0.182327C135.638 0.182327 136.339 0.455832 136.838 0.999991C137.336 1.54415 137.584 2.23646 137.584 3.07976V10.7379C137.584 16.2479 139.872 19.0028 144.45 19.0028C149.029 19.0028 151.316 16.2165 151.316 10.6439V3.07976H151.313Z" fill="#FF5D6A"></path> <path d="M40.792 24C36.6439 24 33.3989 22.9715 31.057 20.9174C28.7151 18.8632 27.5413 15.9829 27.5413 12.2763C27.5413 8.5413 28.7607 5.58973 31.1994 3.42734C33.6382 1.2621 36.9715 0.182327 41.1966 0.182327C44.4615 0.182327 46.9373 0.618225 48.6296 1.49002C50.2821 2.33048 50.7607 3.37321 50.0712 4.61822C49.4188 5.73788 48.151 6.21367 46.2678 5.74643C44.3077 5.27919 42.1225 4.89743 40.8148 4.89743C38.5869 4.89743 36.8405 5.5527 35.5727 6.86039C34.3049 8.16808 33.6724 9.97435 33.6724 12.2792C33.6724 14.4587 34.3333 16.1709 35.661 17.4159C36.9858 18.661 38.7237 19.2849 40.8747 19.2849C42.4103 19.2849 44.8091 18.849 46.9601 17.9772C48.8034 17.2621 50.1111 17.4159 50.8775 18.4444C51.7607 19.6268 51.3761 20.7635 49.7265 21.8547C47.4929 23.2849 44.5157 24 40.792 24Z" fill="#FF5D6A"></path> <path d="M86.2593 0.77208C86.8034 0.259259 87.5442 0 88.4786 0C89.4131 0 90.1595 0.25641 90.7208 0.77208C91.282 1.2849 91.5612 1.98006 91.5612 2.85185C91.5612 3.75499 91.282 4.45584 90.7208 4.95442C90.1595 5.45299 89.4131 5.70086 88.4786 5.70086C87.5442 5.70086 86.8063 5.45869 86.2593 4.97721C85.7122 4.49573 85.4416 3.78633 85.4416 2.85185C85.4444 1.97721 85.7151 1.2849 86.2593 0.77208Z" fill="#FF5D6A"></path> <path d="M80.5698 0.954407C80.1026 0.441587 79.4502 0.182327 78.6069 0.182327C77.7664 0.182327 77.1197 0.438738 76.6695 0.954407C76.2165 1.46723 75.9915 2.11395 75.9915 2.89173V9.21936H60.1966V2.89173C60.1966 2.11395 59.963 1.46723 59.4957 0.954407C59.0285 0.441587 58.3761 0.182327 57.5328 0.182327C56.6923 0.182327 56.0456 0.438738 55.5955 0.954407C55.1425 1.46723 54.9174 2.11395 54.9174 2.89173V20.8262C54.9174 21.604 55.1425 22.2507 55.5955 22.7635C56.0456 23.2763 56.6923 23.5328 57.5328 23.5328C58.3732 23.5328 59.0285 23.2763 59.4957 22.7635C59.963 22.2507 60.1966 21.604 60.1966 20.8262V14.4986H75.9915V20.8262C75.9915 21.604 76.2165 22.2507 76.6695 22.7635C77.1197 23.2763 77.7664 23.5328 78.6069 23.5328C79.4473 23.5328 80.1026 23.2763 80.5698 22.7635C81.037 22.2507 81.2707 21.604 81.2707 20.8262V2.89173C81.2707 2.11395 81.037 1.46723 80.5698 0.954407Z" fill="#FF5D6A"></path> <path d="M85.8633 11.1168C85.8633 10.339 86.0883 9.69231 86.5413 9.17949C86.9915 8.66667 87.6382 8.40741 88.4786 8.40741C89.3191 8.40741 89.9744 8.66382 90.4416 9.17949C90.9088 9.69231 91.1425 10.339 91.1425 11.1168V20.8262C91.1425 21.604 90.9088 22.2507 90.4416 22.7635C89.9744 23.2764 89.3219 23.5356 88.4786 23.5356C87.6382 23.5356 86.9915 23.2792 86.5413 22.7635C86.0883 22.2507 85.8633 21.604 85.8633 20.8262V11.1168Z" fill="#FF5D6A"></path> <path d="M96.208 18C96.7835 17.3618 97.5698 17.0427 98.567 17.0427C99.5641 17.0427 100.356 17.3618 100.949 18C101.541 18.6382 101.838 19.4102 101.838 20.3134C101.838 21.2479 101.55 22.0171 100.974 22.6239C100.399 23.2308 99.5954 23.5356 98.5698 23.5356C97.5442 23.5356 96.7493 23.2308 96.188 22.6239C95.6268 22.0171 95.3476 21.2479 95.3476 20.3134C95.3447 19.4074 95.6325 18.6382 96.208 18Z" fill="#FF5D6A"></path> </g> </g> <defs> <clipPath id="clip0"> <rect width="157" height="24" fill="white"></rect> </clipPath> <clipPath id="clip1"> <rect width="156.687" height="24" fill="white"></rect> </clipPath> </defs> </svg> 