<?xml version="1.0" encoding="UTF-8"?>
<svg width="408px" height="55px" viewBox="0 0 408 55" version="1.1" xmlns="http://www.w3.org/2000/svg" xmlns:xlink="http://www.w3.org/1999/xlink">
    <!-- Generator: Sketch 63 (92445) - https://sketch.com -->
    <title>Logo_UchiDoma_1 Copy@2x</title>
    <desc>Created with Sketch.</desc>
    <g id="Page-1" stroke="none" stroke-width="1" fill="none" fill-rule="evenodd">
        <g id="Logo_UchiDoma_1-Copy" fill="#FFFFFF">
            <path d="M214.641,10.0033 C214.252,16.8853 213.025,24.9045 211.588,30.0582 C210.018,35.6888 208.1,40.258 206.538,42.6521 L199,37.7356 C199.831,36.4613 201.451,32.9051 202.919,27.6404 C204.356,22.487 205.556,16.0222 205.744,9.07367 C205.837,5.61506 208.645,2.69385 212.269,2.69385 L232.769,2.69385 C236.359,2.69385 239,5.604 239,9.19385 L239,40.1938 L230,40.1938 L230,10.0033 L214.641,10.0033 Z" id="Path"></path>
            <path d="M200,46.1938 L200,50.1938 C200,52.6791 197.985,54.6938 195.5,54.6938 C193.015,54.6938 191,52.6791 191,50.1938 L191,42.8682 C191,39.8307 193.462,37.1938 196.5,37.1938 L240.32,37.1938 C243.358,37.1938 245.82,39.8307 245.82,42.8682 L245.82,50.1938 C245.82,52.6791 243.806,54.6938 241.32,54.6938 C238.835,54.6938 236.82,52.6791 236.82,50.1938 L236.82,46.1938 L200,46.1938 Z" id="Path"></path>
            <path d="M156.562,4.16199 C155.636,3.29964 154.43,2.79485 153.163,2.73848 C151.895,2.68211 150.649,3.07787 149.649,3.85452 L118.809,29.7032 L118.809,7.7456 C118.863,6.43539 118.414,5.15382 117.552,4.16199 C117.082,3.66523 116.509,3.27684 115.872,3.02408 C115.235,2.77132 114.551,2.66032 113.866,2.69886 C113.2,2.65892 112.533,2.7655 111.912,3.01104 C111.292,3.25658 110.733,3.63505 110.276,4.11958 C109.421,5.13127 108.976,6.42453 109.03,7.7456 L109.03,41.1907 C108.993,42.4951 109.44,43.7673 110.287,44.7637 C110.744,45.2482 111.302,45.6267 111.923,45.8722 C112.543,46.1178 113.21,46.2243 113.877,46.1844 C115.057,46.2421 116.218,45.8647 117.137,45.1242 L148.093,17.2348 L148.093,41.1907 C148.046,42.4966 148.495,43.7724 149.35,44.7637 C149.806,45.2494 150.365,45.6287 150.986,45.8743 C151.606,46.1199 152.274,46.2258 152.94,46.1844 C153.613,46.2227 154.286,46.1155 154.913,45.8702 C155.54,45.625 156.106,45.2475 156.573,44.7637 C157.451,43.7833 157.913,42.5027 157.862,41.1907 L157.862,7.7456 C157.91,6.42882 157.444,5.14457 156.562,4.16199 Z" id="Path" fill-rule="nonzero"></path>
            <path d="M90.0915,7.74558 C90.0424,6.43616 90.4913,5.15648 91.3485,4.16197 C92.3304,3.26792 93.613,2.77209 94.9438,2.77209 C96.2746,2.77209 97.5572,3.26792 98.5391,4.16197 C99.5,5.00006 99.7962,5.66535 99.7962,5.76686 L99.7962,38.6907 C99.7962,42.7726 99.37,43.9919 98.5391,44.8613 C97.5506,45.742 96.2705,46.229 94.9438,46.229 C93.6171,46.229 92.337,45.742 91.3485,44.8613 C90.4845,43.8875 90.0338,42.6179 90.0915,41.3201 L90.0915,31.0001 C86.3799,34.5001 80.7445,35.5545 75.8267,35.5001 C67.8267,35.4114 61.7286,32.9548 57.7018,29.0001 C54.7936,26.1586 53.0271,21.9846 53.0271,14.7962 L53.0271,7.70317 C52.9953,6.40176 53.4596,5.1366 54.3267,4.16197 C55.2846,3.23766 56.3676,2.76318 57.7018,2.76318 C59.0361,2.76318 59.8687,3.23766 60.8267,4.16197 C61.672,5.14661 62.12,6.40854 62.0837,7.70317 L62.0837,14.3191 C62.0837,18.507 62.6483,21.6029 64.2143,23.1297 C67.3142,26.0771 73.6969,26.8405 76.4986,26.8405 C80.8267,27.5001 90.0915,25.0001 90.0915,21.0001 L90.0915,7.74558 Z" id="Path" fill-rule="nonzero"></path>
            <path d="M271,1 C258.297,1 248,11.2975 248,24 C248,36.7025 258.297,47 271,47 L274,47 C286.703,47 297,36.7025 297,24 C297,11.2975 286.703,1 274,1 L271,1 Z M272,14 C266.477,14 262,18.4772 262,24 C262,29.5228 266.477,34 272,34 L274,34 C279.523,34 284,29.5228 284,24 C284,18.4772 279.523,14 274,14 L272,14 Z" id="Shape"></path>
            <path d="M310,46 C306.4,46 305.167,43.3333 305,42 L305,7 C305,5.66667 306,3 310,3 C312.5,3 313.5,3.5 316,7 L330,24 L342.5,7 C344.5,4.5 345,3 349,3 C352.6,3 353.5,5.66667 353.5,7 L353.5,42 C353.5,43.5 353,46 349,46 C345.378,46 344.167,43.5 344,42 L344,20 L333,34.5 C331,36.5 328,35.5 327,34.5 L314.5,19.5 L314.5,42 C314.5,43.3333 313.6,46 310,46 Z" id="Path" fill-rule="nonzero"></path>
            <rect id="Rectangle" fill-rule="nonzero" x="168" y="34" width="13" height="12" rx="6"></rect>
            <path d="M362,20 L362,46 C377.2,40.8 383.333,24.3333 384.5,16.5 C388.1,36.5 401.333,44.3333 407.5,46 L407.5,20 C407.5,14.5 401.5,0 384.5,0 C368.5,0 362,13.5 362,20 Z" id="Path" fill-rule="nonzero"></path>
            <path d="M42.7382,4.48373 C42.2885,3.98154 41.7331,3.58837 41.1133,3.33331 C40.4935,3.07826 39.825,2.96785 39.1574,3.01027 C38.497,2.96426 37.835,3.07326 37.2229,3.3288 C36.6108,3.58434 36.0649,3.97955 35.6278,4.48373 C34.794,5.54835 34.3655,6.88156 34.4205,8.24001 L34.4205,8.52018 C34.4205,18.5854 30.3282,22.0719 22.2049,22.0719 C14.0817,22.0719 9.97909,18.6372 9.97909,8.6862 L9.97909,8.24001 C10.0318,6.86052 9.55503,5.51406 8.64909,4.48373 C8.16656,3.97887 7.58211,3.58581 6.93579,3.33149 C6.28947,3.07716 5.59658,2.96758 4.9046,3.01027 C4.23282,2.97127 3.56083,3.08311 2.93657,3.33781 C2.3123,3.5925 1.75114,3.98378 1.29312,4.48373 C0.412012,5.5263 -0.0483962,6.86789 0.00403231,8.24001 C0.00403231,15.5035 1.73304,19.8824 5.20129,24.3547 C8.66955,28.8269 14.3067,31.0579 22.1129,31.0579 C25.6994,31.1483 29.2657,30.4877 32.5892,29.1175 C32.9371,28.9722 33.6123,28.6402 33.9909,28.4845 C32.047,35.2188 26.5428,36.9102 20.9363,36.9621 C15.3298,37.014 12.4447,35.8103 9.08901,33.2888 C6.2653,31.1616 4.03498,32.0748 2.66405,33.9218 C1.0885,36.0905 1.44658,38.5186 4.09637,40.8118 C8.025,44.1634 14.3272,45.9999996 20.9465,45.9999996 C24.957,45.9999996 29.6428,45.3359 32.5483,44.0596 C35.2808,42.9322 37.6455,41.0481 39.3723,38.6223 C40.9864,36.3017 42.1815,33.7089 42.9019,30.9645 C43.662,27.8595 44.0299,24.6691 43.9966,21.47 L43.9966,8.20888 C44.0439,6.85234 43.5958,5.52585 42.7382,4.48373 Z" id="Path" fill-rule="nonzero"></path>
        </g>
    </g>
</svg>