<?xml version="1.0" encoding="UTF-8"?> <!-- Generator: Adobe Illustrator 21.1.0, SVG Export Plug-In . SVG Version: 6.00 Build 0) --> <svg xmlns="http://www.w3.org/2000/svg" xmlns:xlink="http://www.w3.org/1999/xlink" id="Layer_1" x="0px" y="0px" viewBox="0 0 128 128" style="enable-background:new 0 0 128 128;" xml:space="preserve"> <style type="text/css"> .st0{fill:#FFFFFF;} .st1{fill:#444B54;} .st2{fill:#FF5576;} .st3{fill:#6DC289;} .st4{fill:#F2B630;} .st5{fill:#FFF0B3;} .st6{fill:none;stroke:#444B54;stroke-width:6;stroke-linecap:round;stroke-linejoin:round;stroke-miterlimit:10;} .st7{fill:#91F2BD;} .st8{fill:#EFCD89;} .st9{fill:#DB3E64;} .st10{fill:#C3DBEA;} .st11{fill:#CE9976;} .st12{fill:#AD755C;} .st13{fill:#7EB3CE;} </style> <g> <g> <g> <g> <path class="st2" d="M119,74H74v50h45c2.8,0,5-2.2,5-5V79C124,76.2,121.8,74,119,74z"></path> </g> </g> </g> <g> <g> <g> <path class="st2" d="M94,24H54c-2.8,0-5,2.2-5,5v45h50V29C99,26.2,96.8,24,94,24z"></path> </g> </g> </g> <g> <g> <g> <path class="st0" d="M54,74H9c-2.8,0-5,2.2-5,5v40c0,2.8,2.2,5,5,5h45V74z"></path> </g> </g> </g> <g> <g> <g> <path class="st3" d="M31,115H21c-1.7,0-3-1.3-3-3V87c0-1.7,1.3-3,3-3h9.6c4.6,0,8.4,3.8,8.4,8.4c0,1.7-0.6,3.4-1.7,4.9 c2.2,1.8,3.7,4.6,3.7,7.7C41,110.5,36.5,115,31,115z M24,109h7c2.2,0,4-1.8,4-4s-1.8-4-4-4h-7V109z M24,95h6.7 c1.2-0.3,2.3-1.5,2.3-2.6c0-1.3-1.1-2.4-2.4-2.4H24V95z"></path> </g> </g> </g> <g> <g> <g> <path class="st0" d="M99,74H54v50h45c2.8,0,5-2.2,5-5V79C104,76.2,101.8,74,99,74z"></path> </g> </g> </g> <g> <g> <g> <path class="st0" d="M74,24H34c-2.8,0-5,2.2-5,5v45h50V29C79,26.2,76.8,24,74,24z"></path> </g> </g> </g> <g> <g> <g> <path class="st1" d="M79,68c-1.7,0-3-1.3-3-3V29c0-1.1-0.9-2-2-2H34c-1.1,0-2,0.9-2,2v33c0,1.7-1.3,3-3,3s-3-1.3-3-3V29 c0-4.4,3.6-8,8-8h40c4.4,0,8,3.6,8,8v36C82,66.7,80.7,68,79,68z"></path> </g> </g> </g> <g> <g> <g> <path class="st2" d="M64,62c-1.2,0-2.3-0.7-2.8-1.9l-7.2-18l-7.2,18c-0.6,1.5-2.4,2.3-3.9,1.7c-1.5-0.6-2.3-2.4-1.7-3.9l10-25 c0.5-1.1,1.6-1.9,2.8-1.9s2.3,0.7,2.8,1.9l10,25c0.6,1.5-0.1,3.3-1.7,3.9C64.7,61.9,64.4,62,64,62z"></path> </g> </g> </g> <g> <g> <g> <path class="st2" d="M59.6,55H48c-1.7,0-3-1.3-3-3s1.3-3,3-3h11.6c1.7,0,3,1.3,3,3S61.3,55,59.6,55z"></path> </g> </g> </g> <g> <g> <g> <path class="st4" d="M79.5,114c-4.1,0-8-1.6-11-4.5c-2.9-2.9-4.5-6.8-4.5-11s1.6-8,4.5-11c2.9-2.9,6.8-4.5,11-4.5s8,1.6,11,4.5 c1.2,1.2,1.2,3.1,0,4.2c-1.2,1.2-3.1,1.2-4.2,0c-3.7-3.7-9.7-3.7-13.4,0c-3.7,3.7-3.7,9.7,0,13.4c3.7,3.7,9.7,3.7,13.4,0 c1.2-1.2,3.1-1.2,4.2,0c1.2,1.2,1.2,3.1,0,4.2C87.5,112.4,83.6,114,79.5,114z"></path> </g> </g> </g> <g> <g> <path class="st1" d="M124,121h-17.3c0.2-0.6,0.3-1.3,0.3-2V79c0-4.4-3.6-8-8-8H63c-1.7,0-3,1.3-3,3s1.3,3,3,3h36c1.1,0,2,0.9,2,2 v40c0,1.1-0.9,2-2,2H88.3H56.7c0.2-0.6,0.3-1.3,0.3-2V79c0-4.4-3.6-8-8-8H9c-4.4,0-8,3.6-8,8v40c0,4.4,3.6,8,8,8h35h5h39.3H99h25 c1.7,0,3-1.3,3-3S125.7,121,124,121z M44,121H9c-1.1,0-2-0.9-2-2V79c0-1.1,0.9-2,2-2h40c1.1,0,2,0.9,2,2v40c0,1.1-0.9,2-2,2H44z"></path> </g> </g> </g> </svg> 