<?xml version="1.0" encoding="UTF-8"?> <!-- Generator: Adobe Illustrator 21.1.0, SVG Export Plug-In . SVG Version: 6.00 Build 0) --> <svg xmlns="http://www.w3.org/2000/svg" xmlns:xlink="http://www.w3.org/1999/xlink" id="Layer_1" x="0px" y="0px" viewBox="0 0 128 128" style="enable-background:new 0 0 128 128;" xml:space="preserve"> <style type="text/css"> .st0{fill:#FFFFFF;} .st1{fill:#444B54;} .st2{fill:#FF5576;} .st3{fill:#6DC289;} .st4{fill:#F2B630;} .st5{fill:#FFF0B3;} .st6{fill:none;stroke:#444B54;stroke-width:6;stroke-linecap:round;stroke-linejoin:round;stroke-miterlimit:10;} .st7{fill:#91F2BD;} .st8{fill:#EFCD89;} .st9{fill:#DB3E64;} .st10{fill:#C3DBEA;} .st11{fill:#CE9976;} .st12{fill:#AD755C;} .st13{fill:#7EB3CE;} </style> <g> <g> <g> <g> <path class="st10" d="M109,109H29c-5.5,0-10-4.5-10-10V29c0-5.5,4.5-10,10-10l50.3,10L109,19c5.5,0,10,4.5,10,10v70 C119,104.5,114.5,109,109,109z"></path> </g> </g> </g> <g> <g> <g> <path class="st0" d="M90.9,89H20.8c-5.7,0-9.5-5.7-7.4-11L19,64V29c0-5.5,4.5-10,10-10h70c5.5,0,10,4.5,10,10v35l-7,17.5 C100.2,86,95.8,89,90.9,89z"></path> </g> </g> </g> <g> <g> <g> <path class="st1" d="M99,112H29c-7.2,0-13-5.8-13-13c0-1.7,1.3-3,3-3s3,1.3,3,3c0,3.9,3.1,7,7,7h70c3.9,0,7-3.1,7-7V89 c0-1.7,1.3-3,3-3s3,1.3,3,3v10C112,106.2,106.2,112,99,112z"></path> </g> </g> </g> <g> <g> <g> <path class="st1" d="M99,16h-2v-2c0-4.4-3.6-8-8-8s-8,3.6-8,8v10c0,4.4,3.6,8,8,8c1.7,0,3-1.3,3-3s-1.3-3-3-3c-1.1,0-2-0.9-2-2 V14c0-1.1,0.9-2,2-2s2,0.9,2,2v5c0,1.7,1.3,3,3,3h5c3.9,0,7,3.1,7,7v27.3c0,4.7-0.9,9.4-2.6,13.7l-4.1,10.3 c-1.4,3.4-4.7,5.7-8.4,5.7H20.8c-1.7,0-3.2-0.8-4.1-2.2c-0.9-1.4-1.1-3.1-0.5-4.7l2.8-6.9c2-5.1,3.1-10.5,3.1-16V29 c0-3.9,3.1-7,7-7h5c1.7,0,3-1.3,3-3s-1.3-3-3-3h-5c-7.2,0-13,5.8-13,13v27.3c0,4.7-0.9,9.4-2.6,13.7l-2.8,6.9 c-1.4,3.4-0.9,7.2,1.1,10.3c2,3,5.5,4.8,9.1,4.8h70.1c6.2,0,11.6-3.7,13.9-9.4l4.1-10.3c2-5.1,3.1-10.5,3.1-16V29 C112,21.8,106.2,16,99,16z"></path> </g> </g> <g> <g> <path class="st1" d="M49,32c1.7,0,3-1.3,3-3s-1.3-3-3-3c-1.1,0-2-0.9-2-2V14c0-1.1,0.9-2,2-2s2,0.9,2,2v5c0,1.7,1.3,3,3,3h20 c1.7,0,3-1.3,3-3s-1.3-3-3-3H57v-2c0-4.4-3.6-8-8-8s-8,3.6-8,8v10C41,28.4,44.6,32,49,32z"></path> </g> </g> </g> <g> <g> <g> <path class="st10" d="M44,49L44,49c-2.8,0-5-2.2-5-5v0c0-2.8,2.2-5,5-5h0c2.8,0,5,2.2,5,5v0C49,46.8,46.8,49,44,49z"></path> </g> </g> </g> <g> <g> <g> <path class="st10" d="M64,49L64,49c-2.8,0-5-2.2-5-5v0c0-2.8,2.2-5,5-5h0c2.8,0,5,2.2,5,5v0C69,46.8,66.8,49,64,49z"></path> </g> </g> </g> <g> <g> <g> <path class="st10" d="M84,49L84,49c-2.8,0-5-2.2-5-5v0c0-2.8,2.2-5,5-5h0c2.8,0,5,2.2,5,5v0C89,46.8,86.8,49,84,49z"></path> </g> </g> </g> <g> <g> <g> <path class="st10" d="M44,64L44,64c-2.8,0-5-2.2-5-5v0c0-2.8,2.2-5,5-5h0c2.8,0,5,2.2,5,5v0C49,61.8,46.8,64,44,64z"></path> </g> </g> </g> <g> <g> <g> <path class="st10" d="M64,64L64,64c-2.8,0-5-2.2-5-5v0c0-2.8,2.2-5,5-5h0c2.8,0,5,2.2,5,5v0C69,61.8,66.8,64,64,64z"></path> </g> </g> </g> <g> <g> <g> <path class="st2" d="M84,64L84,64c-2.8,0-5-2.2-5-5v0c0-2.8,2.2-5,5-5h0c2.8,0,5,2.2,5,5v0C89,61.8,86.8,64,84,64z"></path> </g> </g> </g> <g> <g> <g> <path class="st10" d="M80.1,78.5L80.1,78.5c-2.8,0-4.6-2-4.1-4.5v0c0.5-2.5,3.1-4.5,5.9-4.5h0c2.8,0,4.6,2,4.1,4.5v0 C85.5,76.5,82.9,78.5,80.1,78.5z"></path> </g> </g> </g> <g> <g> <g> <path class="st10" d="M60.1,78.5L60.1,78.5c-2.8,0-4.6-2-4.1-4.5v0c0.5-2.5,3.1-4.5,5.9-4.5h0c2.8,0,4.6,2,4.1,4.5v0 C65.5,76.5,62.9,78.5,60.1,78.5z"></path> </g> </g> </g> <g> <g> <g> <path class="st10" d="M40.1,78.5L40.1,78.5c-2.8,0-4.6-2-4.1-4.5v0c0.5-2.5,3.1-4.5,5.9-4.5h0c2.8,0,4.6,2,4.1,4.5v0 C45.5,76.5,42.9,78.5,40.1,78.5z"></path> </g> </g> </g> </g> </svg> 